<?xml version="1.0" encoding="utf-8"?>
<!-- Generator: Adobe Illustrator 28.4.1, SVG Export Plug-In . SVG Version: 6.00 Build 0)  -->
<svg version="1.1" id="Layer_1" xmlns="http://www.w3.org/2000/svg" xmlns:xlink="http://www.w3.org/1999/xlink" x="0px" y="0px"
	 width="1272.4px" height="450.1px" viewBox="0 0 1272.4 450.1" style="enable-background:new 0 0 1272.4 450.1;"
	 xml:space="preserve">
<style type="text/css">
	.Drop_x0020_Shadow{fill:none;}
	.Outer_x0020_Glow_x0020_5_x0020_pt{fill:none;}
	.Blue_x0020_Neon{fill:none;stroke:#8AACDA;stroke-width:7;stroke-linecap:round;stroke-linejoin:round;}
	.Chrome_x0020_Highlight{fill:url(#SVGID_1_);stroke:#FFFFFF;stroke-width:0.3629;stroke-miterlimit:1;}
	.Jive_GS{fill:#FFDD00;}
	.Alyssa_GS{fill:#A6D0E4;}
	.st0{fill-rule:evenodd;clip-rule:evenodd;fill:#08314F;}
	.st1{fill-rule:evenodd;clip-rule:evenodd;fill:#A2C6D1;}
	.st2{fill-rule:evenodd;clip-rule:evenodd;fill:#6996B7;}
	.st3{fill-rule:evenodd;clip-rule:evenodd;fill:#F7C17B;}
	.st4{fill-rule:evenodd;clip-rule:evenodd;fill:#FCE6AF;}
	.st5{fill-rule:evenodd;clip-rule:evenodd;fill:#595757;}
	.st6{fill-rule:evenodd;clip-rule:evenodd;fill:#4F4C4B;}
	.st7{fill-rule:evenodd;clip-rule:evenodd;fill:#FDE8AF;}
	.st8{fill-rule:evenodd;clip-rule:evenodd;fill:#D40E19;}
	.st9{fill-rule:evenodd;clip-rule:evenodd;fill:#D3E5E9;}
	.st10{fill-rule:evenodd;clip-rule:evenodd;fill:#DD7161;}
	.st11{fill-rule:evenodd;clip-rule:evenodd;fill:#A0121C;}
	.st12{fill-rule:evenodd;clip-rule:evenodd;fill:#FFFFFF;}
	.st13{fill-rule:evenodd;clip-rule:evenodd;fill:#8742BD;}
	.st14{fill-rule:evenodd;clip-rule:evenodd;fill:#727171;}
	.st15{fill-rule:evenodd;clip-rule:evenodd;fill:#9D9D9D;}
	.st16{fill-rule:evenodd;clip-rule:evenodd;fill:#C046EF;}
	.st17{fill-rule:evenodd;clip-rule:evenodd;fill:#EE8B7E;}
	.st18{fill-rule:evenodd;clip-rule:evenodd;fill:#B3B3B5;}
	.st19{fill:#FDE8AF;}
	.st20{font-family:'AvengeanceMightiestAvenger';}
	.st21{font-size:17.2296px;}
	.st22{font-size:12.3424px;}
	.st23{fill:#04335F;}
</style>
<linearGradient id="SVGID_1_" gradientUnits="userSpaceOnUse" x1="-30.2521" y1="-152.5342" x2="-30.2521" y2="-153.5342">
	<stop  offset="0" style="stop-color:#656565"/>
	<stop  offset="0.618" style="stop-color:#1B1B1B"/>
	<stop  offset="0.6292" style="stop-color:#545454"/>
	<stop  offset="0.9831" style="stop-color:#3E3E3E"/>
</linearGradient>
<g>
	<g>
		<path class="st0" d="M68.7,186.1c0.2,0.2,0.3,0.5,0.4,0.8l0,0l0,0c0.2,0.7,0.3,1.5,0.5,2.2c7.2-2.7,14.6-4.7,22.1-6.5
			c6.7-1.5,13.4-2.8,20.2-3.8c-0.6-0.4-1.1-0.9-1.7-1.4c-0.6-0.6-1.4-1.4-1.3-2.3c0.2-1.1,1.9-1.7,2.8-2c1.5-0.5,3.2-0.9,4.8-1.3
			c1.7-0.4,3.5-0.7,5.2-1c2-2.9,5-4.3,8.5-4.9c0.7-0.1,1.6-0.2,2.4-0.1c1.6-4.1,3.4-8.2,5.3-12.1c2.2-4.5,4.6-8.9,7.1-13.2
			c4.2-7.2,8.7-14.2,13.5-21c-2.9-0.4-5.8-1-8.6-2c-3.7,1.2-7.4,2.4-11.2,3.5c-9.4,2.7-18.5,5.1-28.3,3.6c-0.2,0-0.4-0.1-0.7-0.1
			c-1.8,0.3-3.7,0.6-5.6,0.7c-4.5,0.3-12.4,0.7-14.2-4.7c-0.3-0.8-0.3-1.6-0.3-2.4c0.3-3.1,2.8-5.9,5-7.9c3.1-3,6.6-5.7,10-8.5
			c0.8-0.6,1.5-1.2,2.3-1.9c2.9-2.4,5.8-4.8,8.6-7.4c1.6-1.5,3.3-3.1,4.8-4.7c0.9-1,2.2-2.4,2.8-3.7c-0.2-1.6-0.3-3.2-0.3-4.8
			c0-10.8,4.2-21,11.9-28.6c4.4-4.4,9.7-7.7,15.6-9.7c-0.8-4.4-1.8-8.7-3-13c-0.8-2.9-1.7-5.9-2.8-8.7c-0.9-2.4-2-4.9-3.4-7.1
			c-0.3-0.5-0.8-1-1.2-1.4c-0.6-0.6-1.2-1.2-1.8-1.8c-0.8-0.8-1.7-1.6-2.5-2.5c-0.5-0.6-1.4-1.6-1.2-2.5l0,0l0,0
			c0.2-0.7,0.9-1,1.5-1.2c0.7-0.3,1.6-0.4,2.3-0.6c2.2-0.4,4.4-0.7,6.6-0.9c2-0.2,4-0.4,6.1-0.6c1.2-0.1,2.4-0.2,3.6-0.3
			c2.9-0.3,5.9-0.5,8.8-0.5c20.8-0.1,39.9,7.7,50.8,26c2.6,4.3,4.5,9,5.9,13.8c4.5,16.1,5.6,33.5-1.6,49.1c-0.5,1-1.3,1.8-2.4,2
			c-0.8,0.1-1.7,0-2.4-0.4c-0.2-0.1-0.3-0.2-0.5-0.3c-0.5-0.3-1-0.5-1.5-0.8c-1.5-0.8-2.9-1.6-4.4-2.4c-1.2-0.7-2.5-1.4-3.7-2.1
			c-1.3,9.7-6.1,18.5-13.5,25c-2,4.3-4,8.6-6,12.9c-3.5,7.8-6.9,15.7-9.8,23.8c-2.6,7.3-4.8,14.8-6,22.5c2.5,0.1,4.8,1.1,6.7,2.7
			c3.3,0.3,6.8,1.2,10,2.1c1.3,0.4,4,0.9,4.3,2.5c0.3,1.6-2.1,2.8-3.2,3.6c-1.2,0.9-2.4,1.7-3.6,2.5c0.3,0.1,0.6,0.1,0.8,0.2
			c3.8,0.8,7.6,1.8,11.3,2.8c5.9,1.7,11.7,4.5,17,7.6c12.1,7.2,22.8,16.9,31.2,28.2c5.3,7.2,11.2,17.3,12.7,26.3
			c0.1,0.9,0.2,1.8,0.2,2.6c9.4,5.1,18.6,10.4,27.7,16c2.6,1.6,5.3,3.3,7.9,5c0.5-0.8,1.2-1.5,1.9-2.1c4.3-3.3,10.5-2.2,14.7,0.7
			c1.1,0.8,2.2,1.7,3.1,2.7c2.6,3,4.1,7,3.1,10.9c-0.2,0.9-0.6,1.8-1.2,2.6c-0.2,0.3-0.4,0.6-0.6,1c5.9,5.5,11.8,12.3,14.6,19.9
			c2.1,5.8,2.2,11.5,0.3,17.4c-0.9,2.9-2.2,5.6-3.5,8.2c-1.4,2.8-3.2,5.4-5,7.9c-3.1,4-6.8,8.1-11,11c-3.3,2.3-8.3,5-12,2
			c-2.7-2.2-3.7-5.2-5.1-8.2c-0.3-0.6-2.1-2-2.6-2.5c-1-0.8-2-1.6-3.1-2.3c-4.7-3.4-9.6-6.4-14.5-9.4c-8.6-5.2-17.3-10.2-26.1-15
			c-0.3,0.3-0.6,0.6-1,0.8c-3.8,2.5-8,3.9-12.5,4.4c-3.9,0.4-7.8,0-11.6-0.8c-3.2-0.7-6.2-1.7-9.2-3c0.4,8.5,0.7,17,1.1,25.5
			c0,0.3,0,0.6-0.2,0.9c-0.3,0.5-0.8,0.9-1.3,1.1c-1,0.5-2.2,0.9-3.3,1.1c-1.8,0.4-3.6,0.7-5.4,1l2.7,13.7c3.8,0.3,9.5,1,12.6,3.1
			c0.7,0.2,1.2,0.7,1.5,1.4c0.8,1.1,0.7,2.4,0.2,3.6c-0.2,1.3-0.5,2.6-0.8,3.9c-0.4,1.5-0.9,3-1.3,4.5c-0.4,1.2-0.7,2.3-1.1,3.5
			c0,0.4-0.1,0.8-0.3,1.2c-0.1,0.2-0.1,0.3-0.2,0.5c-0.4,1.2-0.7,2.4-1,3.6c6.7,5.1,13.3,10.3,19.7,15.9c4,3.5,7.9,7.2,11.4,11.2
			c1.5,1.7,3,3.5,4.3,5.4c1.1,1.6,2.1,3.3,2.8,5.1c1.4,3.6,2,7.5,1.4,11.4c-0.4,2.6-1.4,5.1-3,7.2c-2.4,3.3-5.8,5.5-9.8,6.6
			c-7.3,2-14.8,1.3-21.6-1.7c-7.1-3.1-13.2-8.2-18.3-14c-1.6-1.8-3.1-3.8-4.6-5.8c-1.9-2.6-3.7-5.3-5.4-8c-2.6-4.1-7.8-13-6.8-18
			c0.3-1.3,0.6-2.4,1.1-3.6c0.5-1.1,1-2.1,1.6-3.2c0.7-1.2,1.3-2.5,1.9-3.7c-1-1.4-1.8-2.9-2.6-4.4c-1.1-2.2-2.2-4.4-3.2-6.6
			c-0.7-1.6-1.4-3.2-2-4.9c-0.6-1.5-1.1-2.9-1.5-4.4c-0.4-1.4-1.3-4.6,0.3-5.7c1.6-1.9,5.3-2.8,7.9-3.3c-0.1-0.3-0.2-0.6-0.3-0.9
			c-1.2-4.3-2.4-8.6-3.6-12.9c-3.6-0.3-7.1-0.8-10.6-1.6c-1.1-0.2-2.1-0.5-3.1-0.8c-0.4-0.1-0.8-0.2-1.2-0.4l-0.4-0.1l-0.1-0.4
			c-0.6-1.5-1.2-3.1-1.7-4.6c-0.2-0.5-0.5-1.1-0.7-1.6c-0.4-0.9-0.8-1.7-1.2-2.6c-1.1-2.3-2.1-4.5-3.2-6.8c-1.4,0.1-2.8,0.1-4.1,0.1
			c-0.7,0-1.3,0-2,0c-4.1,0-8.1-0.5-12.1-1.3l0.4,3l1.9,6.2l-0.6,0.3c-0.4,0.3-1.2,0.5-1.6,0.6c-1.7,0.5-3.4,0.8-5.2,1.1l3.3,13.7
			c2.6-0.1,5.1-0.3,7.7-0.5l0.9-0.1l0.1,0.9c0,0.4,0,0.8,0,1.2c0,1.1,0,2.2-0.1,3.2c-0.2,3.7-0.7,7.3-1.5,10.9
			c3.4,7.6,3.9,18.6,3,26.7c-0.3,2.2-2.1,3.8-4.3,3.8H63.8l-0.1,0c-1.9-0.2-2-4.2-2-5.5c0-3.5,0.9-7.2,2.3-10.4
			c1.8-4.2,4.7-7.9,8.4-10.7c4.9-3.6,10.8-5.2,16.9-5.5c3.2-0.2,6.4-0.1,9.6,0.1c3.8,0.2,7.7,0.5,11.5,0.9c3.7,0.4,7.3,0.8,11,1.4
			c0-0.4-0.1-0.8-0.2-1.1c-0.2-1.1-0.5-2.2-0.8-3.3c-0.4-1.5-0.8-3-1.2-4.5c-0.5-2-1.1-3.9-1.6-5.9l-0.3-1.1l1.2,0.1
			c1.7,0.1,3.5,0.1,5.2,0.1l-3.9-13.2c-3.3-0.3-6.6-1-9.8-2c-1-0.3-2-0.7-3-1c-0.4-0.1-0.8-0.3-1.1-0.5l-0.4-0.2l-0.1-0.4
			c-0.5-1.5-0.9-3-1.4-4.6c-0.4-1.3-0.8-2.6-1.2-3.8c-0.7-2.3-1.4-4.5-2.2-6.8c-2-6.1-3.9-12.3-5.9-18.4c-1.4-4.3-2.7-8.7-4-13.1
			c-2.9-5.3-5.7-10.6-8.3-16c-0.5-1-1.2-2.2-1.3-3.4c-0.1-1.5,0.5-3.1,1.4-4.4c0.9-1.3,2.2-2.4,3.8-2.9c-0.6-3.3-0.9-6.7-1.1-10.1
			c-0.2-2.9-0.2-5.8-0.1-8.7c-0.2-0.1-0.5-0.2-0.7-0.3c-1.7-0.7-2.6-2.3-2.5-4.1c0.2-2.8,0.6-5.6,1.1-8.3
			c-6.3,1.9-12.8,3.3-19.3,3.8c-4.6,0.3-9.5-0.1-13.8-1.7c-2-0.5-3.9-1.3-5.7-2.2c-7-3.4-13-9.1-17.7-15.3
			C13.8,200,8.4,179.2,7,159.3c-1.2-2.8-1.7-5.8-1.9-8.8c-3.4-5.5-6.6-13.5-4.4-19.9c1.2-3.2,3.9-6.1,7.4-6.5c1-0.1,1.9,0,2.8,0.2
			c1.7-2.8,4.6-4.9,8-4.5c0.5,0.1,1.1,0.2,1.6,0.4c-0.4-4.5-0.5-9-0.2-13.5c0.3-4.7,1.1-10.8,3.2-15c1.2-2.5,2.6-5,4.4-7.2
			c0.5-0.5,1-1.1,1.5-1.5c1.5-1.3,3.3-2.1,5.3-1.6c4.1,1,4.6,6.3,4.5,10.1c1-1.9,2.2-3.8,3.6-5.4c1.2-1.4,2.6-2.7,4.2-3.5
			c1.7-0.9,3.8-1.2,5.6-0.4c4.8,2.1,3.9,8.8,2.9,12.8l-6.4,25.8c1.2,0.4,2.4,0.9,3.6,1.3c4.4,1.6,7.2,6.4,8.3,10.7
			c0.8,3.1,1.1,6.7,0.2,9.8c-0.9,3.2-2,6.3-3.4,9.3c0.1,0.2,0.1,0.4,0.2,0.5c3,7.8,5.7,15.8,7.9,23.9
			C67.1,179.5,68,182.8,68.7,186.1z"/>
		<path class="st0" d="M57.1,151.7c0.1,0.3,0.2,0.6,0.3,0.9c3,7.8,5.7,15.8,7.9,23.8c0.7,2.4,1.6,5.9,2.6,10
			c0.2,0.2,0.3,0.4,0.3,0.6c0.2,1.1,0.5,2.1,0.6,3.2l0,0c7.4-2.8,15.2-5,22.9-6.8c7.4-1.7,14.8-3,22.3-4.1c-2.2-1.5-4.5-3.2-4.4-4.1
			c0.3-1.5,8.7-3.1,12.5-3.6c1.6-2.5,4.1-4.2,8.1-4.8c0.8-0.1,1.9-0.2,2.8,0c5.8-15.5,17-34.3,26.9-48c-3.5-0.3-6.9-1.1-10.2-2.2
			l-0.1,0c-3.7,1.3-7.5,2.4-11.3,3.5c-9.2,2.7-18.2,5.1-27.9,3.6c-0.3,0-0.5-0.1-0.8-0.1c-1.9,0.3-3.8,0.6-5.6,0.7
			c-4,0.3-11.7,0.7-13.3-4.1c-1.2-3.6,2.1-7.1,4.5-9.4c3.1-3,6.6-5.7,9.9-8.4c0.8-0.6,1.5-1.2,2.3-1.9c3.8-3.1,14.5-11.8,16.5-16.2
			l0.1-0.1c-0.2-1.6-0.3-3.3-0.3-4.9c0-17.7,11.6-32.7,27.6-37.8c-1.7-9.2-4.9-22.7-9.5-29.8c-1.3-2.1-6.8-6.3-6.6-7.5
			c0.4-1.6,17.2-2.7,19.3-2.9c2.9-0.3,5.8-0.5,8.7-0.5c20.5-0.1,39.3,7.5,50.1,25.6c2.5,4.2,4.4,8.8,5.8,13.6
			c4.4,15.9,5.6,33.1-1.5,48.5c-0.8,1.6-2.4,1.8-3.7,1.2c-0.2-0.1-0.3-0.2-0.5-0.2c-0.5-0.3-1-0.5-1.5-0.8c-1.5-0.8-2.9-1.6-4.3-2.4
			c-1.4-0.8-2.9-1.6-4.3-2.4c-0.2-0.1-0.4-0.2-0.6-0.3c-1.1,10.3-6.1,19.4-13.5,25.8c-9.4,19.9-19,40.8-22.1,60.6
			c2.7-0.1,5.3,0.8,7.3,2.7c3.3,0.3,7,1.2,10.1,2.1c1,0.3,3.5,0.8,3.7,1.8c0.2,1-2,2.2-2.9,2.8c-1.5,1.1-3.2,2.2-4.8,3.2
			c-0.2,0.1-0.4,0.3-0.7,0.4c5.5,0.9,11.8,2.7,14.2,3.4c5.9,1.7,11.8,4.5,16.8,7.5c12,7.1,22.7,16.8,30.9,28
			c5.2,7.1,11.1,17.1,12.6,25.9c0.2,0.9,0.2,1.9,0.2,3c9.5,5.1,18.9,10.5,28.1,16.2c2.9,1.8,5.7,3.6,8.6,5.5
			c0.2-0.2,0.3-0.4,0.5-0.7c0.5-0.7,1.1-1.4,1.8-1.9c3.9-3,9.6-2.1,13.7,0.7c4.1,2.8,7.1,7.9,5.8,12.7c-0.2,0.9-0.6,1.7-1.1,2.4
			c-0.3,0.4-0.6,1-1,1.6c6,5.5,12.1,12.4,14.9,20c2.1,5.7,2.1,11.1,0.3,16.9c-0.9,2.8-2.1,5.5-3.5,8.1c-1.4,2.7-3.1,5.3-5,7.8
			c-3,3.9-6.8,8-10.8,10.9c-2.9,2.1-7.6,4.8-11,2.1c-2.5-2.1-3.5-5.1-4.9-7.9c-0.6-1.2-4.8-4.3-6-5.1c-4.7-3.4-9.7-6.4-14.6-9.4
			c-8.8-5.3-17.7-10.4-26.8-15.4c-0.3,0.5-0.7,0.9-1.2,1.2c-3.7,2.4-7.8,3.8-12.1,4.3c-3.8,0.4-7.6,0-11.3-0.8
			c-3.5-0.8-7-2-10.3-3.5c0.3,8.2,0.6,16.7,1.2,27c0,0,0.6,1.9-10.4,3.3l3.1,15.2c5.5,0.4,10.5,1.4,13,3c0.6,0.1,0.9,0.5,1.1,1
			c0.6,0.8,0.6,1.8,0.1,2.9c-0.4,3.3-2,8-3.3,12.1c0,0.3,0,0.6-0.2,0.9c-0.1,0.2-0.2,0.4-0.3,0.5c-0.5,1.7-0.9,3.1-1.1,4.3
			c10.5,7.9,33.7,25.9,38.3,37.6c2.3,5.9,2.4,12.5-1.4,17.8c-2.3,3.2-5.6,5.2-9.3,6.3c-7.1,2-14.4,1.2-21.1-1.7
			c-6.9-3-12.9-8-17.9-13.8c-5.1-5.8-18.1-23.9-16.6-31c0.8-4,2.3-5.5,4.8-10.8c-2.7-3.7-7.7-14.1-9.5-20.5c-0.8-2.8-0.8-4.4,0-4.8
			c1.2-1.5,4.4-2.6,8.4-3.3c-0.2-0.6-0.3-1.2-0.5-1.8c-1.3-4.5-2.5-9-3.8-13.5c-9.2-0.7-15.3-2.8-15.3-2.8s0,0-1.7-4.6
			c-0.6-1.6-2.7-5.9-5.4-11.6c-1.6,0.1-3.1,0.2-4.7,0.2c-0.6,0-1.3,0-2,0c-4.4,0-8.8-0.5-13.1-1.5l0.5,4.3l1.7,5.6
			c0,0-1.3,0.8-7.4,1.8l3.7,15.3c4.9-0.3,8.4-0.5,8.4-0.5s0.4,6.4-1.6,15.4c3.5,7.4,4,18.6,3,26.5c-0.2,1.7-1.7,3-3.4,3H63.8
			c-2.9-0.4-3-28.8,25.5-30.4c8-0.4,22.2,0.8,32.9,2.5c0.1-2.4-1.6-7.2-3.9-16c1.8,0.1,4,0.1,6.4,0.1l-4.4-14.9
			c-8.3-0.8-14.3-3.5-14.3-3.5s0,0-1.4-4.6c-1.1-3.7-8.4-26.1-13.3-42.2c-2.9-5.3-5.7-10.6-8.4-16c-0.4-0.9-1.2-2.1-1.2-3.1
			c-0.1-1.4,0.5-2.7,1.2-3.8c1-1.4,2.5-2.5,4.1-2.7c-0.6-3.5-1-7.1-1.2-10.8c-0.2-3.1-0.2-6.2-0.1-9.3c-0.4-0.2-0.9-0.3-1.3-0.5
			c-1.3-0.5-2.1-1.8-2-3.2c0.3-3.3,0.7-6.5,1.3-9.6c-6.6,2-13.7,3.7-20.5,4.1c-4.3,0.3-9.2-0.1-13.5-1.7c-1.9-0.5-3.8-1.2-5.6-2.1
			c-6.9-3.4-12.8-9-17.4-15C14.7,199.7,9.2,179,7.8,159.1c-1.2-2.7-1.8-5.8-1.9-8.9C2.7,145-0.6,137,1.6,130.9c1-2.9,3.5-5.6,6.7-6
			c1.2-0.1,2.2,0.1,3.1,0.4c1.5-2.9,4.2-5,7.5-4.7c1,0.1,1.9,0.4,2.7,0.9c-0.5-5-0.7-10-0.3-14.9c0.3-4.5,1.1-10.6,3.1-14.7
			c1.2-2.4,2.6-4.9,4.3-7c1.4-1.7,3.5-3.5,6-2.9c4.2,1.1,4,7.8,3.8,11.1l0,2.3c1.4-3.4,3.1-6.5,5.2-8.9c1.1-1.3,2.5-2.5,4-3.3
			c1.5-0.8,3.3-1.1,4.9-0.4c4.3,1.9,3.3,8.3,2.4,11.8l-6.6,26.6c1.3,0.5,2.5,0.9,4.3,1.6c6.5,2.4,9.9,12.7,8,19.4
			C59.6,145.7,58.5,148.9,57.1,151.7z"/>
		<path class="st0" d="M236.9,395.4h25.8c1.1,0,2,0.9,2,2l0,0c0,1.1-0.9,2-2,2h-25.8c-1.1,0-2-0.9-2-2l0,0
			C234.8,396.3,235.8,395.4,236.9,395.4z"/>
		<path class="st0" d="M27.7,395.4h148.1c1.1,0,2,0.9,2,2l0,0c0,1.1-0.9,2-2,2H27.7c-1.1,0-2-0.9-2-2l0,0
			C25.6,396.3,26.6,395.4,27.7,395.4z"/>
		<g>
			<path class="st0" d="M9,145.9l35.2-15.6c0.6-0.3,1.3-0.3,2-0.2c2,0.5,2.5,2.4,3,4c0.1,0.3,0.2,0.6,0.3,0.8
				c3,5.6,5.6,11.7,7.9,17.6c3,7.8,5.7,15.8,7.9,23.8c3.4,12.1,13.4,50.4-4.2,56.2c-5.6,1.8-11.8,0.5-17-2.1
				c-6.9-3.4-12.8-9-17.4-15c-14.3-18.7-19.3-44.2-19.3-67.3C7.5,147.2,8,146.3,9,145.9z"/>
			<path class="st0" d="M124.5,213.9c-0.4,0.1-1,0.3-1.4,0.5c-1,0.4-1.9,0.8-2.9,1.2c-2.9,1.3-5.8,2.6-8.7,3.9
				c-8.1,3.6-16.4,7.1-24.9,9.8c-7.4,2.4-15.5,4.5-23.3,5c-7.8,0.5-17.7-1.1-22.1-8.4c-3.3-5.4-2-11.8,0.7-17.2
				c4.4-8.9,18.2-15.2,27-18.5c7.4-2.8,15.2-5,22.9-6.8c9-2.1,18.1-3.6,27.3-4.7c0.2,0,0.3,0,0.4,0c4.7,0.2,9.4,1.7,11.9,6.1
				c2.3,4.2,1.8,9.5,0.6,14c-1.2,4.5-3.4,9.8-5.8,13.8C125.8,213.3,125.2,213.7,124.5,213.9z"/>
			<path class="st1" d="M119.4,181.3c-38.2,4.6-69,16.1-75.2,28.6c-7.3,14.6,3.2,22.8,18.9,21.8c23.6-1.5,56.3-19.5,60.8-20.4
				C124,211.3,141.2,182.3,119.4,181.3z"/>
			<path class="st2" d="M42.6,222.9c2.4,6.3,10.4,9.5,20.5,8.8c12-0.8,26.4-5.8,38.2-10.7c-0.7-4.7-1.4-8.9-1.4-8.9
				s-9,7.6-26.4,13.1C60.4,229.4,49.6,228.4,42.6,222.9z"/>
			<path class="st1" d="M10.1,148.2c0,60.4,33.2,87.5,50.3,81.9c9.3-3.1,10.1-18.4,6.7-36.2c-4-21.5-13.8-46.6-19.8-57.7
				c-0.8-1.4-1-4-2-3.6L10.1,148.2z"/>
			<path class="st2" d="M38.7,224c7.8,6.1,15.8,8.1,21.7,6.1c1.7-0.6,3.1-1.5,4.2-2.8c-12.9,1.9-22.7-2.1-27.4-11
				C37.4,219.2,37.9,221.8,38.7,224z"/>
			<path class="st2" d="M10.2,154.9c2.1,50.9,28.5,76.1,45.6,75.9c-20-9.9-36-38.8-33.8-71.7C16.3,156.1,14.9,156.9,10.2,154.9z"/>
			<path class="st0" d="M179.3,366c3.2-5.6,33.1-5.9,37.7-0.2C221.6,371.5,196,384.5,179.3,366z"/>
			<path class="st0" d="M198.2,395.7c-0.1,0-0.3,0-0.4,0c-1.7-0.1-3-1.6-2.9-3.3c0-0.3,0.1-0.7,0.2-1c-0.1-0.8-0.3-1.8-0.4-2.4
				c-0.6-3.2-1.4-6.4-2.2-9.6c-1.6-6.3-3.3-12.6-5-18.8c-2.9-10.4-5.9-20.7-8.9-31c-0.3-1.2,0-2.4,0.9-3.2c0.9-0.9,2.1-1.1,3.3-0.7
				l12.3,4.2c1.1,0.4,1.9,1.3,2.1,2.4l12,59.7c0.2,1,0,1.9-0.7,2.7c-0.6,0.8-1.5,1.2-2.5,1.2H198.2z"/>
			<path class="st3" d="M181.6,328.6c18.9,64.1,16.5,63.8,16.5,63.8h7.8l-12-59.7L181.6,328.6z"/>
			<path class="st4" d="M194.4,374.1c2.2,0.2,3.6,2.3,4.5,4.5c-1.4-5.7-3.6-13.9-6.8-25.4c-1.3-0.6-2.6-1.2-3.9-1.8
				C191,361.1,193,368.5,194.4,374.1z"/>
			<path class="st0" d="M182.2,366.3c7.1,4.1,21.2,6,29.3,0.4c11.7-8.2,2.1,12.4,0.8,19.9c10.5,7.9,33.7,25.9,38.3,37.6
				c2.3,5.9,2.4,12.5-1.4,17.8c-2.3,3.2-5.6,5.2-9.3,6.3c-7.1,2-14.4,1.2-21.1-1.7c-6.9-3-12.9-8-17.9-13.8
				c-5.1-5.8-18.1-23.9-16.6-31c0.8-4,2.3-5.5,4.8-10.8c-2.7-3.7-7.7-14.1-9.5-20.5C178.2,365.8,179.1,364.5,182.2,366.3z"/>
			<path class="st5" d="M182.5,369.8c0.8,2.9,2,5.8,3.3,8.6c1,2.2,2,4.3,3.1,6.4c0.8,1.4,1.6,3,2.6,4.3c0.7,0.9,0.8,2.1,0.3,3.1
				c-0.7,1.5-1.4,2.9-2.2,4.4c-0.5,0.9-1,1.9-1.4,2.9c-0.4,0.9-0.7,1.9-0.9,2.9c-0.7,3.4,4.5,12.3,6.3,15.2c1.7,2.6,3.4,5.2,5.3,7.7
				c1.4,1.9,2.8,3.8,4.4,5.5c4.7,5.3,10.3,10.2,16.9,13c6.1,2.6,12.7,3.3,19.1,1.5c3.1-0.9,5.8-2.5,7.6-5.1c3.2-4.4,3-10,1.1-14.9
				c-4.3-11-27.6-29-37.3-36.3c-0.9-0.7-1.4-1.8-1.2-2.9c0.5-3.2,1.8-6.7,2.8-9.8c0.4-1.2,1.6-5.2,2-7.7c-0.4,0.2-0.7,0.5-0.9,0.6
				C205.2,374.7,191.4,374.1,182.5,369.8z"/>
			<path class="st6" d="M182.5,369.8c0.8,2.9,2,5.8,3.3,8.6c1,2.2,2,4.3,3.1,6.4c0.8,1.4,1.6,3,2.6,4.3c0.7,0.9,0.8,2.1,0.3,3.1
				c-0.7,1.5-1.4,2.9-2.2,4.4c-0.5,0.9-1,1.9-1.4,2.9c-0.4,0.9-0.7,1.9-0.9,2.9c-0.7,3.4,4.5,12.3,6.3,15.2c1.7,2.6,3.4,5.2,5.3,7.7
				c1.4,1.9,2.8,3.8,4.4,5.5c4.7,5.3,10.3,10.2,16.9,13c6.1,2.6,12.7,3.3,19.1,1.5c3.1-0.9,5.8-2.5,7.6-5.1c1.8-2.4,2.5-5.3,2.4-8.1
				c-2.5,1.1-5.7,2.2-9.5,3.3c-18.9,5.2-33.6-12.8-40.3-24.4c-6.7-11.6-3.1-17.4-3.1-17.4s-2.3-7.5-4.6-20.8
				C188.5,372.1,185.3,371.2,182.5,369.8z"/>
			<path class="st0" d="M158,292.9c0.3-0.8,0.6-1.5,0.9-2.3c1.1-2.5,3.1,0.5,5.4,3.9c7.7,1.6,15.4,2.1,22.5,1.9
				c5-4.9,8.5-15,12.5-10.7c2.4,2.7,3.6,5.7,5.2,9c4.6-0.7,3.8,4.7,3.8,4.7c0.9,14.2,1.2,26.5,2,43.7c0,0,0.7,2.4-14.8,3.8
				c-15.6,1.4-27.1-2.7-27.1-2.7s0,0-1.7-4.6c-1.7-4.6-16.3-32.9-21.2-47.4c3.6,2.3,6.2-1.5,10.2-0.1
				C156.5,292.4,157.2,292.7,158,292.9z"/>
			<path class="st0" d="M115.6,305.6l12.3,4.2c1.1,0.4,1.8,1.2,2.1,2.3l14.5,59.9c0.2,1,0,1.9-0.6,2.7c-0.6,0.8-1.5,1.2-2.5,1.2
				h-7.8c-1.4,0-2.7-0.9-3.1-2.3c-6.3-21.4-12.6-42.7-18.9-64.1c-0.3-1.2,0-2.4,0.9-3.2C113.3,305.5,114.5,305.2,115.6,305.6z"/>
			<path class="st3" d="M114.6,308.7c18.9,64.1,18.9,64.1,18.9,64.1h7.8l-14.5-59.9L114.6,308.7z"/>
			<path class="st0" d="M125.6,316.6c7.9,0,14.3,4.4,14.3,9.8c0,5.4-6.4,9.8-14.3,9.8c-7.9,0-14.3-4.4-14.3-9.8
				c0-1.3,0.4-2.6,1.1-3.8v0c-5.7-4.6-10.2-11.9-12-20.3c3.2,3.6,6.8,6.9,10.6,9.9c0.8,1.7,1.7,3.4,2.8,4.9c0.6,0.8,1.2,1.6,1.8,2.4
				l0,0C118.1,317.6,121.6,316.6,125.6,316.6z"/>
			<path class="st0" d="M119.9,265.3c0.9,0,1.9,0.1,2.8,0.2c7.2,0.9,13.4,5.2,18,10.7c5,6.1,8.1,13.8,8.9,21.6
				c0.7,6.4-0.1,13-2.8,18.9c-2.4,5.2-6.3,9.7-11.5,12.2c-2.9,1.4-5.9,2.1-9.1,2.1c-0.9,0-1.9-0.1-2.8-0.2
				c-7.2-0.9-13.4-5.2-18-10.7c-5-6.1-8.1-13.8-8.9-21.6c-0.7-6.4,0.1-13,2.8-18.9c2.4-5.2,6.3-9.7,11.5-12.2
				C113.7,266,116.8,265.3,119.9,265.3z"/>
			<path class="st0" d="M143.2,176.1c-34.7,0-59.7,34.4-57.4,76.7c2.5,46.3,38.1,72.6,70.6,72.1c19.3-0.3,35.9-6.6,41.3-26.5
				c2.8-10.6-0.8-27.1-1.7-44.2C193.7,211.9,177.9,176.1,143.2,176.1z"/>
			<path class="st0" d="M91.8,267.8c22.1,18.4,69.2,13.7,94.4,4.6c5.2-1.9,8.3-8.3,12-5.1c5.9,4,7.5,31.2,4.7,35.8
				c-5.9,9.6-14.4,17.2-25.8,21.6c-16.4,6.2-35,4.1-50.7-3.1c-14.8-6.8-25.6-15.5-33.2-28.9c-3.6-6.3-7-12.8-10.2-19.3
				c-0.4-0.9-1.2-2.1-1.2-3.1c-0.1-1.4,0.5-2.7,1.2-3.8c1.5-2.1,4.1-3.6,6.6-2C91,265.2,91.2,266.5,91.8,267.8z"/>
			<path class="st0" d="M130.9,305.3c-10.9,0-27-27.5-29.9-18.1c-4.3-2.2-8.6-4.9-12.6-8.2c3.9,14.4,14.9,47.8,16.2,52.4
				c1.4,4.6,1.4,4.6,1.4,4.6s10.8,4.8,23.1,3.4c12.4-1.4,14.6-2.7,14.6-2.7l-1.7-5.6l-0.9-8.1c4.1-5.4,6.6-9.3,5.2-21.8
				C145.1,288.6,141.8,305.3,130.9,305.3z"/>
			<path class="st5" d="M103.5,288c-0.2,0.8-0.7,1.3-1.5,1.6c-0.7,0.3-1.5,0.3-2.2-0.1c-2.3-1.2-4.6-2.5-6.8-4
				c1.6,5.4,3.3,10.7,4.9,16c1.9,6.1,3.9,12.3,5.9,18.4c1.1,3.5,2.3,7.1,3.4,10.7c0.3,1.1,0.7,2.3,1,3.4c1.7,0.7,3.7,1.2,5.4,1.6
				c4.9,1.2,10.2,1.7,15.3,1.1c3.6-0.4,7.4-0.9,10.9-1.7c0.2,0,0.5-0.1,0.8-0.2l-1-3.2c0-0.2-0.1-0.3-0.1-0.5l-0.9-8.1
				c-0.1-0.7,0.1-1.3,0.5-1.9c1-1.3,1.9-2.6,2.7-4c1.1-1.9,1.7-3.8,2-5.9c0.5-3.3,0.3-6.8,0-10.1c0-0.2,0-0.4-0.1-0.6
				c-0.8,0.9-1.7,1.8-2.6,2.7c-2.9,2.7-6.2,4.5-10.2,4.5c-5.8,0-12-5.8-16-9.6c-2.5-2.4-5-5-7.6-7.4
				C106.7,290.4,104.6,288.5,103.5,288z"/>
			<path class="st7" d="M100.5,309.9c1.1,3.4,2.1,6.7,3.2,10.1c1.1,3.5,2.3,7.1,3.4,10.7c0.3,1.1,0.7,2.3,1,3.4
				c1.7,0.7,3.7,1.2,5.4,1.6c4.9,1.2,10.2,1.7,15.3,1.1c3.6-0.4,7.4-0.9,10.9-1.7c0.2,0,0.5-0.1,0.8-0.2l-1-3.2
				c0-0.2-0.1-0.3-0.1-0.5l-0.9-8.1c-0.1-0.7,0.1-1.3,0.5-1.9c0.3-0.4,0.6-0.9,1-1.3c-0.4-0.6-0.7-1.2-1.1-1.8
				c-1.1-1.7-2.9-1.6-4.7-1.6c-0.9,0-1.7-0.1-2.4-0.6c-0.6-0.5-0.3-1.4,0-1.9l4.5-7.5c-1.5,0.7-3,1.1-4.8,1.2l-3.7,3
				c-0.8,0.6-1.5,1.4-2.1,2.3c0,0,0-0.1-0.1-0.1c-0.5-0.7-1-1.2-1.7-1.5c-1.4-0.7-3.1-1.2-4.6-0.9c-0.7,0.2-1.3,0.5-1.8,1
				c-0.6,0.4-1.1,1.1-1.4,1.7c-0.1,0.2-0.2,0.4-0.3,0.7c-3.4-3.9-1.9-5-1.8-8.1c-1.6,0.4-3.5,0.8-4.5,2.6c-0.1-0.3-0.2-0.6-0.3-0.9
				c-0.9-2.6-5.3-7.5-9.3-6.6c1.1,3.2,3,4.7,0.9,8.2C100.8,309.5,100.7,309.7,100.5,309.9z"/>
			<path class="st8" d="M101.5,313c0.7,2.3,1.5,4.7,2.3,7c1.1,3.5,2.3,7.1,3.4,10.7c0.3,1.1,0.7,2.3,1,3.4c1.7,0.7,3.7,1.2,5.4,1.6
				c4.9,1.2,10.2,1.7,15.3,1.1c3.6-0.4,7.4-0.9,10.9-1.7c0.2,0,0.5-0.1,0.8-0.2l-1-3.2c0-0.2-0.1-0.3-0.1-0.5l-0.9-8.1
				c0-0.2,0-0.3,0-0.5c-0.9-1.6-1.6-2.7-1.8-3c-0.7-1-3.8,0.5-6.5-1.5c-2.7-2-0.7-5.3-0.7-5.3s-3.9,3.2-2.1,5.9
				c1.8,2.7-1.1-2.2-2.1-2.2c-1.3-0.1-1.2-2.1-2.5-2.7c-2.9-1.5-3.6-0.2-3.6-0.2s-1.7,0.7-0.6,4.4c1.1,3.6-2.3,4.7-2.3,2.1
				c-0.1-2.5-2.1-4.3-4.3-6c-2.2-1.7,0.1-3.7,0.1-3.7s-3.1,0.6-2.4,2.6c0.7,2,0.9,4.2-1.5,3.4c-2.4-0.8,0.8-1.9-1.2-8
				c-1.3-3.9-4.3-4.9-3.8-4.2c0.9,1.3,1.9,3.2,0,6.4C102.7,311.4,102.1,312.2,101.5,313z"/>
			<path class="st7" d="M90.4,280.9c3.4,7.8,10,9.6,15.5,15.5c5.8,6.2,10.8,16.4,18,20.3c10.6,5.6,22.2,8.5,33.4,8.4
				c48.5-0.7,45.7-52.5,40-53.7c-2.7-0.5-2.6,1.3-10,4c-24.7,8.9-74.1,14.8-97.9-5.5c-0.5-0.4-1-2.6-1.6-2.9
				c-1.2-0.8-2.9,1.7-2.9,2.9C85,270.2,89.6,279.1,90.4,280.9z"/>
			<path class="st0" d="M104.7,281.7c24.6,8.8,60.6,4,81.6-3.4c5.2-1.9,14.6-5.1,19.8-1.7c1.7,1.1,2.7,2.7,3.3,4.6
				c0.2,0.6,0.3,1.2,0.4,1.8c0,0.2,0.1,0.5,0.1,0.7c0.5,0.8,0.6,1.6,0.3,2.5c-7.4,26.9-27.8,42.1-55.5,42.1
				c-5.2,0-10.4-0.8-15.5-2.1c-8.1-2.2-21.6-9.9-29.1-19.9c-6.4-4.2-10.3-11.8-15.1-19.6c-0.3-0.6-2.4-3.5-2.1-1.9
				c0.7,3.4,3.3,12.7,2.8,11.5C91,286,87.3,281,83.4,274c-0.6-1.1-0.4-2.4,0.3-3.4c0.8-1-0.5-3.1,0.8-2.8c0.1,0.3,0.2,0.6,0.3,0.8
				c1.1,2.4,4.3,5.3,8.9,7.9C97.5,278.7,102.5,280.9,104.7,281.7z"/>
			<path class="st5" d="M90.4,280.9c11.9,27.2,40.6,44.2,64.2,44.2c2.7,0,5.3-0.2,7.8-0.4c0.6,1.3,1.3,2.6,1.9,4
				c2.2,4.6,4.2,8.8,6,13.6c2,0.6,4.2,1.1,6.2,1.4c6.1,1.1,12.5,1.4,18.7,0.8c5.1-0.5,7.3-1,12.4-1.9c-0.3-5.7-3.1-64.3-7.7-64.3
				c-2.8,0-6.8,0.8-12.6,2.9c-24.4,8.6-72.6,14.5-97.3-4c-3-2.2-2.9-3-0.9,1C89.7,279.3,90.2,280.4,90.4,280.9z"/>
			<path class="st7" d="M110.5,307.5c1.1,0.9,2.2,1.8,3.3,2.6c-0.2-1.3,0.3-2.4,0.4-4.2C113,306.2,111.5,306.6,110.5,307.5z"/>
			<path class="st7" d="M105,302.3c1,1.1,2.1,2.1,3.2,3.1C107.4,304.3,106.2,303.2,105,302.3z"/>
			<path class="st7" d="M116.8,312.3c12,8.2,25.6,12.8,37.9,12.8c2.7,0,5.3-0.2,7.8-0.4l0.4,0.7c0.1-0.6,0-1.2-0.3-1.8
				c-0.9-1.6-1.9-3.3-2.9-4.9c-0.5-0.9-1-1.8-1.6-2.6c-1.1-1.7-2.9-1.6-4.7-1.6c-0.9,0-1.7-0.1-2.4-0.6c-1.4-1.1-1.3-3.5,0.3-5.7
				c-4,0.3-6.3,2.3-7.2,4.6c-0.5-0.7-1.2-1.1-2.1-1.1c-1,0-2.2,0.3-3,0.8c-0.9,0.5-1.5,1.1-1.9,1.9c-1.7-3-6.1-4.2-3-8.1
				c-3-1.2-4.8-0.4-6,0.5c0-0.1,0-0.1-0.1-0.2c-3.1-9.1-11.4-5.1-11.1-3.6c1.3,0.6,4.6,2.3,1.5,6.5
				C117.8,310.2,117.2,311.2,116.8,312.3z"/>
			<path class="st7" d="M155.8,325.1c2.3,0,4.5-0.2,6.7-0.4c0.6,1.3,1.3,2.6,1.9,4c2.2,4.6,4.2,8.8,6,13.6c2,0.6,4.2,1.1,6.2,1.4
				c6.1,1.1,12.5,1.4,18.7,0.8c5.1-0.5,7.3-1,12.4-1.9c-0.1-1.9-0.5-9.6-1.1-19.1c-0.8-0.7-1.9-1.8-2-2.7c0-0.5,0.3-1,0.6-1.3
				c0.5-0.6,0.8-1.2,1-1.9c-0.1-1.6-0.2-3.1-0.4-4.7c-0.5-1-1.3-1.9-2.3-2.7c-1.9-1.4-4.2-2.2-6.6-2.4c-1.2-0.1-2-2.1-2.3-1
				c-2,5.9,3.3,4.2-0.4,8.5c-1.6,1.9-2.6,3.7-2.9,5.4c-1.2,0-2.6,0.3-3.7,0.9c-2.7,1.5-3.3,4.3-2.5,7.1c-0.1-0.1-0.3-0.2-0.3-0.3
				c-0.1-4.4-2.8-6.9-6-9.5c-1.3-1.1-1.6-1.3-0.7-3.2c0.5-1.1,1.3-2.7,0.5-4.2c-0.2-0.3-1,0.8-4.3,1.4c-1.2,0.2-2.4,0.6-3,1.6
				c-0.2-0.6-0.4-1.2-0.6-1.8c-0.8-2.3-2.1-4.5-4-6c-3.6-2.8-4.1-0.1-7.5-0.8c-2.6-0.5-3-2.8-2.8-1.8c-1,4.4,2.4,6.6,3.8,6.6
				c0.5,0,1.2,0.6,1.5,0.9c0.5,0.7,0.2,1.4-0.2,2.1c-0.9,1.5-2.1,2.9-3.1,4.3c-1.4,2.1-2.4,4.3-2.6,6.8
				C155.8,324.9,155.8,325,155.8,325.1z"/>
			<path class="st8" d="M119,313.7c11.4,7.3,24.1,11.4,35.7,11.4c1.9,0,3.8-0.1,5.7-0.2c-2.1-3.6-4.1-6.9-4.4-7.4
				c-0.7-1-3.8,0.5-6.5-1.5c-2.7-2-0.7-5.3-0.7-5.3s-3.9,3.2-2.1,5.9c1.8,2.7-0.1,3.9-1.1,3.9c-1.3-0.1-1.2-2.1-2.5-2.7
				c-2.9-1.5-1.1-3.5-1.1-3.5s-3.7-0.1-2.6,3.6c1.1,3.6-3.8,2.7-3.9,0.1c-0.1-2.5-2.1-4.3-4.3-6c-2.2-1.7,0.1-3.7,0.1-3.7
				s-3.1,0.6-2.4,2.6c0.7,2,0.9,4.2-1.5,3.4c-2.4-0.8,0.3-0.8-1.8-6.9c-2.1-6-7.1-3.9-5.8-3.9c1.3,0,4.5,1.8,2.5,4.9
				C121.4,310,119.8,311.6,119,313.7z"/>
			<path class="st8" d="M158.4,325c1.4-0.1,2.8-0.2,4.1-0.4c0.6,1.3,1.3,2.6,1.9,4c2.2,4.6,4.2,8.8,6,13.6c2,0.6,4.2,1.1,6.2,1.4
				c6.1,1.1,12.5,1.4,18.7,0.8c5.1-0.5,7.3-1,12.4-1.9c-0.1-1.6-0.4-7.6-0.8-15.3l0,0c-0.3-0.4-0.7-0.9-1.4-1.4
				c-3.1-2.4-4.6-5-2.3-8c2.3-3-0.5-7-6.3-7.5c2.5,1.5,2.5,3.1-0.5,6.6c-3,3.5-3.4,5.7,0.1,9.4c2,2.2,2,4.2,0.8,5.6
				c-0.2,0.1-0.5,0.1-0.7,0.1c-1.9-0.1-1.7-2.9-3.6-3.8c-4.1-2.1-1.6-4.9-1.6-4.9s-5.2-0.1-3.6,5c1.5,5.1-5.3,3.7-5.4,0.2
				c-0.1-3.6-3-6.1-6-8.5c-3-2.4,0.1-5.3,0.1-5.3s-4.4,0.8-3.4,3.6c1,2.8,1.3,5.9-2.1,4.8c-3.4-1.1,0.4-1.2-2.5-9.7
				c-2.9-8.5-10-5.4-8.1-5.4c1.9,0,6.3,2.5,3.6,6.9C162,317.8,158.8,320.6,158.4,325z"/>
			<path class="st0" d="M210,238.7c-0.1,0.1-0.1,0.1-0.2,0.2c-5.6,5-16,8.2-23.2,10.1c-5.5,1.5-11.2,2.6-16.8,3.5
				c-2.2,0.3-4.3,0.7-6.5,0.9c-1.4,0.2-2.9,0.3-4.3,0.3c-4.5,0-8.9-5.4-11.5-8.8c-2.1-2.8-4.2-5.9-5.9-9l-27.8-2.4l-10.9,12.4
				c-0.6,0.7-1.4,1.1-2.3,1.1c-1.5,0-3.2-0.2-4.7-0.5c-3.9-0.7-7.7-1.8-11.4-3.3c-1.3-0.5-2.1-1.8-2-3.2c1-12.1,4.4-23.6,10.2-34.2
				c7.8-14.2,21-23.3,37.5-22.1c7.3-3.6,4.6-10.7,12.8-10.7c6.9,0,13.7,1.2,20.1,3.6c25,9.1,41.7,33.4,47.8,59.1
				C211.2,236.8,210.8,237.9,210,238.7z"/>
			<path class="st1" d="M143,176.1c-30.9,0-54.3,27.7-57.3,64c8.7,3.6,15,3.6,15,3.6l12-13.6l31,2.7c0,0,9.7,17.7,15.5,17.7
				c5.8,0,38.5-5,48.7-14c0,0,0.1-0.1,0.1-0.1C199.7,201.9,173.8,176.1,143,176.1z"/>
			<path class="st2" d="M132.8,177.2c-5.2,1.1-10.2,3-14.7,5.6c-0.7,6.4,2.5,10.8,17.4,17c15.1,6.3,37.1,0.4,45.7-8.9
				c-9-7.7-19.5-12.7-30.9-14.3C144.1,176.6,138,176.9,132.8,177.2z"/>
			<path class="st4" d="M109.6,240.3c-2.6,7.7-2.3,15.1-1.1,20.4c1.9,8.5,5.4,10.5,13.8,14.8c8.3-2.7,12.1-4.1,14.6-11.9
				c1.7-5.1,2.7-12.6,0.5-21c-8.9,1.5-13.8-4.9-13.8-4.9S118.4,243.3,109.6,240.3z"/>
			<path class="st7" d="M134.6,246.7c-3.2-0.1-6.3-0.9-9.1-2.6c-0.7-0.4-1.3-0.9-2-1.4c-0.7,0.4-1.4,0.7-2.1,1
				c-2.9,1.2-6,1.5-9.1,1.1c-1.1,5-1.1,10.2,0,15.1c0.5,2.3,1.3,4.7,2.9,6.5c1.8,2,5,3.8,7.6,5.1c2.6-0.8,5.8-2,7.6-3.6
				c1.6-1.4,2.5-3.4,3.1-5.4C135.1,257.4,135.4,251.9,134.6,246.7z"/>
			<path class="st0" d="M133.4,247.9c-1.3-0.1-2.7-0.3-3.9-0.7c-1.6-0.5-3.2-1.2-4.7-2.1c-0.4-0.2-0.7-0.4-1.1-0.7
				c-0.1-0.1-0.2-0.2-0.4-0.3c-0.1,0.1-0.2,0.1-0.3,0.2c-0.4,0.2-0.7,0.3-1.1,0.5c-1.6,0.6-3.2,1-4.8,1.2c-1.2,0.2-2.5,0.2-3.8,0.1
				c-0.4,2-0.6,4.1-0.6,6.1c0,2.4,0.3,4.9,0.8,7.3c0.2,1.1,0.5,2.2,1,3.2c0.4,1,0.9,1.9,1.6,2.7c0.8,0.9,1.9,1.8,3.2,2.6
				c1.2,0.7,2.4,1.4,3.5,2c1.1-0.4,2.3-0.8,3.5-1.3c1.2-0.5,2.4-1.1,3.2-1.8c0.7-0.6,1.2-1.3,1.6-2.1c0.5-0.8,0.8-1.8,1.1-2.7
				c0.8-2.4,1.2-4.9,1.4-7.4C133.8,252.4,133.7,250.2,133.4,247.9L133.4,247.9z M130.2,244.7c1.4,0.4,2.9,0.6,4.4,0.7l1.1,0l0.2,1.1
				c0.4,2.8,0.6,5.6,0.4,8.4c-0.2,2.7-0.7,5.4-1.5,8c-0.3,1.1-0.8,2.1-1.3,3.2c-0.6,1.1-1.3,2-2.2,2.9c-1,0.9-2.4,1.7-3.9,2.3
				c-1.4,0.6-2.9,1.1-4.2,1.5l-0.5,0.2l-0.5-0.3c-1.4-0.7-2.9-1.5-4.2-2.4c-1.5-0.9-2.8-1.9-3.8-3.1c-0.9-1-1.6-2.2-2.1-3.4
				c-0.5-1.2-0.8-2.4-1.1-3.6c-0.6-2.6-0.9-5.2-0.9-7.8c0-2.7,0.3-5.3,0.9-7.9l0.3-1.2l1.2,0.2c1.4,0.2,2.9,0.2,4.3,0
				c1.4-0.2,2.7-0.5,4.1-1.1c0.3-0.1,0.6-0.3,0.9-0.4c0.3-0.2,0.7-0.3,1-0.5l0.8-0.4l0.7,0.6c0.3,0.2,0.6,0.5,0.9,0.7
				c0.3,0.2,0.6,0.4,0.9,0.6C127.4,243.7,128.8,244.3,130.2,244.7z"/>
			<path class="st0" d="M86,235.3c7.1,3,11.9,3.5,13.4,3.6l12.6-13.7l32.1,2.8l0.3,0.5c0,0,3.6,6.6,7.7,11.6l-1.7,1.3
				c-3.5-4.4-6.3-10.6-7.2-12.2l-30.9-2.5l-12.1,13.4l-0.5,0c0,0-5.7,0.8-14.6-2.9L86,235.3z"/>
			<path class="st7" d="M134,228.5l-21.5-1.7l0,0l-5.4,5.9l-6.7,7.5l-0.5,0c0,0-5.3,0.7-13.6-2.5c-0.1,0-0.2-0.1-0.3-0.1
				c0,0.4-0.1,0.8-0.1,1.2c0,0.5-0.1,1-0.1,1.4c0.1,0,0.2,0.1,0.3,0.1c0.4,0.2,0.9,0.3,1.3,0.5c7.9,3,13.3,3,13.3,3l4.4-5l5.6-6.3
				l2-2.3l21.1,1.8l0,0l9.9,0.9c0,0,1.1,2,2.8,4.7c0.2-0.4,0.5-0.8,0.7-1.2c-1.8-3.1-3.1-6-3.7-7.1L134,228.5z"/>
			<path class="st9" d="M87.9,233.1c1.8-12.3,9.1-29.9,17.6-39l3.8-3.3c-6.8,15.2-13.5,25.4-14.8,42.8c-0.1,1.8-1.8,3.2-3.6,3.1
				C89.1,236.5,87.8,234.9,87.9,233.1z"/>
			<path class="st4" d="M132.8,359.4l-5.9-19.8c-1.1,0.1-2.1,0.1-3.2,0.1l6.2,21C130.9,360.1,131.8,359.7,132.8,359.4z"/>
			<g>
				<path class="st7" d="M189.5,300.6c2.7,2.2-0.5,2.7-1.6,6.5c-1.1,3.8,3.3,5.7,3.3,5.7s-1.9-3.4,0.4-5.7
					C193.9,304.8,192.8,301.4,189.5,300.6z"/>
				<path class="st7" d="M142.2,299.2c2.3,1.8-0.4,2.3-1.3,5.4c-1,3.1,2.8,4.8,2.8,4.8s-1.6-2.8,0.3-4.8
					C145.9,302.7,145.1,299.9,142.2,299.2z"/>
				<path class="st7" d="M107.1,292.3c2,1.6-0.3,2-1.2,4.8c-0.8,2.8,2.5,4.2,2.5,4.2s-1.4-2.5,0.3-4.2
					C110.3,295.4,109.6,293,107.1,292.3z"/>
				<path class="st7" d="M113.1,299c-2.2,1.9-1.2,3.7-0.3,4.5c0.9,0.8,0.8,0.5,0.8,0.5s0.6-1.3,0.4-2.5
					C113.9,300.4,113,299.4,113.1,299z"/>
				<path class="st7" d="M185.4,297.8c-2.2,1.9-1.2,3.7-0.3,4.5c0.9,0.8,0.8,0.5,0.8,0.5s0.6-1.3,0.4-2.5
					C186.2,299.2,185.3,298.2,185.4,297.8z"/>
				<path class="st7" d="M183,307.9c-2.2,1.9-1.2,3.7-0.3,4.5c0.9,0.8,0.8,0.5,0.8,0.5s0.6-1.3,0.4-2.5
					C183.8,309.3,182.9,308.3,183,307.9z"/>
				<path class="st7" d="M139.2,294.6c-2.2,1.9-1.2,3.7-0.3,4.5c0.9,0.8,0.8,0.5,0.8,0.5s0.6-1.3,0.4-2.5
					C140,296,139.1,295,139.2,294.6z"/>
			</g>
			<path class="st0" d="M193.8,222c8.1,3.1,16.1,6.5,24,10.2c8.7,4,17.4,8.2,25.9,12.6c13.3,6.9,26.5,14.2,39.3,22.1
				c5.4,3.3,10.7,6.8,15.9,10.5c4,2.9,8.1,5.9,11.7,9.2c6.2,5.6,12.7,12.7,15.6,20.6c2.1,5.7,2.1,11.1,0.3,16.9
				c-0.9,2.8-2.1,5.5-3.5,8.1c-1.4,2.7-3.1,5.3-5,7.8c-3,3.9-6.8,8-10.8,10.9c-2.9,2.1-7.6,4.8-11,2.1c-2.5-2.1-3.5-5.1-4.9-7.9
				c-0.6-1.2-4.8-4.3-6-5.1c-4.7-3.4-9.7-6.4-14.6-9.4c-14-8.5-28.5-16.4-43-24.1c-14-7.4-28.2-14.6-42.5-21.4
				c-5.2-2.5-10.5-4.9-15.9-7.1c-1.8-0.7-3.7-1.5-5.5-2.1c-1-0.4-2.2-0.8-3.3-0.9c-3-0.5-7.5-1.1-10.5-0.6c-1.6,0.3-3.3,0.1-4.8-0.6
				c-5.1-2.4-5.9-9.7-5.7-14.6c0.3-7.2,2.7-14.8,6.2-21c4.1-7.3,10.1-13.4,17.9-16.7C173.6,217.2,184.2,218.4,193.8,222z"/>
			<path class="st10" d="M192.9,224.5c38.4,14.6,96.7,46.6,116,64.1c21.4,19.4,17.6,31.3,11.8,42.5c-5.7,11.2-18.7,23.1-22.8,19.9
				c-2-1.6-2.9-4.3-4.2-7c-4.7-10.1-118-69.2-132.7-71.6c-4-0.6-8.5-1.1-11.3-0.6C132.7,274.8,144.4,206,192.9,224.5z"/>
			<path class="st8" d="M315.3,295c14.1,15.7,10.5,26.2,5.4,36.1c-5.7,11.2-18.7,23.1-22.8,19.9c-2-1.6-2.9-4.3-4.2-7
				c-4.7-10.1-118-69.2-132.7-71.6c-4-0.6-8.5-1.1-11.3-0.6c-6.5,1.2-8.8-8.2-6.5-19.1c5.3-16.6,21-34,48.4-23.6
				C226.6,242.3,289.7,275.8,315.3,295z"/>
			<path class="st10" d="M315.4,295c7,7.9,9.7,14.4,9.9,20.2c0.2,5.8-1.9,10.9-4.5,15.9c-1.5,3-3.6,6.1-5.9,8.9
				c-3,3.7-6.3,6.9-9.3,9c-3,2.1-5.6,3.1-7.3,2.3c-0.1-0.1-0.3-0.2-0.4-0.3c-1.6-1.3-2.5-3.3-3.5-5.5c-0.2-0.5-0.5-1-0.7-1.6
				c-2.2-4.7-27.7-19.9-55.9-35.1c-32.7-17.6-68.9-35.2-76.8-36.5c-2-0.3-4.1-0.6-6.1-0.7c-2-0.1-3.8-0.1-5.2,0.1
				c-0.8,0.1-1.5,0.1-2.1,0c-1.3-0.3-2.4-1.1-3.2-2.3c-0.8-1.2-1.4-2.8-1.8-4.7c-0.6-3.4-0.4-7.6,0.5-12.1l0,0
				c0.2-0.8,0.5-1.5,0.8-2.3c2.9-7.6,8-15.2,15.4-19.8c7.4-4.6,17.2-6.4,29.5-2.4c0.9,0.3,1.8,0.6,2.7,1c17.6,6.7,42.3,18.5,65.7,31
				C280.6,272.3,302.6,285.4,315.4,295L315.4,295L315.4,295z M325.2,315.2c-0.2-5.8-2.9-12.3-9.9-20.2c-12.7-9.5-34.7-22.6-57.9-35
				c-23.5-12.5-48.1-24.3-65.7-31c-0.9-0.3-1.8-0.7-2.7-1c-12.2-3.9-22-2.2-29.4,2.4c-7.4,4.6-12.5,12.1-15.4,19.8
				c-0.3,0.8-0.6,1.5-0.8,2.3c-1,4.5-1.1,8.8-0.5,12.1c0.3,1.9,0.9,3.5,1.7,4.7c0.8,1.2,1.9,2,3.2,2.3c0.6,0.1,1.3,0.1,2.1,0
				c1.4-0.3,3.3-0.3,5.2-0.1c2,0.1,4.1,0.4,6.1,0.7c7.9,1.3,44.2,18.9,76.9,36.5c28.2,15.2,53.7,30.4,55.9,35.1
				c0.2,0.5,0.5,1,0.7,1.6c0.9,2.1,1.8,4.2,3.4,5.5c0.1,0.1,0.3,0.2,0.4,0.3c1.6,0.8,4.2-0.2,7.2-2.3c3-2.1,6.3-5.3,9.3-9
				c2.3-2.8,4.3-5.8,5.9-8.8C323.3,326.1,325.4,321,325.2,315.2z"/>
			<path class="st11" d="M317.5,297.5c11.5,14.3,8.1,24.2,3.3,33.6c-5.7,11.2-18.7,23.1-22.8,19.9c-2-1.6-2.9-4.3-4.2-7
				c-4.7-10.1-118-69.2-132.7-71.6c-4-0.6-8.5-1.1-11.3-0.6c-3.1,0.6-5.3-1.3-6.5-4.7c9.8-3.8,26.2,2,45.4,8.3
				c20.6,6.7,43.6,14.1,43.6,14.1l6.7,11.9c0,0,6.4,4.3,25.5,15.9c19.1,11.6,17.8,9.9,27.9,9.6C301.6,326.6,311.5,313,317.5,297.5z"
				/>
			<path class="st0" d="M144.6,270.9c-0.4,0-0.7-0.2-0.7-0.6c0-0.4,0.2-0.7,0.6-0.7c0.6-0.1,1.2-0.3,1.9-0.5
				c3.9-1.3,10.7-3.5,37.7,7.8c13.7,5.8,34.8,16.8,55,28c26.9,14.9,52,30,55.2,33.1c2.4,2.3,3.2,5,4,7.4c0.9,3.1,1.7,5.5,6,5
				c0.4,0,0.7,0.2,0.7,0.6c0,0.4-0.2,0.7-0.6,0.7c-5.3,0.6-6.2-2.3-7.4-5.9c-0.7-2.2-1.5-4.8-3.6-6.8c-3.2-3-28.1-18.1-54.9-32.9
				c-20.1-11.1-41.2-22.2-54.8-27.9c-26.5-11.2-33-9-36.8-7.8C146,270.6,145.4,270.8,144.6,270.9z"/>
			<path class="st0" d="M234.2,306.1c0.7,0.9,3.3,2.4,4.1,2.8c1,0.5,2,0.9,3,1.2c1.5,0.5,3.1,1.2,3.4,3c0.2,1.4-0.6,2.4-1.7,3.2
				c-3.7,2.4-7.8,3.8-12.1,4.3c-3.8,0.4-7.6,0-11.3-0.8c-5.3-1.2-10.5-3.4-15.2-6.1c-3.5-2-7.3-4.6-10.2-7.4c-2.3-2.3-4-5-5-8.1
				c-3.3-10.6,2.8-23.6,7.7-32.9c3.4-6.4,7.3-12.6,10.6-19c1.1-2.1,4.3-8.4,3.2-10.9c-0.7-1.6-5.5-5.1-6.9-6.2
				c-15.6-11.4-20.1-20.1-22.5-30.1c-0.6-2.5,1.5-3.3,1-6c0.6-2.4-12.5-6.7-10.3-8.1c1.2-0.8-0.5-2.6,1.7-2.7
				c5.8-0.3,17.3,2.9,20.9,3.9c5.9,1.7,11.8,4.5,16.8,7.5c12,7.1,22.7,16.8,30.9,28c5.2,7.1,11.1,17.1,12.6,25.9
				c0.7,4.4-0.4,10.8-1.4,15.1c-1.6,6.9-3.9,13.9-6.9,20.3c-0.5,1-1,2.1-1.5,3.1C241.4,292.9,237.9,299.6,234.2,306.1z"/>
			<path class="st1" d="M171.9,189.4c1.1-1.6,1.3-3.3,3.9-3.8c1.9-0.3,9.4,1.6,11.9,2c6.1,0.8,13.8,3.6,22.2,8.5
				c26.2,15.6,40.2,39.8,42.3,52.1c1.1,6.2-2.4,22.9-9.6,36.9c-3.5,6.8-7.9,15-10.8,20c-1.3,2.3,2.4,4.6,5.3,6.1
				c3,1.7,6.3,1.8,4.5,3c-16.2,10.7-38.8-3-45.7-9.7c-19.3-18.9,21.9-58.5,17-69.9c-3.1-7.3-33.9-24.7-32.6-39.8
				C180.5,193.2,170.9,190.9,171.9,189.4z"/>
			<path class="st2" d="M252.3,252.6c-0.5,7.9-3.8,21-9.7,32.4c-3.5,6.8-7.9,15-10.8,20c-1.3,2.3,2.4,4.6,5.3,6.1
				c3,1.7,6.3,1.8,4.5,3c-16.2,10.7-38.8-3-45.7-9.7c-5-4.9-5.9-11.2-4.6-18c3.1,2.3,8.7,5.3,19.6,7.6c18.9,4,20.4-16.2,31.7-36.6
				C245.8,255.4,249,253.7,252.3,252.6z"/>
			<path class="st2" d="M213,239c0.4-1.7,0.4-3.2-0.1-4.4c-2.6-6-23.7-18.8-30.5-31.5c0-0.3,0-0.5,0-0.8c9.2,8.4,21.4,17,21.4,17
				s10,11.4,14,11c4-0.4,6.6,1.7,6.6,1.7l-4.4,1.6l-6.4,5L213,239z"/>
			<path class="st2" d="M171.9,189.4c1.1-1.6,1.3-3.3,3.9-3.8c1.2-0.2,4.5,0.5,7.4,1.1c-1.3,2.5-3.2,5.2-4.7,6.6
				C175.9,191.9,171.2,190.4,171.9,189.4z"/>
			<path class="st0" d="M165.9,337.3c-2.4-4.9-12.1-24.6-12.7-28.6c2,2.3,10.9,18.1,14.7,26.8c0.4,0.7,0.6,2-0.1,2.3
				C167.1,338.3,166.2,338,165.9,337.3z"/>
			<path class="st0" d="M122.3,370.3c0.1-2.4-1.6-7.2-3.9-16c9.6,0.5,30.1-1,30.1-1s0.4,6.4-1.6,15.4c3.5,7.4,4,18.6,3,26.5
				c-0.2,1.7-1.7,3-3.4,3H63.8c-2.9-0.4-3-28.8,25.5-30.4C97.4,367.4,111.5,368.6,122.3,370.3z"/>
			<path class="st5" d="M65.7,395.2h80.9c0.2,0,0.4-0.1,0.4-0.3c0.9-7.4,0.5-18-2.8-24.9c-0.3-0.6-0.4-1.3-0.2-1.9
				c0.8-3.5,1.3-7,1.5-10.5c0-0.3,0-0.7,0.1-1c-4.8,0.3-9.6,0.6-14.3,0.7c-2.9,0.1-5.8,0.2-8.7,0.2c0.9,3.4,3.2,13.3,1.8,15.5
				c-4.4,0.1-11.4-0.9-14.2-1.2c-3.7-0.4-7.5-0.7-11.3-0.9c-3-0.1-6.2-0.2-9.2-0.1c-8.9,0.5-16.8,4-21.1,12.1
				c-1.4,2.6-2.3,5.6-2.7,8.6C65.6,392.3,65.5,394,65.7,395.2z"/>
			<path class="st6" d="M65.7,395.2h80.9c0.2,0,0.4-0.1,0.4-0.3c0.9-7.4,0.5-18-2.8-24.9c-0.3-0.6-0.4-1.3-0.2-1.9
				c0.8-3.5,1.3-7,1.5-10.5c0-0.3,0-0.7,0.1-1c-2.6,0.2-5.3,0.3-7.9,0.5c0.3,10.8-2,17-2,17s2.9,6.1,3.1,10.8
				c0.2,4.7-32.6,2.1-32.6,2.1s-12-0.7-38.8-1.3c-0.7,1.9-1.2,3.9-1.5,5.9C65.6,392.3,65.5,394,65.7,395.2z"/>
			<path class="st0" d="M68.3,187.1c2.1,9.7,3,19.3-1.4,28.6c-0.1,0.3-0.6,0.5-0.4-0.3c0-0.4,0.2-1,0.2-1.3
				c2.3-10.5,0.8-17.6-1.1-27.7c-0.2-0.7,0.2-0.1,1-0.3C67.3,185.9,68.1,186.3,68.3,187.1L68.3,187.1z M66.8,215.6L66.8,215.6
				C66.8,215.6,66.8,215.6,66.8,215.6z"/>
			<path class="st0" d="M68.9,190.5c2.6,4.2,4.1,7.4,4.6,12.4c-2.2-3.5-4-7-6.4-10.3c-0.6-0.5-0.6-1.4-0.1-1.9
				C67.5,190.1,68.3,190,68.9,190.5z"/>
			<path class="st0" d="M236.8,301.4c-0.8,1.2-7.6,11.6-9.9,10.8l0.1-0.2c3.1-3.9,4.9-7.1,7.3-11.6c0.3-0.7,1.1-1.1,1.8-0.8
				C236.8,299.9,237.1,300.7,236.8,301.4z"/>
			<path class="st0" d="M209.2,242.6c3.9-9.2,11.6-12.4,21.2-12c4.8,0.2,5.5,0.6,9.6,2.4c-10.9-1.8-23.6-1.8-28.2,10.4
				c-0.2,0.7-1,1.1-1.7,0.9C209.3,244.1,208.9,243.3,209.2,242.6z"/>
			<path class="st0" d="M246.1,231.5c-0.2-0.3-0.2-0.7,0.1-0.9c0.3-0.2,0.7-0.2,0.9,0.1c9.4,11.5-3.4,33-13.5,49.9
				c-1.2,2.1-2.4,4.1-3.6,6.2c-5,8.6-8.4,16.1-8.9,21.8c-0.5,5.3,1.9,8.9,8.5,10c0.4,0.1,0.6,0.4,0.5,0.7c-0.1,0.4-0.4,0.6-0.7,0.5
				c-7.4-1.2-10.1-5.3-9.6-11.4c0.5-5.8,4-13.5,9.1-22.3c1.1-1.8,2.3-4,3.6-6.2C242.5,263.3,255,242.3,246.1,231.5z"/>
			<g>
				<path class="st0" d="M252.3,245.7c2.2,3.8,1.2,9-2.2,11.8c-3.4,2.7-7.9,1.9-10.1-1.8c-2.2-3.8-1.2-9,2.2-11.8
					C245.6,241.2,250.1,242,252.3,245.7z"/>
				<path class="st1" d="M250.9,246.9c-1.7-2.9-5.1-3.5-7.7-1.4c-2.6,2.1-3.3,6.1-1.7,9c1.7,2.9,5.1,3.5,7.7,1.4
					C251.8,253.8,252.5,249.8,250.9,246.9z"/>
				<path class="st0" d="M250.5,251.5c-0.5,2.8-2.8,4.6-5.2,4.2c-2.4-0.4-3.9-3-3.3-5.8c0.5-2.8,2.8-4.6,5.2-4.2
					C249.5,246.1,251,248.7,250.5,251.5z"/>
				<path class="st1" d="M249.6,251.3c0.4-2.2-0.8-4.3-2.7-4.6c-1.9-0.3-3.8,1.2-4.2,3.4c-0.4,2.2,0.8,4.3,2.7,4.6
					C247.3,255,249.2,253.5,249.6,251.3z"/>
				<path class="st0" d="M249.6,251.3c0-0.3,0.1-0.5,0.1-0.8l-6.7-1.2c-0.1,0.2-0.2,0.5-0.2,0.8c0,0.3-0.1,0.5-0.1,0.8l6.7,1.2
					C249.5,251.8,249.5,251.6,249.6,251.3z"/>
			</g>
			<path class="st0" d="M22.2,126.2c-1.1-6.4-1.4-13-1-19.5c0.3-4.5,1.1-10.6,3.1-14.7c1.2-2.4,2.6-4.9,4.3-7c1.4-1.7,3.5-3.5,6-2.9
				c4.2,1.1,4,7.8,3.8,11.1l0,2.3c1.4-3.4,3.1-6.5,5.2-8.9c1.1-1.3,2.5-2.5,4-3.3c1.5-0.8,3.3-1.1,4.9-0.4c4.3,1.9,3.3,8.3,2.4,11.8
				l-12,48.8c-0.3,1.1-1.2,1.9-2.3,2c-0.9,0.1-2.6,0.3-3.2,1.2c-0.6,1-0.3,3.3-0.1,4.4c0.5,3,1.3,5.9,1.8,8.8c0.1,0.7,0,1.3-0.4,1.8
				c-1.2,1.8-1.8-0.2-3.6,0.9c-3.1,1.9-7,4.1-10.3,5.1c-6.5,1.9-12.1,0.5-16.3-7.5c-2.9-5.5-3.1-13.4-1.4-19.3
				c0-0.1,0.1-0.2,0.1-0.3C10,134.4,16.1,129.5,22.2,126.2z"/>
			<path class="st1" d="M9.6,141.8c-1.9,6.3-1,23.2,10.8,26.5c11.8,3.3,16.1-7.9,16.1-7.9c-1.5-9.3-5.3-16.6,3.8-17.5l12-48.8
				c2.5-10.2-2.1-11.2-6.7-5.8c-4.3,5-8.4,15.4-9.8,29.6l0.1-24.7c0.7-13.2-4.5-9.4-9.1,0c-2.5,5.2-4.2,17.9-2.1,31.7
				c0.1,0.9-3.7-0.1-3.6,0.8C16.8,127.8,12.8,134.5,9.6,141.8z"/>
			<g>
				<path class="st9" d="M35.1,85.8c-1.5-3.2-5.1,0.6-8.4,7.4c-2.3,4.8-3.9,15.8-2.5,28.1c0.7-1.9,1.4-5.2,1.9-11.1
					C26.9,98.6,27.6,93.8,35.1,85.8z"/>
				<path class="st9" d="M52.5,86.3c-1.2-2.3-4-1.4-6.9,1.9c-4.2,4.9-8.3,15.2-9.8,29.1l1.2,1.2c0,0,0.5-2.4,2.9-11.7
					C42.1,98.5,46.7,91.2,52.5,86.3L52.5,86.3z M35.8,117.4l0-4.4c-0.2,2.5-0.3,4.1-0.3,4.1L35.8,117.4z"/>
			</g>
			<path class="st0" d="M1.6,130.9c1-2.9,3.5-5.6,6.7-6c4.1-0.4,6.8,2.9,8.2,6.3c1.7,4.1,2.2,10.2,2.1,14.6c0,0.1,0,0.2,0,0.2
				c-0.2,1.4-0.5,3-1,4.3c-0.7,1.9-1.8,3.9-3.8,4.5c-3.3,1.1-5.9-2.1-7.5-4.5C2.8,145.2-0.6,137.1,1.6,130.9z"/>
			<path class="st1" d="M4,131.7c-1.5,4.1,0.1,10.7,4.3,17.3c6.1,9.5,7.6-3.3,7.6-3.3s0.2-8.3-1.9-13.6C11,124.8,5.6,127.2,4,131.7z
				"/>
			<path class="st9" d="M4,131.7c-1.5,4.1,0.1,10.7,4.3,17.3c1.8,2.8,3.2,3.6,4.2,3.5c-0.9-0.9-2.4-3-4.5-7.5
				c-3.2-7.1-2.9-13.6,0.4-17.6C6.5,127.8,4.8,129.5,4,131.7z"/>
			<path class="st0" d="M36.1,101.1c0-0.5,0.4-0.9,0.9-0.8c0.5,0,0.9,0.4,0.8,0.9c-0.1,3.2-0.3,5.3-0.5,7.5
				c-0.2,2.7-0.5,5.5-0.5,10.1c0,0.5-0.4,0.9-0.9,0.8c-0.5,0-0.9-0.4-0.8-0.9c0.1-4.8,0.3-7.5,0.5-10.2
				C35.8,106.2,36,104.1,36.1,101.1z"/>
			<path class="st0" d="M25.1,96.4c-0.3,0.2-0.7,0.2-0.9-0.1C24,96,24,95.6,24.3,95.3c0.1-0.1,0.3-0.2,0.4-0.3
				c1.2-0.7,3.6-1,5.9-0.8c2.4,0.2,4.8,0.9,6,2.4c0.1,0.2,0.3,0.4,0.4,0.5c0.2,0.3,0.1,0.7-0.3,0.9c-0.3,0.2-0.7,0.1-0.9-0.3
				c-0.1-0.1-0.1-0.2-0.2-0.4c-0.9-1.2-3-1.8-5-1.9c-2.1-0.2-4.2,0.1-5.2,0.7C25.3,96.2,25.2,96.3,25.1,96.4z"/>
			<path class="st0" d="M23.1,109.9c-0.3,0.2-0.7,0.2-0.9,0c-0.2-0.3-0.2-0.7,0-0.9c0.1-0.1,0.3-0.2,0.5-0.3
				c1.3-0.8,3.9-1.4,6.6-1.3c2.7,0.1,5.4,0.7,6.8,2.3c0.2,0.2,0.3,0.4,0.4,0.6c0.2,0.3,0.1,0.7-0.2,0.9c-0.3,0.2-0.7,0.1-0.9-0.2
				c-0.1-0.1-0.2-0.3-0.3-0.4c-1.2-1.3-3.5-1.8-5.8-1.9c-2.4,0-4.7,0.4-5.9,1.1C23.2,109.7,23.1,109.8,23.1,109.9z"/>
			<path class="st0" d="M41.1,95.7c-0.3,0.2-0.7,0-0.9-0.3c-0.2-0.3,0-0.7,0.3-0.9c0.1-0.1,0.3-0.1,0.5-0.2c1.3-0.4,3.7-0.3,6,0.3
				c2.3,0.6,4.5,1.8,5.4,3.5c0.1,0.2,0.2,0.4,0.3,0.6c0.1,0.3-0.1,0.7-0.4,0.8c-0.3,0.1-0.7-0.1-0.8-0.4c0-0.1-0.1-0.3-0.2-0.4
				c-0.7-1.3-2.6-2.3-4.6-2.8c-2-0.6-4.1-0.7-5.3-0.3C41.2,95.6,41.2,95.7,41.1,95.7z"/>
			<path class="st0" d="M36.9,109c-0.3,0.2-0.7,0.1-0.9-0.2c-0.2-0.3-0.1-0.7,0.2-0.9c0.2-0.1,0.3-0.2,0.5-0.2
				c1.4-0.6,4.1-0.6,6.7-0.1c2.6,0.6,5.1,1.7,6.2,3.5c0.1,0.2,0.2,0.4,0.3,0.6c0.1,0.3,0,0.7-0.4,0.8c-0.3,0.1-0.7,0-0.8-0.4
				c-0.1-0.2-0.1-0.3-0.2-0.4c-0.9-1.5-3.1-2.4-5.4-2.9c-2.3-0.5-4.7-0.5-6,0C37.1,108.9,37,109,36.9,109z"/>
			<path class="st0" d="M10.6,127.4c1-4,4.3-7.2,8.3-6.8c2.3,0.3,3.9,1.6,5.1,3.4c0.2,0.4-0.1,0.2,0.1,0.6c0.7,1.4-4.7-1.6-4.5,0
				c0.3,1.9,6.2,9.5,6.3,11.4c0.2,2.8,0.9,5,0.7,7.8c0,0.1,0,0.2,0,0.2c-0.3,1.4-0.7,3.1-1.3,4.4c-0.8,1.8-2,3.6-3.9,4.1
				c-1.4,0.3-2.7-0.1-3.8-1.1c-1.2-1-2.1-2.4-2.8-3.8c-0.9-1.6-1.6-3.4-2.2-5.1C10.9,138.3,9.5,131.9,10.6,127.4z"/>
			<path class="st1" d="M12.9,128.2c-1.1,4.2,0.7,12.3,3.8,18.2c5.1,9.6,7.4-2.9,7.4-2.9c0.6-6-0.2-10.5-0.6-13.5
				c-0.3-2.2,0-3.8-0.9-4.9c-0.6-0.7-2.1-1.3-2.9-1.6C17.1,122.5,13.9,124.4,12.9,128.2z"/>
			<path class="st9" d="M12.9,128.2c-1.1,4.2,0.7,12.3,3.8,18.2c0.9,1.7,1.7,2.7,2.5,3.2c-0.8-1.9-2.1-5.5-3.2-11.7
				c-1.5-8-1.1-12,1.6-14.7C15.5,123.7,13.6,125.5,12.9,128.2z"/>
			<path class="st0" d="M23.5,141.9c-0.5-1-1.2-1.6-2-1.8c-0.6-0.2-1.3-0.3-1.9-0.2c-0.7,0.1-1.4,0.4-2,0.7c-1.2,0.7-2.1,1.8-2.4,3
				l-1.2-0.4c0.4-1.6,1.6-2.9,3-3.8c0.7-0.4,1.6-0.8,2.4-0.9c0.8-0.1,1.7-0.1,2.5,0.2c1.1,0.4,2,1.2,2.7,2.5L23.5,141.9z"/>
			<path class="st0" d="M20.6,129.7c-0.3-0.3-0.4-0.9,0-1.2c0.3-0.3,0.9-0.4,1.2,0c1.3,1.3,2.4,3.6,2.9,6.9
				c0.5,2.8,0.7,6.4,0.3,10.5c0,0.5-0.5,0.8-0.9,0.8c-0.5,0-0.8-0.5-0.8-0.9c0.4-4,0.2-7.4-0.3-10.1
				C22.6,132.8,21.7,130.7,20.6,129.7z"/>
			<path class="st0" d="M22.9,134.9c-2.1-4.1-8.5-3.6-9.8,0.9l-1.2-0.4c1.6-5.6,9.4-6.3,12.1-1.1L22.9,134.9z"/>
			<path class="st0" d="M14.3,143.8c-0.7-0.9-1.5-1.5-2.3-1.7c-0.7-0.2-1.4-0.2-2.1,0c-0.7,0.2-1.4,0.5-2,0.9c-1.2,0.8-2,2-2.3,3.2
				l-1.3-0.3c0.3-1.6,1.4-3.1,2.8-4c0.7-0.5,1.6-0.9,2.5-1.1c0.9-0.2,1.8-0.2,2.7,0c1.2,0.3,2.3,1,3.2,2.3L14.3,143.8z"/>
			<path class="st0" d="M11.5,136.8c-0.4-0.6,0.5-0.9-0.1-1.2c-3.2-2.2-8.2-0.8-9,3.1l-1.3-0.3c0.9-4.7,6.4-6.4,10.4-4.3
				c0.9,0.5,0.4,1.1,1.1,2L11.5,136.8z"/>
			<path class="st0" d="M24.6,124.9c-0.3,0.2-0.7,0.1-0.9-0.2c-0.2-0.3-0.1-0.7,0.2-0.9c1.8-1.1,7-1.7,11.8-1.4
				c3.8,0.3,7.4,1.1,9.1,2.8c0.2,0.3,0.2,0.7,0,0.9c-0.3,0.2-0.7,0.2-0.9,0c-1.4-1.5-4.7-2.2-8.2-2.4
				C31.1,123.4,26.2,123.9,24.6,124.9z"/>
			<path class="st0" d="M39.2,135.9c-1.6-0.9-3.1-1.8-4.1-2.5c-3.7-2.6-10-9.2-8.4-14.3c1.1-3.3,5.4-2.4,8-1.9
				c3.4,0.7,6.8,1.8,10.1,2.9c3.2,1.1,4.6,1.6,7.8,2.8c6.5,2.4,9.9,12.7,8,19.4c-4.6,16.6-13.8,27-32.2,22.4c-0.9-0.3,1,1.2,0.8,0.3
				c-1.1-3.9-0.7-3.9-0.9-7.1c-0.5-7.7,1-16.9,9.3-21.2C38,136.4,38.6,136.1,39.2,135.9z"/>
			<path class="st1" d="M25.6,166.3c18.1,2.7,28.3-10.8,32.2-22.4c0.8-2.3,1.3-4.5,1.6-6.5c0.3-1.9-1.5-6.2-3.4-8.6
				c-2.3-2.9-6.3-4.9-6.4-4.9c-8.3-3-19.7-6.3-20.5-4c-0.9,2.8,3.1,8.2,7.4,11.3c1.9,1.4,6.4,4,8.6,4.5c1.9,0.4-2.3,1.1-6.6,3.3
				c-6.8,3.5-12.8,12.7-10.8,25.3C27.9,165.3,25.2,165.2,25.6,166.3z"/>
			<g>
				<path class="st0" d="M58.5,132.7c2,3.8,0.8,9.1-2.7,11.7c-3.5,2.6-8,1.6-10-2.3c-2-3.8-0.8-9.1,2.7-11.7
					C52,127.9,56.4,128.9,58.5,132.7z"/>
				<path class="st1" d="M56.9,133.9c-1.5-2.9-5-3.7-7.6-1.7c-2.7,2-3.6,6-2.1,8.9c1.5,2.9,5,3.7,7.6,1.7
					C57.6,140.8,58.5,136.8,56.9,133.9z"/>
				<path class="st0" d="M56.3,138.4c-0.6,2.7-3,4.5-5.4,4c-2.3-0.5-3.7-3.2-3.1-5.9c0.6-2.7,3-4.5,5.4-4
					C55.6,133,57,135.7,56.3,138.4z"/>
				<path class="st1" d="M55.5,138.2c0.5-2.2-0.6-4.3-2.5-4.7c-1.9-0.4-3.8,1-4.3,3.2c-0.5,2.2,0.6,4.3,2.5,4.7
					C53.1,141.8,55,140.4,55.5,138.2z"/>
				<path class="st0" d="M55.5,138.2c0.1-0.3,0.1-0.5,0.1-0.8l-6.7-1.5c-0.1,0.2-0.2,0.5-0.2,0.8c-0.1,0.3-0.1,0.5-0.1,0.8l6.7,1.5
					C55.4,138.7,55.4,138.5,55.5,138.2z"/>
			</g>
			<path class="st0" d="M49.8,123.8c0-0.4,0.3-0.7,0.6-0.7c0.4,0,0.7,0.3,0.7,0.6c0.1,2.2-0.2,5.1-1.7,7.6c-1.1,1.9-2.8,3.6-5.3,4.6
				c-0.3,0.1-0.7,0-0.8-0.4c-0.1-0.3,0-0.7,0.4-0.8c2.2-0.9,3.7-2.4,4.7-4.1C49.6,128.5,49.9,125.8,49.8,123.8z"/>
			<path class="st0" d="M39.6,119.6c0-0.4,0.3-0.7,0.6-0.7c0.4,0,0.7,0.3,0.7,0.6c0.1,2-0.2,4.6-1.5,6.9c-1,1.7-2.5,3.3-4.8,4.2
				c-0.3,0.1-0.7,0-0.8-0.4c-0.1-0.3,0-0.7,0.4-0.8c2-0.8,3.3-2.2,4.2-3.7C39.4,123.8,39.7,121.4,39.6,119.6z"/>
			<path class="st0" d="M196.7,93.6c-13.4,29.5-31.8,62.7-30.3,91.9c0.6,11.7-23,12.3-31.7,8.6c-17.5-7.4,11.4-57.8,30.2-81.6
				c5.3-6.8,10.7-11,12.9-12C186.2,96.8,196.7,95.1,196.7,93.6z"/>
			<path class="st0" d="M191.4,98.7c-3.2,0.9-6.5,1.9-9.6,3c-1,0.4-2,0.8-2.9,1.2c-1.4,0.6-3.4,2.3-4.6,3.3c-2.7,2.4-5.1,5-7.3,7.8
				c-6.9,8.8-13.3,18.5-18.9,28.2c-2.9,5-5.7,10.2-8.1,15.4c-2.2,4.7-4.2,9.5-5.8,14.4c-1.4,4.4-4,14.2-0.4,18.2
				c0.5,0.6,1.2,1,2,1.4c3.7,1.6,9.5,1.9,13.5,1.7c4.3-0.2,14.8-1.6,14.5-7.7c-0.5-10.8,1.5-21.7,4.6-32
				c3.3-11.1,7.8-21.8,12.6-32.4C184.3,113.7,187.9,106.3,191.4,98.7z"/>
			<path class="st0" d="M133.6,171.7c-0.4,0.8-0.2,2.5,0.1,3.4c0.7,1,3.8,2.4,4.9,2.8c3.5,1.3,7.3,2.1,11,2.2c1.7,0.1,3.4,0,5.1-0.2
				c2.2-0.2,7.6-1.1,8.7-3.4c0.1-0.2,0.1-0.4,0.2-0.6c0.1-0.6,0.1-1.2,0.2-1.8c0-0.3,0-0.7,0.1-1c0.2-1.7,1.3-3,3.1-3.2
				c2.9-0.2,5.7,0.7,7.9,2.7c2.5,2.4,3.6,5.9,3.3,9.3c-0.4,4-2.6,7.4-5.7,9.7c-6,4.6-14.3,6.4-21.8,6.5c-6.1,0.1-12.8-0.8-18.6-3.1
				c-4.9-1.9-10-5.3-11.6-10.6c-0.4-1.4-0.6-2.8-0.4-4.2c0.6-7.1,2.6-12.3,10.4-13.6c1.3-0.2,3.2-0.3,3.9,0.8
				C135,168.7,134.3,170.6,133.6,171.7L133.6,171.7z M133.6,171.8"/>
			<path class="st1" d="M130.9,170c-6.2,1-7.3,5-7.8,10.6c-1.1,14.1,32.6,19.6,47.2,8.5c8-6,4.5-16.6-3.3-16c-0.3,0,0.1,2.9-0.8,4.7
				c-2,4.5-10.5,5.7-16.8,5.5c-9.7-0.4-18.1-4.4-18.9-7.2C129.5,172,130.9,170,130.9,170z"/>
			
				<ellipse transform="matrix(7.012321e-02 -0.9975 0.9975 7.012321e-02 72.8782 236.8229)" class="st0" cx="163.5" cy="79.3" rx="39.7" ry="39.7"/>
			
				<ellipse transform="matrix(0.9994 -3.343620e-02 3.343620e-02 0.9994 -2.5608 5.5101)" class="st2" cx="163.5" cy="79.3" rx="36.5" ry="36.5"/>
			<path class="st1" d="M163.5,42.9c-17.5,0-32,12.3-35.6,28.6c2.6,17.6,17.7,31.1,36.1,31.1c17.5,0,32-12.3,35.6-28.6
				C197,56.4,181.8,42.9,163.5,42.9z"/>
			<path class="st0" d="M133.7,55.7c-5.7,6.4-7.8,18.6-7.8,23.6c0,5.1,1.2,1.6,1.2,2.4c8-7.9,10.4-5.5,14.2-3.3
				c3.8,2.3,4.5,9.7,14.9,11.3c10.4,1.6,24.2-14.7,16.8-23.1c-5.9-6.6-22.2-12.1-34.6-11.7C137.7,55,134.4,55.6,133.7,55.7z"/>
			<path class="st1" d="M163.1,119.2c2.4,0.1,5.5,0.5,8.6,1.2c2.8,0.7,5.6,1.7,8.2,3.1c-0.3,0.7-0.6,1.3-0.9,2
				c-2.4-1.4-5.1-2.3-7.8-3c-3.7-0.9-7.3-1.2-9.6-1.2C162.1,120.6,162.6,119.9,163.1,119.2L163.1,119.2z M155.8,129.7
				c-0.5,0.7-1,1.5-1.4,2.2c2.8-0.3,5.8,0,8.9,0.8c3.5,0.9,7.2,2.4,10.7,4.7c0.3-0.7,0.5-1.3,0.8-2c-3.6-2.3-7.4-3.8-11-4.7
				C161.1,130,158.4,129.7,155.8,129.7L155.8,129.7z M147.6,143.1c-0.4,0.7-0.8,1.4-1.2,2.1c4.1,0.1,8.2,0.6,12.1,1.4
				c3.7,0.8,7.3,2,10.8,3.7c0.2-0.7,0.4-1.4,0.7-2c-3.6-1.7-7.3-2.9-11.1-3.7C155.2,143.7,151.5,143.3,147.6,143.1L147.6,143.1z
				 M140.5,156.5c-0.2,0.4-0.4,0.8-0.6,1.2c-0.1,0.2-0.2,0.5-0.3,0.7c2.1,0.7,5.2,1.4,8.6,2c6.1,1.1,13.3,2.1,17.7,2.6
				c0.2-0.7,0.3-1.4,0.5-2.1c-4.3-0.5-11.6-1.5-17.8-2.6C145.3,157.7,142.4,157.1,140.5,156.5L140.5,156.5z M135.1,169.2
				c-0.2,0.7-0.5,1.3-0.7,2c3.2,1.8,8,3,13,3.6c5.9,0.7,12.1,0.7,16.6-0.2c0.1-0.7,0.2-1.5,0.2-2.2c-4.1,1-10.5,1.1-16.5,0.3
				C142.6,172.1,137.9,170.9,135.1,169.2z"/>
			<circle class="st1" cx="163.3" cy="76.4" r="5.9"/>
			<path class="st0" d="M163,95.7c1,0.3,3.6,0.3,4.7,0.4c3,0.2,8.1,0.3,9.1,3.8c0.2,0.8,0.2,1.7-0.2,2.5c-1.4,3.5-6.9,6.2-10.1,7.7
				c-5.3,2.5-11.1,4.6-16.7,6.5c-3.7,1.3-7.5,2.4-11.3,3.5c-9.2,2.7-18.2,5.1-27.9,3.6c-2.8-0.4-6-1.5-7-4.4
				c-0.9-2.7,0.5-5.2,2.1-7.3c1.9-2.4,4.5-4.6,6.9-6.6c4.4-3.6,11.1-9.3,13.6-14.6c1.5-3.1,3.3-6.3,5.7-8.8c2-2.1,4.6-3.8,7.7-3.5
				c4.9,0.6,7.3,6,8.5,10.1C149.6,94.3,158.5,93.4,163,95.7z"/>
			<path class="st3" d="M144.9,89.7c2.3,7.9,12.7,6.7,16.6,8.9c2,1.1,13.1,0.2,12.1,2.7c-1.9,4.6-21.4,11.6-36,15.8
				c-8.7,2.5-17.4,4.9-26.6,3.5c-7.7-1.2-5.1-5.5,3.5-12.6c8.8-7.3,12.6-11.9,14.4-15.7C134.7,80.4,141.4,77.5,144.9,89.7z"/>
			<path class="st0" d="M163.7,99c-0.4,1.7-2,3-3.4,4c-2.3,1.6-4.8,3.1-7.3,4.4c-7.3,3.9-15.1,7.3-22.8,10.2
				c-7.9,3-17.6,6.1-26.1,6.7c-4,0.3-11.7,0.7-13.3-4.1c-1.2-3.6,2.1-7.1,4.5-9.4c3.1-3,6.6-5.7,9.9-8.4c0.8-0.6,1.5-1.2,2.3-1.9
				c3.8-3.1,14.5-11.8,16.5-16.2c1.3-2.8,3.1-5.7,5.5-7.8c2-1.8,4.6-3,7.4-2.8c1.4,0.1,2.7,0.7,3.9,1.4c2.2,1.5,4,3.2,5.9,5
				c1.3,1.4,2.7,2.8,4.1,4.1c1.7,1.4,3.3,2.2,5.5,2.6c3.5,0.6,7.5,0.1,11-0.5c2.3-0.4,5.2-0.7,6.3,2c0.9,2.3-0.8,4.1-2.4,5.4
				c-1.2,0.9-2.5,1.8-3.8,2.7c-0.9,0.6-1.9,1.2-2.8,1.9C164.3,98.6,164,98.8,163.7,99z"/>
			<path class="st4" d="M159.6,99.6c-6,5.2-37.9,20.4-55.7,21.6c-20.1,1.4-5.9-8.6,5.7-18.1c8.8-7.3,15.6-13.5,17.4-17.3
				c3.7-7.8,8.3-10.4,12.1-7.9c9.6,6.5,9.3,15.3,28.8,11.7C175.8,88.1,162,97.5,159.6,99.6z"/>
			<path class="st0" d="M170.5,85.7c5.2,0,9.5,4.2,9.5,9.5c0,5.2-4.2,9.5-9.5,9.5c-5.2,0-9.5-4.2-9.5-9.5
				C161.1,89.9,165.3,85.7,170.5,85.7z"/>
			<g>
				<path class="st1" d="M170.5,87.9c-4,0-7.2,3.2-7.2,7.2c0,4,3.2,7.2,7.2,7.2c4,0,7.2-3.2,7.2-7.2
					C177.8,91.2,174.5,87.9,170.5,87.9z"/>
				<path class="st0" d="M174.6,91.1c2.2,2.2,2.2,5.8,0,8c-2.2,2.2-5.8,2.2-8,0c-2.2-2.2-2.2-5.8,0-8
					C168.7,88.9,172.3,88.9,174.6,91.1z"/>
				<path class="st1" d="M173.8,91.9c-1.8-1.8-4.7-1.8-6.4,0c-1.8,1.8-1.8,4.7,0,6.4c1.8,1.8,4.7,1.8,6.4,0
					C175.5,96.6,175.5,93.7,173.8,91.9z"/>
				<path class="st0" d="M173.8,91.9c-0.2-0.2-0.4-0.4-0.7-0.6l-6.3,6.3c0.2,0.2,0.4,0.5,0.6,0.7c0.2,0.2,0.4,0.4,0.7,0.6l6.3-6.3
					C174.2,92.4,174,92.2,173.8,91.9z"/>
			</g>
			<path class="st0" d="M165.8,72.6c-1.4,0-2.5,1.1-2.5,2.5c0,1.4,1.1,2.5,2.5,2.5s2.5-1.1,2.5-2.5
				C168.3,73.7,167.2,72.6,165.8,72.6z"/>
			<path class="st1" d="M133.6,66.9c-1.3-0.4-2.9,1.2-3.7,3.7c-0.8,2.4-0.4,4.8,0.9,5.2c1.3,0.4,2.9-1.2,3.7-3.7
				C135.3,69.6,134.8,67.3,133.6,66.9z"/>
			<path class="st0" d="M134,68.7c-0.6-0.2-1.3,0.5-1.6,1.6c-0.3,1.1-0.2,2.1,0.4,2.2c0.6,0.2,1.3-0.5,1.6-1.6
				C134.8,69.9,134.6,68.9,134,68.7z"/>
			<path class="st9" d="M192.1,76.1c0-12.3-7.2-20.2-18.6-24.1c-6.6-2.2,1.6,0.8-5.2-1.8c3.8-0.6,4.6-0.7,8.5,0.3
				c12.7,3.1,20.1,12.8,21.1,25.6c0,1.6-1.3,2.8-2.9,2.8C193.3,78.9,192.1,77.6,192.1,76.1z"/>
			<path class="st12" d="M136.5,83.7c-5.5,10.6-8.5,11.8-18,18.5c-6.4,4.6-13.1,9.7-20.2,13.1c4.5-6.7,11-11.8,17.1-17.1
				c7.7-6.8,10.4-7.8,14.5-17.3c0.8-1.8,2.9-2.7,4.7-1.9C136.4,79.8,137.3,81.9,136.5,83.7z"/>
			<path class="st9" d="M130.5,173.6c-1.1,10.1,26.3,13.1,34.6,7.2l0.8-0.6c-3.9,8.6-39.9,8.6-38.9-7.2c0.2-1,1.1-1.6,2-1.4
				C130,171.7,130.6,172.6,130.5,173.6z"/>
			<path class="st0" d="M163.5,50.6c-0.5,0.4-1.2,0.6-1.9,0.5l-7-0.9c-1.2-0.2-2.1-1.1-2.2-2.2c-1-7.6-4.6-27.1-10.5-36.2
				c-1.3-2.1-6.8-6.3-6.6-7.5c0.4-1.6,17.2-2.7,19.3-2.9c2.9-0.3,5.8-0.5,8.7-0.5c20.5-0.1,39.3,7.5,50.1,25.6
				c2.5,4.2,4.4,8.8,5.8,13.6c4.4,15.9,5.6,33.1-1.5,48.5c-0.8,1.6-2.4,1.8-3.7,1.2c-0.2-0.1-0.3-0.2-0.5-0.2
				c-0.5-0.3-1-0.5-1.5-0.8c-1.5-0.8-2.9-1.6-4.3-2.4c-1.4-0.8-2.9-1.6-4.3-2.4c-0.8-0.5-2.4-1.2-2.9-2c-0.7-1.2-0.8-3.8-0.9-5.2
				c-0.3-2.6-0.7-5.2-1.5-7.7c-2.2-7.5-6.8-13.3-13.7-17.2c-4.5-2.5-9.4-3.7-14.5-3.1C168.2,48.8,165.1,49.6,163.5,50.6z"/>
			<path class="st13" d="M139.6,5.5c10.8,6.9,15.3,42.1,15.3,42.1l7,0.9c-0.2,0,10.6-6.6,23.9,0.9c18.1,10.2,15.9,29.3,17,31
				c0,0,12.6,7.1,12.6,7c7.1-15.3,5.4-32.3,1.4-46.7c-5.8-20.9-23.2-37.4-53.3-37.3c-2.7,0-5.6,0.2-8.5,0.5L139.6,5.5z"/>
			<path class="st0" d="M161.3,2.1c7.4,22.7,1,48.4,0.9,48.5l-1.7-0.4c0-0.1,6.3-25.4-0.9-47.6L161.3,2.1z"/>
			<path class="st0" d="M123.9,171.5c0.9-0.1,1.8,0.1,2.6,0.7c2,1.4,2,4.2,1.5,6.4c-0.4,1.8-1.3,4.5-3.1,5.3
				c-2.3,0.9-5.6-1.2-7.5-2.4c-1.2-0.8-7.8-4.7-7.5-6.1C110.1,173.5,122.2,171.6,123.9,171.5z"/>
			<path class="st14" d="M124.1,174.1c-4.2,0.4-10,2-10,2s8.2,6,9.8,5.3C125.2,180.9,127,173.8,124.1,174.1z"/>
			<path class="st0" d="M128.3,181.1c3-1.2,6.4-0.8,8.2,2.2c1.1,1.9,1.1,4.4,0,6.3c-1.4,2.3-3.9,3.3-6.5,3.2c-1,0-2.1-0.1-3.1-0.2
				c-2-0.2-3.9-0.6-5.9-1c-1.4-0.3-6.8-1.5-6.9-2.4C113.8,187.4,127.9,181.3,128.3,181.1z"/>
			<path class="st14" d="M129.3,183.5c-5.3,2.1-10.3,5-10.3,5c-0.1,0.1,6.2,1.6,11,1.8C137.1,190.4,135.8,180.9,129.3,183.5z"/>
			<path class="st0" d="M185.6,179.3c-1.5,1.1-3.2,2.2-4.8,3.2c-1.9,1.2-5.2,3.3-7.5,2.4c-1.9-0.8-2.8-3.4-3.1-5.3
				c-0.4-2.2-0.4-4.9,1.5-6.4c0.8-0.6,1.7-0.8,2.6-0.7c3.4,0.3,7.2,1.2,10.5,2.1c1,0.3,3.5,0.8,3.7,1.8
				C188.6,177.5,186.4,178.7,185.6,179.3z"/>
			<path class="st14" d="M174.1,175.2c4.2,0.4,10,2,10,2s-8.2,6-9.8,5.3C173,182,171.2,175,174.1,175.2z"/>
			<path class="st0" d="M167.5,181.1c0.4,0.2,14.4,6.3,14.2,8c-0.2,1.7-12.2,3.4-12.7,3.5c-1,0.1-2.1,0.2-3.1,0.2
				c-2.6,0.1-5.2-0.9-6.5-3.2c-1.1-1.9-1.2-4.4,0-6.3C161.1,180.3,164.5,179.9,167.5,181.1z"/>
			<path class="st14" d="M166.6,183.5c5.3,2.1,10.3,5,10.3,5c0.1,0.1-6.2,1.6-11,1.8C158.8,190.4,160.1,180.9,166.6,183.5z"/>
			<path class="st0" d="M143.1,195c-0.7-2.1-2.2-5.8-0.8-7.8c1.2-1.7,3.9-2,5.8-2c2.2,0,4.9,0.6,5.9,2.8c0.4,0.9,0.4,1.8,0.1,2.7
				c-0.5,1.6-4.9,13.1-6.6,13C146.1,203.7,143.6,196.3,143.1,195z"/>
			<path class="st14" d="M151.6,189.9c-1.2,4-4,9.3-4,9.3s-4.2-9.3-3.2-10.7C145.2,187.5,152.5,187.2,151.6,189.9z"/>
			<path class="st0" d="M174.7,3.9c0-0.4,0.3-0.7,0.6-0.7c0.4,0,0.7,0.3,0.7,0.6c0.4,8.6-0.7,17.2-2.3,24.6
				c-2.5,11.9-6.5,20.7-7.7,21.1c-0.3,0.1-0.7-0.1-0.8-0.4c-0.1-0.3,0.1-0.7,0.4-0.8c1-0.4,4.5-8.7,6.9-20.2
				C174,20.9,175.1,12.4,174.7,3.9z"/>
			<path class="st0" d="M174.8,48.3c-0.3,0.2-0.7,0.1-0.9-0.2c-0.2-0.3-0.1-0.7,0.2-0.9c4.5-3.2,8.1-9.5,10.8-16.1
				c4.1-10.3,6-21.3,5-23.1c-0.2-0.3,0-0.7,0.3-0.9c0.3-0.2,0.7,0,0.9,0.3c1,2-0.7,13.6-5,24.2C183.3,38.4,179.5,44.9,174.8,48.3z"
				/>
			<path class="st0" d="M183.6,51c-0.3,0.1-0.7,0-0.8-0.4c-0.1-0.3,0-0.7,0.4-0.8c3.4-1.4,7.2-6.2,10.6-11.8
				c5.4-8.8,9.6-19.3,9.3-20.8c-0.1-0.3,0.1-0.7,0.5-0.8c0.3-0.1,0.7,0.1,0.8,0.5c0.4,1.6-3.9,12.7-9.5,21.7
				C191.3,44.4,187.3,49.5,183.6,51z"/>
			<path class="st0" d="M190.6,55c-0.3,0.1-0.7,0-0.9-0.3c-0.1-0.3,0-0.7,0.3-0.9c4.7-2.2,9.6-6.3,13.7-10.6
				c5.4-5.7,9.4-11.4,9.2-13.1c0-0.4,0.2-0.7,0.6-0.7c0.4,0,0.7,0.2,0.7,0.6c0.1,2-3.9,8.2-9.6,14.1C200.5,48.5,195.5,52.7,190.6,55
				z"/>
			<path class="st0" d="M193.9,59.7c-0.4,0-0.7-0.2-0.7-0.6c0-0.4,0.2-0.7,0.6-0.7c2.7-0.2,7.4-2.5,11.9-5.2
				c6.1-3.6,11.9-8,12.4-9.2c0.1-0.3,0.5-0.5,0.8-0.4c0.3,0.1,0.5,0.5,0.4,0.8c-0.6,1.4-6.6,6.1-12.9,9.8
				C201.7,57.1,196.9,59.5,193.9,59.7z"/>
			<path class="st0" d="M197.6,64.6c-0.4,0-0.6-0.4-0.6-0.7c0-0.4,0.4-0.6,0.7-0.6c14,1.8,23.2-3.2,23.2-3.2
				c0.3-0.2,0.7-0.1,0.9,0.3c0.2,0.3,0.1,0.7-0.3,0.9C221.5,61.3,212,66.5,197.6,64.6z"/>
			<path class="st0" d="M200.1,72.4c-0.3-0.1-0.5-0.5-0.4-0.8c0.1-0.3,0.5-0.5,0.8-0.4c6.7,2.4,20,3.1,20.1,3.1
				c0.4,0,0.6,0.3,0.6,0.7c0,0.4-0.3,0.6-0.7,0.6C220.5,75.5,206.9,74.8,200.1,72.4z"/>
			<path class="st15" d="M125.6,176.6c0-1.2-0.2-2.2-1-2.5c-0.2,0-0.3-0.1-0.5,0c-1,0.1-2,0.2-3.1,0.4c-3.5,0.6-6.9,1.6-6.9,1.6
				s0.1,0.1,0.2,0.2c1.8,0.3,4,0.6,6.1,0.7c1.1,0,2.3,0,3.3,0C124.4,176.8,125.1,176.7,125.6,176.6z"/>
			<path class="st15" d="M130.3,183.2c-0.3,0.1-0.6,0.2-1,0.3c0,0,0,0,0,0c0,0,0,0,0,0c-0.5,0.2-1.1,0.4-1.6,0.7
				c-1.2,0.5-2.3,1-3.3,1.5c-1.1,0.5-2.1,1-2.9,1.4c-1.5,0.8-2.5,1.3-2.5,1.3c0,0,0.4,0.1,1.2,0.3c0.7-0.1,1.5-0.1,2.2-0.3
				c1.2-0.2,2.4-0.4,3.7-0.7c1.2-0.3,2.4-0.5,3.5-0.9c0,0,0,0,0,0c0.9-0.3,1.7-0.5,2.5-0.8c0,0,0,0,0,0c1-0.4,1.8-0.7,2.4-1
				c-0.4-1-1.3-1.9-2.6-2.1c-0.3,0-0.5-0.1-0.8,0C130.9,183.1,130.6,183.1,130.3,183.2z"/>
			<path class="st15" d="M144.4,188.6c-0.4,0.6,0.1,2.6,0.8,4.7c0.2,0.5,0.4,1.1,0.6,1.6c0.1,0.4,0.3,0.8,0.4,1.1
				c0.3,0.8,0.6,1.6,0.9,2.1c0.2,0.5,0.4,0.9,0.4,1c0-0.3,0-0.6,0-1c0-0.6,0.1-1.3,0.1-2.2c0-0.3,0-0.7,0-1.1c0-0.5,0-1,0.1-1.6
				c0.1-1.5,0.2-3.4,0.3-5.6C146.5,187.7,144.8,188.1,144.4,188.6z"/>
			<path class="st15" d="M163.7,185.7c0.9,0.3,1.8,0.5,2.7,0.7c2.2,0.6,4.1,1,5.6,1.3c0.3,0.1,0.5,0.1,0.8,0.2
				c1.1,0.2,2.1,0.4,2.9,0.5c0.4,0.1,0.7,0.1,1,0.1c0,0,0.1,0,0.1,0c0,0,0.1,0,0.1,0c0,0,0,0-0.1-0.1c-0.1-0.1-0.4-0.2-0.8-0.5
				c-0.7-0.4-1.7-0.9-2.9-1.5c-1.3-0.6-2.7-1.3-4.3-2c-0.7-0.3-1.4-0.6-2.2-0.9c-0.1,0-0.2-0.1-0.2-0.1c-1-0.4-1.9-0.4-2.7-0.3
				c-1.1,0.2-1.9,1-2.3,1.9C162.2,185.3,163,185.5,163.7,185.7z"/>
			<path class="st15" d="M174.6,178.6c1.1-0.1,2.2-0.2,3.2-0.4c2.4-0.3,4.7-0.8,6.1-1.1c-0.6-0.2-3.9-1.1-7.1-1.6
				c-0.9-0.2-1.9-0.3-2.8-0.4c-0.5,0-0.8,0.1-1.1,0.4c-0.6,0.6-0.6,1.9-0.4,3.2C173.3,178.7,173.9,178.7,174.6,178.6z"/>
			<path class="st0" d="M160.9,185.1c-0.1-0.1-0.2-0.2-0.1-0.3c0.1-0.1,0.2-0.2,0.3-0.1c3.5,1.7,17.4,3.6,17.4,3.6
				c0.1,0,0.2,0.1,0.2,0.2c0,0.1-0.1,0.2-0.2,0.2C178.5,188.7,164.5,186.8,160.9,185.1z"/>
			<path class="st0" d="M170.7,179c-0.1,0-0.2-0.1-0.2-0.2c0-0.1,0.1-0.2,0.2-0.2c3.1,0.3,14.1-2,14.2-2c0.1,0,0.2,0.1,0.3,0.2
				c0,0.1-0.1,0.2-0.2,0.3C184.9,177,173.8,179.3,170.7,179z"/>
			<path class="st0" d="M126,176.5c0.1,0,0.2,0.1,0.3,0.2c0,0.1-0.1,0.2-0.2,0.3c-3.1,0.6-14.4-0.7-14.4-0.7c-0.1,0-0.2-0.1-0.2-0.2
				c0-0.1,0.1-0.2,0.2-0.2C111.8,175.8,122.9,177.2,126,176.5z"/>
			<path class="st0" d="M134.8,184.8c0.1-0.1,0.2,0,0.3,0.1c0.1,0.1,0,0.2-0.1,0.3c-6.8,3.2-16,3.8-16,3.8c-0.1,0-0.2-0.1-0.2-0.2
				c0-0.1,0.1-0.2,0.2-0.2C118.9,188.6,128.1,188,134.8,184.8z"/>
			<path class="st0" d="M148.1,186.1c0-0.1,0.1-0.2,0.3-0.2c0.1,0,0.2,0.1,0.2,0.3c-0.8,3.6-0.5,14.2-0.5,14.2
				c0,0.1-0.1,0.2-0.2,0.2c-0.1,0-0.2-0.1-0.2-0.2C147.6,200.4,147.3,189.7,148.1,186.1z"/>
			<path class="st0" d="M120.2,370.1c8.4,0.9,14.9,5.8,17.7,13.2l0,0c0.1,0.3,0.1,0.1,0,0.4c-0.2-0.1-0.2-0.1-0.3-0.2
				c-4.1-5.7-10.1-10.5-17.3-11c-0.8,0-1.4-0.6-1.4-1.4C118.8,370.2,119.4,370.1,120.2,370.1z"/>
			<path class="st0" d="M147.7,362.5c-1.3,4.5-2.6,8.6-5.3,12.4c0.6-4.4,1.8-8.2,2.6-12.6c0-0.8,0.7-1.3,1.5-1.3
				C147.2,361.1,147.7,361.7,147.7,362.5z"/>
			<path class="st0" d="M105.5,396.6c-2.1-14.6-1.2-23.8-18.8-26.8l-4.1-0.6c3.8-0.2,4.3-0.5,7.9,0.1c15.3,2.5,15.5,14.6,17.7,26.8
				c0.1,0.8-0.4,1.5-1.1,1.6C106.3,397.8,105.6,397.3,105.5,396.6z"/>
			<path class="st0" d="M213.7,381.7c-1.7,3.6-3.1,7.3-4.9,10.8c-0.2-4.4,1.1-8.1,2.5-12.2c0.4-0.7,1.2-0.9,1.9-0.5
				C213.9,380.1,214.1,381,213.7,381.7z"/>
			<path class="st0" d="M186.3,380.2c2.3,3.1,6.7,10.9,7.4,13.9c-2.3-2.3-3.9-4.6-6.2-6.7c-0.6-0.5-0.7-1.3-0.3-1.9
				C187.6,384.9,185.7,379.8,186.3,380.2z"/>
			<path class="st0" d="M204,433.4c0.6-9.3,6.7-16.4,14.8-20.6c5.5-2.8,12.8-4.2,18.7-1.8l3,1.6l-3.2-0.9
				c-13.6-3.1-30.1,7.6-30.5,21.6c0,0.8-0.6,1.4-1.3,1.4C204.7,434.7,204,434.1,204,433.4z"/>
			<path class="st0" d="M63.6,391.7c-0.4,0-0.6-0.3-0.6-0.6c0-0.4,0.3-0.6,0.6-0.6h84.5c0.4,0,0.6,0.3,0.6,0.6
				c0,0.4-0.3,0.6-0.6,0.6H63.6z"/>
			<path class="st0" d="M186.3,398.3c-0.1-0.3,0.1-0.7,0.4-0.8c0.3-0.1,0.7,0.1,0.8,0.4c1.6,4.7,7.1,17,15.7,27.2
				c4.4,5.3,9.7,10,15.5,12.8c5.8,2.8,12.3,3.7,19.3,1.3c3.9-1.3,8-3.6,12.2-7.1c0.3-0.2,0.7-0.2,0.9,0.1c0.2,0.3,0.2,0.7-0.1,0.9
				c-4.3,3.6-8.5,6-12.6,7.4c-7.3,2.4-14.1,1.5-20.2-1.4c-6.1-2.9-11.4-7.7-16-13.1C193.5,415.5,187.9,403,186.3,398.3z"/>
			<path class="st0" d="M45.4,163.4c-0.2-0.3,0-0.7,0.3-0.9c0.3-0.2,0.7,0,0.9,0.3c8.2,16,11.9,33,14.1,42.8
				c0.8,3.6,1.4,6.1,1.8,7.3c1.8,4.2,7.5,2.6,20.2-0.9c3-0.8,6.3-1.8,10.1-2.8c0.3-0.1,0.7,0.1,0.8,0.5c0.1,0.3-0.1,0.7-0.5,0.8
				c-3.7,1-7.1,1.9-10.1,2.8c-13.4,3.8-19.5,5.5-21.8,0.2c-0.5-1.2-1.1-3.9-1.9-7.5C57.2,196.2,53.5,179.4,45.4,163.4z"/>
			<g>
				<path class="st0" d="M65.5,210.6c3,3.1,3.3,8.5,0.6,12c-2.7,3.5-7.2,3.7-10.3,0.6c-3-3.1-3.3-8.5-0.6-12
					C57.9,207.7,62.5,207.4,65.5,210.6z"/>
				<path class="st1" d="M64.4,212.1c-2.3-2.4-5.8-2.2-7.8,0.4c-2,2.6-1.8,6.7,0.5,9.1c2.3,2.4,5.8,2.2,7.8-0.4
					C66.9,218.5,66.6,214.5,64.4,212.1z"/>
				<path class="st0" d="M65,216.6c0.1,2.8-1.7,5.2-4.1,5.3c-2.4,0.1-4.5-2-4.6-4.8c-0.1-2.8,1.7-5.2,4.1-5.3
					C62.8,211.6,64.9,213.8,65,216.6z"/>
				<path class="st1" d="M64.2,216.6c-0.1-2.2-1.8-4-3.7-3.9c-1.9,0.1-3.4,2-3.3,4.3s1.8,4,3.7,3.9
					C62.8,220.8,64.3,218.9,64.2,216.6z"/>
				<path class="st0" d="M64.2,216.6c0-0.3-0.1-0.5-0.1-0.8l-6.8,0.4c0,0.3,0,0.5,0,0.8c0,0.3,0.1,0.5,0.1,0.8l6.8-0.4
					C64.2,217.2,64.2,216.9,64.2,216.6z"/>
			</g>
			<path class="st16" d="M162.3,39.7c1.1-9.2,1.6-23.1-2.4-36.1c-1.6,0.1-3.3,0.2-5,0.4l-15.3,1.6c7.8,5,12.3,24.7,14.2,35.3
				c0.2,1.2,0.4,2.3,0.5,3.2c0.4,2.3,0.5,3.6,0.5,3.6l6,0.8c0.2-0.8,0.4-2,0.6-3.3c0-0.3,0.1-0.6,0.1-0.9c0.1-0.4,0.1-0.8,0.2-1.3
				C162,41.9,162.2,40.8,162.3,39.7z"/>
			<path class="st16" d="M162.4,5.8c5.2-0.3,9.6,2.1,10.1,10.7c0.4,6.4-0.6,12.9-1.3,16.9c0.4-1.7,0.8-3.4,1.2-5.2
				c1.5-7.2,2.6-15.6,2.3-23.9c-3.5-0.5-7.3-0.8-11.3-0.8c-0.6,0-1.1,0-1.7,0C162,4.3,162.2,5.1,162.4,5.8z"/>
			<path class="st16" d="M176.1,8.2c5.8,0.9,10.5,3.9,9.6,13.4c-0.7,6.5-2.1,11.6-3.1,14.6c0.8-1.7,1.6-3.4,2.3-5.1
				c3.7-9.3,5.6-19.1,5.2-22.3c-4.2-1.9-8.9-3.4-14-4.3C176.1,5.7,176.1,7,176.1,8.2z"/>
			<path class="st16" d="M190.9,14.1c7.1,3,9.1,7.3,5.1,17.7c-1.3,3.5-2.5,6.1-3.5,8.1c0.4-0.6,0.8-1.3,1.2-1.9
				c5.1-8.4,9.2-18.4,9.3-20.5c-3.4-3.2-7.2-5.9-11.7-8.1C191.3,10.6,191.2,12.2,190.9,14.1z"/>
			<path class="st16" d="M201.9,24.7c4.5,5,6.1,8.7,5.3,12.8c-0.3,1.7-2,4.1-3.9,6.3c0.2-0.2,0.4-0.4,0.6-0.6
				c4.8-5,8.4-10.1,9.1-12.4c-2.3-4.5-5.2-8.7-8.9-12.3C203.7,19.9,202.9,22.1,201.9,24.7z"/>
			<path class="st16" d="M210.2,37.7c2.8,3.9,3.8,8.2,1.8,11.5c2.7-1.9,4.9-3.6,5.7-4.6c-0.3-1.3-0.6-2.6-1-3.8
				c-0.8-2.9-1.9-5.8-3.1-8.5C212.9,33.7,211.7,35.6,210.2,37.7z"/>
			<path class="st16" d="M215.2,48.4c2.3,4.8,2.9,10.3,2.1,13.2c1.3-0.4,2.2-0.8,2.8-1.1c-0.3-4.9-1-9.8-2-14.5
				C217.4,46.7,216.4,47.5,215.2,48.4z"/>
			<path class="st13" d="M159.4,32.2c-1.4,2.6-4.9,2.7-5.7-0.5c-1-4.3-3.3-9.8-6.2-14.4c3.1,7.7,5.2,17.3,6.3,23.6
				c0.2,1.2,0.4,2.3,0.5,3.2c0.4,2.3,0.5,3.6,0.5,3.6l6,0.8c0.2-0.8,0.4-2,0.6-3.3c0-0.3,0.1-0.6,0.1-0.9c0.1-0.4,0.1-0.8,0.2-1.3
				c0.1-1,0.3-2.1,0.4-3.2c1.1-9.2,1.6-23.1-2.4-36.1c-0.6,0-1.3,0.1-1.9,0.1c0.8,2.5,1.7,6.3,2.2,11.5
				C160.9,21.6,161.2,28.8,159.4,32.2z"/>
			<path class="st9" d="M72.9,192.2c10.2-3.6,26.9-7.8,37.6-8.5c-12.3,3.9-24.3,6.2-36.6,11c-0.7,0.3-1.5-0.1-1.8-0.8
				C71.9,193.3,72.2,192.5,72.9,192.2z"/>
			<path class="st0" d="M297.9,318c-1.5,0.1-3.3-0.3-4.6-1c-3.6-1.9-3.7-5.7-2.2-9.2c0.5-1.2,1.4-2.5,2.2-3.5c0.7-1,1.5-2,2.2-3
				c0.4-0.6,0.8-1.1,1.2-1.6c1.9-2.2,5.1-2.9,7.7-1.5c3,1.7,3.6,5.2,2.4,8.2c-0.2,0.6-0.5,1.1-0.8,1.7c-1.6,3.1-3.9,6-6,8.8
				C299.3,317.6,298.7,318,297.9,318z"/>
			<path class="st14" d="M297.8,315.4c2.1-2.8,4.4-5.8,5.7-8.4c0.3-0.5,0.5-1,0.7-1.5c1.9-4.8-3.2-7-5.7-4.1c-0.3,0.4-0.7,0.8-1,1.4
				c-0.7,1.1-3.5,4.5-4.1,6C290.5,315.7,297.8,315.4,297.8,315.4z"/>
			<path class="st0" d="M292.1,271.8c0.5-0.7,1.1-1.4,1.8-1.9c3.9-3,9.6-2.1,13.7,0.7c4.1,2.8,7.1,7.9,5.8,12.7
				c-0.2,0.9-0.6,1.7-1.1,2.4c-1.1,1.7-3.2,5.6-4.9,6.5c-1.7,0.8-3.9-0.4-5.4-1.2c-1.9-1-3.7-2.2-5.4-3.5c-1.8-1.2-3.5-2.5-5.2-3.8
				c-1.2-0.9-3.1-2.3-3.3-3.9C287.6,276.9,290.7,274,292.1,271.8z"/>
			<path class="st10" d="M294.2,273.2c2.2-3.4,7.6-3.7,12-0.6c4.4,3,6.2,8.2,4,11.6c-0.6,0.9-3.1,5.2-4,5.7
				c-1.5,0.8-15.4-9.3-15.6-10.3C290.3,278,293.4,274.5,294.2,273.2z"/>
			<path class="st0" d="M288.6,277c0.5-0.7,1.1-1.4,1.8-1.9c3.9-3,9.6-2.1,13.7,0.7c4.1,2.8,7.1,7.9,5.8,12.7
				c-0.2,0.9-0.6,1.7-1.1,2.4s-1.1,1.4-1.8,1.9c-3.9,3-9.6,2.1-13.7-0.7c-4.1-2.8-7.1-7.9-5.8-12.7
				C287.8,278.6,288.2,277.8,288.6,277z"/>
			<path class="st10" d="M290.8,278.5c2.2-3.4,7.6-3.7,12-0.6c4.4,3,6.2,8.2,4,11.6c-2.2,3.4-7.6,3.7-12,0.6
				C290.3,287,288.6,281.9,290.8,278.5z"/>
			<path class="st0" d="M290.3,307.8c-0.1-0.2-0.2-0.3-0.3-0.4c-0.2-0.4-0.5-0.7-0.7-1.1c-0.3,0.4-0.5,0.7-0.6,0.9
				c0,0.1-0.1,0.1-0.1,0.2l-1.8,2.1c-0.5,0.6-1.1,0.9-1.9,0.9c-0.7,0-1.4-0.2-1.9-0.8l-3.1-3.1c-0.9-0.9-1-2.3-0.3-3.3l13.8-19.5
				c1.3-1.9,3.7-3.1,6-2.4c1.4,0.4,2.6,1.5,3.1,3c0.6,1.9-0.1,3.7-1.2,5.2c-0.9,1.2-3.9,4.8-3.7,6.4c0.2,1.3,1.4,3,2.1,4
				c0.7,1,1.7,3.1,2.1,4.7c0.4,1.6,0.3,2.9,0.4,4.2c0.1,2.3,0.4,4-0.7,6c-1.7,3.1-4.6,6.2-8.4,5.6c-6.1-0.9-7.2-6.5-3.7-10.9
				C289.6,309,290,308.4,290.3,307.8z"/>
			<path class="st14" d="M299.2,287.8c-1.8,2.3-4.6,5.8-4.2,8.4c0.7,3.9,5.8,8.3,6,11.3c0,0.4-0.3-2.1,0.4-2.3
				c0.7-0.3,1.5,2.9,1.4,3.2c-1,1.7-3.2,4.6-3.8,5.5c-1.4,2.3-3.3,4.2-5.5,3.9c-4.3-0.7-4.2-4.1-2.1-6.8c0.3-0.4,1.9-2.9,1.8-3.2
				c-0.2-0.8-1.4-2.4-1.9-3.3c-1.7-3.2-2.7-1.5-4.7,1.1l-1.8,2.1l-3.1-3.1l13.8-19.5c0.7-1,1.9-1.8,3.1-1.4
				C299.8,284.1,301,285.6,299.2,287.8z"/>
			<path class="st0" d="M271.6,301.2c0.5-0.7,1.2-1.4,2-1.9c4.2-3,10.1-2,14.1,0.9c4,2.9,6.7,8.2,5,13.2c-0.3,0.9-0.7,1.7-1.3,2.4
				c-1.3,1.7-3.8,5.8-5.6,6.6c-1.8,0.8-3.9-0.4-5.5-1.4c-1.8-1.1-3.6-2.4-5.3-3.6c-1.7-1.3-3.4-2.6-5-4c-1.1-1-3-2.4-3.1-4
				C266.6,306.4,270,303.4,271.6,301.2z"/>
			<path class="st10" d="M273.7,302.7c2.5-3.4,8.1-3.7,12.4-0.5c4.3,3.2,5.7,8.5,3.2,12c-0.7,0.9-3.6,5.3-4.6,5.8
				c-1.6,0.8-15.2-9.9-15.2-10.9C269.3,307.5,272.7,304,273.7,302.7z"/>
			<path class="st0" d="M267.7,306.6c0.5-0.7,1.2-1.4,2-1.9c4.2-3.1,10.1-2,14.1,0.9c4,2.9,6.7,8.2,5,13.2c-0.3,0.9-0.7,1.7-1.3,2.4
				c-0.5,0.7-1.2,1.4-2,1.9c-4.2,3.1-10.1,2-14.1-0.9c-4-2.9-6.7-8.2-5-13.2C266.7,308.1,267.1,307.3,267.7,306.6z"/>
			<path class="st10" d="M269.7,308.1c2.5-3.4,8.1-3.7,12.4-0.5c4.3,3.2,5.7,8.5,3.2,12c-2.5,3.4-8.1,3.7-12.4,0.5
				C268.6,316.9,267.2,311.5,269.7,308.1z"/>
			<path class="st0" d="M289,304.4c-0.5-0.4-0.5-1-0.2-1.5s1-0.5,1.5-0.2c1.1,0.9,1.9,2.1,2.6,3.4c0.9,1.5,1.7,2.9,3.1,3.1
				c0.5,0.1,1,0.1,1.5-0.1c0.6-0.2,1.2-0.5,1.6-0.9c0.4-0.4,0.7-1,0.8-1.7c0.1-0.5,0.1-1.1-0.1-1.7c-0.1-0.6,0.2-1.2,0.8-1.3
				c0.6-0.1,1.2,0.2,1.3,0.8c0.2,0.9,0.3,1.8,0.1,2.6c-0.2,1.1-0.7,2.1-1.4,2.8c-0.7,0.7-1.6,1.3-2.6,1.5c-0.7,0.2-1.5,0.2-2.4,0.1
				c-2.4-0.4-3.5-2.2-4.6-4.2C290.4,306.1,289.8,305.1,289,304.4z"/>
			<path class="st0" d="M273.4,310.8c1.3-1.8,4.3-1.9,6.5-0.3c2.3,1.7,3,4.5,1.7,6.3c-1.3,1.8-4.3,1.9-6.5,0.3
				C272.8,315.5,272.1,312.6,273.4,310.8z"/>
			<path class="st0" d="M295,289c0.1-0.2,0.4-0.3,0.6-0.2c0.2,0.1,0.3,0.4,0.2,0.6c-0.8,1.7-0.9,3.3-0.6,4.7
				c0.3,1.5,1.1,2.9,1.9,4.4c0.1,0.2,0,0.5-0.2,0.6c-0.2,0.1-0.5,0-0.6-0.2c-0.9-1.5-1.7-3-2-4.6C293.9,292.7,294,290.9,295,289z"/>
			<path class="st0" d="M294.2,313.3c-0.2,0-0.4-0.2-0.5-0.4c0-0.2,0.2-0.4,0.4-0.5c2.1-0.2,4.1-1.5,5.6-3.2
				c1.5-1.8,2.4-4.1,2.4-6.3c0-0.2,0.2-0.4,0.4-0.4c0.2,0,0.4,0.2,0.4,0.4c0.1,2.4-0.9,5-2.6,6.9
				C298.8,311.7,296.6,313.1,294.2,313.3z"/>
			<path class="st17" d="M271.3,307.8c1.6-0.7,3.4-0.9,5.3-0.5c1.5,0.3,3.1,1,4.5,2c3.6,2.7,5.2,6.9,4.1,10.2c0,0.1-0.1,0.2-0.1,0.2
				c0.1-0.1,0.1-0.1,0.2-0.2c0.1-0.1,0.2-0.3,0.3-0.4c1.6-2.6,1.2-6-0.8-8.9c-0.7-1-1.6-1.9-2.7-2.7c-0.4-0.3-0.8-0.5-1.2-0.8
				c-0.4-0.3-0.9-0.5-1.3-0.7c-3.7-1.5-7.6-0.9-9.8,1.7c0,0.1-0.1,0.1-0.1,0.2c0,0-0.1,0.1-0.1,0.1c-0.3,0.4-0.6,0.9-0.7,1.4
				c0.2-0.2,0.4-0.4,0.5-0.6C270,308.5,270.6,308.1,271.3,307.8z"/>
			<path class="st17" d="M293.2,277.7c2-0.6,4.4-0.4,6.7,0.6c0.7,0.3,1.4,0.7,2,1.1c1.1,0.7,2,1.6,2.8,2.6c1.8,2.4,2.6,5.2,1.9,7.5
				c0,0.1-0.1,0.2-0.1,0.3c0.1-0.1,0.2-0.2,0.2-0.3c0.1-0.1,0.2-0.3,0.2-0.4c0.9-1.7,0.9-3.9,0.1-5.9c-0.3-0.8-0.8-1.6-1.3-2.4
				c-0.5-0.7-1-1.3-1.7-1.8c-0.3-0.3-0.6-0.5-0.9-0.7c-0.1-0.1-0.3-0.2-0.4-0.3c-1.1-0.7-2.2-1.3-3.3-1.6c-1.2-0.4-2.3-0.5-3.4-0.5
				c-1.6,0.1-3.1,0.6-4.3,1.6c-0.4,0.3-0.7,0.7-1,1.1c0,0-0.1,0.1-0.1,0.1c-0.2,0.3-0.4,0.7-0.5,1.1c0.1-0.2,0.2-0.3,0.4-0.4
				C291.3,278.5,292.2,278,293.2,277.7z"/>
			<path class="st18" d="M295.9,287l1.2-1.8c0.1-0.1,0.1-0.2,0.2-0.2c0.4-0.5,1-0.9,1.6-1.1c-0.1,0-0.2-0.1-0.3-0.1
				c-0.8-0.2-1.6,0-2.3,0.5c-0.3,0.3-0.6,0.6-0.8,0.9l-0.7,1l-1.7,2.5l-1.4,2l-5.9,8.3c0.4,0.2,0.8,0.5,1.2,0.7l5.7-8.1l1.4-2
				L295.9,287z"/>
			<g>
				<path class="st0" d="M191.3,262c-1.5,0.1-3.3-0.1-4.7-0.8c-3.7-1.8-4-5.5-2.7-9c0.4-1.2,1.3-2.5,2-3.6c0.7-1,1.4-2,2-3.1
					c0.3-0.6,0.7-1.1,1.1-1.7c1.8-2.3,4.9-3.2,7.6-1.9c3.1,1.5,3.9,5,2.8,8.1c-0.2,0.6-0.4,1.2-0.7,1.7c-1.4,3.1-3.6,6.2-5.5,9.1
					C192.8,261.6,192.1,261.9,191.3,262z"/>
				<path class="st14" d="M191.1,259.4c2-2.9,4.1-6,5.3-8.7c0.2-0.5,0.4-1,0.6-1.5c1.7-4.9-3.5-6.8-5.9-3.8
					c-0.3,0.4-0.6,0.9-0.9,1.4c-0.7,1.1-3.2,4.7-3.8,6.2C183.8,260.1,191.1,259.4,191.1,259.4z"/>
				<path class="st0" d="M183.1,216.2c0.4-0.8,1-1.4,1.7-2c3.7-3.2,9.5-2.6,13.7,0c4.2,2.6,7.5,7.5,6.5,12.4
					c-0.2,0.9-0.5,1.7-0.9,2.4c-1,1.8-2.9,5.8-4.6,6.7c-1.6,0.9-3.9-0.2-5.5-0.9c-1.9-0.9-3.8-2.1-5.6-3.2c-1.8-1.1-3.6-2.3-5.4-3.5
					c-1.2-0.9-3.2-2.1-3.5-3.7C178.9,221.5,181.8,218.4,183.1,216.2z"/>
				<path class="st10" d="M185.3,217.5c2-3.5,7.4-4,11.9-1.3c4.6,2.8,6.6,7.9,4.6,11.3c-0.5,0.9-2.8,5.4-3.7,5.9
					c-1.5,0.8-15.9-8.5-16.1-9.5C181.7,222.4,184.5,218.9,185.3,217.5z"/>
				<path class="st0" d="M179.9,221.6c0.4-0.8,1-1.4,1.7-2c3.7-3.2,9.5-2.6,13.7,0c4.2,2.6,7.5,7.5,6.5,12.4
					c-0.2,0.9-0.5,1.7-0.9,2.4c-0.4,0.8-1,1.4-1.7,2c-3.7,3.2-9.5,2.6-13.7,0c-4.2-2.6-7.5-7.5-6.5-12.4
					C179.2,223.2,179.5,222.4,179.9,221.6z"/>
				<path class="st10" d="M182.1,223c2-3.5,7.4-4,11.9-1.3c4.6,2.8,6.6,7.9,4.6,11.3c-2,3.5-7.4,4-11.9,1.3
					C182.2,231.5,180.1,226.4,182.1,223z"/>
				<path class="st0" d="M183.3,252.3c-0.1-0.1-0.2-0.3-0.3-0.4c-0.3-0.4-0.5-0.7-0.8-1.1c-0.2,0.4-0.5,0.7-0.6,0.9
					c0,0.1-0.1,0.1-0.1,0.2l-1.7,2.2c-0.5,0.6-1.1,0.9-1.8,1c-0.7,0.1-1.4-0.2-2-0.7l-3.2-2.9c-0.9-0.9-1.1-2.2-0.5-3.3L185,228
					c1.2-2,3.5-3.3,5.9-2.7c1.5,0.4,2.7,1.4,3.3,2.8c0.7,1.8,0.1,3.7-1,5.3c-0.9,1.2-3.7,5-3.3,6.6c0.3,1.3,1.5,2.9,2.3,3.9
					c0.8,1,1.9,3,2.4,4.6c0.5,1.6,0.5,2.8,0.6,4.2c0.2,2.3,0.6,3.9-0.4,6c-1.5,3.1-4.3,6.4-8.1,6c-6.1-0.6-7.5-6.1-4.3-10.7
					C182.6,253.5,183,252.9,183.3,252.3z"/>
				<path class="st14" d="M191.1,231.8c-1.7,2.3-4.3,6-3.7,8.7c0.9,3.9,6.2,8,6.6,11c0,0.4-0.4-2.1,0.2-2.3c0.7-0.3,1.7,2.8,1.5,3.1
					c-0.9,1.7-3,4.8-3.5,5.7c-1.3,2.4-3.1,4.4-5.3,4.1c-4.3-0.4-4.4-3.9-2.4-6.7c0.3-0.5,1.7-3,1.7-3.3c-0.2-0.8-1.6-2.3-2.1-3.2
					c-1.8-3.1-2.8-1.4-4.6,1.4l-1.7,2.2l-3.2-2.9l12.7-20.2c0.6-1,1.8-1.9,3-1.6C191.4,228.1,192.8,229.5,191.1,231.8z"/>
				<path class="st0" d="M164.2,246.6c0.5-0.8,1.1-1.5,1.9-2c4.1-3.3,10-2.6,14.1,0.2c4.1,2.7,7.1,7.9,5.7,12.9
					c-0.2,0.9-0.6,1.7-1.1,2.5c-1.2,1.8-3.5,5.9-5.2,6.9c-1.8,0.9-4-0.2-5.5-1.1c-1.9-1-3.7-2.2-5.5-3.4c-1.8-1.2-3.5-2.4-5.2-3.7
					c-1.2-0.9-3.1-2.3-3.3-3.9C159.5,252.1,162.7,248.9,164.2,246.6z"/>
				<path class="st10" d="M166.4,248.1c2.4-3.6,7.9-4.1,12.4-1.1s6.2,8.2,3.8,11.8c-0.6,0.9-3.3,5.5-4.3,6c-1.6,0.8-15.7-9-15.8-10
					C162.3,253.1,165.5,249.4,166.4,248.1z"/>
				<path class="st0" d="M160.5,252.2c0.5-0.8,1.1-1.5,1.9-2c4.1-3.3,10-2.6,14.1,0.2c4.1,2.7,7.1,7.9,5.7,12.9
					c-0.2,0.9-0.6,1.7-1.1,2.5c-0.5,0.8-1.1,1.5-1.9,2c-4.1,3.3-10,2.6-14.1-0.2c-4.1-2.7-7.1-7.9-5.7-12.9
					C159.6,253.8,160,253,160.5,252.2z"/>
				<path class="st10" d="M162.7,253.6c2.4-3.6,7.9-4.1,12.4-1.1c4.5,2.9,6.2,8.2,3.8,11.8c-2.4,3.6-7.9,4.1-12.4,1.1
					C162.1,262.5,160.3,257.2,162.7,253.6z"/>
				<path class="st0" d="M181.7,248.9c-0.5-0.3-0.6-1-0.3-1.5c0.3-0.5,1-0.6,1.5-0.3c1.2,0.8,2,2,2.7,3.2c0.9,1.4,1.8,2.8,3.2,2.9
					c0.5,0.1,1,0,1.5-0.1c0.6-0.2,1.1-0.5,1.5-1c0.4-0.5,0.6-1,0.7-1.7c0.1-0.5,0-1.1-0.2-1.7c-0.2-0.6,0.2-1.2,0.7-1.3
					c0.6-0.2,1.2,0.2,1.3,0.7c0.3,0.9,0.3,1.8,0.3,2.6c-0.1,1.1-0.6,2.1-1.2,2.9c-0.7,0.8-1.5,1.3-2.5,1.6c-0.7,0.2-1.5,0.3-2.4,0.2
					c-2.4-0.3-3.6-2.1-4.8-3.9C183.2,250.6,182.5,249.5,181.7,248.9z"/>
				<path class="st0" d="M166.5,256.1c1.2-1.9,4.2-2.2,6.5-0.6c2.4,1.6,3.3,4.3,2,6.2c-1.2,1.9-4.2,2.2-6.5,0.6
					C166.2,260.8,165.3,258,166.5,256.1z"/>
				<path class="st0" d="M186.9,233.2c0.1-0.2,0.3-0.3,0.6-0.2c0.2,0.1,0.3,0.3,0.2,0.6c-0.7,1.7-0.8,3.3-0.4,4.8
					c0.4,1.5,1.2,2.9,2.2,4.3c0.1,0.2,0.1,0.5-0.1,0.6c-0.2,0.1-0.5,0.1-0.6-0.1c-1-1.5-1.8-2.9-2.3-4.5
					C186,236.9,186,235.2,186.9,233.2z"/>
				<path class="st0" d="M187.4,257.6c-0.2,0-0.5-0.1-0.5-0.4c0-0.2,0.1-0.5,0.4-0.5c2.1-0.3,4-1.7,5.4-3.5c1.4-1.9,2.2-4.2,2-6.5
					c0-0.2,0.2-0.4,0.4-0.5s0.4,0.2,0.5,0.4c0.2,2.4-0.7,5-2.2,7.1C191.9,255.7,189.8,257.2,187.4,257.6z"/>
				<path class="st17" d="M164.2,253.3c1.5-0.8,3.4-1,5.3-0.8c1.5,0.2,3.1,0.8,4.6,1.8c3.7,2.5,5.6,6.6,4.6,10c0,0.1,0,0.2-0.1,0.2
					c0.1-0.1,0.1-0.1,0.2-0.2c0.1-0.1,0.2-0.3,0.3-0.4c1.5-2.6,0.9-6.1-1.3-8.8c-0.7-1-1.7-1.8-2.8-2.6c-0.4-0.3-0.8-0.5-1.2-0.7
					c-0.4-0.2-0.9-0.4-1.4-0.6c-3.8-1.3-7.7-0.5-9.6,2.2c0,0.1-0.1,0.1-0.1,0.2c0,0-0.1,0.1-0.1,0.1c-0.3,0.5-0.5,1-0.7,1.5
					c0.2-0.2,0.3-0.4,0.5-0.6C163,254.1,163.6,253.6,164.2,253.3z"/>
				<path class="st17" d="M184.5,222c1.9-0.7,4.4-0.7,6.7,0.2c0.7,0.3,1.4,0.6,2.1,1c1.1,0.7,2.1,1.5,2.9,2.4c2,2.3,2.9,5,2.3,7.4
					c0,0.1,0,0.2-0.1,0.3c0.1-0.1,0.2-0.2,0.2-0.4c0.1-0.1,0.2-0.3,0.2-0.4c0.8-1.8,0.7-3.9-0.2-5.9c-0.4-0.8-0.9-1.6-1.5-2.3
					c-0.5-0.6-1.1-1.2-1.8-1.8c-0.3-0.2-0.6-0.5-0.9-0.7c-0.1-0.1-0.3-0.2-0.4-0.3c-1.1-0.7-2.3-1.2-3.4-1.4
					c-1.2-0.3-2.3-0.4-3.4-0.3c-1.6,0.2-3.1,0.8-4.2,1.8c-0.4,0.3-0.7,0.7-0.9,1.2c0,0-0.1,0.1-0.1,0.1c-0.2,0.4-0.3,0.7-0.5,1.1
					c0.1-0.2,0.2-0.3,0.4-0.5C182.6,223,183.5,222.4,184.5,222z"/>
				<path class="st18" d="M187.5,231.1l1.2-1.8c0-0.1,0.1-0.1,0.1-0.2c0.4-0.5,0.8-0.9,1.4-1.2c0,0,0,0,0,0
					c-0.8-0.2-1.6,0.1-2.3,0.7c-0.3,0.3-0.6,0.6-0.8,0.9l-0.7,1l-1.6,2.6l-1.3,2.1l-5.4,8.6c0.4,0.2,0.7,0.4,1.1,0.5l5.3-8.4
					l1.3-2.1L187.5,231.1z"/>
			</g>
			<path class="st9" d="M238.1,229.8c-9.5-18-29.2-33-48-40.1l-3.1-1.2c4.7,0.5,6.2,0.8,10.7,2.6c17.3,6.8,34.9,20.8,44,36.9
				c0.5,1,0.1,2.2-0.9,2.7C239.8,231.2,238.6,230.8,238.1,229.8z"/>
			<path class="st9" d="M216.7,239.7c1.2-1.5,2.3-2.7,3.5-3.6c0.9-0.7,1.7-1.2,2.6-1.6c3.2-1.5,6.8-1.7,11.6-2.1
				c-4.6-0.4-9.2-0.1-13.2,1.4c-1,0.4-2,0.9-3,1.5c-1.4,0.9-2.7,2-3.8,3.4c-1,1.3-1.9,2.9-2.6,4.8c-0.1,0.3-0.3,0.6-0.6,0.7
				c-2.8,6.5-8.2,14.7-12.7,23.3c-0.4,0.7-0.8,1.5-1.2,2.3c-0.3,0.5-0.5,1-0.8,1.5c-0.7,1.5-1.4,3-2,4.4c-0.2,0.5-0.4,0.9-0.6,1.4
				c-0.3,0.7-0.6,1.4-0.8,2.1c-0.2,0.5-0.4,1-0.5,1.5c-0.1,0.4-0.3,0.8-0.4,1.2c-0.3,1-0.6,2-0.8,3c0,0,0,0,0,0c0,0,0.1,0,0.1,0
				c0.8-0.1,1.8-0.8,2.8-2.1c0.3-0.3,0.5-0.7,0.8-1.1c0.7-1,1.4-2.2,2.1-3.5c0-0.1,0.1-0.2,0.1-0.2c0.2-0.5,0.5-0.9,0.7-1.4
				c0.3-0.5,0.6-1.1,0.8-1.7c0.1-0.3,0.2-0.5,0.4-0.8c0.5-1,1-2.1,1.5-3.2c3.3-7.2,7-15.9,10.9-23.4
				C213.5,244.3,215.1,241.7,216.7,239.7z"/>
			<text transform="matrix(0.8887 -0.4585 0.4585 0.8887 253.6666 287.0956)"><tspan x="0" y="0" class="st19 st20 st21">D</tspan><tspan x="11.3" y="0" class="st19 st20 st22">a </tspan><tspan x="-10.1" y="17.2" class="st19 st20 st21">BOM</tspan></text>
		</g>
	</g>
	<g>
		<path class="st23" d="M501.4,292.8c0,14.2-7,21.3-21.1,21.3h-75.6c-13.8,0-20.7-7.1-20.7-21.3V102.6c0-14.3,6.9-21.4,20.7-21.4
			h75.6c14.1,0,21.1,7.1,21.1,21.4V292.8z M466.6,284.2V111.1h-47.8v173.1H466.6z"/>
		<path class="st23" d="M627.9,283.9c0,12.2-4.4,20.7-13.1,25.6c-6.4,3.5-16,5.2-28.9,5.2c-3,0-7.2-0.1-12.6-0.3
			c-5.4-0.2-9.3-0.3-11.7-0.3V369h-34.1V163.8h34.1v5.5c7.9-1.2,15.9-2.4,23.8-3.7c10-1.6,18-2.4,23.8-2.4
			c12.4,0,18.6,6.1,18.6,18.3V283.9z M593.7,274.5v-82.3l-32,0.6v93h21.1C590.1,285.8,593.7,282,593.7,274.5z"/>
		<path class="st23" d="M749.2,295.5c0,12.4-6.4,18.6-19.2,18.6h-58.8c-12.8,0-19.2-6.2-19.2-18.6V182.4c0-12.4,6.4-18.6,19.2-18.6
			H730c12.8,0,19.2,6.2,19.2,18.6v55.2l-9.4,9.4h-55.2v42.1h32v-25h32.6V295.5z M716.6,224.8v-36h-32v36H716.6z"/>
		<path class="st23" d="M874.2,314.1H840V192.2l-32,0.6v121.3h-34.1V163.8H808v5.5c7.9-1.3,15.8-2.5,23.7-3.7
			c9.7-1.6,17.7-2.4,24-2.4c12.4,0,18.6,6.1,18.6,18.3V314.1z"/>
		<path class="st23" d="M1016.3,81.2l-44.6,233.2H937L892.5,81.2h35l26,159.7c0.2,4.6,0.5,11.2,0.9,19.9c-0.1-4.6,0.2-11.2,0.9-19.9
			l26.2-159.7H1016.3z"/>
		<path class="st23" d="M1132.5,314.1H1036V81.2h95.7V112h-60.9v68h52.4v30.2h-52.4v73.1h61.8V314.1z"/>
		<path class="st23" d="M1272.4,314.1h-37.7l-25.6-82l-25.7,82h-37.1v-1.2l43.5-118c-27.3-75.4-40.9-113.3-40.8-113.7h37.2
			l23.2,75.9l23.4-75.9h36.9v1.3L1229,194L1272.4,314.1z"/>
	</g>
</g>
</svg>
