<?xml version="1.0" encoding="UTF-8"?>
<svg id="Layer_1" xmlns="http://www.w3.org/2000/svg" version="1.1" viewBox="0 0 675 1075">
  <!-- Generator: Adobe Illustrator 29.7.1, SVG Export Plug-In . SVG Version: 2.1.1 Build 8)  -->
  <defs>
    <style>
      .st0 {
        fill: none;
      }

      .st1 {
        fill: #c97c4d;
      }

      .st2 {
        fill: #fac27a;
      }

      .st3 {
        fill: #e0f8ff;
      }

      .st4 {
        fill: #784a30;
      }

      .st5 {
        fill: #d39771;
      }

      .st6 {
        opacity: .3;
      }

      .st6, .st7 {
        fill: #04335f;
      }

      .st8 {
        fill: #fff;
      }

      .st9 {
        fill: #6897b8;
      }

      .st10 {
        fill: #ffe49f;
      }

      .st11 {
        opacity: .5;
      }

      .st12 {
        fill: #6b422e;
      }

      .st13 {
        fill: #b7deeb;
      }
    </style>
  </defs>
  <path class="st7" d="M71.5,459.5s74.2-65.5,167.6-72.6l1,22.4-107.2,30.2-6.7-6.5-54.7,26.5Z"/>
  <path class="st7" d="M103.8,625.1c8.7,3.3,16.6,4.1,23.4,2.4.4-.1.8-.2,1.2-.4,10-2.2,15.7-7.9,16.4-8.5l.6-.6,85.9-125.4s89.8-86.1,58.8-88.6c-31.3-2.6-55.7,2-75.2,6.1-62,12.9-100.7,23.4-126.3,42.7-2.7,2-5.3,4-7.7,5.8-27.5,20.3-24.2,43.5-21.1,66,0,.6.2,1.2.2,1.7,0,0-4.2,7.7-5,11.1-1.1,4.3-3.3,13.4.5,21.8l-.6,11c-1.1,20.1,25.4,46.1,49,55Z"/>
  <path class="st7" d="M554.9,714.7s-19.6,12.9-29-10.8c-9.2-23.2,25.8-3.6,25.8-3.6l3.2,14.4Z"/>
  <path class="st7" d="M422.1,509.9c-12.8,0-25.8-3.5-37.2-6.5-8.6-2.3-16.7-4.5-22.3-4.5s-2.4.1-3.2.4h-.3c0,0-.3.1-.3.1-7.6,1.7-15.4,2.6-23.3,2.6-27.5,0-54.4-10.6-73.7-29-14-12.7-19.3-14-22.2-14.7-10.5-2.6-12-6.7-21.4-33.4l-3.5-9.8,10-3.1c7.7-2.4,12.8-6.5,15.5-12.6-8.7-6.7-15.6-15.3-20.8-23.7l-11.2-5.3c-1.7-.8-10.4-5.5-16.4-20-.4-1.1-.8-2.2-1.2-3.3l-5.8-5c-15.9-13.7-9.3-50.5-1.3-66.3.6-1.8,3-8.9,4.9-19l-4.5,3.7-1.5-19.3c-2-25.5,1.9-46.7,6.4-68,2.5-11.8,5.7-23.1,9.6-33.8-12-4.6-20.9-10.5-26.3-17.7-6.4-8.3-8.6-18.5-6.5-29.2,3.5-17.9,18.6-35.3,42.3-49.2,7-4.1,14.1-6.1,21.1-6.1s17,3.2,24.5,9.3l8.6-7.8c1.1-1,10.9-9.6,23.3-11.2,1.8-.2,3.8-.4,5.8-.5-.6-5.5.7-10.9.9-12,.2-1.2,1-4,1-4,2-6.5,10.6-7.8,14.5-2.4l2,2.8c2.2,3,9.9,10.9,18.2,10.9.1,0,.3,0,.4,0,4.9-.1,9.2-.2,13.2-.2,17.2,0,30.6,1.3,41.2,3.9,18.3,4.6,43.6,18.7,54.4,25.5,2.3,1.5,4.7,3.2,7.2,5.1,11.3-13.2,25.2-20.4,40.2-20.4s14.9,1.7,22.5,5c23.6,10.4,38.3,28.8,40.4,50.6,1.5,16.3-4.6,31.8-15.7,39.4-7.5,5.2-15.1,11.3-21.1,16.4,1.7,4.9,3.3,9.8,4.7,14.7,2.7,8.1,7.9,23.1,12.7,33.8,6.7,14.9,14.1,24.4,14.1,24.4l3.7,4.7c3.6,4.6.4,11.3-5.4,11.4h-6c.1.4.3.7.4,1,6.4,14.8,3.6,33.7,3.3,35.8l-1.6,9.9c-.4,2.3-3,3.5-5,2.3h0c1.8,17.5-4,32.2-4.2,32.8l-4.6,11.4c-.9,2.3-4,2.7-5.4.7h0c-3.7,20.5-19.3,34.9-20,35.6l-10,9.1c-3,2.7-7.8.4-7.6-3.7h0c-10.7,13.5-23,25.2-36.7,34.7,10.6,5.7,25.2,14.1,40,24.5l6.6,4.7-3.2,7.4c-5.2,12.1-23.2,52.4-38.9,60.9-7.4,4-15.7,5.9-25.3,5.9ZM297.5,337.8c5.9,7,8.6,12.8,11.2,18.5,2.1,4.5,4.2,9.1,8.2,15,.2.4.5.7.7,1,4,5.5,10.6,8.8,17.7,8.8s6-.6,8.8-1.8c9-3.8,17.1-8.5,23.4-13.5,26.4-21,49.2-49.5,69.6-87.1,17-31.3,14.1-68.6,3.7-91.6-1.5-3.4-3.3-6.6-5.2-9.6l-2-3.1c-15.7-24.2-23.6-36.4-44.3-47.1-4.1-2.1-8.1-3.1-12.5-3.1-7.1,0-14.7,2.6-22.8,5.4-8.6,2.9-18.2,6.2-29.1,7.1-1.8.1-3.6.2-5.4.2-21.6,0-39.5-10.1-46.4-14.6-6.3,2.4-24.2,17.6-35.8,47.1,11.5,26.3,42.7,98.4,59.2,147.2v.2c0,0,.1.2.1.2,1.9,6.7,1.5,11.8,1.1,17.2,0,1.1-.2,2.3-.3,3.5Z"/>
  <path class="st1" d="M287.4,340c.3-8.9,1.6-13.3-.3-20.1-20.1-59.5-62.7-155.2-62.7-155.2-8.8,28.2-25.5,21.4-25.6,48.1,6.3,35.2-6,67.1-6,67.1-7.9,15-11.6,45.8-1.4,54.7,2.4-12.3,7.5-17,7.5-17,0,0-3,16.5,2.2,29s11.4,14.7,11.4,14.7c-.3-1.9.8-16.1,2.9-18.5,0,0,14.9,52.6,53.2,58.3,9.8,1.5,11.4-7.4,11.4-7.4,8.2-12.8,7.1-40,7.6-53.9Z"/>
  <path class="st1" d="M491.5,144.6s24,69.4,16.9,95c-.5-9.8-6-18.3-6.8-18.7-.8-.3-4.4,62.6-16.1,82.2.5-10.8-3.3-25.6-3.3-25.6,0,0-33.8,131.9-103.4,145.5,14.7-1.6,40.1-18.7,47.8-23.8,7.6-5.1,29.8-15.3,43.9-32.7,14-17.4,17.9-26,17.9-26,0,0,2.9,5.9,2.1,18.3,0,0,15.6-14.1,17.3-33.3,1.8-19.1-.8-24.4-.4-24.4s10.5,13.6,10.5,13.6c0,0,5.4-13.5,3.4-29.4-1.9-15-5.9-21.7-5.2-21,.7.6,12,7.6,12,7.6,0,0,2.9-17.7-2.6-30.2-5.5-12.5-7.6-14.5-7.6-14.5l16.2-.3s-8-10.1-15.4-26.6c-7.4-16.4-15.4-41.9-15.4-41.9l-6.9-13.9h-5Z"/>
  <path class="st1" d="M456.6,83l-107.4-38.8-63.4,22.8-35.5,5.9-9.9.2s2.9-8,17-15.1c14.1-7.1,22.4-4.6,22.4-4.6l-11.1-7.1s8.2-7.4,17.9-8.8c9.7-1.3,21.4.7,21.4.7,0,0-6.1-7.6-7-12.1-.8-4.5.5-8.7.5-8.7,0,0,11.2,15.5,27,15,15.7-.5,36.1-.5,51.7,3.4,15.6,3.9,38.7,16.2,51.5,24.2,12.8,8,24.9,22.9,24.9,22.9h0Z"/>
  <polygon class="st12" points="338.1 373.4 387.4 343.2 426.4 292.3 445.9 237 442.2 187.9 406.9 133.5 358.3 127.6 316.8 137.1 275.6 118.8 248.1 142.7 224.9 213.8 233.4 275.3 262.8 312.3 301.6 346.5 322.7 377.3 338.1 373.4"/>
  <path class="st7" d="M572.2,643.6c-8.7,3.4-16.5,4.4-23.3,2.8-.4,0-.8-.2-1.2-.3-10-2-15.9-7.7-16.5-8.3l-.6-.6-87.7-124.2s-92-101.4-61.1-104.4c31.3-3,46-10,65.6-5.9,89.3,18.9,135.3,58.6,159.4,78.3,2.6,2.1-16.4-6.1-13.9-4.3,27.8,19.9,24.9,43.2,22,65.7,0,.6-.1,1.2-.2,1.7,0,0,4.3,7.6,5.2,11s3.5,13.4-.2,21.8l.8,11c1.4,20.1-24.8,46.4-48.2,55.7Z"/>
  <path class="st7" d="M404.4,430.8c-6-4.5-12.2-8.6-18.7-12.2-.3-7.6-3.3-14.9-8.9-20.1-4.6-4.3-10.4-6.8-16.6-7.3,3.1-18.2,8.3-36.1,14.4-53.5,6.9-19.5,15-38.5,23.5-57.3,4.7-10.4,9.5-20.7,14.4-31,21.3-18.6,33.4-45.4,33.4-73.7,0-54.1-43.9-98-98-98s-98,43.9-98,98,.2,7.6.7,11.4c-1.5,3-4.4,6.3-6.7,8.7-3.6,3.9-7.6,7.7-11.5,11.3-6.7,6.1-13.7,11.9-20.7,17.7-1.8,1.5-3.7,3-5.5,4.5-8.2,6.6-16.5,13.1-24.1,20.4-5.2,5.1-11.4,11.8-12.1,19.4-.2,2,0,4,.7,5.9,4.4,13.2,23.5,12.3,34.6,11.5,4.5-.3,8.9-.9,13.4-1.6.5,0,1,.2,1.5.3,23.7,3.6,45.7-2.2,68.3-8.8,9-2.6,17.9-5.4,26.8-8.3,6.4,2.3,13.1,3.9,19.8,4.7-11.4,16-22.1,32.8-32,49.8-6,10.4-11.8,21-17.1,31.8-4.6,9.4-9,19-12.7,28.9-1.8-.1-3.7,0-5.4.3-19,3.1-16.6,26.7-24.3,42.5.2.9.4,1.8.7,2.7,3.8,12.8,16.1,20.9,27.8,25.6,12.1,4.8,25.9,7.1,39.1,7.3-.4.2-.7.3-1.1.5-1.2.7-2.3,1.6-3.1,2.7,6-.4,12-1.5,17.9-1.9-1.8-.4-3.7-.9-5.5-1.4,17.2-.8,36-5.2,49.8-15.6,6-4.6,10.6-10.7,12.6-17.8,3.9,2.2,7.7,4.6,11.5,7.2-2.8,1.1-4.4,2.5-4.3,3.9,1-.4,2.1-.8,3.2-1.1,8-2.1,17.9-.8,29.1,3.7,3.3-2,6.3-4.5,9.3-7.1-8.1-3.4-17.5-4.6-26.2-4.1ZM385.3,286.8c-5.8-3.3-12.4-5.6-18.8-7.2-9-2.2-17.5-2.9-23.2-3,1.2-1.7,2.4-3.4,3.7-5,5.8.3,13.1,1.1,20.7,3,6.7,1.6,13.5,4,19.7,7.4-.7,1.6-1.4,3.1-2.1,4.7ZM267,154.7c1.9-5.9,5.9-9.8,9-8.9,3.1,1,4.1,6.5,2.2,12.4-1.9,5.9-5.9,9.8-9,8.9-3.1-1-4.1-6.5-2.2-12.4ZM204.7,276.3c-48.5,3.3-14.2-20.7,13.6-43.6,21.2-17.5,37.5-32.4,41.8-41.6,2.2-4.5,4.4-8.3,6.8-11.4,0,0,0,0,0-.1.8-1.9,2.2-3.3,3.8-4.2,6.2-5.9,12.7-6.9,18.4-3.1,20.8,14,22.3,32.4,56.2,29.8-2.1,3.4-3.3,7.4-3.3,11.7s.4,4.8,1.1,7c-2,1.5-3.7,2.8-4.6,3.6-14.4,12.6-91.2,49.1-134,51.9ZM347.6,182.9c-7.8,0-14.2-6.3-14.2-14.2s6.3-14.2,14.2-14.2,14.2,6.3,14.2,14.2-6.3,14.2-14.2,14.2ZM364.9,196.4c9.6,0,17.4,7.8,17.4,17.4s-7.8,17.4-17.4,17.4-17.4-7.8-17.4-17.4,7.8-17.4,17.4-17.4ZM285.7,266.5c-13,3.8-25.9,7.4-39.2,8.8,7.5-2.3,14.8-4.9,21.5-7.4,18.6-7,37.4-15.2,54.9-24.6,5.9-3.2,12.1-6.6,17.5-10.6,2.1-1.5,4.4-3.4,6.1-5.6,3.9,5.4,10.2,9,17.3,9.3-16.1,10.1-50.7,22.1-78.1,30ZM327.8,261c9.3-3.3,18.6-7,27.4-11.1,7.7-3.6,21-10.2,24.3-18.5,0,0,0,0,0,0,2.4-2,4.4-4.5,5.8-7.4,1.5-3.1,2.4-6.5,2.4-10.1,0-12.6-10.2-22.8-22.8-22.8s-6.5.7-9.4,2c0,0,0,0,0,0,16.2-11.9,27.4-34.1,15.3-47.7-14.2-15.9-53.5-29-83.1-28.2-.9,0-3.3.4-5.7.8.2-.2.4-.4.6-.7.4-.5.9-.9,1.3-1.4.5-.5.9-1,1.4-1.5.4-.5.9-.9,1.3-1.3.5-.5,1-1,1.5-1.4.4-.4.9-.8,1.3-1.2.6-.5,1.1-1,1.7-1.5.4-.4.9-.7,1.3-1.1.8-.6,1.6-1.3,2.4-1.9.4-.3.9-.7,1.3-1,.8-.6,1.7-1.2,2.5-1.8.4-.3.9-.6,1.3-.9.7-.4,1.3-.9,2-1.3.5-.3,1-.6,1.5-.9.7-.4,1.3-.8,2-1.1.5-.3,1-.6,1.5-.8.7-.4,1.4-.7,2.1-1.1.5-.3,1-.5,1.5-.7.7-.3,1.5-.7,2.2-1,.5-.2,1-.4,1.4-.6.9-.4,1.8-.7,2.7-1.1.4-.1.7-.3,1.1-.4,1.3-.5,2.5-.9,3.8-1.3.3-.1.7-.2,1.1-.3.9-.3,1.9-.6,2.9-.8.5-.1,1-.2,1.5-.4.8-.2,1.7-.4,2.5-.6.5-.1,1.1-.2,1.6-.3.8-.2,1.6-.3,2.5-.4.5,0,1.1-.2,1.6-.3.8-.1,1.7-.2,2.6-.3.5,0,1.1-.1,1.6-.2.9,0,1.9-.2,2.8-.2.5,0,.9,0,1.4,0,1.4,0,2.8-.1,4.2-.1s2.9,0,4.3.1c.5,0,.9,0,1.4,0,1,0,1.9.1,2.8.2.6,0,1.1.1,1.7.2.9,0,1.7.2,2.5.3.6,0,1.2.2,1.7.3.8.1,1.6.3,2.4.4.6.1,1.2.2,1.8.4.8.2,1.6.3,2.3.5.6.1,1.2.3,1.8.5.8.2,1.5.4,2.3.6.6.2,1.1.3,1.7.5.8.2,1.5.5,2.2.8.6.2,1.1.4,1.7.6.8.3,1.5.6,2.3.9.5.2,1,.4,1.6.6.8.3,1.6.7,2.4,1.1.5.2.9.4,1.4.6,1,.5,2,1,2.9,1.5.2.1.5.2.7.4,1.2.6,2.3,1.3,3.5,2,.4.3.8.5,1.3.8.7.5,1.4.9,2.1,1.4.5.3,1,.7,1.4,1,.6.4,1.3.9,1.9,1.3.5.4,1,.7,1.5,1.1.6.4,1.2.9,1.7,1.3.5.4,1,.8,1.4,1.2.5.5,1.1.9,1.6,1.4.5.4,1,.9,1.4,1.3.5.5,1,1,1.5,1.4.5.5.9.9,1.4,1.4.5.5,1,1,1.4,1.5.4.5.9.9,1.3,1.4.5.5.9,1.1,1.4,1.6.4.5.8,1,1.2,1.5.4.5.9,1.1,1.3,1.7.4.5.8,1,1.2,1.5.5.6.9,1.2,1.3,1.9.5.8,1.1,1.5,1.6,2.3.5.8,1,1.6,1.5,2.4.3.6.7,1.1,1,1.7.3.6.7,1.2,1,1.8.3.6.6,1.2.9,1.8.3.6.6,1.2.9,1.8.3.6.6,1.3.9,1.9.3.6.6,1.2.8,1.8.3.6.5,1.3.8,1.9.2.6.5,1.2.7,1.8.2.7.5,1.3.7,2,.2.6.4,1.3.6,1.9.2.7.4,1.3.6,2,.2.6.4,1.3.5,1.9.2.7.4,1.4.5,2.1.2.7.3,1.3.5,2,.2.7.3,1.4.5,2.1.1.7.2,1.4.4,2.1.1.7.2,1.4.4,2.1,0,0,0,.1,0,.2,0,0,0,0,0,0,.6,4.2.9,8.4.9,12.8,0,48.4-39.3,87.7-87.7,87.7s-13.7-.8-20.1-2.3ZM329.5,297c6.1-.2,12.6.6,19.3,2.2,8.7,2.2,17.7,6,26.4,11.4-.7,1.6-1.3,3.2-1.9,4.8-8.5-5.4-17.3-9.1-25.7-11.2-7.5-1.9-14.8-2.5-21.5-1.8,1.1-1.8,2.3-3.6,3.5-5.4ZM309.8,329.1c9.3.4,18.4,1.5,27.3,3.5,9,2,17.9,5,26.6,9-.5,1.6-1.1,3.3-1.6,4.9-8.5-4-17.2-6.9-26.1-8.9-9.4-2.1-19.1-3.2-29.1-3.5.9-1.7,1.9-3.4,2.9-5ZM291.3,364.3c.5-1,.9-1.9,1.4-2.9,4.6,1.4,11.6,2.9,19.4,4.4,14.9,2.8,32.4,5.2,42.8,6.3-.4,1.7-.8,3.4-1.2,5-10.7-1.1-27.9-3.5-42.6-6.2-8.1-1.5-15.5-3.2-20.6-4.8.3-.6.5-1.1.8-1.7ZM279.8,391.9c6.6,4.1,18.1,6.9,30.3,8.4,14.5,1.8,29.9,1.6,39.8-.8-.2,1.8-.4,3.5-.6,5.3-10.6,2.1-25.7,2.3-39.8.5-12.2-1.5-23.7-4.4-31.3-8.7.5-1.6,1.1-3.2,1.7-4.9ZM364.5,439.9c-35.2,26.7-116.3,13.4-113.6-20.5,1.1-13.6,3.8-23.1,18.7-25.6,0,0-1.3,1.9-1.7,5.8.5.8.7,1.8.5,2.8-.4,3.9.9,7.3,3.6,10.3,6.8,6,23.5,12.5,42.3,13.2,15.1.5,35.4-2.3,40.3-13.2,2-4.4,1.2-11.3,1.9-11.3,18.7-1.4,27.1,24,7.9,38.5Z"/>
  <path class="st7" d="M393.1,937.5h-55.8s0,0,0,0c.9-7.4,1.1-14.9.9-22.3-.2-7.7-.9-15.6-2.3-23.2-2.5-13.4-7.7-27.4-18.6-36.2-1.2-1-2.4-1.9-3.7-2.7l-8-33.1c-3.3.7-6.7,1.4-10.1,2.2l7,28.9c-4.7-1.2-9.4-1-13.7.4-.6.2-1.2.4-1.9.7-.5.2-1,.4-1.5.7-.6.3-1.2.6-1.8.9-.3.2-.5.3-.8.5,0,0,0,0,0,0h0c-1.3-4.4-2.8-9.5-4.5-15.3-1.1-3.8-2.4-8-3.7-12.5-3.4.5-6.9,1-10.3,1.3,3.1,10.5,6.2,21,9.3,31.6-3.5,4.4-5.8,9.7-7.3,15.1,0,0,0,.2,0,.3-7.4-.8-15-1.3-22.5-1.7-8.3-.4-16.5-.7-24.8-1.1-7-.3-14-.5-21-.4-6.4.2-13.1.6-19.4,1.9,0,0,0,0,0,0h-.4c0,0-.2.1-.2.1h-.3c0,0-.3.1-.3.1h-.3c0,0-.3.1-.3.1h-.3c0,0-.6.2-.6.2-.2,0-.4.1-.6.2-.3,0-.7.2-1,.3-.3,0-.7.2-1,.3-.3,0-.7.2-1,.3-.3,0-.7.2-1,.3-.3.1-.7.2-1,.3-.3.1-.7.2-1,.3-.3.1-.7.2-1,.3-.3.1-.7.2-1,.3-.3.1-.7.2-1,.3-.3.1-.7.2-1,.4-.3.1-.7.2-1,.4-.3.1-.7.2-1,.4-.3.1-.7.3-1,.4-.3.1-.7.3-1,.4-.3.1-.7.3-1,.4-.3.1-.7.3-1,.4-.3.1-.7.3-1,.4-.3.1-.7.3-1,.4-.3.1-.7.3-1,.4-.3.2-.7.3-1,.5-.3.2-.7.3-1,.5-.3.2-.7.3-1,.5-.3.2-.7.3-1,.5-.3.2-.7.3-1,.5-.3.2-.7.3-1,.5-.3.2-.7.3-1,.5-.3.2-.6.4-1,.5-.3.2-.6.4-1,.6-.3.2-.6.4-1,.6-.3.2-.6.4-.9.6-.3.2-.6.4-.9.6-.3.2-.6.4-.9.6-.3.2-.6.4-.9.6-.3.2-.6.4-.9.6-.3.2-.6.4-.9.7-.3.2-.6.4-.9.7-.3.2-.6.5-.9.7-.3.2-.6.5-.9.7-.3.2-.6.5-.8.7-.3.2-.6.5-.8.7-.3.2-.5.5-.8.7-.3.3-.5.5-.8.8-.3.3-.5.5-.8.8-.3.3-.5.5-.8.8-.3.3-.5.5-.7.8-.2.3-.5.6-.7.8-.2.3-.5.6-.7.8-.2.3-.5.6-.7.9-.2.3-.5.6-.7.9-.2.3-.4.6-.7.9-.2.3-.4.6-.6.9-.2.3-.4.6-.6.9-.2.3-.4.6-.6,1-.2.3-.4.6-.6,1-.2.3-.4.7-.5,1-.2.3-.4.7-.5,1-.2.3-.3.7-.5,1-.2.3-.3.7-.5,1-.2.4-.3.7-.5,1.1-.1.4-.3.7-.4,1.1-.1.4-.3.7-.4,1.1-.1.4-.3.7-.4,1.1-.1.4-.2.8-.4,1.1-.1.4-.2.8-.3,1.2-1.6,5.8-3.1,11.7-4.7,17.5-.4,1.4-.4,2.8-.3,4.2H37c-2.7,0-4.9,2.2-4.9,4.9s2.2,4.9,4.9,4.9h356.2c2.7,0,4.9-2.2,4.9-4.9s-2.2-4.9-4.9-4.9ZM140.9,936.1h-13.1l4.7-17.5c4.7-17.5,21.8-27.8,45.8-34.2,8.2-2.2,21.2-2.6,34.8-2.2,1.4.5,2.9,1,4.2,1.4-20.6.7-37.6,6-50.4,14.1-15.1,9.6-24.2,23.2-26,37.8,0,.2,0,.4,0,.7ZM186.9,923.3c-.5,1-1,2-1.4,3-.2.4-.3.7-.4,1.1-.3.7-.6,1.5-.9,2.3-.2.4-.3.9-.4,1.4-.2.7-.4,1.5-.6,2.2-.1.5-.2,1-.4,1.5,0,.4-.2.9-.3,1.3h-33.4c1.6-12,9.3-23.3,22.1-31.5,13.4-8.5,32.3-13.7,55.5-12.8,3.4.1,6.9.4,10.6.8,1.6,1,3.1,2.1,4.6,3.3,0,0,0,0,0,0,.1.1.3.2.4.3.2.2.5.4.7.6.1.1.3.2.4.4,0,0,0,0,0,0,0,0,0,0,0,0-.7,0-1.4-.2-2.1-.2-.3,0-.6,0-.9,0-1.2,0-2.4-.1-3.7-.1-.3,0-.6,0-.8,0-1,0-2,0-2.9,0-.5,0-.9,0-1.4,0-.8,0-1.7.1-2.5.2-.5,0-1,.1-1.5.2-.8.1-1.7.2-2.5.4-.5,0-1,.2-1.5.3-.9.2-1.8.4-2.7.6-.4,0-.9.2-1.3.3-1.3.3-2.7.7-4,1.1-4.3,1.4-8.5,3.3-12.5,5.7-6.5,4.1-12.2,9.8-16.2,17.4,0,0,0,0,0,.1ZM260.7,936.1h-70.6c.8-3.3,1.9-6.2,3.3-8.9,5.2-10.1,14.5-16.2,24.3-19.4,10.1-3.3,20.9-3.5,28.9-1.8,2.1.4,3.9,1,5.5,1.6,1,1.7,1.9,3.5,2.8,5.5,0,0,0,0,0,0,0,0,0,.2.1.3.6,1.3,1.1,2.6,1.6,4,0,.2.1.4.2.5.5,1.4,1,2.9,1.4,4.5,0,.2,0,.3.1.5.4,1.6.8,3.3,1.2,5.1,0,.1,0,.2,0,.4.4,1.9.7,3.8,1,5.8,0,.6.1,1.3,0,1.9ZM326.7,936.1h-57.8c0-1,0-2-.2-3.1-1.6-11.1-4.5-21.6-10.2-30.7l.2-.4c-.2-.1-.5-.3-.7-.4-2.9-4.5-6.6-8.7-11.1-12.3-1.2-1-2.5-1.9-3.9-2.8-.4-.3-.9-.6-1.3-.8-.9-.6-1.8-1.1-2.8-1.7-.2-.1-.4-.2-.6-.3,0,0,0,0,0,0,0,0,0,0,0,0,0,0,.1,0,.2,0,.5,0,1,0,1.5.1.9,0,1.8.2,2.7.2.6,0,1.1.1,1.6.2.8,0,1.7.2,2.5.2.5,0,1,0,1.5.1,1.2.1,2.4.2,3.6.4,9.2,1,22.5,1.3,22.5,1.3l2.5-9.4c.4-1.4.8-2.7,1.2-4,.1-.4.3-.7.4-1.1.3-.8.6-1.7,1-2.4,0,0,0,0,0,0,.5-1,.9-1.9,1.4-2.8.2-.3.3-.5.5-.8.4-.6.7-1.1,1.1-1.6.2-.3.4-.5.6-.8.4-.5.8-.9,1.1-1.3.2-.2.4-.4.6-.6,0,0,.2-.2.3-.3.2-.2.4-.3.6-.5.4-.4.8-.7,1.3-1,.3-.2.6-.4.9-.6.4-.3.9-.5,1.3-.7.3-.1.6-.3,1-.4.4-.2.9-.3,1.4-.4.3,0,.7-.2,1-.2.5,0,.9-.1,1.4-.1.3,0,.7,0,1,0,.5,0,1,0,1.5.1.3,0,.6,0,.9.1.6.1,1.2.3,1.8.5.2,0,.4.1.6.2.8.3,1.7.7,2.5,1.1.2.1.4.2.6.3.6.4,1.3.7,1.9,1.2,0,0,.1,0,.2.1.2.1.4.3.5.4.7.5,1.3,1,2,1.6.3.3.6.5.9.8.6.6,1.2,1.2,1.8,1.8.3.3.6.6.8.9.7.8,1.4,1.7,2,2.5.1.2.3.4.4.5.8,1.1,1.6,2.3,2.3,3.5,0,0,.1.2.2.2.5.9,1.1,1.8,1.6,2.7,0,0,0,0,0,0,7.5,14,12.1,34.9,9.1,60Z"/>
  <path class="st7" d="M411.5,828.1c2.5,8.7,5,17.5,7.4,26.2,3,10.7,5.9,21.3,8.7,32-1.2.8-2.2,1.7-3.1,2.8-4.7,5.7-3.7,12.9-2.3,19.5,1,4.6,2.1,9.2,3,13.9-1,1.1-1.9,2.3-2.7,3.5-6.1,4.4-9.3,12-9.7,19.4,0,.2,0,.5,0,.7-.6,2-1.1,4.1-1.5,6.1-2.5,12,5.3,25.6,11.5,35.4,2.8,4.4,5.9,8.7,8.8,13,.3,1.2.8,2.4,1.5,3.5,15.5,23.7,36.4,47.3,62.9,58.7,16.7,7.2,34.8,9,52.4,4.1,9.5-2.7,17.9-8,23.7-16.1,3.8-5.3,6.2-11.2,7.2-17.6,1.5-9.3,0-18.9-3.5-27.6-7.7-19.7-24.4-36-41.5-47.9-15.8-15.4-32.9-29.6-50.5-43-.7-8.5-2.5-20.8-7-27.5-2.6-3.8-6.3-7.3-10.9-8.1l-7.7-38.4c.3-.2.7-.3,1-.5-.4,0-.9-.1-1.3-.2-15.5-4.3-30.3-12.3-46.3-11.9ZM419.5,946c.5-9.4,7-16.3,14.5-15.4,7.5.8,13.1,9.1,12.5,18.4-.5,9.4-7,16.3-14.5,15.4-7.5-.8-13.1-9.1-12.5-18.4ZM510.6,1057.1c-1.7-.4-3.4-1-5.2-1.6,0,0,0,0,0,0-.3-.1-.7-.2-1-.4-.7-.2-1.3-.5-2-.7-.5-.2-1-.4-1.6-.6-.7-.3-1.3-.6-2-.9-.5-.2-1-.5-1.6-.7-.7-.3-1.4-.7-2.1-1-.5-.3-1-.5-1.6-.8-.7-.4-1.4-.8-2.1-1.2-.5-.3-1-.6-1.5-.9-.8-.4-1.5-.9-2.3-1.4-.5-.3-.9-.6-1.4-.9-.9-.6-1.9-1.3-2.8-1.9-.3-.2-.6-.4-1-.7-1.3-.9-2.5-1.8-3.8-2.8-.4-.3-.7-.6-1.1-.9-.9-.7-1.9-1.5-2.8-2.3-.5-.4-1-.8-1.4-1.3-.8-.7-1.6-1.4-2.4-2.2-.5-.5-1.1-1-1.6-1.5-.8-.7-1.5-1.5-2.3-2.2-.6-.6-1.1-1.1-1.7-1.7-.8-.8-1.5-1.6-2.3-2.4-.6-.6-1.1-1.2-1.7-1.8-.8-.8-1.5-1.7-2.3-2.6-.6-.6-1.1-1.3-1.7-2-.8-.9-1.5-1.8-2.3-2.8-.6-.7-1.1-1.4-1.7-2.1-.8-1-1.6-2.1-2.4-3.1-.5-.7-1.1-1.4-1.6-2.1-.9-1.2-1.8-2.4-2.7-3.7-.4-.6-.9-1.2-1.3-1.9-1.3-1.9-2.7-3.9-4-5.9.1-.2.3-.4.4-.5.5-.6,1-1.1,1.5-1.7.8-1,1.7-1.9,2.6-2.9.6-.7,1.3-1.3,1.9-1.9.9-.9,1.7-1.7,2.6-2.6.7-.6,1.4-1.3,2.1-1.9.9-.8,1.7-1.6,2.6-2.4.7-.6,1.5-1.2,2.2-1.8.9-.7,1.8-1.4,2.7-2.1.2-.2.5-.4.7-.6,0,0,0,0,0,0,2.5-1.9,5.1-3.6,7.7-5.3,7.9,5.2,25.6,23.1,36,43.9,6.3,12.7,9.7,26.3,6.1,38.3ZM547.9,1056.2c-.8.3-1.6.6-2.5.8-1.2.3-2.4.6-3.6.9,0,0,0,0,0,0-.2,0-.3,0-.5,0-.5,0-.9.2-1.4.3-.4,0-.8.1-1.1.2-.5,0-1,.2-1.5.2-.4,0-.8.1-1.2.2-.5,0-1.1.1-1.6.2-.4,0-.7,0-1.1.1-.6,0-1.3,0-1.9.1-.3,0-.6,0-.9,0-.9,0-1.9,0-2.9,0-.2,0-.4,0-.6,0-.8,0-1.5,0-2.3,0-.4,0-.7,0-1.1,0-.6,0-1.3,0-2-.1-.4,0-.8,0-1.3-.1-.6,0-1.3-.1-1.9-.2-.1,0-.3,0-.4,0,0,0,0,0,0,0,0,0,0,0,0,0,0-.2,0-.3.1-.5,0-.1,0-.3,0-.4.2-.6.3-1.2.4-1.8,0-.4.2-.7.2-1.1.1-.6.2-1.1.3-1.7,0-.3.1-.7.1-1,0-.7.1-1.4.2-2,0-.2,0-.5,0-.7,0-.9,0-1.8,0-2.7,0-.2,0-.4,0-.6,0-.7,0-1.5,0-2.2,0-.3,0-.7,0-1,0-.6,0-1.2-.1-1.8,0-.4,0-.7-.1-1.1,0-.6-.1-1.1-.2-1.7,0-.4-.1-.8-.2-1.2,0-.5-.2-1.1-.3-1.6,0-.4-.2-.8-.3-1.2-.1-.5-.2-1-.4-1.6-.1-.4-.2-.8-.3-1.2-.1-.5-.3-1-.4-1.6-.1-.4-.2-.8-.4-1.2-.2-.5-.3-1-.5-1.6-.1-.4-.3-.8-.4-1.2-.2-.5-.4-1.1-.6-1.6-.1-.4-.3-.8-.4-1.1-.2-.5-.4-1.1-.7-1.6-.1-.4-.3-.7-.4-1.1-.3-.6-.5-1.2-.8-1.8-.1-.3-.3-.6-.4-.9-.4-.9-.8-1.8-1.3-2.7-.7-1.3-1.4-2.6-2.1-3.9-.2-.4-.5-.8-.7-1.3-.5-.9-1-1.7-1.5-2.6-.3-.5-.6-1-.9-1.5-.5-.8-1-1.6-1.5-2.3-.3-.5-.6-1-1-1.5-.5-.8-1-1.5-1.5-2.3-.3-.5-.6-.9-1-1.4-.5-.8-1.1-1.5-1.7-2.3-.3-.4-.6-.8-.9-1.2-.7-.9-1.3-1.8-2-2.6-.2-.2-.4-.5-.6-.7-.9-1.1-1.8-2.2-2.6-3.2-.2-.2-.4-.5-.6-.7-.7-.8-1.4-1.6-2-2.4-.3-.3-.6-.7-.9-1-.6-.6-1.1-1.3-1.7-1.9-.3-.4-.7-.7-1-1-.5-.6-1.1-1.1-1.6-1.7-.3-.3-.6-.7-1-1-.5-.5-1-1.1-1.6-1.6-.3-.3-.6-.6-.9-.8-.6-.5-1.1-1-1.6-1.5-.2-.2-.5-.4-.7-.6-1.4-1.3-2.8-2.5-4-3.4,0,0,0,0,0,0,0,0,0,0,0,0,.8-.4,1.5-.7,2.3-1,.7-.3,1.5-.7,2.2-1,1.1-.5,2.2-.8,3.3-1.2.7-.3,1.4-.5,2.1-.8,1.3-.4,2.6-.8,3.9-1.2.5-.1,1-.3,1.5-.4,1.8-.5,3.7-.9,5.5-1.2,0,0,0,0,0,0,1.6-.3,3.2-.5,4.8-.6,10.1,6.4,29.4,26.2,39.9,47.1,7.2,14.5,11,30.7,6.4,45.7ZM520.4,964c2.3.4,4.6.9,6.9,1.5,45,31.1,50,66,33.2,82.9,0,0,0,0,0,0,0,0,0,0,0,0-1,1-2.1,1.9-3.2,2.8-.1,0-.2.2-.3.3,0,0,0,0,0,0,0,0,0,0,0,0,0-.2,0-.4,0-.6.2-1.2.3-2.4.4-3.6,0-.3,0-.6,0-.9.1-1.5.1-3,.1-4.4,0-.3,0-.6,0-1,0-1.3,0-2.6-.2-3.9,0-.2,0-.5,0-.7-.1-1.5-.3-3-.6-4.4,0-.3-.1-.7-.2-1-.2-1.3-.5-2.7-.8-4,0-.2,0-.4-.1-.6-.4-1.5-.8-2.9-1.2-4.4-.1-.3-.2-.7-.3-1-.4-1.4-.9-2.7-1.4-4.1,0-.1,0-.2-.1-.3-.5-1.4-1.1-2.9-1.7-4.3-.1-.3-.3-.7-.4-1-.6-1.4-1.3-2.8-2-4.2-.7-1.4-1.4-2.8-2.2-4.1-.2-.4-.5-.8-.7-1.3-.5-.9-1.1-1.9-1.6-2.8-.3-.4-.5-.9-.8-1.3-.6-1-1.2-1.9-1.8-2.8-.2-.3-.4-.7-.7-1-.8-1.3-1.7-2.5-2.6-3.7-.2-.3-.4-.5-.6-.8-.7-1-1.4-1.9-2.1-2.8-.3-.4-.6-.8-.9-1.2-.6-.8-1.2-1.6-1.9-2.3-.3-.4-.6-.8-.9-1.1-.7-.9-1.5-1.8-2.2-2.6-.2-.2-.4-.4-.5-.6-.9-1-1.8-2-2.7-3-.3-.3-.5-.6-.8-.9-.7-.7-1.3-1.4-2-2-.3-.3-.6-.6-1-1-.6-.6-1.2-1.2-1.9-1.8-.3-.3-.6-.5-.9-.8-.9-.8-1.7-1.6-2.6-2.3,0,0-.1-.1-.2-.2-.8-.7-1.6-1.3-2.3-1.9-.3-.2-.5-.4-.8-.6-.3-.2-.6-.5-.9-.7,0,0,0,0,0,0,0,0,0,0,0,0,.5,0,1,0,1.5.1.4,0,.8,0,1.2,0,1.6.2,3.3.4,4.9.6,0,0,0,0,0,0ZM461.3,891.1s.8-2,2.5-1.9c0,0,0,0,0,0,0,0,0,0,0,0,.2,0,.4,0,.6.1,0,0,0,0,.1,0,.2,0,.4.2.6.3,0,0,0,0,.1,0,0,0,.2.1.2.2,0,0,.2.1.3.2.1.1.3.3.4.4,0,0,.2.2.3.3.2.2.3.4.5.6,0,.1.2.2.3.3.3.3.5.7.8,1.1,4.7,7.1,5.6,27.2,5.6,27.2.5.4,1.1.8,1.6,1.2.1.1.3.2.4.3.4.3.9.7,1.3,1,.2.2.4.3.7.5.5.3.9.7,1.4,1.1.2.1.4.3.6.4,1.4,1.1,2.8,2.2,4.4,3.4.2.1.4.3.6.5.6.5,1.2.9,1.8,1.4.3.2.5.4.8.6.6.5,1.2,1,1.8,1.5.2.2.4.4.7.5,1.7,1.4,3.5,2.8,5.3,4.3.2.2.4.4.7.5.7.6,1.4,1.1,2.1,1.7.3.2.6.5.9.7.7.6,1.4,1.1,2.1,1.7.3.2.5.4.8.7,1.9,1.6,3.8,3.2,5.7,4.9.3.2.6.5.9.7.7.6,1.4,1.2,2.1,1.8.3.3.6.6,1,.8.7.6,1.4,1.2,2.1,1.9.3.3.6.5.9.8,1,.9,1.9,1.7,2.9,2.6,0,0,0,0,0,0,0,0,0,0,0,0-.2,0-.3,0-.5,0-1.4-.1-2.8-.3-4.2-.3,0,0-.2,0-.2,0-1.3,0-2.6,0-4,0-27.4.2-52.2,14.9-70.7,36.1-5.5-8.1-11.9-17.6-14.9-25.9,2.6,2.4,5.7,3.9,9,4.3,9.8,1.1,18.3-8,19-20.3.7-11.5-5.8-21.8-14.6-23.9-2.7-19.5-9.9-31.6,1.3-31.6,4.9,0,10.8,29.8,10.8,29.8l18.7-4.9-5.6-27.8ZM454.1,914.3c-.7-2.7-1.4-5.4-2.1-8-.7-2.6-1.7-6-3-9.3-.3-.6-.5-1.2-.8-1.8,0-.1-.1-.2-.2-.3-.2-.5-.5-1-.7-1.4-.1-.2-.2-.4-.3-.6-.2-.4-.5-.7-.7-1.1-.1-.2-.3-.4-.4-.6-.3-.3-.5-.7-.8-1-.1-.2-.3-.3-.4-.5-.3-.4-.7-.7-1.1-1.1,0,0-.1-.1-.2-.2-.5-.4-.9-.7-1.4-1-.1,0-.3-.1-.4-.2-.4-.2-.8-.4-1.2-.5-.2,0-.4-.1-.6-.2-.4,0-.8-.2-1.2-.2-.1,0-.2,0-.4,0,0,0,0-.2,0-.3-.8-3.2-1.7-6.7-2.7-10.5,0-.2,0-.4-.1-.5-1-3.8-2.1-7.9-3.3-12.3,0,0,0-.2,0-.2-.6-2.2-1.2-4.4-1.8-6.7,0-.2-.1-.4-.2-.6-1.3-4.6-2.6-9.6-4.1-14.8,0-.2-.1-.4-.2-.6-.7-2.5-1.5-5.2-2.2-7.9,0-.1,0-.2-.1-.4.1,0,.2,0,.3.1,2.9,1.4,5.8,2.7,8.8,4.1,4.4,2.1,9,4.2,13.7,6.4.7.3,1.4.5,2,.7l8.4,41.8c-1,1-1.8,2.3-2.3,3.6-.6,1.4-.7,2.8-.4,4.3l4.1,20.6-3.8,1Z"/>
  <path class="st2" d="M283.3,829.1c2.5,8.6,4.7,15.8,6.5,21.9-.3,0-.6.2-.9.3,4.3-1.4,9-1.5,13.7-.4l-6.1-25.3c-4.4,1.3-8.7,2.4-13.2,3.5Z"/>
  <path class="st2" d="M283.8,853.6c-.3.2-.5.3-.8.4,0,0,0,0,0,0,.3-.2.5-.3.8-.5Z"/>
  <path class="st2" d="M287,852c-.5.2-1,.4-1.5.7.5-.2,1-.5,1.5-.7Z"/>
  <path class="st13" d="M251,419.4c-2.7,33.9,78.4,47.3,113.6,20.5,19.1-14.5,10.7-39.9-7.9-38.5-.7,0,.1,6.9-1.9,11.3-4.9,10.9-25.2,13.7-40.3,13.2-18.8-.7-35.5-7.1-42.3-13.2,13.8,15.7,62.9,18.8,79.7,6.9l1.9-1.3c-9.3,20.7-95.9,20.8-93.5-17.3.4-2.3,2.5-3.8,4.8-3.4,1.3.2,2.3,1,2.9,2,.3-3.9,1.7-5.8,1.7-5.8-14.8,2.5-17.6,12-18.7,25.6ZM362.1,431.5c-2.7,0-4.9-2.4-4.8-5.1,0-2.7,2.4-4.9,5.1-4.8,2.7,0,4.9,2.4,4.8,5.1,0,2.7-2.4,4.9-5.1,4.8ZM344.7,431.7c2.7,0,4.9,2.4,4.8,5.1,0,2.7-2.4,4.9-5.1,4.8-2.7,0-4.9-2.4-4.8-5.1,0-2.7,2.4-4.9,5.1-4.8ZM323.1,436.3c2.7,0,4.9,2.4,4.8,5.1,0,2.7-2.4,4.9-5.1,4.8-2.7,0-4.9-2.4-4.8-5.1,0-2.7,2.4-4.9,5.1-4.8ZM299.9,434.5c2.7,0,4.9,2.4,4.8,5.1,0,2.7-2.4,4.9-5.1,4.8-2.7,0-4.9-2.4-4.8-5.1,0-2.7,2.4-4.9,5.1-4.8ZM278.7,437.9c-2.7,0-4.9-2.4-4.8-5.1,0-2.7,2.4-4.9,5.1-4.8,2.7,0,4.9,2.4,4.8,5.1,0,2.7-2.4,4.9-5.1,4.8ZM267.2,422.6c0,2.7-2.4,4.9-5.1,4.8-2.7,0-4.9-2.4-4.8-5.1,0-2.7,2.4-4.9,5.1-4.8,2.7,0,4.9,2.4,4.8,5.1Z"/>
  <path class="st9" d="M305.4,99c.5-.3,1-.6,1.5-.8-.5.3-1,.5-1.5.8Z"/>
  <path class="st9" d="M403.1,107.5c.5.4,1,.8,1.4,1.2-.5-.4-1-.8-1.4-1.2Z"/>
  <path class="st9" d="M380.8,94.4c.5.2,1,.4,1.6.6-.5-.2-1-.4-1.6-.6Z"/>
  <path class="st9" d="M337.9,88.6c.5,0,1.1-.1,1.6-.2-.5,0-1.1.1-1.6.2Z"/>
  <path class="st9" d="M333.7,89.1c.5,0,1.1-.2,1.6-.3-.5,0-1.1.2-1.6.3Z"/>
  <path class="st9" d="M431.3,148.5c.2.7.4,1.3.6,2-.2-.7-.4-1.4-.6-2Z"/>
  <path class="st9" d="M432.5,152.4c.2.7.4,1.4.5,2.1-.2-.7-.4-1.4-.5-2.1Z"/>
  <path class="st9" d="M384.8,96.1c.5.2.9.4,1.4.6-.4-.2-.9-.4-1.4-.6Z"/>
  <path class="st9" d="M309,97.1c.5-.3,1-.5,1.5-.7-.5.2-1,.5-1.5.7Z"/>
  <path class="st9" d="M373,91.6c.6.2,1.1.3,1.7.5-.6-.2-1.1-.4-1.7-.5Z"/>
  <path class="st9" d="M409.1,112.9c.5.5.9.9,1.4,1.4-.5-.5-.9-.9-1.4-1.4Z"/>
  <path class="st9" d="M399.9,105.1c.5.4,1,.7,1.5,1.1-.5-.4-1-.8-1.5-1.1Z"/>
  <path class="st9" d="M325.6,90.8c.5-.1,1-.2,1.5-.4-.5.1-1,.2-1.5.4Z"/>
  <path class="st9" d="M321.7,92c.3-.1.7-.2,1-.3-.3.1-.7.2-1,.3Z"/>
  <path class="st9" d="M376.9,92.9c.6.2,1.1.4,1.7.6-.5-.2-1.1-.4-1.7-.6Z"/>
  <path class="st9" d="M316.8,93.7c.4-.1.7-.3,1.1-.4-.4.1-.7.3-1.1.4Z"/>
  <path class="st9" d="M356.5,88.4c.6,0,1.1.1,1.7.2-.6,0-1.1-.1-1.7-.2Z"/>
  <path class="st9" d="M329.6,89.9c.5-.1,1.1-.2,1.6-.3-.5.1-1.1.2-1.6.3Z"/>
  <path class="st9" d="M285.2,114.4c.4-.5.9-.9,1.3-1.3-.5.4-.9.9-1.3,1.3Z"/>
  <path class="st9" d="M396.6,102.8c.5.3,1,.7,1.4,1-.5-.3-.9-.7-1.4-1Z"/>
  <path class="st9" d="M406.2,110.1c.5.4,1,.9,1.4,1.3-.5-.4-.9-.9-1.4-1.3Z"/>
  <path class="st9" d="M433.5,156.5c.2.7.3,1.4.5,2.1-.1-.7-.3-1.4-.5-2.1Z"/>
  <path class="st9" d="M312.7,95.3c.5-.2,1-.4,1.4-.6-.5.2-1,.4-1.4.6Z"/>
  <path class="st9" d="M282.5,117.3c.4-.5.9-.9,1.3-1.4-.4.5-.9.9-1.3,1.4Z"/>
  <path class="st9" d="M434.3,160.6c.1.7.2,1.4.4,2.1-.1-.7-.2-1.4-.4-2.1Z"/>
  <path class="st9" d="M385.3,223.9c-1.4,2.9-3.4,5.4-5.8,7.4,0,0,0,0,0,0-3.3,8.3-16.6,14.9-24.3,18.5-8.8,4.2-18.1,7.8-27.4,11.1,6.5,1.5,13.2,2.3,20.1,2.3,48.4,0,87.7-39.3,87.7-87.7s-.3-8.6-.9-12.8c-6,27.2-24.6,49.7-49.3,61Z"/>
  <path class="st9" d="M428.4,140.8c.3.6.5,1.3.8,1.9-.3-.7-.5-1.3-.8-1.9Z"/>
  <path class="st9" d="M360.7,88.9c.6,0,1.2.2,1.7.3-.6,0-1.2-.2-1.7-.3Z"/>
  <path class="st9" d="M294.8,105.9c.4-.3.9-.7,1.3-1-.4.3-.9.7-1.3,1Z"/>
  <path class="st9" d="M417.2,121.9c.4.5.8,1,1.2,1.5-.4-.5-.8-1-1.2-1.5Z"/>
  <path class="st9" d="M364.9,89.6c.6.1,1.2.2,1.8.4-.6-.1-1.2-.3-1.8-.4Z"/>
  <path class="st9" d="M369,90.5c.6.1,1.2.3,1.8.5-.6-.2-1.2-.3-1.8-.5Z"/>
  <path class="st9" d="M419.7,125.3c.5.8,1.1,1.5,1.6,2.3-.5-.8-1-1.5-1.6-2.3Z"/>
  <path class="st9" d="M424.8,133.5c.3.6.6,1.2.9,1.8-.3-.6-.6-1.2-.9-1.8Z"/>
  <path class="st9" d="M422.8,130c.3.6.7,1.1,1,1.7-.3-.6-.6-1.1-1-1.7Z"/>
  <path class="st9" d="M414.6,118.8c.4.5.8,1,1.2,1.5-.4-.5-.8-1-1.2-1.5Z"/>
  <path class="st9" d="M302,101c.5-.3,1-.6,1.5-.9-.5.3-1,.6-1.5.9Z"/>
  <path class="st9" d="M291.1,108.9c.4-.4.9-.7,1.3-1.1-.4.4-.9.7-1.3,1.1Z"/>
  <path class="st9" d="M342.3,88.2c.5,0,.9,0,1.4,0-.5,0-.9,0-1.4,0Z"/>
  <path class="st9" d="M393.2,100.6c.4.3.8.5,1.3.8-.4-.3-.8-.5-1.3-.8Z"/>
  <path class="st9" d="M352.2,88.1c.5,0,.9,0,1.4,0-.5,0-.9,0-1.4,0Z"/>
  <path class="st9" d="M298.6,103.1c.4-.3.9-.6,1.3-.9-.4.3-.9.6-1.3.9Z"/>
  <path class="st9" d="M389.1,98.2c.2.1.5.2.7.4-.2-.1-.5-.2-.7-.4Z"/>
  <path class="st9" d="M288.1,111.6c.4-.4.9-.8,1.3-1.2-.5.4-.9.8-1.3,1.2Z"/>
  <path class="st9" d="M411.9,115.8c.4.5.9.9,1.3,1.4-.4-.5-.9-1-1.3-1.4Z"/>
  <path class="st9" d="M426.7,137.1c.3.6.6,1.3.9,1.9-.3-.6-.6-1.3-.9-1.9Z"/>
  <path class="st9" d="M429.9,144.6c.2.7.5,1.3.7,2-.2-.7-.5-1.3-.7-2Z"/>
  <path class="st13" d="M283.8,115.9c-.4.5-.9.9-1.3,1.4-.2.2-.4.4-.6.7,2.4-.4,4.8-.8,5.7-.8,29.6-.9,69,12.3,83.1,28.2,12.1,13.6,1,35.8-15.3,47.7,0,0,0,0,0,0,2.9-1.3,6-2,9.4-2,12.6,0,22.8,10.2,22.8,22.8s-.9,7.1-2.4,10.1c24.8-11.3,43.4-33.8,49.3-61,0,0,0,0,0,0,0,0,0-.1,0-.2-.1-.7-.2-1.4-.4-2.1-.1-.7-.2-1.4-.4-2.1-.1-.7-.3-1.4-.5-2.1-.1-.7-.3-1.3-.5-2-.2-.7-.4-1.4-.5-2.1-.2-.6-.4-1.3-.5-1.9-.2-.7-.4-1.4-.6-2-.2-.6-.4-1.3-.6-1.9-.2-.7-.5-1.3-.7-2-.2-.6-.5-1.2-.7-1.8-.3-.7-.5-1.3-.8-1.9-.3-.6-.5-1.2-.8-1.8-.3-.6-.6-1.3-.9-1.9-.3-.6-.6-1.2-.9-1.8-.3-.6-.6-1.2-.9-1.8-.3-.6-.7-1.2-1-1.8-.3-.6-.6-1.1-1-1.7-.5-.8-1-1.6-1.5-2.4-.5-.8-1-1.5-1.6-2.3-.4-.6-.9-1.3-1.3-1.9-.4-.5-.8-1-1.2-1.5-.4-.6-.9-1.1-1.3-1.7-.4-.5-.8-1-1.2-1.5-.5-.5-.9-1.1-1.4-1.6-.4-.5-.9-1-1.3-1.4-.5-.5-1-1-1.4-1.5-.5-.5-.9-.9-1.4-1.4-.5-.5-1-1-1.5-1.4-.5-.4-.9-.9-1.4-1.3-.5-.5-1.1-.9-1.6-1.4-.5-.4-1-.8-1.4-1.2-.6-.5-1.1-.9-1.7-1.3-.5-.4-1-.8-1.5-1.1-.6-.5-1.2-.9-1.9-1.3-.5-.3-.9-.7-1.4-1-.7-.5-1.4-.9-2.1-1.4-.4-.3-.8-.5-1.3-.8-1.1-.7-2.3-1.4-3.5-2-.2-.1-.5-.2-.7-.4-1-.5-1.9-1-2.9-1.5-.4-.2-.9-.4-1.4-.6-.8-.4-1.6-.7-2.4-1.1-.5-.2-1-.4-1.6-.6-.7-.3-1.5-.6-2.3-.9-.5-.2-1.1-.4-1.7-.6-.7-.3-1.5-.5-2.2-.8-.6-.2-1.1-.4-1.7-.5-.8-.2-1.5-.4-2.3-.6-.6-.2-1.2-.3-1.8-.5-.8-.2-1.5-.4-2.3-.5-.6-.1-1.2-.3-1.8-.4-.8-.2-1.6-.3-2.4-.4-.6,0-1.2-.2-1.7-.3-.8-.1-1.7-.2-2.5-.3-.6,0-1.1-.1-1.7-.2-.9,0-1.9-.2-2.8-.2-.5,0-.9,0-1.4,0-1.4,0-2.9-.1-4.3-.1s-2.8,0-4.2.1c-.5,0-.9,0-1.4,0-.9,0-1.9.1-2.8.2-.5,0-1.1.1-1.6.2-.9,0-1.7.2-2.6.3-.5,0-1.1.2-1.6.3-.8.1-1.7.3-2.5.4-.5.1-1.1.2-1.6.3-.8.2-1.7.4-2.5.6-.5.1-1,.2-1.5.4-1,.3-1.9.5-2.9.8-.3.1-.7.2-1,.3-1.3.4-2.5.8-3.8,1.3-.4.1-.7.3-1.1.4-.9.3-1.8.7-2.7,1.1-.5.2-1,.4-1.4.6-.7.3-1.5.7-2.2,1-.5.2-1,.5-1.5.7-.7.3-1.4.7-2.1,1.1-.5.3-1,.5-1.5.8-.7.4-1.3.8-2,1.1-.5.3-1,.6-1.5.9-.7.4-1.3.9-2,1.3-.4.3-.9.6-1.3.9-.8.6-1.7,1.2-2.5,1.8-.4.3-.9.7-1.3,1-.8.6-1.6,1.2-2.4,1.9-.4.4-.9.7-1.3,1.1-.6.5-1.1,1-1.7,1.5-.5.4-.9.8-1.3,1.2-.5.5-1,1-1.5,1.4-.5.4-.9.9-1.3,1.3-.5.5-.9,1-1.4,1.5ZM365.2,92.7c39.1,9.4,61.8,39.3,64.7,78.7,0,4.8-4,8.7-8.8,8.6-4.8,0-8.7-4-8.6-8.8-.1-37.8-22.2-62.1-57.2-73.9-20.2-6.8,4.9,2.4-16.1-5.5,11.7-1.9,14-2,26,.9Z"/>
  <path class="st13" d="M242.8,884.1c.6,0,1.1.1,1.6.2-.5,0-1.1-.1-1.6-.2Z"/>
  <path class="st13" d="M243,886.5c-.4-.3-.9-.6-1.3-.8.4.3.9.5,1.3.8Z"/>
  <path class="st13" d="M278.6,871.9c.3-.8.6-1.7,1-2.4-.3.7-.7,1.6-1,2.4Z"/>
  <path class="st13" d="M246.9,884.5c.5,0,1,0,1.5.1-.5,0-1,0-1.5-.1Z"/>
  <path class="st13" d="M238.3,883.7c.2.1.4.2.6.3-.2,0-.3-.2-.5-.3,0,0,0,0,0,0Z"/>
  <path class="st13" d="M276.9,876.9c.4-1.4.8-2.7,1.2-4-.4,1.2-.8,2.6-1.2,4Z"/>
  <path class="st13" d="M306.2,865.8c-6.6-3.4-13.4-2.5-18.6,3.7-2,2.4-3.8,5.5-5.2,9.5-.5,1.4-1,2.8-1.4,4.4l-2.5,9.4s-13.2-.3-22.5-1.3c-2.3-.2-4.8-.5-7.4-.7-.6-.5-1.2-1-1.8-1.5,4.6,3.6,8.2,7.8,11.1,12.3.2.1.5.3.7.4l-.2.4c5.7,9.1,8.6,19.6,10.2,30.7.1,1,.2,2,.2,3.1h57.8c3-25.1-1.6-46-9.1-60-.4-.6-.9-1.2-1.3-1.7-3.2-3.9-6.6-6.9-10-8.6ZM300,925.5c-11.8,1.3-22.5-7.1-23.8-19-1.3-11.8,7.1-22.5,19-23.8,11.8-1.3,22.5,7.1,23.8,19,1.3,11.8-7.1,22.5-19,23.8Z"/>
  <path class="st13" d="M238.5,883.7c.5,0,1,0,1.5.1-.5,0-1,0-1.5-.1Z"/>
  <path class="st13" d="M284.3,862.2c.2-.2.4-.4.6-.6-.2.2-.4.4-.6.6Z"/>
  <path class="st13" d="M282.6,864.2c.2-.3.4-.5.6-.8-.2.3-.4.5-.6.8Z"/>
  <path class="st13" d="M311.1,866.6c.7.8,1.4,1.7,2,2.5-.7-.9-1.4-1.7-2-2.5Z"/>
  <path class="st13" d="M313.5,869.7c.8,1.1,1.6,2.3,2.3,3.5-.8-1.2-1.5-2.4-2.3-3.5Z"/>
  <path class="st13" d="M305.6,861.5c.7.5,1.3,1,2,1.6-.6-.6-1.3-1.1-2-1.6Z"/>
  <path class="st13" d="M281,866.7c.2-.3.3-.5.5-.8-.2.3-.3.5-.5.8Z"/>
  <path class="st13" d="M308.5,863.9c.6.6,1.2,1.2,1.8,1.8-.6-.6-1.2-1.2-1.8-1.8Z"/>
  <path class="st13" d="M292.6,857.5c.5,0,.9-.1,1.4-.1-.5,0-1,0-1.4.1Z"/>
  <path class="st13" d="M303,859.8c.6.4,1.3.7,1.9,1.2-.6-.4-1.3-.8-1.9-1.2Z"/>
  <path class="st13" d="M295,857.3c.5,0,1,0,1.5.1-.5,0-1-.1-1.5-.1Z"/>
  <path class="st13" d="M300,858.3c.8.3,1.7.7,2.5,1.1-.8-.4-1.7-.8-2.5-1.1Z"/>
  <path class="st13" d="M290.3,858.1c.4-.2.9-.3,1.4-.4-.5.1-.9.2-1.4.4Z"/>
  <path class="st13" d="M288,859.2c.4-.3.9-.5,1.3-.7-.4.2-.9.4-1.3.7Z"/>
  <path class="st13" d="M285.8,860.8c.4-.4.8-.7,1.3-1-.4.3-.9.6-1.3,1Z"/>
  <path class="st13" d="M297.5,857.6c.6.1,1.2.3,1.8.5-.6-.2-1.2-.4-1.8-.5Z"/>
  <path class="st10" d="M243.5,897.3s0,0,0,0c-.7,0-1.4-.1-2.1-.2.7,0,1.4.1,2.1.2Z"/>
  <path class="st10" d="M231.7,897c-.8,0-1.7.1-2.5.2.9,0,1.7-.2,2.5-.2Z"/>
  <path class="st10" d="M183.8,931.1c-.2.7-.4,1.5-.6,2.2.2-.8.4-1.5.6-2.2Z"/>
  <path class="st10" d="M227.2,915.2c9.6-3.1,19.8-3.4,27.7-2-.9-2-1.8-3.8-2.8-5.5-1.6-.6-3.4-1.2-5.5-1.6-8-1.7-18.8-1.5-28.9,1.8-9.9,3.2-19.1,9.3-24.3,19.4-1.4,2.7-2.5,5.6-3.3,8.9h12.1c.2-.5.5-1,.8-1.5,5.2-10.1,14.5-16.2,24.3-19.4Z"/>
  <path class="st10" d="M185.1,927.4c-.3.7-.6,1.5-.9,2.3.3-.8.6-1.5.9-2.3Z"/>
  <path class="st10" d="M140.9,935.5c1.8-14.5,10.8-28.1,26-37.8,12.7-8.1,29.8-13.4,50.4-14.1-1.4-.5-2.8-1-4.2-1.4-13.6-.4-26.5,0-34.8,2.2-24,6.4-41.1,16.7-45.8,34.2l-4.7,17.5h13.1c0-.2,0-.5,0-.7Z"/>
  <path class="st10" d="M259.6,928.5c.4,1.9.7,3.8,1,5.8-.3-2-.6-4-1-5.8Z"/>
  <path class="st10" d="M186.9,923.3c-.5,1-1,2-1.4,3,.4-1,.9-2.1,1.4-3Z"/>
  <path class="st10" d="M181.3,908.4c13.4-8.5,32.3-13.7,55.5-12.8,1.7,0,3.4.2,5.1.3-1.5-1.2-3-2.3-4.6-3.3-3.7-.4-7.2-.7-10.6-.8-23.2-.9-42.1,4.2-55.5,12.8-12.9,8.2-20.6,19.5-22.1,31.5h10.8c2.6-10.6,10-20.4,21.5-27.7Z"/>
  <path class="st10" d="M242.4,896.3c.2.2.5.4.7.6-.2-.2-.5-.4-.7-.6Z"/>
  <path class="st10" d="M236.8,896.8c1.2,0,2.5,0,3.7.1-1.2,0-2.4-.1-3.7-.1Z"/>
  <path class="st10" d="M255,913.4c.6,1.3,1.1,2.6,1.6,4-.5-1.4-1-2.8-1.6-4Z"/>
  <path class="st10" d="M258.3,923c.4,1.6.8,3.3,1.2,5.1-.4-1.8-.8-3.5-1.2-5.1Z"/>
  <path class="st10" d="M256.8,918c.5,1.4,1,2.9,1.4,4.5-.4-1.6-.9-3.1-1.4-4.5Z"/>
  <path class="st10" d="M182.6,936.1c0-.4.2-.9.3-1.3,0,.4-.2.9-.3,1.3h0Z"/>
  <path class="st10" d="M227.6,897.4c-.8.1-1.7.2-2.5.4.8-.1,1.7-.3,2.5-.4Z"/>
  <path class="st10" d="M219.6,898.8c-1.3.3-2.7.7-4,1.1,1.3-.4,2.6-.8,4-1.1Z"/>
  <path class="st10" d="M223.6,898c-.9.2-1.8.4-2.7.6.9-.2,1.8-.4,2.7-.6Z"/>
  <path class="st10" d="M236,896.8c-1,0-2,0-2.9,0,1,0,2,0,2.9,0Z"/>
  <path class="st2" d="M259.6,928.5c0-.1,0-.2,0-.4-.4-1.8-.8-3.5-1.2-5.1,0-.2,0-.3-.1-.5-.4-1.6-.9-3.1-1.4-4.5,0-.2-.1-.4-.2-.5-.5-1.4-1-2.8-1.6-4,0,0,0-.2-.1-.3,0,0,0,0,0,0-7.9-1.4-18.1-1.1-27.7,2-9.9,3.2-19.1,9.3-24.3,19.4-.3.5-.5,1-.8,1.5h58.5c0-.6,0-1.2,0-1.9-.3-2-.6-4-1-5.8Z"/>
  <path class="st2" d="M446.2,891.7c-.1-.2-.3-.4-.4-.6.1.2.3.4.4.6Z"/>
  <path class="st2" d="M444.6,889.7c.1.2.3.3.4.5-.1-.2-.3-.3-.4-.5Z"/>
  <path class="st2" d="M443.5,888.6c0,0-.1-.1-.2-.2,0,0,.1.1.2.2Z"/>
  <path class="st2" d="M425.7,840.4c0-.2-.1-.4-.2-.6,0,.2.1.4.2.6Z"/>
  <path class="st2" d="M441.8,887.4c-.1,0-.3-.1-.4-.2.1,0,.3.1.4.2Z"/>
  <path class="st2" d="M429.9,855.8c0-.2-.1-.4-.2-.6,0,.2.1.4.2.6Z"/>
  <path class="st2" d="M431.8,862.7c0,0,0-.2,0-.2,0,0,0,.2,0,.2Z"/>
  <path class="st2" d="M435.3,875.5c0-.2,0-.4-.1-.5,0,.2,0,.4.1.5Z"/>
  <path class="st2" d="M440.2,886.7c-.2,0-.4-.1-.6-.2.2,0,.4.1.6.2Z"/>
  <path class="st2" d="M454.1,888.3c.5-1.3,1.3-2.6,2.3-3.6l-8.4-41.8c-.7-.2-1.4-.4-2-.7-4.7-2.2-9.3-4.3-13.7-6.4.1,0,.2.1.3.2,7.8,27.7,13,47.3,16.4,61.1,0,0,0,0,0-.1,1.3,3.3,2.3,6.7,3,9.3.8,2.6,1.5,5.3,2.1,8l3.8-1-4.1-20.6c-.3-1.5-.2-2.9.4-4.3Z"/>
  <path class="st2" d="M423.2,831.6c0,.1,0,.2.1.4,0-.1,0-.2-.1-.4,0,0,.2,0,.3.1-.1,0-.2,0-.3-.1Z"/>
  <path class="st2" d="M438,886c0,0,0,.2,0,.3.1,0,.2,0,.4,0-.1,0-.2,0-.4,0,0,0,0-.2,0-.2Z"/>
  <path class="st2" d="M447.2,893.4c-.1-.2-.2-.4-.3-.6.1.2.2.4.3.6Z"/>
  <path class="st2" d="M448.1,895.2c0-.1-.1-.2-.2-.3,0,.1.1.2.2.3Z"/>
  <path class="st13" d="M475.8,921.7c.4.3.9.7,1.3,1-.5-.3-.9-.7-1.3-1Z"/>
  <path class="st13" d="M517.1,955.7s0,0,0,0c-.2,0-.3,0-.5,0,.2,0,.3,0,.5,0Z"/>
  <path class="st13" d="M489.7,932.5c1.7,1.4,3.5,2.8,5.3,4.3-1.8-1.5-3.6-2.9-5.3-4.3Z"/>
  <path class="st13" d="M495.7,937.3c.7.6,1.4,1.1,2.1,1.7-.7-.6-1.4-1.1-2.1-1.7Z"/>
  <path class="st13" d="M466.3,890.6c0,0,.2.2.3.3,0-.1-.2-.2-.3-.3Z"/>
  <path class="st13" d="M512.4,955.3c0,0-.2,0-.2,0,0,0,.2,0,.2,0Z"/>
  <path class="st13" d="M467,891.5c0,.1.2.2.3.3,0-.1-.2-.2-.3-.3Z"/>
  <path class="st13" d="M498.6,939.7c.7.6,1.4,1.1,2.1,1.7-.7-.6-1.4-1.2-2.1-1.7Z"/>
  <path class="st13" d="M465.6,890c0,0,.2.1.3.2,0,0-.2-.1-.3-.2Z"/>
  <path class="st13" d="M473.7,920.1c.5.4,1.1.8,1.6,1.2-.6-.4-1.1-.8-1.6-1.2Z"/>
  <path class="st13" d="M487.2,930.5c.6.5,1.2,1,1.8,1.5-.6-.5-1.2-1-1.8-1.5Z"/>
  <path class="st13" d="M508,947.7c.7.6,1.4,1.2,2.1,1.8-.7-.6-1.4-1.2-2.1-1.8Z"/>
  <path class="st13" d="M484.7,928.5c.6.5,1.2.9,1.8,1.4-.6-.5-1.2-.9-1.8-1.4Z"/>
  <path class="st13" d="M479.8,924.7c1.4,1.1,2.8,2.2,4.4,3.4-1.5-1.2-3-2.3-4.4-3.4Z"/>
  <path class="st13" d="M472.3,924.5l-2.6-2.3s0,0-5.9-33c-1.7,0-2.5,1.9-2.5,1.9l5.6,27.8-18.7,4.9s-5.9-29.8-10.8-29.8c-11.3,0-4.1,12.1-1.3,31.6,8.9,2.1,15.3,12.4,14.6,23.9-.7,12.3-9.2,21.4-19,20.3-3.4-.4-6.5-1.9-9-4.3,3,8.3,9.3,17.8,14.9,25.9,18.5-21.1,43.3-35.9,70.7-36.1-.2,0-.3,0-.5,0l-35.4-30.7Z"/>
  <path class="st13" d="M477.8,923.2c.5.3.9.7,1.4,1.1-.5-.4-.9-.7-1.4-1.1Z"/>
  <path class="st13" d="M511.1,950.4c.7.6,1.4,1.2,2.1,1.9-.7-.6-1.4-1.3-2.1-1.9Z"/>
  <path class="st13" d="M514.1,953c1,.9,1.9,1.7,2.9,2.6-1-.9-1.9-1.8-2.9-2.6Z"/>
  <path class="st13" d="M501.4,942.1c1.9,1.6,3.8,3.2,5.7,4.9-1.9-1.7-3.9-3.3-5.7-4.9Z"/>
  <path class="st13" d="M464.6,889.4c.2,0,.4.2.6.3-.2-.1-.4-.2-.6-.3Z"/>
  <path class="st13" d="M463.8,889.2c.2,0,.4,0,.6.1-.2,0-.4-.1-.6-.1Z"/>
  <path class="st2" d="M457.5,1020c-.8-.9-1.5-1.8-2.3-2.8.8.9,1.5,1.9,2.3,2.8Z"/>
  <path class="st2" d="M453.5,1015.1c-.8-1-1.6-2.1-2.4-3.1.8,1.1,1.6,2.1,2.4,3.1Z"/>
  <path class="st2" d="M449.5,1009.9c-.9-1.2-1.8-2.4-2.7-3.7.9,1.3,1.8,2.5,2.7,3.7Z"/>
  <path class="st2" d="M445.5,1004.4c-1.3-1.9-2.7-3.9-4-5.9,1.3,2,2.7,4,4,5.9Z"/>
  <path class="st2" d="M550.9,1012.2c-.1-.3-.3-.7-.4-1,.1.3.3.7.4,1Z"/>
  <path class="st2" d="M496.1,991.7c-.9-1.1-1.8-2.2-2.6-3.2.9,1.1,1.8,2.1,2.6,3.2Z"/>
  <path class="st2" d="M501.3,998.6c-.5-.8-1.1-1.5-1.7-2.3.6.8,1.1,1.5,1.7,2.3Z"/>
  <path class="st2" d="M498.7,995.1c-.7-.9-1.3-1.8-2-2.6.7.9,1.4,1.7,2,2.6Z"/>
  <path class="st2" d="M503.8,1002.3c-.5-.8-1-1.5-1.5-2.3.5.7,1,1.5,1.5,2.3Z"/>
  <path class="st2" d="M511.4,1015.4c-.7-1.3-1.4-2.6-2.1-3.9.7,1.3,1.4,2.6,2.1,3.9Z"/>
  <path class="st2" d="M508.6,1010.2c-.5-.9-1-1.7-1.5-2.6.5.9,1,1.7,1.5,2.6Z"/>
  <path class="st2" d="M506.2,1006.1c-.5-.8-1-1.6-1.5-2.3.5.8,1,1.6,1.5,2.3Z"/>
  <path class="st2" d="M483.2,977.3c.5.5,1,1,1.6,1.6-.5-.5-1-1-1.6-1.6Z"/>
  <path class="st2" d="M542.5,1037.5c.6,6.5.4,11.9,0,16.2-.2,1.5-.4,2.9-.6,4.2,1.2-.3,2.4-.6,3.6-.9.9-.2,1.7-.5,2.5-.8,4.7-15,.9-31.2-6.4-45.7-10.5-20.9-29.8-40.7-39.9-47.1-1.6.2-3.2.4-4.8.6,22.1,17,43.6,49,45.7,73.4Z"/>
  <path class="st2" d="M482.3,976.5c-.6-.5-1.1-1-1.6-1.5.5.5,1.1,1,1.6,1.5Z"/>
  <path class="st2" d="M490,984.4c-.6-.6-1.1-1.3-1.7-1.9.6.6,1.1,1.2,1.7,1.9Z"/>
  <path class="st2" d="M492.9,987.8c-.7-.8-1.4-1.6-2-2.4.7.8,1.4,1.6,2,2.4Z"/>
  <path class="st2" d="M487.3,981.5c-.5-.6-1.1-1.1-1.6-1.7.5.5,1.1,1.1,1.6,1.7Z"/>
  <path class="st2" d="M478.3,969.8c.7-.3,1.5-.7,2.2-1-.7.3-1.5.7-2.2,1Z"/>
  <path class="st2" d="M483.8,967.6c.7-.3,1.4-.5,2.1-.8-.7.2-1.4.5-2.1.8Z"/>
  <path class="st2" d="M489.8,965.6c.5-.1,1-.3,1.5-.4-.5.1-1,.3-1.5.4Z"/>
  <path class="st2" d="M512.7,1018c-.4-.9-.8-1.8-1.3-2.7.4.9.9,1.8,1.3,2.7Z"/>
  <path class="st2" d="M523.3,972.6c.6.7,1.3,1.3,2,2-.7-.7-1.3-1.4-2-2Z"/>
  <path class="st2" d="M519.7,969c-.9-.8-1.7-1.6-2.6-2.3.8.7,1.7,1.5,2.6,2.3Z"/>
  <path class="st2" d="M516.9,966.4c-.8-.7-1.6-1.3-2.3-1.9.8.6,1.5,1.3,2.3,1.9Z"/>
  <path class="st2" d="M528.9,978.4c-.9-1-1.8-2-2.7-3,.9,1,1.8,2,2.7,3Z"/>
  <path class="st2" d="M522.4,971.6c-.6-.6-1.2-1.2-1.9-1.8.6.6,1.2,1.2,1.9,1.8Z"/>
  <path class="st2" d="M562.9,1026.8c.4,6.1,0,11.3-.9,15.7-.4,2.1-.9,4.1-1.5,5.9,16.8-16.9,11.8-51.8-33.2-82.9-2.3-.6-4.6-1.1-6.9-1.5,22.9,20.9,40.9,37.5,42.5,62.9Z"/>
  <path class="st2" d="M457.4,982.8c.9-.7,1.8-1.4,2.7-2.1-.9.7-1.8,1.4-2.7,2.1Z"/>
  <path class="st2" d="M505.2,1045.9c.5,3.5.6,6.5.3,9.2,0,.1,0,.3,0,.4,1.7.6,3.5,1.1,5.2,1.6,3.6-12,.2-25.6-6.1-38.3-10.3-20.8-28-38.7-36-43.9-2.7,1.6-5.2,3.4-7.7,5.3,23.6,21.8,41.6,46,44.4,65.7Z"/>
  <path class="st2" d="M447.9,991.5c.9-.9,1.7-1.7,2.6-2.6-.9.8-1.7,1.7-2.6,2.6Z"/>
  <path class="st2" d="M513.8,963.9c-.3-.2-.6-.5-.9-.7,0,0,0,0,0,0,.3.2.6.5.9.7Z"/>
  <path class="st2" d="M443.5,996.3c.8-1,1.7-1.9,2.6-2.9-.9.9-1.7,1.9-2.6,2.9Z"/>
  <path class="st2" d="M531.6,981.7c-.7-.9-1.5-1.8-2.2-2.6.7.8,1.5,1.7,2.2,2.6Z"/>
  <path class="st2" d="M452.6,987c.9-.8,1.7-1.6,2.6-2.4-.9.8-1.8,1.6-2.6,2.4Z"/>
  <path class="st2" d="M514.3,963.2c.4,0,.8,0,1.2,0-.4,0-.8,0-1.2,0Z"/>
  <path class="st2" d="M552.7,1016.8c0-.1,0-.2-.1-.3,0,.1,0,.2.1.3Z"/>
  <path class="st2" d="M480,974.3c-1.4-1.3-2.8-2.5-4-3.4,0,0,0,0,0,0,1.2,1,2.6,2.1,4,3.4Z"/>
  <path class="st2" d="M534.4,985.1c-.6-.8-1.2-1.6-1.9-2.3.6.8,1.3,1.6,1.9,2.3Z"/>
  <path class="st2" d="M540.6,993.6c-.8-1.3-1.7-2.5-2.6-3.7.9,1.2,1.7,2.4,2.6,3.7Z"/>
  <path class="st2" d="M548.5,1007.1c-.7-1.4-1.4-2.8-2.2-4.1.7,1.4,1.5,2.7,2.2,4.1Z"/>
  <path class="st2" d="M543.1,997.5c-.6-1-1.2-1.9-1.8-2.8.6.9,1.2,1.9,1.8,2.8Z"/>
  <path class="st2" d="M537.5,989.2c-.7-1-1.4-1.9-2.1-2.8.7.9,1.4,1.9,2.1,2.8Z"/>
  <path class="st2" d="M545.6,1001.7c-.5-.9-1.1-1.9-1.6-2.8.6.9,1.1,1.9,1.6,2.8Z"/>
  <path class="st13" d="M392.2,438.3c-1.1.3-2.1.6-3.2,1.1-.2-1.4,1.4-2.8,4.3-3.9-3.7-2.6-7.6-5-11.5-7.2-2.1,7.1-6.6,13.2-12.6,17.8-13.8,10.5-32.6,14.9-49.8,15.6,31,8.4,61.8,5.7,90.1-9.9,4.8-2.7,9.5-5.7,13.9-8.9-12-5.2-22.6-6.8-31.2-4.5Z"/>
  <path class="st13" d="M278.1,396.8c7.6,4.2,19.2,7.2,31.3,8.7,14.1,1.7,29.2,1.6,39.8-.5.2-1.8.4-3.6.6-5.3-9.9,2.3-25.3,2.5-39.8.8-12.2-1.5-23.7-4.4-30.3-8.4-.6,1.6-1.1,3.2-1.7,4.9Z"/>
  <path class="st13" d="M353.8,377c.4-1.7.8-3.4,1.2-5-10.4-1.1-27.9-3.5-42.8-6.3-7.8-1.4-14.7-2.9-19.4-4.4-.5,1-.9,1.9-1.4,2.9-.3.6-.5,1.1-.8,1.7,5.2,1.7,12.5,3.3,20.6,4.8,14.6,2.7,31.9,5.1,42.6,6.2Z"/>
  <path class="st13" d="M362.1,346.5c.5-1.6,1.1-3.3,1.6-4.9-8.7-4-17.5-6.9-26.6-9-8.9-2-18-3.1-27.3-3.5-1,1.7-1.9,3.4-2.9,5,10,.3,19.6,1.4,29.1,3.5,8.9,2,17.6,4.9,26.1,8.9Z"/>
  <path class="st13" d="M347.5,304.2c8.5,2.1,17.2,5.8,25.7,11.2.6-1.6,1.3-3.2,1.9-4.8-8.8-5.4-17.7-9.2-26.4-11.4-6.7-1.7-13.2-2.4-19.3-2.2-1.2,1.8-2.3,3.6-3.5,5.4,6.7-.6,14,0,21.5,1.8Z"/>
  <path class="st13" d="M385.3,286.8c.7-1.6,1.4-3.1,2.1-4.7-6.1-3.4-13-5.8-19.7-7.4-7.6-1.9-15-2.7-20.7-3-1.2,1.7-2.4,3.3-3.7,5,5.7,0,14.2.8,23.2,3,6.4,1.6,13,3.9,18.8,7.2Z"/>
  <path class="st13" d="M361.8,168.7c0-7.8-6.3-14.2-14.2-14.2s-14.2,6.3-14.2,14.2,6.3,14.2,14.2,14.2,14.2-6.3,14.2-14.2ZM353.5,159.4c3.4,0,6.1,2.7,6.1,6.1s-2.7,6.1-6.1,6.1-6.1-2.7-6.1-6.1,2.7-6.1,6.1-6.1Z"/>
  <path class="st2" d="M363.7,236.5c-7.1-.4-13.3-3.9-17.3-9.3-1.7,2.2-4,4.1-6.1,5.6-5.4,3.9-11.6,7.4-17.5,10.6-17.5,9.4-36.3,17.7-54.9,24.6-6.7,2.5-14,5.1-21.5,7.4,13.2-1.4,26.2-5.1,39.2-8.8,27.3-7.9,62-19.9,78.1-30Z"/>
  <path class="st10" d="M338.6,224.3c.9-.8,2.6-2.1,4.6-3.6-.7-2.2-1.1-4.5-1.1-7,0-4.3,1.2-8.3,3.3-11.7-34,2.6-35.5-15.8-56.2-29.8-5.7-3.8-12.1-2.8-18.4,3.1,2.2-1.3,5-1.5,7.6-.5,4.4,1.8,6.5,6.9,4.7,11.4-13.2,25.5-20.4,28.3-43.2,44.6-15.5,11-31.6,23.3-48.7,31.6,10.9-16.1,26.6-28.3,41.1-41.2,18.4-16.3,25.1-18.8,34.7-41.6-2.4,3.1-4.6,6.9-6.8,11.4-4.3,9.1-20.6,24.1-41.8,41.6-27.8,22.9-62.1,46.8-13.6,43.6,42.8-2.9,119.6-39.3,134-51.9Z"/>
  <path class="st13" d="M382.3,213.8c0-9.6-7.8-17.4-17.4-17.4s-17.4,7.8-17.4,17.4,7.8,17.4,17.4,17.4,17.4-7.8,17.4-17.4ZM355.3,223.4c-5.3-5.3-5.3-14,0-19.3,5.3-5.3,14-5.3,19.3,0,5.3,5.3,5.3,14,0,19.3-5.3,5.3-14,5.3-19.3,0Z"/>
  <path class="st7" d="M374.6,223.4c5.3-5.3,5.3-14,0-19.3-5.3-5.3-14-5.3-19.3,0-5.3,5.3-5.3,14,0,19.3,5.3,5.3,14,5.3,19.3,0ZM357.2,206c3.8-3.8,9.6-4.2,13.8-1.4l-15.2,15.2c-2.8-4.3-2.4-10.1,1.4-13.8ZM358.8,222.9l15.2-15.2c2.8,4.3,2.4,10.1-1.4,13.8-3.8,3.8-9.6,4.2-13.8,1.4Z"/>
  <path class="st13" d="M371,204.7c-4.3-2.8-10.1-2.4-13.8,1.4-3.8,3.8-4.2,9.6-1.4,13.8l15.2-15.2Z"/>
  <path class="st13" d="M372.6,221.5c3.8-3.8,4.2-9.6,1.4-13.8l-15.2,15.2c4.3,2.8,10.1,2.4,13.8-1.4Z"/>
  <path class="st7" d="M353.5,171.7c3.4,0,6.1-2.7,6.1-6.1s-2.7-6.1-6.1-6.1-6.1,2.7-6.1,6.1,2.7,6.1,6.1,6.1Z"/>
  <path class="st13" d="M278.2,158.2c1.9-5.9.9-11.4-2.2-12.4-3.1-1-7.1,3-9,8.9-1.9,5.9-.9,11.4,2.2,12.4,3.1,1,7.1-3,9-8.9ZM273.2,154.1c.8-2.5,2.5-4.3,3.9-3.8,1.3.4,1.8,2.8,1,5.4-.8,2.5-2.5,4.3-3.9,3.8-1.3-.4-1.8-2.8-1-5.4Z"/>
  <path class="st7" d="M274.2,159.4c1.3.4,3.1-1.3,3.9-3.8.8-2.5.4-4.9-1-5.4-1.3-.4-3.1,1.3-3.9,3.8-.8,2.5-.4,5,1,5.4Z"/>
  <path class="st7" d="M257.3,422.3c0,2.7,2.1,5,4.8,5.1,2.7,0,5-2.1,5.1-4.8,0-2.7-2.1-5-4.8-5.1-2.7,0-5,2.1-5.1,4.8Z"/>
  <path class="st7" d="M362.4,421.6c-2.7,0-5,2.1-5.1,4.8,0,2.7,2.1,5,4.8,5.1,2.7,0,5-2.1,5.1-4.8,0-2.7-2.1-5-4.8-5.1Z"/>
  <path class="st7" d="M344.4,441.7c2.7,0,5-2.1,5.1-4.8,0-2.7-2.1-5-4.8-5.1-2.7,0-5,2.1-5.1,4.8,0,2.7,2.1,5,4.8,5.1Z"/>
  <path class="st7" d="M322.8,446.2c2.7,0,5-2.1,5.1-4.8,0-2.7-2.1-5-4.8-5.1-2.7,0-5,2.1-5.1,4.8,0,2.7,2.1,5,4.8,5.1Z"/>
  <path class="st7" d="M299.6,444.5c2.7,0,5-2.1,5.1-4.8,0-2.7-2.1-5-4.8-5.1-2.7,0-5,2.1-5.1,4.8,0,2.7,2.1,5,4.8,5.1Z"/>
  <path class="st7" d="M279,427.9c-2.7,0-5,2.1-5.1,4.8,0,2.7,2.1,5,4.8,5.1,2.7,0,5-2.1,5.1-4.8,0-2.7-2.1-5-4.8-5.1Z"/>
  <path class="st7" d="M295.1,882.7c-11.8,1.3-20.3,12-19,23.8,1.3,11.8,12,20.3,23.8,19,11.8-1.3,20.3-12,19-23.8-1.3-11.8-12-20.3-23.8-19ZM299.4,920.4c-9,1-17.1-5.4-18.1-14.4-1-9,5.4-17.1,14.4-18.1,9-1,17.1,5.4,18.1,14.4,1,9-5.4,17.1-14.4,18.1Z"/>
  <path class="st13" d="M295.7,887.8c-9,1-15.5,9.1-14.4,18.1,1,9,9.1,15.5,18.1,14.4,9-1,15.5-9.1,14.4-18.1-1-9-9.1-15.5-18.1-14.4ZM307.6,912.1c-4.4,5.6-12.5,6.5-18.1,2.1-5.6-4.4-6.5-12.5-2.1-18.1,4.4-5.6,12.5-6.5,18.1-2.1,5.6,4.4,6.5,12.5,2.1,18.1Z"/>
  <path class="st7" d="M305.6,894c-5.6-4.4-13.7-3.5-18.1,2.1-4.4,5.6-3.5,13.7,2.1,18.1,5.6,4.4,13.7,3.5,18.1-2.1,4.4-5.6,3.5-13.7-2.1-18.1ZM291.1,912.2c-3.9-3.1-5-8.5-2.7-12.8l15.8,12.6c-3.7,3.1-9.2,3.3-13.1.2ZM306.7,908.8l-15.8-12.6c3.7-3.1,9.2-3.3,13.1-.2,3.9,3.1,5,8.5,2.7,12.8Z"/>
  <path class="st13" d="M288.4,899.4c-2.2,4.3-1.2,9.7,2.7,12.8,3.9,3.1,9.4,2.9,13.1-.2l-15.8-12.6Z"/>
  <path class="st13" d="M304,896c-3.9-3.1-9.4-2.9-13.1.2l15.8,12.6c2.2-4.3,1.2-9.7-2.7-12.8Z"/>
  <path class="st13" d="M419.5,946c-.5,9.4,5.1,17.6,12.5,18.4,7.5.8,13.9-6.1,14.5-15.4.5-9.4-5.1-17.6-12.5-18.4-7.5-.8-13.9,6.1-14.5,15.4ZM438.4,938.9c3.8,5.7,3.4,14.1-1.1,18.9-4.4,4.7-11.2,4-15-1.7-3.8-5.7-3.4-14.1,1.1-18.8,4.4-4.7,11.2-4,15,1.7Z"/>
  <path class="st7" d="M422.2,956.1c3.8,5.7,10.6,6.4,15,1.7,4.5-4.7,4.9-13.2,1.1-18.9-3.8-5.7-10.6-6.4-15-1.7-4.4,4.7-4.9,13.2-1.1,18.8ZM423.8,954.4c-2.7-4-2.7-9.7-.3-13.6l10.9,16.1c-3.5,2.4-8,1.5-10.7-2.5ZM436.7,940.6c2.7,4,2.7,9.7.3,13.6l-10.9-16.1c3.5-2.4,8-1.5,10.7,2.5Z"/>
  <path class="st13" d="M437,954.2c2.5-3.9,2.4-9.6-.3-13.6-2.7-4-7.2-4.9-10.7-2.5l10.9,16.1Z"/>
  <path class="st13" d="M423.6,940.8c-2.5,3.9-2.4,9.6.3,13.6,2.7,4,7.2,4.9,10.7,2.5l-10.9-16.1Z"/>
  <path class="st13" d="M355.4,97.3c34.9,11.8,57,36.2,57.2,73.9,0,4.8,3.8,8.7,8.6,8.8,4.8,0,8.7-3.8,8.8-8.6-2.9-39.4-25.6-69.3-64.7-78.7-11.9-2.9-14.3-2.7-26-.9,21,7.9-4.1-1.3,16.1,5.5Z"/>
  <path class="st8" d="M232.2,221.3c-14.5,12.8-30.1,25.1-41.1,41.2,17.1-8.3,33.2-20.6,48.7-31.6,22.8-16.3,30-19.1,43.2-44.6,1.8-4.4-.2-9.5-4.7-11.4-2.6-1.1-5.3-.8-7.6.5-1.6.9-3,2.3-3.8,4.2,0,0,0,0,0,.1-9.7,22.8-16.3,25.2-34.7,41.6Z"/>
  <path class="st1" d="M71.3,536.7c-2.6-27.6-22.6-46.9,4.4-67.6,34-26.2,114.5-87.9,209.5-71.6l-51.2,93.1-96.3,121s-4.3,4.4-12.1,5.9c-.2.1-.4.2-.7.3-21,5.3-61-28.2-59.9-47.2,8.3,5.9,12.4,7.9,12.4,7.9,0,0-8-8.8-11.3-19.4-3-9.7-1.2-15.3-1.2-15.3.6.9,5.1,5,8.5,7.5-.7-4.7-1.4-9.6-1.8-14.6Z"/>
  <path class="st2" d="M243.1,896.9c-.2-.2-.5-.4-.7-.6-.1-.1-.3-.2-.4-.3,0,0,0,0,0,0-1.7-.1-3.4-.2-5.1-.3-23.2-.9-42.1,4.2-55.5,12.8-11.5,7.3-18.9,17.1-21.5,27.7h22.6c0-.5.2-.9.3-1.3.1-.5.2-1,.4-1.5.2-.8.4-1.5.6-2.2.1-.5.3-.9.4-1.4.3-.8.6-1.5.9-2.3.1-.4.3-.7.4-1.1.4-1,.9-2.1,1.4-3,0,0,0,0,0-.1,3.9-7.6,9.6-13.3,16.2-17.4,3.9-2.5,8.1-4.4,12.5-5.7,1.3-.4,2.6-.8,4-1.1.4-.1.9-.2,1.3-.3.9-.2,1.8-.4,2.7-.6.5,0,1-.2,1.5-.3.8-.1,1.7-.3,2.5-.4.5,0,1-.1,1.5-.2.9,0,1.7-.2,2.5-.2.5,0,.9,0,1.4,0,1,0,2,0,2.9,0,.3,0,.6,0,.8,0,1.2,0,2.5,0,3.7.1.3,0,.6,0,.9,0,.7,0,1.4.1,2.1.2,0,0,0,0,0,0-.1-.1-.3-.2-.4-.4Z"/>
  <path class="st10" d="M505.2,1045.9c-2.9-19.7-20.8-43.9-44.4-65.7,0,0,0,0,0,0-.2.2-.5.4-.7.6-.9.7-1.8,1.4-2.7,2.1-.7.6-1.5,1.2-2.2,1.8-.9.8-1.8,1.6-2.6,2.4-.7.6-1.4,1.2-2.1,1.9-.9.8-1.7,1.7-2.6,2.6-.6.6-1.3,1.3-1.9,1.9-.9.9-1.7,1.9-2.6,2.9-.5.6-1,1.1-1.5,1.7-.1.2-.3.4-.4.5,1.3,2,2.7,4,4,5.9.4.6.9,1.2,1.3,1.9.9,1.3,1.8,2.5,2.7,3.7.5.7,1.1,1.4,1.6,2.1.8,1.1,1.6,2.1,2.4,3.1.6.7,1.1,1.4,1.7,2.1.8.9,1.5,1.9,2.3,2.8.6.7,1.1,1.3,1.7,2,.8.9,1.5,1.7,2.3,2.6.6.6,1.1,1.2,1.7,1.8.8.8,1.5,1.6,2.3,2.4.6.6,1.1,1.1,1.7,1.7.8.8,1.5,1.5,2.3,2.2.5.5,1.1,1,1.6,1.5.8.7,1.6,1.5,2.4,2.2.5.4,1,.9,1.4,1.3.9.8,1.9,1.5,2.8,2.3.4.3.7.6,1.1.9,1.3,1,2.5,1.9,3.8,2.8.3.2.6.4,1,.7.9.7,1.9,1.3,2.8,1.9.5.3.9.6,1.4.9.8.5,1.5,1,2.3,1.4.5.3,1,.6,1.5.9.7.4,1.4.8,2.1,1.2.5.3,1.1.5,1.6.8.7.3,1.4.7,2.1,1,.5.2,1.1.5,1.6.7.7.3,1.3.6,2,.9.5.2,1,.4,1.6.6.7.3,1.3.5,2,.7.3.1.7.3,1,.4h0c0-.2,0-.3,0-.4.3-2.7.2-5.7-.3-9.2Z"/>
  <path class="st10" d="M480.7,974.9c.5.5,1.1,1,1.6,1.5.3.3.6.6.9.8.5.5,1,1,1.6,1.6.3.3.6.6,1,1,.5.5,1.1,1.1,1.6,1.7.3.3.6.7,1,1,.6.6,1.1,1.2,1.7,1.9.3.3.6.7.9,1,.7.8,1.4,1.6,2,2.4.2.2.4.5.6.7.9,1.1,1.8,2.1,2.6,3.2.2.2.4.5.6.7.7.9,1.4,1.7,2,2.6.3.4.6.8.9,1.2.6.8,1.1,1.5,1.7,2.3.3.5.6.9,1,1.4.5.7,1,1.5,1.5,2.3.3.5.6,1,1,1.5.5.8,1,1.6,1.5,2.3.3.5.6,1,.9,1.5.5.9,1,1.7,1.5,2.6.2.4.5.8.7,1.3.7,1.3,1.4,2.6,2.1,3.9.4.9.9,1.8,1.3,2.7.1.3.3.6.4.9.3.6.5,1.2.8,1.8.2.4.3.7.4,1.1.2.5.4,1.1.7,1.6.1.4.3.8.4,1.1.2.5.4,1.1.6,1.6.1.4.3.8.4,1.2.2.5.3,1,.5,1.6.1.4.2.8.4,1.2.2.5.3,1,.4,1.6.1.4.2.8.3,1.2.1.5.3,1,.4,1.6,0,.4.2.8.3,1.2.1.5.2,1.1.3,1.6,0,.4.1.8.2,1.2,0,.6.2,1.1.2,1.7,0,.4,0,.7.1,1.1,0,.6.1,1.2.1,1.8,0,.3,0,.7,0,1,0,.7,0,1.5,0,2.2,0,.2,0,.4,0,.6,0,.9,0,1.8,0,2.7,0,.2,0,.5,0,.7,0,.7-.1,1.4-.2,2,0,.3,0,.7-.1,1,0,.6-.2,1.1-.3,1.7,0,.4-.2.7-.2,1.1,0,.4-.2.8-.2,1.2,0,.2-.1.4-.2.6,0,.1,0,.3,0,.4,0,.2,0,.3-.1.5,0,0,0,0,0,0,.1,0,.3,0,.4,0,.6,0,1.3.2,1.9.2.4,0,.8.1,1.3.1.7,0,1.3.1,2,.1.4,0,.7,0,1.1,0,.8,0,1.6,0,2.3,0,.2,0,.4,0,.6,0,1,0,1.9,0,2.9,0,.3,0,.6,0,.9,0,.6,0,1.3,0,1.9-.1.4,0,.8,0,1.1-.1.5,0,1.1-.1,1.6-.2.4,0,.8-.1,1.2-.2.5,0,1-.1,1.5-.2.4,0,.8-.1,1.1-.2.5,0,.9-.2,1.4-.3.2,0,.3,0,.5,0,0,0,0,0,0,0,.2-1.3.5-2.7.6-4.2.5-4.3.6-9.7,0-16.2-2.1-24.5-23.6-56.4-45.7-73.4,0,0,0,0,0,0-1.9.3-3.7.7-5.5,1.2-.5.1-1,.3-1.5.4-1.3.4-2.6.7-3.9,1.2-.7.2-1.4.5-2.1.8-1.1.4-2.2.8-3.3,1.2-.7.3-1.5.7-2.2,1-.8.3-1.6.7-2.3,1,0,0,0,0,0,0,1.2,1,2.6,2.1,4,3.4.2.2.5.4.7.6Z"/>
  <path class="st10" d="M514.6,964.5c.8.6,1.5,1.3,2.3,1.9,0,0,.1.1.2.2.8.7,1.7,1.5,2.6,2.3.3.3.6.5.9.8.6.6,1.2,1.2,1.9,1.8.3.3.6.6,1,1,.7.7,1.3,1.3,2,2,.3.3.5.6.8.9.9,1,1.8,2,2.7,3,.2.2.4.4.5.6.7.8,1.5,1.7,2.2,2.6.3.4.6.8.9,1.1.6.8,1.3,1.5,1.9,2.3.3.4.6.8.9,1.2.7.9,1.4,1.9,2.1,2.8.2.3.4.5.6.8.9,1.2,1.7,2.4,2.6,3.7.2.3.5.7.7,1,.6.9,1.2,1.9,1.8,2.8.3.4.5.9.8,1.3.6.9,1.1,1.9,1.6,2.8.2.4.5.8.7,1.3.7,1.4,1.5,2.7,2.2,4.1.7,1.4,1.3,2.8,2,4.2.1.3.3.7.4,1,.6,1.4,1.2,2.8,1.7,4.3,0,.1,0,.2.1.3.5,1.3,1,2.7,1.4,4.1.1.3.2.7.3,1,.4,1.5.9,2.9,1.2,4.4,0,.2,0,.4.1.6.3,1.3.6,2.7.8,4,0,.3.1.7.2,1,.2,1.5.4,3,.6,4.4,0,.2,0,.5,0,.7.1,1.3.2,2.6.2,3.9,0,.3,0,.6,0,1,0,1.5,0,3-.1,4.4,0,0,0,.2,0,.3,0,.2,0,.4,0,.6-.1,1.2-.3,2.4-.4,3.6,0,.2,0,.4,0,.6,0,0,0,0,0,0,.1,0,.2-.2.3-.3,1.1-.9,2.2-1.8,3.2-2.8,0,0,0,0,0,0,0,0,0,0,0,0,.6-1.8,1.1-3.7,1.5-5.9.9-4.4,1.3-9.6.9-15.7-1.6-25.4-19.6-42-42.5-62.9,0,0,0,0,0,0-1.6-.3-3.3-.5-4.9-.6-.4,0-.8,0-1.2,0-.5,0-1,0-1.5-.1,0,0,0,0,0,0,.3.2.6.5.9.7.3.2.5.4.8.6Z"/>
  <path class="st6" d="M435.6,177.6l-10.3-18.1-41.6-33-33.9,4.4-34,4.4-37.3-14.4-14.8,4.7c-6.8,11.4-11.3,24.2-13,38,6-11.6,15.4-26.4,21.9-28.2,9.3-2.7,13.1,7,37.4,15.5,21.9,7.6,51.2-.5,62.8-2.8,1.2-.2,2.3-.4,3.1-.5,8.3-.9,18,5,31.7,22.6,9.6,12.2,15,29.5,18.1,46.3,1,5.4,1.7,10.8,2.3,16,8.3-11.7,13.9-25.1,16.4-39.2l-8.8-15.5Z"/>
  <path class="st10" d="M432.3,835.9c-3-1.4-5.9-2.8-8.8-4.1,0,0-.2,0-.3-.1,0,.1,0,.2.1.4.8,2.7,1.5,5.3,2.2,7.9,0,.2.1.4.2.6,1.5,5.2,2.8,10.1,4.1,14.8,0,.2.1.4.2.6.6,2.3,1.2,4.5,1.8,6.7,0,0,0,.2,0,.2,1.2,4.4,2.3,8.5,3.3,12.3,0,.2,0,.4.1.5,1,3.7,1.9,7.2,2.7,10.5,0,0,0,.2,0,.2.1,0,.2,0,.4,0,.4,0,.8.1,1.2.2.2,0,.4.1.6.2.4.1.8.3,1.2.5.1,0,.3.1.4.2.5.3,1,.6,1.4,1,0,0,.1.1.2.2.4.3.7.7,1.1,1.1.1.2.3.3.4.5.3.3.5.6.8,1,.1.2.3.4.4.6.2.4.5.7.7,1.1.1.2.2.4.3.6.3.5.5.9.7,1.4,0,.1.1.2.2.3.3.6.6,1.2.8,1.8,0,0,0,0,0,.1-3.4-13.8-8.6-33.4-16.4-61.1-.1,0-.2-.1-.3-.2Z"/>
  <path class="st10" d="M276.2,830.7c.8,2.8,1.6,5.5,2.4,8,1.7,5.8,3.2,10.9,4.5,15.3h0c.3-.2.5-.3.8-.4.6-.3,1.2-.7,1.8-.9.5-.2,1-.5,1.5-.7.6-.3,1.2-.5,1.9-.7.3,0,.6-.2.9-.3-1.8-6.1-3.9-13.3-6.5-21.9-2.4.6-4.7,1.1-7.2,1.6Z"/>
  <path class="st3" d="M265,397.6c-2.3-.4-4.4,1.2-4.8,3.4-2.4,38.1,84.1,38,93.5,17.3l-1.9,1.3c-16.8,11.9-66,8.7-79.7-6.9-2.6-3-4-6.4-3.6-10.3.2-1,0-2-.5-2.8-.6-1-1.6-1.8-2.9-2Z"/>
  <path class="st3" d="M315.8,873.2c-.8-1.2-1.5-2.4-2.3-3.5-.1-.2-.3-.4-.4-.5-.7-.9-1.4-1.7-2-2.5-.3-.3-.6-.6-.8-.9-.6-.6-1.2-1.2-1.8-1.8-.3-.3-.6-.6-.9-.8-.6-.6-1.3-1.1-2-1.6-.2-.1-.4-.3-.5-.4,0,0-.1,0-.2-.1-.6-.4-1.3-.8-1.9-1.2-.2-.1-.4-.2-.6-.3-.8-.4-1.7-.8-2.5-1.1-.2,0-.4-.1-.6-.2-.6-.2-1.2-.4-1.8-.5-.3,0-.6,0-.9-.1-.5,0-1-.1-1.5-.1-.3,0-.7,0-1,0-.5,0-1,0-1.4.1-.3,0-.7.1-1,.2-.5.1-.9.2-1.4.4-.3.1-.6.2-1,.4-.4.2-.9.4-1.3.7-.3.2-.6.4-.9.6-.4.3-.9.6-1.3,1-.2.2-.4.3-.6.5,0,0-.2.2-.3.3-.2.2-.4.4-.6.6-.4.4-.8.8-1.1,1.3-.2.3-.4.5-.6.8-.4.5-.7,1.1-1.1,1.6-.2.3-.3.5-.5.8-.5.9-1,1.8-1.4,2.8,0,0,0,0,0,0-.3.7-.7,1.6-1,2.4-.1.4-.3.7-.4,1.1-.4,1.2-.8,2.6-1.2,4l-2.5,9.4s-13.2-.3-22.5-1.3c-1.1-.1-2.3-.2-3.6-.4-.5,0-1,0-1.5-.1-.8,0-1.6-.2-2.5-.2-.5,0-1.1-.1-1.6-.2-.9,0-1.8-.2-2.7-.2-.5,0-1,0-1.5-.1,0,0-.1,0-.2,0,0,0,0,0,0,0,.2,0,.3.2.5.3.9.5,1.8,1.1,2.8,1.7.4.3.9.5,1.3.8,1.3.9,2.6,1.8,3.9,2.8.6.5,1.2,1,1.8,1.5,2.6.2,5.1.5,7.4.7,9.2,1,22.5,1.3,22.5,1.3l2.5-9.4c.4-1.6.9-3,1.4-4.4,1.5-4,3.2-7.2,5.2-9.5,5.2-6.2,12-7.1,18.6-3.7,3.4,1.8,6.9,4.7,10,8.6.4.6.9,1.1,1.3,1.7,0,0,0,0,0,0-.5-.9-1-1.9-1.6-2.7,0,0-.1-.2-.2-.2Z"/>
  <path class="st3" d="M517,955.7c-1-.9-1.9-1.8-2.9-2.6-.3-.3-.6-.5-.9-.8-.7-.6-1.4-1.3-2.1-1.9s-.6-.6-1-.8c-.7-.6-1.4-1.2-2.1-1.8-.3-.2-.6-.5-.9-.7-1.9-1.7-3.9-3.3-5.7-4.9-.3-.2-.5-.4-.8-.7-.7-.6-1.4-1.2-2.1-1.7-.3-.2-.6-.5-.9-.7-.7-.6-1.4-1.1-2.1-1.7-.2-.2-.4-.4-.7-.5-1.8-1.5-3.6-2.9-5.3-4.3-.2-.2-.4-.4-.7-.5-.6-.5-1.2-1-1.8-1.5-.3-.2-.5-.4-.8-.6-.6-.5-1.2-.9-1.8-1.4-.2-.1-.4-.3-.6-.5-1.5-1.2-3-2.3-4.4-3.4-.2-.1-.4-.3-.6-.4-.5-.4-.9-.7-1.4-1.1-.2-.2-.4-.3-.7-.5-.5-.3-.9-.7-1.3-1-.1-.1-.3-.2-.4-.3-.6-.4-1.1-.8-1.6-1.2,0,0-.9-20.2-5.6-27.2-.3-.4-.6-.8-.8-1.1,0-.1-.2-.2-.3-.3-.2-.2-.3-.4-.5-.6,0-.1-.2-.2-.3-.3-.1-.1-.3-.3-.4-.4,0,0-.2-.1-.3-.2,0,0-.2-.1-.2-.2,0,0,0,0-.1,0-.2-.1-.4-.2-.6-.3,0,0,0,0-.1,0-.2,0-.4-.1-.6-.1,0,0,0,0,0,0,0,0,0,0,0,0q5.9,33,5.9,33l2.6,2.3,35.4,30.7c.2,0,.3,0,.5,0,1.3,0,2.6,0,4,0,0,0,.2,0,.2,0,1.4,0,2.8.2,4.2.3.2,0,.3,0,.5,0h0s0,0,0,0Z"/>
  <path class="st7" d="M602.3,937.5h-62.1c-2.7,0-4.9,2.2-4.9,4.9s2.2,4.9,4.9,4.9h62.1c2.7,0,4.9-2.2,4.9-4.9s-2.2-4.9-4.9-4.9Z"/>
  <path class="st1" d="M440,82.5s20-50.8,62.9-32c43,18.9,39.9,61,23,72.6-16.9,11.6-33.8,27.6-33.8,27.6l-52.2-68.3h0Z"/>
  <path class="st1" d="M266.2,82.1s-18.8-50.2-53.3-30c-34.6,20.2-45.9,46.8-33,63.7,12.9,17,50,21.4,50,21.4l36.4-55.1h0Z"/>
  <path class="st12" d="M456.9,86.9s13.8-32,30.7-23.2c16.9,8.7,32.2,20.3,24.6,33.4-7.7,13.1-27.6,26.1-27.6,26.1,0,0-16.9-33.4-27.6-36.3h0Z"/>
  <path class="st12" d="M246.2,80s-11.7-24.3-25.2-16.5c-13.5,7.8-30.1,17.1-23.4,31.4,6.7,14.3,22.3,21,22.3,21l26.3-35.9h0Z"/>
  <path class="st5" d="M341.2,51.8s54.3,2.1,78.2,22.6c23.9,20.5-45.6,37-78.2,22.6-32.6-14.4-19.5-41.1,0-45.2h0Z"/>
  <path class="st4" d="M241,457.1"/>
  <path class="st0" d="M234.3,246.6c1.2,8.3,3.3,15.7,6,22.5,4.7-1.4,9.6-2.9,14.4-4.6.5,2.6.9,5.1,1.4,7.7-3.1,1.1-6.3,2.1-9.5,3.1,3.3-.4,6.5-.8,9.7-1.4.6,3.4,1.1,6.7,1.7,10.1-3.1.6-6.1,1-9.2,1.4,11.9,18.3,29,31.2,45.5,44,17.2,13.4,29.6,24.7,36.1,30.9,3.3,3.1,8.1,3.9,12.2,1.9,6.4-3.1,16.7-8.9,28.5-18.3,20-16,49.1-50.8,62.9-91.5,13.8-40.7,3.1-71.2-26.1-98.8-29.2-27.6-30.7-14.5-62.9-8.7-32.2,5.8-64.5-18.9-64.5-18.9-18.6-2.1-37.2,38.7-44.1,77.5,2.6-2.4,5.1-4.9,7.5-7.5-.1,4.8-.2,9.7,0,14.5-2.9,2.8-6.2,5.7-9.6,8.8-.9,9.9-.9,19.3.2,27.3Z"/>
  <path class="st0" d="M444,172.1c2.2,3.3,4.2,7,5.9,10.9-1.7-3.9-3.7-7.5-5.9-10.9Z"/>
  <path class="st0" d="M202.8,276.4c-2.6-7.7-5.1-16.1-7-25.2-17.6,15.2-26,27,7,25.2Z"/>
  <path class="st1" d="M422.4,407.4c88.3-48.4,114.9-172.2,73.2-270.1C441.9,11.2,238.4-13,198.5,175.4c-4.6,21.7-8.1,41.3-6.2,65.2,4.1-3.4,9.8-8,13.9-11.4,1.8-1.5,3.7-3,5.5-4.5,1.9-1.6,3.8-3.1,5.6-4.7,1.5-70,46-111.8,58.8-107.7,0,0,21.8,16.5,48,14.4,26.2-2.1,45.8-20.6,69.8-8.2,24,12.4,32.7,26.8,50.1,53.6,2.2,3.4,4.2,7,5.9,10.9,12.4,27.4,13.9,67.4-4.1,100.5-23.4,43-47.5,70.6-72.2,90.2-8.6,6.8-18.1,11.7-25.8,14.9-13.7,5.8-29.7,1.6-38.4-10.4-.3-.4-.6-.8-.9-1.3-12.6-18.6-8.5-25.4-30.3-44-13.4-11.4-33.5-22.9-46.9-46.8-3.7-.1-7.5-.5-11.3-1-.5,0-1-.2-1.5-.3-4,.7-8.1,1.2-12.2,1.5,8.6,21.6,17.7,35,17.7,35,19.2,25,29.7,51,27.9,70.5-1.3,14.1-9.1,24.9-24.6,29.6,16.1,45.4,4.3,10.8,41,44.1,23,22,57,31,88,24,18.7-5.3,58.5,20.4,86.1,5.5,13.7-7.4,34.4-56,34.4-56-27.4-19.3-54.6-31.8-54.6-31.8Z"/>
  <path class="st7" d="M303,131.7c.6,0,2.5,0,5.3-.2-3.1-.8-6.2-1.9-9.3-3.1,2.5,1.8,4,3.2,4,3.2Z"/>
  <path class="st7" d="M299,128.5c-3.6-2.6-9.4-6.1-16.4-7.6,4.5,2.4,10.3,5.2,16.4,7.6Z"/>
  <path class="st7" d="M321.4,133.5c.3,0,4.5-1.3,10.6-3.1-9.3.5-18.2.9-23.8,1.1,4.5,1.2,8.9,2,13.1,2Z"/>
  <path class="st2" d="M459.1,179c-2-4.4-4.2-8.5-6.7-12.3l-2-3.1c-13.8-21.2-39.9-44.8-67.4-48.8-1.9,2.8,13.1,15.5,11,18.3,3,.8,5.2,1.3,6,1.3,3.6,0,13.6,14.7,26.8,27.2,28,26.5,23.3,75.1,11.6,109.7-12.5,36.9-50.5,71.3-70.5,87.3-11,8.8-44.6,14.4-44.8,14.2-6.1-5.8-19.3-26.3-37.2-40.2,0,0-31.6-25.3-42-41.4l-2.4-5.1c-8.7.6-17.1-.4-17.1-.4,7.7,21.5,25.6,37.8,38.2,47.5,3.4,2.6,6.6,5.1,9.4,7.5,12.4,10.5,15,16.2,18.6,24.1,2.3,5,4.9,10.6,9.8,17.9.4.5.7,1.1,1.1,1.6,7.8,10.7,20.4,17.1,33.8,17.1h0c5.7,0,11.3-1.1,16.5-3.4,10.8-4.5,20.2-10,28.1-16.3,28.6-22.7,53-53.2,74.7-93.2,17.8-32.8,19.5-75.8,4.4-109.4Z"/>
  <path class="st10" d="M450,183.1c-1.8-3.9-3.7-7.6-5.9-10.9-17.4-26.8-26.2-41.2-50.1-53.6-24-12.4-43.6,6.2-69.8,8.2-26.2,2.1-48-14.4-48-14.4-12.9-4.1-57.3,37.7-58.8,107.7,5.1-4.2,10.1-8.6,15.1-13,1.3-1.2,2.5-2.3,3.8-3.5,6.9-38.8,25.5-79.5,44.1-77.5,0,0,32.2,24.7,64.5,18.9,32.2-5.8,33.8-18.9,62.9,8.7,29.2,27.6,39.9,58.1,26.1,98.8-13.8,40.7-43,75.5-62.9,91.5-11.8,9.4-22.1,15.2-28.5,18.3-4.1,2-8.9,1.2-12.2-1.9-6.4-6.2-18.8-17.5-36.1-30.9-16.5-12.8-33.6-25.7-45.5-44-5.3.6-10.6.9-16,.8-.4,0-.8,0-1.2,0,13.4,24,33.5,35.4,46.9,46.8,21.8,18.6,17.6,25.4,30.3,44,.3.4.6.9.9,1.3,8.7,12,24.7,16.2,38.4,10.4,7.6-3.2,17.2-8.1,25.8-14.9,24.6-19.6,48.8-47.2,72.2-90.2,18-33.1,16.4-73.1,4.1-100.5Z"/>
  <path class="st1" d="M603.4,554.8c2.2-27.6,22.3-47.7-5.3-67.6-26.5-19-102.3-79.7-203.1-82.7l45.2,106.5,98.1,119.6s4.3,4.3,12.2,5.7c.2.1.4.2.7.3,21,5,60.5-29,59.2-48.1-8.2,6-12.2,8.1-12.2,8.1,0,0,7.9-9,11.1-19.6,2.9-9.8,1-15.3,1-15.3-.6.9-5,5.1-8.4,7.6.7-4.7,1.2-9.6,1.6-14.6Z"/>
  <path class="st7" d="M364.9,87.3c1.3-2.9.5-4.9-2.4-6.3-23.7-11.4-44.2-7.9-59.7-1.4-3,1.3-4.4,3.4-3.3,6.3,3.4,9.3,13.7,24.5,30.7,27.6,6.4,1.2,29.2-14.1,34.7-26.3Z"/>
  <ellipse class="st7" cx="387.7" cy="68.9" rx="8.3" ry="13.8" transform="translate(158 388.8) rotate(-64.4)"/>
  <path class="st7" d="M439.4,879c-6,0-26.2-.9-36.6-12.1-4-4.4-5.8-12.9-8.9-30.4-2.3-12.6-4.9-26.8-8.8-37.8-3.3-9.2-7.1-14.8-10.1-14.8s-.7,0-1,.1c-8.5,2-18,3.1-28.2,3.1s-15.5-.7-20.9-1.4l3.5,8.2c8.6,19.9-5.9,36.2-14.9,42.1-5.1,3.7-12.2,6.8-21.6,9.5-6.5,1.9-13,2.8-19.2,2.8s-9.9-.6-14.6-1.8c-9.5-2.4-17-9.8-19.7-19.2l-9.9-34.6s-10.2-6-15.6-11.1c-2.4-2.3-8.2-7.6-13.2-18-1.3-2.6-2.1-5.5-2.6-8.3-2.1.6-4.5.9-7.1.9s-6-.5-6.3-.5l-3.7-.7c-4.1-.7-6.1-5.6-3.6-8.9l2.2-3c0,0,8.7-12.3,5-22.9l-.3-.9c-24.1-44.7-26.5-100.8-24.9-122.8,8.9-119.5,71-153.7,72.7-154.9,24-16.8,14.3-2.7,15.7-3.5l25,38.2,122.7,6.7,26.9-28.9c39.7,17.1,52.8,36,67.3,78.1,13.9,40.4,10.3,110.6,3.1,133.4-5.1,16-18.2,36.6-25.7,47.5-2.3,3.4-3.3,7.4-2.9,11.5h0c.2,1.7.5,3.3,1,4.8,4.7,14.2,11.2,47.8,11.2,47.8,5.1,3.1,13.7,11.4,15.5,22.2,0,0,3.2,1.6,4,22.6s-9.6,38.5-17.3,44.4c-12.7,9.7-20,10.7-26.5,11.5-.7,0-1.5.2-2.2.3-2.8.4-5.9.6-9.1.6Z"/>
  <path class="st1" d="M475.4,834.1s6.8-11.3,8-23.5c1.2-11.2-5.3-18.1-5.3-18.1-.3,2.3-4.1,11.1-6.8,13.5-4-28.6-9.3-56.8-14.7-72.7-1-3.1-1.7-6.2-2-9.5h0c-.5-4.9.8-9.8,3.6-13.8,7-10.2,20.7-31.1,25.6-46.7,6.8-21.5,10.3-89.5-3-128.3-13.3-38.8-25.3-69.3-63-85.6l-57.9-.4-41.8,10.2-48-9.7-24.2-26.9s-22.2,21.4-38.3,45.8c-11.2,17-39.4,59.6-41.4,135.9-.9,33.8,3.9,74.6,24.3,112,.2.5.4,1,.5,1.5,5.2,14.8-6.1,30.3-6.1,30.3,0,0,8.3,1.5,12-1.3,5.6-4.2,7.6-8.3,7.6-8.3,0,0-1.9,13,2.3,21.9,4.2,8.8,14.7,17.3,14.7,17.3,0,0-1.3-17.4,4.8-20.9l19.6,68.6c1.9,6.7,7.2,11.9,14,13.6,7,1.8,17.1,2.7,29.6-1,9.3-2.7,15.4-5.6,19.3-8.5,0,0,0,0,0,0,0,0,20.3-13.2,12-32.3,0,0-2,6.2-5.8,10.2-1.5-12-3.9-28.6,1.5-31,0,0,28.4,6.4,55.4,0,26.9-6.4,28.5,76.5,36.6,85.2,8.1,8.7,27.5,10.7,38.8,9,7.1-1,12.6-.7,24.9-10.2,6.2-4.7,15.9-19.6,14.3-37.3-7.1,12.6-11.2,11.2-11.2,11.2Z"/>
  <ellipse class="st7" cx="281.7" cy="71.8" rx="12.1" ry="7.2" transform="translate(-3.4 128.8) rotate(-25.6)"/>
  <path class="st7" d="M330.6,401.8c-3.8-.2-6.8-3.5-6.6-7.3,0-1.7.3-5.6.7-10.4-.5-.4-1.1-.8-1.5-1.4-1.2-1.5-1.8-3.4-1.6-5.3.2-2.1,1.3-3.9,2.8-5-1.1-1.5-1.7-3.4-1.4-5.4.4-2.9,2.6-5.2,5.4-5.9,0-.1,1.6-5.2,1.6-5.2l4.4,2.6c1,.6,2,.9,3.2.9s.3,0,.4,0l5.7-.3-1.4,4.8c.3.3.6.6.9,1,1.1,1.5,1.6,3.4,1.3,5.3-.3,1.8-1.2,3.4-2.6,4.5,1,1.4,1.4,3.1,1.3,4.8-.3,2.8-2.1,5-4.5,6-.3,3.3-.5,6.6-.7,9.6-.2,3.7-3.2,6.7-7,6.7s-.2,0-.3,0Z"/>
  <path class="st13" d="M337.8,366h-.3c.2-1,.4-1.9.7-2.7-2.4.1-4.4-.6-5.8-1.4-.3,1-.6,2-.8,3.1h-.9c-1.7-.4-3.4.8-3.6,2.6-.3,1.7.9,3.4,2.7,3.6h.6c-.2,1.3-.4,2.6-.6,3.8h-.7c-1.7-.2-3.3,1-3.5,2.8-.2,1.7,1.1,3.3,2.9,3.5h.5c-.6,6.1-.9,11.3-1,13.4,0,1.7,1.2,3.1,2.9,3.1,0,0,0,0,.1,0,1.6,0,2.9-1.3,3-2.9.2-3.9.5-8.5,1-13h.7c1.7.2,3.3-1,3.5-2.8.2-1.7-1.1-3.3-2.9-3.5h-.5c.2-1.2.3-2.4.5-3.5h.6c1.7.3,3.4-.9,3.6-2.6.3-1.7-.9-3.4-2.7-3.6Z"/>
  <g>
    <path class="st7" d="M331.1,434.5c-3.2,0-6.3-.3-9.4-1-3.2-.7-6-2.6-7.8-5.4-1.8-2.8-2.4-6.1-1.7-9.3l3.3-15c1.1-4.9,4.9-8.6,9.8-9.5,1.4-.3,2.9-.4,4.3-.4,2.3,0,4.5.3,6.7,1,4.8,1.4,8.2,5.5,8.8,10.4l1.7,15.2c.4,3.3-.6,6.5-2.6,9.1-2.1,2.6-5,4.2-8.3,4.5-1.6.2-3.3.3-4.9.3h0ZM327.2,410c1.4.2,2.8.3,4.2.3s1.1,0,1.6,0c.1-.2.3-.6.3-.8-.1-.9-.5-3.5-.6-4.5,0,0-.2-.1-.4-.1-.8-.2-1.6-.3-2.5-.3s-.9,0-1.4,0c-.2,0-.3,0-.4,0-.2,1.2-.6,3.5-.9,4.4,0,.2,0,.6,0,.8Z"/>
    <path class="st7" d="M330.3,414.4c-.2,0-.3,0-.5,0-2.4-.1-4.6-1.2-6.2-2.9-1.6-1.8-2.4-4.1-2.3-6.4l.6-11.2c.2-4.8,4.2-8.5,8.9-8.5s.3,0,.5,0c4.9.3,8.7,4.5,8.5,9.4l-.6,11.2c-.2,4.8-4.2,8.5-8.9,8.5h0Z"/>
  </g>
  <g>
    <path class="st0" d="M336.6,403.9c-.2-1.4-1.6-2.6-3.4-3-1.7-.4-3.5-.5-5.2-.3-1.9.2-3.3,1.3-3.7,2.7,0,0-.7,3.7-1,4.9-.4,1.9.4,5.2,2.9,5.6,2.4.4,4.9.5,7.4.4,2.6-.2,4-3.3,3.7-5.3-.2-1.3-.7-5-.7-5Z"/>
    <path class="st13" d="M342.9,421.1l-1.7-15.2c-.4-3.3-2.7-6.1-5.9-7-3-.9-6.1-1-9.2-.5-1.3.2-2.5.8-3.5,1.5-2.4,2.7-3.8,15-2.4,21.7.7,3.4,5.1,5.2,10.1,5.4,5,.3,9.6-1.5,9.6-1.5,0,0-3.1,4.5-8.1,5,1.3,0,2.6,0,3.8-.2,4.6-.5,7.9-4.6,7.3-9.2ZM333.5,414.2c-2.5.2-5,0-7.4-.4-2.6-.4-3.7-3.7-3.2-5.7.3-1.2,1-4.9,1-4.9.4-1.4,2.2-2.4,4-2.6,1.7-.2,3.5-.1,5.2.3,1.8.4,3.6,1.6,3.8,3,0,0,.5,3.8.7,5,.3,1.9-1.5,5.1-4.1,5.3Z"/>
    <path class="st3" d="M339.8,425.5s-4.6,1.8-9.6,1.5c-5-.3-9.4-2.1-10.1-5.4-1.4-6.7,0-19,2.4-21.7-1.6,1.2-2.7,2.9-3.1,4.9l-3.3,15c-1,4.5,1.9,8.9,6.4,9.9,3,.6,6.1.9,9.2.9,5-.5,8.1-5,8.1-5Z"/>
  </g>
  <g>
    <path class="st13" d="M331.1,389.3c-.9.5-1.6,2.8-1.7,4.3,0,1.4-.3,4.9-.6,10-.3,5.1,1.2,6.8,1.2,6.8,2.7.1,5-2,5.2-4.7l.6-11.2c.1-2.7-2-5-4.7-5.2Z"/>
    <path class="st3" d="M328.8,403.6c.3-5.1.5-8.5.6-10,0-1.4.8-3.8,1.7-4.3-2.7-.1-5,2-5.2,4.7l-.6,11.2c-.1,2.7,2,5,4.7,5.2,0,0-1.5-1.7-1.2-6.8Z"/>
  </g>
  <g class="st11">
    <path class="st4" d="M436.1,854.4c9.1-6.3,9-16.5,9-16.5-4.9,5.8-16.9,4.9-16.9,4.9,15.6-5.8,16.4-32.6,16.4-32.6-9,9.2-16.2,10.2-21.7,7.3,3.2-4.4,6.5-10.9,5.7-18.1,0,0-6,9.9-13.1,7-2.2-.9-3.9-2.9-4.6-5.2l-4.6-14.8c32.3-25,29.7-49,29.7-49-23.1,30.1-52.6,36.9-61.5,38.3,24.4-.6,26.2,77.1,34,85.5,8.1,8.7,27.5,10.7,38.8,9,7.1-1,12.6-.7,24.9-10.2,2.8-2.2,6.4-6.4,9.3-12.1-16.4,17.6-37.5,14.4-45.5,6.3Z"/>
    <path class="st4" d="M300,810.8c-4.7,33.2-42.5,27.2-46.2,25.3,1.8,1.2,3.9,2.2,6.1,2.8,7,1.8,17.1,2.7,29.6-1,9.3-2.7,15.4-5.6,19.3-8.5,0,0,20.3-13.2,12-32.3,0,0-2,6.2-5.8,10.2-1.5-12-3.9-28.6,1.5-31-43.1-7.9-57.6-18-57.6-18,0,0,43.8,32.2,40.9,52.5Z"/>
  </g>
  <g>
    <path class="st2" d="M330.8,745.9c-.7-.8-4.5-5-14-8.7-2.1-.7-4.3-1.4-6.6-2.2-.6-.2-1.1-.4-1.7-.6-29.4-10.7-54.7-29.4-71.2-52.8v-.2c-.1,0-.3-.2-.3-.2-23.4-36.5-26.2-60.3-27.8-102.3-.4-9.3,1.2-31.2,1.7-36.5,3-27.8,6.9-42,14.2-71.6l10.2,38.5,99.2-48.2,68.6,23.2,24.3-10.3c14,22.8,22.1,83,12.6,133.4-4.4,22.5-15.2,68.3-41.6,90.4,11,4.9,23.7,1,23.7,1,0,0-6.8,11.2-11.7,16-1.3,1.3-12.3,14-28.9,14.6,0,0,.3,3.4,3.9,6.8,0,0-1.7,1.2-8.2,3.4-3.3,1.1-6.1,1.8-11.6,1.8s-7.5-.7-11.9-2c-2.2,4.7-6,8.2-9.6,10l-9.1,4.7-4.3-8.3Z"/>
    <path class="st10" d="M427.5,474.2c-33.5,4.9-69.3-7.7-96.2-29.7-10.4,6.4-16.4,8.8-18.3,9.7-.2,0-.5.2-.7.3.6.4,5,2.8,14,3.3,0,0-12.5,10.9-27.6,10.5-15.1-.4-18.9-2.9-19-2.5s9.7,9.4,9.7,9.4c0,0-10.5,4-22.8,1.5-12.6-2.5-16.4-7.5-16.4-7.5,0,0-4.3,7.8,6.4,20.1,0,0-23.1-3-31.3-18.2-5.9,26.5-8.9,55-9.7,85.7-1,35.3,5.8,83.5,30.2,119,15.6,22.1,39.1,39.2,66.5,49.1.3.2.7.3,1,.4,0,0,0,0,0,0,2.2.8,4.5,1.5,6.7,2.2,14.9,5.7,19.4,12.9,19.4,12.9,0,0,10.3-5.3,3.9-17.7,0,0,3.8,3.8,11.8,6.5,11.4,3.8,14.9,1.2,14.9,1.2,0,0-7.8-13.4-4.9-16.1,0,0,5.8,4.2,12.6,4.9,14.2,1.5,23.6-10.4,23.6-10.4-6.9.6-15.3-5.8-18.4-10.1,10.3-8.9,23.5-28.7,29.6-39.6,6.3-11.4,14.8-33.1,19-58.1,7.5-45.2,5-82.6-4-126.8Z"/>
  </g>
  <path class="st7" d="M475.2,755.2c-7,1.3-13.7,0-19.5-3.6-2.5-1.6-4.3-3.4-5.4-5.1-8.8,6-16.5,9.6-23.2,10.8-10.5,1.9-16.9-2.1-20.4-5.8-3-3.2-4.6-7.2-4.3-11.4,0-.7.1-1.3.2-2-1.1.3-2.2.5-3.3.7-11.4,2.1-17.3-2.1-20.2-5.9-3-3.9-4.1-8.6-3.2-13.4.9-4.7,3.6-9.4,8.5-14.3-4-1.2-7.9-3.8-10.9-8.5-6.5-10.5,1-23.7,20.5-36.1,7.4-4.7,17.3-9.9,28.8-16,8.9-4.7,19.1-10.1,29.8-16.1,6.1-3.4,17.4-11.5,19.5-14.2,1.3-2.1,2.2-4.4,3.2-6.9,2.1-5.4,5.3-13.6,14.8-15.3s11.7.5,20.6,5c2.4.9,11.3,4.5,18.9,8.8,15.7,9.1,23.9,16.9,30.3,28.7,0,.2,8.7,16.9,8.4,24.9-.6,20.1-14.8,40.5-43.5,62.3-6.2,4.7-14.1,11-20.4,16-5.8,4.6-10.4,8.3-12.5,9.8-3.7,2.7-9.6,6.2-16.5,7.4,0,0,0,0,0,0Z"/>
  <path class="st13" d="M558.2,659.5c.1-4-5.5-16.7-7.2-19.8-5.7-10.4-12.7-16.8-26.6-24.9-7.9-4.6-17.9-8.3-17.9-8.3-22.3-11.6-18.6,1.7-26.1,13.5-2.9,4.5-17.2,14.2-23,17.4-24.3,13.7-45.3,23.7-58.1,31.8-9.7,6.1-21.1,16.3-17.4,22.3,6.3,10.2,23.2,1.7,30.3-2.3,29.9-16.6,34.3-18.9,52.6-28.8,3.8-2.1,6,.5,1.8,3.3-23.3,15.5-46.2,28.6-59,36.5-16.1,9.9-26,19.7-20.6,26.7,5.5,7.1,24.8-2.7,29.3-5.1,39.7-21.7,58.4-37.5,58.4-37.5,0,0,4.9-4,7.2-5.9,3.9-3.2,5.8.6,1.6,4.1-1.8,1.5-5,4.3-5.4,4.6-4,3.5-45.2,32.5-52.3,38.3-7.3,6-17.6,13.5-12.1,19.2s21.8,1.1,38.3-11.9c7.1-5.6,49.7-37.9,52.4-40.3,2-1.7,4.1.5,2.1,2.8-1.9,2.1-1.7,2.1-7.6,7.7-3.3,3.1-35.2,27.4-36.7,28.8-3.5,3.4-7,7.8-1.2,11.4,9.5,5.9,19.7.3,24.9-3.5,4.1-3,21.1-16.7,32.8-25.6,21.1-16.1,39-35,39.5-54.6Z"/>
  <path class="st7" d="M544.5,701c5.8-23.9,3.6-44.5-6.6-61.1-17-27.8-51.1-36.3-51.4-36.3l4.7-4.1,15.6-2.7c20.9-36.4,50.5-32.6,64.1-34.6,3.2-13.5,39.2-68.9,22.3-80.8-17.3-12.3-69.2-40.6-88.2-47.5l2.2-6.2s39.5,8,82.7,39.8c43.9,32.4,70.6,70.3,67.1,104.2l1.5-1.5c1.8-1.7,4.7-.5,4.7,1.9.1,5.6.1,13.5-.4,17.4-.2,1.6-1.2,14.1-7.3,25.4h0c2.1-.5,3.9,1.5,3.2,3.6-3.2,10-14.1,28.3-26.3,35.7,0,0-.8,4.5-4.1,9.1-1.5,2-6.4,9.8-21.7,18.7l3.2,1c4.6,1.5,4.4,8.1-.4,9.3l-10.8,2.6c-18.7,4.4-39.2,16.9-39.4,17l-4.5,2.8c-5.9,3.7-13.3-1.7-11.7-8.5l1.3-5.2Z"/>
  <path class="st1" d="M557.1,551.2s-44.7,1.6-68.3,42.7c0,0,87,20.4,65.4,109.5,0,0,21.8-13.4,42.4-18.3,0,0-6.2-1-11.1-4.1,2-1.1,4-2.1,6-3.1,22.8-11,27.5-19.5,27.5-19.5,0,0-10.3.5-10.9-3.4,0,0,7.5-1.1,14.7-6.1,10.5-7.4,17-19,17-19,0,0-10.6,3-13.8.7-.3-.2,4.3-1.4,15.1-12.4,10.7-11,11.3-27.9,11.3-27.9-7.1,6.9-12.3,8.2-12.3,8.2,0,0,3.4-6.8,6.5-24.5,5.1-28.8-27-70.7-53.4-92.6-53.9-44.7-123.9-64.2-123.9-64.2,0,0,106.9,107.5,87.8,134Z"/>
  <g>
    <path class="st2" d="M325.7,677.3c-53.7,0-97.3-43.7-97.3-97.3s43.7-97.3,97.3-97.3,97.3,43.7,97.3,97.3-43.7,97.3-97.3,97.3Z"/>
    <path class="st7" d="M325.7,672.4c-51,0-92.5-41.5-92.5-92.5s41.5-92.5,92.5-92.5,92.5,41.5,92.5,92.5-41.5,92.5-92.5,92.5Z"/>
    <circle class="st9" cx="325.7" cy="580" r="82.8"/>
    <path class="st3" d="M325.7,659.6c-43.9,0-79.7-35.7-79.7-79.7s35.7-79.7,79.7-79.7,79.7,35.7,79.7,79.7-35.7,79.7-79.7,79.7Z"/>
    <path class="st13" d="M405.4,580c0-14.7-4-28.4-11-40.3l-108.9,108.9c11.8,7,25.6,11,40.3,11,43.9,0,79.7-35.7,79.7-79.7Z"/>
    <g>
      <path class="st13" d="M338.2,627.2c-.3-.5-.6-1-1-1.4l-.4-.4-1-1c-.3,1-.7,2-1.2,2.9-.2.2-.3.5-.5.7-.3.4-.7.8-1,1.2l-4.6,4.6.3.3c.7.7,1.5,1.2,2.4,1.5.6.2,1.2.3,1.9.3,1.6,0,3.1-.6,4.2-1.7,1-1,1.6-2.4,1.7-3.8,0-1.1-.1-2.3-.7-3.3Z"/>
      <path class="st3" d="M296.1,586.3c-.1-1.4-.7-2.6-1.7-3.6-1.1-1.1-2.6-1.7-4.2-1.7s-3.1.6-4.2,1.7l-2.1,2.1-1.1,1.1-4.3,4.3-.4.4c-1.1,1.1-1.7,2.6-1.7,4.2s.6,3.1,1.7,4.2c1,1,2.3,1.6,3.7,1.7.2,0,.4,0,.5,0,1.6,0,3.1-.6,4.2-1.7l.4-.4,4.3-4.3,1.1-1.1,2.1-2.1c1.1-1.1,1.7-2.6,1.7-4.2s0-.4,0-.6Z"/>
      <path class="st3" d="M308,598c0-.9-.4-1.8-.8-2.5,0,0,0-.1-.1-.2-.2-.3-.5-.6-.8-.9-1-1-2.3-1.6-3.7-1.7-.2,0-.4,0-.5,0-1.6,0-3.1.6-4.2,1.7l-2.2,2.2-1.1,1.1-4.3,4.3-.3.3c-1.1,1.1-1.7,2.6-1.7,4.2s0,.4,0,.6c.1,1.4.7,2.6,1.7,3.6,1,1,2.3,1.6,3.7,1.7.2,0,.4,0,.6,0,.6,0,1.3-.1,1.8-.3.9-.3,1.7-.8,2.4-1.5l.3-.3h0c0,0,4.3-4.4,4.3-4.4l1.1-1.1,2.2-2.2c.7-.7,1.2-1.5,1.5-2.4.2-.5.2-1,.3-1.5,0-.1,0-.3,0-.4,0-.2,0-.4,0-.6Z"/>
      <path class="st7" d="M377.4,584.8c5.6-6.5,8.7-14.8,8.7-23.5,0-19.9-16.2-36.2-36.2-36.2s-18,3.5-24.6,9.7c-6.6-6.1-15.4-9.7-24.6-9.7-19.9,0-36.2,16.2-36.2,36.2s3,16.8,8.6,23.4l-.5.5c-2.6,2.6-4,6-4,9.6s1.4,7.1,4,9.6c2.2,2.2,5,3.5,8,3.9.4,2.9,1.7,5.6,3.8,7.8,2.2,2.2,4.9,3.5,7.9,3.9.4,3,1.7,5.7,3.9,7.9,2.2,2.2,5,3.5,8,3.9.4,2.9,1.7,5.6,3.8,7.7,2.6,2.6,6,4,9.6,4s5.3-.8,7.5-2.3c2.3,1.6,4.9,2.4,7.8,2.4s7.1-1.4,9.6-4c2.2-2.2,3.5-5,3.9-8.1,2.9-.4,5.6-1.7,7.7-3.8,2.1-2.1,3.4-4.8,3.8-7.7,3-.4,5.8-1.7,8-3.9,2.1-2.1,3.5-4.9,3.9-7.9,2.9-.4,5.7-1.7,7.8-3.9s4-6,4-9.6-1.4-7.1-4-9.6l-.4-.4ZM327.4,543.5l1.4-1.4c5.4-5.9,13-9.3,21-9.3,15.7,0,28.5,12.8,28.5,28.5s-2.3,13-6.4,18c-.6.7-1.3,1.5-2,2.2,0,0,0,0-.1.1l-30.1-30.1c-1-1-2.6-1-3.5,0l-8.5,8.5-1.1,1.1-.4.4-1.5,1.5c0,0-.2.2-.2.2-1.1,1-2.5,1.5-4,1.5s-3.2-.6-4.3-1.8c-2.3-2.4-2.1-6.2.2-8.5l1.4-1.4,6.9-6.9,2.6-2.6ZM286.5,599.1c-1.1,1.1-2.6,1.7-4.2,1.7s-.4,0-.5,0c-1.4-.1-2.7-.7-3.7-1.7-1.1-1.1-1.7-2.6-1.7-4.2s.6-3.1,1.7-4.2l.4-.4,4.3-4.3,1.1-1.1,2.1-2.1c1.1-1.1,2.6-1.7,4.2-1.7s3.1.6,4.2,1.7c1,1,1.6,2.2,1.7,3.6,0,.2,0,.4,0,.6,0,1.6-.6,3.1-1.7,4.2l-2.1,2.1-1.1,1.1-4.3,4.3-.4.4ZM298.5,610.5l-.3.3c-.7.7-1.5,1.2-2.4,1.5-.6.2-1.2.3-1.8.3s-.4,0-.6,0c-1.4-.1-2.7-.7-3.7-1.7-1-1-1.6-2.2-1.7-3.6,0-.2,0-.4,0-.6,0-1.6.6-3.1,1.7-4.2l.3-.3,4.3-4.3,1.1-1.1,2.2-2.2c1.1-1.1,2.6-1.7,4.2-1.7s.4,0,.5,0c1.4.1,2.7.7,3.7,1.7.3.3.5.6.8.9,0,0,0,.1.1.2.5.8.8,1.6.8,2.5,0,.2,0,.4,0,.6s0,.3,0,.4c0,.5-.1,1-.3,1.5-.3.9-.8,1.7-1.5,2.4l-2.2,2.2-1.1,1.1-4.3,4.3h0ZM310.4,622.2h0c0,0-.2.3-.2.3-.7.7-1.5,1.2-2.4,1.5-.6.2-1.2.3-1.8.3s-.3,0-.5,0c-1.4-.1-2.7-.7-3.7-1.7s-1.6-2.3-1.7-3.6c0-.2,0-.4,0-.6,0-.6,0-1.2.3-1.8.3-.9.8-1.7,1.5-2.4l.2-.2h0c0,0,1-1.1,1-1.1l2.2-2.2,1.2-1.2,1.1-1.1,2.2-2.2c.7-.7,1.5-1.2,2.3-1.4.6-.2,1.2-.3,1.9-.3s.4,0,.6,0c.7,0,1.4.3,2,.6.1,0,.2.1.3.2.5.3.9.6,1.3,1s.7.8.9,1.3c0,.1.1.2.2.3.3.6.5,1.3.6,2,0,.8,0,1.7-.3,2.5-.3.9-.7,1.7-1.4,2.4l-2.2,2.2-1.1,1.1-1.2,1.2-2.2,2.2-1,1ZM323.1,632.9l-1,1h0c0,0,0,.2,0,.2-.7.7-1.6,1.3-2.6,1.5-.5.1-1,.2-1.6.2-1.6,0-3.1-.6-4.2-1.7-1-1-1.6-2.2-1.7-3.6,0-.2,0-.4,0-.7,0-.5,0-1.1.2-1.6.3-1,.8-1.9,1.5-2.6h0c0,0,0-.2,0-.2l1-1,2.2-2.2,1.2-1.2,1.1-1.1,2.4-2.4c.6-.6,1.3-1.1,2.1-1.4.7-.2,1.4-.4,2.1-.4s.3,0,.5,0c.5,0,1.1.2,1.6.3,0,0,.2,0,.3,0,.7.3,1.3.7,1.9,1.3.6.6,1,1.2,1.3,1.9,0,0,0,.2,0,.3,0,0,0,.2.1.3.2.6.3,1.2.3,1.8s0,0,0,.1c0,.7-.1,1.3-.4,2-.3.8-.8,1.5-1.4,2.1l-4.6,4.6-2.2,2.2ZM338.9,630.5c-.1,1.4-.7,2.7-1.7,3.8-1.1,1.1-2.6,1.7-4.2,1.7s-1.3-.1-1.9-.3c-.9-.3-1.7-.8-2.4-1.5l-.3-.3,4.6-4.6c.4-.4.7-.8,1-1.2.2-.2.3-.5.5-.7.6-.9,1-1.9,1.2-2.9l1,1,.4.4c.4.4.7.9,1,1.4.6,1,.8,2.2.7,3.3ZM372.3,599.1c-1,1-2.2,1.6-3.6,1.7-.2,0-.4,0-.7,0-1.6,0-3.1-.6-4.2-1.7,0,0,0,0,0,0l-.3-.3-4.3-4.3-1.1-1.1-17-17-1.1-1.1-2.5-2.5c-.9-.9-2.3-.9-3.2,0h0c-.9.9-.9,2.4,0,3.2l1.9,1.9h0s18.7,18.7,18.7,18.7l1.1,1.1,4.3,4.3.3.3s0,0,0,0c1.3,1.3,1.9,3.1,1.7,4.8-.1,1.3-.7,2.6-1.7,3.6-1,1-2.3,1.6-3.6,1.7-.2,0-.4,0-.6,0-1.6,0-3.1-.6-4.2-1.7h0s0,0-.1-.1l-.2-.2-4.3-4.3-1.1-1.1-20.8-20.8c-.9-.9-2.3-.9-3.2,0h0c-.9.9-.9,2.3,0,3.2l20.8,20.8,1.1,1.1,4.3,4.3.3.3c1.1,1.1,1.6,2.6,1.6,4.1s0,.5,0,.7c-.2,1.3-.7,2.6-1.7,3.5-1,1-2.3,1.6-3.6,1.7-.2,0-.4,0-.6,0-1.6,0-3.1-.6-4.2-1.7l-.2-.2-.9-.9-3.4-3.4-.8-.8c0-.1-.1-.2-.2-.4-.5-.8-1-1.6-1.7-2.2-.8-.8-1.8-1.5-2.8-2-.9-.5-2-.8-3-1,0,0,0,0-.1,0-.5,0-1-.1-1.6-.1s-.4,0-.5,0c-.3,0-.6,0-.8,0,0-.3,0-.6,0-.9,0-.7,0-1.5-.2-2.2,0,0,0,0,0,0-.2-1.2-.7-2.3-1.3-3.4-.4-.8-1-1.5-1.6-2.1-.6-.6-1.4-1.2-2.1-1.6-1.1-.6-2.2-1.1-3.5-1.3h-.1c0,0,0,0,0,0-.6,0-1.2-.2-1.8-.2s-.2,0-.3,0c-.3,0-.7,0-1,0,0-.3,0-.7,0-1,0,0,0-.1,0-.2,0-.6,0-1.2-.2-1.8,0,0,0,0,0,0h0c0,0,0,0,0,0,0,0,0-.2,0-.3-.1-.5-.2-1-.4-1.4,0,0,0-.1,0-.2-.3-.7-.6-1.3-1-1.9-.1-.2-.3-.4-.5-.6,0,0,0-.1-.1-.2-.2-.3-.5-.6-.8-.9-1.6-1.6-3.6-2.6-5.7-2.9-.6,0-1.2-.2-1.7-.2s-.9,0-1.3,0c0-.4,0-.8,0-1.2,0-.6,0-1.3-.2-1.9-.4-2.1-1.4-4-2.9-5.6-2.1-2.1-4.9-3.2-7.9-3.1-2.7.1-5.3,1.4-7.3,3.3l-1.9,1.9c-.7-.7-1.4-1.5-2-2.3-4.2-5.2-6.4-11.4-6.4-17.9,0-15.7,12.8-28.5,28.5-28.5s15.9,3.5,21.3,9.6l-8.6,8.6c-1.9,1.9-3.2,4.5-3.3,7.3-.1,3,1,5.8,3.1,7.9,3.1,3.1,7.7,4,12.1,2.1,1-.4,1.8-1.2,2.6-1.9s.1-.1.2-.2l1.5-1.5.4-.4,1.1-1.1,6.9-6.9,28.6,28.6,1.1,1.1,4.3,4.3h.1c1,1.2,1.8,2.5,1.9,4s-.5,3.5-1.7,4.8Z"/>
      <path class="st13" d="M331.4,620.1c0,0,0-.2-.1-.3,0,0,0-.2,0-.3-.3-.7-.7-1.3-1.3-1.9-.6-.6-1.2-1-1.9-1.3,0,0-.2,0-.3,0-.5-.2-1-.3-1.6-.3-.2,0-.3,0-.5,0-.7,0-1.4.1-2.1.4-.8.3-1.5.8-2.1,1.4l-2.4,2.4-1.1,1.1-1.2,1.2-2.2,2.2-1,1h0c0,0,0,.2,0,.2-.7.7-1.3,1.6-1.5,2.6-.1.5-.2,1-.2,1.6s0,.4,0,.7c.1,1.3.7,2.6,1.7,3.6,1.1,1.1,2.6,1.7,4.2,1.7s1.1,0,1.6-.2c1-.3,1.9-.8,2.6-1.5h0c0,0,0-.2,0-.2l1-1,2.2-2.2,4.6-4.6c.6-.6,1.1-1.3,1.4-2.1.2-.6.4-1.3.4-2,0,0,0,0,0-.1,0-.6,0-1.2-.3-1.8Z"/>
    </g>
    <g>
      <polygon class="st0" points="340 575.2 335.9 571 335.9 571 332.6 574.3 336.2 577.8 336.2 577.8 341.2 582.9 344.5 579.6 341.1 576.3 340 575.2"/>
      <polygon class="st0" points="324.2 582.7 324.1 582.6 324.1 582.6 320.8 585.8 320.9 586 320.9 586 321.9 586.9 329.5 594.6 332.8 591.3 325.3 583.8 324.2 582.7"/>
      <path class="st3" d="M322.4,584.2h0c.9-.9,2.3-.9,3.2,0l7.1,7.1,8.4-8.4-5-5h0s-1.9-1.9-1.9-1.9c-.9-.9-.9-2.4,0-3.2h0c.9-.9,2.4-.9,3.2,0l2.5,2.5,1.1,1.1,3.4,3.4,8.4-8.4-14.9-14.9-6.9,6.9-1.1,1.1-.4.4-1.5,1.5c0,0-.1.1-.2.2-.8.8-1.6,1.5-2.6,1.9-4.4,1.9-9,1-12.1-2.1-2.1-2.1-3.2-4.9-3.1-7.9s1.4-5.3,3.3-7.3l8.6-8.6c-5.4-6.1-13.1-9.6-21.3-9.6-15.7,0-28.5,12.8-28.5,28.5s2.3,12.8,6.4,17.9c.6.8,1.3,1.6,2,2.3l1.9-1.9c1.9-1.9,4.5-3.2,7.3-3.3,3-.1,5.8,1,7.9,3.1s2.5,3.5,2.9,5.6c.1.6.2,1.3.2,1.9s0,.8,0,1.2c.4,0,.9,0,1.3,0s1.2,0,1.7.2c2.2.4,4.1,1.4,5.7,2.9.3.3.6.6.8.9,0,0,0,.1.1.2.2.2.3.4.5.6.4.6.7,1.3,1,1.9,0,0,0,.1,0,.2.2.5.3,1,.4,1.4,0,0,0,.2,0,.3h0s0,0,0,0c0,0,0,0,0,0,.1.6.2,1.2.2,1.8s0,.1,0,.2c0,.3,0,.7,0,1,.3,0,.7,0,1,0,0,0,.2,0,.3,0,.6,0,1.2,0,1.8.2,0,0,0,0,0,0h.1c1.2.3,2.4.8,3.5,1.4.8.5,1.5,1,2.1,1.6h0l8.3-8.3-7.1-7.1c-.9-.9-.9-2.3,0-3.2Z"/>
      <path class="st3" d="M349.8,532.9c-8,0-15.7,3.4-21,9.3l-1.4,1.4-2.6,2.6-6.9,6.9-1.5,1.5c-2.3,2.3-2.3,6.1,0,8.4,1.1,1.1,2.6,1.7,4.2,1.7s2.9-.5,4-1.5c0,0,.2-.1.2-.2l1.5-1.5.4-.4,1.1-1.1,8.1-8.1,1.1-1.1,1.1-1.1,18.1,18.1,19.2-19.2c-4.7-9.4-14.4-15.9-25.5-15.9Z"/>
      <path class="st3" d="M318,606.1c-.4-.4-.9-.7-1.3-1-.1,0-.2-.1-.3-.2-.6-.3-1.3-.5-2-.6-.2,0-.4,0-.6,0-.7,0-1.3.1-1.9.3-.9.3-1.7.8-2.3,1.4l-2.2,2.2-1.1,1.1-1.2,1.2-2.2,2.2-1,1h0c0,0-.2.3-.2.3-.7.7-1.2,1.5-1.5,2.4-.2.6-.3,1.2-.3,1.8s0,.4,0,.6c.1,1.4.7,2.6,1.7,3.6l16.4-16.4h0Z"/>
      <path class="st13" d="M358.2,593.3l1.1,1.1,4.3,4.3.3.3s0,0,0,0c1.1,1.1,2.6,1.7,4.2,1.7s.4,0,.7,0c1.3-.1,2.6-.7,3.6-1.7,1.1-1.1,1.7-2.6,1.7-4.2s-.6-3.1-1.7-4.2l-.3-.3-4.3-4.3-1.1-1.1-13.7-13.7-8.4,8.4,13.7,13.7Z"/>
      <path class="st13" d="M324.2,608.4s0,0,0,0c.1.7.2,1.4.2,2.2,0,.3,0,.6,0,.9.3,0,.6,0,.8,0,.2,0,.4,0,.5,0,.5,0,1,0,1.6.1,0,0,0,0,.1,0,1.1.2,2.1.5,3,1,1,.5,1.9,1.2,2.8,2,.7.7,1.2,1.4,1.7,2.2,0,.1.1.2.2.4l.8.8,3.4,3.4.9.9.2.2c1.1,1.1,2.6,1.7,4.2,1.7s.4,0,.6,0c1.4-.1,2.6-.7,3.6-1.7,1-1,1.5-2.2,1.7-3.5,0-.2,0-.5,0-.7,0-1.5-.6-3-1.6-4.1l-.3-.3-4.3-4.3-1.1-1.1-13.7-13.7-8.3,8.3c.6.6,1.2,1.4,1.6,2.1.6,1.1,1.1,2.2,1.3,3.4Z"/>
      <path class="st13" d="M346.5,605l1.1,1.1,4.3,4.3.2.2s0,0,.1.1h0c1.1,1.1,2.6,1.8,4.2,1.8s.4,0,.6,0c1.4-.1,2.6-.7,3.6-1.7,1-1,1.5-2.3,1.7-3.6.2-1.7-.4-3.5-1.7-4.8,0,0,0,0,0,0l-.3-.3-4.3-4.3-1.1-1.1-13.7-13.7-8.4,8.4,13.7,13.7Z"/>
      <path class="st13" d="M370,581.5c.7-.7,1.3-1.4,2-2.2,4.2-5.1,6.4-11.4,6.4-18s-1.1-8.8-3-12.6l-19.2,19.2,13.7,13.7s0,0,.1-.1Z"/>
      <path class="st13" d="M305.8,624.2c.6,0,1.2,0,1.8-.3.9-.3,1.7-.8,2.4-1.5l.2-.2h0c0,0,1-1.1,1-1.1l2.2-2.2,1.2-1.2,1.1-1.1,2.2-2.2c.7-.7,1.1-1.5,1.4-2.4.3-.8.4-1.7.3-2.5,0-.7-.3-1.3-.6-2,0-.1-.1-.2-.2-.3-.3-.5-.6-.9-.9-1.3l-16.4,16.4c1,1,2.3,1.6,3.7,1.7.2,0,.3,0,.5,0Z"/>
    </g>
  </g>
  <path class="st7" d="M540.8,549.8c-1.5,0-3,.1-4.5.3-.4,0-.9.1-1.3.2-1.1.2-2.1.3-3.2.6-.6.1-1.2.3-1.7.4-.9.2-1.9.5-2.8.8-.6.2-1.2.4-1.9.6-.9.3-1.8.6-2.7,1-.6.2-1.2.5-1.9.7-.9.4-1.8.7-2.6,1.1-.6.3-1.2.5-1.8.8-.9.4-1.7.9-2.6,1.3-.5.3-1.1.6-1.6.9-.9.5-1.8,1.1-2.7,1.6-.4.3-.9.5-1.3.8-1.3.8-2.5,1.7-3.6,2.6-1,.8-2,1.6-3,2.4-.3.2-.6.5-.9.7-.6.5-1.3,1.1-1.9,1.6-.3.3-.6.6-.9.9-.5.5-1.1,1-1.6,1.5-.3.3-.6.6-.9.9-.2.2-3.6,3.8-5.9,9-3.6,8-5.3,15.2-5.4,15.1,0,0,6.7-.4,10.7,5.2-.1-4.1.8-8.2,2.9-13.8,3.6-9.7,11-16.4,21.7-23.3,11.5-7.4,22.3-9.7,38.6-12.7,0,0-6.3-1.7-17.4-1.3Z"/>
  <g>
    <path class="st7" d="M461.3,623c-.2-.5-.4-1.1-.6-1.7-2.4-8.9,2.1-20.8,15.3-25.4,10.6-3.7,22.2.9,26,10.3.2.6.4,1.1.6,1.7,2.7,9.9-4.2,20.7-15.7,24.5-10.9,3.7-21.9-.4-25.5-9.4h0ZM488.4,608.8c-.4-1-1.3-1.8-2.6-2.3-3.9-1.5-9.4.4-11.9,4.1-1.1,1.7-1.4,3.4-.9,4.8.4,1,1.3,1.8,2.6,2.3,3.9,1.5,9.4-.4,11.9-4.1,1.1-1.7,1.4-3.4.9-4.8Z"/>
    <path class="st13" d="M477.7,600.6c-10.5,3.7-13.9,12.9-12.1,19.4,2,7.2,10.8,10.7,19.7,7.7,8.9-3,14.5-11.2,12.5-18.5-2-7.2-11.2-11.8-20.1-8.6ZM491.6,616.4c-3.8,5.7-11.9,8.4-17.9,6-6.1-2.4-7.9-8.9-4-14.6,3.8-5.7,11.9-8.4,17.9-6,6.1,2.4,7.9,8.9,4,14.6Z"/>
    <path class="st7" d="M469.7,607.8c-3.8,5.7-2,12.2,4,14.6,6.1,2.4,14.1-.3,17.9-6,3.8-5.7,2-12.2-4-14.6-6.1-2.4-14.1.3-17.9,6ZM471.9,608.6c2.7-4,8-6.1,12.5-5.3l-10.9,16.1c-3.5-2.3-4.3-6.8-1.6-10.8ZM489.5,615.5c-2.7,4-8,6.1-12.5,5.3l10.9-16.1c3.5,2.3,4.3,6.8,1.6,10.8Z"/>
    <path class="st13" d="M476.9,620.8c4.5.8,9.8-1.3,12.5-5.3,2.7-4,1.9-8.5-1.6-10.8l-10.9,16.1Z"/>
    <path class="st13" d="M484.4,603.3c-4.5-.8-9.8,1.3-12.5,5.3-2.7,4-1.9,8.5,1.6,10.8l10.9-16.1Z"/>
  </g>
  <path class="st7" d="M122.1,695.9s19.7,12.6,28.8-11.2c8.9-23.4-25.8-3.2-25.8-3.2l-3,14.5Z"/>
  <path class="st7" d="M199.9,735.4c7.1.7,13.7-1.1,19.2-5.2,2.4-1.8,4-3.7,5-5.6,9.3,5.3,17.2,8.2,24,8.9,10.6,1,16.7-3.5,19.9-7.4,2.8-3.4,4-7.5,3.4-11.7,0-.7-.2-1.3-.4-2,1.1.2,2.2.3,3.3.5,11.5,1.1,17.1-3.5,19.7-7.5,2.6-4.1,3.4-9,2.1-13.7-1.3-4.6-4.4-9.1-9.7-13.5,3.9-1.6,7.6-4.4,10.1-9.4,5.6-11-2.9-23.5-23.4-34.3-7.8-4.1-18.1-8.5-30-13.5-9.3-4-19.8-8.5-31-13.6-6.4-2.9-18.2-10-20.6-12.6-1.5-2-2.6-4.2-3.7-6.6-2.6-5.2-16.7-8.6-26.4-9.6s-1.3-3-9.8,2.2c-2.3,1.1-10.9,5.4-18.1,10.4-14.9,10.4-22.4,18.8-27.9,31.1,0,.2-7.2,17.6-6.4,25.5,2.2,20,18,39.1,48.4,58.5,6.6,4.2,15,9.8,21.7,14.2,6.2,4.1,11.1,7.4,13.3,8.7,3.9,2.4,10.1,5.4,17,6.1,0,0,0,0,0,0Z"/>
  <path class="st13" d="M109.4,646.7c-.4-3.9,4.1-17.1,5.6-20.4,4.8-10.8,11.3-17.8,24.4-27,7.5-5.3,17.2-9.8,17.2-9.8,21.3-13.4,18.6.2,27.2,11.4s18.3,12.7,24.3,15.5c25.4,11.7,47.1,19.9,60.5,26.9,10.1,5.3,22.4,14.5,19.1,20.9-5.5,10.7-22.9,3.6-30.4.2-31.2-14.1-35.8-16-54.7-24.4-4-1.8-5.9.9-1.5,3.4,24.5,13.6,48.4,24.8,61.8,31.6,16.9,8.6,27.5,17.5,22.7,24.9-4.9,7.5-24.9-.6-29.7-2.7-41.3-18.4-61.3-32.6-61.3-32.6,0,0-5.2-3.6-7.7-5.2-4.2-2.9-5.7,1.1-1.2,4.2,2,1.3,5.4,3.9,5.7,4.1,4.3,3.2,47.7,28.6,55.2,33.9,7.7,5.4,18.6,12,13.6,18.2-6.6,8-21.6,2.9-39.1-8.7-7.5-5-52.6-33.7-55.5-35.9-2.1-1.6-4,.9-1.8,2.9,2.1,2,1.9,1.9,8.2,7.1,3.5,2.9,37.3,24.4,38.9,25.7,3.8,3.1,7.6,7.2,2.2,11.2-8.9,6.6-19.6,1.9-25.1-1.4-4.4-2.7-22.4-14.9-34.8-22.9-22.4-14.3-41.7-31.7-43.9-51.2Z"/>
  <path class="st7" d="M132.3,682.1c-6.1-23.8-4.2-44.4,5.7-61.2,16.6-28,50.5-37,50.9-37.1l-4.8-4-15.6-2.4c-21.4-36.1-50.9-31.9-64.6-33.7-3.4-13.4-40.2-68.3-23.5-80.5,17.2-12.5,65.5-43.3,84.3-50.5l.9-4.5s-56.8,21.3-98.7,54.8c-26.2,21-53.1,57.5-49,91.4l-1.5-1.4c-1.8-1.7-4.7-.4-4.7,2,0,5.6,0,13.5.6,17.4s1.4,14.1,7.7,25.3h0c-2.1-.4-3.9,1.6-3.2,3.6,3.4,9.9,14.5,28.1,26.8,35.3,0,0,.9,4.4,4.2,9,1.5,2,6.5,9.7,21.9,18.4l-3.1,1.1c-4.6,1.6-4.3,8.2.5,9.3l10.8,2.4c18.8,4.1,39.4,16.3,39.7,16.5l4.6,2.7c6,3.6,13.3-1.9,11.6-8.6l-1.3-5.2Z"/>
  <path class="st1" d="M117,530.6c1.2-2.2,21.6,4.3,32.5,13.6,15.5,13.3,21.8,35.3,14.6,39.3-23.9,13.2-56.6,42.5-41.5,101.2,0,0-22-13.1-42.6-17.6,0,0,6.2-1.1,11-4.3-2-1.1-4-2.1-6-3-22.9-10.7-27.8-19.1-27.8-19.1,0,0,10.3.4,10.8-3.5,0,0-7.5-1-14.7-5.9-10.6-7.2-17.3-18.8-17.3-18.8,0,0,10.7,2.9,13.8.5.3-.2-4.3-1.3-15.2-12.2-10.9-10.9-11.7-27.7-11.7-27.7,7.2,6.8,12.4,8.1,12.4,8.1,0,0-3.5-6.8-6.9-24.4-5.5-28.7,18.4-63.1,44.4-85.4,46.2-39.7,90.4-56.3,90.4-56.3,4.5,13.2-65.7,89.5-46.1,115.7Z"/>
  <path class="st7" d="M128.3,530.4c26.1,6.1,44.9,28.5,47,54,0,0-6.7-1-11.1,4.3,1.4-30.8-24.3-51.9-53.3-58.5,0,0,6.7-2.3,17.4.2Z"/>
  <g class="st11">
    <path class="st4" d="M560.4,650.4c8.2,2.3,15.8-7.2,15.8-7.2-16.9-1-24.2-12.7-24.2-12.7,11.4-.4,16.6-13.7,16.6-13.7-19.6,3.1-30.7-10.2-30.7-10.2,19-7.4,23.6-23.8,23.6-23.8-23.2,9.5-40.5-7.5-3.6-31.7-16.2,3-26.9,5.2-38.4,12.6-10.7,6.9-18.1,13.6-21.7,23.3-1.3,3.4-2.1,6.2-2.5,8.8,19.8,6.9,76.8,33.5,58.9,107.5h0c28-35.3,6.2-53,6.2-53Z"/>
    <path class="st4" d="M164.2,583.5c-1.5-27.7-25.5-46.7-52.6-53.1,34.2,21.6,16.9,40.7-7.2,33.1,0,0,6.7,17.9,27.4,23.9,0,0-9.9,16.1-30.6,14.8,0,0,7,14.2,18.9,13.4,0,0-6.1,13.8-23.6,16.9,0,0,9.1,9.7,17.3,6.3,0,0,.3,21.8,8.8,45.7-15-58.5,17.7-87.8,41.6-101Z"/>
    <path class="st4" d="M164.1,554.3s8.2-50.5,40.7-89.3c0,0-43.1,19.6-68.8,67.8,0,0,7.9,2.9,15,8.3,6.1,4.7,9.8,8.7,13.1,13.3Z"/>
    <path class="st4" d="M496.1,570.9s17.9-20,44.7-21.1c0,0-29.3-59.9-89.1-78.2,0,0,5.8,3.5,16.2,17,6.6,8.6,14,24.3,19.9,41.8,3.4,10.2,5.4,17.1,8.3,40.5Z"/>
  </g>
  <g>
    <path class="st7" d="M200.6,604.2c.2-.6.3-1.1.4-1.7,1.7-9-3.8-20.5-17.3-24.1-10.8-2.9-22.1,2.7-25.1,12.4-.2.6-.3,1.2-.4,1.7-1.9,10.1,5.8,20.3,17.7,23.2,11.2,2.8,21.8-2.2,24.7-11.5h0ZM172.5,592.3c.3-1.1,1.2-1.9,2.4-2.5,3.7-1.8,9.4-.4,12.2,3.1,1.2,1.6,1.7,3.3,1.3,4.7s-1.2,1.9-2.4,2.5c-3.7,1.8-9.4.4-12.2-3.1-1.2-1.6-1.7-3.3-1.3-4.7Z"/>
    <path class="st13" d="M182.5,583.2c10.8,2.9,14.9,11.7,13.6,18.3-1.4,7.4-9.9,11.5-19,9.3-9.1-2.2-15.3-10-13.9-17.4,1.4-7.4,10.2-12.6,19.3-10.2ZM169.9,600.1c4.3,5.3,12.5,7.4,18.3,4.5,5.8-2.9,7.1-9.5,2.8-14.8-4.3-5.3-12.5-7.4-18.3-4.5-5.8,2.9-7.1,9.5-2.8,14.8Z"/>
    <path class="st7" d="M191,589.7c4.3,5.3,3,12-2.8,14.8-5.8,2.9-14.1.8-18.3-4.5-4.3-5.3-3-12,2.8-14.8,5.8-2.9,14.1-.8,18.3,4.5ZM188.9,590.8c-3-3.8-8.5-5.5-12.9-4.3l12.2,15.2c3.3-2.6,3.7-7.2.7-10.9ZM172,599c3,3.8,8.5,5.5,12.9,4.3l-12.2-15.2c-3.3,2.6-3.7,7.2-.7,10.9Z"/>
    <path class="st13" d="M184.9,603.3c-4.5,1.2-9.9-.5-12.9-4.3-3-3.8-2.6-8.3.7-10.9l12.2,15.2Z"/>
    <path class="st13" d="M176,586.5c4.5-1.2,9.9.5,12.9,4.3,3,3.8,2.6,8.3-.7,10.9l-12.2-15.2Z"/>
  </g>
  <path class="st9" d="M537.1,638.7c-8.7-14.3-23.2-23.3-34.1-28.8.9,9.8-5.5,18.9-16.7,22.7-5.6,1.9-10.5,1.3-15.3-.3,25.9,11.1,38.3-6.1,38.3-6.1,12.3,6.4,22.4,29.1,19.9,49.6-2.5,20.5-41.4,49.2-51.3,57-9.9,7.8-19.2,8.2-19.2,8.2.5.7,1.3,1.4,2.3,2.1,9.5,5.9,19.6.2,24.8-3.5,4.1-3,19.7-15.7,31.4-24.6,11-8.4,22.5-18.6,29.8-28.2,2-18-.8-33.1-9.9-48.2Z"/>
  <path class="st3" d="M162.9,615.3s-12.8,26.1-.3,43c1.5,2,1.4,4.8-.3,6.7h0c-2.3,2.6-6.5,2.3-8.4-.6-5-7.5-12.2-26.9,9.1-49.1Z"/>
  <g>
    <path class="st9" d="M487,700c-11.9,9.2-43.5,32.5-56.8,38.1-12.1,5.1-17.7,4.6-17.7,4.6h0c.2.6.6,1.3,1.2,1.9,7.2,7.5,21.8,1.1,38.3-11.9,7.1-5.6,49.7-37.9,52.4-40.3.7-.6,1.4-.7,1.9-.5-.7-.5-7.4-1.2-19.3,8Z"/>
    <path class="st9" d="M385.5,723.7h0c.2,1.1.6,2.2,1.4,3.2,5.5,7.1,24.8-2.7,29.3-5.1,39.7-21.7,58.4-37.5,58.4-37.5,0,0,4.9-4,7.2-5.9-5.5,4.2-63.9,35.9-77.2,41.9-13.3,6.1-19.1,3.4-19.1,3.4Z"/>
    <path class="st9" d="M381.9,691.5c6.3,10.2,23.2,1.7,30.3-2.3,28.7-15.9,34-18.7,50.4-27.6,0,0-46.6,22.3-59.8,27.9-13.2,5.5-21,2-21,2Z"/>
    <path class="st3" d="M428.4,658.3c12.1-5.7,36.8-19.1,44.4-23.2.9-.5,2.3-1.3,2.3-1.3-2-.7-5.4-2-7.3-3.2,0,0-1.6,1.1-1.8,1.2-3.4,2.3-6.6,4.3-8.6,5.5-24.3,13.7-45.3,23.7-58.1,31.8-7.6,4.8-16.3,12.1-17.8,18,6.7-11.1,32.7-22.2,47-28.8Z"/>
  </g>
  <g>
    <path class="st9" d="M183.5,683c12.6,8.2,46,28.9,59.7,33.4,12.4,4.1,18.1,1.5,18.1,1.5h0c-.2.7-.5,1.3-1.1,2-6.6,8-21.6,2.9-39.1-8.7-7.5-5-52.6-33.8-55.5-35.9-.7-.5-1.4-.6-2-.4.6-.6,7.3,0,19.9,8.1Z"/>
    <path class="st9" d="M286.7,696.7h0c0,1.1-.4,2.2-1.1,3.3-4.9,7.5-24.9-.6-29.7-2.7-41.3-18.4-61.3-32.6-61.3-32.6,0,0-5.2-3.6-7.7-5.2,5.8,3.7,66,31.6,79.8,36.6,13.8,5,20,.7,20,.7Z"/>
    <path class="st9" d="M287.7,664.2c-5.5,10.7-22.9,3.6-30.4.2-29.9-13.5-35.4-15.8-52.5-23.4,0,0,48,19.4,61.6,23.8,13.6,4.4,21.3-.6,21.3-.6Z"/>
    <path class="st3" d="M238.6,635c-12.5-4.7-38.2-16-46.1-19.5-1-.5-1.7-.8-1.7-.8,2.8-1.2,5-3,6.1-4.2,0,0,1.9,1.1,2.1,1.2,3.5,2,6.9,3.8,9.1,4.8,25.4,11.7,47.1,19.9,60.5,26.9,8,4.2,17.3,10.8,19.3,16.5-7.6-10.5-34.4-19.4-49.2-24.9Z"/>
  </g>
  <path class="st9" d="M192.2,714.2c-13.3-8.2-57.3-30.7-55-66,1.6-25.5,15.4-38.9,22.9-44.3-.8-1.6-1.4-3.2-1.8-4.9-7.5,5.5-14.9,12.7-20.4,22-9.9,16.8-11.8,37.3-5.7,61.2v.5c6.4,5.4,13.5,10.5,20.9,15.2,12.4,7.9,30.4,20.2,34.8,22.9,5.5,3.3,16.1,8.1,25.1,1.4.8-.6,1.4-1.3,1.9-1.9-.5.1-9.9,1.9-22.8-6.1Z"/>
</svg>