<?xml version="1.0" encoding="utf-8"?>
<!-- Generator: Adobe Illustrator 26.3.1, SVG Export Plug-In . SVG Version: 6.00 Build 0)  -->
<svg version="1.1" id="Layer_1" xmlns="http://www.w3.org/2000/svg" xmlns:xlink="http://www.w3.org/1999/xlink" x="0px" y="0px"
	 viewBox="0 0 1000 240" style="enable-background:new 0 0 1000 240;" xml:space="preserve">
<style type="text/css">
	.st0{fill:#030303;}
	.st1{fill:#6898B8;}
	.st2{fill:#A2C9D2;}
	.st3{fill:#FFF5D1;}
	.st4{fill:#0C3555;}
	.st5{fill:#FFFFFF;}
	.st6{fill:#F8C37A;}
	.st7{fill:#FCE6AD;}
	.st8{fill:#FFF6D1;}
	.st9{fill:#0E476C;}
	.st10{fill:#195B7F;}
	.st11{fill:#D2E5EA;}
</style>
<g>
	<path class="st1" d="M207.3820038,42.8555145c-2.8986664,7.1951752-8.7971039,12.7908173-16.2110291,15.2178955
		c0,0,0-0.0000916,0,0c-0.017868,0.005806-0.0342712,0.0145569-0.0521545,0.0203629
		c-0.5180359,0.7957573-1.1946411,1.4761505-1.9874573,1.998703c-1.2811737,2.3581543-5.4543915,3.8590927-7.8613739,4.6642456
		c-2.7723389,0.9381256-5.6558075,1.7361832-8.5379028,2.3833084c0.0327148,0.011795,0.0663452,0.0208282,0.0991516,0.0324402
		c0.1339722,0.0474548,0.2702484,0.0870743,0.4048767,0.1324081c1.7577515,0.5916595,3.5700378,1.007782,5.4131927,1.2230301
		c0.0570374,0.006546,0.1129761,0.0046997,0.1699219,0.0108719c0.0010071,0.0096817,0.0023956,0.019165,0.0034027,0.0287552
		c0.6829834,0.0761108,1.3598633,0.1066055,2.0353851,0.1297379c0.0950012,0.0010147,0.1876068-0.0105972,0.2824097-0.0105972
		c0.8680115,0.0175095,1.7277069-0.0100479,2.5788422-0.0766678c12.2852325-0.9616165,22.5724792-10.4913559,24.0320435-23.1921463
		c0.1461487-1.2740784,0.2005157-2.557003,0.162735-3.838913c-0.1261444,0.3673782-0.2975311,0.7108917-0.4389801,1.0705299
		c-0.0300293,0.0762939-0.0624695,0.1513023-0.0931549,0.2272263
		C207.3820038,42.8696098,207.3818207,42.8626099,207.3820038,42.8555145z"/>
	<path class="st2" d="M164.1455383,99.4704056c0.0423889,0.0128098,0.0849609,0.0255203,0.1274261,0.0382385
		c0.010788-0.5324097,0.0072784-1.0649109,0.0143738-1.5974121c-0.0420074-0.0128098-0.0855103-0.0254364-0.1273346-0.0382385
		C164.1534576,98.4054947,164.1556702,98.9379044,164.1455383,99.4704056z"/>
	<path class="st2" d="M164.0995483,88.3426056c0.0422974,0.0065384,0.0845032,0.0140991,0.1268005,0.0207291
		c-0.0102386-0.3665466-0.0305023-0.7329102-0.0424805-1.0994644l-0.1196899,0.1631927
		C164.0738525,87.732338,164.0910797,88.0372391,164.0995483,88.3426056z"/>
	<path class="st2" d="M184.5834961,83.6099854c0.0108643-0.019722,0.0210114-0.0395279,0.0318756-0.0592499
		c-1.5046234-1.2093887-3.1372375-2.2415924-4.8537903-3.1134567c0.0342865,0.5991211,0.0702209,1.1979675,0.1001587,1.7972717
		c1.4124908,0.7765884,2.7621155,1.6655045,4.0154724,2.6868286
		C184.1101532,84.4838791,184.3437347,84.0465622,184.5834961,83.6099854z"/>
	<path class="st2" d="M189.2157745,75.505806c0.006073-0.0100403,0.0119781-0.0203629,0.0180511-0.0304031
		c-1.7291718-1.2093048-3.6133423-2.1803207-5.6017151-2.8866959c-1.4824219-0.5485382-3.0103607-0.952034-4.555069-1.280899
		c0.0496674,0.5274353,0.0920563,1.0555115,0.1383209,1.5832214c1.3193207,0.3056412,2.6204834,0.6875839,3.8902283,1.1643372
		c1.8967896,0.667305,3.6933289,1.5909653,5.3396606,2.7452545C188.704361,76.3718719,188.9571228,75.9350128,189.2157745,75.505806
		z"/>
	<path class="st3" d="M21.3928356,102.053299c0.0005531,0.0150223,0.0014744,0.0293045,0.0020275,0.0443192
		c0.5606041,0.3870087,1.1525383,0.7571487,1.7268734,1.1374283C22.5284214,102.843895,21.9437656,102.451088,21.3928356,102.053299
		z"/>
	<path class="st3" d="M25.817049,104.965889c-0.6439037-0.4055328-1.2902966-0.8152008-1.9302387-1.2274551
		c0.6377316,0.4153824,1.2515965,0.8425674,1.9007511,1.2520523c0.0026722,0.0451508,0.0084782,0.0899353,0.0112419,0.1350861
		c0.0097675,0.0061722,0.0194435,0.0124359,0.029211,0.0186157C25.8236828,105.0859528,25.8212872,105.0242157,25.817049,104.965889
		z"/>
	<path class="st3" d="M163.7906799,108.2842789l0.0097809-0.0015717c0.1665039-2.9361725,0.2892303-5.8737335,0.3450775-8.8123016
		c0.0101318-0.5325012,0.0079193-1.0649109,0.0144653-1.5974121c0.0145569-1.1951141,0.0346375-2.3904114,0.0308685-3.5855179
		C164.2021179,98.9542084,164.058548,103.6214066,163.7906799,108.2842789z"/>
	<path class="st4" d="M156.8188782,41.8336334c-0.0039673,0.0005531-0.0080261,0.0011978-0.0119934,0.0017509
		c-0.727478,1.2190704-1.4007721,2.207962-2.065033,3.0426941c0.0013733-0.0001831,0.0029449-0.0002747,0.0043335-0.0003662
		C155.4129333,44.0421486,156.0883484,43.0543594,156.8188782,41.8336334z"/>
	<path class="st5" d="M161.0502319,133.0908813c-0.0576935,0.3601074-0.1154633,0.735321-0.1876068,1.0963287
		c-0.0162201,0.0008392-0.0327148,0.0016632-0.0489349,0.0025024c-1.8744812,11.3218536-4.7709503,22.4511261-8.654007,33.2503357
		c-0.5195007,1.3852844-1.0680389,2.7136383-1.6308594,4.0126953c-11.9068756,13.2054596-28.7065201,19.90242-46.0256729,20.5515747
		c-1.4626007,0-2.9346085,0-4.4163742,0c-2.4976654-0.0570374-4.9857407-0.2480621-7.4599991-0.5420837l-0.0646896,0.0844879
		c2.5571899,0.3123779,5.1295776,0.5142517,7.7121964,0.5731354c1.4913559,0.057785,2.9634552,0.057785,4.4163818,0
		c17.2876434-0.6457367,33.9427109-7.2832642,45.8376999-20.3547516l0.1735992-0.355957
		c0.5628204-1.2990417,1.1113586-2.5686951,1.6309509-4.0126953c3.8866425-10.8092499,6.7849579-21.9485626,8.6595306-33.2812958
		c0.0721588-0.3610229,0.1876068-0.7362366,0.1876068-1.0971527c1.3588562-8.2116241,2.260025-16.4751205,2.7375183-24.7542801
		l-0.1171112,0.0189819l-0.0097809,0.0015717C163.3140259,116.5808487,162.4119263,124.8619461,161.0502319,133.0908813z"/>
	<path class="st4" d="M78.9662094,28.3111916c-1.1684799,0.7260971-2.3553009,1.4229832-3.5593491,2.0913048
		c-1.8262939,1.0109158-3.6886215,1.942215-5.5813599,2.7915115c1.8928299-0.8492966,3.7551575-1.7805958,5.5814514-2.7915115
		C76.6110916,29.7341747,77.7977295,29.0372887,78.9662094,28.3111916z"/>
	<path class="st4" d="M27.7359524,169.3739624c-4.1411457-11.4760132-7.1996899-23.3137817-9.1359177-35.3601532
		c1.9335556,12.0605621,4.9922829,23.9134521,9.1359177,35.403656
		c11.315218,30.6690979,35.1146011,40.3971252,62.4211731,53.6168823c0.7570572,0.3584442,1.5740051,0.5318451,2.3906784,0.5343475
		c-0.8198929-0.0151215-1.6371231-0.2043762-2.39077-0.5771027
		C62.8504601,209.7852936,39.0511703,200.043808,27.7359524,169.3739624z"/>
	<path class="st4" d="M161.4223938,32.4583282c-0.317337-0.1503792-0.8252411,0.1840096-1.1639709,0.7959404
		c0.0062714-0.0012894,0.0126343-0.0025787,0.0189819-0.0037766c-0.0481873,0.0816383-0.1025543,0.1528664-0.1433716,0.2449188
		c-0.3221283,0.7265549-0.2837067,1.4309082,0.1021881,1.602478c0.378067,0.1707458,0.9548035-0.2800255,1.2847748-1.005661
		c0.2499847-0.5498238,0.2796478-1.103611,0.1142578-1.4017906
		C161.5838318,32.5832748,161.5133362,32.501358,161.4223938,32.4583282z"/>
	<path class="st4" d="M90.2994919,234.616684h0.0003662c1.4383698,0.6641846,3.0951233,0.6641846,4.5334015,0h0.0003738
		c42.0540771-19.392395,65.2188568-30.0744019,77.9918823-79.722168c4.0284576-16.1526031,6.3780518-32.656929,7.1057129-49.2222519
		l0.0066223-0.0011063c0.0943604-2.1832657,0.1695557-4.3668976,0.2066803-6.5516357
		c1.0103607-2.5468674,2.1278076-5.0512619,3.3532257-7.5048752c2.7068329-5.558876,5.7837982-10.9478378,8.9616699-16.2457657
		c1.6294861-2.7260895,3.2938843-5.4248962,4.9627991-8.1179047c0.3048096-0.1932297,0.5972748-0.4025803,0.8946228-0.6066818
		c0.0015717-0.0025787,0.0031433-0.0050659,0.0046997-0.0076447c13.3235931-9.229351,16.6427307-27.5121498,7.4133759-40.835743
		c-5.8086853-8.3854942-15.2034302-12.7992954-24.6909637-12.6248665
		c-5.7592926,0.0031328-11.5758972,1.6837521-16.6686249,5.2114944c-3.8768768,2.6854515-6.9811096,6.2221298-9.1460419,10.2597065
		c-3.1779633,0.4498482-6.3292999,0.6786423-9.4317932,0.6790104c-0.0042419,0-0.0028534,0-0.0070953,0
		c-30.6340866,0-48.7679825-22.1772728-48.9385376-22.3899422l-0.0005569-0.0008292
		c-2.1673203-2.7345643-6.3176804-2.7337351-8.4835358,0.0024881c-0.1774673,0.2236338-18.0963898,22.408371-48.9081268,22.408371
		c-6.296032,0-12.794136-0.9355412-19.3135242-2.7806358h-0.0003681c-2.9049397-0.8224812-5.9209127,0.8911266-6.7013741,3.8074913
		l-0.0000925,0.0008297c-5.317275,19.870348-8.1250935,40.3507919-8.4189415,60.8719559
		c-0.3069324,20.4650497,1.8888645,40.9722977,6.5971584,60.9571915
		c9.9955301,41.2059784,25.0031548,55.8291779,56.1300278,71.7759247l0.0941696-0.1231079
		C74.5515823,227.2879944,81.9884491,230.7812805,90.2994919,234.616684z M18.672184,31.7735119
		C65.18853,44.9363136,92.6105576,10.2973633,92.6105576,10.2973633s22.3234177,28.1297913,60.8323288,24.0177612
		c-0.4826508,1.6582298-0.82164,3.3640022-1.0059357,5.1030388c-0.1031036,0.9726753-0.163559,1.9538269-0.1686249,2.942997
		c-15.1715393,1.2738953-30.4311829-1.964241-43.8250809-9.3899574c-4.9824295-2.7638664-9.6768951-6.017664-14.0141296-9.712925
		c-1.0625153-0.8677216-2.588974-0.8677216-3.6514893,0c-4.3319778,3.695261-9.0217514,6.9490585-13.9995651,9.712925
		c-15.1572647,8.4022636-32.7033691,11.453434-49.8070908,8.6593437c-0.3659973-0.0485573-0.7265568-0.0268135-1.06703,0.056118
		c-0.5105705,0.1239319-0.9758072,0.3860855-1.3461342,0.7512512c-0.3703289,0.3651695-0.6456547,0.8342743-0.7764072,1.3719368
		c-6.5140457,29.512413-7.3273106,59.9972305-2.3958435,89.8144608c1.8989086,11.8855896,4.9142361,23.5650482,9.0059013,34.8835907
		c10.9688492,29.7896729,34.4363251,39.2136383,60.9923859,52.0590057c0.7830429,0.3659973,1.6933365,0.3392639,2.4535217-0.0719757
		c26.541687-12.8453674,50.0523758-22.255127,60.9923935-51.98703c4.0783844-11.3226776,7.0933533-23.0013275,9.0058899-34.8835907
		c3.5140228-21.2366714,4.0943451-42.8113174,1.7887115-64.1326675c0.9299164-0.1813354,1.859375-0.3647995,2.7866211-0.5598679
		c0.1148224-0.0241394,0.2302704-0.0449677,0.3450775-0.0692902c0.8100433,0.3947449,1.6435852,0.7357712,2.4856873,1.0531158
		c0.1751709,0.0661545,0.3483124,0.1361847,0.5251312,0.1992111c0.6036377,0.2143326,1.2215576,0.3855362,1.8385468,0.5595016
		c2.7449799,27.6826172,0.7474823,55.7294769-6.031662,82.9102783
		c-11.8925018,46.2281189-31.5353546,56.0708618-75.0064163,76.1182251
		c-45.1308632-20.8262482-64.0088196-30.8139496-75.6847839-78.9465942
		C7.6470351,111.5559464,8.2619133,70.6781845,18.672184,31.7735119z M181.5946045,16.1804962l0.4842224,0.0079231
		c0.2783661,0.000185,0.5654907-0.0066338,0.8480988,0.0258942l0.4082031,0.0468998
		c0.4160309,0.047823,0.8321533,0.0956459,1.2638397,0.1452198c0.4317932,0.0496655,0.8557434,0.0983181,1.2874451,0.1479836
		l0.4239502,0.0486526c0.2807617,0.0481911,0.5579376,0.1278038,0.8327179,0.159317l0.4960938,0.1126919l0.7732849,0.1923065
		l0.5090942,0.138031l0.7068329,0.2164478l0.5133362,0.1703739l0.6728363,0.2363491l0.5027466,0.1929512l0.6525574,0.2738514
		l0.4930725,0.2077866l0.6489716,0.3052731l0.4659729,0.2364426c0.2186584,0.1046753,0.4354706,0.2250156,0.6453705,0.3366947
		l0.4414673,0.2416019l0.6616821,0.4021187c0.0238647,0.0140972,0.0453339,0.0281944,0.0687408,0.041832
		c0.0886536,0.0490208,0.1719513,0.0984116,0.2444611,0.1488132c0.0239563,0.0153885,0.0495758,0.0283813,0.073349,0.0446911
		l0.8199005,0.5476131l0.1923981,0.1254997c0.3316193,0.2289791,0.6535797,0.4727917,0.9676971,0.7156849l0.3496857,0.2787361
		c0.19664,0.1578426,0.4011078,0.316515,0.5889893,0.4812679l0.3895874,0.3470154l0.5123138,0.4565754l0.4008331,0.3881111
		l0.4642181,0.458971l0.3902283,0.4106865c0.1495514,0.1524067,0.2902527,0.3118153,0.4310608,0.4711342l0.379715,0.4333534
		l0.4057159,0.4840336l0.3612976,0.4551926l0.3802795,0.4970264l0.3437958,0.4690132l0.3541107,0.5179443
		c0.1084442,0.1635551,0.2178192,0.3192787,0.3184509,0.4820061l0.3347473,0.5475197l0.2940369,0.4871674
		c0.1127014,0.1958065,0.1888123,0.3636932,0.3283997,0.6024399c0.1396027,0.2387447,0.262619,0.4834805,0.3925323,0.7370605
		c0.1299286,0.253582,0.2520142,0.5061493,0.3731842,0.7667332l0.2406006,0.5366478l0.2438965,0.5768242l0.2213287,0.5663185
		c0.0734406,0.1913834,0.1478119,0.3748398,0.2134094,0.5653954l0.1940613,0.5949745
		c0.0665283,0.1826286,0.1182251,0.355587,0.1819763,0.5617104c0.063858,0.2062187,0.126709,0.4201775,0.176651,0.6088905
		s0.0928802,0.368576,0.1488037,0.5738754c0.0559387,0.2052956,0.1040344,0.4096718,0.1521301,0.614048l0.1234741,0.5868683
		c0.0402679,0.2034531,0.077774,0.4304047,0.1189575,0.6260262c0.0411072,0.1956215,0.0674591,0.3816605,0.0989685,0.5920258
		c0.0315094,0.2104568,0.069931,0.4295769,0.0945435,0.6312828c0.0245056,0.2016106,0.042099,0.3945618,0.0657806,0.6040955
		c0.0235901,0.2095375,0.0454254,0.4347382,0.0621948,0.6355209c0.0166931,0.2006874,0.025528,0.4005508,0.0404663,0.6170883
		c0.0148315,0.2164459,0.0620117,0.4286537,0.0386047,0.6327553c-0.0062714,0.0202713-0.008667,0.0415573-0.0072784,0.0628395
		c-0.1206207,0.3501511-0.2850037,0.6772614-0.4195404,1.0203133c-0.0000916,0.0069122-0.0000916,0.0136375-0.0000916,0.0205498
		c0.141449-0.3596382,0.3128357-0.7031517,0.4389801-1.0705299c0.0377808,1.2819099-0.0165863,2.5648346-0.162735,3.838913
		c-1.4595642,12.7007904-11.7468109,22.2305298-24.0320435,23.1921463
		c-0.8202667,0.0779572-1.6504822,0.1113129-2.4873352,0.1110382c-0.1238403-0.0024872-0.2498016-0.0194473-0.3739166-0.0237732
		c-0.6755219-0.0231323-1.3524017-0.053627-2.0353851-0.1297379c-0.0010071-0.0095901-0.0023956-0.0190735-0.0034027-0.0287552
		c-0.0569458-0.0061722-0.1128845-0.0043259-0.1699219-0.0108719c-1.8431549-0.2152481-3.6554413-0.6313705-5.4131927-1.2230301
		c0.0001831,0.0014725,0.0004578,0.0031357,0.0005493,0.0046082c-0.1371918-0.0467148-0.2766113-0.0861511-0.4130707-0.1350861
		c0.0025787-0.0006409,0.0050659-0.0012894,0.0076447-0.0019302c-0.0328064-0.0116119-0.0664368-0.0206451-0.0991516-0.0324402
		c2.8820953-0.6471252,5.765564-1.4451828,8.5379028-2.3833084c2.4069824-0.8051529,6.5802002-2.3060913,7.8613739-4.6642456
		c0.7928162-0.5225525,1.4694214-1.2029457,1.9874573-1.998703c0.1379395-0.2139587,0.2622528-0.4354744,0.3752136-0.6622391
		c0.0179749-0.0373192,0.0340881-0.0753746,0.0514221-0.11306c0.1610565-0.3384476,0.2880402-0.6906242,0.3918915-1.0504456
		c0.099411-0.3656273,0.1977386-0.7325478,0.2353363-1.115406c0.0572205-0.467907,0.057312-0.9387665,0.0175934-1.4056587
		c-0.024231-0.2709045-0.0920563-0.5291862-0.1476135-0.7913361c-0.0385132-0.1867752-0.0623779-0.3757629-0.1165619-0.5592232
		c-0.1090088-0.3616676-0.252655-0.7089577-0.4180603-1.044178c-0.0231323-0.0475464-0.0400848-0.0990562-0.0642242-0.1458664
		c-1.0098114-1.9310646-2.9234619-3.3471375-5.2511139-3.6197014c-0.1479797-0.0173225-0.2961578,0.0032272-0.4445038-0.0043297
		c-0.3451691-0.0176926-0.6905365-0.0395317-1.0334015-0.0049782c-0.0668945,0.0015678-0.1338806-0.0054359-0.2007751-0.0019341
		c-0.4073792,0.0540886-0.8157654,0.1337013-1.2206421,0.2654686c5.2414398-2.9768105,9.3225098-9.2124901,6.1773529-13.6781654
		c-0.1053162-0.147892-0.2358856-0.295784-0.3532867-0.443676c-0.132782-0.1683464-0.2542267-0.3367882-0.4020233-0.5047646
		c-4.2965851-4.8617153-14.7054749-9.5374813-23.005188-10.2451496c-0.0409088-0.0046997-0.1097412-0.0053444-0.1692657-0.0072784
		c-0.0986023-0.0028572-0.2177429-0.0033188-0.3606567-0.0008297c-0.0424805,0.0008297-0.0784149,0.0007362-0.1236572,0.0020275
		c-0.0029449,0.0000916-0.0051575,0.0000916-0.0081024,0.0001831c-0.0008392-0.0000916-0.0016632-0.0000916-0.0024872-0.0000916
		c-0.3193817,0.007925-0.7015991,0.0240498-1.0898895,0.0430317l0.1943359-0.1686249l0.4334412-0.3796329l0.3635101-0.3957596
		l0.4385223-0.355217l0.5049438-0.3794498l0.442749-0.3229656l0.560791-0.3809242l0.4138184-0.2785511
		c0.2580109-0.169178,0.5230103-0.3296013,0.7870941-0.4821911l0.4268188-0.253212
		c0.3033447-0.148077,0.5744324-0.291914,0.8454285-0.435751l0.4144592-0.21488l0.6486969-0.315134l0.4692841-0.2086143
		c0.2019806-0.0961056,0.4108734-0.1834583,0.627594-0.2698898l0.4842224-0.1988468l0.6483307-0.2436295l0.472702-0.1684399
		l0.7015839-0.2216072l0.4446869-0.1318588c0.2568054-0.0897484,0.5432739-0.1602383,0.8219299-0.2316494l0.3275757-0.0816402
		c0.3529053-0.0946331,0.7763977-0.1811562,1.1667175-0.2556076l0.3239899-0.050312
		c0.2924652-0.0539036,0.585022-0.1077156,0.8835602-0.1450348l0.4522552-0.0593414l0.8048706-0.0825596l0.4896545-0.0391617
		l0.7532806-0.0486526l0.494812-0.0146503L181.5946045,16.1804962z M181.6191254,16.1753349l0.4842072,0.007925
		L181.6191254,16.1753349z M180.3510284,16.2046375l0.494812-0.0147438L180.3510284,16.2046375z M179.1108704,16.2688618
		l0.4896545-0.0391617L179.1108704,16.2688618z M158.2947388,33.4431648
		c0.7271118-1.6902027,2.0644073-2.7375126,2.9417114-2.3423996c0.5231018,0.2356129,0.7658997,0.9366455,0.7212067,1.8181
		c0.0113373-0.0025826,0.0223999-0.004055,0.0338287-0.0066376c-0.0297699,0.5990334-0.1889954,1.2796097-0.4970398,1.9644241
		c-0.4930573,1.096241-1.2262421,1.9106102-1.9312439,2.2428818c-0.2426147,0.1180382-0.4812622,0.1815262-0.704071,0.1676102
		c-0.1279907-0.0058022-0.2515564-0.032341-0.3682098-0.0832062c-0.8769379-0.3823967-0.9686279-1.9432297-0.2844543-3.5446014
		c0.0026703-0.0004616,0.0055389-0.0011978,0.0083008-0.0016594
		C158.2427826,33.5859871,158.2638702,33.5150375,158.2947388,33.4431648z M181.6528473,44.5971298
		c-0.1087341-0.0041466-0.2146912,0.00811-0.3246307-0.0045128c-0.0056152-0.0005531-0.0105896-0.0027657-0.0162048-0.0034103
		c-0.0051727-0.0005531-0.0100555,0.00037-0.015213-0.0001831c-0.1046753-0.0120697-0.2001343-0.0465317-0.3020477-0.0658836
		c-0.1789398-0.0336342-0.3602753-0.0607224-0.5297394-0.1156425c-0.0555573-0.0179672-0.1042175-0.0480042-0.1585693-0.0681839
		c-0.2100067-0.0777702-0.4172363-0.1606102-0.6091766-0.2686958c-0.02211-0.0124359-0.0402679-0.0300369-0.0621948-0.0428467
		c-0.2161713-0.1268806-0.4225769-0.2673073-0.6111908-0.4286537c-0.0084839-0.0071869-0.0146484-0.0163078-0.0230408-0.0235901
		c-0.1973724-0.1715698-0.379715-0.3586235-0.5419922-0.5628166c-0.0054321-0.0069084-0.0091248-0.0150185-0.0145569-0.0219307
		c-0.1617126-0.2060318-0.3059235-0.4255219-0.4273682-0.6587372c-0.0124359-0.0238647-0.0188904-0.0505867-0.0308685-0.0747299
		c-0.1087189-0.21875-0.2045593-0.4443207-0.2743988-0.681221c-0.0170441-0.0574074-0.0205536-0.119236-0.035202-0.1775627
		c-0.0517883-0.2080612-0.1002502-0.4170456-0.1197815-0.6346893c-0.0100403-0.1095581,0.0028534-0.2232666,0.0014648-0.3346672
		c-0.0018311-0.1639252-0.0152893-0.3257294,0.0023041-0.4927864c0.0016632-0.0157585,0.003418-0.0316086,0.0052643-0.0473633
		c0.2675781-2.3281174,2.3717804-3.9986,4.6999969-3.7310143c2.3281097,0.267498,3.9985962,2.3717003,3.7310944,4.6999092
		c-0.2512665,2.1863976-2.1261292,3.7709122-4.2813873,3.7369118c-0.0053406,0.0004578-0.0102234,0.0024872-0.015564,0.0029488
		C181.684082,44.5974083,181.6686096,44.597683,181.6528473,44.5971298z M135.5540161,67.5047379
		c-0.9138947-0.0406342-1.7263336-0.1023712-2.4453278-0.1838226c-7.1128922-0.8019333-5.0322723-3.5350227-0.3560486-6.8793068
		c2.3913269-1.7113953,5.4613037-3.5830269,8.3344421-5.4406548c5.5806274-3.6431999,10.1724548-6.8867683,12.5659943-9.3563271
		c0.5484314-0.5694504,0.9804993-1.0975304,1.2815399-1.579628c0.6932831-1.1336517,1.5026855-2.1922035,2.4150085-3.1585197
		c-0.0043335,0.0076485-0.0083008,0.0140076-0.0126343,0.0216522c0.0106049-0.0113335,0.019455-0.0241394,0.0301361-0.0354729
		l0.0054321-0.0471802c0.0048828-0.0085678,0.0134583-0.0140953,0.0184326-0.0226669l0.0008392-0.0069084
		c0.1147156-0.1858559,0.254776-0.3449898,0.4048767-0.4912224c0.247406-0.2520142,0.526886-0.4696579,0.8584137-0.6043739
		c0.0136414-0.0102272,0.0270844-0.0170479,0.0407257-0.0271835c-0.0182495,0.0073738-0.0372314,0.0096741-0.0554657,0.0175095
		c2.0488281-1.5143929,3.9798889-1.6145515,5.5158386-0.3565979c0.0328064,0.0262604,0.0679169,0.0439529,0.1004486,0.0714111
		c2.5548706,2.1882401,3.9319763,4.5006905,5.5866089,6.4262314c0.000824,0.0041466,0.0017548,0.0081062,0.0026703,0.0121613
		c2.0370331,2.3681984,4.5023499,4.1470451,10.1199188,4.3546448c-1.1947327,1.5591736-1.6618195,3.5565834-1.2823639,5.4838715
		c-0.6253815,0.389492-1.178894,0.7076683-1.4807587,0.9115829c-0.9588623,0.6652794-2.7309723,1.537796-5.0385437,2.4978447
		c0.0005493,0.0037804,0.0011139,0.0075569,0.0016632,0.0113335c-1.4030762,0.5828133-3.0044556,1.1974144-4.7515106,1.8199425
		c-0.8781281,0.3129196-1.7909088,0.6269493-2.7340088,0.9399643c-0.0003662-0.0028572-0.0007477-0.0056229-0.0012054-0.0083847
		c-0.8814545,0.292923-1.7861176,0.5837326-2.7118988,0.8711281c0.0003815,0.0025826,0.0006561,0.0051613,0.0010223,0.0076485
		C153.1697693,65.4820862,142.6472778,67.841156,135.5540161,67.5047379z M185.9768066,49.1990929
		c2.8570251,0.3283997,4.9070435,2.9106483,4.5787354,5.767765c-0.3058167,2.6606674-2.5711823,4.595417-5.1888275,4.5868492
		c-0.0013733,0.0001831-0.0026703,0.0005531-0.0041351,0.0007362c-0.0030518-0.0000916-0.0059967-0.0000916-0.0089417-0.0000916
		c-0.1859436-0.0013809-0.3690338,0.0139122-0.5579376-0.0078316c-0.0026703-0.00037-0.005249-0.0006447-0.0079193-0.0009232
		c-2.8570251-0.3283081-4.9070587-2.9106522-4.5787354-5.7676735
		C180.5373535,50.9208069,183.1196899,48.8707809,185.9768066,49.1990929z M26.7978306,145.3005524
		c-0.1876049-0.8376007-0.3752098-1.66008-0.5485344-2.4967499c0-0.1734161,0-0.3610077-0.1154556-0.5343323l-0.2597542-1.3132477
		c-0.1154575-0.562912-0.2453804-1.1257172-0.3463707-1.6885376l-0.1732311-0.9522247
		c-0.1299229-0.6499786-0.2452888-1.2990417-0.3607445-1.9347534c-0.1154575-0.6348724-0.1588573-0.8509521-0.2453804-1.2839355
		c-0.1154575-0.6499786-0.2165394-1.2990417-0.331995-1.9489441c-0.3463707-2.048645-0.6494331-4.1132202-0.9380283-6.1768875
		c-0.0866165-0.6490631-0.1588573-1.2990494-0.2453804-1.9481125c-0.1828156-1.4246445-0.3561382-2.8677139-0.5196018-4.3301315
		c-0.0866146-0.7504272-0.1587639-1.4430695-0.2452888-2.2512665c-0.1299229-1.371109-0.2598457-2.7421265-0.3753948-4.1131363
		l-0.1731396-2.2228851c-0.0762939-0.9531403-0.1386757-1.9573288-0.1980171-2.9657593
		c-0.0305004-0.5184021-0.0611839-1.0376358-0.0905781-1.5518875c0-0.4615555,0-0.9087296-0.0866146-1.4430771v0.0719681
		c0-1.372673-0.102005-2.7454376-0.1494579-4.1190338c-0.0005531-0.0150146-0.0014744-0.0292969-0.0020275-0.0443192
		c-0.0018425-0.0552902-0.005621-0.1105728-0.0072803-0.165863c0-0.2076874,0-0.4192505,0-0.6231689
		c0-0.0569458,0-0.1149979,0-0.1708374c0-1.9053574-0.0721493-3.8249969-0.0866146-5.773201v-0.7094193v-0.1708374
		c0-2.2085114,0-4.4305725,0.1009903-6.6391754c0-0.5485306,0-1.0820465,0-1.6306763
		c0-1.674263,0.1443901-3.3484268,0.2310047-5.0226898l0.1299229-2.049469
		c0.1154575-1.674263,0.2452888-3.3627167,0.4040527-5.036972l0.1298313-1.6022034
		c0.2165394-2.1935883,0.4474525-4.3293076,0.721674-6.5521011c0-0.4045181,0.1009903-0.7940063,0.1588573-1.1976929
		c0.2308197-1.7898102,0.4762001-3.5654297,0.7504215-5.3259354c0.1009903-0.6926498,0.2164478-1.4430733,0.3319969-2.0636635
		c0.2452869-1.558712,0.5195084-3.1173325,0.808197-4.6768723l0.3462772-1.9481125
		c0.4128056-2.1206093,0.8406315-4.2681198,1.309-6.3342705c17.6856136,2.8685417,35.8231888-0.3024178,51.4856796-9.0077438
		c0.0182419-0.0100441,0.0356598-0.0218391,0.0538101-0.0318832c0.0251617-0.0133591,0.0509567-0.0259857,0.0760193-0.0401764
		c5.0776138-2.854351,9.8717804-6.1852722,14.3229904-9.9424534c0.0347443,0.0293941,0.0714188,0.0563011,0.1061554,0.0856953
		c0.0011978-0.0010147,0.0023956-0.0018444,0.0035019-0.0028572c1.1023178,0.934803,2.2271271,1.8417797,3.3713684,2.7226772
		c3.4661942,2.6589146,7.1184235,5.0692234,10.9315338,7.2089977c12.992981,7.2202377,27.6884232,10.6222954,42.4163895,9.940979
		c-1.0730286,0.8914032-2.1889801,1.7446594-3.3161774,2.552948c-2.2110138,1.5911484-4.4837494,3.0957718-6.7597961,4.5601273
		l-1.7948761,1.1538277c-2.6600189,1.6907578-5.3731232,3.3594894-7.8663635,5.2602386
		c-1.7440948,1.3347092-3.8023224,3.1184387-4.2592697,5.3645439c-0.1196976,0.5886154-0.1162872,1.1955719,0.0098572,1.7828064
		c0.8599854,4.0757217,6.5741196,4.4618988,9.8963852,4.6209412c1.3419952,0.0600815,2.6860962,0.0526123,4.0272522-0.0223923
		l0.4384308,0.1299286c6.9414978,1.8873901,13.6878357,0.9048538,20.6390991-0.2688828
		c0.7861786-0.131485,1.5692291-0.2787323,2.3535614-0.419899c0.0387878-0.0069122,0.0778503-0.0137253,0.1166534-0.0207291
		c0.4644928,4.333725,0.8217316,8.6764832,1.0436249,13.0261536c-0.0390778,0.0513229-0.0781403,0.1026459-0.1171265,0.1539688
		c0.0708618,1.419487,0.1192474,2.8397064,0.1643066,4.2601089l0.1196899-0.1631927
		c0.0119781,0.3665543,0.0322418,0.7329178,0.0424805,1.0994644c0.0000916,0.0010147,0,0.0020294,0.0000916,0.0030441
		c-0.0422974-0.0067291-0.0844116-0.0145569-0.1268005-0.021286c0.0550232,1.9802704,0.0865326,3.9611893,0.0912323,5.9423828
		c0.0037689,1.1951065-0.0163116,2.3904037-0.0308685,3.5855179c0.0418243,0.0128021,0.0853271,0.0254288,0.1273346,0.0382385
		c-0.0070953,0.5325012-0.0035858,1.0650024-0.0143738,1.5974121c-0.0424652-0.0127182-0.0850372-0.0254288-0.1274261-0.0382385
		c-0.0558472,2.9385681-0.1785736,5.8761292-0.3450775,8.8123016l0.1171112-0.0189819
		c-0.4774933,8.2791595-1.3786621,16.5426559-2.7375183,24.7542801c0,0.3609161-0.115448,0.7361298-0.1876068,1.0971527
		c-1.8745728,11.3327332-4.7728882,22.4720459-8.6595306,33.2812958c-0.5195923,1.4440002-1.0681305,2.7136536-1.6309509,4.0126953
		l-0.1735992,0.355957l-0.1149902,0.2353363c-0.1443939,0.3610229-0.3030701,0.7077637-0.4619293,1.0393829
		c-0.1586609,0.3317261-0.4185181,0.8660736-0.6205902,1.299057l-0.4907532,0.9816132l-0.6782684,1.2839355l-0.4906769,0.8953705
		l-0.7649841,1.3132324c-0.1587524,0.2596588-0.3031464,0.5343475-0.4762878,0.7940063
		c-0.3030701,0.5050507-0.6205902,1.0099945-0.9525909,1.4430695l-0.3174286,0.5050507
		c-0.4329987,0.654129-0.8804474,1.2897339-1.3422699,1.9053497c-0.1299286,0.201889-0.2741241,0.3752136-0.4185181,0.5628204
		c-0.3175354,0.4472656-0.6494293,0.880249-0.9669647,1.299057l-0.562912,0.6926422
		c-0.3030548,0.3610229-0.5917511,0.7362366-0.8948059,1.0821381l-0.6205902,0.7219543l-0.8804474,0.9958038
		c-0.2164459,0.2453766-0.4473572,0.4765625-0.6638031,0.7069244c-0.2165375,0.2311096-0.5918427,0.6356201-0.8948059,0.9380341
		l-0.6928406,0.6934814l-0.923645,0.9087219l-0.692749,0.6498871l-0.9815216,0.8945465l-0.6927338,0.6063995l-1.082428,0.9237366
		l-0.6350555,0.5335236l-1.4432526,1.0971527l-0.3752136,0.2889709l-1.7896271,1.3559875l-0.5628967,0.3903351
		c-0.4328995,0.3031464-0.8515091,0.6205902-1.2989655,0.9087219l-0.7216721,0.5050354l-1.1689377,0.7797241l-0.8082886,0.5050507
		l-1.1401978,0.7362366l-0.8226624,0.5192261l-1.1689453,0.6934814l-0.8371277,0.5050354l-1.1979675,0.6926575l-0.8370361,0.4757385
		l-1.2556534,0.7076721l-0.808197,0.4472656l-1.4432526,0.7362213l-0.7361374,0.3894043l-1.83284,0.9674225l-0.2887802,0.1440277
		c-0.721489,0.3752136-1.4431686,0.750412-2.1792145,1.1114349l-0.6350555,0.3174438l-1.5875549,0.7940063l-0.7938232,0.4036865
		l-1.4432526,0.7076569l-0.8804398,0.4330902l-1.4432526,0.6925507l-0.8803482,0.433075l-1.5732727,0.7504272l-0.7359543,0.3459015
		l-2.4246826,1.16922l-0.4619217,0.2169189l-4.0410767,1.9481049l-2.1072464-0.8375854l-0.4473572-0.2160797l-0.5340729-0.3173523
		l-2.1071548-1.0100861l-1.2556458-0.6063995l-6.0617065-2.8869629l-0.2020721-0.1005402l-0.3030624-0.144928
		c-1.3134232-0.6347961-2.5978241-1.2839508-3.8678513-1.9188232h-0.1011734l-3.7524796-1.9489441l-0.259758-0.1298218h-0.1009903
		c-1.1402817-0.606308-2.2660065-1.2118835-3.3772659-1.8324738l-0.3319016-0.1876068l-0.6062164-0.3467407l-0.4762039-0.2596588
		l-0.3609314-0.201889l-0.6782684-0.4045105l-1.2701187-0.7504272l-0.3463745-0.201889l-0.4762917-0.2888641l-1.6597023-1.0394897
		l-0.7793541-0.4899292l-1.8329315-1.2127075l-0.4906693-0.3317261c-0.7649803-0.52005-1.5155869-1.0535736-2.251545-1.5879211
		l-0.5485344-0.4187927l-1.6019287-1.371109l-0.3175278-0.2453766l-0.2310066-0.1876068l-0.187603-0.1582947
		c-1.1689415-0.9380341-2.3236008-1.9196472-3.4349556-2.8869781l-0.2165375-0.1876068l-0.2019806-0.1876068l-0.1298294-0.1147156
		c-0.9382133-0.8810883-1.861866-1.8040924-2.7566795-2.7429504l-0.389679-0.4179688
		c-0.8659706-0.9238281-1.7030106-1.8760529-2.5256729-2.8869629l-0.2310066-0.2596741l-0.2453804-0.3174286
		c-0.5628166-0.6926422-1.111351-1.4430695-1.6597023-2.1357269l-0.187603-0.2604828
		c-0.5918427-0.808197-1.1546593-1.6449585-1.7175713-2.5109253l-0.4618263-0.7069397
		c-0.4329834-0.67836-0.8515053-1.4438934-1.2700233-2.0929565l-0.4185181-0.7069397
		c-0.5051346-0.9237366-1.0247383-1.8617706-1.4433479-2.8869629c-0.0026703-0.0335388-0.0026703-0.0669861,0-0.1005402
		l-0.1586723-0.3467255c-0.4329872-0.8802643-0.8660622-1.7898102-1.2701149-2.7136536l-0.3752136-0.8659668
		c-0.4619179-1.096344-0.9092789-2.1934967-1.3278885-3.347702c-0.5771942-1.5594482-1.1257286-3.1466217-1.6597958-4.7345581
		c-0.1586723-0.5050354-0.3175278-1.0100708-0.4906673-1.5151215c-0.3462772-1.1114349-0.6927395-2.2086029-1.0247364-3.3192139
		l-0.5195084-1.7470551l-0.9091873-3.2756348l-0.4329853-1.6457977c-0.3464622-1.3132324-0.6639919-2.6264801-0.9814281-3.9539948
		c0-0.2596588-0.1299248-0.5201569-0.1876984-0.7940063v-0.0167694v-0.1708374
		C26.9565029,146.0073853,26.8843555,145.6472931,26.7978306,145.3005524z M165.2814026,66.3924637L165.2814026,66.3924637
		c-0.6919098,0.1349945-1.3810577,0.267128-2.0611877,0.3926315c-1.1107025,0.2050171-2.200943,0.3968658-3.2552643,0.573967
		c-3.933548,0.7771454-7.9273529,1.2097626-11.9360809,1.2928772c0.0103149-0.0019379,0.0200806-0.0042419,0.0303955-0.0061798
		c-0.0206299,0.0004654-0.0411835,0.0022125-0.0618286,0.0025864c1.8468475-0.3438873,3.6327057-0.7407532,5.3504486-1.1460037
		c0.4447784-0.1078033,0.9073486-0.2059402,1.3401489-0.3201981c5.8408356-1.4353333,11.5796814-3.2576675,17.1786346-5.4546623
		c1.9141998-0.7233315,3.7785645-1.571888,5.5811768-2.5402336c0.7314453-0.3846092,1.4036255-0.8726044,1.9959412-1.4488754
		c1.014679,1.7915611,2.7838593,3.0294266,4.814621,3.3689766c-2.6457367,1.2758293-6.7861481,2.520977-11.3299561,3.6232033
		c0,0.0002747,0.0000916,0.0006485,0.0000916,0.0009232c-1.5870972,0.384613-3.2203522,0.7520828-4.8604279,1.0968857
		C167.137085,66.0241699,166.2061615,66.2120514,165.2814026,66.3924637z M187.6627655,16.8778439l-0.4960938-0.1126938
		L187.6627655,16.8778439z M185.9135895,16.5256672l0.4239655,0.0487442L185.9135895,16.5256672z M182.9514313,16.2091522
		l0.4082031,0.0469017L182.9514313,16.2091522z M179.8660736,82.3132401
		c-0.0012817-0.0261688-0.0030365-0.0525208-0.0043335-0.0786896c-0.0299377-0.5993042-0.0658722-1.1981506-0.1001587-1.7972717
		c1.7165527,0.8718643,3.3491669,1.904068,4.8537903,3.1134567c-0.0108643,0.019722-0.0210114,0.0395279-0.0318756,0.0592499
		c0.0003662,0.0002747,0.0007324,0.0005493,0.0010986,0.0008316c-0.2512665,0.4562988-0.4947205,0.9135132-0.7381592,1.3706436
		C182.6033173,83.9686127,181.2656555,83.0855942,179.8660736,82.3132401z M183.1055908,74.0553665
		c-1.2697449-0.4767532-2.5709076-0.858696-3.8902283-1.1643372c-0.0462646-0.52771-0.0886536-1.0557861-0.1383209-1.5832214
		c1.5447083,0.3288651,3.0726471,0.7323608,4.555069,1.280899c1.9883728,0.7063751,3.8725433,1.6773911,5.6017151,2.8866959
		c-0.006073,0.0100403-0.0119781,0.0203629-0.0180511,0.0304031c0.0044098,0.0031357,0.0091095,0.0057144,0.0135345,0.0088501
		c-0.2650909,0.4387894-0.5233765,0.8864288-0.788559,1.3252182
		C186.7979889,75.6722183,185.0029297,74.7352982,183.1055908,74.0553665z"/>
	<path class="st2" d="M158.490921,37.2039375c0.1166534,0.0508652,0.2402191,0.077404,0.3682098,0.0832062
		c0.2228088,0.013916,0.4614563-0.049572,0.704071-0.1676102c0.7050018-0.3322716,1.4381866-1.1466408,1.9312439-2.2428818
		c0.3080444-0.6848145,0.4672699-1.3653908,0.4970398-1.9644241c-0.0114288,0.0025826-0.0224915,0.004055-0.0338287,0.0066376
		c0.044693-0.8814545-0.1981049-1.5824871-0.7212067-1.8181c-0.8773041-0.395113-2.2145996,0.6521969-2.9417114,2.3423996
		c-0.0308685,0.0718727-0.0519562,0.1428223-0.0799713,0.2145119c-0.0027618,0.0004616-0.0056305,0.0011978-0.0083008,0.0016594
		C157.5222931,35.2607079,157.6139832,36.8215408,158.490921,37.2039375z M161.5209961,34.0922279
		c-0.3299713,0.7256355-0.9067078,1.1764069-1.2847748,1.005661c-0.3858948-0.1715698-0.4243164-0.8759232-0.1021881-1.602478
		c0.0408173-0.0920525,0.0951843-0.1632805,0.1433716-0.2449188c-0.0063477,0.0011978-0.0127106,0.0024872-0.0189819,0.0037766
		c0.3387299-0.6119308,0.8466339-0.9463196,1.1639709-0.7959404c0.0909424,0.0430298,0.161438,0.1249466,0.2128601,0.2321091
		C161.8006439,32.9886169,161.7709808,33.5424042,161.5209961,34.0922279z"/>
	<path class="st2" d="M92.5673447,229.7028198c43.4710617-20.0473633,63.1139145-29.8901062,75.0064163-76.1182251
		c6.7791443-27.1808014,8.7766418-55.2276611,6.031662-82.9102783c-0.6169891-0.1739655-1.2349091-0.3451691-1.8385468-0.5595016
		c-0.1768188-0.0630264-0.3499603-0.1330566-0.5251312-0.1992111c-0.8421021-0.3173447-1.6756439-0.658371-2.4856873-1.0531158
		c-0.1148071,0.0243225-0.2302551,0.0451508-0.3450775,0.0692902c2.350235,21.6361084,1.765213,43.531517-1.804184,65.0820312
		c-1.933548,12.0605621-4.9922791,23.9134521-9.13591,35.403656
		c-11.3007507,30.6690979-35.1146011,40.3971252-62.4067078,53.6168823
		c-0.7570572,0.3584442-1.5739212,0.5318451-2.390686,0.5343475c-0.0210114,0-0.0416489,0.0067139-0.0627518,0.0067139
		c-0.0210953,0-0.0419235-0.0058899-0.0629349-0.0067139c-0.8166733-0.0025024-1.6336212-0.1759033-2.3906784-0.5343475
		c-27.3065758-13.2197571-51.105957-22.9477844-62.4211731-53.6168823
		c-4.1436348-11.4902039-7.2023621-23.3430939-9.1359177-35.403656c-4.9920969-30.1858139-4.169157-61.0483246,2.4246845-90.9250793
		c0.4096737-1.8107262,1.6527901-3.2295609,3.24403-3.9263573c0.6365318-0.2789192,1.3286266-0.4422913,2.0455093-0.4681854
		c0.3583488-0.0134506,0.7228718,0.0066338,1.0896969,0.0644112c9.2730274,1.5059128,18.679388,1.2337189,27.7354145-0.7328262
		c2.0125237-0.4372215,4.0075378-0.9581146,5.9801598-1.5611992c2.9587555-0.9053154,5.8667297-1.9966736,8.7059708-3.270565
		c1.8927383-0.8492966,3.7550659-1.7805958,5.5813599-2.7915115c1.2040482-0.6683216,2.3908691-1.3652077,3.5593491-2.0913048
		c3.5053482-2.1784744,6.8456726-4.6148586,9.993042-7.2899914c0.5236588-0.4514141,1.1101532-0.7889385,1.72789-1.0142307
		c0.6178284-0.2261219,1.2670746-0.3383541,1.9163208-0.3383541c0.3246231,0,0.6492462,0.0276432,0.9699097,0.084589
		c0.9619904,0.1691761,1.8888702,0.5912895,2.6743011,1.2679958c1.0491562,0.8919563,2.1196899,1.7571907,3.2106781,2.5946903
		c3.2728729,2.5143394,6.7293854,4.7823772,10.3416214,6.7866058c13.029007,7.213974,27.8834839,10.3224564,42.6369781,9.015667
		c0.1842957-1.7390366,0.5232849-3.444809,1.0059357-5.1030388c-38.5089111,4.11203-60.8323288-24.0177612-60.8323288-24.0177612
		S65.18853,44.9363136,18.672184,31.7735119C8.2619133,70.6781845,7.6470351,111.5559464,16.8825588,150.7562256
		C28.5585232,198.8888702,47.4364815,208.8765717,92.5673447,229.7028198z"/>
	<path class="st2" d="M169.8459473,45.8638382c-0.0009155-0.004055-0.0018463-0.0080147-0.0026703-0.0121613
		c-1.6546326-1.9255409-3.0317383-4.2379913-5.5866089-6.4262314c-0.0325317-0.0274582-0.0676422-0.0451508-0.1004486-0.0714111
		c0.0279236,0.02285,0.0579681,0.0379601,0.0856018,0.0617332C166.806015,41.6081581,168.1839447,43.931572,169.8459473,45.8638382z
		"/>
	<path class="st2" d="M168.0681152,65.8281784c0,0.0000916,0,0.0000916,0,0.0001831
		c1.6400757-0.3448029,3.2733307-0.7122726,4.8604279-1.0968857c0-0.0002747-0.0000916-0.0006485-0.0000916-0.0009232
		C171.3414459,65.1155319,169.7080994,65.4831848,168.0681152,65.8281784z"/>
	<path class="st2" d="M167.413147,60.9337502c0.000473,0.0030403,0.0007477,0.006176,0.0012054,0.0093079
		c1.7470551-0.6225281,3.3484344-1.2371292,4.7515106-1.8199425c-0.0005493-0.0037766-0.0011139-0.0075531-0.0016632-0.0113335
		C170.7615814,59.6953316,169.1603851,60.3104858,167.413147,60.9337502z"/>
	<path class="st2" d="M172.8312378,67.1724701c-0.0025787,0.0006409-0.0050659,0.0012894-0.0076447,0.0019302
		c0.1364594,0.0489349,0.2758789,0.0883713,0.4130707,0.1350861c-0.0000916-0.0014725-0.0003662-0.0031357-0.0005493-0.0046082
		C173.1014862,67.2595444,172.96521,67.2199249,172.8312378,67.1724701z"/>
	<path class="st1" d="M109.7999725,30.4024963c-3.612236-2.0042286-7.0687485-4.2722664-10.3416214-6.7866058
		c-1.0909882-0.8374996-2.1615219-1.702734-3.2106781-2.5946903c-0.7854309-0.6767063-1.7123108-1.0988197-2.6743011-1.2679958
		c-0.3206635-0.0569458-0.6452866-0.084589-0.9699097-0.084589c-0.6492462,0-1.2984924,0.1122322-1.9163208,0.3383541
		c-0.6177368,0.2252922-1.2042313,0.5628166-1.72789,1.0142307c-3.1473694,2.6751328-6.4876938,5.111517-9.993042,7.2899914
		c-1.1684799,0.7260971-2.3551178,1.4229832-3.5592575,2.0913048c-1.8262939,1.0109158-3.6886215,1.942215-5.5814514,2.7915115
		c-2.839241,1.2738914-5.7472153,2.3652496-8.7059708,3.270565c-1.9726219,0.6030846-3.9676361,1.1239777-5.9801598,1.5611992
		c-9.0560265,1.9665451-18.4623871,2.238739-27.7354145,0.7328262c-0.3668251-0.0577774-0.731348-0.0778618-1.0896969-0.0644112
		c-0.7168827,0.0258942-1.4089775,0.1892662-2.0455093,0.4681854c-1.5912399,0.6967964-2.8343563,2.1156311-3.24403,3.9263573
		c-6.5938416,29.8767548-7.4167814,60.7392654-2.4246845,90.9250793c1.9362278,12.0463715,4.994772,23.88414,9.1359177,35.3601532
		c11.315218,30.6698456,35.1145096,40.4113312,62.4210815,53.61763c0.7536469,0.3727264,1.5708771,0.5619812,2.39077,0.5771027
		c0.0210114,0.000824,0.0418396,0.0067139,0.0629349,0.0067139c0.0211029,0,0.0417404-0.0067139,0.0627518-0.0067139
		c0.8167648-0.0025024,1.6336288-0.1759033,2.390686-0.5343475c27.2921066-13.2197571,51.105957-22.9477844,62.4067078-53.6168823
		c4.143631-11.4902039,7.2023621-23.3430939,9.13591-35.403656c3.569397-21.5505142,4.1544189-43.4459229,1.804184-65.0820312
		c-0.9272461,0.1950684-1.8567047,0.3785324-2.7866211,0.5598679c2.3056335,21.3213501,1.7253113,42.8959961-1.7887115,64.1326675
		c-1.9125366,11.8822632-4.9275055,23.5609131-9.0058899,34.8835907
		c-10.9400177,29.7319031-34.4507065,39.1416626-60.9923935,51.98703c-0.7601852,0.4112396-1.6704788,0.437973-2.4535217,0.0719757
		c-26.5560608-12.8453674-50.0235367-22.2693329-60.9923859-52.0590057
		c-4.0916653-11.3185425-7.1069927-22.9980011-9.0059013-34.8835907
		c-4.9314671-29.8172302-4.1182022-60.3020477,2.3958435-89.8144608c0.1307526-0.5376625,0.4060783-1.0067673,0.7764072-1.3719368
		c0.370327-0.3651657,0.8355637-0.6273193,1.3461342-0.7512512c0.3404732-0.0829315,0.7010326-0.1046753,1.06703-0.056118
		c17.1037216,2.7940903,34.649826-0.2570801,49.8070908-8.6593437c4.9778137-2.7638664,9.6675873-6.017664,13.9995651-9.712925
		c1.0625153-0.8677216,2.588974-0.8677216,3.6514893,0c4.3372345,3.695261,9.0317001,6.9490585,14.0141296,9.712925
		c13.393898,7.4257164,28.6535416,10.6638527,43.8250809,9.3899574c0.0050659-0.9891701,0.0655212-1.9703217,0.1686249-2.942997
		C137.6834564,40.7249527,122.8289795,37.6164703,109.7999725,30.4024963z"/>
	<path class="st1" d="M168.0681152,65.8281784c-0.9311218,0.1958008-1.8619537,0.383873-2.7867126,0.5642853l0,0
		c0.9247589-0.1804123,1.8556824-0.3682938,2.7867126-0.5641022C168.0681152,65.82827,168.0681152,65.82827,168.0681152,65.8281784z
		"/>
	<path class="st1" d="M164.6791382,61.8746376c0.0004578,0.0027618,0.0008392,0.0055275,0.0012054,0.0083847
		c0.9431-0.313015,1.8558807-0.6270447,2.7340088-0.9399643c-0.0004578-0.0031319-0.0007324-0.0062675-0.0012054-0.0093079
		C166.5351105,61.2469482,165.6221466,61.5613441,164.6791382,61.8746376z"/>
	<path class="st1" d="M160.8139648,39.8722534c1.2776794,0.6644516,1.774704,2.2389183,1.1101532,3.5165901
		c0.4049835-0.7087708,0.453537-1.5665436,0.1312103-2.3164139c-0.5591278-1.3008003-2.0531464-1.9065552-3.3594818-1.3793068
		c-0.0136414,0.0101357-0.0270844,0.0169563-0.0407257,0.0271835c-0.3315277,0.134716-0.6110077,0.3523598-0.8584137,0.6043739
		C158.5851898,39.5561981,159.7959595,39.3427925,160.8139648,39.8722534z"/>
	<path class="st1" d="M156.8188782,41.8336334c0.1858521-0.3106194,0.3733673-0.627964,0.5675049-0.9706459l0.0046082-0.0401764
		c-0.0049744,0.0085716-0.0135498,0.0140991-0.0184326,0.0226669l-0.0054321,0.0471802
		c-0.0106812,0.0113335-0.0195312,0.0241394-0.0301361,0.0354729c-0.1810608,0.3195572-0.3561249,0.6158028-0.5301056,0.9072533
		C156.8108521,41.8348312,156.8149109,41.8341866,156.8188782,41.8336334z"/>
	<path class="st6" d="M27.0431194,146.5417328c0.0577736,0.2738495,0.1876984,0.5343475,0.1876984,0.7940063
		c0.3174362,1.3275146,0.6349659,2.6407623,0.9814281,3.9539948l0.4329853,1.6457977l0.9091873,3.2756348l0.5195084,1.7470551
		c0.3319969,1.110611,0.6784592,2.2077789,1.0247364,3.3192139c0.1731396,0.5050507,0.331995,1.0100861,0.4906673,1.5151215
		c0.5340672,1.5879364,1.0826015,3.1751099,1.6597958,4.7345581c0.4186096,1.1542053,0.8659706,2.251358,1.3278885,3.347702
		l0.3752136,0.8659668c0.4040527,0.9238434,0.8371277,1.8333893,1.2701149,2.7136536l0.1586723,0.3467255
		c-0.0026703,0.0335541-0.0026703,0.0670013,0,0.1005402c0.4186096,1.0251923,0.9382133,1.9632263,1.4433479,2.8869629
		l0.4185181,0.7069397c0.4185181,0.6490631,0.8370399,1.4145966,1.2700233,2.0929565l0.4618263,0.7069397
		c0.562912,0.8659668,1.1257286,1.7027283,1.7175713,2.5109253l0.187603,0.2604828
		c0.5483513,0.6926575,1.0968857,1.4430847,1.6597023,2.1357269l0.2453804,0.3174286l0.2310066,0.2596741
		c0.8226624,1.01091,1.6597023,1.9631348,2.5256729,2.8869629l0.389679,0.4179688
		c0.8948135,0.938858,1.8184662,1.8618622,2.7566795,2.7429504l0.1298294,0.1147156l0.2019806,0.1876068l0.2165375,0.1876068
		c1.1113548,0.9673309,2.2660141,1.9489441,3.4349556,2.8869781l0.187603,0.1582947l0.2310066,0.1876068l0.3175278,0.2453766
		l1.6019287,1.371109l0.5485344,0.4187927c0.7359581,0.5343475,1.4865646,1.0678711,2.251545,1.5879211l0.4906693,0.3317261
		l1.8329315,1.2127075l0.7793541,0.4899292l1.6597023,1.0394897l0.4762917,0.2888641l0.3463745,0.201889l1.2701187,0.7504272
		l0.6782684,0.4045105l0.3609314,0.201889l0.4762039,0.2596588l0.6062164,0.3467407l0.3319016,0.1876068
		c1.1112595,0.6205902,2.2369843,1.2261658,3.3772659,1.8324738h0.1009903l0.259758,0.1298218l3.7524796,1.9489441h0.1011734
		c1.2700272,0.6348724,2.5544281,1.2840271,3.8678513,1.9188232l0.3030624,0.144928l0.2020721,0.1005402l6.0617065,2.8869629
		l1.2556458,0.6063995l2.1071548,1.0100861l0.5340729,0.3173523l0.4473572,0.2160797l2.1072464,0.8375854l4.0410767-1.9481049
		l0.4619217-0.2169189l2.4246826-1.16922l0.7359543-0.3459015l1.5732727-0.7504272l0.8803482-0.433075l1.4432526-0.6925507
		l0.8804398-0.4330902l1.4432526-0.7076569l0.7938232-0.4036865l1.5875549-0.7940063l0.6350555-0.3174438
		c0.7360458-0.3610229,1.4577255-0.7362213,2.1792145-1.1114349l0.2887802-0.1440277l1.83284-0.9674225l0.7361374-0.3894043
		l1.4432526-0.7362213l0.808197-0.4472656l1.2556534-0.7076721l0.8370361-0.4757385l1.1979675-0.6926575l0.8371277-0.5050354
		l1.1689453-0.6934814l0.8226624-0.5192261l1.1401978-0.7362366l0.8082886-0.5050507l1.1689377-0.7797241l0.7216721-0.5050354
		c0.4474564-0.2881317,0.866066-0.6055756,1.2989655-0.9087219l0.5628967-0.3903351l1.7896271-1.3559875l0.3752136-0.2889709
		l1.4432526-1.0971527l0.6350555-0.5335236l1.082428-0.9237366l0.6927338-0.6063995l0.9815216-0.8945465l0.692749-0.6498871
		l0.923645-0.9087219l0.6928406-0.6934814c0.3029633-0.3024139,0.6782684-0.7069244,0.8948059-0.9380341
		c0.2164459-0.2303619,0.4473572-0.4615479,0.6638031-0.7069244l0.8804474-0.9958038l0.6205902-0.7219543
		c0.3030548-0.3459015,0.5917511-0.7211151,0.8948059-1.0821381l0.562912-0.6926422
		c0.3175354-0.418808,0.6494293-0.8517914,0.9669647-1.299057c0.1443939-0.1876068,0.2885895-0.3609314,0.4185181-0.5628204
		c0.4618225-0.6156158,0.9092712-1.2512207,1.3422699-1.9053497l0.3174286-0.5050507
		c0.3320007-0.433075,0.6495209-0.9380188,0.9525909-1.4430695c0.1731415-0.2596588,0.3175354-0.5343475,0.4762878-0.7940063
		l0.7649841-1.3132324l0.4906769-0.8953705l0.6782684-1.2839355l0.4907532-0.9816132
		c0.2020721-0.4329834,0.4619293-0.9673309,0.6205902-1.299057c0.1588593-0.3316193,0.3175354-0.67836,0.4619293-1.0393829
		l0.1149902-0.2353363c-11.894989,13.0714874-28.5500565,19.7090149-45.8376999,20.3547516
		c-1.4529266,0.057785-2.9250259,0.057785-4.4163818,0c-2.5826187-0.0588837-5.1550064-0.2607574-7.7121964-0.5731354
		c-5.7286072-0.699646-11.3724365-2.0154724-16.8233261-3.958786h-0.2020721
		c-1.6020126-0.5771027-3.1895676-1.2118835-4.7627487-1.8903503l-0.2020721-0.0870667l-0.5339737-0.2453766
		c-4.4630966-1.9724426-8.699707-4.3770447-12.6591454-7.1626587c-6.5930099-4.6182709-12.4171715-10.2967377-17.21632-16.8388062
		c-1.1978722-1.6306763-2.3380661-3.3334045-3.4060173-5.0947418c-1.9852486-3.2865143-3.712677-6.7221069-5.1668968-10.2757416
		c-0.3368797-0.8082886-0.6544075-1.6164856-0.9526787-2.4246826c-0.1442986-0.433075-0.3030624-0.8517761-0.4474525-1.2697449
		c-0.41852-1.1407471-0.7504234-2.0787811-1.197876-3.4498749c-0.4473591-1.3710175-0.8948116-2.6700745-1.3133316-4.1131439
		c-2.526041-8.374527-4.5123024-16.9023819-5.9462509-25.5315933l-0.0104122-0.0645065
		c0.0593414,1.0084305,0.1217232,2.012619,0.1980171,2.9657593l0.1731396,2.2228851
		c0.1155491,1.3710098,0.245472,2.7420273,0.3753948,4.1131363c0.086525,0.808197,0.1586742,1.5008392,0.2452888,2.2512665
		c0.1634636,1.4624176,0.3367863,2.9054871,0.5196018,4.3301315c0.0865231,0.6490631,0.1587639,1.2990494,0.2453804,1.9481125
		c0.2885952,2.0636673,0.5916576,4.1282425,0.9380283,6.1768875c0.1154556,0.6499023,0.2165375,1.2989655,0.331995,1.9489441
		c0.0865231,0.4329834,0.1299229,0.6490631,0.2453804,1.2839355c0.1154556,0.6357117,0.2308216,1.2847748,0.3607445,1.9347534
		l0.1732311,0.9522247c0.1009903,0.5628204,0.2309132,1.1256256,0.3463707,1.6885376l0.2597542,1.3132477
		c0.1154556,0.1733246,0.1154556,0.3609161,0.1154556,0.5343323c0.1733246,0.8366699,0.3609295,1.6591492,0.5485344,2.4967499
		c0.086525,0.3467407,0.1586723,0.7068329,0.2452888,1.0535736v0.1708374V146.5417328z"/>
	<path class="st7" d="M27.6781769,134.7357483c0.41852,1.4430695,0.8659725,2.7421265,1.3133316,4.1131439
		c0.4474525,1.3710938,0.779356,2.3091278,1.197876,3.4498749c0.1443901,0.4179688,0.303154,0.8366699,0.4474525,1.2697449
		c0.2982712,0.808197,0.615799,1.616394,0.9526787,2.4246826c1.4542198,3.5536346,3.1816483,6.9892273,5.1668968,10.2757416
		c1.0679512,1.7613373,2.2081451,3.4640656,3.4060173,5.0947418c4.7991486,6.5420685,10.6233101,12.2205353,17.21632,16.8388062
		c3.9594383,2.785614,8.1960487,5.1902161,12.6591454,7.1626587l0.5339737,0.2453766l0.2020721,0.0870667
		c1.5731812,0.6784668,3.1607361,1.3132477,4.7627487,1.8903503h0.2020721
		c5.4508896,1.9433136,11.0947189,3.25914,16.8233261,3.958786l0.0646896-0.0844879
		c2.4742584,0.2940216,4.9623337,0.4850464,7.4599991,0.5420837c1.4817657,0,2.9537735,0,4.4163742,0
		c17.3191528-0.6491547,34.1187973-7.3461151,46.0256729-20.5515747c0.5628204-1.299057,1.1113586-2.6274109,1.6308594-4.0126953
		c3.8830566-10.7992096,6.7795258-21.9284821,8.654007-33.2503357c-2.1381073,0.1289978-4.2935486,0.2101746-6.4508362,0.2872925
		c-1.1440582,0.0410156-2.291626,0.0770416-3.4416809,0.1038513c-2.242691,0.0527039-4.4883423,0.0971222-6.7571106,0.0971222
		c-0.5882568,0-1.1732788-0.0075531-1.7601471-0.0108795c-3.2793121-0.0200806-6.5287781-0.107254-9.7577972-0.2361603
		c-0.6446381-0.0259857-1.2942505-0.0419312-1.9368744-0.071228c1.6407318,2.8049622,2.5266876,6.1815033,2.606308,10.1694031
		c-0.0996094,5.5645905-2.2211456,9.9567413-6.3635788,13.1761627c-4.0428238,3.2195282-8.7221832,5.1911316-14.0380783,5.9147491
		v4.455719h11.342865c1.7965317,0.0502167,3.331749-0.1624451,4.6048126-0.6365356
		c1.1725311-0.4489288,1.7839203-1.6968384,1.8342285-3.7438202h1.8719025v14.1880035h-22.3120804v-16.9585876
		c1.7722168-0.6984558,3.219429-1.7085419,4.3425751-3.0319214c1.0729294-1.296463,1.8962402-2.7571411,2.4707565-4.380249
		c0.6240005-1.6969299,1.0352402-3.4306335,1.2353745-5.2028351c0.0997009-1.7973633,0.1499252-3.4942017,0.1499252-5.0922699
		c0-3.5762939-0.733284-6.8711853-2.1128693-9.9206085c-2.8475342-0.2793884-5.6797714-0.5829926-8.4714661-0.9473419
		c-3.5980453-0.4690094-7.131134-1.0285034-10.6286545-1.6315002c-0.1368332-0.0238647-0.2736664-0.0477295-0.4108658-0.0707703
		c-0.2419739,0.3425903-0.4755554,0.6964264-0.6874008,1.0791931c-2.0468903,3.4690552-3.0452728,7.2982941-2.9950562,11.4910278
		c-0.0502167,3.3954315,0.4615555,6.8276215,1.5352173,10.295105c0.6231689,1.6231079,1.4347763,3.083786,2.4330673,4.380249
		c1.0980835,1.3233795,2.5084457,2.3334656,4.2304382,3.0319214v16.9585876H79.034584v-14.1880035h1.8350525
		c0,2.0469818,0.6482315,3.2948914,1.9464493,3.7438202c0.5988464,0.3249969,1.2847672,0.5109406,2.0586853,0.5611572
		c0.7730026,0.0502319,1.58461,0.0753784,2.433075,0.0753784h11.3427658v-4.455719
		c-5.19104-0.7236176-9.8075562-2.6952209-13.8503799-5.9147491c-4.2429657-3.2194214-6.4147186-7.6115723-6.5144119-13.1761627
		c0.1457672-7.2522125,2.9177399-12.5304108,8.2727966-15.8700867c-2.6356888-0.5737915-5.2308426-1.1914291-7.795311-1.8388367
		c-2.0766525-0.5251236-4.1387482-1.064537-6.1650009-1.6373978c-1.9395447-0.5486298-3.8443451-1.1282196-5.7358856-1.7195053
		c-6.7429314-2.1072464-13.1795731-4.4749832-19.2480087-7.091423c-0.1071625-0.0460663-0.2201309-0.0888214-0.3271103-0.1348953
		c0.0007362-0.0041504,0.0012894-0.0092163,0.0020256-0.0133591c-1.7849236-0.772171-3.5390739-1.5653458-5.2608833-2.3786163
		l-0.0041466,0.0067291l-9.1731415,15.0195999l-1.3338795,2.1842804l-0.0187054-0.0694733l-3.1012993-11.4676285
		c0.0032253,0.0493851,0.0018444,0.1013565,0.0051613,0.1507492l-0.7964039-2.9456711
		c-0.2305431-0.9107513-0.4372234-1.8268509-0.6267643-2.7462616c-0.6016102-2.9181213-0.9965401-5.8761292-1.18046-8.8517456
		c-0.0027637-0.0451508-0.0085697-0.0899353-0.0112419-0.1350861c-0.6491547-0.4094849-1.2630196-0.8366699-1.9007511-1.2520523
		c-0.2599392-0.166687-0.5093727-0.3350372-0.7650738-0.5033875c-0.5743351-0.3802795-1.1662693-0.7504196-1.7268734-1.1374283
		c0.0474529,1.3735962,0.1494579,2.7463608,0.1494579,4.1190338v-0.0719681
		c0.0866146,0.5343475,0.0866146,0.9815216,0.0866146,1.4430771c0.0293941,0.5142517,0.0600777,1.0334854,0.0905781,1.5518875
		l0.0104122,0.0645065C23.1658745,117.8333664,25.1521358,126.3612213,27.6781769,134.7357483z"/>
	<path class="st8" d="M115.6091156,131.7265015c-1.9966736-3.5193481-5.2664108-5.3284225-9.8083878-5.4289474
		c-4.0029297,0.089653-6.988678,1.5452576-8.9703293,4.3497543c0.1371994,0.0230408,0.2740326,0.0469055,0.4108658,0.0707703
		c3.4975204,0.6029968,7.0306091,1.1624908,10.6286545,1.6315002c2.7916946,0.3643494,5.6239319,0.6679535,8.4714661,0.9473419
		C116.1034698,132.770874,115.888031,132.2365265,115.6091156,131.7265015z"/>
	<path class="st8" d="M23.8868103,103.7384338c0.6399422,0.4122543,1.286335,0.8219223,1.9302387,1.2274551
		c0.003685,0.0022964,0.0072784,0.0046997,0.0109653,0.0069962c-1.0899754-14.7021637,0.6988201-34.786377,3.8996353-55.5917168
		c1.9281178,0.2093506,3.8148613,0.3576126,5.6601448,0.4480972c1.8453712,0.0904846,3.6490936,0.1239319,5.4108009,0.1063347
		c1.1743774-0.0117035,2.3303261-0.0469017,3.4673882-0.1030159c3.4111786-0.1675186,6.6535492-0.5276184,9.7239799-1.0359802
		c3.0705223-0.5084496,5.969101-1.1659012,8.6928864-1.9280243c0.9078979-0.2546883,1.7965355-0.5209846,2.6654549-0.7964973
		c1.7380219-0.5527725,3.3978195-1.145813,4.9786453-1.7664032c7.904129-3.1039696,13.8327866-6.9038124,17.6759338-9.8067245
		c0.768486-0.5813408,1.4538574-1.1257286,2.0546341-1.6223869c2.1031952-1.737009,3.1737213-2.8785839,3.1737213-2.8785839
		L70.4639664,67.2806473c0.3844299,0.7299652,0.7180862,1.5009384,0.9866867,2.3237839
		c0.6214142,1.7906418,1.0778961,3.7639084,1.3701782,5.9197159h0.2194901l3.2337112-13.5396767h15.8412476L80.6594543,96.9015121
		c0.767189,1.9364166,1.8266678,3.6919479,3.1792526,5.2614365c1.1692123,1.7186737,2.6667404,2.5762634,4.4942398,2.5762634
		c1.4615021,0,2.7588882-0.6029968,3.8920822-1.8090668c1.0594711-1.0586472,1.7353516-2.2831497,2.0276337-3.6717682h3.2346268
		c-0.2194824,3.6549988-0.9690781,7.2347107-2.2479477,10.7440186c-0.6574478,1.6432114-1.5888443,2.9967194-2.7949219,4.0553589
		c-1.1700439,1.0603027-2.6684036,1.626442-4.4950714,1.7001572c-2.3752899-0.0737152-4.348465-1.4623337-5.9197083-4.1659317
		c-1.5712433-2.7052689-2.7404633-6.1575394-3.5076599-10.3603287h-0.2193909
		c-1.8635254,3.9113388-4.3301392,7.2898941-7.3996429,10.1409302c-3.1433182,2.8492813-6.8887939,4.311615-11.2373581,4.3853302
		c-6.3917694-0.1163788-11.55019-1.9313431-15.5147858-5.3886871l-2.1223602,3.475769
		c1.7218094,0.8132706,3.4759598,1.6064453,5.2608833,2.3786163c-0.0007362,0.0041428-0.0012894,0.0092087-0.0020256,0.0133591
		c0.1069794,0.0460739,0.2199478,0.088829,0.3271103,0.1348953c6.0684357,2.6164398,12.5050774,4.9841766,19.2480087,7.091423
		c1.8915405,0.5912857,3.7963409,1.1708755,5.7358856,1.7195053c2.0262527,0.5728607,4.0883484,1.1122742,6.1650009,1.6373978
		c2.5644684,0.6474075,5.1596222,1.2650452,7.795311,1.8388367c0.1553574-0.096756,0.2904434-0.2089844,0.4502182-0.3027954
		c5.5151978-3.1692963,11.7791672-4.7538986,18.791893-4.7538986c7.0629501,0,13.352066,1.5846024,18.8680954,4.7538986
		c2.6144104,1.545639,4.6109009,3.5599976,6.0404205,6.003479c0.6426239,0.0292969,1.2922363,0.0452423,1.9368744,0.071228
		c3.2290192,0.1289062,6.4784851,0.2160797,9.7577972,0.2361603c0.5868683,0.0033264,1.1718903,0.0108795,1.7601471,0.0108795
		c2.2687683,0,4.5144196-0.0444183,6.7571106-0.0971222c1.1500549-0.0268097,2.2976227-0.0628357,3.4416809-0.1038513
		c2.1572876-0.0771179,4.3127289-0.1582947,6.4508362-0.2872925c0.0162201-0.0008392,0.0327148-0.0016632,0.0489349-0.0025024
		c0.0721436-0.3610077,0.1299133-0.7362213,0.1876068-1.0963287c1.3616943-8.2289352,2.2637939-16.5100327,2.740448-24.8066025
		c0.267868-4.6628723,0.411438-9.3300705,0.4001923-13.9968033c-0.0046997-1.9811935-0.0362091-3.9621124-0.0912323-5.9423828
		c0-0.0008316-0.0000916-0.0016556-0.0000916-0.0024872c-0.0084686-0.3053665-0.0256958-0.6102676-0.0353699-0.9155426
		c-0.0450592-1.4204025-0.0934448-2.8406219-0.1643066-4.2601089c-0.2193909-4.3940811-0.5762634-8.7815247-1.0431519-13.1593933
		c-0.7843323,0.1411667-1.5673828,0.288414-2.3535614,0.419899c-6.9512634,1.1737366-13.6976013,2.1562729-20.6390991,0.2688828
		l-0.4384308-0.1299286c-1.341156,0.0750046-2.685257,0.0824738-4.0272522,0.0223923
		c-3.3222656-0.1590424-9.0363998-0.5452194-9.8963852-4.6209412c-0.1261444-0.5872345-0.1295547-1.194191-0.0098572-1.7828064
		c0.4569473-2.2461052,2.5151749-4.0298347,4.2592697-5.3645439c2.4932404-1.9007492,5.2063446-3.5694809,7.8663635-5.2602386
		l1.7948761-1.1538277c2.2760468-1.4643555,4.5487823-2.9689789,6.7597961-4.5601273
		c1.1271973-0.8082886,2.2431488-1.6615448,3.3161774-2.552948c-14.7279663,0.6813164-29.4234085-2.7207413-42.4163895-9.940979
		c-3.8131104-2.1397743-7.4653397-4.5500832-10.9315338-7.2089977c-1.1460876-0.8791466-2.2707062-1.786768-3.3748703-2.71982
		c-0.0347366-0.0293941-0.0714111-0.0563011-0.1061554-0.0856953c-4.45121,3.7571812-9.2453766,7.0881023-14.3229904,9.9424534
		c-0.0250626,0.0141907-0.0508575,0.0268173-0.0760193,0.0401764c-0.0181503,0.0100441-0.0355682,0.0218391-0.0538101,0.0318832
		c-15.6624908,8.7053261-33.8000679,11.8762856-51.4856796,9.0077438c-0.4683685,2.0661507-0.8961945,4.2136612-1.309,6.3342705
		l-0.3462772,1.9481125c-0.2886887,1.5595398-0.5629101,3.1181602-0.808197,4.6768723
		c-0.1155491,0.6205902-0.2310066,1.3710136-0.3319969,2.0636635c-0.2742214,1.7605057-0.5196018,3.5361252-0.7504215,5.3259354
		c-0.0578671,0.4036865-0.1588573,0.7931747-0.1588573,1.1976929c-0.2742214,2.2227936-0.5051346,4.3585129-0.721674,6.5521011
		l-0.1298313,1.6022034c-0.1587639,1.6742554-0.2885952,3.362709-0.4040527,5.036972l-0.1299229,2.049469
		c-0.0866146,1.674263-0.2310047,3.3484268-0.2310047,5.0226898c0,0.5486298,0,1.0821457,0,1.6306763
		c-0.1009903,2.2086029-0.1009903,4.4306641-0.1009903,6.6391754v0.1708374v0.7094193
		c0.0144653,1.948204,0.0866146,3.8678436,0.0866146,5.773201c0,0.0558395,0,0.1138916,0,0.1708374
		c0,0.2039185,0,0.4154816,0,0.6231689c0.0016594,0.0552902,0.0054379,0.1105728,0.0072803,0.165863
		c0.55093,0.397789,1.1355858,0.790596,1.7289009,1.1817474C23.3774376,103.4033966,23.6268711,103.5717468,23.8868103,103.7384338z
		"/>
	<path class="st8" d="M161.9682617,62.7534142c-0.0003662-0.0024872-0.0006409-0.0050659-0.0010223-0.0076485
		c-8.8014221,2.7318954-19.3317566,5.0937347-26.4289856,4.7571335c-0.9072571-0.0402679-1.7147064-0.1013565-2.4295654-0.1819839
		c0.7189941,0.0814514,1.5314331,0.1431885,2.4453278,0.1838226
		C142.6472778,67.841156,153.1697693,65.4820862,161.9682617,62.7534142z"/>
	<path class="st8" d="M153.3478851,67.5023422c-1.7177429,0.4052505-3.5036011,0.8021164-5.3504486,1.1460037
		c0.0206451-0.0003738,0.0411987-0.002121,0.0618286-0.0025864C149.8821564,68.2961655,151.644516,67.915062,153.3478851,67.5023422
		z"/>
	<path class="st8" d="M146.0455475,56.0101166c0.4972076-0.2768936,0.9939575-0.5537872,1.4867554-0.8252449
		c0.9200592-0.5072517,1.7600403-0.9604187,2.5350647-1.3792152c-0.77005,0.4149284-1.6039581,0.8633919-2.5175629,1.365303
		C147.0510254,55.4472084,146.5485687,55.7286148,146.0455475,56.0101166z"/>
	<path class="st8" d="M136.7021332,58.4290848c-1.7049561,1.3718452-3.3148041,2.8480873-4.7435913,4.5106468
		c0.6705322-0.2376404,1.339035-0.4941711,2.005249-0.7665482c-0.6600342,0.2675858-1.3226471,0.5197868-1.9877472,0.7526321
		C133.3999481,61.2689705,135.0036316,59.7969666,136.7021332,58.4290848z"/>
	<path class="st8" d="M152.3894043,47.3125305c0.0136414-0.0115204,0.026535-0.0239563,0.0401764-0.0355682
		C152.4160309,47.2885742,152.4029541,47.3010101,152.3894043,47.3125305z"/>
	<path class="st8" d="M154.7461853,44.8777122c-0.0013885,0.0000916-0.0029602,0.0001831-0.0043335,0.0003662
		c-0.5707397,0.7171593-1.136795,1.3289032-1.7295532,1.8814926
		C153.6064453,46.2068901,154.174057,45.5946846,154.7461853,44.8777122z"/>
	<path class="st8" d="M141.0695801,55.0148659c5.6231995-3.6465149,10.2023926-6.8979149,12.5834961-9.3702393
		c-2.3935394,2.4695587-6.9853668,5.7131271-12.5659943,9.3563271c-2.8731384,1.8576279-5.9431152,3.7292595-8.3344421,5.4406548
		C135.1409302,58.733532,138.2044525,56.8665047,141.0695801,55.0148659z"/>
	<path class="st8" d="M53.7458725,105.178093c0.8032227,4.4222794,3.0511703,6.6317139,6.7421951,6.6317139
		c2.2286911,0,4.0193329-0.9665909,5.3720093-2.9046631c1.3509216-1.8626938,2.3200073-4.1106491,2.9045715-6.7421951
		c0.9866791-5.7003174,1.4430695-10.2313232,1.3702774-13.5932999c0-1.6448669-0.0368652-3.7822418-0.1089172-6.413887
		c-0.0737152-2.5209732-0.4212875-5.097229-1.0418777-7.7271194c-0.2249222-1.1565933-0.5371094-2.2257462-0.910202-3.234169
		l-9.6419678,15.7889099l-2.2545853,3.6918564l-0.6352425,1.0402145l-2.8190613,4.6166077
		C52.9311333,99.9543457,53.2700386,102.9133759,53.7458725,105.178093z"/>
	<path class="st5" d="M55.5421333,91.7154541l0.6352425-1.0402145l2.2545853-3.6918564l9.6419678-15.7889099
		c-0.4758301-1.2855988-1.0590134-2.4640274-1.7758026-3.5080261c-1.3518448-1.7169189-3.1793442-2.6131134-5.4809227-2.6868286
		c-1.8635216,0.0737152-3.362709,0.8224792-4.4950714,2.2479477c-0.5116768,0.6582794-1.0050163,1.4790955-1.4799271,2.4657822
		c-0.4380531,0.9865875-0.8040504,2.0284576-1.0963326,3.125618c-0.9137039,4.7874527-1.334156,8.7154694-1.2605324,11.7842407
		c-0.0351982,4.4833679,0.0460701,8.375351,0.2377319,11.7088547L55.5421333,91.7154541z"/>
	<path class="st5" d="M41.2489052,107.315567c-4.1659355-5.3720093-6.2488556-11.9115829-6.2488556-19.6235886
		c0.0728874-7.0520782,2.3568649-13.3001938,6.8519363-18.7458267c4.2378998-5.4809227,9.9206161-8.2950058,17.0464096-8.4407806
		c4.495163,0.0737152,7.819355,1.5343857,9.9759941,4.3853302c0.6120224,0.7307968,1.1372452,1.5310669,1.5895767,2.389946
		l22.7672729-37.2826614c0,0-1.0705261,1.1415749-3.1737213,2.8785839
		c-0.6007767,0.4966583-1.2861481,1.0410461-2.0546341,1.6223869c-3.8431473,2.9029121-9.7718048,6.702755-17.6759338,9.8067245
		c-1.5808258,0.6205902-3.2406235,1.2136307-4.9786453,1.7664032c-0.8689194,0.2755127-1.7575569,0.5418091-2.6654549,0.7964973
		c-2.7237854,0.7621231-5.622364,1.4195747-8.6928864,1.9280243c-3.0704308,0.5083618-6.3128014,0.8684616-9.7239799,1.0359802
		c-1.1370621,0.0561142-2.2930107,0.0913124-3.4673882,0.1030159c-1.7617073,0.0175972-3.5654297-0.0158501-5.4108009-0.1063347
		c-1.8452835-0.0904846-3.7320271-0.2387466-5.6601448-0.4480972c-3.2008152,20.8053398-4.9896107,40.8895531-3.8996353,55.5917168
		c-0.0036869-0.0022964-0.0072803-0.0046997-0.0109653-0.0069962c0.0042381,0.0583267,0.0066338,0.1200638,0.0109653,0.178299
		c0.0011044,0.0149231,0.0016575,0.0308685,0.0027637,0.0457916c0.1761799,2.9536819,0.5608807,5.8898621,1.1484852,8.7873383
		c0.1895409,0.9194107,0.3962212,1.8355103,0.6267643,2.7462616l0.7964039,2.9456711
		c-0.0033169-0.0493927-0.001936-0.1013641-0.0051613-0.1507492l3.1012993,11.4676285l0.0187054,0.0694733l1.3338795-2.1842804
		l9.1731415-15.0195999l0.0041466-0.0067291l2.1223602-3.475769
		C43.1058846,109.458374,42.1251945,108.4587936,41.2489052,107.315567z"/>
	<path class="st4" d="M93.9703293,130.1560974c-0.1332397-0.0251617-0.262146-0.0544586-0.3952942-0.0795288
		c-2.2964249-0.4304962-4.5732117-0.884491-6.8204269-1.371109c-0.0663452-0.0146484-0.1297379-0.0317841-0.1959915-0.0464325
		c-5.3550568,3.3396759-8.1270294,8.6178741-8.2727966,15.8700867c0.0996933,5.5645905,2.2714462,9.9567413,6.5144119,13.1761627
		c4.0428238,3.2195282,8.6593399,5.1911316,13.8503799,5.9147491v4.455719H87.3078461
		c-0.848465,0-1.6600723-0.0251465-2.433075-0.0753784c-0.7739182-0.0502167-1.4598389-0.2361603-2.0586853-0.5611572
		c-1.2982178-0.4489288-1.9464493-1.6968384-1.9464493-3.7438202H79.034584v14.1880035h22.3120804v-16.9585876
		c-1.7219925-0.6984558-3.1323547-1.7085419-4.2304382-3.0319214c-0.998291-1.296463-1.8098984-2.7571411-2.4330673-4.380249
		c-1.0736618-3.4674835-1.585434-6.8996735-1.5352173-10.295105c-0.0502167-4.1927338,0.9481659-8.0219727,2.9950562-11.4910278
		c0.2118454-0.3827667,0.4454269-0.7366028,0.6874008-1.0791931
		C95.8753204,130.4856873,94.9143524,130.3311615,93.9703293,130.1560974z"/>
	<path class="st4" d="M129.708847,134.3035889c-3.3118515-0.166687-6.595047-0.3885651-9.8447876-0.6666565
		c-0.9975586-0.0854187-1.9872742-0.1834564-2.9784698-0.2789154c-0.1831818-0.0179749-0.3612976-0.0431366-0.5442047-0.0610962
		c1.3795853,3.0494232,2.1128693,6.3443146,2.1128693,9.9206085c0,1.5980682-0.0502243,3.2949066-0.1499252,5.0922699
		c-0.2001343,1.7722015-0.6113739,3.5059052-1.2353745,5.2028351c-0.5745163,1.6231079-1.3978271,3.083786-2.4707565,4.380249
		c-1.1231461,1.3233795-2.5703583,2.3334656-4.3425751,3.0319214v16.9585876h22.3120804v-14.1880035h-1.8719025
		c-0.0503082,2.0469818-0.6616974,3.2948914-1.8342285,3.7438202c-1.2730637,0.4740906-2.8082809,0.6867523-4.6048126,0.6365356
		h-11.342865v-4.455719c5.3158951-0.7236176,9.9952545-2.6952209,14.0380783-5.9147491
		c4.1424332-3.2194214,6.2639694-7.6115723,6.3635788-13.1761627c-0.0796204-3.9878998-0.9655762-7.3644409-2.606308-10.1694031
		c-0.0104065-0.0004578-0.0209961-0.0004578-0.0315094-0.000824
		C130.3531189,134.3437653,130.0329132,134.3195343,129.708847,134.3035889z"/>
	<path class="st9" d="M124.6688232,128.3562317c-5.5160294-3.1692963-11.8051453-4.7538986-18.8680954-4.7538986
		c-7.0127258,0-13.2766953,1.5846024-18.791893,4.7538986c-0.1597748,0.093811-0.2948608,0.2060394-0.4502182,0.3027954
		c0.0662537,0.0146484,0.1296463,0.0317841,0.1959915,0.0464325c2.2472153,0.486618,4.5240021,0.9406128,6.8204269,1.371109
		c0.1331482,0.0250702,0.2620544,0.0543671,0.3952942,0.0795288c0.9440231,0.1750641,1.9049911,0.3295898,2.8600693,0.4912109
		c1.9816513-2.8044968,4.9673996-4.2601013,8.9703293-4.3497543c4.5419769,0.1005249,7.8117142,1.9095993,9.8083878,5.4289474
		c0.2789154,0.510025,0.4943542,1.0443726,0.7322693,1.5704193c0.1829071,0.0179596,0.3610229,0.0431213,0.5442047,0.0610962
		c0.9911957,0.095459,1.9809113,0.1934967,2.9784698,0.2789154c3.2497406,0.2780914,6.5329361,0.4999695,9.8447876,0.6666565
		c0.3240662,0.0159454,0.6442719,0.0401764,0.9688873,0.0552979c0.0105133,0.0003662,0.0211029,0.0003662,0.0315094,0.000824
		C129.2797241,131.9162292,127.2832336,129.9018707,124.6688232,128.3562317z"/>
	<path class="st9" d="M68.0739288,71.1944733c0.3730927,1.0084229,0.6852798,2.0775757,0.910202,3.234169
		c0.6205902,2.6298904,0.9681625,5.2061462,1.0418777,7.7271194c0.072052,2.6316452,0.1089172,4.7690201,0.1089172,6.413887
		c0.0727921,3.3619766-0.3835983,7.8929825-1.3702774,13.5932999c-0.5845642,2.631546-1.5536499,4.8795013-2.9045715,6.7421951
		c-1.3526764,1.9380722-3.1433182,2.9046631-5.3720093,2.9046631c-3.6910248,0-5.9389725-2.2094345-6.7421951-6.6317139
		c-0.4758339-2.2647171-0.8147392-5.2237473-1.0228004-8.8460312l-4.2438889,6.9498901l-4.3283806,7.0872726
		c3.9645958,3.4573441,9.1230164,5.2723083,15.5147858,5.3886871c4.3485641-0.0737152,8.0940399-1.5360489,11.2373581-4.3853302
		c3.0695038-2.8510361,5.5361176-6.2295914,7.3996429-10.1409302h0.2193909
		c0.7671967,4.2027893,1.9364166,7.6550598,3.5076599,10.3603287c1.5712433,2.703598,3.5444183,4.0922165,5.9197083,4.1659317
		c1.8266678-0.0737152,3.3250275-0.6398544,4.4950714-1.7001572c1.2060776-1.0586395,2.1374741-2.4121475,2.7949219-4.0553589
		c1.2788696-3.5093079,2.0284653-7.0890198,2.2479477-10.7440186h-3.2346268
		c-0.2922821,1.3886185-0.9681625,2.613121-2.0276337,3.6717682c-1.133194,1.2060699-2.4305801,1.8090668-3.8920822,1.8090668
		c-1.8274994,0-3.3250275-0.8575897-4.4942398-2.5762634c-1.3525848-1.5694885-2.4120636-3.3250198-3.1792526-5.2614365
		l11.4558258-34.9170418H76.2740326L73.0403214,75.524147h-0.2194901c-0.2922821-2.1558075-0.748764-4.1290741-1.3701782-5.9197159
		c-0.2686005-0.8228455-0.6022568-1.5938187-0.9866867-2.3237839L68.0739288,71.1944733z"/>
	<path class="st10" d="M68.8743896,64.8907013c-2.1566391-2.8509445-5.4808311-4.311615-9.9759941-4.3853302
		c-7.1257935,0.1457748-12.8085098,2.9598579-17.0464096,8.4407806c-4.4950714,5.4456329-6.7790489,11.6937485-6.8519363,18.7458267
		c0,7.7120056,2.0829201,14.2515793,6.2488556,19.6235886c0.8762894,1.1432266,1.8569794,2.142807,2.9018974,3.0536575
		l4.3283806-7.0872726l4.2438889-6.9498901c-0.1916618-3.3335037-0.2729301-7.2254868-0.2377319-11.7088547
		c-0.0736237-3.0687714,0.3468285-6.996788,1.2605324-11.7842407c0.2922821-1.0971603,0.6582794-2.1390305,1.0963326-3.125618
		c0.4749107-0.9866867,0.9682503-1.8075027,1.4799271-2.4657822c1.1323624-1.4254684,2.6315498-2.1742325,4.4950714-2.2479477
		c2.3015785,0.0737152,4.1290779,0.9699097,5.4809227,2.6868286c0.7167892,1.0439987,1.2999725,2.2224274,1.7758026,3.5080261
		l2.3900375-3.913826C70.0116348,66.4217682,69.486412,65.6214981,68.8743896,64.8907013z"/>
	<path class="st4" d="M191.1709747,58.07341c-0.017868,0.005806-0.0342712,0.0145569-0.0521545,0.0203629
		C191.1367035,58.0879669,191.1531067,58.079216,191.1709747,58.07341
		C191.1709747,58.0733185,191.1709747,58.07341,191.1709747,58.07341z"/>
	<path class="st1" d="M195.3951416,20.0671387c0.0833893,0.0484676,0.1646729,0.0976734,0.2444611,0.1488132
		C195.5670929,20.1655502,195.4837952,20.1161594,195.3951416,20.0671387z"/>
	<path class="st2" d="M180.7978363,16.1923828l-0.494812,0.0146503l-0.7532806,0.0486526l-0.4896545,0.0391617l-0.8048706,0.0825596
		l-0.4522552,0.0593414c-0.2985382,0.0373192-0.591095,0.0911312-0.8835602,0.1450348l-0.3239899,0.050312
		c-0.3903198,0.0744514-0.8138123,0.1609745-1.1667175,0.2556076l-0.3275757,0.0816402
		c-0.278656,0.0714111-0.5651245,0.141901-0.8219299,0.2316494l-0.4446869,0.1318588l-0.7015839,0.2216072l-0.472702,0.1684399
		l-0.6483307,0.2436295l-0.4842224,0.1988468c-0.2167206,0.0864315-0.4256134,0.1737843-0.627594,0.2698898l-0.4692841,0.2086143
		l-0.6486969,0.315134l-0.4144592,0.21488c-0.2709961,0.143837-0.5420837,0.287674-0.8454285,0.435751l-0.4268188,0.253212
		c-0.2640839,0.1525898-0.5290833,0.3130131-0.7870941,0.4821911l-0.4138184,0.2785511l-0.560791,0.3809242l-0.442749,0.3229656
		l-0.5049438,0.3794498l-0.4385223,0.355217l-0.3635101,0.3957596l-0.4334412,0.3796329l-0.1943359,0.1686249
		c0.3882904-0.0189819,0.7705078-0.0351067,1.0898895-0.0430317c0.0027618-0.0000916,0.0047913-0.0000916,0.0075531-0.000185
		c0.0009155,0.0000935,0.002121,0.0000935,0.0030365,0.0000935c0.0452423-0.0012913,0.0811768-0.0011978,0.1236572-0.0020275
		c0.1429138-0.0024891,0.2620544-0.0020275,0.3606567,0.0008297c0.0595245,0.0019341,0.1283569,0.0025787,0.1692657,0.0072784
		c8.2997131,0.7076683,18.7086029,5.3834343,23.005188,10.2451496c0.1477966,0.1679764,0.2692413,0.3364182,0.4020233,0.5047646
		c0.1174011,0.147892,0.2479706,0.295784,0.3532867,0.443676c3.1451569,4.4656754-0.9359131,10.701355-6.1773529,13.6781654
		c0.4048767-0.1317673,0.8132629-0.21138,1.2206421-0.2654686c0.3296814-0.043766,0.6552277-0.0443192,0.9815216-0.0398064
		c0.085968,0.0078316,0.1672363,0.0355682,0.252655,0.0467186c0.1483459,0.0075569,0.296524-0.0129929,0.4445038,0.0043297
		c2.327652,0.2725639,4.2413025,1.6886368,5.2511139,3.6197014c0.0241394,0.0468102,0.0410919,0.09832,0.0642242,0.1458664
		c0.1654053,0.3352203,0.3090515,0.6825104,0.4180603,1.044178c0.054184,0.1834602,0.0780487,0.372448,0.1165619,0.5592232
		c0.0555573,0.2621498,0.1233826,0.5204315,0.1476135,0.7913361c0.0397186,0.4668922,0.0396271,0.9377518-0.0175934,1.4056587
		c-0.0375977,0.3828583-0.1359253,0.7497787-0.2353363,1.115406c-0.1038513,0.3598213-0.230835,0.711998-0.3918915,1.0504456
		c-0.017334,0.0376854-0.0334473,0.0757408-0.0514221,0.11306c-0.1129608,0.2267647-0.2372742,0.4482803-0.3752136,0.6622391
		c0.0178833-0.005806,0.0342865-0.0145569,0.0521545-0.0203629c7.4139252-2.4270782,13.3123627-8.0227203,16.2110291-15.2178955
		c0.0305939-0.0758362,0.0633087-0.1503792,0.0931549-0.2265854c0.1345367-0.3430519,0.2989197-0.6701622,0.4195404-1.0203133
		c-0.0013885-0.0212822,0.0010071-0.0425682,0.0072784-0.0628395c0.023407-0.2041016-0.0237732-0.4163094-0.0386047-0.6327553
		c-0.0149384-0.2165375-0.0237732-0.4164009-0.0404663-0.6170883c-0.0167694-0.2007828-0.0386047-0.4259834-0.0621948-0.6355209
		c-0.0236816-0.2095337-0.041275-0.4024849-0.0657806-0.6040955c-0.0246124-0.2017059-0.0630341-0.420826-0.0945435-0.6312828
		c-0.0315094-0.2103653-0.0578613-0.3964043-0.0989685-0.5920258c-0.0411835-0.1956215-0.0786896-0.4225731-0.1189575-0.6260262
		l-0.1234741-0.5868683c-0.0480957-0.2043762-0.0961914-0.4087524-0.1521301-0.614048
		c-0.0559235-0.2052994-0.0988617-0.3851624-0.1488037-0.5738754s-0.112793-0.4026718-0.176651-0.6088905
		c-0.0637512-0.2061234-0.115448-0.3790817-0.1819763-0.5617104l-0.1940613-0.5949745
		c-0.0655975-0.1905556-0.1399689-0.374012-0.2134094-0.5653954l-0.2213287-0.5663185l-0.2438965-0.5768242l-0.2406006-0.5366478
		c-0.12117-0.2605839-0.2432556-0.5131512-0.3731842-0.7667332c-0.1299133-0.2535801-0.2529297-0.4983158-0.3925323-0.7370605
		c-0.1395874-0.2387466-0.2156982-0.4066334-0.3283997-0.6024399l-0.2940369-0.4871674l-0.3347473-0.5475197
		c-0.1006317-0.1627274-0.2100067-0.3184509-0.3184509-0.4820061l-0.3541107-0.5179443l-0.3437958-0.4690132l-0.3802795-0.4970264
		l-0.3612976-0.4551926l-0.4057159-0.4840336l-0.379715-0.4333534c-0.1408081-0.1593189-0.2815094-0.3187275-0.4310608-0.4711342
		l-0.3902283-0.4106865l-0.4642181-0.458971l-0.4008331-0.3881111l-0.5123138-0.4565754l-0.3895874-0.3470154
		c-0.1878815-0.164753-0.3923492-0.3234253-0.5889893-0.4812679l-0.3496857-0.2787361
		c-0.3141174-0.2428932-0.6360779-0.4867058-0.9676971-0.7156849l-0.1923981-0.1254997l-0.8199005-0.5476131
		c-0.0237732-0.0163097-0.0493927-0.0293026-0.073349-0.0446911c-0.0797882-0.0511398-0.1610718-0.1003456-0.2444611-0.1488132
		c-0.023407-0.0136375-0.0448761-0.0277348-0.0687408-0.041832l-0.6616821-0.4021187l-0.4414673-0.2416019
		c-0.2098999-0.1116791-0.426712-0.2320194-0.6453705-0.3366947l-0.4659729-0.2364426l-0.6489716-0.3052731l-0.4930725-0.2077866
		l-0.6525574-0.2738514l-0.5027466-0.1929512l-0.6728363-0.2363491l-0.5133362-0.1703739l-0.7068329-0.2164478l-0.5090942-0.138031
		l-0.7732849-0.1923065l-0.4960938-0.1126919c-0.2747803-0.0315132-0.5519562-0.1111259-0.8327179-0.159317l-0.4239502-0.0486526
		c-0.4317017-0.0496655-0.8556519-0.0983181-1.2874451-0.1479836c-0.4316864-0.0495739-0.8478088-0.0973969-1.2638397-0.1452198
		l-0.4082031-0.0468998c-0.282608-0.0325279-0.5697327-0.0257092-0.8480988-0.0258942l-0.4842224-0.0079231L180.7978363,16.1923828z
		 M189.617981,18.3433056c11.2952271,4.1454754,17.0478821,13.8181324,16.5741577,25.6228237
		c-0.1603241,1.2918625-1.2415466,2.235508-2.5031891,2.2758675c-0.1145325,0.0280151-0.2309113,0.0505905-0.3501434,0.0628433
		c-0.0215607-0.0021172-0.0422974,0.0011978-0.063858-0.0014725c-0.0996094-0.0123482-0.1918488-0.0424805-0.2872162-0.0654221
		c-1.2724152-0.3064728-2.1444702-1.5141144-1.9793396-2.8436661c0.0344543-0.2998352,0.0438538-0.5880623,0.0682678-0.8832932
		c0.0340118-0.4148331,0.0772247-0.8339043,0.0918732-1.2397079c0.0051575-0.1394157-0.0032196-0.2725639-0.0003662-0.4108734
		c0.0107727-0.5342522,0.016861-1.0662918-0.0055237-1.5846024c-0.0055389-0.1267891-0.023407-0.247406-0.0308685-0.3731842
		c-0.0306854-0.5168381-0.0668182-1.0310936-0.1301117-1.5318069c-0.0493011-0.3874664-0.1244965-0.76194-0.193222-1.1397324
		c-0.0405426-0.224556-0.0684662-0.4556503-0.1157379-0.6767998c-1.5531921-7.2128639-6.6801758-12.5933495-14.1774902-16.0961208
		c-1.1028748-0.5193253-1.7315826-0.8069992-2.0747223-0.9568253c0.0417328,0.0222988,0.0473633,0.0251541-0.0059052-0.0025806
		c-1.4364319-0.6264896,2.3036041,1.2457905-2.5281525-1.2245979c0.0480042-0.0031319,0.083847-0.0047913,0.1308441-0.00774
		c-0.045517-0.0233116-0.0756531-0.0387001-0.1227417-0.0628414
		C185.4534302,17.0693188,186.1680908,17.079916,189.617981,18.3433056z"/>
	<path class="st2" d="M181.7154083,44.5948296c2.1552582,0.0340004,4.0301208-1.5505142,4.2813873-3.7369118
		c0.2675018-2.3282089-1.4029846-4.4324112-3.7310944-4.6999092c-2.3282166-0.2675858-4.4324188,1.4028969-4.6999969,3.7310143
		c-0.0018463,0.0157547-0.0036011,0.0316048-0.0052643,0.0473633c-0.0175934,0.167057-0.0041351,0.3288612-0.0023041,0.4927864
		c0.0013885,0.1114006-0.0115051,0.2251091-0.0014648,0.3346672c0.0195312,0.2176437,0.0679932,0.4266281,0.1197815,0.6346893
		c0.0146484,0.0583267,0.018158,0.1201553,0.035202,0.1775627c0.0698395,0.2369003,0.1656799,0.462471,0.2743988,0.681221
		c0.0119781,0.0241432,0.0184326,0.0508652,0.0308685,0.0747299c0.1214447,0.2332153,0.2656555,0.4527054,0.4273682,0.6587372
		c0.0054321,0.0069122,0.0091248,0.0150223,0.0145569,0.0219307c0.1622772,0.2041931,0.3446198,0.3912468,0.5419922,0.5628166
		c0.0083923,0.0072823,0.0145569,0.0164032,0.0230408,0.0235901c0.1886139,0.1613464,0.3950195,0.3017731,0.6111908,0.4286537
		c0.0219269,0.0128098,0.0400848,0.0304108,0.0621948,0.0428467c0.1919403,0.1080856,0.3991699,0.1909256,0.6091766,0.2686958
		c0.0543518,0.0201797,0.1030121,0.0502167,0.1585693,0.0681839c0.1694641,0.0549202,0.3507996,0.0820084,0.5297394,0.1156425
		c0.1019135,0.019352,0.1973724,0.0538139,0.3020477,0.0658836c0.0051575,0.0005531,0.0100403-0.00037,0.015213,0.0001831
		c0.0056152,0.0006447,0.0105896,0.0028572,0.0162048,0.0034103c0.1099396,0.0126228,0.2158966,0.0003662,0.3246307,0.0045128
		c0.005249-0.0005493,0.0103149-0.0023956,0.0155792-0.0029449
		C181.684082,44.5946426,181.6997528,44.5945511,181.7154083,44.5948296z M185.4612579,39.841938
		c-0.0001831,0.0012894-0.0010071,0.0023956-0.0011902,0.003685c-0.0001831,0.0014725,0.0005493,0.0026703,0.0003662,0.0041466
		c-0.0002747,0.0025787-0.0020294,0.0045128-0.0023041,0.0070953c-0.0000916-0.0011978-0.0004578-0.0022125-0.0006409-0.0033188
		c-0.1221008,1.0035439-1.029541,1.7229118-2.0354767,1.6072731c-0.0025787-0.0002785-0.005249-0.0005531-0.0078278-0.0009232
		c-0.0312347-0.0035934-0.0552826-0.02285-0.085968-0.0279198c-0.005249,0.0006447-0.0106049,0.0007362-0.0158539,0.0013847
		c-0.0067291-0.0011978-0.0122528-0.0048866-0.0189819-0.006176c-0.6930084-0.132412-1.240448-0.6248283-1.4295197-1.272419
		c-0.0671844-0.2285194-0.0905762-0.473896-0.0616455-0.7253609c0.0003662-0.0025787,0.0006409-0.005249,0.0009155-0.0078316
		c0.1161041-1.0101776,1.029068-1.7349815,2.0392456-1.6188812
		C184.8525543,37.9187012,185.5773621,38.8317604,185.4612579,39.841938z"/>
	<path class="st6" d="M168.0681152,65.8281784c1.6399841-0.3449936,3.2733307-0.7126465,4.8603363-1.0976257
		c4.543808-1.1022263,8.6842194-2.347374,11.3299561-3.6232033c-2.0307617-0.33955-3.799942-1.5774155-4.814621-3.3689766
		c-0.5923157,0.5762711-1.2644958,1.0642662-1.9959412,1.4488754c-1.8026123,0.9683456-3.6669769,1.8169022-5.5811768,2.5402336
		c-5.5989532,2.1969948-11.3377991,4.0193291-17.1786346,5.4546623c-0.4328003,0.1142578-0.8953705,0.2123947-1.3401489,0.3201981
		c-1.7033691,0.4127197-3.4657288,0.7938232-5.28862,1.1434174c-0.0103149,0.0019379-0.0200806,0.0042419-0.0303955,0.0061798
		c4.008728-0.0831146,8.002533-0.5157318,11.9360809-1.2928772c1.0543213-0.1771011,2.1445618-0.3689499,3.2552643-0.573967
		c0.68013-0.1255035,1.369278-0.257637,2.0611877-0.3926315C166.2061615,66.2120514,167.1369934,66.0239792,168.0681152,65.8281784z
		"/>
	<path class="st7" d="M161.9672394,62.7457657c0.9257812-0.2873955,1.8304443-0.5782051,2.7118988-0.8711281
		c0.9430084-0.3132935,1.8559723-0.6276894,2.7340088-0.9408875c1.7472382-0.6232643,3.3484344-1.2384186,4.7510529-1.8219681
		c2.3075714-0.9600487,4.0796814-1.8325653,5.0385437-2.4978447c0.3018646-0.2039146,0.8553772-0.5220909,1.4807587-0.9115829
		c-0.3794556-1.9272881,0.0876312-3.9246979,1.2823639-5.4838715c-5.617569-0.2075996-8.0828857-1.9864464-10.1199188-4.3546448
		c-1.6620026-1.9322662-3.0399323-4.2556801-5.604126-6.4480705c-0.0276337-0.0237732-0.0576782-0.0388832-0.0856018-0.0617332
		c-1.5359497-1.2579536-3.4670105-1.157795-5.5158386,0.3565979c0.0182343-0.0078354,0.0372162-0.0101357,0.0554657-0.0175095
		c1.3063354-0.5272484,2.800354,0.0785065,3.3594818,1.3793068c0.3223267,0.7498703,0.2737732,1.6076431-0.1312103,2.3164139
		c-4.2012177,6.2527237-6.4300995,7.4928017-11.8567505,10.4168129c-0.7750244,0.4187965-1.6150055,0.8719635-2.5350647,1.3792152
		c-0.4927979,0.2714577-0.9895477,0.5483513-1.4867554,0.8252449c-3.910141,2.1885185-7.9446716,4.4859505-12.0817566,6.1630669
		c-0.666214,0.272377-1.3347168,0.5289078-2.005249,0.7665482c1.4287872-1.6625595,3.0386353-3.1388016,4.7435913-4.5106468
		c2.8354492-2.2835159,5.9352722-4.2765045,8.9047241-6.3527908c3.0268402-2.1175652,5.0535583-3.3003311,6.782547-4.7637634
		c0.0135498-0.0115204,0.0266266-0.0239563,0.0401764-0.0355682c0.1975555-0.1681633,0.3917999-0.3397369,0.5827179-0.5173912
		c0.5927582-0.5525894,1.1588135-1.1643333,1.7295532-1.8814926c0.6642609-0.8347321,1.3375549-1.8236237,2.065033-3.0426941
		c0.1739807-0.2914505,0.3490448-0.5876961,0.5301056-0.9072533c0.0043335-0.0076447,0.0083008-0.0140038,0.0126343-0.0216522
		c-0.912323,0.9663162-1.7217255,2.024868-2.4150085,3.1585197c-0.3010406,0.4820976-0.7331085,1.0101776-1.2815399,1.579628
		c-2.3811035,2.4723244-6.9602966,5.7237244-12.5834961,9.3702393c-2.8651276,1.8516388-5.9286499,3.7186661-8.3169403,5.4267426
		c-4.6762238,3.3442841-6.7568436,6.0773735,0.3560486,6.8793068c0.714859,0.0806274,1.5223083,0.141716,2.4295654,0.1819839
		C142.6354828,67.8395004,153.1658173,65.4776611,161.9672394,62.7457657z"/>
	<path class="st2" d="M180.2090454,53.7779236c-0.3283234,2.8570213,1.7217102,5.4393654,4.5787354,5.7676735
		c0.0026703,0.0002785,0.005249,0.0005531,0.0079193,0.0009232c0.1889038,0.0217438,0.371994,0.0064507,0.5579376,0.0078316
		c0.0013733-0.0001831,0.0026703-0.0006447,0.0040588-0.0008278c0.0030365,0,0.006073,0.0001831,0.0090179,0.0001831
		c2.6176453,0.0085678,4.8830109-1.9261818,5.1888275-4.5868492c0.3283081-2.8571167-1.7217102-5.4393654-4.5787354-5.767765
		C183.1196899,48.8707809,180.5373535,50.9208069,180.2090454,53.7779236z M187.9322052,57.5844002
		c-1.7723999,1.4032631-4.3461761,1.1074829-5.7541351-0.6612282c-0.1754456-0.2212372-0.3243561-0.4550972-0.4470825-0.6976242
		c-0.0584259-0.1153641-0.0915985-0.2378235-0.1382141-0.3566895c-0.0514221-0.1311188-0.1150055-0.2591095-0.1522217-0.393364
		c-0.0360413-0.1301079-0.0464478-0.2634392-0.0693054-0.3954811c-0.02211-0.1279907-0.0572205-0.2544098-0.0670776-0.3832283
		c-0.0098572-0.1284485,0.0049744-0.2563477,0.0072784-0.3847961c0.0023041-0.1336098-0.0074615-0.2676773,0.007843-0.4002724
		c0.0135345-0.1169319,0.0501251-0.2297173,0.0735321-0.3451729c0.0287476-0.1413498,0.0467987-0.2847252,0.0903931-0.4226646
		c0.037674-0.1193275,0.0988617-0.2308235,0.147522-0.3467407c0.0534363-0.1272507,0.0955505-0.2584648,0.1621704-0.3804626
		c0.0644073-0.1178513,0.1524048-0.2236328,0.2288818-0.3355904c0.0749207-0.1097412,0.138031-0.2255669,0.2245636-0.3286781
		c0.0869751-0.1036606,0.1970978-0.1915665,0.2955933-0.287674c0.098877-0.0963821,0.1861267-0.2009659,0.2966156-0.2887802
		c0.0006409-0.0004616,0.0012817-0.0007362,0.0019379-0.0011978c0.0007324-0.0005531,0.0010986-0.0012894,0.0018311-0.0018425
		c0.1146393-0.0909462,0.2406921-0.1549873,0.3614807-0.2316513c0.1118622-0.0709496,0.2182007-0.1554451,0.3344879-0.214325
		c0.1326904-0.0671768,0.2728424-0.1077194,0.4100494-0.1593208c0.1136017-0.0427551,0.2236328-0.0993309,0.3396454-0.1315804
		c0.1366425-0.0379639,0.2769775-0.0498505,0.4158325-0.0732536c1.4217987-0.2394829,2.9252167,0.2619667,3.8858185,1.4705276
		C189.9962311,53.6029396,189.7019196,56.1778183,187.9322052,57.5844002z"/>
	<path class="st4" d="M188.5896454,51.8333092c-0.9606018-1.2085609-2.4640198-1.7100105-3.8858185-1.4705276
		c-0.138855,0.0234032-0.2791901,0.0352898-0.4158325,0.0732536c-0.1160126,0.0322495-0.2260437,0.0888252-0.3396454,0.1315804
		c-0.137207,0.0516014-0.277359,0.092144-0.4100494,0.1593208c-0.1162872,0.0588799-0.2226257,0.1433754-0.3344879,0.214325
		c-0.1207886,0.076664-0.2468414,0.1407051-0.3614807,0.2316513c-0.0007324,0.0005531-0.0010986,0.0012894-0.0018311,0.0018425
		c-0.0006561,0.0004616-0.001297,0.0007362-0.0019379,0.0011978c-0.1104889,0.0878143-0.1977386,0.1923981-0.2966156,0.2887802
		c-0.0984955,0.0961075-0.2086182,0.1840134-0.2955933,0.287674c-0.0865326,0.1031113-0.1496429,0.2189369-0.2245636,0.3286781
		c-0.0764771,0.1119576-0.1644745,0.2177391-0.2288818,0.3355904c-0.0666199,0.1219978-0.1087341,0.253212-0.1621704,0.3804626
		c-0.0486603,0.1159172-0.109848,0.2274132-0.147522,0.3467407c-0.0435944,0.1379395-0.0616455,0.2813148-0.0903931,0.4226646
		c-0.023407,0.1154556-0.0599976,0.228241-0.0735321,0.3451729c-0.0153046,0.1325951-0.0055389,0.2666626-0.007843,0.4002724
		c-0.0023041,0.1284485-0.0171356,0.2563477-0.0072784,0.3847961c0.0098572,0.1288185,0.0449677,0.2552376,0.0670776,0.3832283
		c0.0228577,0.1320419,0.0332642,0.2653732,0.0693054,0.3954811c0.0372162,0.1342545,0.1007996,0.2622452,0.1522217,0.393364
		c0.0466156,0.118866,0.0797882,0.2413254,0.1382141,0.3566895c0.1227264,0.242527,0.271637,0.476387,0.4470825,0.6976242
		c1.407959,1.7687111,3.9817352,2.0644913,5.7541351,0.6612282
		C189.7019196,56.1778183,189.9962311,53.6029396,188.5896454,51.8333092z M185.1092682,57.62817
		c-0.0371399,0.0028534-0.0739899,0.0058022-0.1111298,0.0074615c-0.0386047-0.0047913-0.074173-0.0240479-0.1125946-0.0302238
		c-0.2482452-0.0372238-0.4918671-0.1007118-0.7279358-0.1948853c-0.0482941-0.0198097-0.0932617-0.0442276-0.1406097-0.066433
		c-0.2703552-0.122921-0.5314026-0.2731171-0.7671967-0.472702l5.032547-3.9951897
		c0.7131042,1.3910103,0.3480225,3.0917168-0.8730621,4.067524C186.7378235,57.4732742,185.9139709,57.693222,185.1092682,57.62817z
		 M182.3453979,55.5606384c-0.0662537-0.1707458-0.1174774-0.3433304-0.1538696-0.518959
		c-0.0100555-0.0480995-0.0229492-0.0943565-0.030777-0.1427307c-0.0442352-0.2743149-0.051239-0.5491791-0.0260773-0.8222046
		c0.0048828-0.0521507,0.0124359-0.1022797,0.0197144-0.1541557c0.0391541-0.2793808,0.1066132-0.5534172,0.2157135-0.8144608
		c0.0093994-0.0223923,0.0225677-0.0426636,0.0325165-0.0649643c0.1198883-0.2697983,0.2753296-0.5245781,0.467453-0.7570572
		c0.0064545-0.0078316,0.0090332-0.0175056,0.0155792-0.0252457c0.0032196-0.0038719,0.00737-0.0064507,0.0105896-0.0102272
		c0.1348114-0.1586723,0.282608-0.3086853,0.4503021-0.4426613c0.1713104-0.1361923,0.3542023-0.2478676,0.5428314-0.3449898
		c0.0311432-0.0160332,0.0639496-0.0265388,0.095459-0.0414658c0.152771-0.0725174,0.308136-0.1349907,0.4679108-0.1825371
		c0.0495758-0.0147438,0.099884-0.0239563,0.1500092-0.036396c0.1451263-0.0358429,0.2904358-0.0637627,0.4382324-0.0794296
		c0.8597107-0.0922356,1.7533264,0.1472473,2.4658813,0.7493172l-5.0333862,4.0029297
		c-0.0540009-0.1051369-0.0691986-0.2196693-0.1110382-0.3283081L182.3453979,55.5606384z"/>
	<path class="st2" d="M187.5068665,51.8724709c-0.7125549-0.6020699-1.6061707-0.8415527-2.4658813-0.7493172
		c-0.1477966,0.015667-0.2931061,0.0435867-0.4382324,0.0794296c-0.0501251,0.0124397-0.1004333,0.0216522-0.1500092,0.036396
		c-0.1597748,0.0475464-0.3151398,0.1100197-0.4679108,0.1825371c-0.0315094,0.0149269-0.0643158,0.0254326-0.095459,0.0414658
		c-0.1886292,0.0971222-0.371521,0.2087975-0.5428314,0.3449898c-0.1676941,0.133976-0.3154907,0.283989-0.4503021,0.4426613
		c-0.0032196,0.0037766-0.00737,0.0063553-0.0105896,0.0102272c-0.006546,0.00774-0.0091248,0.0174141-0.0155792,0.0252457
		c-0.1921234,0.2324791-0.3475647,0.4872589-0.467453,0.7570572c-0.0099487,0.0223007-0.0231171,0.042572-0.0325165,0.0649643
		c-0.1091003,0.2610435-0.1765594,0.53508-0.2157135,0.8144608c-0.0072784,0.0518761-0.0148315,0.102005-0.0197144,0.1541557
		c-0.0251617,0.2730255-0.018158,0.5478897,0.0260773,0.8222046c0.0078278,0.0483742,0.0207214,0.0946312,0.030777,0.1427307
		c0.0363922,0.1756287,0.087616,0.3482132,0.1538696,0.518959l0.0170441-0.013546
		c0.0418396,0.1086388,0.0570374,0.2231712,0.1110382,0.3283081L187.5068665,51.8724709z"/>
	<path class="st2" d="M187.4092865,56.9437218c1.2210846-0.9758072,1.5861664-2.6765137,0.8730621-4.067524l-5.032547,3.9951897
		c0.2357941,0.199585,0.4968414,0.349781,0.7671967,0.472702c0.047348,0.0222054,0.0923157,0.0466232,0.1406097,0.066433
		c0.2360687,0.0941734,0.4796906,0.1576614,0.7279358,0.1948853c0.0384216,0.006176,0.0739899,0.0254326,0.1125946,0.0302238
		c0.0371399-0.0016594,0.0739899-0.0046082,0.1111298-0.0074615
		C185.9139709,57.693222,186.7378235,57.4732742,187.4092865,56.9437218z"/>
	<path class="st4" d="M183.8423767,37.8026924c-1.0101776-0.1161003-1.9231415,0.6087036-2.0392456,1.6188812
		c-0.0002747,0.0025826-0.0005493,0.0052528-0.0009155,0.0078316c-0.0289307,0.2514648-0.0055389,0.4968414,0.0616455,0.7253609
		c0.1890717,0.6475906,0.7365112,1.140007,1.4295197,1.272419c0.0053406-0.0005531,0.0106049-0.0006447,0.0158539-0.0012894
		c0.0067291,0.0011978,0.0122528,0.0049744,0.0189819,0.0060806c0.0306854,0.0050697,0.0547333,0.0243263,0.085968,0.0279198
		c0.0025787,0.00037,0.005249,0.0006447,0.0078278,0.0009232c1.0059357,0.1156387,1.9133759-0.6037292,2.0354767-1.6072731
		c0.0003662-0.0029488,0.0023041-0.0049744,0.0025787-0.0079231c0.0001831-0.0012894,0.0010071-0.0023956,0.0011902-0.003685
		C185.5773621,38.8317604,184.8525543,37.9187012,183.8423767,37.8026924z"/>
	<path class="st11" d="M181.9145355,17.2035732c0.0470886,0.0241413,0.0772247,0.0395298,0.1227417,0.0628414
		c-0.0469971,0.0029488-0.08284,0.0046082-0.1308441,0.00774c4.8317566,2.4703884,1.0917206,0.5981083,2.5281525,1.2245979
		c0.0532684,0.0277348,0.0476379,0.0248795,0.0059052,0.0025806c0.3431396,0.149826,0.9718475,0.4375,2.0747223,0.9568253
		c7.4973145,3.5027714,12.6242981,8.8832569,14.1774902,16.0961208c0.0472717,0.2211494,0.0751953,0.4522438,0.1157379,0.6767998
		c0.0687256,0.3777924,0.1439209,0.7522659,0.193222,1.1397324c0.0632935,0.5007133,0.0994263,1.0149689,0.1301117,1.5318069
		c0.0074615,0.1257782,0.0253296,0.2463951,0.0308685,0.3731842c0.0223846,0.5183105,0.0162964,1.0503502,0.0055237,1.5846024
		c-0.0028534,0.1383095,0.0055237,0.2714577,0.0003662,0.4108734c-0.0146484,0.4058037-0.0578613,0.8248749-0.0918732,1.2397079
		c-0.0244141,0.2952309-0.0338135,0.5834579-0.0682678,0.8832932c-0.1651306,1.3295517,0.7069244,2.5371933,1.9793396,2.8436661
		c0.1210785,0.0043297,0.2414246,0.0081978,0.3591766-0.0037804c0.1153717,0.0115204,0.2290802,0.011425,0.342041,0.0078316
		c1.2616425-0.0403595,2.342865-0.984005,2.5031891-2.2758675c0.4737244-11.8046913-5.2789307-21.4773483-16.5741577-25.6228237
		C186.1680908,17.079916,185.4534302,17.0693188,181.9145355,17.2035732z"/>
	<path class="st5" d="M156.8188782,41.8336334c-0.7305298,1.220726-1.4059448,2.2085152-2.0726929,3.0440788
		c-0.5721283,0.7169724-1.13974,1.3291779-1.7338867,1.8818588c-0.190918,0.1776543-0.3851624,0.3492279-0.5827179,0.5173912
		c-0.0136414,0.0116119-0.026535,0.0240479-0.0401764,0.0355682c-1.7289886,1.4634323-3.7557068,2.6461983-6.782547,4.7637634
		c-2.9694519,2.0762863-6.0692749,4.0692749-8.9047241,6.3527908c-1.6985016,1.3678818-3.3021851,2.8398857-4.7260895,4.4967308
		c0.6651001-0.2328453,1.327713-0.4850464,1.9877472-0.7526321c4.137085-1.6771164,8.1716156-3.9745483,12.0817566-6.1630669
		c0.5030212-0.2815018,1.0054779-0.5629082,1.5042572-0.8391571c0.9136047-0.5019112,1.7475128-0.9503746,2.5175629-1.365303
		c5.426651-2.9240112,7.6555328-4.1640892,11.8567505-10.4168129c0.6645508-1.2776718,0.1675262-2.8521385-1.1101532-3.5165901
		c-1.0180054-0.5294609-2.228775-0.3160553-3.0172577,0.4524269c-0.1501007,0.1462326-0.2901611,0.3053665-0.4048767,0.4912224
		l-0.0008392,0.0069084l-0.0046082,0.0401764C157.1922455,41.2056694,157.0047302,41.5230141,156.8188782,41.8336334z"/>
	<path class="st4" d="M221.1888885,176.5922699v0.3508911h19.7881622l4.0278168-25.3920135H270.04599l4.0263367,25.3920135
		h19.788147v-0.3508911l-9.9305725-51.5445633l-15.8108521-82.0660477h-21.0133057l-14.0777893,72.5762024L221.1888885,176.5922699z
		 M257.4377136,74.151474l7.6918945,47.3912506l2.1137085,13.022934H247.6306l2.5659485-15.8069763L257.4377136,74.151474z"/>
	<rect x="304.5403442" y="43.1571007" class="st4" width="19.2633038" height="133.7860565"/>
	<path class="st4" d="M385.2675476,90.2627106c-0.9361877,0-1.9563904,0.0589676-3.0635986,0.1739655
		c-1.1116333,0.1179428-2.1893616,0.2933884-3.2405396,0.526329l-21.0133057,2.8011856v-3.1520691h-19.6127319v117.8509979
		h19.6127319V176.943161h19.9635925c5.7173767,0,10.1565247-1.5760345,13.3085938-4.7281189
		c3.1520691-3.1520691,4.7280884-7.3553162,4.7280884-12.6082764v-58.8381424
		C395.9503784,93.7641907,392.3869934,90.2627106,385.2675476,90.2627106z M376.337677,154.1783752
		c0,2.2188263-0.4688416,3.852356-1.4020691,4.9035339c-0.9347229,1.0497131-2.5682373,1.5760345-4.9020691,1.5760345h-12.0834351
		v-53.4097366l18.3875732-0.3508835V154.1783752z"/>
	<path class="st4" d="M456.7124939,90.2627106c-0.9361877,0-1.9563904,0.0589676-3.0635986,0.1739655
		c-1.1116333,0.1179428-2.1893616,0.2933884-3.2405396,0.526329L429.39505,93.7641907v-50.60709h-19.6127014V176.943161H429.39505
		v-69.6949539l18.3875732-0.3508835v70.0458374h19.6127014v-76.1745377
		C467.3953247,93.7641907,463.8319397,90.2627106,456.7124939,90.2627106z"/>
	<path class="st4" d="M526.2319946,90.6121216h-33.0967102c-7.3553467,0-11.0322571,3.5634003-11.0322571,10.6828308v16.1097565
		h17.6872559V105.147316h18.7369995v19.7866821h-26.4432068c-7.3538208,0-11.0307617,3.5634079-11.0307617,10.6828384v31.1698151
		c0,7.004425,3.5589905,10.5073853,10.681366,10.5073853c0.9332275,0,1.8384705-0.0604401,2.7142029-0.1754456
		c0.8757324-0.1179352,1.9534607-0.2904358,3.2390442-0.5263214l20.6638794-2.6257477v2.9766388h18.7369995v-75.6482086
		C537.0888062,94.1755219,533.4693604,90.6121216,526.2319946,90.6121216z M518.5272827,161.3582458l-18.7369995,0.7003021
		v-23.8159637h18.7369995V161.3582458z"/>
	<rect x="550.5713501" y="116.5289764" class="st4" width="40.8014641" height="17.8612385"/>
	<path class="st4" d="M661.4171753,43.1571007h-43.4271851c-7.9406738,0-11.90802,4.0867805-11.90802,12.2573967v109.2712631
		c0,8.1720886,3.9673462,12.2574005,11.90802,12.2574005h43.4271851c3.852356,0,6.8289795-1.0511932,8.9313354-3.1520844
		c2.1008911-2.1008759,3.1520996-5.1350098,3.1520996-9.1053162V55.4144974c0-3.9673653-1.0512085-7.0044365-3.1520996-9.1053276
		C668.2461548,44.20681,665.2695312,43.1571007,661.4171753,43.1571007z M653.5369873,159.9576569h-27.4928589V60.142601h27.4928589
		V159.9576569z"/>
	<path class="st4" d="M773.2876587,90.2627106c-0.9362183,0-1.9608154,0.0589676-3.0724487,0.1739655
		c-1.1101685,0.1179428-2.1937866,0.2933884-3.2449951,0.526329l-22.6409302,3.1520691l-0.5292969-0.8757401
		c-0.5852661-0.7002945-1.5804443-1.371109-2.9839478-2.0139008c-1.4035645-0.6398544-3.15802-0.9627228-5.2647705-0.9627228
		c-0.9362183,0-2.0198364,0.0589676-3.2479248,0.1739655c-1.2280884,0.1179428-2.4266968,0.2933884-3.5987549,0.526329
		l-20.5341797,2.8011856v-3.1520691h-19.6127319v86.3310394h19.6127319v-69.6949539l18.3875732-0.3508835v70.0458374h19.6127319
		v-69.6949539l18.2106323-0.3508835v70.0458374h19.6127319v-76.1745377
		C783.9940796,93.7641907,780.4232788,90.2627106,773.2876587,90.2627106z"/>
	<path class="st4" d="M842.6567993,90.6121216h-33.7970581c-7.3553467,0-11.0322266,3.5634003-11.0322266,10.6828308v64.9668427
		c0,7.1209106,3.6768799,10.681366,11.0322266,10.681366h33.7970581c7.3538208,0,11.0322266-3.5604553,11.0322266-10.681366
		v-18.0366821h-18.7369995v14.3582916h-18.3875732v-24.16539h31.696167l5.4284058-5.4283905v-31.6946716
		C853.6890259,94.1755219,850.0106201,90.6121216,842.6567993,90.6121216z M834.9520264,125.6343002h-18.3875732v-20.6624222
		h18.3875732V125.6343002z"/>
	<path class="st4" d="M905.5212402,93.7641907l-14.8167725-2.8011856c-1.1617432-0.2329407-2.3825073-0.4083862-3.6607056-0.526329
		c-1.2767334-0.1149979-2.4974976-0.1739655-3.6607056-0.1739655c-4.8814697,0-8.7146606,1.400589-11.5025635,4.2017746
		c-2.7908325,2.8026581-4.184082,6.7154694-4.184082,11.7325363v52.8848877c0,5.2529602,1.5686646,9.4562225,4.7059937,12.6082916
		c3.1358643,3.1520691,7.4953613,4.7281036,13.0741577,4.7281036h20.0446777v17.8612366h-17.3363647v-10.331955h-18.9124146
		v13.8334351c0,7.1186981,3.6784058,10.6820984,11.0322266,10.6820984h33.8486328
		c7.3199463,0,10.9806519-3.5634003,10.9806519-10.6820984V90.6121216h-19.6127319V93.7641907z M905.5212402,160.6579437H893.664856
		c-4.2371216,0-6.3557129-2.1598511-6.3557129-6.4795685v-41.3263245c0-4.2032547,2.0610962-6.3041382,6.1861572-6.3041382
		c0.5690918,0,1.2296143,0,1.9741211,0c0.743042,0,1.4035645,0.0604401,1.9770508,0.1754379l8.0747681,0.8742676V160.6579437z"/>
	<path class="st4" d="M984.1460571,90.6121216h-33.0967407c-7.3552856,0-11.0322266,3.5634003-11.0322266,10.6828308v16.1097565
		h17.6872559V105.147316h18.7369995v19.7866821h-26.4431763c-7.3538208,0-11.0307617,3.5634079-11.0307617,10.6828384v31.1698151
		c0,7.004425,3.55896,10.5073853,10.6813354,10.5073853c0.9332275,0,1.838501-0.0604401,2.7142334-0.1754456
		c0.8757324-0.1179352,1.9534302-0.2904358,3.2390137-0.5263214l20.6639404-2.6257477v2.9766388h18.7369385v-75.6482086
		C995.0028687,94.1755219,991.3834839,90.6121216,984.1460571,90.6121216z M976.4413452,161.3582458l-18.7369995,0.7003021
		v-23.8159637h18.7369995V161.3582458z"/>
</g>
</svg>
