<?xml version="1.0" encoding="utf-8"?>
<!-- Generator: Adobe Illustrator 26.3.1, SVG Export Plug-In . SVG Version: 6.00 Build 0)  -->
<svg version="1.1" id="Layer_1" xmlns="http://www.w3.org/2000/svg" xmlns:xlink="http://www.w3.org/1999/xlink" x="0px" y="0px"
	 viewBox="0 0 800 692" style="enable-background:new 0 0 800 692;" xml:space="preserve">
<style type="text/css">
	.st0{fill:#030303;}
	.st1{fill:#6898B8;}
	.st2{fill:#A2C9D2;}
	.st3{fill:#FFF5D1;}
	.st4{fill:#0C3555;}
	.st5{fill:#FFFFFF;}
	.st6{fill:#F8C37A;}
	.st7{fill:#FCE6AD;}
	.st8{fill:#FFF6D1;}
	.st9{fill:#0E476C;}
	.st10{fill:#195B7F;}
	.st11{fill:#D2E5EA;}
</style>
<g>
	<path class="st5" d="M6.837275,652.1384277v0.3565674h20.1081047l4.0929317-25.8025513h25.4459953l4.0914345,25.8025513h20.1081047
		v-0.3565674L70.5927124,599.760498l-16.0664825-83.3929443H33.1731682L18.867754,590.1171875L6.837275,652.1384277z
		 M43.6721687,548.0413208l7.8162918,48.1575317l2.1478729,13.2334595H33.7065086l2.6074257-16.0625L43.6721687,548.0413208z"/>
	<rect x="91.5364075" y="516.5458374" class="st5" width="19.5747643" height="135.9491882"/>
	<path class="st5" d="M173.5688477,564.4130859c-0.9513245,0-1.9880371,0.0599365-3.1131439,0.1767578
		c-1.1296082,0.119873-2.2247467,0.2981567-3.292923,0.5348511l-21.3530731,2.8464966v-3.203064h-19.9298172v119.7564697h19.9298172
		v-32.0296021h20.2863922c5.8097992,0,10.3207245-1.6015015,13.5237579-4.8045044
		c3.2030334-3.203064,4.8045502-7.4742432,4.8045502-12.8121338v-59.7894897
		C184.424408,567.9711914,180.8033905,564.4130859,173.5688477,564.4130859z M164.4945831,629.3621826
		c0,2.2546997-0.4764099,3.9146118-1.4247437,4.9827881c-0.9498138,1.0667114-2.6097717,1.6015625-4.9813232,1.6015625h-12.2788086
		v-54.2733154l18.6848755-0.3565674V629.3621826z"/>
	<path class="st5" d="M246.1689606,564.4130859c-0.9513245,0-1.9880371,0.0599365-3.1131439,0.1767578
		c-1.1296082,0.119873-2.2247467,0.2981567-3.292923,0.5348511l-21.3530731,2.8464966v-51.425354h-19.9298248v135.9491577
		h19.9298248v-70.8217773l18.6848755-0.3565674v71.1783447h19.9298096v-77.4061279
		C257.0245056,567.9711914,253.4035034,564.4130859,246.1689606,564.4130859z"/>
	<path class="st5" d="M316.8125,564.7681274h-33.6318665c-7.4742432,0-11.2106323,3.6210327-11.2106323,10.8555908v16.3701782
		h17.9732666v-12.4555664h19.039917v20.1066284h-26.8707275c-7.4727478,0-11.209137,3.6210327-11.209137,10.8555298v31.6738281
		c0,7.1176758,3.6165466,10.6772461,10.8540649,10.6772461c0.9483337,0,1.8681946-0.0614014,2.7580872-0.1782837
		c0.8898926-0.119812,1.9850464-0.295105,3.2914429-0.5348511l20.9979858-2.6681519v3.0247192h19.0399475v-76.8712769
		C327.8448486,568.3891602,324.1669006,564.7681274,316.8125,564.7681274z M308.9831848,636.6581421l-19.039917,0.7116089
		v-24.2010498h19.039917V636.6581421z"/>
	<rect x="341.5453796" y="591.1040039" class="st5" width="41.4611664" height="18.1500282"/>
	<path class="st5" d="M454.1834106,516.5458374h-44.129364c-8.0690002,0-12.1005249,4.152832-12.1005249,12.4555664v111.0380249
		c0,8.3041992,4.0315247,12.4555664,12.1005249,12.4555664h44.129364c3.9146729,0,6.9394226-1.0681763,9.0757751-3.2030029
		c2.1348572-2.1348877,3.2030334-5.2180786,3.2030334-9.2525635V529.0014038c0-4.0314941-1.0681763-7.1176758-3.2030334-9.2525635
		C461.1228333,517.6124878,458.0980835,516.5458374,454.1834106,516.5458374z M446.1758423,635.2348633h-27.9374084v-101.428894
		h27.9374084V635.2348633z"/>
	<path class="st5" d="M567.8626709,564.4130859c-0.9512939,0-1.9925537,0.0599365-3.1221313,0.1767578
		c-1.1281128,0.119873-2.229248,0.2981567-3.2974243,0.5348511l-23.007019,3.2030029l-0.5378418-0.8898926
		c-0.5947266-0.7116089-1.6060181-1.3932495-3.0322266-2.0464478c-1.4262695-0.6502075-3.2090454-0.9782715-5.3498535-0.9782715
		c-0.951355,0-2.0524902,0.0599365-3.300415,0.1767578c-1.2479858,0.119873-2.4660034,0.2981567-3.6569824,0.5348511
		l-20.8661804,2.8464966v-3.203064h-19.9298401v87.7268677h19.9298401v-70.8217773l18.684845-0.3565674v71.1783447h19.9298706
		v-70.8217773l18.5050659-0.3565674v71.1783447h19.9298096v-77.4061279
		C578.7421875,567.9711914,575.1137085,564.4130859,567.8626709,564.4130859z"/>
	<path class="st5" d="M638.3533936,564.7681274h-34.3435059c-7.4742432,0-11.2105713,3.6210327-11.2105713,10.8555908v66.0172119
		c0,7.236084,3.7363281,10.8540649,11.2105713,10.8540649h34.3435059c7.4727783,0,11.2106323-3.617981,11.2106323-10.8540649
		v-18.3283081h-19.039917v14.5904541h-18.6848755v-24.5560913h32.2086182l5.5161743-5.5161743v-32.2070923
		C649.5640259,568.3891602,645.8261719,564.7681274,638.3533936,564.7681274z M630.5241089,600.3565674h-18.6848755v-20.996521
		h18.6848755V600.3565674z"/>
	<path class="st5" d="M702.234314,567.9711914l-15.0563965-2.8464966c-1.180481-0.2366943-2.4209595-0.414978-3.7198486-0.5348511
		c-1.2974243-0.1168213-2.5379028-0.1767578-3.7199097-0.1767578c-4.9603882,0-8.8555298,1.4232178-11.6885376,4.2697144
		c-2.8359985,2.8479614-4.251709,6.8240356-4.251709,11.9222412v53.7399292c0,5.3378906,1.5939941,9.6091309,4.7820435,12.8121338
		c3.1865845,3.203064,7.6165771,4.8045654,13.2855835,4.8045654h20.3687744v18.1500244h-17.6166992v-10.4989624h-19.2182007
		v14.0570679c0,7.2337646,3.737854,10.8547974,11.2106323,10.8547974h34.395874
		c7.4382935,0,11.1582031-3.6210327,11.1582031-10.8547974V564.7681274H702.234314V567.9711914z M702.234314,635.9465332
		h-12.0480957c-4.3056641,0-6.4584961-2.1948242-6.4584961-6.5843506v-41.9945068
		c0-4.2712402,2.0944214-6.4060669,6.2861938-6.4060669c0.5783081,0,1.2494507,0,2.0060425,0
		c0.7550659,0,1.4262085,0.0614014,2.0090332,0.1782227l8.2053223,0.8884277V635.9465332z"/>
	<path class="st5" d="M782.1303711,564.7681274h-33.6318359c-7.4742432,0-11.2106323,3.6210327-11.2106323,10.8555908v16.3701782
		h17.9732666v-12.4555664h19.039917v20.1066284h-26.8707275c-7.4727783,0-11.2091064,3.6210327-11.2091064,10.8555298v31.6738281
		c0,7.1176758,3.6165161,10.6772461,10.8540039,10.6772461c0.9483643,0,1.8682251-0.0614014,2.7581177-0.1782837
		c0.8898926-0.119812,1.9850464-0.295105,3.2914429-0.5348511l20.9979858-2.6681519v3.0247192h19.039917v-76.8712769
		C793.1627197,568.3891602,789.4848022,564.7681274,782.1303711,564.7681274z M774.3010864,636.6581421l-19.039917,0.7116089
		v-24.2010498h19.039917V636.6581421z"/>
</g>
<g>
	<path class="st5" d="M506.1098633,68.8228607c0.7677612,0.3466415,1.9388123-0.5686035,2.6087952-2.0420456
		c0.5076294-1.1163864,0.5678711-2.2409515,0.2319946-2.8463669c-0.1043396-0.2176247-0.2474976-0.3839455-0.4321594-0.4713173
		c-0.6444397-0.3053703-1.6756897,0.3736572-2.3635254,1.6162071c0.0127869-0.0026016,0.0256653-0.0052032,0.0385437-0.0076828
		c-0.0977783,0.1658249-0.2081909,0.3104553-0.2911072,0.497345
		C505.248291,67.0442963,505.326355,68.4744873,506.1098633,68.8228607z"/>
	<path class="st5" d="M598.4958496,49.9451408C586.7012329,32.9182396,567.625,23.955904,548.3603516,24.3101044
		c-11.6943359,0.006443-23.5050049,3.4189377-33.8458252,10.582016
		c-7.8721008,5.4529266-14.175354,12.6342239-18.5712585,20.8325119
		c-6.4529419,0.9135094-12.8517151,1.3780098-19.1514893,1.3787537c-0.0085449,0-0.0057983,0-0.0143738,0
		c-62.203064,0-99.024292-45.031292-99.3705444-45.4631958l-0.0011292-0.0016108
		c-4.4008484-5.5525689-12.828186-5.5509577-17.2259521,0.0050812
		c-0.3603821,0.4540901-36.7451172,45.5005035-99.3088379,45.5005035c-12.7841797,0-25.9786987-1.8995209-39.2164764-5.6461372
		h-0.0007477c-5.898468-1.6699982-12.0224915,1.8095436-13.6072235,7.7311859l-0.0002441,0.0017357
		c-10.7967987,40.3471184-16.4980774,81.9329529-17.0948181,123.6015778
		c-0.6231384,41.5545959,3.8353577,83.1949463,13.3956604,123.7746887
		c20.2961426,83.6694031,50.7693939,113.3621216,113.9730988,145.7423401l0.1911011-0.2499695
		c13.6144104,6.96875,28.7151489,14.0617981,45.5908508,21.8497314h0.0007324c2.9206238,1.3486633,6.284668,1.3486633,9.2051392,0
		h0.0007324c85.391571-39.3765869,132.4281006-61.0665894,158.3639221-161.8772583
		c8.1799316-32.7982483,12.9507446-66.3104706,14.4282837-99.9467468l0.0134888-0.0022278
		c0.1915894-4.433075,0.3442993-8.8670349,0.4196167-13.3032074c2.0516357-5.1714783,4.3205566-10.2566986,6.8087769-15.2388
		c5.4962769-11.287323,11.7441406-22.2297363,18.1968384-32.9872437
		c3.3087769-5.5353394,6.6882935-11.0153961,10.0770874-16.4835815c0.6189575-0.3923645,1.2128296-0.8174591,1.8165283-1.2318878
		c0.0031738-0.0052032,0.0064087-0.0102844,0.0095215-0.0154877
		C610.4966431,114.122467,617.2362061,76.9989624,598.4958496,49.9451408z M501.9884949,65.901886
		c0.0054321-0.0009918,0.0111389-0.0024796,0.0168457-0.0034714c0.0568848-0.1455002,0.0996399-0.2896347,0.1623535-0.4355011
		c1.4764099-3.4319534,4.1917725-5.5586433,5.9732056-4.7562981c1.0622253,0.4783783,1.5552063,1.9018745,1.464386,3.6917152
		c0.0230408-0.0053329,0.0454712-0.0083084,0.0686646-0.0135117c-0.0603638,1.2162781-0.3836975,2.598259-1.0092163,3.9887848
		c-1.0011292,2.2259598-2.4899292,3.8794708-3.9213562,4.5541611c-0.4927368,0.2396927-0.9773254,0.3687057-1.4296875,0.3404465
		c-0.2598877-0.0118942-0.5108337-0.0656815-0.7476807-0.1690445
		C500.7853394,72.3227234,500.5991821,69.153389,501.9884949,65.901886z M495.3449402,87.0307236
		c1.4077454-2.3019333,3.0512085-4.4513016,4.903656-6.413414c-0.0088196,0.0154953-0.0168762,0.0283813-0.0256653,0.0438766
		c0.0215759-0.0229263,0.0395203-0.0489578,0.0612183-0.0720062l0.0110474-0.0958023
		c0.0098877-0.0173492,0.0273743-0.0286255,0.0374146-0.0459747l0.0017395-0.0140076
		c0.2328796-0.3773727,0.5173035-0.700592,0.822052-0.9974136c0.5024109-0.5117188,1.0699158-0.9536591,1.742981-1.2273026
		c0.027771-0.0206985,0.0550232-0.034584,0.0827942-0.0551529c-0.0370483,0.0149918-0.075592,0.0197067-0.1126709,0.0355682
		c4.1601868-3.0750275,8.0812988-3.2783966,11.2000732-0.724144c0.0665894,0.053421,0.1378174,0.0893555,0.2038574,0.1450043
		c5.1877441,4.443367,7.9840088,9.1388168,11.34375,13.0486526c0.001709,0.0084305,0.0036011,0.0164871,0.0054321,0.0246658
		c4.1362915,4.8087234,9.1420288,8.4206238,20.5487061,8.842247c-2.4259644,3.165863-3.3743286,7.2216949-2.6039429,11.1350021
		c-1.2698364,0.7909393-2.3937988,1.4370041-3.0066528,1.8510666c-1.9469604,1.3508682-5.5453491,3.1224899-10.230896,5.0718307
		c0.0010986,0.0076828,0.0022583,0.0153656,0.0033569,0.0230484c-2.848999,1.1834412-6.1005859,2.4314423-9.6479492,3.6954346
		c-1.7831421,0.6354065-3.6365356,1.2730408-5.5514526,1.9085693c-0.0007324-0.0056992-0.0014648-0.0114059-0.0024414-0.016983
		c-1.789856,0.5947571-3.6268005,1.1852951-5.5066223,1.768898c0.0007629,0.0052032,0.0013733,0.0104141,0.0021057,0.0154953
		c-17.8654175,5.5405502-39.2315979,10.3308029-53.6345825,9.6476822c-1.8556519-0.0825348-3.5053101-0.207962-4.9652405-0.373291
		c-14.4429016-1.6283569-10.2181702-7.1779404-0.7230225-13.968605c4.8556824-3.4749527,11.0892639-7.2753601,16.9232788-11.0472565
		c11.3315735-7.3976822,20.655304-13.9837341,25.5154419-18.9981842
		C493.8563843,89.0819321,494.7337036,88.0096664,495.3449402,87.0307236z M531.8818359,128.9942932
		c-3.2225952,0.7810364-6.5389404,1.5272369-9.8691406,2.2273254c-1.8904419,0.397583-3.7807007,0.7790527-5.6585083,1.1453857
		c-1.4049072,0.2741394-2.8042603,0.5424652-4.1852417,0.7972717c-2.2553101,0.4162903-4.4690247,0.8058014-6.6098328,1.1654663
		c-7.9871216,1.5780334-16.0966492,2.4564667-24.2364502,2.6251373c0.0209351-0.00383,0.0407715-0.0085449,0.0617065-0.0125122
		c-0.0418701,0.0009918-0.0836487,0.0044556-0.1255493,0.0052032c3.7500916-0.6982422,7.3762512-1.5040436,10.8642273-2.3269653
		c0.9031067-0.2188568,1.8423767-0.4181519,2.7211914-0.6501465c11.8598938-2.9144135,23.5126953-6.6146774,34.8814087-11.0757675
		c3.8869629-1.4687271,7.6724854-3.1917725,11.3327026-5.1579666c1.4852295-0.7810287,2.8502197-1.7718735,4.0528564-2.9420471
		c2.0603638,3.6378098,5.65271,6.151413,9.7761841,6.8408508c-5.3722534,2.5905762-13.7793579,5.1188049-23.0056763,7.3569183
		C531.8817139,128.9930573,531.8818359,128.9938049,531.8818359,128.9942932z M546.6651001,106.7529144
		c0.666626-5.8014221,5.9100952-9.9639587,11.7115479-9.2973251c5.8011475,0.6667633,9.9638062,5.9101181,9.2971802,11.7115402
		c-0.6210327,5.4024887-5.2208252,9.3310394-10.5360718,9.3136902c-0.0026855,0.0003662-0.0053101,0.0011139-0.0084229,0.0014877
		c-0.0060425-0.0002518-0.012146-0.0002518-0.0180664-0.0002518c-0.3776245-0.0027237-0.7493286,0.0282593-1.1328735-0.0158615
		c-0.0054321-0.0007477-0.0106812-0.0012436-0.0161133-0.0018616
		C550.1609497,117.797699,545.9984131,112.5542221,546.6651001,106.7529144z M549.6921387,88.1125336
		c-0.0319824-0.0007477-0.0634766-0.0002518-0.0953979-0.0013657c-0.2207642-0.0084305-0.4359131,0.0164795-0.6591187-0.0091705
		c-0.0114136-0.0011139-0.0215454-0.0055771-0.032959-0.0068207c-0.0105591-0.001236-0.0204468,0.0007477-0.0308838-0.0003662
		c-0.2125244-0.0245438-0.4063721-0.0945663-0.6133423-0.1338501c-0.3633423-0.0682831-0.7315674-0.1233139-1.0755615-0.2348557
		c-0.112915-0.0364304-0.211731-0.0974045-0.3220215-0.1384277c-0.4264526-0.1578903-0.847168-0.3260727-1.2369385-0.5455551
		c-0.0448608-0.0252838-0.0817871-0.0609741-0.1262817-0.086998c-0.4389648-0.2576599-0.8580322-0.5428314-1.2410889-0.8703842
		c-0.0172119-0.0146255-0.0297241-0.0330887-0.0466919-0.0479584c-0.4008179-0.348381-0.7711182-0.7281113-1.1005249-1.1427917
		c-0.0110474-0.0139999-0.0186157-0.0304871-0.0296631-0.044487c-0.3283081-0.4184036-0.6211548-0.8640671-0.8677368-1.3376083
		c-0.0252075-0.0484619-0.0383301-0.1027451-0.0626221-0.1516953c-0.2208252-0.4441757-0.4154053-0.9022369-0.5571899-1.3832169
		c-0.034729-0.1166229-0.041748-0.2421646-0.0715332-0.3606491c-0.1051025-0.4223633-0.2036133-0.8467102-0.2432861-1.2886505
		c-0.0203247-0.2224579,0.0058594-0.4533463,0.0031128-0.6795273c-0.0038452-0.3328857-0.0311279-0.6614304,0.0045776-1.0006332
		c0.003479-0.0319748,0.006958-0.0641937,0.0106812-0.0961685c0.543457-4.7273026,4.81604-8.1192245,9.543457-7.5759048
		c4.7272949,0.5430756,8.1192017,4.8157883,7.5761719,9.5432129c-0.5102539,4.4395294-4.3172607,7.6569519-8.6935425,7.5879211
		C549.7129517,88.1074524,549.703064,88.1115417,549.6921387,88.1125336z M433.053009,338.836731
		c3.6478271,0.1019897,6.7651062-0.329895,9.3500977-1.2924805c2.3808899-0.9115295,3.6223145-3.4454651,3.7244568-7.6019287
		h3.8009033v28.80896h-45.3050842v-34.4346619c3.5985413-1.4182739,6.5371094-3.4692383,8.8177185-6.1563721
		c2.1786194-2.6324463,3.8503418-5.5984192,5.0169373-8.894165c1.2669678-3.4457092,2.1020203-6.9659119,2.5083923-10.5644226
		c0.2025146-3.6495667,0.3043823-7.0950317,0.3043823-10.3399658c0-7.2617493-1.4889221-13.9521484-4.2901917-20.1439514
		c-0.4830933-1.0681763-0.9204407-2.1531982-1.4868164-3.1887817c-4.0543518-7.1461182-10.693573-10.8194885-19.9161682-11.0236053
		c-8.1280212,0.1820679-14.1905518,3.1377411-18.2144165,8.8323212c-0.491272,0.6956482-0.9655457,1.414093-1.3957214,2.1912842
		c-4.1562195,7.0439758-6.1835327,14.8192749-6.0815125,23.3327332c-0.1020203,6.8945007,0.9371643,13.8636169,3.1172791,20.9043884
		c1.2653503,3.2957458,2.9132996,6.2617188,4.9403381,8.894165c2.2296753,2.6871338,5.0935059,4.7380981,8.5900269,6.1563721
		v34.4346619h-45.3050537v-28.80896h3.7260437c0,4.1564636,1.3162842,6.6903992,3.9523621,7.6019287
		c1.2159119,0.6599426,2.6086426,1.0374146,4.1801147,1.1394348c1.5696106,0.1019897,3.2175598,0.1530457,4.9404602,0.1530457
		h23.0317078v-9.0474854c-10.5404968-1.4692078-19.9143982-5.4726257-28.1234741-12.0099487
		c-8.615448-6.5371094-13.025238-15.4554443-13.2276306-26.754425c0.2959595-14.725708,5.9244995-25.4431763,16.7980042-32.2245483
		c0.3155518-0.1964417,0.5898132-0.4243469,0.9142456-0.6147156c11.1987305-6.4353333,23.9178467-9.6528778,38.1572266-9.6528778
		c14.3414001,0,27.1116028,3.2175446,38.3120422,9.6528778c5.3086548,3.1383667,9.3625183,7.2285156,12.2651367,12.1900635
		c3.3315735,5.6955872,5.1305847,12.5516663,5.2921753,20.6492004c-0.20224,11.2989807-4.5100403,20.2173157-12.9213562,26.754425
		c-8.2090759,6.537323-17.7105103,10.540741-28.5045776,12.0099487v9.0474854H433.053009z M350.9833374,204.9996643
		c2.3742065,3.4898224,5.4148865,5.2310791,9.1257019,5.2310791c2.9675598,0,5.6019897-1.2243347,7.9029541-3.6733704
		c2.1512146-2.1494904,3.5236511-4.6359558,4.117157-7.4555511h6.5679626
		c-0.4456787,7.4216003-1.967804,14.6902618-4.5645752,21.815918c-1.3348694,3.3366394-3.2261047,6.0848541-5.6751404,8.2344818
		c-2.3757935,2.1529541-5.4182129,3.3025665-9.1272888,3.4522705c-4.8230896-0.149704-8.8296204-2.9693146-12.0200195-8.4590454
		c-3.1905212-5.4930878-5.5645752-12.5029755-7.122406-21.0368805h-0.4454346
		c-3.783905,7.9421234-8.7924194,14.8023071-15.0251465,20.5913391c-6.3825378,5.7855682-13.987793,8.7548828-22.8176575,8.9045868
		c-12.9786377-0.2363434-23.4528198-3.9217377-31.5030212-10.941925c-2.1217346-1.8494415-4.1130676-3.8790894-5.892395-6.2004852
		c-8.4590454-10.907959-12.6883698-24.1866302-12.6883698-39.8460541
		c0.1479645-14.3193512,4.7856598-27.0062408,13.9129486-38.0636597
		c8.6051636-11.1291809,20.1439514-16.8432388,34.6130066-17.1391907c9.127533,0.1497116,15.8774109,3.1155548,20.2564697,8.9044647
		c1.2426758,1.4839783,2.3092346,3.1088562,3.2277222,4.8528442c0.7805176,1.4822388,1.4580688,3.0476379,2.0033569,4.7184906
		c1.2619019,3.6359558,2.1887817,7.6427002,2.7822876,12.0201416h0.4456787l6.5661011-27.4925461h32.1659241l-23.2613525,70.8995743
		C346.0856323,198.2481689,348.2369995,201.8127289,350.9833374,204.9996643z M369.1100159,49.1789894
		c0.0025024-0.0021057,0.0048523-0.0037193,0.0072021-0.005825c2.2382202,1.8981552,4.5221863,3.7397995,6.8455505,5.5284004
		C373.6356812,52.9164352,371.3521118,51.0735512,369.1100159,49.1789894z M521.0088501,309.4122009
		c-24.1478577,93.8669434-64.0330811,113.8528748-152.3018494,154.5594177
		c-91.6390076-42.2880554-129.9709778-62.5683289-153.6792297-160.3024902
		c-18.7529297-79.5968018-17.504425-162.5999146,3.6338348-241.5965271
		c94.4522858,26.7273865,150.1331329-43.6076736,150.1331329-43.6076736s45.328125,57.117981,123.5211487,48.7684937
		c-0.97995,3.367012-1.668396,6.8306885-2.0425415,10.3617859c-0.2093201,1.9749985-0.3321533,3.9673462-0.3424377,5.9757996
		c-30.8059998,2.586731-61.7909851-3.9884109-88.9875793-19.0664673
		c-10.1168823-5.6120567-19.6490784-12.2189217-28.4558716-19.7221985c-2.1575623-1.7619514-5.2569885-1.7619514-7.4144287,0
		c-8.7961426,7.5032768-18.3189087,14.1101418-28.4263611,19.7221985
		c-30.7771606,17.0609818-66.4047852,23.2563934-101.1342773,17.5829926
		c-0.743103-0.0986557-1.475296-0.0544052-2.1665955,0.1138916c-1.0366974,0.251709-1.981308,0.7840042-2.7333374,1.5254898
		c-0.7519073,0.7414932-1.3109589,1.6940384-1.5765533,2.7857666
		c-13.2268677,59.9254303-14.8781433,121.8253632-4.8647308,182.3698273
		c3.8557892,24.1338501,9.9784546,47.8493042,18.2866821,70.831665
		c22.2723694,60.4885864,69.9234619,79.6240845,123.8460693,105.7067871
		c1.5899658,0.7432251,3.4382935,0.6889343,4.9818726-0.1461182
		c53.8933716-26.0827026,101.6323547-45.1894531,123.8462219-105.5606689
		c8.281189-22.9907837,14.4031067-46.7044983,18.2865601-70.831665c7.1353149-43.1214752,8.3136597-86.9291687,3.631958-130.2225494
		c1.8882446-0.3682098,3.7756348-0.7407532,5.6584473-1.1368408c0.2330933-0.0489502,0.4674683-0.0913391,0.7005615-0.1406555
		c1.6448364,0.8014679,3.3374023,1.4940033,5.0473022,2.1383362c0.3557129,0.1343384,0.7071533,0.2766113,1.0663452,0.4045105
		c1.2255249,0.435257,2.4802246,0.7828827,3.7330933,1.1360931
		C538.8300171,197.2714539,534.7741089,254.2211304,521.0088501,309.4122009z M235.5292511,228.9888763
		c-1.2216034-5.9252472-2.0234528-11.9315338-2.3968658-17.9736328c-0.0056915-0.0915833-0.0174713-0.1825562-0.0229187-0.2742615
		c-1.3180389-0.8314667-2.5645447-1.6988678-3.8594055-2.5423584c1.2993164,0.8371582,2.6118927,1.6690063,3.9193878,2.4924164
		c0.0085449,0.1184692,0.013382,0.2437744,0.0221863,0.3619995c0.0022278,0.030365,0.0033417,0.0627136,0.0055695,0.0930786
		C233.5549927,217.1436005,234.3361511,223.1055298,235.5292511,228.9888763z M227.6965637,207.1765442
		c-1.166214-0.7720947-2.3682404-1.5237579-3.5065613-2.3096161c-0.0011139-0.0304871-0.0029755-0.0594788-0.0040894-0.0899658
		C225.304657,205.5847473,226.491806,206.3822632,227.6965637,207.1765442z M555.5496826,167.3292389
		c-0.5101929,0.9265289-1.0044556,1.8549042-1.4988403,2.7830505c-2.5241089-2.0565491-5.2402344-3.8496094-8.0821533-5.4178619
		c-0.0026245-0.0531616-0.0061646-0.1065826-0.0087891-0.1597443c-0.0608521-1.2169037-0.1338501-2.4329376-0.2033691-3.6494598
		c3.4854736,1.7703857,6.8005371,3.866333,9.8556519,6.3219452c-0.0220947,0.0400391-0.0426636,0.080307-0.0646973,0.1203461
		C555.5482178,167.328125,555.5489502,167.3286285,555.5496826,167.3292389z M564.980896,150.8897858
		c-0.538269,0.8909607-1.0627441,1.799881-1.6012573,2.6908264c-3.3356323-2.3708344-6.9804688-4.2733307-10.8330688-5.6539459
		c-2.5783081-0.9680328-5.2203369-1.7436066-7.899231-2.3641357c-0.093811-1.0715332-0.1799927-2.1437988-0.2808228-3.2148285
		c3.1365967,0.6677551,6.2390137,1.4870758,9.2490845,2.6008606c4.0374756,1.4344025,7.8632812,3.4060516,11.3744507,5.8615265
		c-0.0123901,0.0203247-0.024292,0.0413971-0.0366821,0.0617218
		C564.9624023,150.8781281,564.9719849,150.8834686,564.980896,150.8897858z M553.7927246,136.869751
		c-1.6656494,0.1583862-3.3514404,0.2260437-5.0506592,0.2255554c-0.2514648-0.0050812-0.5072632-0.0395355-0.7592163-0.0483398
		c-1.3717041-0.0469666-2.7460938-0.1089325-4.1329346-0.2634735c-0.0020752-0.0194702-0.0048218-0.038681-0.006897-0.0583801
		c-0.1156616-0.0125122-0.229187-0.0088043-0.3450317-0.0220642c-3.7425537-0.4369812-7.4224854-1.2819519-10.9915161-2.4833679
		c0.0003662,0.0029755,0.0008545,0.0063324,0.0010986,0.0094299c-0.2785645-0.0949402-0.5617676-0.1750031-0.8387451-0.2743988
		c0.005188-0.001236,0.0102539-0.002594,0.0155029-0.00383c-0.0667114-0.0236816-0.1350098-0.0419006-0.2012939-0.0659332
		c5.8521118-1.3139496,11.7069702-2.934494,17.3362427-4.8393402c4.8875732-1.6349258,13.3613281-4.6825638,15.9627075-9.4708328
		c1.6098633-1.0609894,2.9836426-2.4425964,4.0356445-4.0584335c0.2800903-0.4343872,0.5324097-0.88414,0.7617798-1.3446732
		c0.0365601-0.0757217,0.0692749-0.1530609,0.1044922-0.2295227c0.3270264-0.6872101,0.5848389-1.4023056,0.7956543-2.1330109
		c0.2018433-0.742363,0.4015503-1.487442,0.4778442-2.2647552c0.116272-0.9501877,0.116394-1.9062119,0.0357056-2.8542938
		c-0.0491943-0.5500183-0.1868896-1.074501-0.2996826-1.6067963c-0.078186-0.3792343-0.1266479-0.7630539-0.2366943-1.1354752
		c-0.2213135-0.7344208-0.5129395-1.4396057-0.8488159-2.1202393c-0.046936-0.09655-0.0814209-0.201149-0.1304932-0.2962036
		c-2.050354-3.9211121-5.9360352-6.7964859-10.6624756-7.3498459c-0.300415-0.0351944-0.6013184,0.0065689-0.9025879-0.0087967
		c-0.7008057-0.0359421-1.4020386-0.080307-2.0983276-0.0101624c-0.1358032,0.0032196-0.2717285-0.0110321-0.4075928-0.0038452
		c-0.8272705,0.1098099-1.6564941,0.2714157-2.4785156,0.5389862c10.6428833-6.0444565,18.9295044-18.7060699,12.5430908-27.7737503
		c-0.2137451-0.3002853-0.4788208-0.6005783-0.7172852-0.9008636c-0.2695923-0.3418121-0.5161743-0.6838684-0.8162231-1.0249329
		c-8.7243652-9.8718758-29.8598022-19.3660088-46.7124634-20.8030128c-0.0831299-0.0095444-0.2229614-0.0107803-0.34375-0.0147476
		c-0.2001953-0.005825-0.4420776-0.006691-0.7323608-0.0017357c-0.0862427,0.0017357-0.1591187,0.0014877-0.2510986,0.0042152
		c-0.0059204,0.0001221-0.010376,0.0001221-0.0164795,0.00037c-0.0015869-0.000248-0.0033569-0.000248-0.0049438-0.000248
		c-0.6485596,0.0161133-1.4246216,0.0488319-2.2130737,0.0873718l0.3945923-0.3424263l0.880188-0.7708626l0.7380371-0.8035812
		l0.8904419-0.7212906l1.0253296-0.7703667l0.8989868-0.6558533l1.1386719-0.7734642l0.840271-0.5656319
		c0.5238647-0.3435402,1.0620117-0.669239,1.5982666-0.9790688l0.8666382-0.5141983
		c0.6159668-0.300663,1.1663208-0.5926476,1.7166138-0.884758l0.8416138-0.436367l1.3171387-0.6398659l0.9529419-0.4236031
		c0.4100952-0.1950722,0.8343506-0.3724213,1.274292-0.5480309l0.9832764-0.4036522l1.3164062-0.4947395l0.9598999-0.3420563
		l1.4244385-0.4500008l0.9030151-0.2676926c0.5214844-0.1821823,1.1030884-0.325325,1.6690063-0.4703255l0.6651001-0.165823
		c0.7166138-0.1920967,1.5764771-0.3678341,2.3690186-0.5190315l0.6578369-0.1021214
		c0.5938721-0.1094322,1.1878662-0.2187424,1.7941895-0.2944641l0.9182129-0.1205864l1.6343994-0.1675587l0.9942017-0.079565
		l1.5296021-0.098774l1.0046997-0.0297432l1.6177979-0.024168l0.9833374,0.0161114
		c0.5651245,0.0003719,1.1481934-0.0135078,1.7220459,0.0525475l0.8288574,0.0953045
		c0.8447266,0.0970402,1.6896973,0.1942024,2.5662842,0.294836c0.8766479,0.1008816,1.7374878,0.1996574,2.6140747,0.300539
		l0.8608398,0.098774c0.5701294,0.0977821,1.1328735,0.2595158,1.6908569,0.3234653l1.0073242,0.2287807l1.5701904,0.3905125
		l1.0337524,0.2803345l1.4352417,0.4394684l1.0422974,0.3458977l1.3662109,0.4799919l1.020874,0.3917503l1.3249512,0.5560875
		l1.0012817,0.4218674l1.317627,0.619915l0.946228,0.4799919c0.4439087,0.2125435,0.8842773,0.4569397,1.3104858,0.6837387
		l0.8963623,0.4905243l1.3435669,0.816597c0.0484619,0.0286255,0.0921021,0.0572548,0.1395874,0.0848923
		c0.1799316,0.0995178,0.3491211,0.1997795,0.4963379,0.3021469c0.0487061,0.0312347,0.100647,0.0576324,0.1489868,0.0907211
		l1.6647949,1.111927l0.390625,0.2549286c0.6734619,0.4648743,1.3272095,0.9599838,1.9649658,1.4531136l0.710083,0.5660019
		c0.399231,0.3204918,0.8143921,0.6427193,1.1958618,0.977211l0.7910767,0.7046852l1.0402832,0.9270172l0.8138428,0.7880898
		l0.942627,0.9319763l0.7924805,0.8339462c0.3035889,0.3094597,0.5892944,0.633049,0.8751831,0.9566383l0.7711182,0.8799248
		l0.8237915,0.9827881l0.7335205,0.9242897l0.7722778,1.0091858l0.697937,0.9524269l0.7191162,1.051693
		c0.2202148,0.3320198,0.4422607,0.6482964,0.6466675,0.9786987l0.6796265,1.1116791l0.5971069,0.9892349
		c0.2288208,0.3975754,0.3833618,0.7385178,0.666748,1.223217c0.2835693,0.4848251,0.5333252,0.9817963,0.7971802,1.4967384
		c0.2637329,0.5148201,0.5117188,1.0276527,0.7576904,1.5568466l0.4885864,1.0896187l0.4951782,1.1712914l0.4494019,1.1498489
		c0.1491089,0.3886566,0.3001709,0.7612,0.4334106,1.1481171l0.3939819,1.2080994
		c0.1350708,0.3708038,0.2400513,0.7220306,0.3695679,1.1405563c0.1296387,0.4187622,0.2571411,0.8531494,0.3586426,1.236351
		c0.1013794,0.3832016,0.1885376,0.7484283,0.3021851,1.1652222c0.1135254,0.4169083,0.2111816,0.8318329,0.3088379,1.2468872
		l0.2506714,1.1916122c0.0818481,0.4131927,0.1578979,0.8739777,0.2415771,1.2711792
		c0.0834961,0.3972092,0.1369629,0.7749557,0.2009888,1.2021561c0.0639648,0.4273148,0.1420288,0.8722382,0.1920166,1.2818375
		c0.0496826,0.4093475,0.0855103,0.8011017,0.133606,1.2265625c0.0477905,0.4254608,0.0921631,0.8827744,0.1262817,1.2905121
		c0.0338135,0.4074936,0.0517578,0.8132477,0.0820312,1.2529678c0.0300903,0.4394608,0.1259155,0.8703766,0.0784302,1.2848129
		c-0.0127563,0.0411453-0.0175781,0.0843964-0.0147095,0.1276474c-0.2450562,0.7108765-0.5787964,1.3751602-0.8519287,2.0716629
		c-0.0001221,0.0141296-0.0001221,0.0277634-0.0001221,0.0417633c0.2871094-0.7302094,0.6351318-1.4277039,0.8912964-2.1737823
		c0.0767212,2.6029663-0.0336914,5.2080383-0.3303833,7.7950134
		C599.6264648,115.5669022,578.7380371,134.9171753,553.7927246,136.869751z"/>
	<path class="st5" d="M322.9364624,164.3746796c-0.1497192-5.118927-0.8554077-10.3500061-2.1155396-15.690033
		c-0.4566956-2.348526-1.0906067-4.5194702-1.8482361-6.5670776c-0.966156-2.6104126-2.1503601-5.0031891-3.6056824-7.1230621
		c-2.7449951-3.4862213-6.4558105-5.3060608-11.1291809-5.4556427c-3.7839355,0.1495819-6.8280945,1.6699982-9.1272888,4.5644531
		c-1.0389404,1.3366089-2.0406799,3.0033875-3.0050049,5.0067596c-0.8894653,2.0033722-1.6326904,4.1189117-2.2262268,6.3467407
		c-1.8552551,9.7209167-2.7089233,17.6968842-2.5594482,23.9281006c-0.0715027,9.1035004,0.0935669,17.0062103,0.4826965,23.7749329
		c0.4225159,7.3551788,1.1105652,13.3635712,2.0767517,17.9620972c1.6309509,8.9794464,6.1955261,13.4658203,13.6901245,13.4658203
		c4.5254211,0,8.161377-1.962738,10.9079895-5.8979797c2.743103-3.7823029,4.7108154-8.346756,5.8978271-13.6901245
		c2.0035095-11.5746002,2.9301453-20.7748871,2.7824097-27.6014862
		C323.1576538,174.0583038,323.0828247,169.7183075,322.9364624,164.3746796z"/>
	<path class="st5" d="M562.3470459,114.4821167c3.5934448-2.8561554,4.19104-8.0843887,1.335022-11.6777039
		c-1.9505615-2.4539948-5.0032959-3.472229-7.8901978-2.9859161c-0.2819214,0.0474625-0.5670166,0.0716324-0.8444824,0.1487198
		c-0.2354736,0.0654373-0.4589233,0.1803207-0.6895752,0.2671967c-0.2785645,0.1047211-0.5632324,0.1871414-0.8325806,0.3234634
		c-0.2362061,0.1195984-0.4520874,0.2911224-0.6792603,0.435257c-0.2452393,0.1556549-0.5011597,0.2856674-0.7339478,0.4703217
		c-0.0014648,0.0011215-0.0021973,0.0026016-0.0037231,0.0037231c-0.0013428,0.0009918-0.0025635,0.0014877-0.0039673,0.0024796
		c-0.2243042,0.1783371-0.4015503,0.3906326-0.6022949,0.5863266c-0.2000122,0.1951904-0.423584,0.3736572-0.6002197,0.5840912
		c-0.1755981,0.2094498-0.303894,0.4445496-0.4559326,0.6673813c-0.1552734,0.227417-0.3339844,0.4421921-0.4647217,0.6815033
		c-0.135376,0.2477493-0.2207642,0.5140762-0.3293457,0.7724762c-0.0987549,0.2353516-0.2230225,0.4617767-0.2994995,0.7040634
		c-0.088501,0.2800903-0.1251831,0.5712051-0.1835938,0.8582382c-0.0475464,0.2344818-0.1218262,0.4635086-0.149292,0.7009659
		c-0.0310059,0.2691803-0.0111694,0.5414581-0.0158691,0.8127518c-0.0046997,0.2607498-0.0348511,0.5205154-0.0147705,0.7812729
		c0.0199585,0.2616196,0.0912476,0.5182877,0.1362305,0.7781754c0.0463257,0.2680664,0.0675049,0.5388565,0.140625,0.8029633
		c0.0756226,0.2726517,0.2047729,0.5325394,0.309082,0.7987442c0.0947266,0.2414246,0.1619873,0.4900284,0.2806396,0.7242661
		c0.2492065,0.4925079,0.5515747,0.9672928,0.9077759,1.4165497
		C553.5221558,116.7308807,558.7481689,117.3314667,562.3470459,114.4821167z M551.2631226,111.012001
		c-0.1096802-0.2135391-0.140564-0.4461594-0.2255859-0.6666412l-0.0345459,0.0273895
		c-0.1344604-0.3466415-0.2385864-0.6971207-0.312439-1.0536728c-0.0204468-0.0976639-0.0466309-0.1916046-0.0625-0.2898865
		c-0.0898438-0.5569534-0.1040649-1.1150208-0.0530396-1.6694946c0.0099487-0.1058426,0.0253296-0.2075882,0.0400391-0.3129349
		c0.0795898-0.5673599,0.2165527-1.1238251,0.4381104-1.6537628c0.019104-0.0454788,0.0458374-0.0866241,0.06604-0.1319885
		c0.2434082-0.5477829,0.559082-1.0652008,0.9490967-1.5371399c0.0131226-0.0159836,0.0183716-0.0355682,0.0316162-0.0513077
		c0.0065918-0.0079269,0.0150146-0.0131378,0.0215454-0.0208206c0.2738037-0.3220978,0.5738525-0.6267242,0.9143677-0.8987579
		c0.3477783-0.276619,0.7191772-0.5032959,1.1021729-0.700592c0.0632935-0.0324707,0.1298828-0.0537872,0.1939697-0.0841522
		c0.3101807-0.1472321,0.6256104-0.2741394,0.9500122-0.3706818c0.100647-0.0298691,0.2027588-0.048584,0.3045044-0.0738678
		c0.2947388-0.0727463,0.5898438-0.129509,0.8900146-0.1612396c1.7455444-0.1872635,3.5600586,0.2989273,5.006897,1.5215302
		L551.2631226,111.012001z M556.3894653,114.5860977c-0.0784302-0.0096664-0.1506958-0.0488281-0.2286377-0.061348
		c-0.5040283-0.075592-0.9987793-0.204483-1.4781494-0.3957138c-0.0980225-0.0402756-0.1893921-0.0898514-0.2855225-0.1348419
		c-0.5489502-0.2495956-1.0789795-0.5545959-1.5577393-0.9598618l10.2186279-8.1122742
		c1.447937,2.8244324,0.706665,6.2776947-1.7727051,8.25914c-1.3634033,1.0752411-3.036377,1.5218964-4.6702881,1.3897858
		C556.5396729,114.5768051,556.4648438,114.582756,556.3894653,114.5860977z"/>
	<path class="st5" d="M557.3220825,78.4792175c0.0007324-0.0059433,0.0046997-0.0100327,0.0053101-0.0159836
		c0.0003662-0.0026016,0.0020142-0.0049591,0.0023804-0.0075607c0.2357178-2.0510864-1.2360229-3.9051285-3.2871094-4.1407242
		c-2.0512085-0.2357178-3.9049683,1.2359848-4.140686,3.2872009c-0.0006104,0.0052032-0.0012817,0.0106583-0.0020142,0.0158615
		c-0.0587158,0.5106049-0.0111694,1.0089417,0.1251831,1.4729462c0.3839722,1.3149261,1.4954834,2.3148193,2.902771,2.5836258
		c0.0107422-0.0011139,0.0214233-0.001358,0.0321045-0.0026016c0.0137329,0.0023575,0.0249023,0.0100403,0.0385132,0.0122681
		c0.0623779,0.0104141,0.1112061,0.0494537,0.1746216,0.0567627c0.005188,0.0007477,0.0106812,0.0012436,0.0158691,0.0018616
		C555.2316895,81.9777222,557.0742188,80.5170517,557.3220825,78.4792175z"/>
</g>
</svg>
