<?xml version="1.0" encoding="utf-8"?>
<!-- Generator: Adobe Illustrator 26.3.1, SVG Export Plug-In . SVG Version: 6.00 Build 0)  -->
<svg version="1.1" id="Layer_1" xmlns="http://www.w3.org/2000/svg" xmlns:xlink="http://www.w3.org/1999/xlink" x="0px" y="0px"
	 viewBox="0 0 215 240" style="enable-background:new 0 0 215 240;" xml:space="preserve">
<style type="text/css">
	.st0{fill:#030303;}
	.st1{fill:#6898B8;}
	.st2{fill:#A2C9D2;}
	.st3{fill:#FFF5D1;}
	.st4{fill:#0C3555;}
	.st5{fill:#FFFFFF;}
	.st6{fill:#F8C37A;}
	.st7{fill:#FCE6AD;}
	.st8{fill:#FFF6D1;}
	.st9{fill:#0E476C;}
	.st10{fill:#195B7F;}
	.st11{fill:#D2E5EA;}
</style>
<g>
	<path class="st5" d="M159.7575378,35.0979004c0.3781128,0.1707153,0.954834-0.2800293,1.28479-1.0056763
		c0.25-0.5498047,0.2796631-1.1036377,0.1142578-1.4017944c-0.0513916-0.1071777-0.1218872-0.1890869-0.2128296-0.2321167
		c-0.3173828-0.1503906-0.8252563,0.184021-1.1640015,0.7959595c0.0062866-0.0012817,0.0126343-0.0025635,0.0189819-0.0037842
		c-0.0481567,0.081665-0.1025391,0.1528931-0.1433716,0.2449341
		C159.3332214,34.2219849,159.3716736,34.9263306,159.7575378,35.0979004z"/>
	<path class="st5" d="M205.2562561,25.8009014c-5.8086548-8.385498-15.2034302-12.7993164-24.690979-12.6248779
		c-5.7592773,0.0031738-11.5758667,1.6837769-16.6685791,5.2114868c-3.8768921,2.6854858-6.9811401,6.222168-9.1460571,10.2597046
		c-3.1779785,0.4498901-6.3292847,0.6786499-9.4318237,0.6790161c-0.0042114,0-0.0028687,0-0.0070801,0
		c-30.6340866,0-48.7679977-22.1772461-48.93853-22.3899536l-0.0005493-0.0007935
		c-2.1673584-2.7345581-6.317688-2.7337646-8.4835205,0.0025024C87.711647,7.1616197,69.7927017,29.3463116,38.9809952,29.3463116
		c-6.2960205,0-12.7941303-0.9354858-19.3135395-2.7806396h-0.0003662c-2.9049072-0.8224487-5.9208984,0.8911743-6.701355,3.8074951
		l-0.0001221,0.0008545c-5.3172603,19.8703632-8.125061,40.350769-8.4189453,60.8719482
		c-0.3068848,20.4650269,1.888855,40.97229,6.5971675,60.9572144c9.9955444,41.2059326,25.0031757,55.8291626,56.1300659,71.7759399
		l0.0941162-0.1231079c6.704895,3.4320068,14.1417847,6.9252319,22.4528198,10.7606812h0.0003662
		c1.4383545,0.6641846,3.0950928,0.6641846,4.5333862,0h0.0003662c42.0540695-19.392395,65.2188644-30.0744019,77.9918747-79.722168
		c4.0285034-16.1526489,6.3780518-32.6569214,7.1057129-49.22229l0.0066528-0.0010986
		c0.0943604-2.1832275,0.1695557-4.3668823,0.206665-6.5516357c1.010376-2.546875,2.1278076-5.0512695,3.3532104-7.5048828
		c2.7068481-5.5588379,5.7838135-10.9478149,8.9616699-16.2457275c1.6295166-2.7260742,3.2938843-5.4249268,4.9628296-8.1179199
		c0.3048096-0.1932373,0.59729-0.4025879,0.8945923-0.6066895c0.0015869-0.0025635,0.0031738-0.0050659,0.0046997-0.0076294
		C211.1664734,57.4072876,214.4856262,39.1245117,205.2562561,25.8009014z M157.7278137,33.6593628
		c0.0026855-0.0004883,0.0054932-0.0012207,0.0083008-0.001709c0.0280151-0.0716553,0.0490723-0.1426392,0.0799561-0.2144775
		c0.7271118-1.6901875,2.0643921-2.7375507,2.9417114-2.3424091c0.5231323,0.2355957,0.7659302,0.9366474,0.7211914,1.8181171
		c0.0113525-0.0026245,0.0223999-0.0040894,0.0338135-0.0066528c-0.0297241,0.598999-0.1889648,1.2796021-0.4970093,1.9644165
		c-0.493042,1.0962524-1.2262573,1.9105835-1.9312134,2.2428589c-0.2426758,0.118042-0.4813232,0.1815796-0.7041016,0.1676636
		c-0.1279907-0.0058594-0.2515869-0.0323486-0.3682251-0.083252
		C157.1352844,36.8215332,157.0436096,35.2606812,157.7278137,33.6593628z M154.4559631,44.0650024
		c0.6932983-1.133667,1.5026855-2.1921997,2.414978-3.1585083c-0.0043335,0.0076294-0.0083008,0.0139771-0.0126343,0.0216064
		c0.0106201-0.0112915,0.0194702-0.0241089,0.0301514-0.0354614l0.0054321-0.0471802
		c0.0048828-0.0085449,0.0134888-0.0140991,0.0184326-0.022644l0.0008545-0.006897
		c0.1146851-0.1858521,0.2547607-0.3450317,0.4048462-0.4912109c0.2474365-0.2520142,0.5269165-0.4696655,0.8583984-0.6044312
		c0.0136719-0.0101929,0.0270996-0.0170288,0.0407715-0.0271606c-0.0182495,0.0073853-0.0372314,0.0097046-0.055481,0.0175171
		c2.0488281-1.5144043,3.9799194-1.614563,5.5158691-0.3566284c0.0327759,0.0263062,0.0678711,0.0440063,0.1004028,0.0714111
		c2.5548706,2.1882935,3.9320068,4.5007324,5.5866089,6.4262695c0.0008545,0.0041504,0.00177,0.0081177,0.0026855,0.012146
		c2.0370483,2.3682251,4.5023193,4.1470337,10.1199341,4.3546753c-1.1947632,1.5591431-1.6618042,3.5565796-1.2824097,5.4838257
		c-0.6253662,0.3895264-1.178894,0.7077026-1.4807129,0.9116211c-0.9588623,0.6652832-2.7310181,1.5377808-5.0385742,2.4978027
		c0.0005493,0.0037842,0.0010986,0.0075684,0.0016479,0.0113525c-1.4030762,0.5828247-3.0044556,1.1974487-4.7514648,1.8199463
		c-0.8781738,0.3129272-1.7909546,0.6269531-2.7340088,0.9399414c-0.0003662-0.0028076-0.0007324-0.0056152-0.0012207-0.0083618
		c-0.8814697,0.2929077-1.7861328,0.5837402-2.7119141,0.8711548c0.0003662,0.0025635,0.0006714,0.005127,0.0010376,0.0076294
		c-8.7984619,2.7286377-19.3209839,5.0877686-26.4142456,4.7513428c-0.9138794-0.0406494-1.7263184-0.102417-2.4453125-0.1838379
		c-7.1129074-0.8019409-5.03228-3.5350342-0.3560791-6.8793335c2.3913574-1.7113647,5.4613037-3.5830078,8.3344727-5.4406128
		c5.5806274-3.6432495,10.1724243-6.8867798,12.565979-9.3563232
		C153.7228699,45.0751953,154.1549377,44.5471191,154.4559631,44.0650024z M172.4498596,64.7314453
		c-1.5870972,0.3846436-3.2203369,0.7521362-4.8604126,1.0969238c-0.9310303,0.1958008-1.8619385,0.383667-2.7867432,0.5640869
		c-0.6918945,0.1350098-1.3810425,0.2671509-2.0611572,0.3926392c-1.1107178,0.2050171-2.2009277,0.3968506-3.255249,0.5739746
		c-3.9335327,0.7771606-7.9273682,1.2097778-11.9360962,1.2928467c0.0103149-0.0018921,0.0200806-0.0042114,0.0303955-0.0061646
		c-0.0206299,0.0004883-0.0411987,0.0021973-0.0618286,0.0025635c1.8468628-0.3438721,3.6326904-0.7407227,5.3504639-1.1459961
		c0.4447632-0.1077881,0.9073486-0.2059326,1.3401489-0.3201904c5.8408203-1.4353027,11.5796509-3.2576294,17.1785889-5.4546509
		c1.9142456-0.7233276,3.7785645-1.5718994,5.5811768-2.5402222c0.7314453-0.3846436,1.4036865-0.8726196,1.9959717-1.4489136
		c1.0147095,1.7915649,2.7838745,3.02948,4.8146362,3.3690186c-2.645752,1.2758179-6.7861328,2.5209351-11.3299561,3.6231689
		C172.4497986,64.730835,172.4498596,64.7312012,172.4498596,64.7314453z M179.7303772,53.7778931
		c0.3283081-2.8571167,2.9106445-4.9071045,5.7677612-4.5787964c2.8569946,0.3283691,4.9070435,2.9106445,4.5787354,5.7677612
		c-0.3058472,2.6606445-2.571167,4.5953979-5.1888428,4.586853c-0.0013428,0.0001831-0.0026245,0.0005493-0.0041504,0.0007324
		c-0.0029907-0.0001221-0.0059814-0.0001221-0.0089111-0.0001221c-0.1859741-0.0013428-0.3690186,0.013916-0.5579224-0.0078125
		c-0.0026855-0.0003662-0.005249-0.0006104-0.0079346-0.0009155
		C181.4520569,59.2172852,179.4020691,56.6349487,179.7303772,53.7778931z M181.2211609,44.5977783
		c-0.0157471-0.0003662-0.03125-0.0001221-0.0469971-0.0006714c-0.1087036-0.0041504-0.2146606,0.0081177-0.324585-0.0045166
		c-0.0056152-0.0005493-0.0106201-0.0027466-0.0162354-0.0033569c-0.005188-0.0006104-0.0100708,0.0003662-0.0151978-0.0001831
		c-0.1046753-0.012085-0.2001343-0.0465698-0.302063-0.065918c-0.1789551-0.0336304-0.3602905-0.06073-0.5297241-0.1156616
		c-0.055603-0.0179443-0.104248-0.0479736-0.1585693-0.0681763c-0.210022-0.0777588-0.4172363-0.1605835-0.6091919-0.2686768
		c-0.0220947-0.0124512-0.0402832-0.0300293-0.0621948-0.0428467c-0.2161865-0.1268921-0.4225464-0.267334-0.6112061-0.4286499
		c-0.0084839-0.0072021-0.0146484-0.0162964-0.0230103-0.0236206c-0.1973877-0.1715698-0.3797607-0.3585815-0.5419922-0.5628052
		c-0.0054321-0.006897-0.0091553-0.0150146-0.0145874-0.0219116c-0.1616821-0.2060547-0.3059082-0.4255371-0.4273682-0.6587524
		c-0.0123901-0.0238647-0.0188599-0.0505981-0.0308228-0.074707c-0.1087646-0.21875-0.2045898-0.4443359-0.2744141-0.6812134
		c-0.0170898-0.0574341-0.0205688-0.1192627-0.0352173-0.1776123c-0.0517578-0.2080078-0.1002808-0.4169922-0.119812-0.6346436
		c-0.0100098-0.1095581,0.0028687-0.2232666,0.0015259-0.3346558c-0.0018921-0.1639404-0.0153198-0.3257446,0.0022583-0.4927979
		c0.001709-0.0157471,0.003418-0.0316162,0.005249-0.0473633c0.2676392-2.328125,2.3718262-3.9985962,4.7000122-3.7310181
		c2.328125,0.2674561,3.9985962,2.3717041,3.7311401,4.6998901c-0.2512817,2.1864014-2.1261597,3.7709351-4.2814331,3.7369385
		C181.2314148,44.5952759,181.226532,44.59729,181.2211609,44.5977783z M123.7781143,168.0757446
		c1.7965088,0.0502319,3.3317261-0.1624756,4.6047897-0.6365356c1.1725464-0.4489136,1.7839355-1.6968384,1.8342285-3.7438354
		h1.8718872v14.1879883h-22.3120651v-16.9585571c1.7722168-0.6984863,3.2194214-1.7085571,4.3425903-3.0319214
		c1.072937-1.2964478,1.8962402-2.7571411,2.4707642-4.380249c0.6239624-1.6969604,1.0352173-3.430603,1.2353516-5.2028198
		c0.0997314-1.7973633,0.1499023-3.4942017,0.1499023-5.0922852c0-3.5762939-0.7332764-6.8712158-2.112854-9.9205933
		c-0.237915-0.526062-0.4533081-1.0604248-0.7322388-1.5704346c-1.9967041-3.5193481-5.2664185-5.3284302-9.8084106-5.4289551
		c-4.0029297,0.0896606-6.9886475,1.5452881-8.9703369,4.3497925c-0.2419434,0.3425903-0.4755249,0.6964111-0.6873779,1.0791626
		c-2.046875,3.4690552-3.0452881,7.2982788-2.9950562,11.4910278c-0.0502319,3.3954468,0.4615479,6.8276367,1.5352173,10.295105
		c0.6231689,1.6231079,1.4347534,3.0838013,2.4330444,4.380249c1.0980835,1.3233643,2.5084839,2.3334351,4.2304688,3.0319214
		v16.9585571H78.5559464v-14.1879883h1.835022c0,2.0469971,0.6482544,3.2949219,1.9464722,3.7438354
		c0.5988159,0.3250122,1.284729,0.5109253,2.0586548,0.5611572c0.7730103,0.0502319,1.5845947,0.0753784,2.4331055,0.0753784
		h11.3427734v-4.4557495c-5.19104-0.7235718-9.8075562-2.6951904-13.8504028-5.9147339
		c-4.242981-3.2194214-6.4147339-7.6115723-6.5144043-13.1761475c0.145752-7.2521973,2.9177246-12.5303955,8.2727661-15.8701172
		c0.1553955-0.0967407,0.2904663-0.2089844,0.4502563-0.3027344c5.5151978-3.1693115,11.7791748-4.7539062,18.7918701-4.7539062
		c7.0629272,0,13.3520508,1.5845947,18.868103,4.7539062c2.6144409,1.5455933,4.6108932,3.5599365,6.0403976,6.003418
		c1.6407471,2.8049927,2.5267334,6.1815186,2.6063232,10.1694336c-0.0996094,5.5645752-2.2211304,9.9567261-6.3635788,13.1761475
		c-4.0428467,3.2195435-8.722168,5.1911621-14.0380859,5.9147339v4.4557495H123.7781143z M83.3600235,102.1629639
		c1.1692505,1.718689,2.666748,2.5762329,4.4942627,2.5762329c1.4614868,0,2.7589111-0.6029663,3.8920898-1.809082
		c1.0594482-1.0585938,1.7353516-2.2831421,2.0276489-3.6717529h3.2346191
		c-0.2194824,3.6550293-0.9691162,7.2347412-2.2479858,10.7440186c-0.6574097,1.6432495-1.5888062,2.9967041-2.7949219,4.0553589
		c-1.1700439,1.0603027-2.668396,1.6264648-4.4950562,1.7001953c-2.3753052-0.0737305-4.3484497-1.4623413-5.9196777-4.1659546
		c-1.5712891-2.7052612-2.7404785-6.1575317-3.5076904-10.3603516h-0.2193604
		c-1.8635254,3.911377-4.3301392,7.289917-7.3996582,10.1409302c-3.1433105,2.8493042-6.8887939,4.3116455-11.2373657,4.385376
		c-6.3917847-0.116394-11.5501709-1.9313965-15.5147705-5.3887329c-1.0449219-0.9108276-2.0256348-1.9104004-2.9019165-3.0536499
		c-4.1659546-5.3720093-6.2488403-11.9115601-6.2488403-19.6235962c0.072876-7.052063,2.3568726-13.3001709,6.8519287-18.7457886
		c4.237915-5.480957,9.9205933-8.2950439,17.0463867-8.4407959c4.4951782,0.0737305,7.819397,1.5343628,9.9760132,4.3853149
		c0.6119995,0.730835,1.1372681,1.5310669,1.5895996,2.3899536c0.3843994,0.7299805,0.7180786,1.5009155,0.9866333,2.3237915
		c0.62146,1.7906494,1.0779419,3.763916,1.3702393,5.9197388h0.2194824l3.2337036-13.5396729h15.8412476L80.1807632,96.9014893
		C80.9479752,98.8379517,82.0074844,100.5934448,83.3600235,102.1629639z M92.2871475,25.4235821
		c0.0012207-0.0010376,0.0023804-0.0018311,0.00354-0.0028687c1.1022949,0.9348145,2.2271118,1.8417969,3.3713379,2.7226562
		C94.5159683,27.2642193,93.3913345,26.3566265,92.2871475,25.4235821z M167.0950623,153.5845947
		c-11.8924561,46.2280884-31.5353394,56.0708618-75.0064011,76.1182251
		c-45.1308594-20.8262329-64.0087891-30.8139648-75.6847534-78.9465942
		c-9.2355347-39.2002563-8.6206665-80.078064,1.7896118-118.9827271
		C64.709877,44.9363403,92.1318741,10.2973614,92.1318741,10.2973614s22.3234253,28.1297626,60.8323288,24.0177631
		c-0.482605,1.6582031-0.8216553,3.3640137-1.0059204,5.1030273c-0.1030884,0.9726562-0.1635742,1.9538574-0.1686401,2.9429932
		c-15.1715088,1.2739258-30.4311447-1.9642334-43.8250656-9.3899536c-4.9824219-2.7638569-9.6768799-6.0176411-14.0140991-9.7128925
		c-1.062561-0.8677368-2.5889893-0.8677368-3.6514893,0c-4.3319702,3.6952515-9.0217896,6.9490356-13.9995728,9.7128925
		c-15.1572876,8.4022827-32.7033691,11.4534302-49.8071289,8.6593628c-0.3659668-0.048584-0.7265625-0.0267944-1.0670166,0.0560913
		c-0.5105591,0.1239624-0.975769,0.3861084-1.3461304,0.7512817c-0.3703003,0.3651733-0.6456299,0.8342896-0.7764282,1.3719482
		c-6.5140381,29.5123901-7.3272705,59.9971924-2.395813,89.8144531c1.8989258,11.8855591,4.9142456,23.5650635,9.0059204,34.8835449
		c10.9688129,29.7897339,34.4362793,39.2136841,60.9923706,52.059021c0.78302,0.3660278,1.6932983,0.3392944,2.4534912-0.0719604
		c26.541687-12.8453369,50.0524216-22.255127,60.992424-51.9870605c4.0783691-11.3226318,7.0933228-23.0012817,9.0058594-34.8835449
		c3.5140381-21.2366943,4.0943604-42.8113403,1.7886963-64.1326904c0.9299316-0.1813354,1.859436-0.3648071,2.7866821-0.5598755
		c0.1148071-0.0241089,0.2302246-0.0449829,0.3450317-0.0692749c0.8100586,0.3947144,1.6436157,0.7357788,2.4857178,1.0531006
		c0.1751709,0.0661621,0.3482666,0.1362305,0.5251465,0.1992188c0.6035767,0.2143555,1.2214966,0.3855591,1.838501,0.5595093
		C175.8717346,98.3569336,173.8742371,126.4038086,167.0950623,153.5845947z M26.5005856,113.9772949
		c-0.6016235-2.9180908-0.996521-5.8760986-1.1804199-8.8517456c-0.0028076-0.045105-0.008606-0.0899048-0.0112915-0.1350708
		c-0.6491089-0.4094849-1.2630005-0.8366699-1.9006958-1.2520752c0.6398926,0.4122925,1.2863159,0.8219604,1.9302368,1.227478
		c0.0042114,0.0583496,0.0065918,0.1200562,0.0109253,0.1782837c0.0010986,0.0149536,0.0016479,0.0308838,0.0027466,0.0458374
		C25.5282955,108.1436768,25.9130001,111.079834,26.5005856,113.9772949z M22.6431026,103.2350464
		c-0.5743408-0.380249-1.1663208-0.7504272-1.7269287-1.1374512c-0.0005493-0.0150146-0.0014648-0.0292969-0.0020142-0.0443115
		C21.4651241,102.4511108,22.0497799,102.8438721,22.6431026,103.2350464z M184.1059265,83.6108398
		c-0.2512817,0.4562988-0.4946899,0.9135132-0.7381592,1.3706055c-1.243103-1.0128174-2.5807495-1.895874-3.9803467-2.6682129
		c-0.0012817-0.0261841-0.0030518-0.0524902-0.0043335-0.0786743c-0.0299683-0.5993042-0.065918-1.1981812-0.1001587-1.7973022
		c1.7165527,0.8718872,3.3491821,1.9041138,4.8537598,3.1134644c-0.0108643,0.0197144-0.0209961,0.0395508-0.0318604,0.0592651
		C184.1051941,83.6102905,184.1055603,83.6105347,184.1059265,83.6108398z M188.7506409,75.5146484
		c-0.2650757,0.4387817-0.5233765,0.8864136-0.7885742,1.3251953c-1.6427612-1.1676025-3.4378052-2.1045532-5.335144-2.7844849
		c-1.2697754-0.4767456-2.5709229-0.8587036-3.8902588-1.1643066c-0.0462036-0.52771-0.088623-1.0557861-0.1383057-1.583252
		c1.5447388,0.3288574,3.0726318,0.7323608,4.5550537,1.2808838c1.9884033,0.7064209,3.8725586,1.6774292,5.6017456,2.8867188
		c-0.0061035,0.0100098-0.0119629,0.0203857-0.0180664,0.0303955
		C188.7415466,75.5089111,188.7462463,75.5115356,188.7506409,75.5146484z M183.2406311,68.6099854
		c-0.8203125,0.0780029-1.6505127,0.1113281-2.4873657,0.111084c-0.1238403-0.0025024-0.2498169-0.0194702-0.3739014-0.0238037
		c-0.6755371-0.0231323-1.352417-0.0536499-2.0354004-0.1297607c-0.0010376-0.0095825-0.0023804-0.019043-0.003418-0.0287476
		c-0.0569458-0.0061646-0.112854-0.0043335-0.1699219-0.0108643c-1.8431396-0.21521-3.6554565-0.6313477-5.413147-1.2230225
		c0.0001831,0.0014648,0.0004272,0.0031128,0.0005493,0.0046387c-0.137207-0.0467529-0.2766724-0.0861816-0.4130859-0.1351318
		c0.0025635-0.0006104,0.0050659-0.0012817,0.0076294-0.0018921c-0.0328369-0.0116577-0.0664673-0.0206299-0.0991211-0.0324707
		c2.8820801-0.6470947,5.7655029-1.4451904,8.5378418-2.3833008c2.4070435-0.8051758,6.5802612-2.3060913,7.8613892-4.6642456
		c0.7928467-0.522522,1.4694214-1.2029419,1.9874878-1.9987183c0.1379395-0.2139282,0.262207-0.4354248,0.3751831-0.6622314
		c0.0180054-0.0372925,0.0341187-0.0753784,0.0514526-0.1130371c0.1610718-0.3384399,0.2880249-0.6906128,0.3918457-1.0504761
		c0.0994263-0.3656006,0.1977539-0.7325439,0.2353516-1.1153564c0.057251-0.4679565,0.057312-0.9387817,0.0175781-1.4057007
		c-0.024231-0.270874-0.092041-0.5291748-0.147583-0.7913208c-0.0385132-0.1867676-0.0623779-0.3757935-0.1165771-0.5592041
		c-0.1090088-0.3616943-0.2526245-0.7089844-0.4180298-1.0441895c-0.0231323-0.0475464-0.0401001-0.0990601-0.06427-0.145874
		c-1.0097656-1.9310913-2.9234009-3.347168-5.2510986-3.6196899c-0.1479492-0.017334-0.2961426,0.0032349-0.444519-0.0043335
		c-0.3451538-0.0177002-0.6904907-0.0395508-1.0333862-0.0050049c-0.0668945,0.0015869-0.1338501-0.0054321-0.2007446-0.0018921
		c-0.4074097,0.0540771-0.8157959,0.133667-1.2206421,0.2654419c5.2414551-2.9768066,9.3225098-9.2124634,6.1773071-13.6781616
		c-0.1052856-0.1478882-0.2358398-0.2957764-0.3532715-0.4436646c-0.1327515-0.168335-0.2542114-0.336792-0.4019775-0.5047607
		c-4.2966309-4.8617573-14.7055054-9.5374775-23.005188-10.2451801c-0.0409546-0.0046997-0.1098022-0.0053101-0.1693115-0.0072632
		c-0.0985718-0.0028687-0.2177124-0.0032959-0.3606567-0.0008545c-0.0424805,0.0008545-0.0783691,0.0007324-0.1236572,0.0020752
		c-0.0029297,0.000061-0.005127,0.000061-0.0081177,0.0001831c-0.0007935-0.0001221-0.0016479-0.0001221-0.0024414-0.0001221
		c-0.319397,0.0079346-0.7015991,0.0240479-1.0899048,0.0430298l0.1943359-0.1686401l0.4334717-0.3796387l0.3634644-0.395752
		l0.4385376-0.3552246l0.5049438-0.3793945l0.442749-0.322998l0.560791-0.3809204l0.4138184-0.2785645
		c0.2579956-0.1691895,0.5230103-0.3295898,0.7871094-0.4821777l0.4268188-0.2532349
		c0.3033447-0.1480713,0.5744019-0.2918701,0.8453979-0.43573l0.4144897-0.2149048l0.6486816-0.3151245l0.4692993-0.2086182
		c0.2019653-0.0960693,0.4108887-0.1834106,0.6275635-0.2698975l0.4842529-0.1987915l0.6483154-0.2436523l0.4727173-0.168457
		l0.7015381-0.2216187l0.4447021-0.1318359c0.2568359-0.0897217,0.5432739-0.1602173,0.8219604-0.2316284l0.3275757-0.081665
		c0.3529053-0.0946045,0.7763672-0.1811523,1.166687-0.2556152l0.3239746-0.050293
		c0.2924805-0.053894,0.585022-0.1077271,0.883606-0.1450195l0.4522095-0.0593872l0.8049316-0.0825195l0.489624-0.0391846
		l0.7532959-0.048645l0.494812-0.0146484l0.7967529-0.0119019l0.4842529,0.0079346
		c0.2783203,0.0001831,0.5654907-0.0066528,0.8480835,0.0258789l0.4082031,0.046936
		c0.4160156,0.0477905,0.8321533,0.0956421,1.263855,0.1452026c0.4317627,0.0496826,0.8557129,0.0983276,1.2874146,0.1480103
		l0.4239502,0.048645c0.2807617,0.0481567,0.5579224,0.1278076,0.8327026,0.1593018l0.4960938,0.1126709l0.7733154,0.1923218
		l0.5090942,0.1380615l0.7068481,0.2164307l0.5133057,0.1703491l0.6728516,0.2363892l0.5027466,0.1929321l0.6525269,0.2738647
		l0.493103,0.2077637l0.6489258,0.3052979l0.4660034,0.2363892c0.2186279,0.1046753,0.4354858,0.2250366,0.6453857,0.336731
		l0.4414673,0.2415771l0.6616821,0.4021606c0.0238647,0.0140991,0.0453491,0.0281982,0.0687256,0.0418091
		c0.088623,0.0490112,0.171936,0.0983887,0.2444458,0.1488037c0.0239868,0.0153809,0.0495605,0.0283813,0.0733643,0.0446777
		l0.8198853,0.5476074l0.1923828,0.1255493c0.331665,0.2289429,0.6536255,0.4727783,0.9677124,0.7156372l0.3497314,0.2787476
		c0.1965942,0.1578369,0.401062,0.3165283,0.5889282,0.4812622l0.3895874,0.3470459l0.5123291,0.456543l0.4008179,0.3881226
		l0.4642334,0.4589844l0.3902588,0.4107056c0.1495361,0.1524048,0.2902222,0.3117676,0.4310303,0.4711304l0.3797607,0.4333496
		l0.4057007,0.4840088l0.3612671,0.4552002l0.3803101,0.4970093l0.34375,0.4690552l0.354126,0.5179443
		c0.1084595,0.1635132,0.2178345,0.3192749,0.3184814,0.4819946l0.3347168,0.5474854l0.2940674,0.4871826
		c0.1126709,0.1958008,0.1887817,0.3637085,0.3283691,0.602417c0.1396484,0.2387695,0.2626343,0.4835205,0.3925781,0.7371216
		c0.1298828,0.25354,0.2520142,0.5061035,0.3731689,0.7667236l0.2406006,0.5366211l0.2438965,0.5768452l0.2213135,0.5662842
		c0.0734253,0.1914062,0.1478271,0.3748779,0.2134399,0.5654297l0.1940308,0.5949707
		c0.0665283,0.1826172,0.1182251,0.3555908,0.1820068,0.5617065c0.0638428,0.2062378,0.1266479,0.420166,0.1766357,0.6088867
		c0.0499268,0.1887207,0.0928345,0.3685913,0.1488037,0.5738525c0.0559082,0.2053223,0.1040039,0.409668,0.1520996,0.6140747
		l0.1234741,0.586853c0.0402832,0.2034912,0.0777588,0.4304199,0.1189575,0.6260376
		c0.0411377,0.1956177,0.0674438,0.3816528,0.098999,0.592041c0.0314941,0.2104492,0.0699463,0.4295654,0.0945435,0.6312866
		c0.0244751,0.2015991,0.0421143,0.3945312,0.0657959,0.6040649c0.0235596,0.2095337,0.0454102,0.4347534,0.0621948,0.6355591
		c0.0166626,0.2006836,0.0255127,0.4005127,0.0404053,0.6170654c0.0148315,0.2164307,0.0620117,0.4286499,0.0386353,0.6327515
		c-0.0062866,0.0202637-0.008667,0.0415649-0.0072632,0.0628662c-0.1206665,0.3500977-0.2850342,0.6772461-0.4195557,1.0202637
		c-0.000061,0.006958-0.000061,0.0136719-0.000061,0.0205688c0.1414185-0.3596191,0.3128052-0.703125,0.4389648-1.0705566
		c0.0377808,1.2819214-0.0166016,2.5648804-0.1627197,3.8389282
		C205.8130798,58.1186523,195.5258484,67.6483765,183.2406311,68.6099854z"/>
	<path class="st5" d="M69.5473404,82.1557617c-0.0737305-2.5209961-0.4212646-5.097229-1.0418701-7.7271118
		c-0.2249146-1.1566162-0.5371094-2.225769-0.9102173-3.2341919c-0.4758301-1.2855835-1.059021-2.4639893-1.7757568-3.5079956
		c-1.3518677-1.7169189-3.1793823-2.6131592-5.480957-2.6868286c-1.8635254,0.0736694-3.3627319,0.8224487-4.4950562,2.2479248
		c-0.5116577,0.6582642-1.0050049,1.479126-1.4799194,2.4657593c-0.4380493,0.9866333-0.8040771,2.0285034-1.0963745,3.1256714
		c-0.9136963,4.7874146-1.3341064,8.7154541-1.260498,11.7842407c-0.0352173,4.4833374,0.0460815,8.3753052,0.2377319,11.7088013
		c0.2080688,3.6223145,0.546936,6.5813599,1.0227661,8.8460693c0.8032227,4.4222412,3.0512085,6.6317139,6.7421875,6.6317139
		c2.2286987,0,4.0193481-0.9666138,5.3720093-2.9046631c1.3509521-1.8627319,2.3200073-4.1106567,2.9046021-6.7421875
		c0.9866943-5.7003174,1.4430542-10.2313232,1.3703003-13.5933228
		C69.6562881,86.9248047,69.6194229,84.7874146,69.5473404,82.1557617z"/>
	<path class="st5" d="M187.4535217,57.5844116c1.7697144-1.4066162,2.0640259-3.9814453,0.6574707-5.7510986
		c-0.9606323-1.2085571-2.4640503-1.710022-3.8858032-1.47052c-0.138855,0.0233765-0.2792358,0.0352783-0.4158936,0.0732422
		c-0.1159668,0.0322266-0.2260132,0.0888062-0.3395996,0.1315918c-0.137207,0.0515747-0.2774048,0.0921631-0.4100342,0.1593018
		c-0.116333,0.0588989-0.2226562,0.1433716-0.3345337,0.2143555c-0.1207886,0.0766602-0.2468262,0.140686-0.3614502,0.2316284
		c-0.0007324,0.0005493-0.0010986,0.0012817-0.0018311,0.0018311c-0.0006714,0.0004883-0.0012817,0.0007324-0.0019531,0.0012207
		c-0.1104736,0.0878296-0.1977539,0.1923828-0.2966309,0.2887573c-0.0985107,0.0961304-0.2086182,0.184021-0.2955933,0.2876587
		c-0.0864868,0.1031494-0.1496582,0.2189331-0.2245483,0.3286743c-0.0764771,0.1119995-0.1644897,0.2177734-0.2288818,0.3356323
		c-0.0666504,0.1220093-0.1087036,0.2531738-0.1621704,0.3804321c-0.048645,0.1159058-0.1098633,0.227417-0.147522,0.3467407
		c-0.0435791,0.1379395-0.0616455,0.281311-0.0903931,0.4226685c-0.0234375,0.1154785-0.0599976,0.2282715-0.0735474,0.3452148
		c-0.0152588,0.1325684-0.0054932,0.2666626-0.0078125,0.4002686c-0.0023193,0.128418-0.0171509,0.2563477-0.0072632,0.3847656
		c0.0098267,0.1288452,0.0449219,0.255249,0.0670776,0.3832397c0.0228271,0.132019,0.0332642,0.2653809,0.0692749,0.3954468
		c0.0372314,0.1342773,0.1008301,0.2622681,0.1522217,0.3933716c0.0466309,0.1188965,0.0797729,0.241333,0.1381836,0.3566895
		c0.1227417,0.2425537,0.2716675,0.4763794,0.4470825,0.6976318
		C183.1073914,58.6918945,185.6811218,58.9876709,187.4535217,57.5844116z M181.9948425,55.8754272
		c-0.0540161-0.1051636-0.0692139-0.2197266-0.111084-0.3283081l-0.0170288,0.0134888
		c-0.0662231-0.1707153-0.1174927-0.3433228-0.1538696-0.5189209c-0.0100708-0.0480957-0.0229492-0.0943604-0.0307617-0.1427612
		c-0.0442505-0.274292-0.0512695-0.5491333-0.026123-0.8222046c0.0048828-0.052124,0.0124512-0.1022339,0.0197144-0.1541138
		c0.0391846-0.2794189,0.1066284-0.5534668,0.2157593-0.8144531c0.0093994-0.0223999,0.022583-0.0426636,0.0325317-0.0650024
		c0.119873-0.2697754,0.2753296-0.5245972,0.4674072-0.757019c0.0064697-0.0078735,0.0090332-0.0175171,0.015564-0.0252686
		c0.0032349-0.0039062,0.0073853-0.0064697,0.0106201-0.0102539c0.1348267-0.1586304,0.2825928-0.3086548,0.4503174-0.442627
		c0.1712646-0.1362305,0.354187-0.2478638,0.5427856-0.3450317c0.031189-0.0159912,0.0639648-0.0264893,0.09552-0.0414429
		c0.152771-0.0725098,0.3081055-0.1350098,0.4678955-0.1825562c0.0495605-0.0147095,0.0998535-0.0239258,0.1499634-0.036377
		c0.1451416-0.0358276,0.2904663-0.0637817,0.4382935-0.0794067c0.8596802-0.0922241,1.7532959,0.1472168,2.4658203,0.7493286
		L181.9948425,55.8754272z M184.5195007,57.6356201c-0.0386353-0.0047607-0.0742188-0.0240479-0.1126099-0.0302124
		c-0.24823-0.0372314-0.4918823-0.100708-0.7279663-0.1948853c-0.0482788-0.0198364-0.0932617-0.0442505-0.140625-0.0664062
		c-0.2703247-0.1229248-0.5313721-0.2731323-0.7671509-0.4727173l5.0325317-3.9951782
		c0.7130737,1.3909912,0.3480225,3.0916748-0.8730469,4.0675049c-0.6714478,0.529541-1.4953613,0.7495117-2.3000488,0.6844482
		C184.5934753,57.6310425,184.5566101,57.6339722,184.5195007,57.6356201z"/>
	<path class="st5" d="M184.9787903,39.8535156c0.0003662-0.0029297,0.0023193-0.0049438,0.0026245-0.0078735
		c0.0001831-0.0012817,0.0009766-0.0024414,0.0011597-0.0037231c0.1160889-1.0101318-0.6087036-1.9232178-1.6188354-2.0392456
		c-1.0101929-0.1160889-1.9231567,0.6087036-2.0392456,1.6188965c-0.0003052,0.0025635-0.0006104,0.005249-0.0009766,0.0078125
		c-0.0289307,0.2514648-0.0054932,0.4968872,0.0616455,0.7254028c0.1890869,0.647583,0.7365112,1.1400146,1.4295654,1.2723999
		c0.0053101-0.0005493,0.0105591-0.0006714,0.0158081-0.0012817c0.0067749,0.0011597,0.0122681,0.0049438,0.0189819,0.0060425
		c0.0307007,0.005127,0.0547485,0.024353,0.0859985,0.0279541c0.0025635,0.0003662,0.005249,0.0006104,0.0078125,0.0009155
		C183.9493103,41.5764771,184.85672,40.8571167,184.9787903,39.8535156z"/>
</g>
</svg>
