<?xml version="1.0" encoding="utf-8"?>
<!-- Generator: Adobe Illustrator 26.3.1, SVG Export Plug-In . SVG Version: 6.00 Build 0)  -->
<svg version="1.1" id="Layer_1" xmlns="http://www.w3.org/2000/svg" xmlns:xlink="http://www.w3.org/1999/xlink" x="0px" y="0px"
	 viewBox="0 0 800 692" style="enable-background:new 0 0 800 692;" xml:space="preserve">
<style type="text/css">
	.st0{fill:#030303;}
	.st1{fill:#6898B8;}
	.st2{fill:#A2C9D2;}
	.st3{fill:#FFF5D1;}
	.st4{fill:#0C3555;}
	.st5{fill:#FFFFFF;}
	.st6{fill:#F8C37A;}
	.st7{fill:#FCE6AD;}
	.st8{fill:#FFF6D1;}
	.st9{fill:#0E476C;}
	.st10{fill:#195B7F;}
	.st11{fill:#D2E5EA;}
</style>
<g>
	<g>
		<path class="st1" d="M601.840271,84.5748367c-5.8858032,14.6099243-17.8626709,25.9719772-32.9168091,30.9002075
			c0,0,0-0.0001831,0,0c-0.0362549,0.0117874-0.0695801,0.0295639-0.105896,0.0413513
			c-1.0518799,1.615799-2.4257202,2.9973526-4.0355835,4.0583954c-2.6014404,4.7882767-11.0751953,7.8359604-15.9626465,9.4708481
			c-5.6292725,1.9048615-11.4841919,3.5253448-17.3363647,4.8393555c0.0664062,0.023941,0.1347046,0.0422821,0.201355,0.0658569
			c0.2720337,0.0963593,0.5487671,0.1768036,0.8220825,0.2688599c3.5691528,1.2013702,7.2490234,2.0463104,10.9916382,2.4833832
			c0.1157837,0.0132904,0.2293701,0.0095367,0.3449707,0.0220795c0.0020752,0.0196381,0.0048828,0.0389099,0.006958,0.0583801
			c1.3867798,0.154541,2.7612305,0.2164764,4.1328125,0.2634277c0.1929321,0.0020599,0.3809814-0.0215149,0.5734863-0.0215149
			c1.7625122,0.035553,3.5081177-0.0203857,5.2363892-0.1556702c24.9453735-1.9525757,45.8338013-21.302887,48.7974854-47.0920715
			c0.2967529-2.5870361,0.4071655-5.1920395,0.3304443-7.7949829c-0.2561646,0.7459717-0.604187,1.4434814-0.8913574,2.1737366
			c-0.0609741,0.1549149-0.1268311,0.3072205-0.1891479,0.4613876
			C601.840271,84.6034622,601.8399048,84.589241,601.840271,84.5748367z"/>
		<path class="st2" d="M514.0478516,199.5323792c0.0860596,0.0260162,0.1724854,0.0518341,0.258728,0.077652
			c0.0219116-1.0810699,0.0147705-2.162323,0.0291748-3.243576c-0.0852661-0.026001-0.173584-0.0516357-0.2585449-0.077652
			C514.0639038,197.3700562,514.0684204,198.4511261,514.0478516,199.5323792z"/>
		<path class="st2" d="M513.9544678,176.9371948c0.0858765,0.0132751,0.1715698,0.0286255,0.2574463,0.042099
			c-0.020752-0.7442932-0.0619507-1.488205-0.0862427-2.2324829l-0.243042,0.3313446
			C513.9022827,175.6980286,513.9372559,176.3171387,513.9544678,176.9371948z"/>
		<path class="st2" d="M555.5474854,167.3275146c0.0220947-0.0400391,0.0426636-0.0802612,0.0647583-0.1203003
			c-3.0551758-2.4556885-6.3702393-4.55159-9.8557129-6.3219452c0.0695801,1.2165375,0.1425781,2.4324951,0.2033691,3.6493988
			c2.868042,1.576889,5.6085205,3.3818512,8.1534424,5.4556732
			C554.5863647,169.1019745,555.0606689,168.2140045,555.5474854,167.3275146z"/>
		<path class="st2" d="M564.9533691,150.8718414c0.0123901-0.0203857,0.024353-0.0413513,0.0366821-0.0617371
			c-3.5111084-2.4555054-7.3369141-4.4271698-11.3743896-5.861496c-3.0100708-1.1138-6.1125488-1.9331207-9.2491455-2.6008759
			c0.1008911,1.0709686,0.1869507,2.1432343,0.2808838,3.2147522c2.678894,0.6206207,5.3209229,1.3961487,7.8991699,2.364212
			c3.8514404,1.3549805,7.4993896,3.2304688,10.8422852,5.5742798
			C563.914978,152.6304016,564.4282227,151.7433624,564.9533691,150.8718414z"/>
		<path class="st3" d="M224.1859131,204.7769928c0.0011292,0.0305023,0.003006,0.0595093,0.0041199,0.0899963
			c1.1383209,0.7858276,2.3402557,1.5374146,3.5064545,2.3095703
			C226.491745,206.3823242,225.3045959,205.5847168,224.1859131,204.7769928z"/>
		<path class="st3" d="M233.1693573,210.6910553c-1.3074493-0.8234253-2.6199646-1.6552734-3.9193726-2.4923706
			c1.2949219,0.8434601,2.5413818,1.7108612,3.8595123,2.5423279c0.0054169,0.0916748,0.0172119,0.1826172,0.0228271,0.274292
			c0.0198212,0.0125275,0.0394745,0.0252533,0.0593109,0.037796
			C233.1828308,210.934845,233.1779785,210.809494,233.1693573,210.6910553z"/>
		<path class="st3" d="M513.3273315,217.4291077l0.0198364-0.0031738
			c0.3380737-5.9619598,0.5872803-11.9267273,0.7006836-17.8935547c0.0205688-1.0812531,0.0160522-2.162323,0.0293579-3.243576
			c0.029541-2.4266815,0.0703735-4.8537598,0.0626831-7.2804565
			C514.1627197,198.4842529,513.8712158,207.9610748,513.3273315,217.4291077z"/>
		<path class="st4" d="M499.1708984,82.4998856c-0.0080261,0.0011292-0.0162659,0.0024338-0.0243225,0.0035553
			c-1.4771423,2.4753418-2.8442993,4.4833069-4.1930847,6.1782532c0.0028076-0.0003815,0.0059814-0.0005646,0.0087891-0.0007553
			C496.3161316,86.984314,497.6875916,84.9785995,499.1708984,82.4998856z"/>
		<path class="st5" d="M507.7627563,267.7993774c-0.1171265,0.7311707-0.234436,1.4930725-0.3809509,2.2261047
			c-0.0329285,0.001709-0.0664062,0.0033875-0.0993347,0.0050659c-3.8061829,22.9892273-9.6875,45.5874023-17.572113,67.5154114
			c-1.0548706,2.8128662-2.1686707,5.5101013-3.3114929,8.1478577
			c-24.177124,26.8139343-58.289093,40.4122009-93.4559631,41.7303162c-2.9698486,0-5.9587708,0-8.9675293,0
			c-5.0715332-0.1158142-10.1236267-0.5036621-15.147644-1.100708l-0.1313477,0.1715698
			c5.1924133,0.6342773,10.4156799,1.04422,15.659729,1.1637878c3.0282288,0.1173096,6.0173645,0.1173096,8.9675598,0
			c35.1028442-1.3112183,68.9212646-14.7888184,93.0742798-41.330719l0.352478-0.7227478
			c1.1428223-2.6377563,2.2566223-5.2158203,3.311676-8.1478577c7.8919067-21.9483948,13.7769775-44.5669861,17.5833435-67.5782776
			c0.1464844-0.7330627,0.3809204-1.4949341,0.3809204-2.2278137c2.7591858-16.6738281,4.5890503-33.4530029,5.5585938-50.2639771
			l-0.237793,0.0385437l-0.0198364,0.0031738C512.359436,234.2754517,510.5277405,251.0903625,507.7627563,267.7993774z"/>
		<path class="st4" d="M341.0896912,55.0423279c-2.3726196,1.47435-4.7824707,2.8893929-7.2273254,4.2464333
			c-3.708313,2.052681-7.4898071,3.9437027-11.3330383,5.6682091c3.8434143-1.7245064,7.6249084-3.6155281,11.3332214-5.6682091
			C336.3075867,57.9317207,338.7170715,56.5166779,341.0896912,55.0423279z"/>
		<path class="st4" d="M237.0657349,341.4728088c-8.4086761-23.3022461-14.6190948-47.3390503-18.5506439-71.7994385
			c3.9261169,24.4892273,10.1369171,48.5567017,18.5506439,71.8877563
			c22.975769,62.2741699,71.3008118,82.0270996,126.7473145,108.8700562
			c1.5372009,0.7278137,3.1960449,1.0799255,4.8543091,1.0849915c-1.6647949-0.0307007-3.3242188-0.414978-4.8544922-1.171814
			C308.3663635,423.5287476,260.0415039,403.7484741,237.0657349,341.4728088z"/>
		<path class="st4" d="M508.5184631,63.4631615c-0.6443787-0.3053474-1.6756897,0.3736382-2.3634644,1.6161766
			c0.0127258-0.0026245,0.0256348-0.0052414,0.0385437-0.0076752c-0.0978394,0.1657715-0.208252,0.3104019-0.2911377,0.4973145
			c-0.6540833,1.4752884-0.5760803,2.9054871,0.2075195,3.2538681c0.7676697,0.3466949,1.9387207-0.5686035,2.6087341-2.0420151
			c0.5075989-1.1164322,0.5678406-2.2409058,0.2319946-2.8463631
			C508.8462524,63.7168694,508.703125,63.5505371,508.5184631,63.4631615z"/>
		<path class="st4" d="M364.1021118,473.9493408h0.0007629c2.9206238,1.3486023,6.2846985,1.3486023,9.2051392,0h0.0007629
			c85.3915405-39.3766174,132.4280396-61.0666199,158.3639526-161.8773193
			c8.1798096-32.7981567,12.9506836-66.3104706,14.4282227-99.9466553l0.0134888-0.002243
			c0.1915894-4.4331512,0.3442383-8.8670654,0.4196777-13.3032227c2.0515137-5.1714478,4.3204956-10.2566528,6.8087769-15.2387695
			c5.4962158-11.2873993,11.7440796-22.2297821,18.1968384-32.9873199
			c3.3086548-5.5353699,6.6882324-11.0153503,10.0770264-16.483551c0.6188965-0.3923492,1.2127686-0.8174438,1.8165283-1.2318726
			c0.0032349-0.0052338,0.0064087-0.0102844,0.0095825-0.0155334c27.053772-18.7403564,33.793335-55.8639069,15.0529785-82.9177094
			C586.7012329,32.9182549,567.625,23.9559517,548.3604126,24.310133
			c-11.694397,0.006361-23.5050659,3.4188881-33.8459473,10.5820293c-7.8720703,5.452858-14.175293,12.6341515-18.571228,20.8325195
			c-6.4529114,0.9134254-12.8517456,1.3779984-19.1514282,1.378746c-0.008606,0-0.0057983,0-0.0144043,0
			c-62.203064,0-99.0242615-45.031353-99.370575-45.4631805l-0.0011292-0.0016842
			c-4.4007874-5.5525813-12.8281555-5.5508976-17.2259521,0.0050526
			c-0.3603516,0.454092-36.7450562,45.5005989-99.3088379,45.5005989c-12.7842102,0-25.9787292-1.8996315-39.2164612-5.6461334
			h-0.0007477c-5.8985291-1.6700592-12.022522,1.8094521-13.607254,7.7311821l-0.0001984,0.0016823
			c-10.796814,40.3471031-16.4981384,81.9329987-17.0948029,123.601593
			c-0.62323,41.554657,3.8353729,83.1949921,13.3956451,123.7746735
			c20.2960968,83.6694641,50.7693481,113.3621216,113.9730377,145.7423096l0.1911926-0.2499695
			C332.1257019,459.0682983,347.2264099,466.1614685,364.1021118,473.9493408z M218.6615906,62.072628
			c94.4522705,26.7273064,150.1332092-43.6077042,150.1332092-43.6077042s45.328064,57.118042,123.5211182,48.7684937
			c-0.9800415,3.3670654-1.6683655,6.8306656-2.042572,10.3618164c-0.2093506,1.975029-0.3320923,3.9672775-0.3424072,5.9757996
			c-30.8060913,2.5866699-61.7910461-3.9884186-88.9876099-19.0664749
			c-10.1168823-5.6120796-19.6491089-12.2189751-28.4559326-19.7222672c-2.1574402-1.7619247-5.256958-1.7619247-7.4144287,0
			c-8.7961426,7.5032921-18.3188171,14.1101875-28.4263611,19.7222672
			c-30.7770996,17.0609436-66.4047852,23.2564087-101.1341858,17.5829544
			c-0.7431641-0.0986023-1.4752808-0.0544434-2.166626,0.113945c-1.0367126,0.2516556-1.9813843,0.7839508-2.7333527,1.5254364
			c-0.7519531,0.741478-1.3110046,1.6940079-1.5765076,2.7857361
			c-13.2268829,59.9254913-14.8782196,121.8254547-4.8647919,182.369873
			c3.8557587,24.1339111,9.9784393,47.8492737,18.2866364,70.8317566
			c22.2724457,60.4884644,69.9235687,79.6239929,123.8461456,105.7067261
			c1.5899658,0.7431641,3.438324,0.6889038,4.9819031-0.1461182
			c53.8933716-26.0827332,101.6322632-45.1894531,123.8461609-105.5606079
			c8.28125-22.9909058,14.4031677-46.7045898,18.2866516-70.8317566
			c7.1352539-43.1214447,8.3135986-86.9291534,3.631958-130.2225342c1.8882446-0.3682098,3.7755127-0.7407227,5.6583252-1.1368103
			c0.2330933-0.0490265,0.4675293-0.0913086,0.7006836-0.1407013c1.6447754,0.8015289,3.3372803,1.493988,5.0472412,2.1383667
			c0.3556519,0.1343384,0.7072144,0.276535,1.0662842,0.4045105c1.225647,0.4351959,2.4803467,0.7828369,3.7332153,1.1360779
			c5.5736694,56.2100372,1.5177612,113.1596985-12.2474365,168.3507843
			c-24.1479492,93.8670349-64.0330811,113.8529053-152.3018799,154.5594482
			c-91.6390076-42.2880859-129.9710541-62.5682983-153.679306-160.3024902
			C196.274826,224.0722961,197.5233459,141.0692749,218.6615906,62.072628z M549.4785156,30.4107323l0.9832153,0.0160904
			c0.5651855,0.0003738,1.1481934-0.0134716,1.7220459,0.0525761l0.8288574,0.0952339
			c0.8447876,0.097105,1.6896973,0.1942101,2.5662842,0.2948704c0.87677,0.1008472,1.7376099,0.1996365,2.6141357,0.3004837
			l0.8609009,0.0987892c0.5700684,0.0978527,1.1328735,0.2595081,1.6907959,0.3234959l1.0073242,0.2288246l1.5701904,0.3904781
			l1.0336914,0.2802773l1.4353027,0.4394989l1.0422974,0.3459473l1.3662109,0.4799156l1.020813,0.3917885l1.3250732,0.5560608
			l1.0011597,0.4219131l1.317749,0.6198616l0.946167,0.4801025c0.4439697,0.2125435,0.8842163,0.4568977,1.3104248,0.6836624
			l0.8964233,0.4905777l1.3435669,0.8165092c0.0484619,0.0286255,0.092041,0.057251,0.1395874,0.0849419
			c0.1799927,0.0995369,0.3491211,0.1998253,0.4963989,0.302166c0.048645,0.0312462,0.100647,0.0576286,0.1489258,0.090744
			l1.6647949,1.1119385l0.390686,0.2548332c0.6733398,0.4649429,1.3270874,0.9600105,1.9649048,1.4532089l0.710083,0.565979
			c0.399231,0.3205032,0.8144531,0.6426888,1.1959229,0.9772263l0.7910767,0.7046204l1.0402832,0.9270821l0.8138428,0.7880669
			l0.942627,0.9319496l0.7923584,0.8339081c0.3037109,0.3094635,0.5894165,0.6331482,0.8753052,0.9566422l0.7709961,0.8799362
			l0.8237915,0.9828377l0.7336426,0.9242783l0.7721558,1.0092201l0.6980591,0.9523392l0.7190552,1.051693
			c0.2202148,0.3321037,0.4423218,0.648304,0.6466064,0.9787216l0.6797485,1.1117516l0.5970459,0.9892006
			c0.2288208,0.3975906,0.3833618,0.7384872,0.6668091,1.2232628c0.2834473,0.4847794,0.5332642,0.9817162,0.7970581,1.4966164
			s0.5117188,1.0277443,0.7577515,1.5568657l0.4885254,1.0896721l0.4952393,1.1712494l0.4494019,1.1499214
			c0.1491699,0.3886032,0.3001099,0.7611237,0.4333496,1.1480484l0.394043,1.208107
			c0.1350708,0.3708344,0.2400513,0.722023,0.3695068,1.140564c0.1296997,0.4187317,0.2572632,0.8531799,0.3587036,1.2363586
			c0.1013794,0.3831863,0.1885986,0.7484055,0.302124,1.1652603c0.1135864,0.4168625,0.2112427,0.8318558,0.3088989,1.2468414
			l0.2507324,1.1916428c0.0817871,0.4131165,0.1578979,0.8739471,0.2415771,1.2711639
			c0.0834351,0.3972092,0.1369629,0.774971,0.2009277,1.2021179c0.0639648,0.4273376,0.1420288,0.872261,0.1919556,1.2818298
			c0.0498047,0.4093704,0.0855103,0.8011627,0.133606,1.2266235c0.0479126,0.4254684,0.0922241,0.8827438,0.1262817,1.2904358
			c0.0338745,0.4075012,0.0518188,0.813324,0.0821533,1.2530136c0.0300903,0.4394989,0.1259155,0.8703918,0.0783691,1.2848206
			c-0.0126953,0.0411606-0.0175781,0.0843811-0.0147705,0.1276016c-0.2449341,0.7109833-0.5786743,1.3751907-0.8518677,2.0717621
			c-0.0001831,0.0140305-0.0001831,0.0276947-0.0001831,0.0417252c0.2871704-0.7302551,0.6351929-1.4277649,0.8913574-2.1737366
			c0.0767212,2.6029434-0.0336914,5.2079468-0.3304443,7.7949829
			c-2.9636841,25.7891846-23.8521118,45.1394958-48.7974854,47.0920715
			c-1.6655884,0.1582947-3.3513184,0.2260284-5.0505981,0.2254639c-0.2514648-0.0050507-0.5072021-0.0394745-0.7592773-0.0482788
			c-1.371582-0.0469513-2.7460327-0.1088867-4.1328125-0.2634277c-0.0020752-0.0194702-0.0048828-0.0387421-0.006958-0.0583801
			c-0.1156006-0.0125427-0.229187-0.0087891-0.3449707-0.0220795c-3.7426147-0.4370728-7.4224854-1.2820129-10.9916382-2.4833832
			c0.0003662,0.0029907,0.0009766,0.0063629,0.0011597,0.0093536c-0.2786255-0.0948639-0.5617065-0.174942-0.8388062-0.274292
			c0.005249-0.0013123,0.0103149-0.0026093,0.015564-0.0039215c-0.0666504-0.0235748-0.1349487-0.0419159-0.201355-0.0658569
			c5.8521729-1.3140106,11.7070923-2.934494,17.3363647-4.8393555c4.8874512-1.6348877,13.3612061-4.6825714,15.9626465-9.4708481
			c1.6098633-1.0610428,2.9837036-2.4425964,4.0355835-4.0583954c0.2800903-0.4344482,0.5325317-0.8842392,0.7619019-1.344696
			c0.036499-0.0757751,0.0692139-0.1530457,0.1043701-0.2295685c0.3270874-0.6872177,0.5848999-1.4023209,0.7957764-2.1329498
			c0.2018433-0.7424088,0.4014893-1.487442,0.4778442-2.2648468c0.1162109-0.9500961,0.116394-1.9061813,0.0357056-2.8542175
			c-0.0491943-0.5500793-0.1868896-1.0745239-0.2996826-1.6068192c-0.0782471-0.3792572-0.126709-0.7630005-0.2366943-1.1355133
			c-0.2213745-0.734375-0.5130615-1.4395523-0.848877-2.120224c-0.0469971-0.0965424-0.0814209-0.2011337-0.1304321-0.2961807
			c-2.050415-3.9210663-5.9361572-6.7964249-10.6624756-7.3498688c-0.3004761-0.0351791-0.6013184,0.006546-0.9025879-0.0087967
			c-0.7008667-0.0359192-1.4020996-0.0802612-2.0983276-0.0101013c-0.1358032,0.0031815-0.2718506-0.0110397-0.4076538-0.0039291
			c-0.8272095,0.1098251-1.6564331,0.2714844-2.4785767,0.5390396
			c10.6428833-6.0444717,18.9295654-18.7061234,12.5432739-27.7737656c-0.2138672-0.300293-0.4790039-0.6005936-0.7173462-0.9008865
			c-0.2696533-0.341835-0.5162354-0.6838531-0.8163452-1.0249405c-8.7243042-9.8717957-29.8597412-19.366024-46.7124634-20.8029556
			c-0.0830688-0.0095406-0.2228394-0.0108528-0.343689-0.014782c-0.2001953-0.0057983-0.4421387-0.0067329-0.7322998-0.0016823
			c-0.0862427,0.0016823-0.1592407,0.0014954-0.2510986,0.0041161c-0.0059814,0.0001869-0.010498,0.0001869-0.0164795,0.0003738
			c-0.0016479-0.0001869-0.0033569-0.0001869-0.0050659-0.0001869c-0.6484375,0.0160904-1.4245605,0.0488319-2.2130127,0.0873756
			l0.3945923-0.342392l0.880127-0.7708549l0.7380981-0.8035965l0.8904419-0.7212753l1.0253296-0.7704773l0.8989868-0.6557884
			l1.1386719-0.7734718l0.840271-0.5656052c0.5239258-0.3435173,1.0620117-0.6692581,1.5982666-0.9790993l0.8666382-0.5141525
			c0.6159058-0.3006706,1.1663818-0.5927315,1.7166138-0.8847961l0.8416138-0.4363174l1.3171387-0.6398849l0.9529419-0.4235954
			c0.4100952-0.1951447,0.8342896-0.3725166,1.274353-0.5480194l0.9832153-0.4037628l1.3164062-0.4946938l0.9598389-0.3420181
			l1.4245605-0.4499779l0.9029541-0.2677383c0.5214844-0.1822357,1.1031494-0.3253708,1.6689453-0.4703712l0.6651611-0.1657715
			c0.7165527-0.192152,1.5764771-0.3678398,2.3690796-0.5190182l0.6578369-0.1021557
			c0.593811-0.1094551,1.1878662-0.2187214,1.7940674-0.2944965l0.918335-0.1204929l1.6342773-0.1676426l0.9942627-0.0795174
			l1.529541-0.0987892l1.0047607-0.0297489L549.4785156,30.4107323z M549.5282593,30.4002552l0.9832153,0.0160904
			L549.5282593,30.4002552z M546.9533691,30.459753l1.0047607-0.0299358L546.9533691,30.459753z M544.4351807,30.5901623
			l0.9942627-0.0795193L544.4351807,30.5901623z M502.1676941,65.4628906
			c1.4764099-3.4319839,4.191803-5.5585709,5.9732056-4.7562828c1.0621643,0.4784164,1.5551758,1.9018784,1.4644165,3.6916847
			c0.0230103-0.0052414,0.0454712-0.0082397,0.0686646-0.0134735c-0.0604248,1.2163391-0.383728,2.5982666-1.0092163,3.9887924
			c-1.0011597,2.2259369-2.4899292,3.8795319-3.9214478,4.5542145c-0.4926147,0.2396774-0.9772034,0.3685913-1.4296265,0.3403397
			c-0.2598877-0.0117874-0.5107727-0.0656738-0.7476501-0.1689529c-1.7806396-0.7764664-1.9667969-3.9457626-0.5775757-7.1973877
			c0.0054321-0.0009308,0.0112305-0.0024261,0.0168457-0.0033646
			C502.0621643,65.7528992,502.105011,65.6088257,502.1676941,65.4628906z M549.5967407,88.1112213
			c-0.2207642-0.0084229-0.4359131,0.0164642-0.6591797-0.0091705c-0.0114136-0.0011215-0.0214844-0.0056076-0.0328979-0.0069199
			c-0.010498-0.0011215-0.0203857,0.0007477-0.0308838-0.0003738c-0.2125244-0.0245132-0.4063721-0.0944901-0.6132812-0.1337814
			c-0.3634033-0.0682907-0.7315674-0.1232986-1.0756836-0.2348099c-0.112793-0.0364838-0.2116089-0.0974808-0.3219604-0.1384506
			c-0.4264526-0.1579132-0.847229-0.3261185-1.2369385-0.5455856c-0.0449219-0.0252609-0.0817871-0.060997-0.1262817-0.0870056
			c-0.4389648-0.257637-0.8580322-0.542778-1.2410278-0.8703918c-0.0172119-0.0145874-0.0297852-0.0331116-0.046814-0.0478973
			c-0.4007568-0.348381-0.7710571-0.7281952-1.1005249-1.142807c-0.0110474-0.0140305-0.0184937-0.0304947-0.029541-0.0445328
			c-0.3283691-0.4183578-0.6211548-0.8640289-0.8677979-1.3375778c-0.0252686-0.0484619-0.0383301-0.1027222-0.0626831-0.151741
			c-0.2207642-0.4441757-0.4153442-0.9021988-0.5571899-1.3832321c-0.0346069-0.1165619-0.041687-0.2421112-0.0714722-0.3605423
			c-0.1051025-0.4224777-0.2035522-0.846817-0.2432251-1.2887497c-0.0203857-0.2224655,0.0057983-0.4533463,0.0029907-0.6795502
			c-0.0037231-0.3328476-0.0310059-0.6613998,0.0046997-1.0006104c0.0033569-0.0319977,0.006897-0.0641785,0.0106812-0.0961685
			c0.543335-4.7272873,4.815979-8.1192322,9.543396-7.5758896c4.7272949,0.5431519,8.1192627,4.8157806,7.5761108,9.543251
			c-0.5102539,4.4395218-4.3171387,7.6568985-8.6934204,7.5878601c-0.0108643,0.0009308-0.020813,0.0050507-0.0316772,0.0059891
			C549.6601562,88.1117859,549.6287231,88.1123428,549.5967407,88.1112213z M455.992218,134.6255341
			c-1.8556519-0.0825195-3.5053101-0.2078705-4.965271-0.3732758c-14.4428406-1.6283264-10.2181091-7.1779175-0.7229614-13.968544
			c4.8556519-3.4750137,11.0892639-7.2754059,16.9232483-11.047348
			c11.3315735-7.397583,20.6553345-13.9837036,25.5154724-18.9981842c1.1136169-1.1562805,1.9909363-2.2285538,2.6021729-3.2074661
			c1.4077454-2.3018951,3.051239-4.4513092,4.9037476-6.4134293c-0.0088196,0.0155258-0.0168457,0.0284348-0.0256348,0.0439682
			c0.0215149-0.0230179,0.0394592-0.0490189,0.0611572-0.0720367l0.0110474-0.0957947
			c0.0099182-0.0174026,0.0273132-0.0286255,0.0374146-0.0460281l0.0016785-0.0140305
			c0.2329407-0.3773804,0.517334-0.7005081,0.8221436-0.9974365c0.5023499-0.5117188,1.0698242-0.9536514,1.7430115-1.2271881
			c0.02771-0.0207672,0.0550232-0.0346146,0.0827026-0.0551987c-0.0370483,0.0149689-0.075592,0.0196457-0.1126404,0.035553
			c4.1601868-3.0749969,8.0812683-3.2783737,11.2000122-0.7240829c0.0666504,0.0533295,0.1379395,0.0892487,0.2039795,0.1450043
			c5.1877441,4.4432678,7.9839478,9.1387405,11.343689,13.0485764c0.001709,0.0084229,0.00354,0.0164642,0.0054321,0.0246964
			c4.1362305,4.80867,9.1420898,8.4206467,20.5487061,8.842186c-2.4259644,3.1659317-3.3743896,7.2217026-2.6038818,11.1351013
			c-1.2698364,0.7908707-2.3937988,1.4369278-3.0067139,1.8509827c-1.9469604,1.3508682-5.5452881,3.1225204-10.230835,5.0719223
			c0.0010986,0.0076675,0.0022583,0.0153427,0.0033569,0.0230103c-2.848999,1.1834106-6.1005859,2.4313736-9.6480103,3.6954269
			c-1.7830811,0.6353912-3.6364746,1.2730331-5.5514526,1.9086075c-0.0007935-0.0057983-0.0015259-0.0114136-0.0024414-0.0170212
			c-1.7897949,0.5947876-3.62677,1.1852798-5.5065613,1.7688446c0.0007324,0.0052414,0.0013123,0.0104828,0.0020447,0.0155334
			C491.7613525,130.5184937,470.3952332,135.3086395,455.992218,134.6255341z M558.3766479,97.4555817
			c5.8012085,0.6668243,9.9638062,5.9101334,9.2971802,11.7115555c-0.6209717,5.4025269-5.2208252,9.3310776-10.5360107,9.3136749
			c-0.0028076,0.0003738-0.0054321,0.0011215-0.0084229,0.001503c-0.0061646-0.0001907-0.012146-0.0001907-0.0181274-0.0001907
			c-0.3775635-0.0028076-0.7493286,0.0282516-1.1328735-0.0158997c-0.0054321-0.0007553-0.0106812-0.0013123-0.0161133-0.0018768
			c-5.8012085-0.6666336-9.9638672-5.9101257-9.2972412-11.7113647
			C547.3317261,100.9515533,552.5751953,96.7889404,558.3766479,97.4555817z M235.1608582,292.5913086
			c-0.3809357-1.7007446-0.7618713-3.3707886-1.1138-5.0696716c0-0.3521118,0-0.7330627-0.234436-1.0849915l-0.5274353-2.6665649
			c-0.2344513-1.1430054-0.4982605-2.2857971-0.7033234-3.4286194l-0.3517456-1.9335022
			c-0.2638092-1.3197937-0.4980621-2.6377258-0.7324982-3.9285278c-0.234436-1.2891235-0.3225555-1.7278748-0.4982452-2.6070557
			c-0.234436-1.3198242-0.439682-2.6377563-0.674118-3.9573669c-0.7033234-4.1598206-1.3186951-8.3519897-1.9046936-12.5422974
			c-0.1758728-1.3179321-0.3225555-2.6377411-0.4982452-3.9556732c-0.3712006-2.8927612-0.7231445-5.822937-1.0550537-8.7924194
			c-0.1758728-1.5237427-0.3223724-2.9301758-0.4980621-4.571228c-0.2638245-2.7840576-0.5276337-5.5679321-0.7622528-8.3517914
			l-0.3515625-4.5136261c-0.1549225-1.9353638-0.2815857-3.9743805-0.4020844-6.0220032
			c-0.0619202-1.0526276-0.1242218-2.1069489-0.1839142-3.1511536c0-0.9371948,0-1.8451843-0.1758728-2.9301758v0.1461182
			c0-2.7872314-0.2071228-5.5746613-0.3034821-8.3637695c-0.0011139-0.0304871-0.0029907-0.059494-0.0041199-0.0899963
			c-0.0037384-0.1122589-0.0113983-0.2245178-0.0147705-0.3367767c0-0.4217224,0-0.8513031,0-1.2653656
			c0-0.1156158,0-0.23349,0-0.3468781c0-3.868866-0.1464996-7.7667236-0.1758728-11.7225952v-1.4404907v-0.3468781
			c0-4.484436,0-8.9963531,0.2050629-13.4809723c0-1.1138,0-2.197113,0-3.3111115
			c0-3.3996277,0.2931824-6.799057,0.4690552-10.1986694l0.2638092-4.1614838
			c0.234436-3.3996124,0.4980621-6.8280487,0.8204346-10.2276611l0.2636261-3.2533112
			c0.439682-4.4541168,0.9085693-8.7907257,1.4653778-13.3041534c0-0.8213654,0.2050629-1.6122437,0.3225555-2.4319305
			c0.468689-3.6342392,0.9669342-7.2396698,1.5237427-10.8144073c0.2050629-1.4064407,0.4394989-2.9301834,0.6741333-4.1903076
			c0.4980621-3.1649933,1.0548706-6.3297958,1.6410522-9.4964752l0.703125-3.9556732
			c0.8382111-4.3059311,1.7069244-8.6664963,2.6579437-12.8618546c35.9109497,5.8246307,72.739624-0.6140594,104.5426025-18.2903824
			c0.0370483-0.0203934,0.0724182-0.044342,0.1092834-0.0647354c0.0510559-0.0271301,0.1034546-0.0527649,0.1543579-0.0815811
			c10.3101501-5.7958107,20.0447998-12.5593071,29.0830688-20.1883316c0.0705566,0.0596848,0.1450195,0.1143188,0.2155457,0.1740036
			c0.0024414-0.0020561,0.0048523-0.0037422,0.0071106-0.0057983c2.2382812,1.8981361,4.5222168,3.7397652,6.8456421,5.5284462
			c7.038147,5.3989716,14.454071,10.293148,22.1966553,14.6379967c26.3824768,14.66082,56.2218323,21.5687561,86.1272278,20.1853409
			c-2.178772,1.8100052-4.4447632,3.5425568-6.733551,5.1837997c-4.4894714,3.2308578-9.1043091,6.2860184-13.7258911,9.2594223
			l-3.6445312,2.3428726c-5.4012146,3.4331055-10.9101868,6.8214951-15.9727478,10.6810074
			c-3.5414429,2.7101517-7.7207031,6.3320389-8.6485596,10.8927994c-0.243042,1.1952057-0.2361145,2.4276276,0.0200195,3.6200256
			c1.7462158,8.2758331,13.348877,9.059967,20.0947876,9.3829041c2.7249451,0.121994,5.4541626,0.1068268,8.1774292-0.0454712
			l0.8902283,0.2638092c14.0948486,3.8323822,27.793396,1.837326,41.9080811-0.5459595
			c1.596344-0.266983,3.1863098-0.565979,4.7789001-0.8526154c0.0787964-0.0140228,0.1581116-0.0278778,0.2368774-0.042099
			c0.9431763,8.7997131,1.6685791,17.6177673,2.1190796,26.4498444c-0.0792847,0.1042175-0.1586304,0.2084351-0.237793,0.3126526
			c0.1439209,2.8822784,0.2421265,5.7660522,0.3336182,8.6502075l0.243042-0.3313446
			c0.024292,0.744278,0.0654907,1.4881897,0.0862427,2.2324829c0.0001831,0.0020447,0,0.0041046,0.0001831,0.0061646
			c-0.0858765-0.0136566-0.1713867-0.0295563-0.2574463-0.0432129c0.1116943,4.0209656,0.1757202,8.0432587,0.1852417,12.0661011
			c0.0076904,2.4266968-0.0331421,4.853775-0.0626831,7.2804565c0.0849609,0.0260162,0.1732788,0.051651,0.2585449,0.077652
			c-0.0144043,1.0812531-0.0072632,2.1625061-0.0291748,3.243576c-0.0862427-0.0258179-0.1726685-0.0516357-0.258728-0.077652
			c-0.1134033,5.9668274-0.3626099,11.9315948-0.7006836,17.8935547l0.237793-0.0385437
			c-0.9695435,16.8109741-2.799408,33.5901489-5.5585938,50.2639771c0,0.7328796-0.234436,1.494751-0.3809204,2.2278137
			c-3.806366,23.0112915-9.6914368,45.6298828-17.5833435,67.5782776c-1.0550537,2.9320374-2.1688538,5.5101013-3.311676,8.1478577
			l-0.352478,0.7227478l-0.2335205,0.4778748c-0.2931824,0.7330627-0.6153564,1.4371033-0.9379272,2.1104736
			c-0.3222046,0.673584-0.849823,1.7585754-1.2601318,2.6377563l-0.9964905,1.9931946l-1.3772583,2.6070557l-0.9963074,1.8180542
			l-1.5533142,2.6665344c-0.3223572,0.5272522-0.6155396,1.085022-0.9671021,1.6122742
			c-0.615387,1.0254822-1.2601318,2.0507812-1.9342651,2.9301758l-0.6445618,1.0254822
			c-0.8791809,1.3282471-1.7877197,2.618866-2.7254639,3.868866c-0.2638245,0.4099426-0.5566406,0.7618713-0.849823,1.1428223
			c-0.6447449,0.9081726-1.3186951,1.7873535-1.9634399,2.6377258l-1.1430054,1.4064331
			c-0.6153564,0.7330627-1.2015381,1.4949341-1.816925,2.1973267l-1.2601318,1.4659119l-1.7877197,2.0220032
			c-0.4395142,0.4982605-0.9083862,0.9676819-1.3478699,1.4354553c-0.4396973,0.4692383-1.2017517,1.2906189-1.8169556,1.9046631
			l-1.4067993,1.4081116l-1.8754883,1.8451843l-1.4066162,1.3196411l-1.9930115,1.8163757l-1.4066162,1.2312927l-2.197876,1.8756714
			l-1.2894897,1.083313l-2.9305725,2.2278137l-0.7618713,0.5867615l-3.6338501,2.7533569l-1.1430054,0.792572
			c-0.8789978,0.6155396-1.7290039,1.2601013-2.6375427,1.8451843l-1.4653931,1.0254822l-2.3735352,1.583252l-1.6412659,1.0255127
			l-2.315155,1.4949341l-1.6704407,1.0542908l-2.3735657,1.4081116l-1.6997986,1.0255127l-2.4324951,1.4064331l-1.6996155,0.9660034
			l-2.5496216,1.4369202l-1.6410828,0.9082031l-2.930542,1.4949341l-1.494751,0.7906799l-3.7216187,1.9643555l-0.5863647,0.29245
			c-1.4649963,0.7618713-2.9303589,1.5237427-4.4249268,2.2568054l-1.2894897,0.6445618l-3.2235718,1.6122437l-1.6118469,0.8196716
			l-2.9305725,1.4369507l-1.7877502,0.879364l-2.930542,1.40625l-1.7875671,0.879364l-3.1945496,1.5237427l-1.4943848,0.7023926
			l-4.9233398,2.374115l-0.9379578,0.4404297l-8.2054749,3.9556885l-4.2788086-1.7007446l-0.9083557-0.4387512l-1.0844421-0.6443787
			l-4.2786255-2.0509949l-2.5495911-1.2312927l-12.3084106-5.8620605l-0.4103088-0.2041321l-0.615387-0.2943115
			c-2.6669312-1.2889404-5.2749329-2.6070557-7.8537292-3.8961792h-0.2054443l-7.6194763-3.9573669l-0.5274353-0.2636108h-0.2050476
			c-2.3153687-1.2311401-4.6011963-2.4607544-6.8576355-3.7208862l-0.6739197-0.3809204l-1.2309265-0.704071l-0.9669495-0.5272522
			l-0.7328796-0.4099121l-1.3772278-0.8213806l-2.57901-1.5237427l-0.7033081-0.4099426l-0.9671021-0.5865479l-3.3700562-2.1106873
			l-1.5825195-0.994812l-3.7218018-2.4624329l-0.9963074-0.6735535c-1.5533142-1.0559998-3.0774231-2.1393127-4.5718079-3.2243042
			l-1.1138-0.8503723l-3.2527466-2.7840576l-0.6447449-0.4982605l-0.4690552-0.3809204l-0.3809509-0.3214417
			c-2.3735352-1.9046936-4.7181091-3.8978882-6.9747314-5.8620605l-0.4396667-0.3809204l-0.4101257-0.3809509l-0.2636414-0.2329407
			c-1.9050598-1.7890625-3.7805481-3.6632385-5.5974731-5.5696106l-0.7912598-0.8486938
			c-1.7583618-1.8758545-3.4579773-3.8093567-5.128418-5.86203l-0.4690552-0.5272522l-0.4982605-0.6445618
			c-1.1427917-1.4064331-2.2566223-2.9301758-3.3700562-4.3366089l-0.3809204-0.5289307
			c-1.2017517-1.6410828-2.344574-3.3401184-3.4875488-5.0985107l-0.9377747-1.4354248
			c-0.8791809-1.3774414-1.7289734-2.9318542-2.5787964-4.2498169l-0.8497925-1.4354248
			c-1.0256958-1.8756714-2.0807648-3.780365-2.9307556-5.86203c-0.0054321-0.0681152-0.0054321-0.1360474,0-0.2041321
			l-0.3221893-0.704071c-0.8791809-1.7873535-1.7585602-3.6342468-2.5789948-5.5101013l-0.7618713-1.7583618
			c-0.9379272-2.2261353-1.8463135-4.453949-2.6963043-6.7975464c-1.1719971-3.1665039-2.2858124-6.3893127-3.3702393-9.6136169
			c-0.3221893-1.0254822-0.6447449-2.0509949-0.9963074-3.0764771c-0.703125-2.2568054-1.4066315-4.4846191-2.0807495-6.7397461
			l-1.0548706-3.5474243l-1.8461304-6.6512451l-0.8791809-3.3417969c-0.7034912-2.6665649-1.3482361-5.3330994-1.9927979-8.028656
			c0-0.5272522-0.2638245-1.0561829-0.381134-1.6122437v-0.0340576v-0.3468933
			C235.4830475,294.0265503,235.3365479,293.2953796,235.1608582,292.5913086z M516.354248,132.3670349L516.354248,132.3670349
			c-1.4049683,0.2741089-2.8042603,0.5424042-4.1853027,0.7972412c-2.2552795,0.4163055-4.4690552,0.8058472-6.6098633,1.165451
			c-7.9871216,1.5780029-16.0966187,2.4564362-24.2364502,2.6251984c0.0209656-0.0039215,0.040802-0.008606,0.0617676-0.0125275
			c-0.0419312,0.0009308-0.0836487,0.0044861-0.1255493,0.0052338c3.750061-0.6982574,7.3762512-1.5041046,10.8641663-2.3269653
			c0.9031372-0.2189026,1.8423767-0.4181671,2.7211914-0.650177c11.8599243-2.9144592,23.5127258-6.6147461,34.8815002-11.0757828
			c3.8868408-1.4687424,7.6724854-3.1917496,11.3327026-5.1579895c1.4852295-0.7809601,2.8500977-1.771843,4.0527954-2.9419708
			c2.0603638,3.6377945,5.6526489,6.1513062,9.7761841,6.8407669c-5.3721924,2.5905991-13.7794189,5.1188889-23.0056763,7.3569794
			c0,0.0005646,0.0001831,0.0013123,0.0001831,0.0018768c-3.2226562,0.7809601-6.5390015,1.5271149-9.8692017,2.2272491
			C520.1222534,131.6192017,518.2319946,132.0007019,516.354248,132.3670349z M561.7999878,31.8267097l-1.0073242-0.2288246
			L561.7999878,31.8267097z M558.248291,31.1116104l0.8608398,0.0989761L558.248291,31.1116104z M552.2335815,30.4689198
			l0.8288574,0.0952358L552.2335815,30.4689198z M545.968689,164.694458
			c-0.0026245-0.0531464-0.0061646-0.1066437-0.0087891-0.15979c-0.060791-1.2169037-0.1337891-2.4328613-0.2033691-3.6493988
			c3.4854736,1.7703552,6.8005371,3.8662567,9.8557129,6.3219452c-0.0220947,0.0400391-0.0426636,0.0802612-0.0647583,0.1203003
			c0.0007324,0.0005646,0.0014648,0.0011292,0.0022583,0.0016937c-0.5102539,0.9265137-1.0045776,1.8549042-1.4989014,2.7831116
			C551.5266724,168.0557098,548.8105469,166.2627258,545.968689,164.694458z M552.5465698,147.9266968
			c-2.5782471-0.9680634-5.2202759-1.7435913-7.8991699-2.364212c-0.0939331-1.0715179-0.1799927-2.1437836-0.2808838-3.2147522
			c3.1365967,0.6677551,6.2390747,1.4870758,9.2491455,2.6008759c4.0374756,1.4343262,7.8632812,3.4059906,11.3743896,5.861496
			c-0.0123291,0.0203857-0.024292,0.0413513-0.0366821,0.0617371c0.0090332,0.0063629,0.0185547,0.0115967,0.0275269,0.0179596
			c-0.538269,0.890976-1.0627441,1.7999115-1.6011963,2.6908875
			C560.0440674,151.2097473,556.3991699,149.307312,552.5465698,147.9266968z"/>
		<path class="st2" d="M502.56604,73.0992126c0.2368774,0.1032791,0.4877625,0.1571655,0.7476501,0.1689529
			c0.4524231,0.0282516,0.9370117-0.1006622,1.4296265-0.3403397c1.4315186-0.6746826,2.9202881-2.3282776,3.9214478-4.5542145
			c0.6254883-1.3905258,0.9487915-2.7724533,1.0092163-3.9887924c-0.0231934,0.0052338-0.0456543,0.0082321-0.0686646,0.0134735
			c0.0907593-1.7898064-0.4022522-3.2132683-1.4644165-3.6916847c-1.7814026-0.8022881-4.4967957,1.3242989-5.9732056,4.7562828
			c-0.0626831,0.1459351-0.1055298,0.2900085-0.162384,0.4355698c-0.0056152,0.0009384-0.0114136,0.0024338-0.0168457,0.0033646
			C500.5992432,69.15345,500.7854004,72.3227463,502.56604,73.0992126z M508.7186584,66.7808304
			c-0.6700134,1.4734116-1.8410645,2.38871-2.6087341,2.0420151c-0.7835999-0.348381-0.8616028-1.7785797-0.2075195-3.2538681
			c0.0828857-0.1869125,0.1932983-0.331543,0.2911377-0.4973145c-0.0129089,0.0024338-0.0258179,0.0050507-0.0385437,0.0076752
			c0.6877747-1.2425385,1.7190857-1.921524,2.3634644-1.6161766c0.1846619,0.0873756,0.3277893,0.2537079,0.4321899,0.4713058
			C509.286499,64.5399246,509.2262573,65.6643982,508.7186584,66.7808304z"/>
		<path class="st2" d="M368.7070312,463.9716492c88.2687988-40.706543,128.1539307-60.6924133,152.3018799-154.5594482
			c13.7651978-55.1910858,17.821106-112.1407471,12.2474365-168.3507843
			c-1.2528687-0.353241-2.5075684-0.700882-3.7332153-1.1360779c-0.3590698-0.1279755-0.7106323-0.2701721-1.0662842-0.4045105
			c-1.7099609-0.6443787-3.4024658-1.3368378-5.0472412-2.1383667c-0.2331543,0.0493927-0.4675903,0.0916748-0.7006836,0.1407013
			c4.7721558,43.9325104,3.5842896,88.39151-3.6634521,132.1502075
			c-3.9260864,24.4892273-10.1369019,48.5567017-18.5506287,71.8877563
			c-22.9463806,62.2741699-71.3008423,82.0270996-126.7179565,108.8700562
			c-1.5372009,0.7278137-3.1958618,1.0799255-4.8543091,1.0849915c-0.0426636,0-0.0845642,0.0136719-0.1274109,0.0136719
			s-0.085144-0.0119934-0.1278076-0.0136719c-1.6582642-0.0050659-3.3171082-0.3571777-4.8543091-1.0849915
			c-55.4465027-26.8429565-103.7715454-46.5958862-126.7473145-108.8700562
			c-8.4137268-23.3310547-14.624527-47.3985291-18.5506439-71.8877563
			c-10.1365509-61.2928162-8.4655457-123.9597015,4.9233704-184.6249847
			c0.8318481-3.676712,3.3560181-6.5576859,6.5870514-7.9725418c1.2924957-0.5663528,2.6977997-0.8980789,4.1534424-0.9506531
			c0.7276306-0.0273209,1.467804,0.0134659,2.2126617,0.1307831c18.8290405,3.0577774,37.9288177,2.5050888,56.3172455-1.4880142
			c4.0864563-0.8877945,8.1373901-1.9454727,12.1428223-3.1700439c6.0078125-1.8382645,11.9125061-4.0542831,17.6776428-6.6409454
			c3.8432312-1.7245064,7.6247253-3.6155281,11.3330383-5.6682091c2.4448547-1.3570404,4.8547058-2.7720833,7.2273254-4.2464333
			c7.1176758-4.4234314,13.9002686-9.3705559,20.2910461-14.8024559c1.0632935-0.9166069,2.2541809-1.6019554,3.5085144-2.0594177
			c1.2545166-0.4591446,2.5728149-0.6870308,3.8911133-0.6870308c0.6591797,0,1.3183289,0.0561295,1.9694214,0.1717567
			c1.9533386,0.3435173,3.8353882,1.2006226,5.4302368,2.5746918c2.1303101,1.8111305,4.3040466,3.5680046,6.5193176,5.2685623
			c6.6456299,5.1054115,13.6641541,9.7107048,20.9988708,13.7803268
			c26.4556274,14.648098,56.6179199,20.9599342,86.5751343,18.3064766c0.3742065-3.5311508,1.0625305-6.994751,2.042572-10.3618164
			c-78.1930542,8.3495483-123.5211182-48.7684937-123.5211182-48.7684937S313.1138611,88.7999344,218.6615906,62.072628
			c-21.1382446,78.9966431-22.3867645,161.9996643-3.6338654,241.5965271
			C238.7359772,401.4033508,277.0680237,421.6835632,368.7070312,463.9716492z"/>
		<path class="st2" d="M525.6226196,90.6832886c-0.0018921-0.0082321-0.0037231-0.0162735-0.0054321-0.0246964
			c-3.3597412-3.9098358-6.1559448-8.6053085-11.343689-13.0485764c-0.06604-0.0557556-0.1373291-0.0916748-0.2039795-0.1450043
			c0.0567017,0.046402,0.1177368,0.0770874,0.1738281,0.1253586
			C519.4500122,82.0420532,522.2478638,86.7597961,525.6226196,90.6832886z"/>
		<path class="st2" d="M522.0126953,131.2212372c0,0.0001831,0,0.0001831,0,0.0003815
			c3.3302002-0.7001343,6.6465454-1.4462891,9.8692017-2.2272491c0-0.0005646-0.0001831-0.0013123-0.0001831-0.0018768
			C528.6592407,129.7742004,525.3427124,130.5207367,522.0126953,131.2212372z"/>
		<path class="st2" d="M520.6828003,121.28302c0.0009155,0.0061722,0.0014648,0.0125351,0.0024414,0.018898
			c3.5474243-1.2640533,6.7990112-2.5120163,9.6480103-3.6954269c-0.0010986-0.0076675-0.0022583-0.0153427-0.0033569-0.0230103
			C527.4818115,118.7683868,524.2305908,120.0174713,520.6828003,121.28302z"/>
		<path class="st2" d="M531.6843262,133.9508514c-0.005249,0.0013123-0.0103149,0.0026093-0.015564,0.0039215
			c0.2770996,0.09935,0.5601807,0.1794281,0.8388062,0.274292c-0.0001831-0.0029907-0.0007935-0.0063629-0.0011597-0.0093536
			C532.2330933,134.127655,531.9563599,134.0472107,531.6843262,133.9508514z"/>
		<path class="st1" d="M403.6982117,59.2887611c-7.3347168-4.069622-14.353241-8.6749153-20.9988708-13.7803268
			c-2.215271-1.7005577-4.3890076-3.4574318-6.5193176-5.2685623c-1.5948486-1.3740692-3.4768982-2.2311745-5.4302368-2.5746918
			c-0.6510925-0.1156273-1.3102417-0.1717567-1.9694214-0.1717567c-1.3182983,0-2.6365967,0.2278862-3.8911133,0.6870308
			c-1.2543335,0.4574623-2.4452209,1.1428108-3.5085144,2.0594177c-6.3907776,5.4319-13.1733704,10.3790245-20.2910461,14.8024559
			c-2.3726196,1.47435-4.7821045,2.8893929-7.2271423,4.2464333c-3.708313,2.052681-7.4898071,3.9437027-11.3332214,5.6682091
			c-5.7651367,2.5866623-11.6698303,4.802681-17.6776428,6.6409454c-4.0054321,1.2245712-8.056366,2.2822495-12.1428223,3.1700439
			c-18.3884277,3.993103-37.488205,4.5457916-56.3172455,1.4880142c-0.7448578-0.1173172-1.4850311-0.1581039-2.2126617-0.1307831
			c-1.4556427,0.0525742-2.8609467,0.3843002-4.1534424,0.9506531c-3.2310333,1.414856-5.7552032,4.2958298-6.5870514,7.9725418
			c-13.388916,60.6652832-15.0599213,123.3321686-4.9233704,184.6249847
			c3.9315491,24.4603882,10.1419678,48.4971924,18.5506439,71.7994385
			c22.975769,62.2756653,71.3006287,82.0559387,126.7471313,108.8715515
			c1.5302734,0.7568359,3.1896973,1.1411133,4.8544922,1.171814c0.0426636,0.0016785,0.0849609,0.0136719,0.1278076,0.0136719
			s0.0847473-0.0136719,0.1274109-0.0136719c1.6584473-0.0050659,3.3171082-0.3571777,4.8543091-1.0849915
			c55.4171143-26.8429565,103.7715759-46.5958862,126.7179565-108.8700562
			c8.4137268-23.3310547,14.6245422-47.3985291,18.5506287-71.8877563
			c7.2477417-43.7586975,8.4356079-88.2176971,3.6634521-132.1502075c-1.8828125,0.3960876-3.7700806,0.7686005-5.6583252,1.1368103
			c4.6816406,43.2933807,3.5032959,87.1010895-3.631958,130.2225342
			c-3.8834839,24.1271667-10.0054016,47.8408508-18.2866516,70.8317566
			c-22.2138977,60.3711548-69.9527893,79.4778748-123.8461609,105.5606079
			c-1.5435791,0.835022-3.3919373,0.8892822-4.9819031,0.1461182
			c-53.9225769-26.0827332-101.5737-45.2182617-123.8461456-105.7067261
			c-8.308197-22.9824829-14.4308777-46.6978455-18.2866364-70.8317566
			c-10.0134277-60.5444183-8.3620911-122.4443817,4.8647919-182.369873
			c0.2655029-1.0917282,0.8245544-2.0442581,1.5765076-2.7857361c0.7519684-0.7414856,1.69664-1.2737808,2.7333527-1.5254364
			c0.6913452-0.1683884,1.4234619-0.2125473,2.166626-0.113945c34.7294006,5.6734543,70.3570862-0.5220108,101.1341858-17.5829544
			c10.1075439-5.6120796,19.6302185-12.2189751,28.4263611-19.7222672c2.1574707-1.7619247,5.2569885-1.7619247,7.4144287,0
			c8.8068237,7.5032921,18.3390503,14.1101875,28.4559326,19.7222672
			c27.1965637,15.0780563,58.1815186,21.6531448,88.9876099,19.0664749c0.0103149-2.008522,0.1330566-4.0007706,0.3424072-5.9757996
			C460.3161316,80.2486954,430.1538391,73.9368591,403.6982117,59.2887611z"/>
		<path class="st1" d="M522.0126953,131.2212372c-1.890625,0.397583-3.7807007,0.7794647-5.6584473,1.1457977l0,0
			c1.8777466-0.366333,3.7680054-0.7478333,5.6584473-1.1454163
			C522.0126953,131.2214203,522.0126953,131.2214203,522.0126953,131.2212372z"/>
		<path class="st1" d="M515.1313477,123.1935043c0.0009155,0.0056076,0.0016479,0.0112228,0.0024414,0.0170212
			c1.914978-0.6355743,3.7683716-1.2732162,5.5514526-1.9086075c-0.0009766-0.0063629-0.0015259-0.0127258-0.0024414-0.018898
			C518.8999023,121.9189758,517.0461426,122.5573578,515.1313477,123.1935043z"/>
		<path class="st1" d="M507.28302,78.5172653c2.5943604,1.3491821,3.6035767,4.5461731,2.2542114,7.1405029
			c0.8222961-1.4391708,0.9208984-3.1808929,0.2664185-4.7035141c-1.1353149-2.6412964-4.1689758-3.8712997-6.8215027-2.8007126
			c-0.0276794,0.0205841-0.0549927,0.0344315-0.0827026,0.0551987c-0.6731873,0.2735367-1.2406616,0.7154694-1.7430115,1.2271881
			C502.7574463,77.8755112,505.2159424,77.4421844,507.28302,78.5172653z"/>
		<path class="st1" d="M499.1708984,82.4998856c0.3774109-0.6307144,0.7581482-1.2750854,1.1523743-1.9709167l0.0093384-0.0815735
			c-0.0101013,0.0174026-0.0274963,0.0286255-0.0374146,0.0460281l-0.0110474,0.0957947
			c-0.021698,0.0230179-0.0396423,0.0490189-0.0611572,0.0720367c-0.3676758,0.6488647-0.7231445,1.2503891-1.076416,1.842186
			C499.1546326,82.5023193,499.1628723,82.5010147,499.1708984,82.4998856z"/>
		<path class="st6" d="M235.6589203,295.1115723c0.1173096,0.5560608,0.381134,1.0849915,0.381134,1.6122437
			c0.6445618,2.6955566,1.2893066,5.3620911,1.9927979,8.028656l0.8791809,3.3417969l1.8461304,6.6512451l1.0548706,3.5474243
			c0.674118,2.255127,1.3776245,4.4829407,2.0807495,6.7397461c0.3515625,1.0254822,0.674118,2.0509949,0.9963074,3.0764771
			c1.0844269,3.2243042,2.1982422,6.447113,3.3702393,9.6136169c0.8499908,2.3435974,1.7583771,4.5714111,2.6963043,6.7975464
			l0.7618713,1.7583618c0.8204346,1.8758545,1.6998138,3.7227478,2.5789948,5.5101013l0.3221893,0.704071
			c-0.0054321,0.0680847-0.0054321,0.1360168,0,0.2041321c0.8499908,2.081665,1.9050598,3.9863586,2.9307556,5.86203
			l0.8497925,1.4354248c0.849823,1.3179626,1.6996155,2.8723755,2.5787964,4.2498169l0.9377747,1.4354248
			c1.1429749,1.7583923,2.2857971,3.457428,3.4875488,5.0985107l0.3809204,0.5289307
			c1.1134338,1.4064331,2.2272644,2.9301758,3.3700562,4.3366089l0.4982605,0.6445618l0.4690552,0.5272522
			c1.6704407,2.0526733,3.3700562,3.9861755,5.128418,5.86203l0.7912598,0.8486938
			c1.816925,1.9063721,3.6924133,3.7805481,5.5974731,5.5696106l0.2636414,0.2329407l0.4101257,0.3809509l0.4396667,0.3809204
			c2.2566223,1.9641724,4.6011963,3.9573669,6.9747314,5.8620605l0.3809509,0.3214417l0.4690552,0.3809204l0.6447449,0.4982605
			l3.2527466,2.7840576l1.1138,0.8503723c1.4943848,1.0849915,3.0184937,2.1683044,4.5718079,3.2243042l0.9963074,0.6735535
			l3.7218018,2.4624329l1.5825195,0.994812l3.3700562,2.1106873l0.9671021,0.5865479l0.7033081,0.4099426l2.57901,1.5237427
			l1.3772278,0.8213806l0.7328796,0.4099121l0.9669495,0.5272522l1.2309265,0.704071l0.6739197,0.3809204
			c2.2564392,1.2601318,4.5422668,2.4897461,6.8576355,3.7208862h0.2050476l0.5274353,0.2636108l7.6194763,3.9573669h0.2054443
			c2.5787964,1.2891235,5.1867981,2.6072388,7.8537292,3.8961792l0.615387,0.2943115l0.4103088,0.2041321l12.3084106,5.8620605
			l2.5495911,1.2312927l4.2786255,2.0509949l1.0844421,0.6443787l0.9083557,0.4387512l4.2788086,1.7007446l8.2054749-3.9556885
			l0.9379578-0.4404297l4.9233398-2.374115l1.4943848-0.7023926l3.1945496-1.5237427l1.7875671-0.879364l2.930542-1.40625
			l1.7877502-0.879364l2.9305725-1.4369507l1.6118469-0.8196716l3.2235718-1.6122437l1.2894897-0.6445618
			c1.4945679-0.7330627,2.9599304-1.4949341,4.4249268-2.2568054l0.5863647-0.29245l3.7216187-1.9643555l1.494751-0.7906799
			l2.930542-1.4949341l1.6410828-0.9082031l2.5496216-1.4369202l1.6996155-0.9660034l2.4324951-1.4064331l1.6997986-1.0255127
			l2.3735657-1.4081116l1.6704407-1.0542908l2.315155-1.4949341l1.6412659-1.0255127l2.3735352-1.583252l1.4653931-1.0254822
			c0.9085388-0.585083,1.7585449-1.2296448,2.6375427-1.8451843l1.1430054-0.792572l3.6338501-2.7533569l0.7618713-0.5867615
			l2.9305725-2.2278137l1.2894897-1.083313l2.197876-1.8756714l1.4066162-1.2312927l1.9930115-1.8163757l1.4066162-1.3196411
			l1.8754883-1.8451843l1.4067993-1.4081116c0.6152039-0.6140442,1.3772583-1.4354248,1.8169556-1.9046631
			c0.4394836-0.4677734,0.9083557-0.9371948,1.3478699-1.4354553l1.7877197-2.0220032l1.2601318-1.4659119
			c0.615387-0.7023926,1.2015686-1.4642639,1.816925-2.1973267l1.1430054-1.4064331
			c0.6447449-0.8503723,1.3186951-1.7295532,1.9634399-2.6377258c0.2931824-0.3809509,0.5859985-0.7328796,0.849823-1.1428223
			c0.9377441-1.25,1.846283-2.5406189,2.7254639-3.868866l0.6445618-1.0254822
			c0.6741333-0.8793945,1.3188782-1.9046936,1.9342651-2.9301758c0.3515625-0.5272522,0.6447449-1.085022,0.9671021-1.6122742
			l1.5533142-2.6665344l0.9963074-1.8180542l1.3772583-2.6070557l0.9964905-1.9931946
			c0.4103088-0.8791809,0.9379272-1.9641724,1.2601318-2.6377563c0.3225708-0.6733704,0.6447449-1.3774109,0.9379272-2.1104736
			l0.2335205-0.4778748c-24.1530151,26.5419006-57.9714355,40.0195007-93.0742798,41.330719
			c-2.9501953,0.1173096-5.9393311,0.1173096-8.9675598,0c-5.2440491-0.1195679-10.4673157-0.5295105-15.659729-1.1637878
			c-11.6320496-1.4206543-23.0919495-4.0924377-34.1600647-8.0383911h-0.4103088
			c-3.2529297-1.171814-6.4765015-2.4607544-9.6708679-3.8383789l-0.4103088-0.1767883l-1.084259-0.4982605
			c-9.0623779-4.0050659-17.6648865-8.8876343-25.7045898-14.5438843
			c-13.3872375-9.3774719-25.2133179-20.9077454-34.9580688-34.1914978
			c-2.432312-3.3111267-4.747467-6.7685547-6.9159698-10.3449707c-4.0310822-6.6733093-7.5386658-13.649353-10.4914856-20.8650818
			c-0.6840363-1.6412354-1.3287811-3.2822876-1.934433-4.9233704c-0.2929993-0.879364-0.6153717-1.7295532-0.9085541-2.5782166
			c-0.8498077-2.3163147-1.5237427-4.2210083-2.432312-7.0050659c-0.908371-2.7838745-1.816925-5.4216003-2.6667328-8.3517761
			c-5.1291809-17.0046387-9.162323-34.3206024-12.0739746-51.8423767l-0.0211487-0.1309662
			c0.1204987,2.0476227,0.2471619,4.0866394,0.4020844,6.0220032l0.3515625,4.5136261
			c0.2346191,2.7838593,0.4984283,5.5677338,0.7622528,8.3517914c0.1756897,1.6410522,0.3221893,3.0474854,0.4980621,4.571228
			c0.3319092,2.9694824,0.6838531,5.8996582,1.0550537,8.7924194c0.1756897,1.3179321,0.3223724,2.6377411,0.4982452,3.9556732
			c0.5859985,4.1903076,1.2013702,8.3824768,1.9046936,12.5422974c0.234436,1.3196106,0.439682,2.6375427,0.674118,3.9573669
			c0.1756897,0.8791809,0.2638092,1.3179321,0.4982452,2.6070557c0.234436,1.290802,0.468689,2.6087341,0.7324982,3.9285278
			l0.3517456,1.9335022c0.2050629,1.1428223,0.4688721,2.285614,0.7033234,3.4286194l0.5274353,2.6665649
			c0.234436,0.3519287,0.234436,0.7328796,0.234436,1.0849915c0.3519287,1.6988831,0.7328644,3.368927,1.1138,5.0696716
			c0.1756897,0.704071,0.3221893,1.4352417,0.4980621,2.1393127v0.3468933V295.1115723z"/>
		<path class="st7" d="M236.9484253,271.1393127c0.8498077,2.9301758,1.7583618,5.5679016,2.6667328,8.3517761
			c0.9085693,2.7840576,1.5825043,4.6887512,2.432312,7.0050659c0.2931824,0.8486633,0.6155548,1.6988525,0.9085541,2.5782166
			c0.6056519,1.6410828,1.2503967,3.282135,1.934433,4.9233704c2.9528198,7.2157288,6.4604034,14.1917725,10.4914856,20.8650818
			c2.1685028,3.576416,4.4836578,7.033844,6.9159698,10.3449707c9.744751,13.2837524,21.5708313,24.8140259,34.9580688,34.1914978
			c8.0397034,5.65625,16.6422119,10.5388184,25.7045898,14.5438843l1.084259,0.4982605l0.4103088,0.1767883
			c3.1943665,1.3776245,6.4179382,2.6665649,9.6708679,3.8383789h0.4103088
			c11.0681152,3.9459534,22.5280151,6.6177368,34.1600647,8.0383911l0.1313477-0.1715698
			c5.0240173,0.5970459,10.0761108,0.9848938,15.147644,1.100708c3.0087585,0,5.9976807,0,8.9675293,0
			c35.1668701-1.3181152,69.2788391-14.9163818,93.4559631-41.7303162c1.1428223-2.6377563,2.2566223-5.3349915,3.3114929-8.1478577
			c7.884613-21.928009,13.7659302-44.5261841,17.572113-67.5154114c-4.3414917,0.2619324-8.7181396,0.4267883-13.0985413,0.583374
			c-2.3230286,0.083252-4.6531982,0.1564331-6.9883728,0.2108765c-4.5538635,0.1070251-9.113678,0.1972046-13.720459,0.1972046
			c-1.194458,0-2.3823547-0.0153503-3.5740051-0.0220947c-6.6587219-0.0407715-13.2568054-0.2177734-19.813385-0.4795227
			c-1.30896-0.0527649-2.6280212-0.085144-3.9328613-0.1446533c3.3315125,5.6955261,5.1304932,12.5516663,5.2921448,20.6491699
			c-0.20224,11.2990112-4.5100403,20.2173462-12.9213562,26.7544556
			c-8.2090149,6.5372925-17.7105408,10.5406799-28.5045471,12.0099792v9.0474243h23.0318604
			c3.6479187,0.1019592,6.7651978-0.3298645,9.3501587-1.2924805c2.3808594-0.9115601,3.6222839-3.4454651,3.7244263-7.6018982
			h3.8009644v28.8089905h-45.3050842v-34.4347229c3.5985107-1.4182434,6.5371094-3.4692383,8.8176575-6.1563721
			c2.1786194-2.6325073,3.8503418-5.5984192,5.0169373-8.8941956c1.2670288-3.4456482,2.1020508-6.9659424,2.5084534-10.5644531
			c0.2024231-3.6495667,0.3044128-7.0950317,0.3044128-10.3399048c0-7.2617493-1.4889526-13.9520874-4.2902222-20.1439819
			c-5.7819824-0.5672913-11.5328674-1.1838074-17.2014465-1.923584c-7.3059082-0.9523621-14.4799194-2.0884399-21.5816956-3.3128052
			c-0.277832-0.0484619-0.5556641-0.0969238-0.834259-0.1437073c-0.491333,0.6956482-0.9656372,1.4141235-1.3957825,2.1913147
			c-4.15625,7.0439758-6.1834717,14.8193054-6.0815125,23.3327637c-0.1019592,6.8944702,0.9371948,13.8635864,3.1172791,20.9043579
			c1.2653503,3.2957764,2.9133301,6.2616882,4.9403992,8.8941956c2.2296753,2.6871338,5.0934143,4.7381287,8.5899658,6.1563721
			v34.4347229h-45.3050842v-28.8089905h3.7261047c0,4.1564331,1.3162537,6.6903381,3.952301,7.6018982
			c1.2159729,0.6598816,2.6087646,1.0374756,4.1802063,1.1394348c1.5695801,0.1019592,3.2175903,0.1530457,4.9403992,0.1530457
			h23.0317078v-9.0474243c-10.5404968-1.4692993-19.9144287-5.4726868-28.1234741-12.0099792
			c-8.6154175-6.5371094-13.025177-15.4554443-13.2276306-26.7544556
			c0.29599-14.7257385,5.9245605-25.4432373,16.7980652-32.2245178c-5.3518066-1.1650696-10.6213074-2.4191895-15.8284912-3.7337646
			c-4.2167053-1.0662842-8.4038086-2.1615753-12.518158-3.3247681c-3.9382629-1.1139984-7.8060303-2.290863-11.6468201-3.4914856
			c-13.6916504-4.2788086-26.7613525-9.0865326-39.0834351-14.3992615
			c-0.2175903-0.0935516-0.4469604-0.1803589-0.6641846-0.2739105c0.0014954-0.0084229,0.002594-0.0187073,0.0040894-0.0271301
			c-3.6242981-1.5679016-7.1861267-3.1784668-10.682312-4.8298187l-0.0084229,0.0136566L247.45224,259.2314758l-2.7084656,4.4352112
			l-0.0379791-0.1410522l-6.2972412-23.2852325c0.006546,0.1002808,0.0037384,0.2058105,0.0104828,0.3060913l-1.6171112-5.9812164
			c-0.4681244-1.8493042-0.8878021-3.7094574-1.2726593-5.576355c-1.2215881-5.9252777-2.0234985-11.9315796-2.3969421-17.9736176
			c-0.0056152-0.0916748-0.0174103-0.1826172-0.0228271-0.274292c-1.3181305-0.8314667-2.5645905-1.6988678-3.8595123-2.5423279
			c-0.5278168-0.3384552-1.0342865-0.6802979-1.5534973-1.0221252c-1.1661987-0.7721558-2.3681335-1.5237427-3.5064545-2.3095703
			c0.0963593,2.7891083,0.3034821,5.5765381,0.3034821,8.3637695v-0.1461182
			c0.1758728,1.0849915,0.1758728,1.992981,0.1758728,2.9301758c0.0596924,1.0442047,0.121994,2.098526,0.1839142,3.1511536
			l0.0211487,0.1309662C227.7861023,236.8187103,231.8192444,254.1346741,236.9484253,271.1393127z"/>
		<path class="st8" d="M415.4937744,265.0289612c-4.0542908-7.1460876-10.6935425-10.8194427-19.9161072-11.0235748
			c-8.1280212,0.1820526-14.1906433,3.1376801-18.2144165,8.8322601c0.278595,0.0467834,0.556427,0.0952454,0.834259,0.1437073
			c7.1017761,1.2243652,14.2757874,2.3604431,21.5816956,3.3128052c5.6685791,0.7397766,11.4194641,1.3562927,17.2014465,1.923584
			C416.4975586,267.1495667,416.0601196,266.0645752,415.4937744,265.0289612z"/>
		<path class="st8" d="M229.2499847,208.1986847c1.299408,0.8370972,2.6119232,1.6689453,3.9193726,2.4923706
			c0.0074921,0.0046844,0.0147858,0.0095367,0.0222778,0.0142212c-2.2132111-29.8530121,1.4189606-70.6343689,7.9182739-112.879982
			c3.9150848,0.425087,7.7461548,0.7261353,11.4930267,0.9098663c3.7470703,0.1837311,7.4095459,0.2516479,10.9867249,0.2159119
			c2.384613-0.0237579,4.731781-0.0952301,7.0405884-0.2091751c6.9264526-0.3401489,13.5101624-1.0713348,19.7447205-2.103569
			c6.2347412-1.0324249,12.1203613-2.3673859,17.651062-3.9148941c1.8435059-0.5171432,3.6478882-1.057869,5.412262-1.6172943
			c3.5290833-1.1224136,6.8993225-2.3265991,10.1092224-3.5867157c16.0494995-6.3026733,28.0877075-14.0183182,35.8912964-19.912735
			c1.5604248-1.1804199,2.9520874-2.2858047,4.1719666-3.294281c4.2705688-3.5270309,6.4443054-5.8450203,6.4443054-5.8450203
			l-46.2293396,75.7031097c0.7805786,1.4822083,1.4580688,3.0476837,2.003479,4.7184906
			c1.2617798,3.6359253,2.1886902,7.6426849,2.7821655,12.0200806h0.4456787l6.5661011-27.4925461h32.1659546l-23.261261,70.8996811
			c1.5577698,3.9319153,3.7090759,7.4965515,6.4555054,10.6834412c2.374115,3.4897919,5.4148865,5.2311401,9.1256409,5.2311401
			c2.9676208,0,5.6019897-1.2243805,7.9029541-3.6733398c2.1512756-2.1495972,3.5236511-4.6359863,4.1171265-7.4555817h6.5679932
			c-0.4456787,7.421524-1.9677429,14.6902008-4.5645142,21.815918c-1.3349609,3.3365631-3.2261658,6.0848846-5.6751404,8.2344818
			c-2.3757935,2.1529694-5.4182434,3.3025055-9.1273193,3.4521942c-4.8230591-0.1496887-8.8296509-2.9692841-12.0200806-8.4589996
			c-3.1904297-5.4930878-5.5645447-12.503006-7.122345-21.0368347h-0.4454956
			c-3.783905,7.9420319-8.7924194,14.8022614-15.025116,20.5913391c-6.3825378,5.7855225-13.9878235,8.7548065-22.8176575,8.9044952
			c-12.9785767-0.2363129-23.4528503-3.9216309-31.5030212-10.9418335l-4.3095093,7.0576172
			c3.4961853,1.6513519,7.0580139,3.2619171,10.682312,4.8298187c-0.0014954,0.0084229-0.002594,0.0187073-0.0040894,0.0271301
			c0.2172241,0.0935516,0.4465942,0.1803589,0.6641846,0.2739105c12.3220825,5.3127289,25.3917847,10.1204529,39.0834351,14.3992615
			c3.8407898,1.2006226,7.7085571,2.3774872,11.6468201,3.4914856c4.1143494,1.1631927,8.3014526,2.2584839,12.518158,3.3247681
			c5.2071838,1.3145752,10.4766846,2.5686951,15.8284912,3.7337646c0.3154602-0.1964417,0.5897522-0.4243164,0.9141846-0.6148071
			c11.1987305-6.435318,23.9178162-9.6528778,38.1572876-9.6528778c14.3414307,0,27.1116028,3.2175598,38.3120117,9.6528778
			c5.3085938,3.1384277,9.3625183,7.2286377,12.2651672,12.190155c1.3048401,0.0595093,2.6239014,0.0918884,3.9328613,0.1446533
			c6.5565796,0.2617493,13.1546631,0.4387512,19.813385,0.4795227c1.1916504,0.0067444,2.3795471,0.0220947,3.5740051,0.0220947
			c4.606781,0,9.1665955-0.0901794,13.720459-0.1972046c2.3351746-0.0544434,4.6653442-0.1276245,6.9883728-0.2108765
			c4.3804016-0.1565857,8.7570496-0.3214417,13.0985413-0.583374c0.0329285-0.0016785,0.0664062-0.0033569,0.0993347-0.0050659
			c0.1465149-0.7330322,0.2638245-1.4949341,0.3809509-2.2261047c2.7649841-16.7090149,4.5966797-33.5239258,5.5645752-50.3702698
			c0.5438843-9.4680328,0.8353882-18.9448547,0.812561-28.4207611c-0.0095215-4.0228424-0.0735474-8.0451355-0.1852417-12.0661011
			c0-0.0016937-0.0001831-0.0033722-0.0001831-0.0050507c-0.0172119-0.6200562-0.0521851-1.2391663-0.0718384-1.8590393
			c-0.0914917-2.8841553-0.1896973-5.7679291-0.3336182-8.6502075c-0.4454956-8.9222717-1.170105-17.8310547-2.1181641-26.7203979
			c-1.5925903,0.2866364-3.1825562,0.5856323-4.7789001,0.8526154c-14.1146851,2.3832855-27.8132324,4.3783417-41.9080811,0.5459595
			l-0.8902283-0.2638092c-2.7232666,0.152298-5.4524841,0.1674652-8.1774292,0.0454712
			c-6.7459106-0.322937-18.3485718-1.1070709-20.0947876-9.3829041c-0.256134-1.1923981-0.2630615-2.4248199-0.0200195-3.6200256
			c0.9278564-4.5607605,5.1071167-8.1826477,8.6485596-10.8927994c5.062561-3.8595123,10.5715332-7.2479019,15.9727478-10.6810074
			l3.6445312-2.3428726c4.621582-2.9734039,9.2364197-6.0285645,13.7258911-9.2594223
			c2.2887878-1.641243,4.5547791-3.3737946,6.733551-5.1837997c-29.9053955,1.3834152-59.744751-5.5245209-86.1272278-20.1853409
			c-7.7425842-4.3448486-15.1585083-9.2390251-22.1966553-14.6379967c-2.3271484-1.7851257-4.6107178-3.628067-6.8527527-5.5226479
			c-0.0705261-0.0596848-0.144989-0.1143188-0.2155457-0.1740036c-9.038269,7.6290245-18.7729187,14.3925209-29.0830688,20.1883316
			c-0.0509033,0.0288162-0.103302,0.054451-0.1543579,0.0815811c-0.0368652,0.0203934-0.0722351,0.044342-0.1092834,0.0647354
			C307.744812,87.0159378,270.9161377,93.454628,235.005188,87.6299973
			c-0.9510193,4.1953583-1.8197327,8.5559235-2.6579437,12.8618546l-0.703125,3.9556732
			c-0.5861816,3.1666794-1.1429901,6.3314819-1.6410522,9.4964752c-0.2346344,1.2601242-0.4690704,2.7838669-0.6741333,4.1903076
			c-0.5568085,3.5747375-1.0550537,7.1801682-1.5237427,10.8144073c-0.1174927,0.8196869-0.3225555,1.6105652-0.3225555,2.4319305
			c-0.5568085,4.5134277-1.0256958,8.8500366-1.4653778,13.3041534l-0.2636261,3.2533112
			c-0.3223724,3.3996124-0.5859985,6.8280487-0.8204346,10.2276611l-0.2638092,4.1614838
			c-0.1758728,3.3996124-0.4690552,6.7990417-0.4690552,10.1986694c0,1.1139984,0,2.1973114,0,3.3111115
			c-0.2050629,4.4846191-0.2050629,8.9965363-0.2050629,13.4809723v0.3468781v1.4404907
			c0.0293732,3.9558716,0.1758728,7.8537292,0.1758728,11.7225952c0,0.1133881,0,0.2312622,0,0.3468781
			c0,0.4140625,0,0.8436432,0,1.2653656c0.0033722,0.1122589,0.0110321,0.2245178,0.0147705,0.3367767
			c1.1186829,0.807724,2.3058319,1.6053314,3.5105743,2.3995667
			C228.2156982,207.5183868,228.722168,207.8602295,229.2499847,208.1986847z"/>
		<path class="st8" d="M509.6268311,124.9778824c-0.0007324-0.0050507-0.0013123-0.0102921-0.0020447-0.0155334
			c-17.87146,5.5471573-39.2535095,10.3429184-53.6645508,9.6594467c-1.8421936-0.0817719-3.4817505-0.2058105-4.9332886-0.3695374
			c1.4599609,0.1654053,3.1096191,0.2907562,4.965271,0.3732758
			C470.3952332,135.3086395,491.7613525,130.5184937,509.6268311,124.9778824z"/>
		<path class="st8" d="M492.1230164,134.6206665c-3.487915,0.8228607-7.1141052,1.6287079-10.8641663,2.3269653
			c0.0419006-0.0007477,0.0836182-0.004303,0.1255493-0.0052338
			C485.0857849,136.2325439,488.6642761,135.4586945,492.1230164,134.6206665z"/>
		<path class="st8" d="M477.2955017,111.2854919c1.0095825-0.5622406,2.0182495-1.1244736,3.0188599-1.6756744
			c1.8681946-1.0299911,3.573822-1.9501495,5.147522-2.8005219c-1.5635986,0.842514-3.2568665,1.7531357-5.111969,2.7722702
			C479.3371277,110.1424942,478.316864,110.7138977,477.2955017,111.2854919z"/>
		<path class="st8" d="M458.3235168,116.1972504c-3.4619446,2.785553-6.7307739,5.7830887-9.631958,9.1589432
			c1.3615417-0.4825287,2.7189636-1.003418,4.0716858-1.556488c-1.34021,0.5433426-2.6856384,1.0554352-4.0361328,1.5282364
			C451.6183777,121.9636917,454.8746643,118.974762,458.3235168,116.1972504z"/>
		<path class="st8" d="M490.1768188,93.6248856c0.0276794-0.0233841,0.0538635-0.048645,0.0815735-0.0722198
			C490.2308655,93.5762405,490.2043152,93.6015015,490.1768188,93.6248856z"/>
		<path class="st8" d="M494.9622803,88.6809387c-0.0028076,0.0001907-0.0059814,0.0003738-0.0087891,0.0007553
			c-1.158905,1.4561996-2.3082581,2.6983566-3.5119019,3.8204041
			C492.6480408,91.3798676,493.8005676,90.1367722,494.9622803,88.6809387z"/>
		<path class="st8" d="M467.1916809,109.2646179c11.4179993-7.4043121,20.716156-14.0063477,25.5510254-19.0264359
			c-4.8601379,5.0144806-14.1838989,11.6006012-25.5154724,18.9981842
			c-5.8339844,3.7719421-12.0675964,7.5723343-16.9232483,11.047348
			C455.1534729,116.8154297,461.3739929,113.0243988,467.1916809,109.2646179z"/>
		<path class="st8" d="M289.8793335,211.1219482c1.6309509,8.9795227,6.1954651,13.4658203,13.690155,13.4658203
			c4.5253906,0,8.1613159-1.9626923,10.907959-5.8979797c2.7430725-3.7822266,4.7108154-8.3467407,5.8977966-13.6901398
			c2.0034485-11.5746002,2.9301758-20.7748871,2.7823486-27.6014404c0-3.3399353-0.0748291-7.6799164-0.2211304-13.0235138
			c-0.1496887-5.1188812-0.8554382-10.3500214-2.1155701-15.6900635c-0.4566956-2.3484802-1.0906067-4.5194092-1.848175-6.5670319
			l-19.578186,32.0596771l-4.5779724,7.4963684l-1.2898865,2.1121674l-5.7241516,9.374115
			C288.2250061,200.5150299,288.913147,206.5233917,289.8793335,211.1219482z"/>
		<path class="st5" d="M293.5266724,183.7858124l1.2898865-2.1121674l4.5779724-7.4963684l19.578186-32.0596771
			c-0.9661865-2.6104279-2.1503296-5.0032501-3.6058044-7.1231079c-2.7449341-3.4862366-6.455719-5.3059845-11.1290894-5.455658
			c-3.7839355,0.1496735-6.828064,1.6700592-9.1273499,4.5644989c-1.0389709,1.3366394-2.0406799,3.0033417-3.0050049,5.0068054
			c-0.8894653,2.0032959-1.6326294,4.1188354-2.2261353,6.3466492c-1.8552856,9.720993-2.7090149,17.6968994-2.5595398,23.9280853
			c-0.0714722,9.1035614,0.0935669,17.0063171,0.4827271,23.7750549L293.5266724,183.7858124z"/>
		<path class="st5" d="M264.5040283,215.4621277c-8.4590149-10.9079742-12.6884155-24.186676-12.6884155-39.8460541
			c0.147995-14.3193665,4.7856445-27.0062714,13.9129944-38.063736
			c8.6051025-11.1291046,20.1439819-16.8431549,34.6130371-17.1391525
			c9.1275024,0.1496811,15.8773499,3.1156006,20.2564087,8.9044876c1.2427368,1.483902,2.3092041,3.1088715,3.2276917,4.852829
			l46.2293396-75.7031097c0,0-2.1737366,2.3179893-6.4443054,5.8450203
			c-1.2198792,1.0084763-2.6115417,2.1138611-4.1719666,3.294281c-7.8035889,5.8944168-19.8417969,13.6100616-35.8912964,19.912735
			c-3.2098999,1.2601166-6.5801392,2.4643021-10.1092224,3.5867157c-1.7643738,0.5594254-3.5687561,1.1001511-5.412262,1.6172943
			c-5.5307007,1.5475082-11.4163208,2.8824692-17.651062,3.9148941c-6.2345581,1.0322342-12.8182678,1.7634201-19.7447205,2.103569
			c-2.3088074,0.113945-4.6559753,0.1854172-7.0405884,0.2091751c-3.577179,0.0357361-7.2396545-0.0321808-10.9867249-0.2159119
			c-3.7468719-0.1837311-7.5779419-0.4847794-11.4930267-0.9098663
			c-6.4993134,42.2456131-10.131485,83.0269699-7.9182739,112.879982c-0.0074921-0.0046844-0.0147858-0.0095367-0.0222778-0.0142212
			c0.0086212,0.1184387,0.0134735,0.2437897,0.0222778,0.3620453c0.002243,0.030304,0.0033569,0.0626678,0.0056,0.0929871
			c0.3577423,5.9975128,1.1388855,11.9594574,2.3320312,17.8428345c0.3848572,1.8668976,0.8045349,3.7270508,1.2726593,5.576355
			l1.6171112,5.9812164c-0.0067444-0.1002808-0.0039368-0.2058105-0.0104828-0.3060913l6.2972412,23.2852325l0.0379791,0.1410522
			l2.7084656-4.4352112l18.6262207-30.4975739l0.0084229-0.0136566l4.3095093-7.0576172
			C268.2746582,219.8131409,266.2833557,217.7834778,264.5040283,215.4621277z"/>
		<path class="st4" d="M371.5558167,261.84021c-0.2705383-0.0510559-0.5322876-0.1105652-0.8026428-0.1614685
			c-4.6629333-0.874115-9.2859802-1.7959595-13.848999-2.7840576c-0.1347046-0.0297241-0.2634277-0.0645447-0.3979797-0.0942993
			c-10.8735046,6.7812805-16.5020752,17.4987793-16.7980652,32.2245178
			c0.2024536,11.2990112,4.6122131,20.2173462,13.2276306,26.7544556
			c8.2090454,6.5372925,17.5829773,10.5406799,28.1234741,12.0099792v9.0474243h-23.0317078
			c-1.7228088,0-3.3708191-0.0510864-4.9403992-0.1530457c-1.5714417-0.1019592-2.9642334-0.4795532-4.1802063-1.1394348
			c-2.6360474-0.9115601-3.952301-3.4454651-3.952301-7.6018982h-3.7261047v28.8089905h45.3050842v-34.4347229
			c-3.4965515-1.4182434-6.3602905-3.4692383-8.5899658-6.1563721c-2.0270691-2.6325073-3.6750488-5.5984192-4.9403992-8.8941956
			c-2.1800842-7.0407715-3.2192383-14.0098877-3.1172791-20.9043579
			c-0.1019592-8.5134583,1.9252625-16.2887878,6.0815125-23.3327637c0.4301453-0.7771912,0.9044495-1.4956665,1.3957825-2.1913147
			C375.4239502,262.509491,373.4726868,262.1957092,371.5558167,261.84021z"/>
		<path class="st4" d="M444.1235046,270.2618103c-6.724762-0.3384705-13.3913269-0.7890015-19.9899902-1.3536682
			c-2.0255737-0.1734619-4.0352173-0.3725281-6.0478516-0.5663757c-0.3719482-0.0364685-0.7336121-0.0875549-1.105011-0.1240234
			c2.8012695,6.1918945,4.2902222,12.8822327,4.2902222,20.1439819c0,3.244873-0.1019897,6.6903381-0.3044128,10.3399048
			c-0.4064026,3.5985107-1.2414246,7.1188049-2.5084534,10.5644531c-1.1665955,3.2957764-2.8383179,6.2616882-5.0169373,8.8941956
			c-2.2805481,2.6871338-5.2191467,4.7381287-8.8176575,6.1563721v34.4347229h45.3050842v-28.8089905h-3.8009644
			c-0.1021423,4.1564331-1.3435669,6.6903381-3.7244263,7.6018982c-2.5849609,0.962616-5.70224,1.3944397-9.3501587,1.2924805
			h-23.0318604v-9.0474243c10.7940063-1.4692993,20.2955322-5.4726868,28.5045471-12.0099792
			c8.4113159-6.5371094,12.7191162-15.4554443,12.9213562-26.7544556
			c-0.1616516-8.0975037-1.9606323-14.9536438-5.2921448-20.6491699c-0.0211182-0.0009155-0.0426331-0.0009155-0.0639648-0.0016785
			C445.4317017,270.3433838,444.7815552,270.2941589,444.1235046,270.2618103z"/>
		<path class="st9" d="M433.889679,258.1855774c-11.2004089-6.435318-23.9705811-9.6528778-38.3120117-9.6528778
			c-14.2394714,0-26.9585571,3.2175598-38.1572876,9.6528778c-0.3244324,0.1904907-0.5987244,0.4183655-0.9141846,0.6148071
			c0.134552,0.0297546,0.2632751,0.0645752,0.3979797,0.0942993c4.5630188,0.9880981,9.1860657,1.9099426,13.848999,2.7840576
			c0.2703552,0.0509033,0.5321045,0.1104126,0.8026428,0.1614685c1.9168701,0.3554993,3.8681335,0.669281,5.8074341,0.9974365
			c4.0237732-5.6945801,10.0863953-8.6502075,18.2144165-8.8322601c9.2225647,0.2041321,15.8618164,3.8774872,19.9161072,11.0235748
			c0.5663452,1.035614,1.0037842,2.1206055,1.4868774,3.1887817c0.3713989,0.0364685,0.7330627,0.0875549,1.105011,0.1240234
			c2.0126343,0.1938477,4.0222778,0.3929138,6.0478516,0.5663757c6.5986633,0.5646667,13.2652283,1.0151978,19.9899902,1.3536682
			c0.6580505,0.0323486,1.308197,0.0815735,1.9673767,0.1122437c0.0213318,0.0007629,0.0428467,0.0007629,0.0639648,0.0016785
			C443.2521973,265.4142151,439.1982727,261.3240051,433.889679,258.1855774z"/>
		<path class="st9" d="M318.9727173,142.1175995c0.7575684,2.0476227,1.3914795,4.2185516,1.848175,6.5670319
			c1.2601318,5.3400421,1.9658813,10.5711823,2.1155701,15.6900635c0.1463013,5.3435974,0.2211304,9.6835785,0.2211304,13.0235138
			c0.1478271,6.8265533-0.7789001,16.0268402-2.7823486,27.6014404c-1.1869812,5.343399-3.1547241,9.9079132-5.8977966,13.6901398
			c-2.7466431,3.9352875-6.3825684,5.8979797-10.907959,5.8979797c-7.4946899,0-12.0592041-4.4862976-13.690155-13.4658203
			c-0.9661865-4.5985565-1.6543274-10.6069183-2.0768127-17.9620209l-8.6172791,14.1118622l-8.7888489,14.3908386
			c8.0501709,7.0202026,18.5244446,10.7055206,31.5030212,10.9418335c8.829834-0.1496887,16.4351196-3.1189728,22.8176575-8.9044952
			c6.2326965-5.7890778,11.2412109-12.6493073,15.025116-20.5913391h0.4454956
			c1.5578003,8.5338287,3.9319153,15.5437469,7.122345,21.0368347c3.1904297,5.4897156,7.1970215,8.3093109,12.0200806,8.4589996
			c3.7090759-0.1496887,6.7515259-1.2992249,9.1273193-3.4521942c2.4489746-2.1495972,4.3401794-4.8979187,5.6751404-8.2344818
			c2.5967712-7.1257172,4.1188354-14.3943939,4.5645142-21.815918h-6.5679932
			c-0.5934753,2.8195953-1.9658508,5.3059845-4.1171265,7.4555817c-2.3009644,2.4489594-4.9353333,3.6733398-7.9029541,3.6733398
			c-3.7107544,0-6.7515259-1.7413483-9.1256409-5.2311401c-2.7464294-3.1868896-4.8977356-6.7515259-6.4555054-10.6834412
			l23.261261-70.8996811h-32.1659546l-6.5661011,27.4925461h-0.4456787
			c-0.5934753-4.3773956-1.5203857-8.3841553-2.7821655-12.0200806c-0.5454102-1.6708069-1.2229004-3.2362823-2.003479-4.7184906
			L318.9727173,142.1175995z"/>
		<path class="st10" d="M320.598053,129.3176727c-4.3790588-5.788887-11.1289062-8.7548065-20.2564087-8.9044876
			c-14.4690552,0.2959976-26.0079346,6.0100479-34.6130371,17.1391525
			c-9.1273499,11.0574646-13.7649994,23.7443695-13.9129944,38.063736c0,15.6593781,4.2294006,28.9380798,12.6884155,39.8460541
			c1.7793274,2.3213501,3.7706299,4.3510132,5.8923645,6.2005005l8.7888489-14.3908386l8.6172791-14.1118622
			c-0.3891602-6.7687378-0.5541992-14.6714935-0.4827271-23.7750549
			c-0.1494751-6.2311859,0.7042542-14.2070923,2.5595398-23.9280853c0.5935059-2.2278137,1.3366699-4.3433533,2.2261353-6.3466492
			c0.964325-2.0034637,1.9660339-3.670166,3.0050049-5.0068054c2.2992859-2.8944397,5.3434143-4.4148254,9.1273499-4.5644989
			c4.6733704,0.1496735,8.3841553,1.9694214,11.1290894,5.455658c1.4554749,2.1198578,2.6396179,4.5126801,3.6058044,7.1231079
			l4.8530273-7.9470978C322.9072571,132.4265442,321.8407898,130.8015747,320.598053,129.3176727z"/>
		<path class="st4" d="M568.9234619,115.4750443c-0.0362549,0.0117874-0.0695801,0.0295639-0.105896,0.0413513
			C568.8538818,115.5046082,568.887207,115.4868317,568.9234619,115.4750443
			C568.9234619,115.4748611,568.9234619,115.4750443,568.9234619,115.4750443z"/>
		<path class="st1" d="M577.5007324,38.3026314c0.1693115,0.0984154,0.3343506,0.1983261,0.4963989,0.302166
			C577.8498535,38.5024567,577.6807251,38.4021683,577.5007324,38.3026314z"/>
		<path class="st2" d="M547.8606567,30.4348679l-1.0047607,0.0297489l-1.529541,0.0987892l-0.9942627,0.0795174
			l-1.6342773,0.1676426l-0.918335,0.1204929c-0.6062012,0.0757751-1.2002563,0.1850414-1.7940674,0.2944965l-0.6578369,0.1021557
			c-0.7926025,0.1511784-1.6525269,0.3268661-2.3690796,0.5190182l-0.6651611,0.1657715
			c-0.5657959,0.1450005-1.1474609,0.2881355-1.6689453,0.4703712l-0.9029541,0.2677383l-1.4245605,0.4499779l-0.9598389,0.3420181
			l-1.3164062,0.4946938l-0.9832153,0.4037628c-0.4400635,0.1755028-0.8642578,0.3528748-1.274353,0.5480194l-0.9529419,0.4235954
			l-1.3171387,0.6398849l-0.8416138,0.4363174c-0.5502319,0.2920647-1.100708,0.5841255-1.7166138,0.8847961l-0.8666382,0.5141525
			c-0.5362549,0.3098412-1.0743408,0.635582-1.5982666,0.9790993l-0.840271,0.5656052l-1.1386719,0.7734718l-0.8989868,0.6557884
			l-1.0253296,0.7704773l-0.8904419,0.7212753l-0.7380981,0.8035965l-0.880127,0.7708549l-0.3945923,0.342392
			c0.7884521-0.0385437,1.5645752-0.0712852,2.2130127-0.0873756c0.0056152-0.0001869,0.0097656-0.0001869,0.0153809-0.0003738
			c0.0018311,0.0001869,0.0042725,0.0001869,0.0061646,0.0001869c0.0918579-0.0026207,0.164856-0.0024338,0.2510986-0.0041161
			c0.2901611-0.0050507,0.5321045-0.0041161,0.7322998,0.0016823c0.1208496,0.0039291,0.2606201,0.0052414,0.343689,0.014782
			c16.8527222,1.4369316,37.9881592,10.93116,46.7124634,20.8029556c0.3001099,0.3410873,0.5466919,0.6831055,0.8163452,1.0249405
			c0.2383423,0.300293,0.503479,0.6005936,0.7173462,0.9008865c6.3862915,9.0676422-1.9003906,21.7292938-12.5432739,27.7737656
			c0.8221436-0.2675552,1.6513672-0.4292145,2.4785767-0.5390396c0.6694336-0.0888748,1.3304443-0.0899963,1.992981-0.0808258
			c0.1745605,0.0158997,0.3395996,0.0722198,0.5130005,0.0948563c0.3012695,0.0153427,0.6021118-0.0263824,0.9025879,0.0087967
			c4.7263184,0.5534439,8.6120605,3.4288025,10.6624756,7.3498688c0.0490112,0.095047,0.0834351,0.1996384,0.1304321,0.2961807
			c0.3358154,0.6806717,0.6275024,1.385849,0.848877,2.120224c0.1099854,0.3725128,0.1584473,0.7562561,0.2366943,1.1355133
			c0.112793,0.5322952,0.2504883,1.0567398,0.2996826,1.6068192c0.0806885,0.9480362,0.0805054,1.9041214-0.0357056,2.8542175
			c-0.076355,0.7774048-0.276001,1.522438-0.4778442,2.2648468c-0.2108765,0.730629-0.468689,1.4457321-0.7957764,2.1329498
			c-0.0351562,0.0765228-0.0678711,0.1537933-0.1043701,0.2295685c-0.2293701,0.4604568-0.4818115,0.9102478-0.7619019,1.344696
			c0.0363159-0.0117874,0.0696411-0.0295639,0.105896-0.0413513c15.0541382-4.9282303,27.0310059-16.2902832,32.9168091-30.9002075
			c0.0621338-0.1539841,0.12854-0.3053513,0.1891479-0.460083c0.2731934-0.6965714,0.6069336-1.3607788,0.8518677-2.0717621
			c-0.0028076-0.0432205,0.0020752-0.086441,0.0147705-0.1276016c0.0475464-0.4144287-0.0482788-0.8453217-0.0783691-1.2848206
			c-0.0303345-0.4396896-0.0482788-0.8455124-0.0821533-1.2530136c-0.0340576-0.407692-0.0783691-0.8649673-0.1262817-1.2904358
			c-0.0480957-0.4254608-0.0838013-0.8172531-0.133606-1.2266235c-0.0499268-0.4095688-0.1279907-0.8544922-0.1919556-1.2818298
			c-0.0639648-0.4271469-0.1174927-0.8049088-0.2009277-1.2021179c-0.0836792-0.3972168-0.15979-0.8580475-0.2415771-1.2711639
			l-0.2507324-1.1916428c-0.0976562-0.4149857-0.1953125-0.8299789-0.3088989-1.2468414
			c-0.1135254-0.4168549-0.2007446-0.782074-0.302124-1.1652603c-0.1014404-0.3831787-0.2290039-0.817627-0.3587036-1.2363586
			c-0.1294556-0.418541-0.234436-0.7697296-0.3695068-1.140564l-0.394043-1.208107
			c-0.1332397-0.3869247-0.2841797-0.7594452-0.4333496-1.1480484l-0.4494019-1.1499214l-0.4952393-1.1712494l-0.4885254-1.0896721
			c-0.2460327-0.5291214-0.4939575-1.0419655-0.7577515-1.5568657s-0.5136108-1.011837-0.7970581-1.4966164
			c-0.2834473-0.4847755-0.4379883-0.8256721-0.6668091-1.2232628l-0.5970459-0.9892006l-0.6797485-1.1117516
			c-0.2042847-0.3304176-0.4263916-0.6466179-0.6466064-0.9787216l-0.7190552-1.051693l-0.6980591-0.9523392l-0.7721558-1.0092201
			l-0.7336426-0.9242783l-0.8237915-0.9828377l-0.7709961-0.8799362c-0.2858887-0.323494-0.5715942-0.6471786-0.8753052-0.9566422
			l-0.7923584-0.8339081l-0.942627-0.9319496l-0.8138428-0.7880669l-1.0402832-0.9270821l-0.7910767-0.7046204
			c-0.3814697-0.3345375-0.7966919-0.656723-1.1959229-0.9772263l-0.710083-0.565979
			c-0.6378174-0.4931984-1.2915649-0.988266-1.9649048-1.4532089l-0.390686-0.2548332l-1.6647949-1.1119385
			c-0.0482788-0.0331154-0.1002808-0.0594978-0.1489258-0.090744c-0.1620483-0.1038399-0.3270874-0.2037506-0.4963989-0.302166
			c-0.0475464-0.0276909-0.0911255-0.0563164-0.1395874-0.0849419l-1.3435669-0.8165092l-0.8964233-0.4905777
			c-0.4262085-0.2267647-0.8664551-0.4711189-1.3104248-0.6836624l-0.946167-0.4801025l-1.317749-0.6198616l-1.0011597-0.4219131
			l-1.3250732-0.5560608l-1.020813-0.3917885l-1.3662109-0.4799156l-1.0422974-0.3459473l-1.4353027-0.4394989l-1.0336914-0.2802773
			l-1.5701904-0.3904781l-1.0073242-0.2288246c-0.5579224-0.0639877-1.1207275-0.2256432-1.6907959-0.3234959l-0.8609009-0.0987892
			c-0.8765259-0.1008472-1.7373657-0.1996365-2.6141357-0.3004837c-0.8765869-0.1006603-1.7214966-0.1977654-2.5662842-0.2948704
			l-0.8288574-0.0952339c-0.5738525-0.0660477-1.1568604-0.0522022-1.7220459-0.0525761l-0.9832153-0.0160904
			L547.8606567,30.4348679z M565.7700806,34.8023567c22.9351807,8.4174652,34.6160278,28.0579643,33.6541748,52.0275993
			c-0.3255615,2.6231461-2.5209961,4.5392456-5.0828247,4.6211929c-0.2325439,0.0568848-0.4688721,0.1027222-0.7109375,0.1276093
			c-0.0438232-0.0043106-0.0858765,0.0024261-0.1296997-0.0029984c-0.2022095-0.0250702-0.3895264-0.0862503-0.5831909-0.132843
			c-2.5836792-0.6222916-4.3543701-3.0744324-4.019104-5.7741089c0.0700073-0.6088257,0.0890503-1.1940765,0.1386719-1.793541
			c0.0690308-0.8423309,0.1567993-1.6932602,0.1865234-2.5172501c0.010498-0.2830887-0.0065308-0.5534439-0.0007324-0.8342819
			c0.0218506-1.0848083,0.0342407-2.1651306-0.0112305-3.2175674c-0.0112305-0.2574539-0.0475464-0.5023651-0.0626831-0.7577591
			c-0.0623169-1.0494461-0.1356201-2.0936508-0.2641602-3.1103592c-0.1000977-0.7867584-0.2528076-1.5471344-0.392395-2.3142471
			c-0.0823364-0.4559631-0.1389771-0.925209-0.2349854-1.3742523c-3.1537476-14.6458549-13.564209-25.5710258-28.7876587-32.6834641
			c-2.2393799-1.0545006-3.5159912-1.6386261-4.2127686-1.942852c0.0847778,0.0452766,0.0961914,0.0510788-0.0119629-0.0052414
			c-2.916687-1.2720947,4.6774902,2.5296021-5.1334839-2.4865646c0.0974731-0.0063591,0.1702881-0.0097275,0.265686-0.0157166
			c-0.0924072-0.0473366-0.1536255-0.0785828-0.2492065-0.1276016
			C557.3139038,32.2155037,558.7650757,32.2370186,565.7700806,34.8023567z"/>
		<path class="st2" d="M549.7238159,88.1065445c4.3762817,0.0690384,8.1831665-3.1483383,8.6934204-7.5878601
			c0.5431519-4.7274704-2.8488159-9.0000992-7.5761108-9.543251c-4.727417-0.5433426-9.000061,2.8486023-9.543396,7.5758896
			c-0.0037842,0.0319901-0.0073242,0.0641708-0.0106812,0.0961685c-0.0357056,0.3392105-0.0084229,0.6677628-0.0046997,1.0006104
			c0.0028076,0.2262039-0.0233765,0.4570847-0.0029907,0.6795502c0.0396729,0.4419327,0.1381226,0.866272,0.2432251,1.2887497
			c0.0297852,0.1184311,0.0368652,0.2439804,0.0714722,0.3605423c0.1418457,0.4810333,0.3364258,0.9390564,0.5571899,1.3832321
			c0.024353,0.0490189,0.0374146,0.1032791,0.0626831,0.151741c0.2466431,0.4735489,0.5394287,0.91922,0.8677979,1.3375778
			c0.0110474,0.0140381,0.0184937,0.0305023,0.029541,0.0445328c0.3294678,0.4146118,0.6997681,0.794426,1.1005249,1.142807
			c0.0170288,0.0147858,0.0296021,0.0333099,0.046814,0.0478973c0.3829956,0.3276138,0.802063,0.6127548,1.2410278,0.8703918
			c0.0444946,0.0260086,0.0813599,0.0617447,0.1262817,0.0870056c0.3897095,0.2194672,0.8104858,0.3876724,1.2369385,0.5455856
			c0.1103516,0.0409698,0.2091675,0.1019669,0.3219604,0.1384506c0.3441162,0.1115112,0.7122803,0.1665192,1.0756836,0.2348099
			c0.2069092,0.0392914,0.4007568,0.1092682,0.6132812,0.1337814c0.010498,0.0011215,0.0203857-0.0007477,0.0308838,0.0003738
			c0.0114136,0.0013123,0.0214844,0.0057983,0.0328979,0.0069199c0.2232666,0.0256348,0.4384155,0.0007477,0.6591797,0.0091705
			c0.0106812-0.0011215,0.0209351-0.0048676,0.0316162-0.0059891
			C549.6601562,88.1061707,549.6919556,88.1059799,549.7238159,88.1065445z M557.3297729,78.4557114
			c-0.0003662,0.0026169-0.0020142,0.0048676-0.0023804,0.0074844c-0.0004272,0.0029907,0.0010986,0.0054245,0.0007324,0.0084229
			c-0.0005493,0.0052338-0.0041504,0.0091629-0.0046997,0.0144043c-0.0001831-0.0024338-0.0009155-0.0044937-0.0012817-0.0067368
			c-0.2479248,2.0377121-2.0905151,3.4984055-4.1330566,3.2635956c-0.005249-0.0005646-0.0106812-0.0011215-0.0159302-0.0018692
			c-0.0634155-0.0073013-0.1122437-0.046402-0.1745605-0.056694c-0.0106812,0.0013123-0.0214844,0.0014954-0.0321655,0.0028076
			c-0.0136719-0.0024338-0.0249023-0.0099182-0.0385742-0.0125351c-1.4071655-0.2688675-2.5187378-1.2687302-2.9026489-2.5836716
			c-0.1364136-0.4640121-0.1838989-0.9622574-0.1251831-1.4728546c0.0007324-0.0052414,0.0013428-0.0106659,0.0018921-0.0159073
			c0.2357178-2.051178,2.0895386-3.5229111,4.140686-3.2871704
			C556.093811,74.5505524,557.5655518,76.4045258,557.3297729,78.4557114z"/>
		<path class="st6" d="M522.0126953,131.2212372c3.3300171-0.7005005,6.6465454-1.4470367,9.8690186-2.2287445
			c9.2262573-2.2380905,17.6334839-4.7663803,23.0056763-7.3569794c-4.1235352-0.6894608-7.7158203-3.2029724-9.7761841-6.8407669
			c-1.2026978,1.1701279-2.5675659,2.1610107-4.0527954,2.9419708c-3.6602173,1.9662399-7.4458618,3.6892471-11.3327026,5.1579895
			c-11.3687744,4.4610367-23.0215759,8.1613235-34.8815002,11.0757828c-0.8788147,0.2320099-1.8180542,0.4312744-2.7211914,0.650177
			c-3.4587402,0.838028-7.0372314,1.6118774-10.7386169,2.3217316c-0.0209656,0.0039215-0.040802,0.008606-0.0617676,0.0125275
			c8.1398315-0.1687622,16.2493286-1.0471954,24.2364502-2.6251984c2.1408081-0.3596039,4.3545837-0.7491455,6.6098633-1.165451
			c1.3810425-0.254837,2.7803345-0.5231323,4.1853027-0.7972412
			C518.2319946,132.0007019,520.1220703,131.6188202,522.0126953,131.2212372z"/>
		<path class="st7" d="M509.6247864,124.9623489c1.8797913-0.5835648,3.7167664-1.174057,5.5065613-1.7688446
			c1.9147949-0.6361465,3.7685547-1.2745285,5.5514526-1.9104843c3.5477905-1.2655487,6.7990112-2.5146332,9.6470947-3.6995392
			c4.6855469-1.9494019,8.2838745-3.7210541,10.230835-5.0719223c0.612915-0.4140549,1.7368774-1.060112,3.0067139-1.8509827
			c-0.7705078-3.9133987,0.1779175-7.9691696,2.6038818-11.1351013c-11.4066162-0.4215393-16.4124756-4.0335159-20.5487061-8.842186
			c-3.3747559-3.9234924-6.1726074-8.6412354-11.3792725-13.0929184c-0.0560913-0.0482712-0.1171265-0.0789566-0.1738281-0.1253586
			c-3.1187439-2.5542908-7.0398254-2.350914-11.2000122,0.7240829c0.0370483-0.0159073,0.075592-0.0205841,0.1126404-0.035553
			c2.6525269-1.0705872,5.6861877,0.1594162,6.8215027,2.8007126c0.65448,1.5226212,0.5558777,3.2643433-0.2664185,4.7035141
			c-8.5306702,12.6962738-13.0564575,15.2142715-24.0753479,21.1515274c-1.5737,0.8503723-3.2793274,1.7705307-5.147522,2.8005219
			c-1.0006104,0.5512009-2.0092773,1.1134338-3.0188599,1.6756744c-7.9396057,4.4438248-16.1318054,9.1088028-24.5322571,12.5142136
			c-1.3527222,0.5530701-2.710144,1.0739594-4.0716858,1.556488c2.9011841-3.3758545,6.1700134-6.3733902,9.631958-9.1589432
			c5.7574463-4.6367188,12.0516968-8.6835175,18.0812073-12.8994522c6.1460571-4.2997589,10.261322-6.7013855,13.7720947-9.6729126
			c0.0274963-0.0233841,0.0540466-0.048645,0.0815735-0.0722198c0.401123-0.3414612,0.7955322-0.6898422,1.183197-1.0505676
			c1.2036438-1.1220474,2.3529968-2.3642044,3.5119019-3.8204041c1.3487854-1.6949463,2.7159424-3.7029114,4.1930847-6.1782532
			c0.3532715-0.5917969,0.7087402-1.1933212,1.076416-1.842186c0.0087891-0.0155334,0.0168152-0.0284424,0.0256348-0.0439682
			c-1.8525085,1.9621201-3.4960022,4.1115341-4.9037476,6.4134293c-0.6112366,0.9789124-1.4885559,2.0511856-2.6021729,3.2074661
			c-4.8348694,5.0200882-14.1330261,11.6221237-25.5510254,19.0264359
			c-5.817688,3.7597809-12.038208,7.5508118-16.8876953,11.0190964c-9.4951477,6.7906265-13.7198792,12.3402176,0.7229614,13.968544
			c1.4515381,0.1637268,3.091095,0.2877655,4.9332886,0.3695374
			C470.3712769,135.3052673,491.7533264,130.5095062,509.6247864,124.9623489z"/>
		<path class="st2" d="M546.6650391,106.7529831c-0.666626,5.801239,3.4960327,11.0447311,9.2972412,11.7113647
			c0.0054321,0.0005646,0.0106812,0.0011215,0.0161133,0.0018768c0.3835449,0.0441513,0.7553101,0.013092,1.1328735,0.0158997
			c0.0028076-0.0003738,0.0054321-0.0013123,0.0082397-0.0016861c0.0061646,0,0.0123291,0.0003738,0.0183105,0.0003738
			c5.3151855,0.0174026,9.9150391-3.9111481,10.5360107-9.3136749c0.666626-5.8014221-3.4959717-11.0447311-9.2971802-11.7115555
			C552.5751953,96.7889404,547.3317261,100.9515533,546.6650391,106.7529831z M562.3471069,114.4821014
			c-3.598877,2.8493576-8.8250122,2.248764-11.6838989-1.3426285c-0.3562012-0.449234-0.6585693-0.9240952-0.9077759-1.4165421
			c-0.1186523-0.2342529-0.1859741-0.4829025-0.2807007-0.7242661c-0.1043701-0.266243-0.2334595-0.526123-0.309082-0.7987289
			c-0.0731201-0.2641907-0.0942993-0.5349197-0.140686-0.8030396c-0.0449219-0.2598801-0.1162109-0.5165863-0.1362305-0.7781525
			c-0.0200195-0.2608185,0.0101318-0.5205078,0.0148315-0.7813263c0.0046387-0.2713013-0.0151978-0.5435333,0.0158691-0.812767
			c0.0275269-0.2374344,0.1018066-0.4664383,0.149292-0.700882c0.0584106-0.2870102,0.0950928-0.5781403,0.1835938-0.8582306
			c0.0764771-0.2422943,0.2007446-0.4686813,0.2994995-0.7040558c0.1085205-0.2583847,0.1940308-0.5248184,0.3293457-0.7725372
			c0.1307373-0.2393036,0.3094482-0.4540939,0.4647217-0.6814194c0.1520996-0.2228394,0.2802734-0.4580231,0.4559937-0.6673889
			c0.1765747-0.2104874,0.4002075-0.3889847,0.6002197-0.5841293c0.2007446-0.1957016,0.3779297-0.4080658,0.6022339-0.5863724
			c0.0013428-0.0009308,0.0026245-0.0014954,0.0039673-0.0024338c0.0014648-0.0011215,0.0022583-0.0026169,0.0037231-0.0037384
			c0.2327271-0.1846695,0.4887085-0.3147049,0.7340088-0.4703751c0.2271118-0.1440659,0.4430542-0.3156357,0.6791382-0.4351959
			c0.2694702-0.1363907,0.5540161-0.2187195,0.8326416-0.323494c0.2306519-0.0868149,0.4541016-0.2016907,0.6896362-0.2671814
			c0.2774658-0.0770798,0.562439-0.1012192,0.8443604-0.1487427c2.8869629-0.4862747,5.9396973,0.531929,7.8902588,2.985939
			C566.538147,106.3976746,565.9405518,111.6260147,562.3471069,114.4821014z"/>
		<path class="st4" d="M563.6820679,102.8044128c-1.9505615-2.45401-5.0032959-3.4722137-7.8902588-2.985939
			c-0.2819214,0.0475235-0.5668945,0.0716629-0.8443604,0.1487427c-0.2355347,0.0654907-0.4589844,0.1803665-0.6896362,0.2671814
			c-0.2786255,0.1047745-0.5631714,0.1871033-0.8326416,0.323494c-0.236084,0.1195602-0.4520264,0.2911301-0.6791382,0.4351959
			c-0.2453003,0.1556702-0.5012817,0.2857056-0.7340088,0.4703751c-0.0014648,0.0011215-0.0022583,0.0026169-0.0037231,0.0037384
			c-0.0013428,0.0009384-0.0026245,0.001503-0.0039673,0.0024338c-0.2243042,0.1783066-0.4014893,0.3906708-0.6022339,0.5863724
			c-0.2000122,0.1951447-0.423645,0.373642-0.6002197,0.5841293c-0.1757202,0.2093658-0.303894,0.4445496-0.4559937,0.6673889
			c-0.1552734,0.2273254-0.3339844,0.4421158-0.4647217,0.6814194c-0.1353149,0.2477188-0.2208252,0.5141525-0.3293457,0.7725372
			c-0.0987549,0.2353745-0.2230225,0.4617615-0.2994995,0.7040558c-0.088501,0.2800903-0.1251831,0.5712204-0.1835938,0.8582306
			c-0.0474854,0.2344437-0.1217651,0.4634476-0.149292,0.700882c-0.0310669,0.2692337-0.0112305,0.5414658-0.0158691,0.812767
			c-0.0046997,0.2608185-0.0348511,0.5205078-0.0148315,0.7813263c0.0200195,0.2615662,0.0913086,0.5182724,0.1362305,0.7781525
			c0.0463867,0.2681198,0.0675659,0.5388489,0.140686,0.8030396c0.0756226,0.2726059,0.2047119,0.532486,0.309082,0.7987289
			c0.0947266,0.2413635,0.1620483,0.4900131,0.2807007,0.7242661c0.2492065,0.4924469,0.5515747,0.967308,0.9077759,1.4165421
			c2.8588867,3.5913925,8.085022,4.1919861,11.6838989,1.3426285
			C565.9405518,111.6260147,566.538147,106.3976746,563.6820679,102.8044128z M556.6150513,114.5709763
			c-0.0753784,0.0057983-0.1502075,0.0117874-0.225647,0.015152c-0.0783691-0.0097275-0.1505737-0.0488281-0.2286377-0.0613632
			c-0.5040283-0.075592-0.9987183-0.2045059-1.4780884-0.3957214c-0.0980225-0.0402298-0.1893311-0.0898056-0.2855225-0.1348953
			c-0.5489502-0.2495956-1.0789795-0.5545731-1.5578003-0.9598312l10.218689-8.1123047
			c1.447998,2.8244705,0.7067261,6.2777863-1.7727661,8.2591782
			C559.921875,114.2564621,558.2490234,114.7030716,556.6150513,114.5709763z M551.0029907,110.3728104
			c-0.1345215-0.3466949-0.2385254-0.6971359-0.312439-1.0537491c-0.0203857-0.0976639-0.0466309-0.1915894-0.0625-0.2898178
			c-0.0898438-0.5569992-0.1040649-1.1151199-0.0529785-1.6694946c0.0099487-0.1059036,0.0252686-0.2076797,0.0400391-0.3130188
			c0.0795288-0.5672913,0.2164917-1.1237259,0.4380493-1.6537857c0.019043-0.0454636,0.0458374-0.0866241,0.06604-0.1319046
			c0.2434082-0.5478287,0.559021-1.0651627,0.9491577-1.5372162c0.0130615-0.0159073,0.0183105-0.035553,0.0316162-0.0512695
			c0.0065308-0.0078583,0.0149536-0.013092,0.0214844-0.0207672c0.2737427-0.3221817,0.5738525-0.6267853,0.9143677-0.8988266
			c0.3478394-0.276535,0.7192383-0.5033035,1.1022339-0.7005081c0.0632324-0.0325546,0.1298218-0.0538864,0.1938477-0.0841904
			c0.3101807-0.1472473,0.6256714-0.2741013,0.9500732-0.3706512c0.100647-0.0299301,0.2028198-0.048645,0.3046265-0.0739059
			c0.2946777-0.0727768,0.5897217-0.1294708,0.8898315-0.1612778c1.7456665-0.1872864,3.5601196,0.2989883,5.006958,1.5214996
			l-10.2203369,8.1280212c-0.1096191-0.2134781-0.1405029-0.4460449-0.2254639-0.6666336L551.0029907,110.3728104z"/>
		<path class="st2" d="M561.4833984,102.8839264c-1.4468384-1.2225113-3.2612915-1.708786-5.006958-1.5214996
			c-0.3001099,0.0318069-0.5951538,0.088501-0.8898315,0.1612778c-0.1018066,0.0252609-0.2039795,0.0439758-0.3046265,0.0739059
			c-0.3244019,0.09655-0.6398926,0.2234039-0.9500732,0.3706512c-0.0640259,0.030304-0.1306152,0.0516357-0.1938477,0.0841904
			c-0.3829956,0.1972046-0.7543945,0.4239731-1.1022339,0.7005081c-0.3405151,0.2720413-0.640625,0.5766449-0.9143677,0.8988266
			c-0.0065308,0.0076752-0.0149536,0.0129089-0.0214844,0.0207672c-0.0133057,0.0157166-0.0185547,0.0353622-0.0316162,0.0512695
			c-0.3901367,0.4720535-0.7057495,0.9893875-0.9491577,1.5372162c-0.0202026,0.0452805-0.0469971,0.086441-0.06604,0.1319046
			c-0.2215576,0.5300598-0.3585205,1.0864944-0.4380493,1.6537857c-0.0147705,0.1053391-0.0300903,0.2071152-0.0400391,0.3130188
			c-0.0510864,0.5543747-0.0368652,1.1124954,0.0529785,1.6694946c0.0158691,0.0982285,0.0421143,0.1921539,0.0625,0.2898178
			c0.0739136,0.3566132,0.1779175,0.7070541,0.312439,1.0537491l0.0346069-0.0274963
			c0.0849609,0.2205887,0.1158447,0.4531555,0.2254639,0.6666336L561.4833984,102.8839264z"/>
		<path class="st2" d="M561.2852783,113.1811905c2.4794922-1.9813919,3.2207642-5.4347076,1.7727661-8.2591782l-10.218689,8.1123047
			c0.4788208,0.4052582,1.0088501,0.7102356,1.5578003,0.9598312c0.0961914,0.0450897,0.1875,0.0946655,0.2855225,0.1348953
			c0.4793701,0.1912155,0.9740601,0.3201294,1.4780884,0.3957214c0.078064,0.0125351,0.1502686,0.0516357,0.2286377,0.0613632
			c0.0754395-0.0033646,0.1502686-0.0093536,0.225647-0.015152
			C558.2490234,114.7030716,559.921875,114.2564621,561.2852783,113.1811905z"/>
		<path class="st4" d="M554.0426025,74.3149872c-2.0511475-0.2357407-3.9049683,1.2359924-4.140686,3.2871704
			c-0.0005493,0.0052414-0.0011597,0.0106659-0.0018921,0.0159073c-0.0587158,0.5105972-0.0112305,1.0088425,0.1251831,1.4728546
			c0.3839111,1.3149414,1.4954834,2.3148041,2.9026489,2.5836716c0.0108643-0.0011215,0.0215454-0.0013123,0.0322266-0.0026245
			c0.0136108,0.0024338,0.0248413,0.0101089,0.0385132,0.012352c0.0623169,0.0102921,0.111145,0.0493927,0.1745605,0.056694
			c0.005249,0.0007477,0.0106812,0.0013046,0.0159302,0.0018692c2.0425415,0.2348099,3.8851318-1.2258835,4.1330566-3.2635956
			c0.0007324-0.0059891,0.0046387-0.0101013,0.005249-0.0160904c0.0003662-0.0026169,0.0020142-0.0048676,0.0023804-0.0074844
			C557.5655518,76.4045258,556.093811,74.5505524,554.0426025,74.3149872z"/>
		<path class="st11" d="M550.1281128,32.4881096c0.0955811,0.0490189,0.1567993,0.080265,0.2492065,0.1276016
			c-0.0953979,0.0059891-0.1682129,0.0093575-0.265686,0.0157166c9.8109741,5.0161667,2.2167969,1.2144699,5.1334839,2.4865646
			c0.1081543,0.0563202,0.0967407,0.050518,0.0119629,0.0052414c0.6967773,0.3042259,1.9733887,0.8883514,4.2127686,1.942852
			c15.2234497,7.1124382,25.6339111,18.0376091,28.7876587,32.6834641c0.0960083,0.4490433,0.1526489,0.9182892,0.2349854,1.3742523
			c0.1395874,0.7671127,0.2922974,1.5274887,0.392395,2.3142471c0.12854,1.0167084,0.2018433,2.0609131,0.2641602,3.1103592
			c0.0151367,0.255394,0.0514526,0.5003052,0.0626831,0.7577591c0.0454712,1.0524368,0.0330811,2.1327591,0.0112305,3.2175674
			c-0.0057983,0.280838,0.0112305,0.5511932,0.0007324,0.8342819c-0.0297241,0.8239899-0.1174927,1.6749191-0.1865234,2.5172501
			c-0.0496216,0.5994644-0.0686646,1.1847153-0.1386719,1.793541c-0.3352661,2.6996765,1.4354248,5.1518173,4.019104,5.7741089
			c0.2458496,0.0087967,0.4902344,0.016655,0.7293701-0.0076675c0.2341919,0.0233841,0.4650879,0.023201,0.694458,0.0158997
			c2.5618286-0.0819473,4.7572632-1.9980469,5.0828247-4.6211929c0.961853-23.969635-10.7189941-43.6101341-33.6541748-52.0275993
			C558.7650757,32.2370186,557.3139038,32.2155037,550.1281128,32.4881096z"/>
		<path class="st5" d="M499.1708984,82.4998856c-1.4833069,2.478714-2.8547668,4.4844284-4.2086182,6.1810532
			c-1.1617126,1.4558334-2.3142395,2.6989288-3.5206909,3.8211594c-0.3876648,0.3607254-0.782074,0.7091064-1.183197,1.0505676
			c-0.02771,0.0235748-0.053894,0.0488358-0.0815735,0.0722198c-3.5107727,2.9715271-7.6260376,5.3731537-13.7720947,9.6729126
			c-6.0295105,4.2159348-12.323761,8.2627335-18.0812073,12.8994522c-3.4488525,2.7775116-6.7051392,5.7664413-9.596405,9.1306915
			c1.3504944-0.4728012,2.6959229-0.9848938,4.0361328-1.5282364c8.4004517-3.4054108,16.5926514-8.0703888,24.5322571-12.5142136
			c1.0213623-0.5715942,2.041626-1.1429977,3.0544128-1.7039261c1.8551025-1.0191345,3.5483704-1.9297562,5.111969-2.7722702
			c11.0188904-5.9372559,15.5446777-8.4552536,24.0753479-21.1515274c1.3493652-2.5943298,0.3401489-5.7913208-2.2542114-7.1405029
			c-2.0670776-1.0750809-4.5255737-0.6417542-6.1265869,0.918663c-0.3048096,0.2969284-0.5892029,0.6200562-0.8221436,0.9974365
			l-0.0016785,0.0140305l-0.0093384,0.0815735C499.9290466,81.2248001,499.5483093,81.8691711,499.1708984,82.4998856z"/>
	</g>
	<g>
		<path class="st4" d="M6.837275,652.1384277v0.3565674h20.1081047l4.0929317-25.8025513h25.4459953l4.0914345,25.8025513
			h20.1081047v-0.3565674L70.5927124,599.760498l-16.0664825-83.3929443H33.1731682L18.867754,590.1171875L6.837275,652.1384277z
			 M43.6721687,548.0413208l7.8162918,48.1575317l2.1478729,13.2334595H33.7065086l2.6074257-16.0625L43.6721687,548.0413208z"/>
		<rect x="91.5364075" y="516.5458374" class="st4" width="19.5747643" height="135.9491882"/>
		<path class="st4" d="M173.5688477,564.4130859c-0.9513245,0-1.9880371,0.0599365-3.1131439,0.1767578
			c-1.1296082,0.119873-2.2247467,0.2981567-3.292923,0.5348511l-21.3530731,2.8464966v-3.203064h-19.9298172v119.7564697
			h19.9298172v-32.0296021h20.2863922c5.8097992,0,10.3207245-1.6015015,13.5237579-4.8045044
			c3.2030334-3.203064,4.8045502-7.4742432,4.8045502-12.8121338v-59.7894897
			C184.424408,567.9711914,180.8033905,564.4130859,173.5688477,564.4130859z M164.4945831,629.3621826
			c0,2.2546997-0.4764099,3.9146118-1.4247437,4.9827881c-0.9498138,1.0667114-2.6097717,1.6015625-4.9813232,1.6015625h-12.2788086
			v-54.2733154l18.6848755-0.3565674V629.3621826z"/>
		<path class="st4" d="M246.1689606,564.4130859c-0.9513245,0-1.9880371,0.0599365-3.1131439,0.1767578
			c-1.1296082,0.119873-2.2247467,0.2981567-3.292923,0.5348511l-21.3530731,2.8464966v-51.425354h-19.9298248v135.9491577
			h19.9298248v-70.8217773l18.6848755-0.3565674v71.1783447h19.9298096v-77.4061279
			C257.0245056,567.9711914,253.4035034,564.4130859,246.1689606,564.4130859z"/>
		<path class="st4" d="M316.8125,564.7681274h-33.6318665c-7.4742432,0-11.2106323,3.6210327-11.2106323,10.8555908v16.3701782
			h17.9732666v-12.4555664h19.039917v20.1066284h-26.8707275c-7.4727478,0-11.209137,3.6210327-11.209137,10.8555298v31.6738281
			c0,7.1176758,3.6165466,10.6772461,10.8540649,10.6772461c0.9483337,0,1.8681946-0.0614014,2.7580872-0.1782837
			c0.8898926-0.119812,1.9850464-0.295105,3.2914429-0.5348511l20.9979858-2.6681519v3.0247192h19.0399475v-76.8712769
			C327.8448486,568.3891602,324.1669006,564.7681274,316.8125,564.7681274z M308.9831848,636.6581421l-19.039917,0.7116089
			v-24.2010498h19.039917V636.6581421z"/>
		<rect x="341.5453796" y="591.1040039" class="st4" width="41.4611664" height="18.1500282"/>
		<path class="st4" d="M454.1834106,516.5458374h-44.129364c-8.0690002,0-12.1005249,4.152832-12.1005249,12.4555664v111.0380249
			c0,8.3041992,4.0315247,12.4555664,12.1005249,12.4555664h44.129364c3.9146729,0,6.9394226-1.0681763,9.0757751-3.2030029
			c2.1348572-2.1348877,3.2030334-5.2180786,3.2030334-9.2525635V529.0014038c0-4.0314941-1.0681763-7.1176758-3.2030334-9.2525635
			C461.1228333,517.6124878,458.0980835,516.5458374,454.1834106,516.5458374z M446.1758423,635.2348633h-27.9374084v-101.428894
			h27.9374084V635.2348633z"/>
		<path class="st4" d="M567.8626709,564.4130859c-0.9512939,0-1.9925537,0.0599365-3.1221313,0.1767578
			c-1.1281128,0.119873-2.229248,0.2981567-3.2974243,0.5348511l-23.007019,3.2030029l-0.5378418-0.8898926
			c-0.5947266-0.7116089-1.6060181-1.3932495-3.0322266-2.0464478c-1.4262695-0.6502075-3.2090454-0.9782715-5.3498535-0.9782715
			c-0.951355,0-2.0524902,0.0599365-3.300415,0.1767578c-1.2479858,0.119873-2.4660034,0.2981567-3.6569824,0.5348511
			l-20.8661804,2.8464966v-3.203064h-19.9298401v87.7268677h19.9298401v-70.8217773l18.684845-0.3565674v71.1783447h19.9298706
			v-70.8217773l18.5050659-0.3565674v71.1783447h19.9298096v-77.4061279
			C578.7421875,567.9711914,575.1137085,564.4130859,567.8626709,564.4130859z"/>
		<path class="st4" d="M638.3533936,564.7681274h-34.3435059c-7.4742432,0-11.2105713,3.6210327-11.2105713,10.8555908v66.0172119
			c0,7.236084,3.7363281,10.8540649,11.2105713,10.8540649h34.3435059c7.4727783,0,11.2106323-3.617981,11.2106323-10.8540649
			v-18.3283081h-19.039917v14.5904541h-18.6848755v-24.5560913h32.2086182l5.5161743-5.5161743v-32.2070923
			C649.5640259,568.3891602,645.8261719,564.7681274,638.3533936,564.7681274z M630.5241089,600.3565674h-18.6848755v-20.996521
			h18.6848755V600.3565674z"/>
		<path class="st4" d="M702.234314,567.9711914l-15.0563965-2.8464966c-1.180481-0.2366943-2.4209595-0.414978-3.7198486-0.5348511
			c-1.2974243-0.1168213-2.5379028-0.1767578-3.7199097-0.1767578c-4.9603882,0-8.8555298,1.4232178-11.6885376,4.2697144
			c-2.8359985,2.8479614-4.251709,6.8240356-4.251709,11.9222412v53.7399292c0,5.3378906,1.5939941,9.6091309,4.7820435,12.8121338
			c3.1865845,3.203064,7.6165771,4.8045654,13.2855835,4.8045654h20.3687744v18.1500244h-17.6166992v-10.4989624h-19.2182007
			v14.0570679c0,7.2337646,3.737854,10.8547974,11.2106323,10.8547974h34.395874
			c7.4382935,0,11.1582031-3.6210327,11.1582031-10.8547974V564.7681274H702.234314V567.9711914z M702.234314,635.9465332
			h-12.0480957c-4.3056641,0-6.4584961-2.1948242-6.4584961-6.5843506v-41.9945068
			c0-4.2712402,2.0944214-6.4060669,6.2861938-6.4060669c0.5783081,0,1.2494507,0,2.0060425,0
			c0.7550659,0,1.4262085,0.0614014,2.0090332,0.1782227l8.2053223,0.8884277V635.9465332z"/>
		<path class="st4" d="M782.1303711,564.7681274h-33.6318359c-7.4742432,0-11.2106323,3.6210327-11.2106323,10.8555908v16.3701782
			h17.9732666v-12.4555664h19.039917v20.1066284h-26.8707275c-7.4727783,0-11.2091064,3.6210327-11.2091064,10.8555298v31.6738281
			c0,7.1176758,3.6165161,10.6772461,10.8540039,10.6772461c0.9483643,0,1.8682251-0.0614014,2.7581177-0.1782837
			c0.8898926-0.119812,1.9850464-0.295105,3.2914429-0.5348511l20.9979858-2.6681519v3.0247192h19.039917v-76.8712769
			C793.1627197,568.3891602,789.4848022,564.7681274,782.1303711,564.7681274z M774.3010864,636.6581421l-19.039917,0.7116089
			v-24.2010498h19.039917V636.6581421z"/>
	</g>
</g>
</svg>
