<?xml version="1.0" encoding="UTF-8"?>
<svg id="Layer_1" xmlns="http://www.w3.org/2000/svg" version="1.1" viewBox="0 0 1648.34 1661.36">
  <!-- Generator: Adobe Illustrator 29.5.1, SVG Export Plug-In . SVG Version: 2.1.0 Build 141)  -->
  <defs>
    <style>
      .st0 {
        fill: #ce6317;
      }

      .st0, .st1, .st2, .st3, .st4, .st5, .st6, .st7, .st8, .st9, .st10, .st11, .st12, .st13, .st14, .st15, .st16, .st17, .st18, .st19, .st20, .st21, .st22 {
        fill-rule: evenodd;
      }

      .st1 {
        fill: #d7d7d8;
      }

      .st2 {
        fill: #5f4b96;
      }

      .st3 {
        fill: #e4af51;
      }

      .st4 {
        fill: #fff;
      }

      .st5 {
        fill: #6c6b76;
      }

      .st6 {
        fill: #adc6d0;
      }

      .st7 {
        fill: #f8e8b1;
      }

      .st8 {
        fill: #dbecfa;
      }

      .st9 {
        fill: #f7e6b1;
      }

      .st10 {
        fill: #c7c8c8;
      }

      .st11 {
        fill: #a3a4a4;
      }

      .st12 {
        fill: #f7eb9a;
      }

      .st13 {
        fill: #eac17e;
      }

      .st14 {
        fill: #7896b5;
      }

      .st15 {
        fill: #d8e5e9;
      }

      .st16 {
        fill: #20344f;
      }

      .st17 {
        fill: #878787;
      }

      .st18 {
        fill: #dbdbdb;
      }

      .st19 {
        fill: #261f1c;
      }

      .st20 {
        fill: #5f7d9b;
      }

      .st21 {
        fill: #6f5ca0;
      }

      .st22 {
        fill: #b3b3b4;
      }
    </style>
  </defs>
  <path class="st16" d="M391.05,401.67c.93-2.04,2.61-3.66,4.77-4.56,13.4-5.56,27.66-7.09,41.7-3.03,9.18,2.65,17.4,7.41,24.59,13.63,27.37,1.95,54.79,3.31,82.23,3.16,18.16-.1,36.37-3.87,53.7-9.12,15.8-4.78,31.22-10.76,46.43-17.15,24.49-10.3,48.41-21.91,72.72-32.62,3.87-1.71,7.75-3.39,11.66-5.02,1.42-1.63,2.89-3.21,4.42-4.74,11.26-11.31,25.42-19.88,40.99-23.58-.78-2.39-1.45-4.83-1.98-7.29-2.77-12.74.22-25.47,11.93-32.54,1.38-.84,2.85-1.54,4.36-2.13-.32-8.57.89-17.11,3.36-25.31-11.31-3.98-25.99-11.16-25.57-24.66.39-12.52,13.59-19.41,23.58-23.82,4.46-1.97,9.01-3.75,13.59-5.43,1.09-9.74,2.89-19.4,5.37-28.88,9.12-34.97,27.97-69.14,55.43-93.02l.69-1.19c22.49-38.5,61.13-61.09,103.92-70.5,8.63-1.9,17.41-3.08,26.23-3.58,35.61-2.03,71.85,7,103.08,24.02,11.27,6.14,21.93,13.11,31.7,21.46,9.72,8.31,18.17,17.67,25.81,27.91,20.98,28.1,32.41,61.1,32.37,96.23-.02,20.7-4.01,41.01-10.96,60.45,8.3,11.16,11.22,25.63,10.71,39.33-.69,18.87-7.56,37.69-17.58,53.57-10.02,15.88-24.07,30.17-40.81,38.91-8.01,4.18-16.92,7.15-25.95,7.93-3.16,3.21-6.55,6.18-10.12,8.92.36.75.67,1.53.93,2.32,2.52,7.62.25,15.51-3.93,22.06-3.46,5.41-8.23,10.08-13.4,13.99,5.01,2.55,9.65,5.77,13.86,9.54,7.83,7.02,19.57,17.2,21.44,28.38,30.48-2.8,58.34-12.88,84.41-29.02,35.75-22.13,71.15-44.84,106.37-67.83,1.61-3.52,3.56-6.88,5.85-10.01,9.49-12.99,23.44-20.14,39.07-22.89.98-.17,1.98-.19,2.95-.05,6.45-21.07,7.11-43.21,7.51-65.09.18-9.81.2-19.79,1.69-29.5,1.3-8.45,3.99-17.31,11.08-22.72,4.6-3.5,10.16-4.82,15.87-4.62,1.89.07,3.77.31,5.61.74,14.28,3.31,22.9,16.47,28.28,29.13,5.88,13.83,9.31,29.43,11.67,44.45,1.69-1.63,3.39-3.25,5.09-4.86,13.53-12.79,27.68-25,42.69-36.04,23.06-16.97,50.81-28.98,79.67-30.23,23.63-1.02,48.04,5.66,65.38,22.35,16.32,15.7,23.35,37.36,22.86,59.69-.66,30.07-14.2,60.04-30.14,85.03-22.09,34.65-53.11,63.01-86.23,86.92-15.29,11.04-31.17,21.23-47.33,30.94-3.49,2.09-6.99,4.16-10.5,6.22-.08,3.88-1.24,7.7-3.01,11.14-1.5,2.91-3.72,6.05-6.22,8.18-11.67,9.95-29.3,14.71-44.43,14.92-2.39.03-4.79-.04-7.18-.21-24.61,12.52-50.04,23.49-76.07,32.69-22.6,7.99-45.73,14.63-69.18,19.62-.82.81-1.95,1.28-3.14,1.28-.83,0-1.66-.04-2.49-.12-55.65,11.18-114.76,13.15-169.74-2.53-.35,1.26-.87,2.46-1.54,3.59-1.5,2.53-3.65,4.6-6.06,6.26-.73,5.41-1.58,10.81-2.55,16.19-8.83,49.1-28.04,98.42-62.35,135.42-21.36,23.04-47.08,39.75-76.89,49.56-7.24,22.55-27.06,38.21-47.8,48.27,21.64,22.53,42.68,45.63,63.1,69.26.96,1.11,1.92,2.22,2.87,3.33,2.32-1.09,4.64-2.17,6.96-3.25,21.38-9.89,43.15-19.17,65.58-26.41,9.96-3.21,20.06-6.02,30.31-8.12,24.3-4.96,49.54-5.85,73.24,2.44,22.6,7.91,40.61,22.91,55.71,41.17,28.64,34.65,55.64,70.64,81.69,107.27,12.11,17.03,24.08,34.16,35.59,51.61,2.26,3.43,1.95,7.9-.76,10.98-2.71,3.08-7.1,3.96-10.79,2.15l-150.92-73.94-75.01,41.92c12.09,18.07,24.4,35.97,36.21,54.23,16.94,26.19,33.25,53.43,45.63,82.11l.25.57c.35.8.69,1.6,1.03,2.41.18.42.35.83.53,1.25.21.51.42,1.01.63,1.52,5.94,14.4,10.95,29.37,13.95,44.68l.03.12c.54,2.75,1.01,5.51,1.45,8.28l.03.19c.09.6.17,1.2.25,1.8.07.48.13.97.2,1.45.07.52.13,1.03.19,1.55.07.57.13,1.15.19,1.72.05.46.1.92.14,1.37.07.67.12,1.35.18,2.02.03.37.06.73.09,1.1.08,1.05.15,2.1.21,3.15.02.3.03.59.04.89,0,0,0,0,0,0,.03.58.04,1.16.05,1.74v.08c0,.28.01.56.01.84v.04c0,.27,0,.54,0,.8v.11h0c0,.27,0,.54,0,.82v.02c0,.28-.01.56-.02.84v.11c-.01.27-.02.54-.03.81v.09c-.01.25-.03.51-.04.77v.13c-.02.25-.03.5-.05.76v.06s0,.03,0,.05v.02c-.02.21-.03.43-.05.64,27.65.22,57.58,3.56,82.72,15.22,22.09,10.24,37.78,25.61,49.2,47.03,7.96,14.92,13.01,31.06,18.3,47.06,8.1,24.52,16.59,48.14,37.54,64.75,5.33,3.68,11.98,5.39,18.34,6.16,2.36.28,4.7.43,7.07.56,1.87.11,4.59.05,4.98,2.54.1.63-.04,1.28-.38,1.82-5.4,8.63-12.61,15.39-22.52,18.31-7.05,2.08-13.85,1.81-21.05,1.08-10.36-1.04-19.95-4.29-28.36-9.5,22.44,29.22,29.39,67.71,26.51,106.64-1.53,20.58,4.23,38.23,23.82,47.54,10.13,4.05,20.52,6.31,31.35,7.39,3.3.33,6.61.51,9.9.82,2.22.21,5.67.46,6.11,3.25.1.63-.02,1.2-.35,1.74-7.91,12.88-26.89,16.95-40.82,18.38-11.42,1.18-23.33,1.05-34.77.1-40.74-3.36-73.83-22.28-89.65-61.2-5.83-14.34-15.31-33.86-27.32-43.89-1.42-1.19-3.17-2.35-4.79-3.22-.96-.51-2.09-1.04-3.16-1.27-.21-.04-.99-.17-1.17-.05-.37.37-.53,1.83-.55,2.32-.1,3.26,1.42,6.93,3.04,9.7,8.71,14.94,10.3,31.65,5.01,48.07-2.27,7.04-6.21,15.11-10.91,20.84-1.68,2.05-3.35,4.08-5.18,6.01-2.18,2.29-6.28,6.5-9.79,5.43-3.92-1.19-3.62-7.17-3.46-10.41.07-1.34.17-2.68.25-4.02.05-.78.13-1.76.06-2.53-.69-7.26-4.49-16.67-8.24-22.91-10.07-16.73-26.11-25.18-45.14-27.67-70.62-9.21-108.81-73.3-110.04-140-.39.07-.79.14-1.18.21-.22.04-.44.07-.66.11-.3.05-.6.1-.9.15-.24.04-.48.07-.73.11-.27.04-.54.08-.81.12-.26.04-.53.07-.79.11-.26.04-.52.07-.78.11-.22.03-.45.06-.67.09-.3.04-.6.08-.9.12-.22.03-.44.05-.66.08-.3.04-.6.07-.89.11-.23.03-.46.05-.7.08-.29.03-.57.06-.86.09-.24.02-.48.05-.71.07-.28.03-.57.06-.85.08-.22.02-.44.04-.66.06-.31.03-.62.06-.93.08l-.62.05c-.32.02-.63.05-.95.07l-.61.04c-.31.02-.62.04-.93.06l-.66.04c-.3.02-.6.04-.9.05l-.64.03c-.32.02-.64.03-.96.04l-.57.02c-.33.01-.65.03-.98.04l-.62.02c-.31,0-.63.02-.94.03h-.61c-.32.02-.64.03-.96.03h-.6c-.32.01-.64.02-.96.02h-.62c-.32,0-.63,0-.95,0h-.59c-.32,0-.64,0-.96,0h-.63c-.31-.01-.62-.02-.94-.02h-.62c-.31-.02-.62-.03-.93-.04l-.63-.02c-.31,0-.62-.02-.92-.03l-.65-.02c-.31-.01-.63-.03-.94-.04l-.59-.03c-.34-.02-.68-.03-1.02-.05l-.55-.03c-.33-.02-.66-.04-.99-.06l-.58-.04c-.32-.02-.64-.04-.96-.07l-.6-.04c-.34-.02-.68-.05-1.01-.08l-.54-.04c-.31-.02-.63-.05-.94-.08l-.65-.05c-.25-.02-.5-.05-.75-.07-.27-.02-.54-.05-.81-.07-.24-.02-.48-.05-.72-.07-.27-.03-.55-.05-.82-.08-.51-.05-1.03-.11-1.54-.16-.51-.06-1.02-.11-1.53-.17-.37-.04-.74-.09-1.11-.13l-.42-.05c-.46-.06-.92-.12-1.39-.18l-.12-.02c-.4-.05-.8-.11-1.2-.16l-.36-.05c-.35-.05-.71-.1-1.06-.15l-.48-.07c-.37-.05-.74-.11-1.1-.16l-.42-.06c-.4-.06-.8-.12-1.2-.19l-.3-.05c-.42-.07-.84-.13-1.25-.2l-.27-.04c-.43-.07-.87-.14-1.3-.22l-.21-.03c-.43-.07-.85-.15-1.28-.22l-.25-.04c-.46-.08-.92-.17-1.38-.25h-.08c-.46-.1-.92-.19-1.38-.27l-.16-.03c-.46-.09-.91-.17-1.37-.26l-.13-.02c-.99-.19-1.97-.39-2.96-.59h0c-9-1.89-17.92-4.17-26.75-6.72h-.04c-.47-.15-.93-.29-1.4-.42-12.3-3.63-24.45-7.77-36.48-12.21l-1.16-.43c-14.99-5.53-29.81-11.5-44.62-17.51l-1.36,51.86,135.6,99.28c3.33,2.44,4.59,6.7,3.11,10.55-1.48,3.85-5.26,6.19-9.37,5.78-20.79-2.08-41.53-4.73-62.23-7.54-44.54-6.04-88.95-13.23-132.94-22.49-23.19-4.88-44.84-13.85-62.34-30.2-26.17-24.43-37.16-60.03-43.09-94.32-4.02-23.23-5.91-46.82-7.09-70.34-.37-7.37-.66-14.74-.89-22.12-82.46-40.89-162.19-87.58-237.08-141.15-95.98-68.64-184.55-149.07-257.21-242.31-58.44-75-106.73-158.65-137.7-248.74C13.82,619.17.42,550.32.01,481.32v-.68c0-.75-.01-1.5-.01-2.25v-1.13c0-.68,0-1.36,0-2.04,0-.49,0-.97,0-1.46,0-.59,0-1.19.02-1.78.01-1.02.03-2.05.04-3.07,0-.47.02-.93.03-1.4.01-.68.03-1.35.04-2.03.01-.47.02-.94.04-1.41.02-.66.03-1.33.05-1.99l.04-1.39c.02-.74.05-1.48.08-2.21l.04-1.11c.04-1.12.09-2.25.14-3.37l.25-5.52c.06-1.26,1-2.28,2.26-2.43l5.49-.65c2-.24,4.01-.46,6.02-.68l.15-.02c1.97-.22,3.94-.42,5.91-.62l.24-.03c1.96-.2,3.92-.39,5.88-.57l.26-.02c1.96-.19,3.93-.36,5.9-.53l.21-.02c1.97-.17,3.94-.33,5.91-.48l.21-.02c1.99-.16,3.98-.3,5.97-.44h.12c53.38-3.67,106.93-1.69,159.93,5.57,12.56-13.96,27.64-24.68,44.8-32.35,26.81-11.98,56.68-15.77,85.81-16.11,18.45-.22,36.84.99,55.21,2.58h0ZM1298.28,1453.28c-4.13-5.14-9.7-10.3-15.77-11.96-.45-.12-1.42-.28-2.4-.36,1.49,1.5,3.52,2.82,5.2,3.78,4.61,2.64,8.93,5.49,12.97,8.53h0ZM1081.83,1564.4c-.75-.92-2-1.2-3.07-.69-1.08.51-1.65,1.65-1.42,2.82l13.55,68.06c.17.87.73,1.54,1.55,1.87.82.33,1.69.24,2.42-.27l26.89-18.6c.61-.42.98-1.01,1.08-1.75.1-.73-.08-1.41-.55-1.98l-40.43-49.46h0ZM1196.73,1233.4c-1.13.47-1.76,1.63-1.54,2.84.22,1.2,1.23,2.06,2.46,2.09l101.01,2.31c1.07.03,2-.58,2.42-1.57.42-.99.2-2.08-.57-2.83l-31.76-30.99c-.75-.73-1.8-.93-2.77-.53l-69.25,28.69h0ZM1008.58,1458.74c-.41-1.22-1.63-1.94-2.89-1.71s-2.15,1.34-2.1,2.62l5.17,130.88c.04,1.11.75,2.02,1.81,2.35l42.73,13.15c.94.29,1.9.05,2.58-.66s.91-1.66.6-2.6l-47.9-144.03h0ZM1218.65,1252.69c-1.28-.2-2.49.56-2.85,1.8-.37,1.24.23,2.54,1.41,3.07l149.35,66.35c.9.4,1.88.27,2.64-.34s1.1-1.54.9-2.51l-9.02-44.14c-.22-1.07-1.03-1.85-2.11-2.02l-140.33-22.22h0ZM541.69,564c39.37,21.82,77.51,45.86,114.4,71.65,5.63-3.72,11.59-6.91,17.85-9.44-4.43-22.4-5.94-45.36-4.81-68.16.79-15.9,2.86-31.74,6.15-47.31-9.24,5.63-18.73,10.84-28.41,15.68-.66.63-1.5,1.05-2.41,1.19-29.29,14.4-60.49,25.6-92.07,33.76-3.56.92-7.13,1.8-10.71,2.64Z"/>
  <g>
    <path class="st16" d="M629.4,663.69c15.13-18.58,35.17-34.22,60.4-39.73,20.27-4.42,40.89-1.54,59.37,7,17.25,7.97,32.23,20.73,42.17,35.81,9.37,14.21,14.65,31.2,11.42,47.76-6.01,30.85-37.47,45.65-68.45,51.39-15.58,2.88-30.85,1.79-44.76-5.58-24.81-13.15-38.48-43.27-49.17-66.29-3.79-8.14-7.52-16.32-11.63-24.33-1.04-2.01-.79-4.22.67-6.01Z"/>
    <path class="st14" d="M634.63,667.2c21.85-26.83,46.7-38.12,70.28-39.26-1.2,11.83,14.28,16.73,34.84,25.87,19.38,8.61,38.2,52.71,53.26,29.87,12.18,30.99-.62,65.45-60,76.43-59.95,11.09-75.33-48.06-98.37-92.92Z"/>
    <path class="st16" d="M844.87,1449.17l136.69,100.07c2.4,1.76,3.3,4.8,2.23,7.57-1.06,2.78-3.76,4.44-6.72,4.14-20.72-2.08-41.52-4.73-62.15-7.53-44.41-6.03-88.9-13.23-132.76-22.46-22.73-4.79-43.96-13.54-61.12-29.56-25.72-24.01-36.48-59.2-42.31-92.89-3.99-23.05-5.89-46.69-7.06-70.03-1.46-29.21-1.74-58.54-1.74-87.77,0-1.88.7-3.49,2.08-4.77,1.38-1.28,3.04-1.86,4.91-1.72l166.82,12.45c3.46.26,6.11,3.18,6.02,6.66l-4.89,185.83Z"/>
    <path class="st2" d="M676.43,1250.72c0,174.29,12.45,253.97,107.06,273.89,94.62,19.92,194.21,29.88,194.21,29.88l-139.43-102.09,4.98-189.23-166.82-12.45Z"/>
    <path class="st21" d="M934.86,1549.49c-86.35-81.19-186.29-133.34-223.92-113.4,6.3,31.1,18.53,61.2,42.17,78.82,9.05,4.12,19.14,7.33,30.39,9.7,55.91,11.77,113.55,20.06,151.36,24.88Z"/>
    <path class="st16" d="M274.13,490c-9.24-.84-18.49-1.45-27.76-1.9-7.99-.39-15.99-.62-23.98-1.02-5.42-.27-11.38-.56-16.69-1.69-4.66-1-9.42-2.91-11.6-7.5-3.68-7.75,3.31-16.79,7.88-22.55,13.22-16.64,29.71-29.15,49.08-37.81,26.46-11.83,56.04-15.54,84.79-15.88,32.31-.38,63.87,3.61,95.96,6.27,37.41,3.11,74.96,5.71,112.53,5.51,18.38-.1,36.89-3.92,54.42-9.23,15.85-4.8,31.41-10.83,46.67-17.25,24.53-10.32,48.43-21.92,72.76-32.64,9.78-4.31,19.77-8.56,29.9-11.98,7.25-2.44,15.92-4.95,23.61-4.98,2.06,0,3.84.85,5.12,2.47,1.28,1.62,1.7,3.55,1.22,5.56l-14.96,62.02c-9.32,38.63-42.8,70.08-74.47,91.67-40.55,27.65-89.5,47.56-136.89,59.8-24.09,6.22-48.76,10.72-73.54,13.06-23.48,2.23-47.39,2.56-70.87.1-40.45-4.24-83.07-17.35-111.45-48.01-9.29-10.03-16.56-21.46-21.77-34.03Z"/>
    <path class="st4" d="M771.76,343.86c-29.38.08-104.68,46.45-171.09,66.56-18.85,5.71-37.87,9.41-56.27,9.51-38.44.2-77.26-2.56-113.1-5.54-69.14-5.74-170.06-23.15-224.21,44.99-21.85,27.49,4.51,17.89,71.63,24.52,60.98,162.82,444.76,60.05,478.08-78.02l14.96-62.02Z"/>
    <path class="st10" d="M458.73,566.81c128.04-6.1,277.81-76.99,298.07-160.92l6.94-28.76c-5.04-1.62-13.12,3.62-24.96,18.21-75.87,93.48-186.96,105.67-264.18,104.32-6.56,28.05-11.84,49.92-15.88,67.16Z"/>
    <path class="st16" d="M793.05,505.5c-30.18-3.48-60.73-14.39-76.48-42.19-11.32-19.99-12.16-44.01-8.53-66.19,3.28-20,12.74-38.73,27.05-53.1,13.27-13.32,30.64-22.71,49.51-24.53,20.24-1.95,38.89,5.11,53.92,18.58,8.07,7.24,19.88,19.05,20.69,30.46.23,3.23-.56,6.37-2.93,8.69-5.49,5.37-15.32,2.04-21.64.07-8.45-2.63-16.71-5.58-25.44-7.24-13.02-2.48-26.06-2.06-34.54,9.55-4.11,5.62-6.53,11.95-7.27,18.87-1.23,11.4,2.19,23.16,7.3,33.26,6.6,13.04,20,29.76,33.82,35.58,2.69,1.13,5.35,2.35,7.96,3.63,5.99,2.95,12.28,6.47,17.53,10.6,4.65,3.65,10.07,9.11,8.61,15.63-1.61,7.15-9.76,9.06-15.99,9.7-10.57,1.09-23.06-.16-33.58-1.37Z"/>
    <path class="st6" d="M793.79,499.04c70.45,8.13,37.93-14.9,12.19-25.74-25.74-10.84-62.32-62.32-36.58-97.54,25.74-35.22,84.67,12.19,83.32-6.77-.56-7.8-8.91-17.44-18.55-26.08-45.8-41.05-110.14-3.23-119.72,55.26-6.51,39.73.79,91.81,79.33,100.87Z"/>
    <path class="st14" d="M783.79,456.29c-18.96-20.95-33.04-55.01-14.38-80.53,21.49-29.41,66.11-1.22,79.47-2.14,1.73-4.75,1.43-9.9-.32-14.95-3.45-5.21-8.69-10.66-14.38-15.76-6.6-5.92-13.58-10.18-20.73-13-6.12-.61-11.88.97-16.25,5.65-16.54,17.72-51.64,31.84-67.98,25.72-7.29,10.67-12.52,23.21-14.76,36.89-4.7,28.67-2.2,63.76,29.06,84.49,13.34-4.47,27.16-14.29,40.27-26.37Z"/>
    <path class="st16" d="M396.8,399.48c12.87-5.34,26.52-6.83,40.01-2.94,22.81,6.59,38.72,26.5,48.16,47.35,11.86,26.16,15.44,56.81,13.15,85.25-2.08,25.92-12.69,51.92-36.11,65.39-7.35,4.23-16.16,7.15-24.71,7.04-7.02-.08-15-2.44-18.25-9.29-3.2-6.74.04-13.75,4.52-18.96,7.06-8.23,11.14-24.46,12.97-34.9,3.09-17.56,3.45-36.48,1.17-54.16-3.58-27.87-14.81-59.34-41.4-73-2.31-1.18-3.63-3.46-3.53-6.05.11-2.59,1.61-4.75,4.01-5.74Z"/>
    <path class="st6" d="M399.29,405.48c60.09,30.85,52.43,145.03,29.22,172.07-23.21,27.04,56.71,31.05,63.14-48.94,6.43-79.99-36.87-146.15-92.35-123.13Z"/>
    <path class="st14" d="M399.29,405.48c60.09,30.85,52.43,145.03,29.22,172.07-23.21,27.04,56.71,31.05,63.14-48.94.46-5.79.66-11.5.62-17.11-16.73,1.08-33.15-5.96-34.6-23.38-3.05-36.58-18.63-60.62-26.76-71.46-3.66-4.87-12.31-10.22-22.69-14.15-2.93.74-5.91,1.71-8.92,2.96Z"/>
    <path class="st19" d="M474.8,539.67c-5.15,85.75-36.13,170.53-96.07,235.94-52.33,57.12-126.74,99.46-225.28,114.77l-.16.02-.09-.13c-51.65-73.17-88.13-146.59-111.5-217.39-25.47-77.17-35.37-151.24-32.37-218.5v-.22s.23-.03.23-.03c79.35-9.35,156.54-5.69,230.83,7.93,81.96,15.03,160.38,42.18,234.27,77.35l.16.07v.17h-.01ZM378.35,775.27c59.81-65.28,90.75-149.88,95.92-235.46-73.8-35.12-152.13-62.23-233.98-77.24-74.17-13.6-151.24-17.27-230.47-7.95-2.97,67.15,6.93,141.08,32.35,218.1,23.34,70.71,59.77,144.04,111.34,217.12,98.34-15.31,172.6-57.58,224.83-114.59Z"/>
    <path class="st16" d="M959.65,46.28c40.79,3.71,79.33,27.4,109.62,53.73,26.53,23.06,51.26,51.92,69.66,81.9,7.04,11.48,13.81,24.12,18.25,36.86,2.88,8.24,5.82,19.6,3.07,28.21-7.46,23.32-59.1,65.27-78.49,80.53-18.15,14.28-37.08,28.15-56.51,40.64-7.4,4.76-15.01,9.43-22.81,13.49-4.79,2.49-11.27,5.69-16.62,6.53-13.83,2.18-27.86,2.09-41.68-.14-59.02-9.53-108.24-56.12-129.08-110.99-6.42-16.92-9.61-34.97-10.11-53.03-.51-18.42,1.77-36.98,6.42-54.8,11.54-44.23,38.96-87.55,80.19-109.36,21.07-11.15,44.36-15.74,68.1-13.58Z"/>
    <path class="st8" d="M959.07,52.65c104.32,9.48,205.92,158.51,195.08,192.37-10.84,33.87-143.61,132.76-169.34,136.83-68.99,10.89-137.72-38.49-163.77-107.09-35.54-93.57,29.48-231.99,138.03-222.12Z"/>
    <path class="st16" d="M1276.01,1439.2c0,.55.7,1.66.97,2.03,1.68,2.33,4.61,4.34,7.07,5.75,49.04,28.02,63.84,80.71,59.87,134.22-1.62,21.8,4.8,40.35,25.35,50.07,24.89,9.97,45.48,7.11,45.86,9.52-11.87,19.32-53.1,18.94-73.2,17.28-39.65-3.27-72-21.5-87.49-59.61-5.93-14.61-15.66-34.55-28.05-44.89-2.08-1.73-9.33-6.91-12.35-4.58-1.15.89-1.49,2.91-1.53,4.25-.12,3.78,1.51,7.87,3.39,11.07,8.37,14.34,9.85,30.28,4.78,46-2.12,6.58-6.01,14.58-10.45,20.01-2.01,2.46-9.2,11.54-12.25,10.61-3.04-.93-1.04-11.58-1.34-14.75-.72-7.61-4.73-17.56-8.6-23.99-10.46-17.38-27.15-26.3-47-28.88-111.08-14.49-138.53-166.93-72.2-242.47,19.98-22.76,52.78-46.83,84.06-48.15,33.32-1.41,72.1.33,102.86,14.59,21.62,10.02,36.86,24.99,48.02,45.91,7.88,14.79,12.89,30.81,18.13,46.65,8.29,25.07,16.95,49,38.45,66,12.33,8.58,30.03,6.59,29.36,7.66-12.82,20.48-29.67,19.37-41.14,18.21-18.83-1.9-35-11.34-45.91-26.85-4.57-6.49-11.53-13.84-19.48-16-1.35-.37-6.07-1.06-7.18.34Z"/>
    <path class="st0" d="M1142.04,1565.68c57.27,7.47,62.25,59.76,62.25,59.76,0,0,22.41-27.39,4.98-57.27-17.43-29.88,19.92-52.29,52.29,27.39,32.37,79.68,138.19,49.8,138.19,49.8,0,0-68.47,2.49-63.49-64.74,4.98-67.23-21.17-107.07-56.02-126.99-29.8-17.03,2.62-40.28,28.71-3.2,22.59,32.1,62.54,24.86,67.82,18.1.05-.06-16.11-2.69-21.17-6.68-71.33-56.41-10.55-179.65-202.36-171.51-29.87,1.27-61.12,25.62-78.62,45.55-62.17,70.82-37.59,216.09,67.42,229.79Z"/>
    <path class="st3" d="M1108.94,1332.91c-7.31,5.93-7.74,25.79-13.07,31.74-33.34,49.71-61,120.22,23.1,149.22,39.29,13.55,50.13,37.93,50.13,37.93,0,0,5.42-27.09-10.84-44.71-16.26-17.61,27.09-28.45,66.38,10.84,39.29,39.29,37.93,51.48,52.83,86.7,14.9,35.22,71.8,39.29,71.8,39.29,0,0-46.06-27.09-43.35-69.09,2.71-42-12.19-97.54-39.29-113.8-27.09-16.26-50.12-44.71-35.22-48.77,14.9-4.06,47.42-8.13,83.99,27.09,18.55,17.86,2.72.19-6.13-19.63-20.44-45.76-60.71-91.28-100.55-102.82-30.13-8.73-62.62-6.94-99.8,16Z"/>
    <path class="st12" d="M1093.91,1390.59c-19.64,43.35,6.1,71.8,20.32,73.16,14.22,1.35,26.42,20.32,26.42,20.32,0,0,4.74-3.39-4.74-24.39-9.48-21,25.74-21,53.51,9.48,27.77,30.48,67.74,29.13,82.64,43.35,14.9,14.22,14.9,23.71,14.9,23.71,0,0,9.48-30.48-28.45-59.61-37.93-29.13-66.38-67.06-53.51-79.25,12.87-12.19,35.22-15.58,60.29-3.39,25.06,12.19-95.51-144.28-171.38-3.39Z"/>
    <path class="st16" d="M1147.97,1015.77l-162.27,90.68c-3.03,1.69-6.85.71-8.69-2.24l-88.54-141.93c-.99-1.59-1.25-3.33-.76-5.14.49-1.81,1.59-3.18,3.25-4.06,25.89-13.59,51.99-26.97,78.53-39.25,21.21-9.81,43.03-19.11,65.29-26.29,32.54-10.49,68.7-17.31,101.91-5.7,22.16,7.75,39.78,22.48,54.58,40.39,28.56,34.55,55.6,70.59,81.58,107.12,12.06,16.96,24.08,34.15,35.54,51.53,1.64,2.48,1.42,5.64-.55,7.88-1.96,2.23-5.07,2.85-7.74,1.54l-152.13-74.53Z"/>
    <path class="st2" d="M893.98,958.84c154.33-80.99,230.67-106.99,292.27-32.46,61.6,74.53,116.7,158.09,116.7,158.09l-155.19-76.03-165.25,92.34-88.54-141.93Z"/>
    <path class="st16" d="M8.82,447.94c293.96-34.66,566.12,107.13,780.67,296.16,59.42,52.35,115.36,109.09,167.15,169,40.29,46.61,78.94,95.92,113.13,147.21,38.86,58.29,97.92,138.47,101.89,209.93,1.02,18.33-5.31,37.34-13.42,53.54-9.46,18.9-22.56,36.66-36.94,52.1-22.74,24.41-57.12,51.34-90.72,57.38-33.03,5.94-66.98-.14-98.77-9.53-35.84-10.59-70.79-25.66-105.47-39.53-138.17-55.27-272.51-124.23-393.72-210.91-95.74-68.47-184.2-148.79-256.68-241.8-58.26-74.76-106.42-158.19-137.3-247.99C13.41,610.09-.38,531.83,3.09,454.11l.25-5.52,5.49-.65Z"/>
    <path class="st1" d="M9.58,454.4c-12.45,278.87,196.7,674.76,819.18,923.75,72.7,29.08,140.14,59.58,200.67,48.7,59.51-10.7,138.99-97.58,135.74-156.25-3.85-69.35-62.37-149.02-100.81-206.68-55.28-82.93-152.05-202.93-279.17-314.94C586.59,574,313.9,418.52,9.58,454.4Z"/>
    <path class="st22" d="M55.01,709.17c90.87,233.4,324.79,489.4,773.75,668.98,72.7,29.08,140.14,59.58,200.67,48.7,34.71-6.24,76.2-38.4,104.12-75.75-186.33-54.75-759-338.1-841.47-719.51-86.25,26.91-165.04,52.71-237.08,77.58Z"/>
    <path class="st11" d="M405.52,509.73c-6.79-2.65-13.61-5.23-20.46-7.73-31.43,5.06-11.31,60.81-33.51,143.78-25.74,96.19-146.31,154.44-146.31,154.44,0,0-120.57,101.61,25.74,29.8,141.58-69.48,184.21-254.39,174.55-320.29Z"/>
    <path class="st22" d="M894.01,853.77c-7.65-8.03-15.46-16.08-23.45-24.15-16.39-.78-98.78-64.57-143.71-107.19-23-21.82-26.19-42.59-26.41-37.19-2.8,68.17,74.55,110.23,76.44,132.48,5.44,64.24-20.39,92.13-15.71,124.91,8.13,56.9-20.32,159.86-35.22,203.21-14.9,43.35,14.9,86.7,14.9,86.7,0,0,144.96-98.9,167.99-132.76,23.03-33.87,17.61-67.74-42-132.76-59.61-65.03-28.45-71.8-28.45-71.8,0,0,33.48-21.11,55.63-41.45Z"/>
    <path class="st11" d="M93.8,793.53c111,209.05,339.58,426.47,734.96,584.62,72.7,29.08,140.14,59.58,200.67,48.7,16.04-2.88,33.53-11.31,50.46-23.22-75.66-9.71-158.53-52.68-158.53-52.68-175.53-63.13-719.17-373.58-677.37-582.54-57.25,6.84-107.02,15.29-150.19,25.12Z"/>
    <path class="st16" d="M833.9,1374.36c95.06-19.24,165.3-73.25,208.33-159.67,12.81-25.73,22.28-52.55,29.77-80.25,2.3-8.5,4.33-17.08,6.62-25.57,1.43-5.29,4.51-19.47,4.13-24.45-.19-2.58,11.04,11.59,12.44,13.7,32.08,48.12,73.2,113.16,76.47,172.13,1.02,18.33-5.31,37.34-13.42,53.54-9.46,18.9-22.56,36.66-36.94,52.1-22.74,24.41-57.12,51.34-90.72,57.38-32.01,5.75-64.85.22-95.76-8.65-34.71-9.97-68.59-24.37-102.07-37.84-2.71-1.09-20.34-10.03-17.43-10.18,3.82-.2,15.7-1.64,18.56-2.22Z"/>
    <path class="st17" d="M835.19,1380.73c70.25,28.27,135.5,56.68,194.25,46.12,59.51-10.7,138.99-97.58,135.74-156.25-3.06-55.19-40.75-116.92-75.39-168.88-9.9-14.85-16.54,230.83-254.6,279.01Z"/>
    <path class="st5" d="M835.19,1380.73c70.25,28.27,135.5,56.68,194.25,46.12,24.78-4.45,53.01-22.12,77.3-45.45-40.9,6.83-92.96-12.94-153.25-50.57-31.21,22.22-69.99,40.13-118.3,49.9Z"/>
    <path class="st5" d="M980.58,1427.66c16.74,2.05,33.03,2.03,48.85-.81,59.51-10.7,138.99-97.58,135.74-156.25-.77-13.84-3.72-28.1-8.25-42.51-10.5,55.51-34.99,117.05-94.67,158.77-31.92,22.31-60.29,33.99-81.68,40.81Z"/>
    <path class="st16" d="M1090.34,261.57c-67.45,68.12-152.73,141.3-178.75,223.98-10.43,33.17-76.51,10.35-96.84-8.71-41.01-38.46,91.1-148.72,167.7-195.63,21.83-13.37,41.04-19.59,48.13-19.99,27.08-1.54,58.16,4.66,59.76.35Z"/>
    <path class="st16" d="M1070.31,270.4c-9.96-.71-19.9-1.49-29.9-1.51-3.13,0-6.26.06-9.38.24-4.51.26-11.93,2.98-16.12,4.61-9.8,3.81-19.37,8.74-28.33,14.23-28.24,17.29-55.89,37.65-81.39,58.75-13.26,10.97-26.21,22.43-38.5,34.48-10.89,10.67-21.51,22-30.85,34.07-8.39,10.85-25.58,35.25-19.71,50.01.89,2.24,2.28,4.15,4.03,5.79,8.75,8.21,24.3,15.1,35.62,18.7,12.23,3.89,42.74,10.93,48.25-6.59,9.59-30.49,26.54-58.61,45.62-84.05,20.52-27.36,44.17-52.61,68.2-76.89,17.29-17.47,34.97-34.54,52.44-51.83Z"/>
    <path class="st16" d="M1053.4,77.65c60.8,22.52,91.84,90.08,69.32,150.88-22.52,60.8-90.08,91.84-150.88,69.32-60.8-22.52-91.84-90.08-69.32-150.88,22.52-60.8,90.08-91.84,150.88-69.32Z"/>
    <path class="st14" d="M1050.1,86.56c-55.89-20.7-117.97,7.82-138.68,63.71-20.7,55.89,7.82,117.97,63.71,138.67,55.89,20.7,117.97-7.82,138.67-63.71,20.7-55.89-7.82-117.97-63.71-138.68Z"/>
    <path class="st6" d="M1050.1,86.56c-49.66-18.39-101.54,1.1-128.31,42.9-10.95,51.53,17.24,104.65,68.11,123.5,32.07,11.88,58.04,10.96,83.85-7.5,19.29-13.8,5.61-86.29-41.56-138.35,10.95-51.53,67.58-2.14,17.92-20.54Z"/>
    <path class="st16" d="M954.33,91.56c-22.49,11.99-40.85,43.51-46.05,57.55-5.2,14.03,1.54,5.74.86,8.04,30.29-13.72,34.63-4.51,42.73,5.42,8.36,10.24,2.56,31.68,29.84,46.79,27.28,15.11,82.39-15.94,70.26-46.88-9.56-24.4-49.33-56.36-83.9-68.03-2.1-.71-11.68-2.33-13.74-2.89Z"/>
    <path class="st6" d="M970.62,298.11c6.54,2.78,14.68,6.93,22.64,12.32,6.99,4.73,13.88,10.42,19.51,16.99-1.48,1.51-2.96,3.02-4.44,4.54-5.29-6.29-11.89-11.75-18.59-16.29-9.41-6.37-18.95-10.89-25.47-13.32,2.12-1.43,4.23-2.84,6.36-4.23h0ZM939.48,319.86c-2.11,1.56-4.2,3.13-6.29,4.7,8,2.12,16.16,5.93,24.05,11.33,8.86,6.06,17.37,14.1,24.9,23.98,1.43-1.59,2.87-3.18,4.31-4.76-7.79-10.02-16.53-18.21-25.64-24.44-6.97-4.76-14.16-8.39-21.33-10.81h0ZM902.98,348.57c10.55,4.42,20.57,9.6,30.03,15.73,9.57,6.2,18.53,13.38,26.85,21.72-1.33,1.65-2.64,3.31-3.95,4.98-8.14-8.25-16.92-15.31-26.31-21.39-9.99-6.48-20.7-11.87-32.08-16.43,1.82-1.54,3.64-3.08,5.46-4.6h0ZM869.53,378.45c-.95.91-1.89,1.83-2.83,2.75-.55.54-1.09,1.08-1.64,1.62,5.25,4.12,13.05,9.17,21.77,14.37,15.74,9.4,34.68,19.54,46.48,25.41,1.14-1.78,2.31-3.56,3.48-5.32-11.53-5.7-30.76-15.98-46.74-25.52-8.36-4.99-15.75-9.71-20.52-13.31h0ZM841.53,408.2c5.91,7.51,17.89,15.69,31.38,22.66,15.97,8.25,33.83,14.62,46.24,16.14-1.01,1.95-1.99,3.92-2.95,5.89-13.19-2.08-30.66-8.38-46.19-16.41-13.41-6.92-25.51-15.23-32.46-23.37,1.31-1.65,2.63-3.29,3.98-4.91Z"/>
    <path class="st15" d="M1100.23,223.18c1.97-5.37-7.71-23.52-6.66-28.7,7.48-36.92-7.93-68.9-38.88-93.94-20.42-16.53,4.62,4.85-16.24-13.21,14.28,2.86,17.07,3.67,29.6,12.09,41.04,27.58,54.49,71.79,41.01,118.52-2.11,5.52-3.22,14.73-8.74,12.62-5.52-2.11-2.2-1.86-.09-7.38Z"/>
    <path class="st16" d="M813.9,326.81l236.27,65.03c1.67.46,2.94,1.42,3.84,2.9,16.29,26.88,24.88,62.69,28.87,93.59,5.1,39.46,4.16,80.97-2.89,120.13-8.74,48.59-27.75,97.51-61.7,134.14-53.21,57.4-126.58,67.55-200.62,53.39-7.02-1.34-14.49-2.74-21.32-4.88-4.35-1.36-8.26-3.05-11.88-5.88-3.32-2.6-6.23-5.98-9.2-8.98-5.21-5.27-10.8-10-16.67-14.52-28.86-22.19-51.01-50.83-65.8-84.05-25.99-58.41-27.29-126.4-9.81-187.37,19.47-67.9,62.92-129.61,126.14-162.98,1.52-.8,3.1-.97,4.76-.52Z"/>
    <path class="st4" d="M812.17,333.08c-148.03,78.13-186.9,317.95-49.61,423.49,32.5,24.99,16.06,25.32,56.32,33.03,278.33,53.23,293.29-286.31,229.55-391.49l-236.27-65.03Z"/>
    <path class="st10" d="M812.17,333.08c-6.86,3.62-13.49,7.59-19.87,11.88,51.96,81.86,204.37,143.03,278.37,112-5.37-23.28-12.96-43.56-22.23-58.85l-236.27-65.03h0ZM701.33,680.56c13.89,29.05,34.11,55.16,61.24,76.02,32.5,24.99,16.06,25.32,56.32,33.03,206.89,39.57,268.24-137.86,259.93-274.75-26.61-13.61-60.1-10-92.13,20.03,42.99,167.17-181.92,268.18-285.37,145.69Z"/>
    <path class="st16" d="M1057.3,366.69c11.45-.32,25.44.61,32.47,11.1.9,1.35,1.62,2.8,2.13,4.34,2.27,6.87.1,14-3.66,19.88-4.47,6.99-11.37,12.78-18.34,17.15-21.34,13.41-49.08,16.96-73.82,16.44-29.69-.62-60.31-7-88.4-16.45-30.17-10.14-60.92-25.01-86.19-44.51-20.52-15.84-41.02-37.76-46.71-63.86-2.54-11.67,0-23.3,10.75-29.8,9.48-5.72,25.5-6.03,33.53,2.27,9.92,10.27,20,20.43,30.41,30.2,8.23,7.72,16.73,15.25,25.66,22.16,13.76,10.66,28.15,19.5,44.76,24.97,17.69,5.83,36.33,7.34,54.84,7.73,12.21.26,24.46.03,36.66-.28,15.31-.39,30.61-.92,45.92-1.34Z"/>
    <path class="st14" d="M1057.48,373.09c16.72-.46,23.46,3.03,26.97,8.26,5.69,8.49-1.17,21.85-17.96,32.4-75.34,47.33-267.36-21.21-285.46-104.32-6.08-27.91,24.93-30.5,33.42-21.72,92.47,95.68,110.67,89.06,243.02,85.39Z"/>
    <path class="st6" d="M1057.48,373.09c7.82-.22,13.46.43,17.61,1.72-1.81,7.12-8.53,15.15-19.43,22-64.91,40.78-216.44-4.46-268.71-70.93-2.68-5.4-4.69-10.9-5.91-16.46-6.08-27.91,24.93-30.5,33.42-21.72,92.47,95.68,110.67,89.06,243.02,85.39Z"/>
    <path class="st16" d="M867.22,75.65c21.92-37.52,59.67-59.92,102.26-69.29,43.01-9.46,89.15-.74,127.53,20.18,23.57,12.84,40.59,27.11,56.68,48.65,20.65,27.65,31.9,60.1,31.86,94.7-.05,42.38-16.84,82.12-40.66,116.51-8.3,11.99-26.27,35.79-43.79,27-10.27-5.15-15.25-20.53-16.59-31.2l-.34-2.72,1.73-2.12c1.28-1.57,2.59-4.03,3.47-5.82,2.92-5.92,4.84-12.47,5.96-18.96,4.61-26.71-3.38-55.45-14.36-79.61-12.6-27.72-32.9-52.48-57.45-70.48-43.99-32.26-97.61-40.41-148.16-17.77l-18.2,8.15,10.06-17.22Z"/>
    <path class="st4" d="M872.75,78.88c90.77-40.64,180.18,16.93,214.05,91.45,33.87,74.51,4.06,111.09,4.06,111.09,0,0,7.66,60.73,48.77,1.36,105.29-152.07-16.06-273.96-134.75-273.8-49.66.06-102.22,18.7-132.13,69.91Z"/>
    <path class="st18" d="M872.75,78.88c90.77-40.64,180.18,16.93,214.05,91.45,18.26,40.17,18.01,69.3,13.9,87.63,13.67,6.41,28.37,13.23,42.42,19.61,19.67-29.74,30.71-58.28,34.83-84.91-23.98,3.15-51.31-7.52-77.3-49.81-53.92-87.75-146.61-99.59-210.48-87.69-6.4,6.98-12.25,14.86-17.42,23.72Z"/>
    <path class="st16" d="M822.65,225.84c-4.2,6.81-6.55,14.28-6.21,22.32.86,20.06,17.88,37.58,32.99,48.91,21.84,16.37,49.64,27.9,76.08,34.21,9.66,2.3,19.49,4,29.38,4.97,62.54,6.17,106.62-18.06,133.56-75.84,1.88-4.04,4.97-7.75,9.81-7.83,7.07-.11,11,7.71,13.34,13.26,2.92,6.9,5.07,14.54,6.95,21.79,2.76,10.68,5.16,21.76,7.07,32.63l.16.9-.1.91c-.47,4.27-1.88,9.18-3.28,13.2-3.47,9.94-8.81,19.25-15.55,27.34-24.96,29.96-64.62,39-102.01,39-27.87,0-56.74-4.76-83.49-12.44-28.76-8.26-58.37-20.87-82.71-38.45-20.84-15.06-40.13-35.64-45.86-61.47-5.75-25.92,3.74-50.12,19.34-70.64l3.69-4.85,10.05,6.9-3.2,5.19Z"/>
    <path class="st4" d="M817.2,222.48c-33.16,53.78,54.44,112,137.05,120.15,59.14,5.83,109.46-14,139.99-79.5,10.76-23.08,25.06,58.25,25.06,58.25,0,0-8.13,73.83-114.48,73.83s-262.82-73.83-187.63-172.73Z"/>
    <path class="st10" d="M1026.45,333.63c16.69-7.03,31.81-18.01,44.94-33.75,12.58-.38,27.92-.72,43.36-.74,2.78,12.1,4.56,22.24,4.56,22.24,0,0-8.13,73.83-114.48,73.83-30.22,0-64.49-5.97-96.34-16.78,28.64,6.54,55.69,4.98,74.31-5.62,20.86-11.88,34.65-26.35,43.65-39.18Z"/>
    <path class="st16" d="M1163.99,221.54c2.43,1.53,4.68,3.31,6.73,5.32,11.29,11.03,15.14,27.39,14.58,42.73-.68,18.41-7.42,36.81-17.19,52.3-9.78,15.48-23.5,29.48-39.83,38-13.6,7.1-30.03,10.65-44.84,5.2-2.69-.99-5.27-2.26-7.7-3.79-2.43-1.53-4.68-3.31-6.73-5.32-11.29-11.03-15.14-27.39-14.58-42.73.68-18.41,7.42-36.81,17.19-52.3,9.78-15.48,23.5-29.48,39.83-38,13.6-7.1,30.03-10.65,44.84-5.2,2.69.99,5.27,2.26,7.7,3.79Z"/>
    <path class="st6" d="M1160.58,226.95c-23.66-14.94-61.06,1.82-83.54,37.42-22.48,35.6-21.53,76.58,2.13,91.51,23.66,14.94,61.06-1.82,83.54-37.42,22.48-35.6,21.53-76.58-2.13-91.51Z"/>
    <g>
      <path class="st6" d="M1021.31,163.26c-9.03-3.34-19.05,1.26-22.4,10.29-3.34,9.02,1.26,19.05,10.29,22.39,9.03,3.34,19.05-1.26,22.39-10.29,3.34-9.03-1.26-19.05-10.29-22.39Z"/>
      <path class="st16" d="M994.33,232.75c2.6,1.91,9.73,4.71,12.71,6.03,8.03,3.58,22.1,9.09,21.21,19.9-.21,2.58-1.3,4.95-3.03,6.86-7.42,8.15-25.55,10.03-35.94,10.93-17.43,1.5-35.48,1.38-52.96.84-11.69-.36-23.38-.98-35.04-1.83-28.42-2.08-55.86-4.63-81.29-18.72-7.34-4.07-15.06-10.22-14.85-19.48.19-8.31,6.74-14.02,13.32-17.98,7.77-4.67,17.22-8.19,25.77-11.16,15.95-5.54,40.31-14.49,52.7-26.56,7.18-7,15.75-14.2,24.82-18.61,7.74-3.76,16.82-5.81,24.9-1.75,13.15,6.61,14.19,24.06,13.26,36.87-1.25,17.04,24.5,23.58,34.43,34.65Z"/>
      <path class="st13" d="M950.42,197.41c-1.78,24.27,28.26,31.66,37.02,41.9,4.3,5.03,36.04,14.02,30.74,19.84-9.92,10.9-71.46,10.13-116.22,6.85-26.81-1.96-53.34-4.23-77.38-17.55-20.05-11.11-8.49-20.48,22.75-31.33,32-11.11,47.3-20.04,56.21-28.73,27.94-27.24,49.61-28.55,46.87,9.02Z"/>
      <path class="st16" d="M993.08,242.69c-2.79,4.27-8.65,6.38-13.51,7.74-7.94,2.22-16.58,3.58-24.75,4.71-24.19,3.36-49.43,4.86-73.84,4.94-25.1.08-55.25-1.21-79.38-8.34-11.26-3.33-33.16-9.94-32.69-24.96.35-11.24,13.16-17.63,22.05-21.55,11.64-5.14,24.2-9.11,36.26-13.19,2.77-.94,5.54-1.88,8.3-2.84,13.83-4.8,52.31-18,62.5-27.93,6.62-6.45,14.58-12.71,23.27-16.1,7.54-2.94,15.8-3.69,23.26-.07,3.8,1.84,6.95,4.63,9.41,8.06,4.54,6.33,7.96,12.93,11.12,20.01,2.31,5.16,4.45,10.62,7.3,15.5,3.22,5.52,7.01,9.45,12.52,12.76,8.92,5.36,20.76,8.15,30.9,9.92,6.77,1.18,15.24,3.55,15.37,12.14.12,7.38-6.37,10.53-12.27,12.43-4.32,1.39-8.83,2.44-13.23,3.51-3.2.78-6.41,1.54-9.58,2.41-.8.22-1.95.52-3.01.86Z"/>
      <path class="st9" d="M981.1,239.96c-21.95,8.41-126.16,17.64-176.8,2.67-57.34-16.95-7.49-29.94,34.34-44.46,32-11.11,57.1-21.41,66.01-30.1,18.25-17.79,33.78-20.27,41.59-9.38,20.03,27.94,10.07,51.92,67.93,62,23.71,4.13-24.29,15.91-33.07,19.27Z"/>
      <path class="st16" d="M1025.7,212.67c14.54,5.38,21.95,21.53,16.57,36.07-5.38,14.54-21.53,21.95-36.07,16.57-14.54-5.38-21.96-21.53-16.57-36.07,5.38-14.54,21.53-21.96,36.07-16.57Z"/>
      <path class="st6" d="M1023.38,218.95c-11.07-4.1-23.36,1.55-27.46,12.62-4.1,11.07,1.55,23.36,12.62,27.46,11.07,4.1,23.37-1.55,27.46-12.62,4.1-11.07-1.55-23.36-12.62-27.46Z"/>
      <path class="st16" d="M1031.23,231.97c3.88,8.44.18,18.42-8.26,22.3-8.44,3.88-18.42.18-22.3-8.26-3.88-8.44-.18-18.42,8.26-22.3,8.44-3.88,18.42-.18,22.3,8.26Z"/>
      <path class="st6" d="M1028.19,233.37c-3.1-6.76-11.1-9.72-17.86-6.62-6.76,3.1-9.72,11.1-6.62,17.86,3.1,6.76,11.1,9.72,17.86,6.61,6.76-3.1,9.72-11.1,6.62-17.86Z"/>
      <path class="st16" d="M1028.19,233.37c-.37-.82-.82-1.58-1.33-2.28l-24.01,11.03c.2.84.49,1.67.86,2.49.37.82.82,1.57,1.33,2.28l24.01-11.03c-.2-.84-.49-1.67-.86-2.49Z"/>
      <path class="st16" d="M1025.97,171.42c-3.91-1.45-8.25.55-9.69,4.45-1.45,3.91.55,8.25,4.45,9.7,3.91,1.45,8.25-.55,9.69-4.45,1.45-3.91-.55-8.25-4.45-9.69Z"/>
      <path class="st6" d="M942.37,122.55c-3.14-2.45-9.46.42-14.13,6.41-4.67,5.98-5.91,12.82-2.77,15.26,3.14,2.45,9.46-.42,14.13-6.41,4.67-5.98,5.91-12.82,2.77-15.26Z"/>
      <path class="st16" d="M941.79,128.13c-1.36-1.06-4.1.18-6.12,2.77-2.02,2.59-2.56,5.55-1.2,6.61,1.36,1.06,4.1-.18,6.12-2.77,2.02-2.59,2.56-5.55,1.2-6.61Z"/>
      <path class="st4" d="M933.18,172.27c-26.17,23.76-35.65,23.98-68.96,32.98-22.59,6.1-46.41,13.4-69.66,15.64,19.49-13.91,42.79-21.34,64.99-29.95,28.33-10.99,36.97-10.95,57.96-33.26,4.03-4.33,10.8-4.57,15.13-.54,4.33,4.03,4.57,10.8.54,15.13Z"/>
    </g>
    <path class="st16" d="M1176.23,249.73c-8.06-10.25-17.98-14.48-28.43-14.19-9.54.26-19.59,4.26-29.15,10.88-9.66,6.69-18.78,16.05-26.37,26.95-16.58,23.83-25.73,54.92-16.88,81.47l-3.63,1.2c-9.27-27.8.18-60.16,17.36-84.86,7.84-11.26,17.3-20.95,27.34-27.91,10.14-7.03,20.91-11.27,31.24-11.55,11.63-.32,22.64,4.35,31.53,15.65l-3.02,2.37Z"/>
    <path class="st16" d="M762.47,753.76c10.69-23.1,26.83-44.01,50.31-55.04,18.87-8.87,39.71-9.93,59.7-4.46,18.67,5.11,36.17,15.84,49.26,30.09,12.33,13.43,21.29,30.68,21.81,49.19.98,34.49-26.53,56.81-55.6,69.25-14.62,6.26-29.81,8.17-45.08,3.03-27.23-9.17-47.31-38.88-62.91-61.54-5.52-8.02-11-16.08-16.81-23.89-1.46-1.96-1.71-4.39-.69-6.62Z"/>
    <path class="st6" d="M768.38,756.49c67.99-146.97,260.06,19.08,117.03,80.31-56.24,24.08-84.47-36.59-117.03-80.31Z"/>
    <path class="st14" d="M768.38,756.49c15.43-33.35,37.25-50.54,60.09-56.54,1.46,13,17.7,15.15,39.88,20.85,20.89,5.37,49.14,49.12,58.8,21.45,18.82,30.95,13.96,70.7-41.75,94.55-56.24,24.08-84.47-36.59-117.03-80.31Z"/>
    <path class="st16" d="M815.91,884.1c.27.44.53.86.78,1.25,2.59,4.16,4.98,8.51,7.28,12.83,3.94,7.38,7.68,14.89,11.35,22.41,3.31,6.79,7.66,12.88,12.68,18.51,13.49,15.13,31.03,26.67,45.5,40.99,18.44,18.24,28.95,37.84,31.51,63.94,1.01,10.36-3.18,20.5-8.64,29.08-6.73,10.59-16.12,20.19-25.51,28.45-23.54,20.7-52.95,38.3-81.04,52.06-15.52,7.6-31.52,14.42-47.82,20.16-14.75,5.19-30.07,9.64-45.47,12.41-20.09,3.61-51.52,6.28-66.3-11.28-2.89-3.43-4.91-7.4-6.12-11.71-9.87-35.37,5.65-68.39,28.46-94.81,8.76-10.14,18.68-19.47,29.15-27.82,2.88-2.29,5.9-4.63,8.98-6.83-2.89-4.94-5.62-10.02-8.32-15.06-6.58-12.31-12.94-24.77-19.24-37.23-11.14-22.06-22.06-44.23-32.89-66.44-12.44-25.51-16.66-52.69-7.07-79.89,14.69-41.66,57.27-70.67,95.46-88.86,26.48-12.61,55.57-21.51,84.84-24.22,20.57-1.9,42.01,1.64,58.88,14.21,13.81,10.29,22.85,25.42,25.38,42.45,1.62,10.88.48,22.02-3.29,32.35-4.01,10.99-10.82,20.6-19.71,28.18-20.52,17.5-44.79,32.25-68.84,44.87Z"/>
    <path class="st4" d="M741.44,752.12c-66.37,31.62-122.02,84.82-85.34,160.02,54.5,111.73,63.43,123.45,63.43,123.45,0,0-88.5,56.49-69.15,125.85,19.36,69.36,274.63-50.77,268.17-116.78-6.46-66-66.89-75.76-89.06-121.23-22.18-45.47-24.08-41.24-24.08-41.24,32.65-16.59,57.3-32.73,75.12-47.93,42.59-36.32,20.66-112.91-56.44-105.77-25.34,2.35-53.77,9.86-82.65,23.62Z"/>
    <path class="st10" d="M660.91,922c10.7,21.86,19.5,39.56,26.73,53.88,36.49,3.8,92.1-27.24,95.02-28.84,14.9-8.13,63,33.19,79.93,63,16.93,29.8-60.96,125.31-159.86,134.8-23,2.21-40.79,4.01-54.56,5.48.45,3.67,1.16,7.38,2.21,11.13,19.36,69.36,274.63-50.77,268.17-116.78-6.46-66-66.89-75.76-89.06-121.23-8.06-16.52-13.44-26.47-17.02-32.46-60.26,3.13-123.31,12.62-151.55,31.01Z"/>
    <path class="st16" d="M682.51,886.07c4.19,3.12,8.78,5.63,13.63,7.57,10.7,4.28,22.46,5.76,33.93,5.67,18.09-.14,36.81-4.09,54.02-9.54,8.19-2.59,17.06-5.75,24.86-9.42,1.68-.79,3.42-.85,5.15-.17,1.73.68,2.96,1.9,3.66,3.63l6.77,16.83c1.14,2.84.21,6-2.31,7.76-4.34,3.03-9.14,5.86-13.74,8.46-10.8,6.08-22.18,11.39-33.84,15.6-30.09,10.86-64.72,14.97-93.77-1.27-8.07-4.51-18.12-10.57-24.42-17.44-4.23-4.62-7.46-10.76-4.77-17.04,3.82-8.89,17.95-11.5,26.64-11.91,1.57-.07,2.94.34,4.19,1.28Z"/>
    <path class="st14" d="M678.62,891.28c47.42,35.33,133.1-5.05,133.1-5.05l6.77,16.83s-77.56,54.25-134.46,22.44c-56.9-31.8-5.42-34.22-5.42-34.22Z"/>
    <path class="st16" d="M652.73,839.52c2.46-.74,4.98-1.21,7.54-1.39,12.81-.93,24.9,5.18,34.12,13.67,10.78,9.92,18.38,23.44,22.59,37.37,4.21,13.94,5.37,29.4,1.89,43.63-2.99,12.21-9.63,23.94-20.84,30.28-2.23,1.26-4.6,2.27-7.05,3.02-2.46.74-4.98,1.21-7.54,1.39-12.81.93-24.9-5.18-34.12-13.67-10.78-9.92-18.38-23.44-22.59-37.38-4.21-13.94-5.37-29.4-1.89-43.63,2.99-12.2,9.63-23.94,20.84-30.28,2.23-1.26,4.6-2.27,7.05-3.02Z"/>
    <path class="st14" d="M654.61,845.75c21.49-6.49,46.62,13.79,56.15,45.3,9.52,31.51-.18,62.32-21.66,68.82-21.49,6.49-46.62-13.79-56.15-45.3-9.52-31.51.18-62.32,21.66-68.82Z"/>
    <path class="st16" d="M736.92,387.87c20.04,43.42,74.61,78.9,140.99,99.6,66.85,20.84,145.59,26.64,213.12,10.43l.89,3.72c-68.23,16.37-147.7,10.54-215.15-10.49-67.35-21-122.82-57.2-143.33-101.65l3.48-1.61Z"/>
    <path class="st16" d="M682.73,523.34c20.63,44.7,80.7,81.69,155.43,100.96,70.95,18.29,155.02,20.56,231.1-1.74l1.08,3.67c-76.77,22.5-161.57,20.22-233.13,1.77-75.8-19.54-136.84-57.29-157.96-103.06l3.48-1.61Z"/>
    <path class="st16" d="M705.95,1327.39c.4,3.4.37,9.72.32,18.12-.26,48.64-.9,168.43,82.07,182.06l-.62,3.78c-86.2-14.17-85.55-136.27-85.28-185.86.04-8.22.08-14.41-.31-17.67l3.81-.44Z"/>
    <path class="st16" d="M1430.84,283.2c2.86-2.81,5.75-5.59,8.64-8.31,13.42-12.68,27.57-24.89,42.44-35.83,22.64-16.66,49.91-28.51,78.26-29.73,22.98-.99,46.62,5.39,63.49,21.63,15.85,15.26,22.55,36.1,22.07,57.79-.65,29.58-14.09,59.17-29.74,83.71-21.9,34.35-52.74,62.52-85.57,86.22-15.23,11-31.05,21.14-47.15,30.82-13.77,8.28-27.75,16.16-41.68,24.17-33.46,19.26-68.86,35.68-105.27,48.54-83.19,29.4-181.7,43.33-266.01,10.5-28.08-10.94-53.51-26.72-75.61-47.24-1.91-1.77-2.57-4.35-1.75-6.82l21.68-65.03c1.03-3.09,4.13-4.92,7.33-4.34,11.4,2.07,22.68,4.48,34.14,6.24,13.72,2.11,27.47,3.35,41.37,3.14,36.51-.54,69.53-10.99,100.54-30.19,52-32.19,103.4-65.69,154.44-99.42,7.36-22.19,8.08-45.4,8.52-68.59.18-9.55.21-19.72,1.66-29.16,1.19-7.73,3.6-16.11,10.1-21.07,4.13-3.15,9.1-4.28,14.22-4.1,1.73.06,3.44.28,5.12.67,13.39,3.11,21.47,15.81,26.5,27.63,6.23,14.65,9.85,32.2,12.24,48.77Z"/>
    <path class="st4" d="M1386.76,212.63c19.52.69,32.83,28.15,39.35,84.71,0,0,27.47-29.35,59.67-53.05,95.12-70,207.35-4.87,124.76,124.67-43.43,68.11-122.9,110.72-172.16,139.07-135.99,78.29-324.33,119.34-439.21,12.67l21.68-65.03c39.74,7.22,104.77,25.29,180.63-21.68,56.58-35.03,125.21-80.1,156.45-100.75,20.03-56.98-3.54-121.76,28.83-120.62Z"/>
    <path class="st10" d="M1445.34,504.03c-2.38,1.36-4.71,2.7-6.97,4-135.99,78.29-324.33,119.34-439.21,12.67l17.67-53.01c9.89-2.31,20.24-4.62,31.17-6.92,4.16.72,8.49,1.4,12.96,2.01-21.87,22.82-16.83,67.76,32.43,81.92,54.19,15.58,226.92-29.13,228.28-56.22,1.35-27.1-2.71-75.87-2.71-75.87l126.39,91.43Z"/>
    <path class="st16" d="M1043.67,596.26c-37.5-4.33-69.3-24.8-80.13-62.25-6.24-21.59-4.04-45.18,5.14-65.6,9.85-21.92,27.17-39.2,49.3-48.66,24.35-10.42,50.82-9.15,71.16,9.09,8.22,7.37,22.95,19.93,20.59,32.15-.19,1-.59,1.95-1.17,2.8-3.5,5.12-25.38-.84-30.36-1.94-6.48-1.44,2.15,1.19-4.49.57-16.98-1.58-31.55,2.55-41.54,17.25-9.74,14.33-12.46,31.24-7.01,47.75,4.17,12.62,13.65,25.39,26.17,30.66,3.4,1.43,6.85,2.78,10.3,4.09,5.4,2.05,10.84,4.01,16.25,6.01,3.08,1.14,9.05,2.91,10.98,5.64,2.44,3.47,2.14,7.81.05,11.34-1.97,3.31-5.27,5.74-8.68,7.41-10.57,5.18-25.18,5.01-36.57,3.7Z"/>
    <path class="st6" d="M1044.42,589.8c32.63,3.76,42.21-7.88,39.14-12.24-.75-1.06-20.92-7.68-34.74-13.5-25.74-10.84-46.45-52.11-22.02-88.06,12.81-18.85,31.43-21.49,47.1-20.11.94.08,17.2,2.91,25.41,2.49,4.79-.24,4.59-1.59,2.9-5.23-2.92-6.26-10.36-13.17-17.41-19.49-18.96-17-43.01-17.04-64.26-7.95-74.74,31.98-76.61,152.49,23.88,164.08Z"/>
    <path class="st14" d="M1044.42,589.8c32.63,3.76,42.21-7.88,39.14-12.24-.75-1.06-20.92-7.68-34.74-13.5-25.74-10.84-46.45-52.11-22.02-88.06,12.81-18.85,31.43-21.49,47.1-20.11.94.08,17.2,2.91,25.41,2.49,4.79-.24,4.59-1.59,2.9-5.23-1.86-3.99-5.56-8.25-9.83-12.45-7.48,1.12-19.2.27-31.18.69-19.64.68-48.77,12.87-56.9,50.8-6.34,29.58-14.74,43.5-35.15,37.61,7.61,29.7,31.9,55,75.26,60Z"/>
    <path class="st16" d="M1189.91,438.88c.33-1.01,1.41-1.56,2.41-1.23,1.01.33,1.56,1.41,1.23,2.42-3.28,10.04-4.74,20.09-4.74,29.96,0,26.1,10.21,50.82,23.84,70.13,13.59,19.26,30.51,33.09,44.02,37.51,2.94.96,5.7,1.46,8.21,1.46,1.06,0,1.92.86,1.92,1.92s-.86,1.92-1.92,1.92c-2.9,0-6.06-.57-9.39-1.66-14.22-4.65-31.9-19.02-45.97-38.95-14.03-19.88-24.55-45.37-24.55-72.33,0-10.24,1.52-20.7,4.93-31.15Z"/>
    <path class="st16" d="M1355.46,337.21c-4.62,10-7.01,20.66-7.29,31.67-.56,21.61,6.94,43.1,17.88,61.49,10.01,16.82,23.71,32.49,39.33,44.32,11.81,8.95,27.78,16.32,42.75,18.57,14.89,2.23,22.72-1.01,23.03.41,2.04,9.28-4.14,18.35-7.94,21.59-11.22,9.57-28.32,14.11-42.8,14.31-23.56.32-44.83-9.55-62.29-24.94-23.55-20.75-42.96-49.11-52.56-79.09-7.68-23.98-10.28-54.11,5.42-75.59,9.1-12.45,22.47-19.24,37.44-21.88,2.45-.43,4.77.47,6.28,2.44,1.52,1.97,1.79,4.44.75,6.7Z"/>
    <path class="st14" d="M1349.56,334.48c-33.19,71.8,45.38,162.39,98.22,165.28,18.62,1.02,19.23,3.74,11.22,10.56-14.7,12.54-56.23,24.98-96.57-10.56-62.32-54.9-81.96-153.09-12.87-165.28Z"/>
    <path class="st16" d="M1429.05,297.82c-1.03-.26-1.65-1.3-1.39-2.32.26-1.03,1.3-1.65,2.32-1.4,10.33,2.58,44.76,21.73,68.1,50.72,14.17,17.6,24.33,38.87,22.76,62.35-.07,1.06-.98,1.86-2.04,1.79-1.06-.07-1.86-.98-1.79-2.04,1.49-22.38-8.29-42.76-21.93-59.7-22.78-28.3-56.09-46.92-66.04-49.4Z"/>
    <path class="st16" d="M645.64,523.61c-.24,1.03-1.27,1.67-2.3,1.43-1.03-.24-1.67-1.27-1.43-2.3,5.92-25.1,4.48-49.69-3.72-70.05-7.88-19.56-22.02-35.23-41.85-43.66-.97-.41-1.43-1.54-1.01-2.51.41-.97,1.54-1.43,2.51-1.01,20.82,8.85,35.65,25.27,43.91,45.76,8.49,21.09,10.01,46.48,3.9,72.35Z"/>
    <path class="st16" d="M1337.73,334.9c.52-.92,1.68-1.24,2.6-.73.92.52,1.25,1.68.73,2.6-6.8,12.03-9.47,26.14-8.75,41.01,1.05,21.65,9.28,44.88,22.48,65.66,13.21,20.8,31.35,39.11,52.18,50.89,16.54,9.35,34.78,14.58,53.59,13.67,1.06-.05,1.95.77,2,1.82.05,1.06-.77,1.95-1.82,2-19.56.95-38.5-4.48-55.64-14.17-21.42-12.11-40.03-30.87-53.55-52.17-13.53-21.32-21.98-45.21-23.06-67.54-.75-15.56,2.07-30.38,9.25-43.07Z"/>
    <path class="st16" d="M1096.08,457.2c.92.53,1.23,1.7.7,2.62-.53.92-1.7,1.23-2.62.7-25.45-14.72-47.32-11.83-62.73-.08-10.91,8.32-18.64,21.07-22.16,35.16-3.53,14.11-2.83,29.54,3.11,43.2,9.47,21.76,32.35,39.09,72.85,39.52,1.06,0,1.91.87,1.9,1.93,0,1.06-.87,1.91-1.93,1.9-42.3-.46-66.3-18.79-76.33-41.82-6.3-14.47-7.04-30.77-3.32-45.66,3.73-14.9,11.94-28.41,23.56-37.27,16.57-12.63,39.95-15.83,66.97-.2Z"/>
    <path class="st16" d="M641.14,848.3c20.29-6.87,37.36,3.34,48.88,20.13,7.27,10.59,12.31,23.83,14.53,37.01,2.22,13.21,1.6,26.4-2.47,36.86-5.24,13.47-16.11,22.42-33.85,21.26l.16-2.55c16.42,1.07,26.47-7.2,31.31-19.63,3.9-10.02,4.48-22.73,2.33-35.52-2.16-12.83-7.06-25.7-14.12-35.99-10.9-15.89-26.96-25.58-45.95-19.15l-.82-2.42Z"/>
    <path class="st21" d="M1052.97,911.06c12.09,31.77,46.03,66.63,103.6,101.68l120.52,59.05,25.87,12.67s-55.1-83.56-116.7-158.09c-11.3-13.67-23.09-23.96-35.77-31.14-28.63-6.41-64.73,2.86-97.51,15.83Z"/>
    <path class="st16" d="M980.85,943.89c19.27-10.57,51.86-28.26,86.31-40.19,34.69-12.01,71.23-18.15,98.08-5.34l-1.65,3.47c-25.76-12.29-61.31-6.24-95.18,5.49-34.1,11.81-66.53,29.41-85.71,39.94l-1.85-3.36Z"/>
    <path class="st16" d="M969.19,1426.13c16.36-1.72,79.17-20.96,127.99-74.07,28.23-30.7,51.71-72.72,58.72-129.25l5.08.62c-7.15,57.74-31.17,100.69-60.04,132.09-49.86,54.23-114.39,73.92-131.24,75.69l-.52-5.08Z"/>
    <path class="st16" d="M1013.08,1413.99c10.79,6.21,36.72,8.21,36.79,8.21l-.3,3.83c-.08,0-26.83-2.06-38.4-8.72l1.9-3.32Z"/>
    <path class="st16" d="M1044.24,1398.41c11,6.34,29.46,13.05,29.51,13.07l-1.32,3.6c-.05-.02-18.75-6.82-30.1-13.35l1.91-3.31Z"/>
    <path class="st16" d="M1066.87,1384.37c10.39,8.72,23.07,16.06,23.11,16.08l-1.94,3.3s-13.03-7.54-23.63-16.44l2.46-2.94Z"/>
    <path class="st16" d="M1152.52,1262.45c8.53,10.25,15.12,36.27,15.14,36.35l-3.71.95c-.02-.07-6.41-25.27-14.37-34.85l2.94-2.44Z"/>
    <path class="st16" d="M1139.44,1294.46c8.38,10.07,18.27,27.33,18.3,27.38l-3.33,1.91s-9.79-17.09-17.9-26.84l2.94-2.44Z"/>
    <path class="st16" d="M1125.28,1317.99c10.6,8.95,20.21,20.45,20.24,20.48l-2.94,2.46s-9.44-11.29-19.77-20.02l2.48-2.92Z"/>
    <path class="st16" d="M962.63,489.78c-.43-.96,0-2.1.97-2.53.96-.43,2.1,0,2.53.97.45,1,.99,1.93,1.63,2.8,4.04,5.52,11.59,8.34,18.92,9.46,7.4,1.13,14.42.53,17.43-.82.26-.12.47-.23.63-.35.85-.63,2.05-.44,2.68.41.62.85.44,2.05-.41,2.68-.37.27-.82.52-1.33.75-3.55,1.59-11.46,2.35-19.56,1.12-8.18-1.25-16.69-4.51-21.44-10.99-.79-1.07-1.47-2.24-2.04-3.5Z"/>
    <path class="st16" d="M992.75,437.58c-.41-.98.05-2.1,1.03-2.51.98-.41,2.1.05,2.51,1.03,1.82,4.33,7.5,9.11,13.8,12.99,7.69,4.73,16.06,8.03,19.38,7.53,1.05-.15,2.02.57,2.17,1.62.15,1.05-.57,2.02-1.62,2.17-4.12.62-13.58-2.92-21.94-8.06-6.89-4.24-13.17-9.63-15.33-14.77Z"/>
    <path class="st16" d="M981.1,563.17c-.94-.49-1.3-1.65-.8-2.59.49-.94,1.65-1.29,2.59-.8,6.85,3.63,14.11,4.43,20.44,3.65,8.04-1,14.45-4.46,16.48-7.84.54-.91,1.72-1.2,2.63-.66.91.54,1.2,1.72.66,2.62-2.55,4.26-10.09,8.54-19.3,9.69-7.01.87-15.06-.02-22.69-4.07Z"/>
    <path class="st16" d="M1077.38,448.42c-.04,1.06-.92,1.88-1.98,1.84-1.06-.04-1.88-.92-1.85-1.98.29-8.06-2.42-14.68-6.53-19.63-4.97-5.99-11.97-9.54-18.19-10.23-1.05-.12-1.81-1.06-1.7-2.12.12-1.05,1.06-1.81,2.12-1.7,7.12.79,15.1,4.81,20.72,11.59,4.65,5.61,7.72,13.11,7.4,22.22Z"/>
    <path class="st16" d="M898.01,759.7c-.98.38-2.09-.11-2.47-1.1s.11-2.09,1.1-2.47c5.77-2.24,11.41-7.62,15.28-13.73,3.73-5.89,5.76-12.38,4.55-17.21-.26-1.03.37-2.07,1.39-2.33,1.03-.26,2.07.37,2.33,1.4,1.47,5.9-.79,13.47-5.03,20.18-4.27,6.75-10.59,12.72-17.14,15.27Z"/>
    <path class="st16" d="M864.43,729.08c-.53.91-1.71,1.22-2.62.68-.91-.54-1.22-1.71-.68-2.62,2.66-4.51,4.48-10.3,5.23-15.7.73-5.26.47-10.04-1.02-12.72-.51-.92-.18-2.09.74-2.6.92-.51,2.09-.18,2.6.74,1.9,3.43,2.31,9.08,1.47,15.1-.82,5.85-2.81,12.15-5.73,17.11Z"/>
    <path class="st16" d="M818.59,724.33c.21,1.04-.45,2.05-1.48,2.27-1.04.21-2.05-.45-2.27-1.49-1.45-6.9-1.05-13.29,1.11-18.5,2.16-5.21,6.04-9.23,11.56-11.44.98-.39,2.1.08,2.49,1.07.39.98-.08,2.1-1.06,2.49-4.51,1.8-7.68,5.09-9.45,9.35-1.87,4.5-2.2,10.11-.9,16.25Z"/>
    <path class="st16" d="M905.31,797.58c-.96-.45-1.37-1.59-.92-2.55.45-.96,1.59-1.37,2.55-.92,6.03,2.86,12.52,3.5,18.13,2.24,5.49-1.23,10.12-4.29,12.55-8.86.5-.93,1.66-1.28,2.59-.79.93.5,1.29,1.66.79,2.59-2.99,5.6-8.54,9.32-15.09,10.79-6.4,1.44-13.78.72-20.6-2.51Z"/>
    <path class="st16" d="M647.99,1164.07c-.97-.41-1.43-1.53-1.02-2.5.41-.97,1.53-1.43,2.51-1.02,15.29,6.44,85.13-2.96,153.63-36.93,43.23-21.44,85.78-52.7,113.49-96,.57-.89,1.76-1.15,2.65-.58.89.57,1.15,1.76.58,2.65-28.14,43.96-71.25,75.65-115.02,97.36-69.46,34.45-140.95,43.7-156.81,37.02Z"/>
    <path class="st16" d="M1067.53,625.72c-73.37,20.95-156.39,20.04-230.01,1.05-34.18-8.81-68.92-22.18-98.74-41.26-22.9-14.66-45.52-34.55-57.58-59.43-.25-.09-.5-.22-.72-.4-.77-.59-1.13-1.5-.96-2.46,1.37-7.97,3.06-15.88,5.07-23.71.84-3.3,1.75-6.58,2.71-9.85,4.89-16.66,11.23-32.92,18.98-48.46,1.59-3.19,3.24-6.35,4.95-9.48,6.99-12.79,14.97-25.04,23.92-36.54.54-.7,1.33-1.05,2.21-.98.88.07,1.61.53,2.04,1.3,4.28,7.65,9.48,14.78,15.25,21.38,1.55,1.77,3.14,3.5,4.77,5.2,3.54,3.69,7.27,7.21,11.12,10.57,4.92,4.29,10.07,8.33,15.37,12.14,7.24,5.2,14.79,9.98,22.53,14.39,3.14,1.79,6.31,3.52,9.51,5.19,19,9.92,39.13,17.92,59.58,24.3,3.5,1.09,7.01,2.13,10.54,3.13,4.72,1.34,9.46,2.59,14.22,3.76,19.06,4.7,38.47,8.13,57.99,10.28,1.31.14,2.28,1.24,2.28,2.55-.02,8.41,1.1,16.81,3.44,24.89,10.54,36.46,41.52,56.21,77.96,60.42,9.77,1.13,21.46,1.36,30.9-1.74.87-.28,1.75-.11,2.44.47.7.59,1.02,1.42.89,2.32-1.48,10.31-3.39,20.57-5.76,30.72-.27,1.15-1.24,1.94-2.42,1.97-1.15.03-2.14-.67-2.5-1.75Z"/>
    <path class="st16" d="M876.77,491.12c-21.46-6.69-41.71-14.92-60-24.47-3.26-1.7-6.46-3.45-9.6-5.23-8.05-4.58-15.66-9.44-22.76-14.54-5.5-3.95-10.7-8.05-15.56-12.29-4-3.49-7.77-7.06-11.29-10.73-1.67-1.74-3.29-3.5-4.85-5.29-6.12-6.99-11.34-14.27-15.56-21.81-8.84,11.36-16.75,23.48-23.7,36.19-1.69,3.1-3.33,6.23-4.9,9.39-7.67,15.37-13.96,31.49-18.82,48.04-.95,3.24-1.84,6.49-2.68,9.76-1.99,7.77-3.67,15.61-5.03,23.51l.7-.32c20.63,44.7,80.7,81.69,155.43,100.96,70.95,18.29,155.02,20.56,231.1-1.74l.69,2.35c2.35-10.06,4.25-20.26,5.72-30.5-9.95,3.27-22.17,2.98-32,1.85-37.5-4.33-69.3-24.8-80.13-62.25-2.41-8.34-3.56-16.97-3.54-25.61-19.81-2.18-39.4-5.68-58.32-10.34-4.81-1.19-9.59-2.45-14.31-3.79-3.57-1.01-7.1-2.06-10.61-3.15Z"/>
    <g>
      <path class="st16" d="M810.26,478.01c.76,2.9,2.89,6.59,4.73,8.99,4.87,6.34,11.51,9.9,19.04,11.35l6.39,1.22-1.1,6.13c-3.62,20.24-12.86,39.51-26.02,54.5-16.33,18.61-28.99,18.75-53.91,17.77l-2.78-.11-1.91-2.22c-17.15-19.93-24.47-30.11-19.3-55.31,4.04-19.68,13.69-38.09,26.7-52.59l3.58-3.99,4.54,3.9c6.19,5.31,13.38,7.96,21.07,7.81,3.21-.06,7.52-.72,10.4-1.97l6.66-2.97,1.89,7.51Z"/>
      <path class="st9" d="M766.69,471.88c-15.18,16.94-22.54,35.77-25.51,50.21-4.72,23,1.74,31.37,17.82,50.05,23.8.94,34.73,1.03,49.71-16.04,9.83-11.2,20.71-28.99,24.83-52.02-23.75-4.55-28.97-25.23-28.97-25.23,0,0-19.59,8.73-37.89-6.98Z"/>
      <path class="st7" d="M821.63,511.21c-7.92-3.14-14.69-8.24-19.85-15.15-1.19-1.59-2.38-3.42-3.46-5.36-2.16.34-4.3.53-6.25.59-8.67.25-16.72-1.83-23.85-5.75-8.35,11.36-14.27,24.5-17.02,37.91-1.29,6.28-2.07,12.89-.16,18.93,2.14,6.77,8.2,14.07,13.29,19.94,7.41.31,16.63.52,22.94-1.77,5.59-2.03,10.04-6.3,13.89-10.68,9.74-11.09,16.7-24.68,20.48-38.65Z"/>
      <path class="st16" d="M817.31,513.33c-3.24-1.51-6.27-3.33-9.04-5.45-3.53-2.7-6.71-5.9-9.46-9.59-.65-.87-1.3-1.8-1.93-2.78-.2-.31-.4-.64-.61-.96-.34.04-.67.07-1,.11-1.13.11-2.25.17-3.34.21-4.59.13-9.03-.34-13.27-1.37-3.27-.79-6.42-1.9-9.43-3.32-3.21,4.7-6,9.68-8.31,14.82-2.75,6.12-4.83,12.49-6.15,18.93-.6,2.95-1.09,5.97-1.2,8.97-.1,2.84.14,5.62.96,8.23.95,3.01,2.84,6.23,5.08,9.39,2.07,2.91,4.4,5.72,6.6,8.29,3.2.12,6.68.19,10.06.03,3.7-.18,7.21-.64,9.93-1.62,2.32-.84,4.46-2.19,6.44-3.81,2.09-1.7,4.01-3.71,5.81-5.76,4.59-5.23,8.54-11.04,11.8-17.19,2.92-5.5,5.28-11.27,7.06-17.12h0ZM812.96,502.13c3.12,2.38,6.55,4.31,10.22,5.77l2.76,1.1-.79,2.93c-1.99,7.37-4.83,14.62-8.46,21.47-3.54,6.68-7.84,13-12.83,18.69-2.05,2.33-4.27,4.65-6.77,6.69-2.6,2.12-5.49,3.92-8.75,5.11-3.58,1.3-7.84,1.89-12.18,2.1-4.13.2-8.4.07-12.22-.09l-1.49-.06-.95-1.1c-2.61-3.02-5.47-6.4-7.94-9.88-2.59-3.65-4.81-7.46-5.99-11.23-1.08-3.43-1.4-6.97-1.27-10.52.12-3.39.67-6.81,1.36-10.14,1.43-6.95,3.67-13.83,6.65-20.46,2.99-6.65,6.69-13.02,11.03-18.91l2.02-2.75,2.83,1.56c3.35,1.84,6.92,3.25,10.69,4.16,3.62.87,7.42,1.28,11.36,1.17.89-.03,1.84-.09,2.84-.18,1.04-.1,2.03-.22,2.94-.36l2.42-.38,1.14,2.04c.49.88,1.01,1.75,1.56,2.6.55.85,1.11,1.66,1.67,2.4,2.37,3.18,5.12,5.95,8.19,8.29Z"/>
    </g>
    <path class="st18" d="M827.17,837.92c-42.24,19.13-86.07,27.62-121.79,26.7,5.12,7.53,9,15.96,11.6,24.54.96,3.18,1.76,6.43,2.39,9.74,3.57.31,7.15.43,10.7.41,18.09-.14,36.81-4.09,54.02-9.54,8.19-2.59,17.06-5.75,24.86-9.42.15-.07.29-.13.44-.19,20.7-10.71,38.07-21.22,52.42-31.4,3.66-2.59,7.11-5.16,10.38-7.71,1.85-1.44,3.64-2.88,5.38-4.3,1-.83,1.99-1.65,2.95-2.47.69-.59,1.36-1.18,2.01-1.79,9.78-9.07,15.8-20.37,18.21-32.15.45-2.2.77-4.41.97-6.63.13-1.41.2-2.83.23-4.24-1.8,1.62-3.62,3.22-5.46,4.79-2.86,2.44-5.76,4.81-8.7,7.11-6.86,5.38-13.93,10.4-21.16,15.07-1.88,1.21-3.76,2.4-5.66,3.57-8.78,5.39-17.76,10.28-26.83,14.66-2.32,1.12-4.64,2.21-6.97,3.26Z"/>
    <path class="st14" d="M1079.16,355.89c5.98,3.78,12.85,5.53,20.13,5.46,3.08-.03,6.23-.38,9.42-1.05,19.1-3.98,39.6-19.04,53.99-41.83,14.99-23.73,19.56-49.85,13.94-69.05l-.41.32c-2.14-2.72-4.41-5.01-6.78-6.91-1.75-1.4-3.56-2.59-5.42-3.57-.89-.47-1.79-.89-2.69-1.27-2.13-.88-4.31-1.52-6.54-1.92-2.29-.42-4.63-.58-6.99-.52-9.54.26-19.59,4.26-29.15,10.88-2.86,1.98-5.67,4.2-8.42,6.62-1.32,1.16-2.62,2.37-3.9,3.63-1.52,1.49-3.01,3.04-4.47,4.65-1.01,1.11-2,2.25-2.97,3.41-2.31,2.75-4.52,5.64-6.61,8.65-.4.58-.8,1.16-1.19,1.74-2.19,3.26-4.24,6.65-6.12,10.14-7.02,13.01-11.73,27.38-12.79,41.61-.2,2.75-.27,5.5-.19,8.23.17,5.92,1.03,11.76,2.68,17.42,1.39,1.24,2.89,2.37,4.49,3.38Z"/>
    <path class="st16" d="M800.44,246.43c.03-1.06.91-1.89,1.97-1.86,1.06.03,1.89.91,1.86,1.96-.59,19.56,9.38,37.95,25.8,53.83,16.28,15.75,38.87,29.02,63.84,38.56,25.01,9.55,52.35,15.35,78.08,16.13,34.29,1.04,65.69-6.81,84.76-26.52.73-.76,1.95-.79,2.71-.05.76.73.79,1.95.05,2.71-19.89,20.56-52.33,28.76-87.62,27.69-26.19-.79-53.97-6.67-79.34-16.37-25.42-9.71-48.46-23.27-65.13-39.38-17.17-16.61-27.6-35.96-26.97-56.69Z"/>
    <path class="st16" d="M873.63,76.97c-.65.83-1.85.98-2.69.33-.83-.65-.98-1.85-.33-2.69,5.52-7.05,18.52-13.04,35.82-16.06,17.91-3.13,40.6-3.17,64.46,2.02,23.85,5.18,48.91,15.59,71.59,33.34,33.59,26.29,61.93,68.65,73.35,133.96.18,1.04-.52-.5-1.56-.32-1.04.18-2.04,2.03-2.22.98-11.23-64.25-39.02-105.85-71.93-131.6-22.17-17.35-46.69-27.53-70.04-32.61-23.34-5.08-45.51-5.05-62.99-1.99-16.38,2.87-28.52,8.32-33.47,14.64Z"/>
    <path class="st4" d="M874.54,91.65c-18.38,9.12-31.05,25.55-45.3,59.73-18.64,44.74,44.63-19.9,72.11-52.21,26.35-30.98-9.35-16.18-26.81-7.52Z"/>
    <path class="st18" d="M1054.38,316.8c-12.49,10.21-26.3,17.21-41.17,21.49-4.59,1.32-9.27,2.38-14.05,3.2-7.41,1.26-15.04,1.94-22.88,2.07-3.08.05-6.18.02-9.31-.08-4.19-.15-8.42-.43-12.71-.86-12-1.18-24.1-3.42-35.92-6.55-3.13-.83-6.24-1.72-9.33-2.67-35.76-11.01-67.92-29.99-85.33-52.1-6.84-8.69-11.41-17.86-13.02-27.22-.8-.18-1.59-.37-2.37-.56-1.3-.32-2.6-.65-3.87-1,.73,9.22,3.78,18.13,8.69,26.61,2.15,3.71,4.65,7.33,7.48,10.86,2.85,3.56,6.02,7.02,9.48,10.36,2.2,2.13,4.52,4.22,6.95,6.25,6.58,5.53,13.93,10.69,21.87,15.44,10.76,6.44,22.6,12.11,35.02,16.86,1.9.73,3.82,1.43,5.75,2.12,2.93,1.04,5.89,2.02,8.86,2.96,20.82,6.52,42.67,10.43,63.47,11.06,2.14.06,4.26.1,6.37.09,2.68,0,5.35-.07,7.98-.19.09,0,.19,0,.28-.01,3.96-.19,7.86-.51,11.69-.97,23.04-2.76,43.32-10.5,57.33-24.32-.82-4.23-1.21-8.56-1.25-12.85Z"/>
    <path class="st18" d="M999.47,80.62c38.69,18.47,70.15,51.91,87.33,89.7,3.04,6.69,5.57,13.07,7.65,19.15,4.45,13,6.87,24.61,7.91,34.84.13,1.32.25,2.62.33,3.89.82-.56,1.65-1.1,2.49-1.63,1.92-1.21,3.88-2.35,5.88-3.41-.17-.87-.34-1.74-.51-2.6-.31-1.53-.63-3.04-.95-4.54-3.68-16.83-8.54-31.98-14.36-45.6-13.97-32.67-33.42-56.52-55.11-73.49-8.62-6.75-17.59-12.41-26.72-17.11-6.09-3.14-12.25-5.85-18.42-8.16-8.35-3.13-16.7-5.55-24.91-7.33-23.34-5.08-45.51-5.05-62.99-1.99-4.08.71-7.9,1.59-11.41,2.6-9.77,2.81-17.14,6.65-21.14,10.97-.61.98-1.2,1.98-1.79,2.99,1.16-.52,2.32-1.02,3.48-1.51,37.36-15.71,74.37-14.94,107.25-3.36,5.45,1.92,10.78,4.13,15.99,6.62Z"/>
    <path class="st16" d="M974.42,433.64c-.86.62-2.05.42-2.67-.43-.62-.86-.42-2.05.43-2.67,2.22-1.6,4.05-3.63,5.52-5.88,2.64-4.06,4.08-8.83,4.43-13.19.34-4.21-.32-7.95-1.89-10.11-.36-.49-.76-.9-1.21-1.19-.89-.57-1.14-1.76-.56-2.65.58-.89,1.76-1.14,2.65-.56.85.55,1.59,1.28,2.23,2.16,2.1,2.91,3.02,7.57,2.61,12.65-.4,4.93-2.04,10.35-5.04,14.97-1.71,2.63-3.87,5.01-6.49,6.9Z"/>
    <path class="st16" d="M1002.2,434.99c-.86.62-2.05.42-2.67-.43-.62-.86-.42-2.05.43-2.67,2.22-1.6,4.05-3.63,5.52-5.89,2.64-4.06,4.08-8.83,4.43-13.19.34-4.21-.32-7.94-1.89-10.11-.36-.49-.76-.9-1.21-1.19-.89-.58-1.14-1.76-.56-2.65.58-.89,1.76-1.14,2.65-.56.85.55,1.59,1.28,2.23,2.16,2.1,2.91,3.02,7.57,2.61,12.65-.4,4.93-2.04,10.35-5.04,14.97-1.71,2.63-3.86,5.01-6.49,6.9Z"/>
    <path class="st20" d="M1173.69,295.85c-14.46,9.68-30.82,13.36-47.63,12.18-.94-.07-1.88-.15-2.83-.24-2.25-.23-4.51-.55-6.78-.95-.03,0-.06-.01-.09-.02-2.49-.44-4.99-.99-7.48-1.63-2.45-.63-4.89-1.35-7.33-2.16-1.25-.42-2.49-.85-3.74-1.32-3.09-1.14-6.16-2.43-9.21-3.85-2.63-1.23-5.25-2.55-7.84-3.98-4.66,10.59-7.73,21.82-8.56,32.96-.2,2.75-.27,5.5-.19,8.23.17,5.92,1.03,11.76,2.68,17.42,1.39,1.24,2.89,2.37,4.49,3.38,5.98,3.78,12.85,5.53,20.13,5.46,3.08-.03,6.23-.38,9.42-1.05,19.1-3.98,39.6-19.04,53.99-41.83,4.67-7.4,8.33-15.03,10.99-22.61Z"/>
    <path class="st10" d="M1470.69,449.18c-66.85,12.26-113.66-33.32-122.29-84.76-.11,1.48-.19,2.97-.23,4.46-.56,21.61,6.94,43.1,17.88,61.49,10.01,16.82,23.71,32.49,39.33,44.32,11.81,8.95,27.78,16.32,42.75,18.57,6.14.92,11.07.91,14.78.68,48.23-27.93,110.85-67.32,147.62-124.99,18.37-28.81,27.1-54.43,28.53-76.09-.03-.19-59.18,136.3-168.38,156.32Z"/>
    <path class="st16" d="M745.84,381.7c-.14-.69.3-1.37.99-1.51.69-.14,1.37.3,1.51.99,3.14,14.9,35.28,46.85,86.12,72.35,35.49,17.8,80.03,32.37,130.15,35.69.7.04,1.24.65,1.2,1.35-.04.7-.65,1.24-1.36,1.2-50.49-3.35-95.38-18.03-131.13-35.96-51.55-25.86-84.23-58.66-87.48-74.11Z"/>
    <path class="st16" d="M676.07,537.5c-.14-.69.3-1.37.99-1.51.69-.14,1.37.3,1.51.99,1.77,8.41,11.12,23.17,28.14,39.07,13.02,12.16,30.49,24.92,52.45,35.94,21.97,11.03,83.87,34.78,160.12,40.73,46.97,3.66,99.37.57,151.19-16.44.67-.22,1.39.15,1.61.82.22.67-.15,1.39-.82,1.61-52.18,17.12-104.91,20.25-152.17,16.56-76.65-5.98-138.95-29.89-161.07-41-22.21-11.15-39.88-24.06-53.05-36.35-17.43-16.28-27.05-31.59-28.91-40.42Z"/>
    <path class="st6" d="M1342.05,478.51c11.83-1.55,17.78-13.29,16.37-23-2.42-3.26-4.71-6.6-6.87-10.01-3.24-5.11-6.19-10.36-8.81-15.7-8.34-16.97-13.43-34.86-14.25-51.84-.46-9.42.4-18.57,2.74-27.13.95-3.48,2.14-6.86,3.59-10.12.33-.75.68-1.5,1.04-2.24-7.59,3.23-13.64,7.86-18.25,13.55-3.02,3.73-5.42,7.91-7.24,12.46-8.78,21.95-4.02,52.52,10.75,81.81,5.6,11.11,12.64,22.03,20.93,32.23Z"/>
    <path class="st6" d="M680.55,923.51c7.29-6.47,12.18-14.69,14.95-23.16.69-2.09,1.24-4.2,1.67-6.3.29-1.42.52-2.83.7-4.23-2.53-7.17-5.89-13.99-9.97-19.94-9.93-14.48-24.15-23.81-40.95-20.49-.37.25-.74.51-1.1.78-2.89,2.14-5.44,4.82-7.62,7.95-9.28,13.32-11.86,34.72-5.29,56.46,2.49,8.23,6.04,15.7,10.32,22.12,6.06-.04,11.58-.8,16.56-2.14,2.18-.59,4.25-1.28,6.23-2.08,3.24-1.31,6.22-2.88,8.94-4.67,1.99-1.31,3.85-2.75,5.57-4.28Z"/>
    <path class="st16" d="M703.13,1046.44c-.93.5-2.09.14-2.59-.79-.5-.93-.14-2.09.79-2.59,10.88-5.83,22.51-9.72,34.28-11.76,21.14-3.68,42.8-1.43,61.54,6.15,18.82,7.61,34.71,20.6,44.23,38.36,3.87,7.23,6.69,15.24,8.21,23.99.18,1.04-.52,2.04-1.57,2.21-1.04.18-2.04-.52-2.21-1.57-1.45-8.34-4.13-15.97-7.8-22.83-9.07-16.93-24.26-29.32-42.28-36.61-18.09-7.32-39.02-9.49-59.47-5.93-11.39,1.98-22.62,5.74-33.12,11.36Z"/>
    <path class="st16" d="M1099.69,212.86c-.99.37-2.09-.13-2.47-1.12-.37-.99.13-2.09,1.12-2.47,4.72-1.79,9.98-5.08,9.99-5.08.9-.56,2.08-.28,2.64.61.56.9.28,2.08-.62,2.64-.01,0-5.57,3.48-10.67,5.42Z"/>
    <path class="st16" d="M1093.25,191.87c-.99.37-2.09-.13-2.47-1.12-.37-.99.13-2.1,1.12-2.47,4.72-1.79,9.98-5.08,9.99-5.08.9-.56,2.08-.29,2.64.61.56.9.28,2.08-.62,2.64-.02,0-5.57,3.48-10.67,5.41Z"/>
    <path class="st16" d="M1085.46,171.88c-.99.37-2.09-.13-2.47-1.12-.37-.99.13-2.1,1.12-2.47,4.72-1.79,9.98-5.08,9.99-5.08.9-.56,2.08-.29,2.64.61.56.9.28,2.08-.62,2.64-.01,0-5.57,3.48-10.67,5.41Z"/>
    <path class="st16" d="M493.2,1123.39c-4.83,4.59-9.73,8.11-14.63,10.66-4.86,2.53-9.78,4.09-14.69,4.56-9.92.95-19.21-2.45-27.76-10.18-8.59-7.76-12.36-16.29-11.74-25.36.31-4.53,1.68-9.06,4.21-13.54,2.52-4.47,6.15-8.92,10.88-13.41,4.71-4.48,9.42-8,14.13-10.39,4.77-2.42,9.58-3.67,14.44-3.99,9.61-.63,18.74,2.84,27.56,10.32,8.85,7.5,13.1,15.62,12.75,24.37-.18,4.39-1.52,8.84-4.02,13.33-2.51,4.5-6.27,9.02-11.12,13.62h0ZM451.65,1087.48c-6.42,6.06-10.07,11.69-10.99,16.96-.92,5.29.95,9.98,5.71,14.22,4.76,4.24,9.98,5.93,15.63,4.9,5.65-1.03,11.72-4.71,18.26-10.89,6.57-6.21,10.28-11.9,11.13-17.01.87-5.17-1.12-9.79-5.96-13.9-4.88-4.14-10.08-5.74-15.75-4.8-5.62.93-11.61,4.46-18.03,10.52h0ZM475.83,1150.8c2.24-2.13,4.53-3.27,6.87-3.38,2.39-.11,4.69.73,7.06,2.6,2.22,1.75,3.41,3.69,3.46,5.79.05,2.08-1.05,4.14-3.24,6.24-2.09,2-4.42,3.08-6.85,3.26-2.44.18-4.75-.62-7.01-2.42-2.25-1.8-3.39-3.72-3.47-5.86-.08-2.12,1.03-4.18,3.18-6.24h0ZM542.22,1155.64c1.41,1.02,2.78,2.01,4.23,3.05,4.16,2.99,7.92,4.59,11.25,4.73,3.24.14,6.33-1.14,9.14-3.82,2.79-2.65,3.79-5.23,2.93-7.78-.87-2.57-3.41-5.33-7.64-8.4-1.33-.96-2.62-1.91-4-2.9-2.63,2.53-5.27,5.06-7.94,7.56-2.68,2.51-5.31,5.04-7.98,7.54h0ZM532.06,1165.26c2.33,1.67,4.66,3.34,6.99,5.01-1.33,5.32-2.58,10.67-3.9,15.96-1.32,5.3-2.53,10.68-3.81,16.01,4.97,3.37,10,6.74,15.03,10.11.43-2.81,1.25-7.31,2.42-13.43,1.18-6.14,2.63-14.03,4.62-23.57,5.21,1.14,10.21,1.12,14.96-.04,4.72-1.16,8.84-3.38,12.29-6.66,5.92-5.62,8.24-11.26,7.05-16.85-1.2-5.63-6.02-11.34-14.45-17.41-6.03-4.34-12.01-8.75-17.93-13.08-9.79,9.29-19.58,18.58-29.37,27.86-9.79,9.28-19.58,18.57-29.36,27.85,4.3,3.22,8.62,6.46,12.87,9.67,3.77-3.56,7.52-7.15,11.29-10.71,3.78-3.56,7.56-7.14,11.3-10.73h0ZM557.25,1210.34c2.25-2.15,4.59-3.34,7.03-3.55,2.46-.21,4.97.46,7.53,2.11,2.48,1.6,3.76,3.35,3.95,5.36.18,1.99-.86,4-3.03,6.08-2.11,2.02-4.46,3.14-7.06,3.42-2.56.28-5.08-.37-7.54-1.92-2.46-1.56-3.8-3.33-3.94-5.37-.14-2.01.91-4.07,3.06-6.13h0ZM639.07,1178.65c6.78,4.29,13.62,8.48,20.56,12.67,9.44,5.7,15.2,10.89,17.18,15.6,2,4.75.45,9.55-4.71,14.42-3.49,3.3-7.29,5.46-11.42,6.49-4.13,1.03-8.04.84-11.61-.54-.13.12-.26.25-.4.38,3.45,3.23,5,6.47,4.66,9.71-.33,3.23-2.35,6.6-6.07,10.15-5.31,5.06-11.78,7.67-19.24,7.95-7.38.28-15-1.75-22.66-6.22-8.43-4.92-16.66-9.97-24.97-15,9.78-9.27,19.55-18.53,29.34-27.81,9.78-9.27,19.56-18.54,29.34-27.82h0ZM629.84,1209.33c2.69,1.63,5.45,3.31,8.19,4.95,3.87,2.31,7.16,3.45,9.93,3.49,2.76.04,5.37-1.11,7.75-3.37,2.25-2.14,2.92-4.21,2.03-6.25-.88-2.02-3.41-4.28-7.43-6.69-2.49-1.5-4.98-3-7.43-4.48-4.35,4.12-8.69,8.24-13.04,12.36h0ZM620.02,1218.66c-2.55,2.39-5.12,4.79-7.66,7.21-2.53,2.41-5.06,4.83-7.58,7.25,3.01,1.82,6.09,3.7,9.21,5.52,3.93,2.29,7.52,3.37,10.71,3.22,3.14-.15,6.09-1.51,8.78-4.05,4.86-4.58,3.21-9.2-4.71-13.88-2.95-1.74-5.91-3.55-8.76-5.28h0ZM642.81,1261.82c2.22-2.11,4.61-3.37,7.1-3.65,2.65-.31,5.23.3,7.95,1.79,2.64,1.44,4.04,3.08,4.31,4.96.26,1.87-.65,3.85-2.81,5.91-2.08,1.98-4.47,3.12-7.16,3.49-2.58.36-5.21-.15-7.81-1.57-2.64-1.44-4.13-3.12-4.38-5.02-.25-1.9.67-3.88,2.81-5.91h0ZM668.12,1283.72c5.01,2.6,9.98,5.18,15.04,7.71,9.62-9.1,19.18-18.25,28.78-27.36,9.6-9.11,19.25-18.22,28.87-27.32-4.96-2.6-9.91-5.2-14.87-7.79-9.68,9.11-19.27,18.26-28.91,27.39-9.64,9.13-19.27,18.25-28.9,27.37h0ZM703.52,1293.36c2.19-2.1,4.6-3.29,7.2-3.64,2.59-.34,5.29.21,8.09,1.57,2.72,1.32,4.27,2.83,4.66,4.67.38,1.81-.56,3.71-2.7,5.74-2.05,1.95-4.45,3.11-7.19,3.54-2.66.42-5.42,0-8.14-1.31-2.72-1.31-4.28-2.96-4.6-4.77-.32-1.86.59-3.79,2.69-5.81h0ZM751.36,1323.71c-5.26-2.38-10.49-4.72-15.67-7.05,7.81-7.45,15.72-14.87,23.52-22.32,7.82-7.46,15.72-14.88,23.54-22.33-6.56-3.13-13.12-6.25-19.73-9.4,3.42-3.17,6.76-6.39,10.14-9.58,18.27,8.73,36.68,17.24,55.28,25.61-3.36,3.16-6.68,6.35-10.04,9.51-6.78-2.96-13.42-5.97-20.13-9.03-7.81,7.44-15.63,14.88-23.45,22.29-7.81,7.41-15.65,14.86-23.45,22.29h0ZM778.94,1328.07c2.17-2.08,4.6-3.32,7.23-3.7,2.72-.39,5.45.04,8.37,1.29,2.92,1.26,4.46,2.69,4.9,4.46.44,1.77-.4,3.63-2.54,5.65-2.04,1.93-4.5,3.1-7.25,3.55-2.73.45-5.43.1-8.31-1.14-2.84-1.21-4.54-2.7-4.94-4.49-.39-1.73.44-3.64,2.53-5.64Z"/>
    <path class="st16" d="M840.86,1386.04c-.69.15-1.37-.29-1.52-.99-.14-.69.3-1.37.99-1.51,32.78-7.05,61.7-17.96,87.16-31.71,27.94-15.09,51.71-33.6,71.86-54.17,22.11-22.57,39.96-48.23,55.1-79.84,15.16-31.66,27.62-69.29,38.93-115.79.17-.68.86-1.11,1.54-.94.68.17,1.1.86.94,1.54-11.35,46.67-23.86,84.47-39.11,116.29-15.27,31.88-33.27,57.75-55.58,80.53-20.32,20.75-44.29,39.41-72.47,54.63-25.66,13.86-54.81,24.86-87.84,31.96Z"/>
    <path class="st16" d="M946.14,1246.5c-9.28-9.91-19.21-22.41-24.25-35.15-3.26-8.24-5.25-19.24,1.61-26.32,7.07-7.29,18.48-5.29,26.96-2.07,13.58,5.17,27.16,15.65,37.88,25.27,16.75,15.01,32.89,30.93,48.72,46.9,19.06,19.22,37.77,38.81,56.26,58.58,20.05,21.45,39.86,43.15,59.35,65.12,15.51,17.48,30.97,35.18,45.75,53.29,5.03,6.16,15.34,19.66,7.52,27.37-3.78,3.73-9.32,3.16-13.88,1.43-4.66-1.77-9.16-4.9-12.88-8.18-18.26-16.08-37.15-31.64-55.79-47.28-25.62-21.49-51.19-43.04-76.45-64.94-18.57-16.1-36.99-32.4-55.03-49.09-15.65-14.48-31.21-29.35-45.78-44.92Z"/>
    <path class="st2" d="M950.89,1242.06c60.53,64.67,188.89,167.3,232.6,205.8,14.34,12.63,28.46,11.1,9.91-11.63-44.44-54.44-151.46-171.23-209.39-223.15-56.19-50.37-81.24-22.43-33.12,28.98Z"/>
    <path class="st21" d="M1012.68,1274.03c18.25,17.6,37.98,36.35,57.83,54.94,1.87,1.75,3.74,3.5,5.61,5.25,7.9,7.37,15.79,14.69,23.6,21.88,3.48,3.21,6.95,6.39,10.39,9.53,2.15,1.96,4.28,3.92,6.41,5.85,1.61,1.47,3.21,2.93,4.81,4.38,29.76,27,56.97,50.78,76.47,66.24-1.2-1.77-2.65-3.73-4.4-5.87-15.02-18.39-37.18-43.91-62.17-71.63-1.46-1.62-2.93-3.25-4.41-4.88-1.87-2.07-3.76-4.15-5.66-6.24-5.02-5.51-10.12-11.09-15.28-16.68-5.08-5.52-10.22-11.06-15.38-16.59-1.75-1.88-3.51-3.75-5.26-5.63-19.83-21.15-39.83-41.93-58.26-60.37-1.58-1.58-3.14-3.14-4.7-4.68-14.05-13.96-27.07-26.41-38.26-36.44-27.99-25.09-48.26-30.75-55.6-23.75,11.32,13.04,41.96,43.82,79.57,80.17,1.55,1.5,3.12,3.02,4.7,4.54Z"/>
    <polygon class="st16" points="1218.25 1255.22 1367.6 1321.58 1358.58 1277.44 1218.25 1255.22"/>
    <polygon class="st16" points="1006.15 1459.55 1054.05 1603.58 1011.32 1590.43 1006.15 1459.55"/>
    <polygon class="st16" points="1197.71 1235.77 1298.72 1238.07 1266.96 1207.08 1197.71 1235.77"/>
    <polygon class="st16" points="1079.85 1566.03 1093.4 1634.08 1120.28 1615.48 1079.85 1566.03"/>
    <path class="st16" d="M8.82,447.94c130.36-15.37,258.75,3.85,381.49,49.07,2.4.89,3.98,2.94,4.23,5.48,2.77,29.05-.92,59.87-7.98,88.08-8.83,35.27-23.59,69.23-43.01,99.95-50.84,80.43-128.92,132.64-219.8,158.37-2.84.8-5.75-.33-7.3-2.84-39.17-63.41-70.65-131.92-90.6-203.82C8.93,581.22.26,517.45,3.09,454.11c.14-3.21,2.55-5.79,5.74-6.17Z"/>
    <path class="st11" d="M9.58,454.4c-5.16,115.57,27.8,251.25,112.41,388.23,212.08-60.04,275.42-241.68,266.08-339.51-117.7-43.36-245.05-64.45-378.49-48.71Z"/>
    <path class="st17" d="M9.58,454.4c-5.16,115.57,27.8,251.25,112.41,388.23,86.03-24.35,147.57-68.71,189.73-119.37-.05.02-.09.04-.13.07-103.11,56.71-277.32-68.06-298.69-269.3-1.1.12-2.21.25-3.31.38Z"/>
    <path class="st14" d="M108.53,820.09c4.33,7.51,8.81,15.02,13.46,22.54,212.08-60.04,275.42-241.68,266.08-339.51-7.68-2.83-15.4-5.56-23.16-8.2,2.48,53.17-29.9,214.08-155.61,278.2-40.09,20.45-73.54,35.67-100.76,46.98Z"/>
    <path class="st1" d="M357.39,492.4c-96.07-31.73-198.19-48.2-304.51-41.84,68.25,107.77,172.23,180.08,236.81,146.5,32.98-17.15,54.4-62.57,67.7-104.66Z"/>
    <path class="st16" d="M102.12,815.11c.1-.03,15.29.25,31.24-6.27,38.11-15.55,109.59-50.52,157.79-109.33,67.82-82.75,71.58-173.77,72.77-202.45.09-2.26.17-4.15.25-5.47l5.1.3c-.09,1.54-.16,3.29-.25,5.37-1.2,29.1-5.02,121.44-73.91,205.49-69.36,84.63-186.05,120.52-186.39,120.63l-6.6-8.27Z"/>
    <path class="st10" d="M363.17,456.5c-33.9-16.51-86.91-13.74-117.25.24,20.78,3.92,41.38,8.62,61.8,14.05,1.42-.57,2.75-1.08,3.95-1.52,7.12-2.64,14.52-4.77,21.86-6.68,13.62-3.55,22.17-6.02,29.64-6.09Z"/>
    <path class="st16" d="M137.56,810.33c-.43-.96,0-2.1.96-2.54.96-.44,2.1,0,2.54.96,1.64,3.6,12.83,27.69,12.86,27.76.44.96.02,2.1-.94,2.54-.96.44-2.1.02-2.54-.94-.03-.07-11.13-23.94-12.88-27.79Z"/>
    <path class="st16" d="M206.81,774.72c-.59-.88-.36-2.07.52-2.66.88-.59,2.07-.36,2.66.52l18.29,27.1c.59.88.36,2.07-.52,2.66-.88.59-2.07.36-2.66-.52l-18.29-27.09Z"/>
    <path class="st16" d="M282.97,713.41c-.78-.71-.83-1.92-.12-2.7.71-.78,1.92-.83,2.7-.12l23.71,21.68c.78.71.83,1.92.12,2.7-.71.78-1.92.83-2.7.12l-23.71-21.68Z"/>
    <path class="st16" d="M338.32,628.39c-.96-.45-1.37-1.59-.92-2.54.45-.96,1.59-1.37,2.54-.92l26.76,12.53c.96.45,1.37,1.59.92,2.54-.45.96-1.59,1.37-2.54.92l-26.76-12.53Z"/>
    <path class="st16" d="M402.61,402.53c-1.02-.27-1.64-1.31-1.37-2.33.27-1.02,1.31-1.64,2.33-1.37,21.73,5.62,36.73,21.97,45.71,43.62,10.09,24.35,12.54,55.44,8.32,85.4-.14,1.05-1.11,1.78-2.16,1.64-1.05-.15-1.78-1.11-1.63-2.16,4.13-29.33,1.76-59.7-8.07-83.41-8.53-20.58-22.7-36.1-43.13-41.39Z"/>
    <path class="st16" d="M429.33,513.79c-7.09.33-14.22.48-21.31.58-15.39.22-30.84.06-46.21-.75-9.99-.52-20.04-1.31-29.95-2.7-8.26-1.16-17.13-2.77-24.97-5.66-7.23-2.66-17.98-7.47-18-16.62-.02-10.5,14.67-16.37,22.78-19.38,7.12-2.64,14.52-4.77,21.86-6.68,33.45-8.72,36.28-10.89,67.79,12.81,11.03,8.3,22.11,17.67,32.17,27.16,1.94,1.83-3.23,11.18-4.16,11.22Z"/>
    <path class="st4" d="M362.65,462.58c-56.22,11.51-86.7,24.39-53.51,36.58,25.5,9.37,82.61,9.14,107.69,8.53,7.56-.18,21.02,9.08,21.02,9.08,0,0,1.72-11.3-3.09-17.84-11.42-15.54-37.63-35.71-52.46-40.41-2.26-.72-17.87,4-19.64,4.06Z"/>
    <path class="st10" d="M357.08,493.36c-23.86-2.31-45.98-7.96-54.1-13.1-11.14,6.3-10.76,12.69,6.16,18.9,10.58,3.89,26.6,6.12,43.51,7.36,4.41.32,8.89.58,13.34.78,7.69.35,15.32.52,22.48.6,2.22.02,4.4.04,6.52.04,1.99,0,3.93,0,5.81-.01.04,0,.09,0,.13,0,6.06-.03,11.47-.13,15.89-.24.45-.01.93.01,1.42.06,3.74.4,8.46,2.54,12.34,4.63,1.07.58,2.07,1.15,2.97,1.68,2.56,1.52,4.29,2.71,4.29,2.71,0,0,.05-.3.1-.84.35.15.69.3,1.04.44.51-10.78.09-21.66-1.25-32.11-.63-4.93-1.51-9.98-2.66-15.02-.23.85-.48,1.72-.72,2.62-1.64,5.94-5.73,10.5-11.52,13.9-1.62.95-3.38,1.82-5.25,2.6-9.3,3.88-21.47,5.67-34.46,6.01-.01,0-.03,0-.04,0-5.4.14-10.94.03-16.48-.28-1.68-.09-3.37-.21-5.04-.34-.03,0-.07,0-.1,0-.03,0-.05,0-.08,0-1.44-.11-2.87-.24-4.3-.38Z"/>
    <path class="st16" d="M361.85,552c-1.04-.17-1.75-1.16-1.58-2.21.17-1.04,1.16-1.75,2.21-1.57l28.45,4.74c1.04.17,1.75,1.16,1.58,2.21-.17,1.04-1.16,1.75-2.21,1.58l-28.45-4.74Z"/>
    <path class="st16" d="M923.8,1188.25c-.51-.49-.53-1.3-.04-1.8.49-.51,1.3-.53,1.8-.04l279.75,265.53c.51.49.53,1.29.05,1.81-.49.51-1.29.53-1.81.04l-279.76-265.53Z"/>
    <path class="st10" d="M895.2,492.45c3.47.92,6.98,1.8,10.5,2.65,17.69,4.23,35.95,7.42,54.39,9.47.19-4.36.67-8.7,1.44-13-17.2-1.29-33.74-3.89-49.47-7.48-2.6-.59-5.17-1.21-7.72-1.85-26.31-6.64-50.22-15.98-71.03-26.42-5.63-2.82-11.03-5.73-16.2-8.69-2.36-1.35-4.68-2.72-6.94-4.09-17.32-10.5-31.63-21.45-42.34-31.49-1.63-1.53-3.18-3.03-4.64-4.52-.89-.9-1.74-1.78-2.56-2.66-.96-1.03-1.88-2.04-2.75-3.03-5.12-5.84-8.73-11.12-10.67-15.5-.12-.28-.24-.55-.35-.82-2.44,2.77-4.82,5.6-7.14,8.49.07.13.14.26.21.39,3.87,7.11,8.67,13.99,14.29,20.61,1.57,1.85,3.21,3.68,4.91,5.49,1.89,2.01,3.86,4,5.9,5.96,3.9,3.75,8.08,7.4,12.5,10.94,8.9,7.13,18.8,13.83,29.52,20.06,2.64,1.53,5.33,3.03,8.07,4.5,18.96,10.2,40.18,18.95,62.77,26,5.68,1.77,11.45,3.43,17.29,4.98Z"/>
    <path class="st10" d="M976.63,641.84c-48.18,2.55-96.21-2.7-139.42-13.84-73.61-18.98-133.3-55.12-156.03-99.11-.59,3.88-1.11,7.76-1.55,11.65,3.25,8.67,12.25,21.65,27.08,35.5,13.02,12.16,30.49,24.92,52.45,35.94,21.97,11.03,83.87,34.78,160.12,40.73,16.31,1.27,33.28,1.73,50.65,1.07,2.41-3.87,4.64-7.85,6.7-11.94Z"/>
  </g>
</svg>