<svg xmlns="http://www.w3.org/2000/svg" viewBox="0 0 675 1000"><defs><style>.cls-1{fill:#020202;}.cls-2{opacity:0.18;}</style></defs><g id="Layer_9" data-name="Layer 9"><path class="cls-1" d="M25.39,900H81.16q15.59,0,15.59-15.7V744q0-15.81-15.59-15.81H25.39q-15.27,0-15.26,15.81V884.3Q10.13,900,25.39,900ZM35.82,750.25H71.06V877.94H35.82Z"/><path class="cls-1" d="M190.07,802.18q0-13.5-13.72-13.5a118.82,118.82,0,0,0-17.57,1.75q-8.79,1.44-17.56,2.75v-4.06H116.07v151.4h25.15V900q2.63,0,8.61.22t9.28.22q14.26,0,21.3-3.84,9.66-5.39,9.66-18.88ZM164.82,870.8q0,8.34-8,8.34H141.22V810.52l23.6-.43Z"/><path class="cls-1" d="M272.63,850.49l6.92-6.92V802.84q0-13.73-14.16-13.72H222q-14.16,0-14.16,13.72v83.44Q207.86,900,222,900h43.37q14.16,0,14.16-13.72V863.11H255.5v18.45H231.9V850.49ZM231.9,807.56h23.6v26.57H231.9Z"/><path class="cls-1" d="M297.77,789.12V900h25.15V810.52l23.6-.43V900h25.25V802.18q0-13.5-13.72-13.5a114.07,114.07,0,0,0-17.68,1.75q-8.67,1.32-17.45,2.75v-4.06Z"/><path class="cls-1" d="M416.35,749.81h31.4V782.2h25.69V743.77q0-15.59-15.59-15.59H406.14q-15.48,0-15.48,15.81V782.2a18.94,18.94,0,0,0,2.53,9.84,18.16,18.16,0,0,0,3.06,3.88l51.5,48.75v33.7h-31.4v-35H390.66V884.3q0,15.71,15.48,15.7h51.71q15.58,0,15.59-15.7V843.35q0-8.67-5.6-13.94L428.19,792l-11.84-11.16Z"/><path class="cls-1" d="M519.11,749.81h31.4V782.2H576.2V743.77q0-15.59-15.59-15.59H508.9q-15.48,0-15.48,15.81V782.2A18.94,18.94,0,0,0,496,792a17.85,17.85,0,0,0,3.06,3.88l51.49,48.75v33.7h-31.4v-35H493.42V884.3q0,15.71,15.48,15.7h51.71q15.58,0,15.59-15.7V843.35q0-8.67-5.6-13.94L531,792l-11.84-11.16Z"/><polygon class="cls-1" points="596.62 728.18 596.62 760.72 596.62 900 622.31 900 622.31 824.03 660.3 824.03 660.3 801.74 622.31 801.74 622.31 750.91 666.77 750.91 666.77 728.18 625.29 728.18 596.62 728.18"/><path class="cls-1" d="M20.69,967.56a9.53,9.53,0,0,0-7.36,3q-2.74,3-2.75,8.24v8.16q0,5.28,2.74,8.23a9.57,9.57,0,0,0,7.37,2.94,9.84,9.84,0,0,0,7.49-2.94q2.81-3,2.8-8.23v-8.16c0-3.5-.93-6.25-2.81-8.24A9.8,9.8,0,0,0,20.69,967.56Zm6.07,19.37q0,3.93-1.57,5.94a5.38,5.38,0,0,1-4.5,2,5.18,5.18,0,0,1-4.38-2,9.7,9.7,0,0,1-1.53-5.93v-8.22a9.66,9.66,0,0,1,1.52-5.88,5.18,5.18,0,0,1,4.39-2,5.4,5.4,0,0,1,4.49,2,9.32,9.32,0,0,1,1.58,5.88Z"/><path class="cls-1" d="M45.83,968h-10v29.68h4.24V985.93h5.74a9,9,0,1,0,0-17.94Zm3.63,13.15a4.24,4.24,0,0,1-3.63,1.65H40.09V971.13h5.74a4.22,4.22,0,0,1,3.64,1.66A6.93,6.93,0,0,1,50.69,977,6.74,6.74,0,0,1,49.46,981.14Z"/><polygon class="cls-1" points="63.72 983.87 75 983.87 75 980.73 63.72 980.73 63.72 971.13 76.67 971.13 76.67 967.99 59.48 967.99 59.48 997.67 76.79 997.67 76.79 994.53 63.72 994.53 63.72 983.87"/><polygon class="cls-1" points="96.63 989.97 96.5 990.01 84.98 967.99 80.74 967.99 80.74 997.67 84.98 997.67 84.98 975.63 85.1 975.59 96.63 997.67 100.85 997.67 100.85 967.99 96.63 967.99 96.63 989.97"/><path class="cls-1" d="M125.74,981.06a12.69,12.69,0,0,1-4.56-2.36,4.19,4.19,0,0,1-1.37-3.19,4.53,4.53,0,0,1,4.92-4.81,4.76,4.76,0,0,1,3.86,1.63,6.33,6.33,0,0,1,1.36,4.22H134l0-.12a8.31,8.31,0,0,0-2.5-6.27,9.11,9.11,0,0,0-6.79-2.6,9.69,9.69,0,0,0-6.63,2.25,7.29,7.29,0,0,0-2.58,5.75,7,7,0,0,0,2.31,5.47,17.38,17.38,0,0,0,6.67,3.35,10,10,0,0,1,4.23,2.36,5,5,0,0,1,1.22,3.45,4.62,4.62,0,0,1-1.35,3.48,5.17,5.17,0,0,1-3.73,1.29,6.21,6.21,0,0,1-4.29-1.46A5.76,5.76,0,0,1,119,989h-4.07l0,.12a7.68,7.68,0,0,0,2.93,6.64,11.29,11.29,0,0,0,7.11,2.35,10.21,10.21,0,0,0,6.75-2.14,7.16,7.16,0,0,0,2.56-5.8,7.65,7.65,0,0,0-2.17-5.65A14.79,14.79,0,0,0,125.74,981.06Z"/><path class="cls-1" d="M147.85,967.56a9.53,9.53,0,0,0-7.36,3q-2.75,3-2.75,8.24v8.16q0,5.28,2.74,8.23a9.57,9.57,0,0,0,7.37,2.94,9.84,9.84,0,0,0,7.49-2.94q2.81-3,2.8-8.23v-8.16c0-3.5-.93-6.25-2.81-8.24A9.8,9.8,0,0,0,147.85,967.56Zm6.07,19.37q0,3.93-1.57,5.94a5.38,5.38,0,0,1-4.5,2,5.17,5.17,0,0,1-4.38-2,9.7,9.7,0,0,1-1.53-5.93v-8.22a9.66,9.66,0,0,1,1.52-5.88,5.18,5.18,0,0,1,4.39-2,5.4,5.4,0,0,1,4.49,2,9.39,9.39,0,0,1,1.58,5.88Z"/><path class="cls-1" d="M177.66,988.56q0,3.3-1.48,4.85a5.34,5.34,0,0,1-4.07,1.55,5.09,5.09,0,0,1-4-1.61,6.93,6.93,0,0,1-1.46-4.79V968h-4.2v20.57q0,4.61,2.66,7.07a9.75,9.75,0,0,0,7,2.47,10.07,10.07,0,0,0,7.07-2.47q2.7-2.46,2.7-7.07V968h-4.22Z"/><path class="cls-1" d="M205.77,992.82v-2.59a9.05,9.05,0,0,0-1-4.46,5.64,5.64,0,0,0-3.29-2.56,7.34,7.34,0,0,0,3.16-2.71,7.46,7.46,0,0,0,1.1-4.06,8.1,8.1,0,0,0-2.36-6.25,9.46,9.46,0,0,0-6.68-2.18h-9.46v29.66h4.24v-12.8h5.74a3.83,3.83,0,0,1,3.18,1.45,6.16,6.16,0,0,1,1.16,3.94v2.51a20.1,20.1,0,0,0,.2,2.87,3.32,3.32,0,0,0,.91,2H207v-.47a3.69,3.69,0,0,1-1-1.84A10.74,10.74,0,0,1,205.77,992.82Zm-5.5-12.45a4.85,4.85,0,0,1-3.79,1.36h-5V971.15h5.22a4.47,4.47,0,0,1,3.61,1.41,6,6,0,0,1,1.19,4A5.58,5.58,0,0,1,200.27,980.37Z"/><path class="cls-1" d="M216.15,972.76a4.66,4.66,0,0,1,4-2.06,4.77,4.77,0,0,1,3.94,1.54,7.72,7.72,0,0,1,1.32,4.8h4l.06-.12q-.06-4.59-2.46-7t-6.87-2.38a9,9,0,0,0-7,3q-2.64,3-2.64,8.22V987q0,5.26,2.67,8.2a10.42,10.42,0,0,0,13.93.5,9.46,9.46,0,0,0,2.42-6.89l-.06-.12h-4a7.72,7.72,0,0,1-1.27,4.8,4.66,4.66,0,0,1-3.85,1.5,4.8,4.8,0,0,1-4.14-2.06A10.17,10.17,0,0,1,214.7,987v-8.32A10.14,10.14,0,0,1,216.15,972.76Z"/><polygon class="cls-1" points="238.36 983.87 249.64 983.87 249.64 980.73 238.36 980.73 238.36 971.13 251.31 971.13 251.31 967.99 234.12 967.99 234.12 997.67 251.43 997.67 251.43 994.53 238.36 994.53 238.36 983.87"/><path class="cls-1" d="M274.34,981.06a12.55,12.55,0,0,1-4.55-2.36,4.2,4.2,0,0,1-1.38-3.19,4.87,4.87,0,0,1,1.28-3.46,4.8,4.8,0,0,1,3.65-1.35,4.74,4.74,0,0,1,3.85,1.63,6.34,6.34,0,0,1,1.37,4.22h4.07l0-.12a8.31,8.31,0,0,0-2.5-6.27,9.11,9.11,0,0,0-6.79-2.6,9.72,9.72,0,0,0-6.63,2.25,7.29,7.29,0,0,0-2.58,5.75,7,7,0,0,0,2.32,5.47,17.26,17.26,0,0,0,6.66,3.35,10.1,10.1,0,0,1,4.24,2.36,5,5,0,0,1,1.21,3.45,4.62,4.62,0,0,1-1.35,3.48,5.17,5.17,0,0,1-3.73,1.29,6.23,6.23,0,0,1-4.29-1.46,5.76,5.76,0,0,1-1.64-4.51h-4.07l0,.12a7.68,7.68,0,0,0,2.93,6.64,11.29,11.29,0,0,0,7.11,2.35,10.17,10.17,0,0,0,6.75-2.14,7.17,7.17,0,0,0,2.57-5.8,7.66,7.66,0,0,0-2.18-5.65A14.73,14.73,0,0,0,274.34,981.06Z"/><polygon class="cls-1" points="291.63 983.87 302.9 983.87 302.9 980.73 291.63 980.73 291.63 971.13 304.57 971.13 304.57 967.99 287.39 967.99 287.39 997.67 304.7 997.67 304.7 994.53 291.63 994.53 291.63 983.87"/><path class="cls-1" d="M313.3,972.76a4.66,4.66,0,0,1,4.05-2.06,4.79,4.79,0,0,1,3.95,1.54,7.79,7.79,0,0,1,1.31,4.8h4l.06-.12q-.06-4.59-2.46-7t-6.87-2.38a9,9,0,0,0-7.05,3q-2.64,3-2.64,8.22V987q0,5.26,2.67,8.2a9.23,9.23,0,0,0,7.14,2.93,9.11,9.11,0,0,0,6.79-2.43,9.46,9.46,0,0,0,2.42-6.89l-.06-.12h-4a7.79,7.79,0,0,1-1.26,4.8,4.7,4.7,0,0,1-3.86,1.5,4.8,4.8,0,0,1-4.14-2.06,10.18,10.18,0,0,1-1.47-5.94v-8.32A10.22,10.22,0,0,1,313.3,972.76Z"/><path class="cls-1" d="M345.93,988.56q0,3.3-1.48,4.85a5.34,5.34,0,0,1-4.07,1.55,5.09,5.09,0,0,1-3.95-1.61,6.93,6.93,0,0,1-1.46-4.79V968h-4.19v20.57q0,4.61,2.65,7.07a9.75,9.75,0,0,0,6.95,2.47,10.06,10.06,0,0,0,7.07-2.47q2.7-2.46,2.7-7.07V968h-4.22Z"/><path class="cls-1" d="M374,992.82v-2.59a9.05,9.05,0,0,0-1-4.46,5.64,5.64,0,0,0-3.29-2.56,7.34,7.34,0,0,0,3.16-2.71,7.46,7.46,0,0,0,1.1-4.06,8.1,8.1,0,0,0-2.36-6.25A9.46,9.46,0,0,0,365,968H355.5v29.66h4.24v-12.8h5.74a3.83,3.83,0,0,1,3.18,1.45,6.16,6.16,0,0,1,1.16,3.94v2.51a20.1,20.1,0,0,0,.2,2.87,3.32,3.32,0,0,0,.91,2h4.36v-.47a3.69,3.69,0,0,1-1-1.84A10.74,10.74,0,0,1,374,992.82Zm-5.5-12.45a4.85,4.85,0,0,1-3.79,1.36h-5V971.15H365a4.47,4.47,0,0,1,3.61,1.41,6,6,0,0,1,1.19,4A5.58,5.58,0,0,1,368.54,980.37Z"/><rect class="cls-1" x="380.05" y="967.99" width="4.22" height="29.69"/><polygon class="cls-1" points="387.65 971.13 395.42 971.13 395.42 997.67 399.66 997.67 399.66 971.13 407.47 971.13 407.47 967.99 387.65 967.99 387.65 971.13"/><polygon class="cls-1" points="420.06 982.4 419.93 982.4 413.73 967.99 408.99 967.99 417.82 986.73 417.82 997.67 422.04 997.67 422.04 986.99 430.98 967.99 426.28 967.99 420.06 982.4"/><polygon class="cls-1" points="443.74 997.67 447.97 997.67 447.97 984.46 459.27 984.46 459.27 981.32 447.97 981.32 447.97 971.13 461.09 971.13 461.09 967.99 443.74 967.99 443.74 997.67"/><path class="cls-1" d="M474.1,967.56a9.53,9.53,0,0,0-7.36,3c-1.84,2-2.75,4.74-2.75,8.24v8.16q0,5.28,2.73,8.23a9.6,9.6,0,0,0,7.38,2.94,9.84,9.84,0,0,0,7.49-2.94q2.81-3,2.8-8.23v-8.16q0-5.25-2.81-8.24A9.81,9.81,0,0,0,474.1,967.56Zm6.07,19.37q0,3.93-1.57,5.94a5.41,5.41,0,0,1-4.5,2,5.16,5.16,0,0,1-4.38-2,9.7,9.7,0,0,1-1.53-5.93v-8.22a9.59,9.59,0,0,1,1.52-5.88,5.18,5.18,0,0,1,4.39-2,5.37,5.37,0,0,1,4.48,2,9.32,9.32,0,0,1,1.59,5.88Z"/><path class="cls-1" d="M503.91,988.56q0,3.3-1.48,4.85a5.35,5.35,0,0,1-4.07,1.55,5.09,5.09,0,0,1-3.95-1.61,6.93,6.93,0,0,1-1.46-4.79V968h-4.2v20.57c0,3.07.89,5.43,2.65,7.07a9.79,9.79,0,0,0,7,2.47,10,10,0,0,0,7.06-2.47q2.71-2.46,2.71-7.07V968h-4.22Z"/><polygon class="cls-1" points="529.36 989.97 529.24 990.01 517.71 967.99 513.47 967.99 513.47 997.67 517.71 997.67 517.71 975.63 517.84 975.59 529.36 997.67 533.58 997.67 533.58 967.99 529.36 967.99 529.36 989.97"/><path class="cls-1" d="M547.86,968h-8.35v29.68h8.35a10,10,0,0,0,7.91-3.54,13.57,13.57,0,0,0,3.06-9.18v-4.22a13.61,13.61,0,0,0-3.06-9.18A10,10,0,0,0,547.86,968Zm6.75,16.94a12,12,0,0,1-1.85,6.93,5.81,5.81,0,0,1-5,2.67h-4v-23.4h4a5.82,5.82,0,0,1,5,2.66,11.83,11.83,0,0,1,1.85,6.87Z"/><path class="cls-1" d="M570.14,968l-9.35,29.68h4.3l2.21-7.5H577l2.21,7.5h4.31L574.23,968Zm-1.86,18.9,3.83-13h.12l3.8,13Z"/><polygon class="cls-1" points="582 971.13 589.77 971.13 589.77 997.67 594.01 997.67 594.01 971.13 601.82 971.13 601.82 967.99 582 967.99 582 971.13"/><rect class="cls-1" x="605.76" y="967.99" width="4.22" height="29.69"/><path class="cls-1" d="M625.24,967.56a9.55,9.55,0,0,0-7.36,3q-2.75,3-2.74,8.24v8.16q0,5.28,2.73,8.23a9.59,9.59,0,0,0,7.37,2.94,9.87,9.87,0,0,0,7.5-2.94c1.86-2,2.8-4.71,2.8-8.23v-8.16q0-5.25-2.81-8.24A9.82,9.82,0,0,0,625.24,967.56Zm6.08,19.37a9.5,9.5,0,0,1-1.58,5.94,5.38,5.38,0,0,1-4.5,2,5.15,5.15,0,0,1-4.37-2,9.69,9.69,0,0,1-1.54-5.93v-8.22a9.59,9.59,0,0,1,1.53-5.88,5.18,5.18,0,0,1,4.38-2,5.39,5.39,0,0,1,4.49,2,9.32,9.32,0,0,1,1.59,5.88Z"/><polygon class="cls-1" points="656.29 989.97 656.17 990.01 644.64 967.99 640.4 967.99 640.4 997.67 644.64 997.67 644.64 975.63 644.77 975.59 656.29 997.67 660.51 997.67 660.51 967.99 656.29 967.99 656.29 989.97"/><path class="cls-1" d="M359.57,322.43a115.31,115.31,0,0,1-13.77-1.32,4,4,0,0,0-.77,0,4,4,0,0,0-3.26,1.95,3.9,3.9,0,0,0-.48,1.17A335.24,335.24,0,0,0,335,363.7q-.39,4-.69,8a334.78,334.78,0,0,0,3.58,79.82,286.18,286.18,0,0,0,9.17,38.88c1.12,3.55,2.3,7.09,3.59,10.58,9.72,26.39,26.36,41.49,46.66,53.56,1,.6,2,1.2,3.07,1.79,11.36,6.48,23.78,12.16,36.72,18.42a3.88,3.88,0,0,0,3.48,0c12.93-6.26,25.35-11.94,36.71-18.42C499,543.94,516.82,528.67,527,501a261.39,261.39,0,0,0,10.72-38.47c.74-3.66,1.43-7.32,2-11A333.16,333.16,0,0,0,544,411.72a337.59,337.59,0,0,0-7.58-87.53,4,4,0,0,0-2.29-2.79,3.94,3.94,0,0,0-1.45-.33,4.12,4.12,0,0,0-.78,0,114.83,114.83,0,0,1-15.28,1.35c-1,0-2,.05-3,0a108.62,108.62,0,0,1-52.27-13.69,122.67,122.67,0,0,1-19.86-13.75,4,4,0,0,0-5.17,0,122.59,122.59,0,0,1-19.85,13.75,108.65,108.65,0,0,1-52.27,13.69C362.61,322.51,361.09,322.49,359.57,322.43Zm79.27,248.71h0l.29-.14-.06,0Zm-6.85-3.3,3.16,1.52,3.06,1.48.53.25L432.22,568l-.17-.09Zm13.34.18.78-.38-.19.09Z"/><path class="cls-1" d="M365.1,115a10.6,10.6,0,1,0,0-15A10.6,10.6,0,0,0,365.1,115Zm13.5-1.49a8.5,8.5,0,0,1-10.72,1l11.77-11.77A8.5,8.5,0,0,1,378.6,113.47Zm-12-12a8.49,8.49,0,0,1,10.72-1.06l-11.77,11.77A8.48,8.48,0,0,1,366.59,101.47Z"/><path class="cls-1" d="M368.48,70.09a4.76,4.76,0,1,0-4.76,4.75A4.76,4.76,0,0,0,368.48,70.09Z"/><path class="cls-1" d="M302.21,65.32c1,.33,2.38-1,3-3s.29-3.84-.74-4.16-2.38,1-3,3S301.17,65,302.21,65.32Z"/><path class="cls-1" d="M292.82,273.19a3.86,3.86,0,1,0-3.75-4A3.86,3.86,0,0,0,292.82,273.19Z"/><path class="cls-1" d="M370.38,276.4a3.86,3.86,0,1,0-3.74-4A3.86,3.86,0,0,0,370.38,276.4Z"/><path class="cls-1" d="M305.71,281.33a3.86,3.86,0,1,0-3.74-4A3.86,3.86,0,0,0,305.71,281.33Z"/><path class="cls-1" d="M356.71,284.27a3.86,3.86,0,1,0-3.74-4A3.86,3.86,0,0,0,356.71,284.27Z"/><path class="cls-1" d="M321.9,286.46a3.86,3.86,0,1,0-3.74-4A3.86,3.86,0,0,0,321.9,286.46Z"/><path class="cls-1" d="M340,287.81a3.86,3.86,0,1,0-3.75-4A3.85,3.85,0,0,0,340,287.81Z"/><path class="cls-1" d="M226.83,482.41c.93-4.74-1.78-10-6-11.8s-8.46.63-9.39,5.37,1.77,10,6,11.8S225.9,487.15,226.83,482.41Zm-6.37-10.09a8.71,8.71,0,0,1,5,8.06l-12.1-5A5.24,5.24,0,0,1,220.46,472.32Zm-2.68,13.75a8.74,8.74,0,0,1-5-8.06l12.11,5.05A5.24,5.24,0,0,1,217.78,486.07Z"/><path class="cls-1" d="M318.46,626.46a16.69,16.69,0,1,0,18.46,14.7A16.68,16.68,0,0,0,318.46,626.46Zm3.31,29.21A12.71,12.71,0,1,1,333,641.61,12.71,12.71,0,0,1,321.77,655.67Z"/><path class="cls-1" d="M326.57,635.22a10,10,0,1,0,1.59,14A10,10,0,0,0,326.57,635.22Zm-11.22,14.09a8,8,0,0,1-2.13-9.94l12.29,9.78A8,8,0,0,1,315.35,649.31Zm12.1-2.6-12.28-9.78a8,8,0,0,1,12.28,9.78Z"/><path class="cls-1" d="M664.87,669H486.73c-7.14-6.11-14.49-12-22-17.66-.56-6.56-2-16.12-5.46-21.38-2-3-4.87-5.68-8.44-6.32l-6-29.79.45-.21c6.83-3.16,13.3-6.17,19.39-9.12.27-.13.55-.25.82-.39l1.35-.67c2.45-1.2,4.85-2.39,7.18-3.58l2.52-1.3c2.45-1.27,4.83-2.54,7.15-3.83l1.17-.62,1.11-.66q3.21-1.81,6.25-3.67c.64-.39,1.27-.78,1.89-1.18q3.32-2.07,6.43-4.23l1.38-1c2.23-1.58,4.38-3.2,6.47-4.88l1.05-.85c2.2-1.8,4.31-3.67,6.36-5.61l.49-.43.26-.28q2.91-2.82,5.62-5.87c.15-.18.32-.35.47-.53,1.8-2,3.52-4.18,5.19-6.4l.37-.5q2.37-3.19,4.57-6.68l.54-.86c1.36-2.18,2.68-4.45,3.94-6.82.1-.18.21-.34.31-.52s.18-.41.29-.61q2.16-4.11,4.15-8.63l.63-1.46q1.77-4.11,3.4-8.59l.72-2c1-2.77,1.93-5.63,2.84-8.62.22-.72.43-1.44.64-2.16.85-2.85,1.67-5.77,2.46-8.83,0-.13.08-.25.11-.38a331.86,331.86,0,0,0,8.2-44.44A353.74,353.74,0,0,0,563.31,392a356.07,356.07,0,0,0-12-86.83,7.84,7.84,0,0,0-3.76-4.88,7.94,7.94,0,0,0-1.47-.65,7.75,7.75,0,0,0-4.65-.09c-21.33,6-42.6,5.25-62.53-3.28q-4.26-1.83-8.45-4.13a98,98,0,0,1-19-13.68,59.43,59.43,0,0,1-6.38-6.61,7.81,7.81,0,0,0-4.45-2.83,8.3,8.3,0,0,0-1.81-.19,7.82,7.82,0,0,0-6.26,3,59.43,59.43,0,0,1-6.38,6.61c-.42.39-.87.75-1.3,1.13a45.1,45.1,0,0,0-21.66-3.76,126.14,126.14,0,0,0-14.54-9.46,22.74,22.74,0,0,0-6.88-15.62,20.83,20.83,0,0,0-12.88-5.66,250.44,250.44,0,0,1,11.15-41.52c5.33-15.09,11.64-29.87,18.24-44.44,3.65-8,7.39-16,11.15-24A76,76,0,1,0,283.4,77.91a77.49,77.49,0,0,0,.51,8.88,35.12,35.12,0,0,1-5.16,6.74c-2.82,3-5.86,6-8.93,8.74-5.22,4.75-10.62,9.25-16,13.73-1.42,1.17-2.85,2.33-4.27,3.48-6.34,5.14-12.82,10.17-18.68,15.86-4.07,3.95-8.86,9.15-9.37,15.07A11.26,11.26,0,0,0,222,155c3.42,10.21,18.23,9.53,26.82,9a100.33,100.33,0,0,0,10.36-1.27l1.16.2c18.43,2.81,35.46-1.71,53-6.79q10.44-3,20.76-6.47a75.45,75.45,0,0,0,15.37,3.67c-8.85,12.45-17.15,25.42-24.8,38.63-4.68,8.09-9.14,16.32-13.25,24.71-3.59,7.3-6.95,14.77-9.85,22.38a18.34,18.34,0,0,0-4.21.26c-14.72,2.43-19.57,11.86-21,25.3a111.59,111.59,0,0,0-24.61,10.34,223.51,223.51,0,0,0-26.74,17.51,295.16,295.16,0,0,0-26.38,22.42,195.35,195.35,0,0,0-19.45,21.12c-4.42,5.71-9.12,11.21-13.42,17-3.48,4.68-6.57,9.59-8,15.32-2.8,11.46,2.31,23.77,6.9,34.1A197.91,197.91,0,0,0,180,429.65l.24.37a9.84,9.84,0,0,0-6.74,9.73c-4.09.17-7.9,1.75-9.86,5.59-2.44,4.77-.35,9.64,2.63,13.59a51.74,51.74,0,0,0,5,5.51A197.33,197.33,0,0,0,189,479.67c5.43,4.24,11,8.33,16.54,12.36a22.7,22.7,0,0,0,5.11,4.09c1.24.77,2.48,1.53,3.74,2.26l.6.42a7.74,7.74,0,0,0,2.24,1.13c5.72,3,13.1,5.65,19.33,2.81a73.51,73.51,0,0,0,9.56-5.58,77.94,77.94,0,0,0,15.57,32.58A65.17,65.17,0,0,0,272.17,540V540c0,8.71,7.34,14.84,14.89,17.76q7.43,25.14,14.86,50.26a32.51,32.51,0,0,0-5.65,11.7l-.06.23c-5.77-.65-11.64-1-17.42-1.29-6.42-.34-12.84-.57-19.26-.87-5.43-.24-10.88-.41-16.31-.27a85,85,0,0,0-15,1.49h0l-.32.06-.18,0-.26.06-.21,0-.24.05-.24.06-.21,0-.44.11-.47.12-.8.22-.8.22-.81.23-.8.23-.81.25-.8.24-.81.26-.81.26-.81.27-.81.27-.81.28-.8.29-.81.3-.8.3-.8.32-.8.32c-.27.1-.54.21-.8.33l-.79.33-.8.35-.78.35-.78.37L208,626l-.78.38-.76.39-.77.4-.75.41-.76.42-.74.44-.74.44-.73.45-.72.46-.72.47-.7.49-.7.49-.69.51c-.23.17-.46.34-.68.52s-.45.35-.67.53l-.66.54-.65.55-.64.57-.63.58c-.21.19-.41.39-.61.59l-.61.6-.59.62-.58.63-.56.64-.55.66-.54.67-.52.69-.51.69-.49.72-.48.72L188,643c-.15.25-.3.5-.44.76s-.29.51-.43.76l-.41.79-.39.8L186,647c-.12.27-.24.55-.35.82s-.23.56-.34.84-.21.57-.31.86-.2.58-.29.87-.19.59-.28.89-.17.6-.25.9c-1.22,4.53-2.42,9.06-3.65,13.59a8.45,8.45,0,0,0-.19,3.23H13.93a3.81,3.81,0,0,0,0,7.61H664.75a3.89,3.89,0,0,0,3.84-3A3.81,3.81,0,0,0,664.87,669ZM447.4,633s.61-1.53,1.91-1.46v0h.05l.1,0a2.25,2.25,0,0,1,.71.25l.19.1.14.07a6.42,6.42,0,0,1,.57.52,3.45,3.45,0,0,1,.36.32,11.34,11.34,0,0,1,1.22,1.56c3.66,5.5,4.38,21.13,4.38,21.13l2.62,2,.85.65c.72.54,1.46,1.11,2.25,1.72l1.13.88,2.56,2,1.07.84c2.11,1.67,4.38,3.5,6.75,5.43H437.61c-1.93-4.63-5.49-8.1-9.78-9.15-2.12-15.2-7.75-24.62,1-24.62,3.81,0,8.42,23.13,8.42,23.13l14.47-3.8Zm-18.71,36c-3.05-3.35-7.63-3.53-10.77-.19-.05.06-.1.13-.16.19h-.92c2.05-3.61,5.53-5.8,9.33-5.37a10.42,10.42,0,0,1,7.61,5.37Zm12.84-34.81,3.21,16-3,.79c-.51-2.1-1.06-4.19-1.64-6.23a67.76,67.76,0,0,0-2.34-7.18c-.2-.48-.41-1-.63-1.42,0-.09-.09-.17-.13-.26-.19-.38-.38-.75-.58-1.11-.08-.15-.17-.29-.26-.44s-.35-.58-.54-.85-.2-.3-.31-.45-.4-.52-.61-.77-.2-.25-.31-.37a10.64,10.64,0,0,0-.84-.81l-.18-.17a7.61,7.61,0,0,0-1.12-.76,3.59,3.59,0,0,0-.34-.17,5.52,5.52,0,0,0-.9-.38,3.47,3.47,0,0,0-.46-.13,5.61,5.61,0,0,0-.91-.17l-.29,0c-.35-1.37-.71-2.77-1.1-4.25-.06-.24-.13-.51-.2-.75-.36-1.4-.74-2.83-1.14-4.33l-.47-1.76c-.32-1.22-.66-2.47-1-3.75-.19-.7-.38-1.41-.57-2.14l-1.08-3.94c-.2-.75-.4-1.49-.62-2.26-.45-1.66-.93-3.39-1.42-5.16-.16-.58-.32-1.15-.49-1.74-.58-2.1-1.19-4.27-1.81-6.5-.24-.84-.49-1.71-.73-2.57-.31-1.08-.62-2.2-.94-3.32l.25.12,6.85,3.23c3.43,1.61,7,3.24,10.6,4.92a8.06,8.06,0,0,0,1.59.54L443.6,628a8.84,8.84,0,0,0-1.78,2.79A5.76,5.76,0,0,0,441.53,634.14Zm-2.69-357.33s38.87,49,104.79,30.42c18.08,67.51,12.54,129.64,1.47,172.66-16.85,65.53-44.7,79.49-106.26,107.9-64-29.51-90.72-43.68-107.27-111.9-10.38-42.82-15.05-103.21,2.48-168.66C400,325.82,438.84,276.81,438.84,276.81Zm-53.1-2.92q4.56,2.6,8.92,5.61c-2.2.85-3.46,1.91-3.28,3a21.63,21.63,0,0,1,2.42-.85c6.63-1.71,14.86-.52,24.19,3.53a98,98,0,0,1-10.79,6.94c-22,12.13-45.95,14.21-70,7.66,13.37-.58,28-4,38.72-12.1A27,27,0,0,0,385.74,273.89Zm2.71-109.79a57.36,57.36,0,0,0-14.56-5.56,79.73,79.73,0,0,0-18-2.3q1.41-2,2.83-3.9a86.31,86.31,0,0,1,16.08,2.33,61.59,61.59,0,0,1,15.25,5.77Q389.26,162.26,388.45,164.1ZM296.65,61.63c1.45-4.56,4.56-7.64,7-6.88s3.15,5.07,1.7,9.63-4.56,7.64-6.95,6.88S295.2,66.19,296.65,61.63ZM248.28,156c-37.61,2.53-11-16.06,10.56-33.81C275.32,108.59,287.9,97,291.27,89.91a49.74,49.74,0,0,1,5.26-8.8,1,1,0,0,1,.07-.15,6.65,6.65,0,0,1,3-3.28c4.83-4.57,9.86-5.38,14.24-2.42,16.11,10.88,17.34,25.12,43.7,23.09a16.84,16.84,0,0,0-1.68,14.48c-1.59,1.21-2.89,2.21-3.62,2.84C341.07,125.45,281.49,153.73,248.28,156ZM359.18,83.5a11,11,0,1,1,11-11A11,11,0,0,1,359.18,83.5ZM372.6,94a13.47,13.47,0,1,1-13.48,13.47A13.47,13.47,0,0,1,372.6,94Zm-61.47,54.4c-10.08,2.91-20.12,5.73-30.36,6.83,5.79-1.8,11.44-3.78,16.66-5.74A350.5,350.5,0,0,0,340,130.4a120.73,120.73,0,0,0,13.59-8.2,21.72,21.72,0,0,0,4.69-4.41,17.61,17.61,0,0,0,13.43,7.28C359.29,133,332.38,142.25,311.13,148.4Zm32.74-4.32c7.19-2.59,14.35-5.4,21.16-8.61,6-2.81,16.26-7.89,18.86-14.33,0-.06,0-.13,0-.19a17.76,17.76,0,0,0,4.43-5.6,17.61,17.61,0,0,0-22.93-24h-.11c12.57-9.22,21.21-26.45,11.82-37-11-12.32-41.51-22.51-64.5-21.84-.7,0-2.57.32-4.43.63.61-.7,1.27-1.35,1.91-2s1.08-1.17,1.65-1.73c1-1,2.13-2,3.24-2.94.44-.38.86-.79,1.31-1.16q2.35-1.94,4.87-3.64c.46-.32.95-.59,1.42-.89,1.26-.81,2.52-1.6,3.84-2.33.67-.38,1.37-.71,2.05-1.06,1.16-.59,2.33-1.17,3.52-1.7.76-.33,1.53-.64,2.3-.94,1.18-.47,2.37-.91,3.58-1.31.8-.27,1.6-.53,2.42-.76,1.24-.37,2.51-.68,3.79-1,.79-.18,1.58-.37,2.39-.53,1.41-.27,2.84-.47,4.27-.65.71-.09,1.39-.21,2.1-.28,2.15-.2,4.33-.33,6.54-.33a66.58,66.58,0,0,1,6.66.34c.73.07,1.44.2,2.16.3,1.45.19,2.9.38,4.32.66.84.16,1.66.38,2.49.58,1.27.3,2.54.6,3.78,1,.86.26,1.71.56,2.56.85,1.17.4,2.33.81,3.47,1.27.85.34,1.68.71,2.51,1.09,1.1.5,2.18,1,3.25,1.56.82.43,1.62.86,2.42,1.32,1,.59,2.05,1.21,3.05,1.85.77.49,1.53,1,2.28,1.51,1,.69,1.92,1.41,2.86,2.15.71.55,1.43,1.1,2.11,1.68.93.79,1.82,1.62,2.71,2.46.63.6,1.28,1.17,1.88,1.79.92.93,1.78,1.92,2.64,2.9.51.59,1.05,1.15,1.55,1.75,1.07,1.31,2.07,2.68,3,4.07.22.32.48.62.7,1,1.16,1.72,2.23,3.49,3.23,5.31.36.67.67,1.38,1,2.06.6,1.19,1.21,2.38,1.74,3.61.35.82.65,1.67,1,2.5.44,1.14.89,2.29,1.27,3.46.29.9.53,1.81.79,2.72.32,1.16.63,2.31.89,3.49.22,1,.39,1.91.56,2.88.12.67.29,1.33.39,2a1.46,1.46,0,0,0,0,.2,67.76,67.76,0,0,1-82.79,75.91ZM345.1,172a55.33,55.33,0,0,1,15,1.72,72.77,72.77,0,0,1,20.51,8.83c-.51,1.25-1,2.5-1.51,3.76a68.66,68.66,0,0,0-20-8.72,49.65,49.65,0,0,0-16.7-1.43Q343.75,174.09,345.1,172Zm-15.29,25A119.65,119.65,0,0,1,351,199.71a101.69,101.69,0,0,1,20.63,7c-.42,1.26-.84,2.53-1.24,3.8a98.48,98.48,0,0,0-20.24-6.88,117.63,117.63,0,0,0-22.56-2.69Q328.69,198.94,329.81,197Zm-14.3,27.24c.35-.75.71-1.5,1.07-2.25,3.6,1.09,9,2.26,15,3.38,11.53,2.14,25.15,4,33.22,4.85-.31,1.3-.61,2.6-.9,3.91-8.26-.89-21.67-2.73-33-4.84a142.39,142.39,0,0,1-16-3.73C315.09,225.09,315.3,224.66,315.51,224.22Zm-9,21.47c5.14,3.15,14,5.36,23.51,6.53,11.24,1.37,23.2,1.23,30.87-.59-.17,1.38-.33,2.75-.46,4.13-8.25,1.66-20,1.76-30.9.42-9.44-1.16-18.41-3.42-24.3-6.71C305.67,248.2,306.1,247,306.54,245.69ZM284.19,267c.85-10.56,3-18,14.48-19.86a10,10,0,0,0-1.3,4.58,3.19,3.19,0,0,1,.43,2.13,10.15,10.15,0,0,0,2.77,8c5.29,4.67,18.23,9.68,32.84,10.2,11.72.43,27.47-1.79,31.3-10.21,1.56-3.43.94-8.75,1.46-8.78,14.48-1.06,21,18.6,6.14,29.88C345,303.66,282.09,293.32,284.19,267ZM206.6,481.6a5.75,5.75,0,0,0-.62.88c-18.27-13.43-45.34-34.76-31.77-34.76,9.3,0,20.71,6.34,29.58,13.1l2.92,2.2c1,1.31,2.1,2.58,3.14,3.88C206.35,470.3,205.14,476,206.6,481.6Zm-21.25-44.24a22.5,22.5,0,0,1,2.49.39c2.43,3.51,4.93,7,7.46,10.41a58.36,58.36,0,0,0-12.67-5.23C180.63,439.26,181,437,185.35,437.36ZM210.68,484c-3-5.85-1.64-12.76,3-15.43s10.86-.08,13.86,5.78,1.64,12.77-3,15.43S213.68,489.88,210.68,484ZM247.14,487h0l-.53.36-.66.43-.81.53-1,.64-.87.57-.91.59-1,.6-.86.55-.93.58-.86.54-.84.51-.8.49-.84.49-.65.38-.82.46-.49.26c-.39.21-.75.39-1.05.53a5.78,5.78,0,0,1-1.84.45c-.23,0-.48,0-.72,0a11.09,11.09,0,0,1-1.39-.06c-.3,0-.62-.12-.93-.18s-.9-.19-1.36-.32l-1-.33c-.3-.1-.58-.18-.88-.29s-.46-.19-.69-.28l-.39-.16-.35-.14h.09l.29-.1a11.14,11.14,0,0,0,2.15-.9,10.86,10.86,0,0,0,1.87-1.4c.17-.15.32-.31.47-.47a11.87,11.87,0,0,0,1.16-1.39c.11-.16.24-.31.34-.47a13,13,0,0,0,1.09-2.1c.06-.14.1-.3.15-.45a15.35,15.35,0,0,0,.57-1.93c.05-.24.1-.47.14-.72a16.8,16.8,0,0,0,.23-2.16c0-.13,0-.26,0-.4a16.83,16.83,0,0,0-.16-2.54,19.21,19.21,0,0,0-.43-2.08c-.08-.36-.13-.71-.24-1.06a19.52,19.52,0,0,0-1.25-3.1,18.88,18.88,0,0,0-1.48-2.39c-.15-.2-.29-.4-.44-.59a19.2,19.2,0,0,0-1.51-1.71c-.1-.09-.19-.2-.29-.3a16,16,0,0,0-2-1.57c-.17-.12-.35-.22-.52-.33a16.24,16.24,0,0,0-1.74-.93c-.17-.07-.33-.16-.5-.22a13.06,13.06,0,0,0-2.21-.68c-.15,0-.31,0-.46-.06a10.68,10.68,0,0,0-1.6-.13,10,10,0,0,0-1.55.09l-.69.1-.05-.06h0l-.2-.23L211.12,459c-.11-.15-.2-.27-.32-.41l-.2-.26L208,455.06c-.13-.18-.27-.35-.4-.52-.94-1.22-1.91-2.48-2.91-3.8l-.26-.33c-1-1.39-2.13-2.82-3.23-4.31h0c-1.06-1.43-2.15-2.9-3.24-4.41l-.29-.4-.09-.12c-2-2.8-4.07-5.7-6.11-8.68l-.08-.11-.07-.11c-.84-1.22-1.67-2.46-2.5-3.7-.2-.29-.39-.58-.58-.88-.66-1-1.32-2-2-3-.21-.32-.41-.64-.62-.95-.81-1.27-1.62-2.54-2.41-3.82l-.15-.26c-.73-1.17-1.43-2.34-2.13-3.5l-.63-1.08c-.6-1-1.19-2-1.76-3.06l-.45-.78c-.69-1.24-1.37-2.48-2-3.71l-.44-.84c-.51-1-1-2-1.49-2.93-.16-.34-.33-.67-.49-1-.59-1.21-1.16-2.42-1.69-3.61-.89-2-1.68-3.86-2.39-5.63-.24-.58-.42-1.09-.63-1.65-.45-1.14-.89-2.29-1.26-3.35-.21-.61-.38-1.17-.57-1.76-.29-.91-.58-1.82-.81-2.67-.16-.58-.28-1.14-.41-1.69-.19-.78-.36-1.55-.48-2.29-.1-.53-.17-1-.23-1.57-.08-.69-.15-1.37-.18-2,0-.49,0-1,0-1.45,0-.63,0-1.26.1-1.87,0-.45.09-.9.16-1.34.1-.61.24-1.21.39-1.81.1-.41.19-.82.32-1.23.2-.62.45-1.25.71-1.87.12-.29.2-.58.33-.87,0,0,0,0,0,0,3.05-6.69,9.39-13.51,18.49-25.27,18.36-23.71,62.34-60.58,93.08-68.61.14.72.22,1.45.43,2.15,3,9.92,12.48,16.21,21.6,19.85a88.11,88.11,0,0,0,30.31,5.7,7.92,7.92,0,0,0-.85.38,7.78,7.78,0,0,0-3.76,4.88,351,351,0,0,0-9.48,49.65l-41.17-3.61-23.56,25.61c-2.92-.15-11.65-1.24-24.83-6.66C232.51,332,250,299.63,275.16,280c-10,3.9-18.89,9.23-23.59,15.22-2.11,2.68-4.08,5.47-6,8.33-.61.91-1.17,1.85-1.76,2.78-1.25,2-2.48,4-3.64,6.1-.61,1.09-1.19,2.18-1.77,3.29-1.08,2-2.1,4.11-3.08,6.21-.51,1.08-1,2.15-1.5,3.24-1.08,2.47-2.09,5-3,7.52-.27.72-.58,1.42-.84,2.15-1.18,3.26-2.25,6.57-3.22,9.9-.26.86-.46,1.74-.7,2.6-.68,2.51-1.33,5-1.9,7.56-.27,1.19-.5,2.39-.75,3.59q-.69,3.4-1.25,6.83c-.2,1.23-.39,2.46-.56,3.68-.11.79-.18,1.58-.28,2.36-.56-.44-1.14-.89-1.75-1.33-.38-.28-.74-.56-1.15-.83-1.26-.85-2.61-1.68-4.1-2.51-.82-.46-1.69-.89-2.59-1.31-.29-.14-.61-.26-.91-.39-.62-.28-1.24-.55-1.89-.8l-1.13-.41c-.6-.22-1.21-.43-1.82-.63l-1.24-.38-1.83-.5-1.29-.3c-.62-.14-1.23-.26-1.85-.38l-1.28-.22c-.65-.1-1.28-.17-1.92-.24l-1.19-.12c-.72-.06-1.44-.08-2.15-.09l-.88,0a28.15,28.15,0,0,0-3,.18l-8.24,2.21c8.72.85,15.14,1.09,23.34,4.79,7.8,3.52,12.82,7.74,16.44,13.23a5.65,5.65,0,0,0,1.27,2,51.78,51.78,0,0,1,4.22,10.22c0,3.12.07,6.25.25,9.43A167.81,167.81,0,0,0,229,423.13a10.78,10.78,0,0,0-7.62,4.92,11.86,11.86,0,0,0-2.26,7.16c.12,1.78,1.47,4.11,2.28,5.72.24.48.48,1,.73,1.43v0c1,1.89,1.91,3.78,2.87,5.66.41.82.85,1.66,1.27,2.49l0,0,1.31,2.56c.76,1.52,1.51,3.05,2.18,4.56.38.87.8,1.71,1.2,2.57,1.3,2.79,2.67,5.53,4.14,8.22.13.25.26.51.4.76,1.56,2.82,3.24,5.57,5,8.27.38.58.75,1.16,1.14,1.73,1.56,2.34,3.16,4.64,4.86,6.88.21.28.44.55.66.83Zm67.63-72.88a56.28,56.28,0,0,1-1.55,6,29.89,29.89,0,0,1-2.08,5.06,13.86,13.86,0,0,1-3,4,23,23,0,0,1-5.91,3.42c-2.12.91-4.37,1.7-6.46,2.39-2.15-1.11-4.45-2.34-6.61-3.7a27.19,27.19,0,0,1-5.95-4.77,17.88,17.88,0,0,1-3-5,39.88,39.88,0,0,1-1.8-6,61.75,61.75,0,0,1-.39-25,35.58,35.58,0,0,0,7-.15,34.24,34.24,0,0,0,8.91-2.31c.69-.28,1.38-.59,2.08-.93l.61-.3.66.47c.68.47,1.37.91,2,1.31a37.69,37.69,0,0,0,8.82,3.85,36.68,36.68,0,0,0,6.27,1.17Q314.28,403.83,314.77,414.08Zm-.32-25.51a31.25,31.25,0,0,1-5-1,32.17,32.17,0,0,1-7.63-3.32c-.57-.34-1.16-.73-1.76-1.14s-1.18-.84-1.75-1.28l-1.31-1-1.45.83c-.54.3-1.14.62-1.78.93s-1.2.57-1.77.79a29.24,29.24,0,0,1-7.62,2,31,31,0,0,1-8.05-.09l-2.26-.31-.5,2.23A66.55,66.55,0,0,0,272,401.91a65.87,65.87,0,0,0,1.6,14.64,44.1,44.1,0,0,0,2,6.79,23,23,0,0,0,3.83,6.4,32.22,32.22,0,0,0,7.07,5.73c2.58,1.62,5.38,3.1,7.92,4.39l.93.48,1-.32c2.5-.81,5.28-1.75,7.87-2.87a27.62,27.62,0,0,0,7.21-4.25,19,19,0,0,0,4.15-5.36c.05-.09.09-.19.13-.28.21,2.35.39,4.69.64,7-4.62,5.26-11.15,7.54-21.36,10.89-15.67-8.06-22.21-11.85-25.78-27.65a71.27,71.27,0,0,1,2-38.14c16.24,5.64,26.3-4.62,26.3-4.62a27.9,27.9,0,0,0,17.17,9.31C314.55,385.59,314.49,387.08,314.45,388.57Zm1.45-24.65h0l-39.35-3.45-22.31,25.35h-.72l-.39,0-.3,0-.53,0-.43,0-.64-.06-.51-.05-.75-.08-.64-.08-.83-.11-.73-.11-.94-.15-.81-.14-1-.19-.88-.17-1.15-.24-1-.21-1.22-.29-1-.25-1.35-.36-1.05-.28-1.51-.45-1-.31-1.72-.56-1-.32c-.9-.31-1.83-.65-2.78-1h0l-.06,0c-.77-.29-1.56-.6-2.35-.92l-.59-.24c.07-.9.15-1.79.24-2.68.07-.73.15-1.45.23-2.17h0l.89.34q2.55,1,4.88,1.7l.7.22q2.3.69,4.35,1.17l.62.14c1.35.31,2.62.56,3.8.75l.51.08c1.16.18,2.24.32,3.22.41l.39,0c1,.08,1.84.14,2.6.16h2.35c.52,0,.94,0,1.22-.06h.07l.41,0h.9l12.6-14,10-11.08h0l30.53,2.48,9.67.78c0,.11,0,.21,0,.32,0,.32-.06.64-.1,1C316.21,360.4,316.07,362.16,315.9,363.92Zm-85.46,65.42c1,.61,2,4.66,2.89,5.39,21.32,18.22,53.74,25.09,86.78,25.5.33,1.76.65,3.52,1,5.27-21,0-41.7-2.56-59.27-8.85a157.58,157.58,0,0,1-20.4-9.45c-7.93-4.49-13.67-9.53-16.08-13.82C226.14,431,228.64,428.18,230.44,429.34Zm21.78,54.23c-.24-.31-.45-.64-.68-.95-1-1.25-1.86-2.55-2.78-3.83-.78-1.1-1.61-2.15-2.36-3.27-.41-.6-.8-1.2-1.19-1.8l-.15-.24c-.07-.1-.13-.21-.2-.32-.77-1.2-1.53-2.41-2.26-3.64s-1.55-2.72-2.3-4.09c-.22-.4-.46-.79-.67-1.19-.1-.18-.21-.35-.3-.53l.07.07c-1.47-2.78-2.87-5.6-4.15-8.5-.42-1-1.4-2.95-2.59-5.32-3.71-7.42-3.79-6,1.76-1.88,22.33,16.71,55,22.75,87.83,22.73.51,2.32,1,4.65,1.56,7a235.38,235.38,0,0,0,8.64,28.39c1.06,2.8,2.16,5.48,3.3,8.06l.48,1.06c1.18,2.63,2.41,5.18,3.68,7.6.06.12.12.22.19.34q1.95,3.67,4,7.07l.23.39c1.38,2.2,2.81,4.31,4.29,6.35l.31.42h0l.05.07c-.38,0-.76-.09-1.13-.12-1.39-.1-2.78-.28-4.18-.44s-2.86-.32-4.3-.55-2.81-.51-4.22-.79c-1.05-.2-2.09-.34-3.14-.58-.51-.12-1-.27-1.52-.39-.73-.17-1.46-.36-2.2-.56s-1.71-.41-2.57-.65l-.4-.11c-1-.3-2.05-.65-3.08-1-.69-.22-1.37-.42-2.06-.65-2.46-.81-4.91-1.68-7.36-2.66l-.32-.14c-.5-.2-1-.43-1.5-.64-1.69-.7-3.38-1.4-5.06-2.18-.38-.17-.76-.39-1.14-.57-1.34-.64-2.67-1.33-4-2-1.05-.54-2.11-1-3.15-1.59-.81-.43-1.61-.88-2.41-1.34a.33.33,0,0,1-.1-.06c-2.54-1.44-5-3-7.51-4.59-.79-.52-1.56-1.07-2.35-1.6-1.16-.79-2.34-1.55-3.48-2.37-.49-.36-1-.75-1.44-1.11-1.17-.86-2.31-1.76-3.46-2.66-.82-.65-1.68-1.25-2.49-1.92s-1.46-1.25-2.19-1.88l-1.5-1.28q-3.27-2.87-6.38-5.93c-.35-.34-.68-.7-1-1-1.84-1.85-3.62-3.76-5.36-5.72-.4-.45-.81-.89-1.2-1.34-.25-.29-.51-.56-.76-.85q-1.89-2.22-3.69-4.51Zm24.21,49.56-.2-.14c-.43-.35-.84-.76-1.26-1.12-.78-.67-1.56-1.33-2.31-2-.52-.5-1-1-1.52-1.56-.69-.72-1.38-1.43-2-2.19-.5-.57-1-1.18-1.46-1.78-.62-.76-1.24-1.53-1.83-2.34-.47-.64-.92-1.31-1.37-2-.56-.82-1.11-1.64-1.63-2.5-.43-.7-.84-1.41-1.25-2.13s-1-1.75-1.43-2.66q-.57-1.13-1.11-2.28-.63-1.38-1.23-2.79c-.32-.8-.64-1.6-.94-2.41q-.54-1.45-1-2.94c-.27-.83-.53-1.66-.77-2.5-.29-1-.54-2-.79-3.07-.13-.55-.3-1.09-.42-1.64l.07.07s0,0,0-.05l.47.54c.78.87,1.6,1.72,2.41,2.58s1.42,1.52,2.15,2.26,1.71,1.68,2.57,2.51,1.47,1.43,2.22,2.12,1.81,1.62,2.73,2.43c.75.66,1.49,1.34,2.26,2,.95.79,1.92,1.56,2.88,2.33a149.1,149.1,0,0,0,20,13.53l1.2.65c1.52.83,3,1.66,4.58,2.44a143.74,143.74,0,0,0,22.16,9.3,32.93,32.93,0,0,1-17.35,5H302a35.47,35.47,0,0,1-4-.25l-1-.12a39.23,39.23,0,0,1-3.89-.74l-.24-.07c-.85-.22-1.7-.46-2.55-.74-.29-.1-.58-.24-.88-.35-.52-.18-1-.39-1.56-.6-.82-.33-1.64-.7-2.45-1.08-.5-.25-1-.49-1.49-.75-.26-.14-.54-.25-.8-.4-.71-.39-1.43-.81-2.13-1.25l-.22-.16A50.77,50.77,0,0,1,276.43,533.13Zm4.53,10.1a45.36,45.36,0,0,0,15.84,5.22,41,41,0,0,0,5.2.33,39,39,0,0,0,17-3.84c.43-.2.82-.45,1.24-.67-2.92,4.67-10.45,8-19.36,8C291.3,552.29,283.34,548.44,281,543.23Zm14.45,14.67h0a38.46,38.46,0,0,0,5.43.38,36.79,36.79,0,0,0,12.39-2.09l11,45.57a19.49,19.49,0,0,0-10.65.3c-.49.16-1,.33-1.44.52s-.76.33-1.14.51-.91.47-1.36.74c-.2.11-.4.24-.59.36l0,0h0q-1.17-4-2.66-9C303.66,585.79,300.07,573.64,295.41,557.9Zm-96.63,110H188.59l3.64-13.61c3.65-13.6,16.9-21.55,35.54-26.54,6.37-1.71,16.45-2,27-1.71,1.13.37,2.23.74,3.32,1.12-16,.51-29.22,4.63-39.1,10.93-11.73,7.48-18.77,18-20.13,29.3C198.8,667.55,198.79,667.74,198.78,667.9Zm35.77-10a36,36,0,0,0-2.1,5c-.2.59-.32,1.24-.5,1.84-.29,1-.55,2.08-.77,3.18h-26c1.21-9.3,7.2-18.09,17.18-24.45,10.38-6.63,25-10.62,43.05-9.93,2.61.1,5.37.33,8.23.65a38.49,38.49,0,0,1,3.53,2.54h0c.41.33.8.66,1.19,1h0l0,0-.45-.05c-1.4-.15-2.85-.25-4.35-.28h-.31c-1.56,0-3.17.05-4.79.18l-.93.07c-1.59.15-3.21.38-4.83.69l-.87.18a50.32,50.32,0,0,0-5.07,1.31,41.13,41.13,0,0,0-12.62,6.53,34.14,34.14,0,0,0-9.6,11.46A.17.17,0,0,1,234.55,657.86Zm57.17,10H237.05a31,31,0,0,1,2.45-6.9c4.06-7.86,11.21-12.6,18.87-15.07a45.77,45.77,0,0,1,22.43-1.41,24.41,24.41,0,0,1,4.25,1.26,37.72,37.72,0,0,1,2.18,4.26h0c.23.51.42,1.07.63,1.6s.44,1.06.64,1.63c.26.73.5,1.52.73,2.31.17.55.35,1.07.51,1.64.25.92.47,1.91.7,2.9.11.5.24,1,.35,1.48.31,1.54.59,3.15.84,4.84A7.2,7.2,0,0,1,291.72,667.9Zm51.23,0H298.07a13.4,13.4,0,0,0-.1-2.37c-1.25-8.6-3.55-16.75-7.94-23.77l.17-.35c-.2-.13-.44-.24-.65-.37a39.89,39.89,0,0,0-8.55-9.47c-1-.77-2-1.49-3-2.17-.34-.23-.69-.43-1-.65-.71-.44-1.41-.88-2.14-1.29l-.45-.24h.16l5,.45,1,.09,4.44.45c7.17.76,17.44,1,17.44,1l2-7.28a38.06,38.06,0,0,1,1.86-5.34c.06-.14.11-.3.17-.43h0c.35-.77.73-1.48,1.11-2.16l.38-.6c.28-.45.56-.88.85-1.28.15-.2.3-.4.46-.59a12.92,12.92,0,0,1,.89-1l.45-.48c.08-.07.15-.16.22-.23s.32-.24.48-.37a10.14,10.14,0,0,1,1-.77,7.68,7.68,0,0,1,.71-.45c.33-.19.67-.37,1-.53l.75-.3a9.88,9.88,0,0,1,1.06-.31c.25-.06.51-.12.76-.16a8.32,8.32,0,0,1,1.11-.1,6.52,6.52,0,0,1,.76,0,9.75,9.75,0,0,1,1.2.12c.23,0,.47,0,.7.09.47.1.94.24,1.42.39l.5.15a14.83,14.83,0,0,1,1.93.86l.44.27c.49.28,1,.57,1.47.91l.14.09c.14.09.27.23.41.33.51.38,1,.78,1.52,1.22l.69.64c.46.44.92.9,1.37,1.4.22.23.43.45.64.7.54.62,1.07,1.28,1.6,2,.1.14.21.27.32.41.62.86,1.22,1.76,1.8,2.72a2.14,2.14,0,0,1,.13.19c.42.69.82,1.39,1.22,2.13C341.7,632.18,345.25,648.4,343,667.9ZM373.12,669H351.25a.25.25,0,0,1,0-.07,121.89,121.89,0,0,0,.72-17.3,112.53,112.53,0,0,0-1.8-18c-1.95-10.37-6-21.28-14.43-28.11a32.46,32.46,0,0,0-2.88-2.09l-11.83-48.9c4.11-2.86,7.4-6.91,8.27-11.84a113.15,113.15,0,0,0,25.84,3.1h.51c1.73,1.94,3.55,3.79,5.41,5.59l.34.33q2.76,2.63,5.7,5.09l.34.28c2,1.62,4,3.21,6.05,4.74l.23.17c1.86,1.36,3.76,2.69,5.72,4l1.05.7q2.57,1.68,5.27,3.31l2.67,1.61,3,1.75q2.65,1.5,5.35,3l2.23,1.2,3.53,1.84c1.2.62,2.43,1.24,3.66,1.86l1.92,1q3.19,11.13,6.31,22.28c2.3,8.27,4.57,16.55,6.75,24.85a10.59,10.59,0,0,0-2.44,2.19c-3.64,4.4-2.88,10-1.79,15.16.76,3.59,1.65,7.16,2.33,10.78-.74.86-1.45,1.76-2.12,2.69a18.12,18.12,0,0,0-6.35,8.89H373.12Z"/><path class="cls-1" d="M270,306.44c-.76,1.69-1.53,3.39-2.33,5.07-1.7-.73-3.38-1.5-5-2.29q1.27-2.49,2.49-5l-2.35-1.15q-2.91,5.79-6.15,11.45c.83.43,1.68.84,2.53,1.25q1.31-2.38,2.56-4.77,2.5,1.2,5.09,2.32c-.78,1.62-1.59,3.24-2.41,4.86L267,319.3q2.9-5.88,5.44-11.84C271.66,307.13,270.85,306.78,270,306.44Z"/><path class="cls-1" d="M272.33,313.14c-.32.71-.63,1.43-.95,2.15a4.92,4.92,0,0,0-.14,4.2,5.48,5.48,0,0,0,3.39,2.93,6.33,6.33,0,0,0,4.75-.05,5.42,5.42,0,0,0,3-3.21c.28-.73.55-1.47.82-2.21a5.07,5.07,0,0,0-.2-4.2,5.62,5.62,0,0,0-3.35-2.77,5.69,5.69,0,0,0-7.35,3.16Zm1.64,3.15.93-2.18a4.13,4.13,0,0,1,1.67-2.05,2.76,2.76,0,0,1,2.39-.18,2.65,2.65,0,0,1,1.73,1.62,3.74,3.74,0,0,1-.12,2.6c-.28.73-.57,1.47-.86,2.21A3.87,3.87,0,0,1,278,320.4a2.94,2.94,0,0,1-2.55.16,2.54,2.54,0,0,1-1.73-1.67A3.72,3.72,0,0,1,274,316.29Z"/><path class="cls-1" d="M285.48,325.64q1.56-4.2,2.95-8.44h.05q1.33,5,2.83,9.94l2.89.66q2-6.29,3.63-12.59l-2.7-.6q-1.19,4.29-2.53,8.55h-.07q-1.5-4.95-2.85-9.91c-.88-.24-1.76-.48-2.64-.74q-2,6.19-4.39,12.31C283.59,325.11,284.53,325.38,285.48,325.64Z"/><path class="cls-1" d="M299.9,329q.75-2.65,1.44-5.3l1.6.27c.85,2,1.72,4,2.61,5.95,1.23.18,2.45.34,3.69.5-1.3-2.52-2.55-5.05-3.77-7.59q3.12-2.61,6-5.33c-1.15-.14-2.31-.28-3.45-.44q-2.38,2.36-4.92,4.64l-1.24-.22q.66-2.6,1.25-5.19-1.4-.24-2.76-.51-1.56,6.34-3.46,12.65C297.92,328.58,298.91,328.77,299.9,329Z"/></g></svg>