<?xml version="1.0" encoding="utf-8"?>
<!-- Generator: Adobe Illustrator 26.3.1, SVG Export Plug-In . SVG Version: 6.00 Build 0)  -->
<svg version="1.1" id="Layer_1" xmlns="http://www.w3.org/2000/svg" xmlns:xlink="http://www.w3.org/1999/xlink" x="0px" y="0px"
	 viewBox="0 0 215 240" style="enable-background:new 0 0 215 240;" xml:space="preserve">
<style type="text/css">
	.st0{fill:#030303;}
	.st1{fill:#6898B8;}
	.st2{fill:#A2C9D2;}
	.st3{fill:#FFF5D1;}
	.st4{fill:#0C3555;}
	.st5{fill:#FFFFFF;}
	.st6{fill:#F8C37A;}
	.st7{fill:#FCE6AD;}
	.st8{fill:#FFF6D1;}
	.st9{fill:#0E476C;}
	.st10{fill:#195B7F;}
	.st11{fill:#D2E5EA;}
</style>
<g>
	<path class="st1" d="M206.9033356,42.8555145c-2.8986664,7.1951752-8.7971039,12.7908173-16.2110291,15.2178955
		c0,0,0-0.0000916,0,0c-0.017868,0.005806-0.0342712,0.0145569-0.0521545,0.0203629
		c-0.5180359,0.7957573-1.1946411,1.4761505-1.9874573,1.998703c-1.2811737,2.3581543-5.4543762,3.8590927-7.8613739,4.6642456
		c-2.7723389,0.9381256-5.6558075,1.7361832-8.5379028,2.3833084c0.0327148,0.011795,0.0663452,0.0208282,0.0991516,0.0324402
		c0.1339722,0.0474548,0.2702637,0.0870743,0.4048767,0.1324081c1.7577515,0.5916595,3.5700378,1.007782,5.413208,1.2230301
		c0.0570374,0.006546,0.1129608,0.0046997,0.1699066,0.0108719c0.0010223,0.0096817,0.0023956,0.019165,0.003418,0.0287552
		c0.6829681,0.0761108,1.3598633,0.1066055,2.0353699,0.1297379c0.0950012,0.0010147,0.1876068-0.0105972,0.2824249-0.0105972
		c0.8679962,0.0175095,1.7276917-0.0100479,2.5788269-0.0766678c12.2852325-0.9616165,22.5724945-10.4913559,24.0320587-23.1921463
		c0.1461334-1.2740784,0.2005005-2.557003,0.1627197-3.838913c-0.1261444,0.3673782-0.2975311,0.7108917-0.4389801,1.0705299
		c-0.0300293,0.0762939-0.0624695,0.1513023-0.0931549,0.2272263
		C206.9033356,42.8696098,206.9031525,42.8626099,206.9033356,42.8555145z"/>
	<path class="st2" d="M163.6668701,99.4704056c0.0423889,0.0128098,0.0849609,0.0255203,0.1274414,0.0382385
		c0.0107727-0.5324097,0.0072784-1.0649109,0.0143738-1.5974121c-0.0420227-0.0128098-0.0855103-0.0254364-0.1273499-0.0382385
		C163.6747894,98.4054947,163.677002,98.9379044,163.6668701,99.4704056z"/>
	<path class="st2" d="M163.6208954,88.3426056c0.0422821,0.0065384,0.0844879,0.0140991,0.1267853,0.0207291
		c-0.0102234-0.3665466-0.0305023-0.7329102-0.0424805-1.0994644l-0.1196899,0.1631927
		C163.5951843,87.732338,163.6124115,88.0372391,163.6208954,88.3426056z"/>
	<path class="st2" d="M184.1048279,83.6099854c0.0108795-0.019722,0.0210114-0.0395279,0.0318756-0.0592499
		c-1.5046234-1.2093887-3.1372223-2.2415924-4.853775-3.1134567c0.0342712,0.5991211,0.0702057,1.1979675,0.1001587,1.7972717
		c1.4124756,0.7765884,2.7621155,1.6655045,4.0154572,2.6868286
		C183.631485,84.4838791,183.8650665,84.0465622,184.1048279,83.6099854z"/>
	<path class="st2" d="M188.7371063,75.505806c0.006073-0.0100403,0.0119781-0.0203629,0.0180511-0.0304031
		c-1.7291718-1.2093048-3.6133423-2.1803207-5.6017151-2.8866959c-1.4824219-0.5485382-3.0103607-0.952034-4.5550537-1.280899
		c0.0496521,0.5274353,0.092041,1.0555115,0.1383057,1.5832214c1.3193207,0.3056412,2.6204834,0.6875839,3.8902283,1.1643372
		c1.8967896,0.667305,3.6933289,1.5909653,5.3396759,2.7452545C188.225708,76.3718719,188.4784546,75.9350128,188.7371063,75.505806
		z"/>
	<path class="st3" d="M20.9141693,102.053299c0.0005531,0.0150223,0.0014744,0.0293045,0.0020275,0.0443192
		c0.560606,0.3870087,1.1525402,0.7571487,1.7268753,1.1374283C22.0497551,102.843895,21.4651012,102.451088,20.9141693,102.053299z
		"/>
	<path class="st3" d="M25.3383827,104.965889c-0.6439037-0.4055328-1.2902946-0.8152008-1.9302368-1.2274551
		c0.6377296,0.4153824,1.2515945,0.8425674,1.9007511,1.2520523c0.0026722,0.0451508,0.0084782,0.0899353,0.0112419,0.1350861
		c0.0097675,0.0061722,0.0194416,0.0124359,0.0292091,0.0186157
		C25.3450184,105.0859528,25.3426228,105.0242157,25.3383827,104.965889z"/>
	<path class="st3" d="M163.312027,108.2842789l0.0097656-0.0015717c0.1665039-2.9361725,0.2892303-5.8737335,0.3450775-8.8123016
		c0.0101318-0.5325012,0.0079193-1.0649109,0.0144653-1.5974121c0.0145569-1.1951141,0.0346527-2.3904114,0.0308685-3.5855179
		C163.7234497,98.9542084,163.5798798,103.6214066,163.312027,108.2842789z"/>
	<path class="st4" d="M156.34021,41.8336334c-0.0039673,0.0005531-0.0080261,0.0011978-0.0119781,0.0017509
		c-0.727478,1.2190704-1.4007874,2.207962-2.0650482,3.0426941c0.0013885-0.0001831,0.0029449-0.0002747,0.0043335-0.0003662
		C154.9342651,44.0421486,155.6096802,43.0543594,156.34021,41.8336334z"/>
	<path class="st5" d="M160.5715637,133.0908813c-0.0576782,0.3601074-0.1154633,0.735321-0.1876068,1.0963287
		c-0.0162201,0.0008392-0.0327148,0.0016632-0.0489349,0.0025024c-1.8744812,11.3218536-4.7709503,22.4511261-8.6539917,33.2503357
		c-0.519516,1.3852844-1.0680542,2.7136383-1.6308594,4.0126953c-11.9068909,13.2054596-28.7065277,19.90242-46.0256805,20.5515747
		c-1.4626083,0-2.9346085,0-4.4163818,0c-2.4976654-0.0570374-4.9857407-0.2480621-7.4599991-0.5420837l-0.064682,0.0844879
		c2.5571823,0.3123779,5.1295776,0.5142517,7.7121964,0.5731354c1.4913559,0.057785,2.9634476,0.057785,4.4163818,0
		c17.2876358-0.6457367,33.9427032-7.2832642,45.8376923-20.3547516l0.1735992-0.355957
		c0.5628204-1.2990417,1.1113586-2.5686951,1.6309662-4.0126953c3.8866425-10.8092499,6.7849426-21.9485626,8.6595306-33.2812958
		c0.0721436-0.3610229,0.1875916-0.7362366,0.1875916-1.0971527c1.3588562-8.2116241,2.260025-16.4751205,2.7375183-24.7542801
		l-0.1171112,0.0189819l-0.0097656,0.0015717C162.8353577,116.5808487,161.9332733,124.8619461,160.5715637,133.0908813z"/>
	<path class="st4" d="M78.4875412,28.3111916c-1.1684799,0.7260971-2.3552933,1.4229832-3.5593414,2.0913048
		c-1.8263016,1.0109158-3.6886292,1.942215-5.5813599,2.7915115c1.8928223-0.8492966,3.7551498-1.7805958,5.5814514-2.7915115
		C76.132431,29.7341747,77.3190613,29.0372887,78.4875412,28.3111916z"/>
	<path class="st4" d="M27.2572861,169.3739624c-4.1411457-11.4760132-7.199688-23.3137817-9.1359158-35.3601532
		c1.9335556,12.0605621,4.9922829,23.9134521,9.1359158,35.403656
		c11.3152199,30.6690979,35.1146011,40.3971252,62.4211731,53.6168823c0.7570572,0.3584442,1.5740128,0.5318451,2.390686,0.5343475
		c-0.8199005-0.0151215-1.6371307-0.2043762-2.3907776-0.5771027
		C62.3717957,209.7852936,38.572506,200.043808,27.2572861,169.3739624z"/>
	<path class="st4" d="M160.9437256,32.4583282c-0.317337-0.1503792-0.8252411,0.1840096-1.1639557,0.7959404
		c0.0062561-0.0012894,0.012619-0.0025787,0.0189819-0.0037766c-0.0482025,0.0816383-0.1025543,0.1528664-0.1433868,0.2449188
		c-0.3221283,0.7265549-0.2837067,1.4309082,0.1021881,1.602478c0.378067,0.1707458,0.9548035-0.2800255,1.2847748-1.005661
		c0.2499847-0.5498238,0.2796631-1.103611,0.1142578-1.4017906
		C161.1051636,32.5832748,161.0346832,32.501358,160.9437256,32.4583282z"/>
	<path class="st4" d="M89.8208237,234.616684h0.0003662c1.4383774,0.6641846,3.0951309,0.6641846,4.5334091,0h0.0003662
		c42.0540771-19.392395,65.2188568-30.0744019,77.9918976-79.722168c4.0284424-16.1526031,6.3780365-32.656929,7.1056976-49.2222519
		l0.0066376-0.0011063c0.0943451-2.1832657,0.1695404-4.3668976,0.2066803-6.5516357
		c1.0103607-2.5468674,2.1277924-5.0512619,3.3532104-7.5048752c2.7068329-5.558876,5.7838135-10.9478378,8.9616699-16.2457657
		c1.6294861-2.7260895,3.2938843-5.4248962,4.9627991-8.1179047c0.3048096-0.1932297,0.5972748-0.4025803,0.8946381-0.6066818
		c0.0015564-0.0025787,0.0031281-0.0050659,0.0046997-0.0076447c13.3235931-9.229351,16.6427155-27.5121498,7.4133606-40.835743
		c-5.80867-8.3854942-15.2034302-12.7992954-24.6909637-12.6248665c-5.7592926,0.0031328-11.5758972,1.6837521-16.6686096,5.2114944
		c-3.8768768,2.6854515-6.9811249,6.2221298-9.1460571,10.2597065c-3.1779633,0.4498482-6.3292999,0.6786423-9.4317932,0.6790104
		c-0.0042419,0-0.0028534,0-0.0070953,0c-30.6340866,0-48.7679749-22.1772728-48.9385376-22.3899422l-0.0005493-0.0008292
		c-2.1673279-2.7345643-6.317688-2.7337351-8.4835358,0.0024881c-0.177475,0.2236338-18.0963898,22.408371-48.9081345,22.408371
		c-6.2960281,0-12.7941322-0.9355412-19.3135204-2.7806358h-0.00037c-2.9049377-0.8224812-5.9209108,0.8911266-6.7013731,3.8074913
		l-0.0000916,0.0008297c-5.3172755,19.870348-8.1250944,40.3507919-8.4189425,60.8719559
		c-0.3069324,20.4650497,1.8888645,40.9722977,6.5971584,60.9571915
		c9.9955292,41.2059784,25.0031548,55.8291779,56.130024,71.7759247l0.0941772-0.1231079
		C74.0729141,227.2879944,81.5097809,230.7812805,89.8208237,234.616684z M18.1935196,31.7735119
		C64.7098618,44.9363136,92.131897,10.2973633,92.131897,10.2973633s22.32341,28.1297913,60.8323212,24.0177612
		c-0.4826508,1.6582298-0.82164,3.3640022-1.0059357,5.1030388c-0.1031036,0.9726753-0.163559,1.9538269-0.1686249,2.942997
		c-15.1715393,1.2738953-30.4311829-1.964241-43.8250809-9.3899574c-4.9824219-2.7638664-9.6768951-6.017664-14.014122-9.712925
		c-1.0625153-0.8677216-2.5889816-0.8677216-3.6514969,0c-4.3319702,3.695261-9.0217438,6.9490585-13.9995651,9.712925
		c-15.1572609,8.4022636-32.7033653,11.453434-49.8070869,8.6593437c-0.3659973-0.0485573-0.7265568-0.0268135-1.06703,0.056118
		c-0.5105724,0.1239319-0.9758072,0.3860855-1.3461361,0.7512512c-0.370327,0.3651695-0.6456547,0.8342743-0.7764072,1.3719368
		c-6.5140438,29.512413-7.3273087,59.9972305-2.3958416,89.8144608c1.8989086,11.8855896,4.9142361,23.5650482,9.0059013,34.8835907
		c10.9688492,29.7896729,34.4363289,39.2136383,60.992382,52.0590057c0.7830429,0.3659973,1.6933365,0.3392639,2.4535294-0.0719757
		c26.541687-12.8453674,50.0523834-22.255127,60.9923859-51.98703c4.0783997-11.3226776,7.0933533-23.0013275,9.0059052-34.8835907
		c3.5140076-21.2366714,4.0943298-42.8113174,1.7886963-64.1326675c0.9299164-0.1813354,1.859375-0.3647995,2.7866211-0.5598679
		c0.1148224-0.0241394,0.2302704-0.0449677,0.3450928-0.0692902c0.8100281,0.3947449,1.6435699,0.7357712,2.485672,1.0531158
		c0.1751709,0.0661545,0.3483124,0.1361847,0.5251312,0.1992111c0.6036377,0.2143326,1.2215576,0.3855362,1.838562,0.5595016
		c2.7449646,27.6826172,0.747467,55.7294769-6.0316772,82.9102783
		c-11.8925018,46.2281189-31.5353394,56.0708618-75.0064163,76.1182251
		c-45.1308594-20.8262482-64.0088196-30.8139496-75.6847839-78.9465942
		C7.1683702,111.5559464,7.7832484,70.6781845,18.1935196,31.7735119z M181.1159515,16.1804962l0.4842072,0.0079231
		c0.2783661,0.000185,0.5654907-0.0066338,0.8480988,0.0258942l0.4082031,0.0468998
		c0.4160309,0.047823,0.8321533,0.0956459,1.263855,0.1452198c0.431778,0.0496655,0.8557434,0.0983181,1.2874298,0.1479836
		l0.4239655,0.0486526c0.2807617,0.0481911,0.5579224,0.1278038,0.8327026,0.159317l0.496109,0.1126919l0.7732697,0.1923065
		l0.5090942,0.138031l0.7068329,0.2164478l0.5133362,0.1703739l0.6728363,0.2363491l0.5027466,0.1929512l0.6525574,0.2738514
		l0.4930725,0.2077866l0.6489716,0.3052731l0.4659729,0.2364426c0.2186584,0.1046753,0.4354706,0.2250156,0.6453705,0.3366947
		l0.4414673,0.2416019l0.6616974,0.4021187c0.0238647,0.0140972,0.0453339,0.0281944,0.0687256,0.041832
		c0.0886536,0.0490208,0.1719513,0.0984116,0.2444611,0.1488132c0.0239563,0.0153885,0.0495758,0.0283813,0.073349,0.0446911
		l0.8199005,0.5476131l0.1923981,0.1254997c0.3316345,0.2289791,0.6535797,0.4727917,0.9676971,0.7156849l0.3496857,0.2787361
		c0.19664,0.1578426,0.4011078,0.316515,0.5889893,0.4812679l0.3895874,0.3470154l0.5123138,0.4565754l0.4008331,0.3881111
		l0.4642181,0.458971l0.3902435,0.4106865c0.1495361,0.1524067,0.2902527,0.3118153,0.4310455,0.4711342l0.3797302,0.4333534
		l0.4057007,0.4840336l0.3612976,0.4551926l0.3802795,0.4970264l0.3437958,0.4690132l0.3541107,0.5179443
		c0.1084442,0.1635551,0.2178192,0.3192787,0.3184509,0.4820061l0.3347626,0.5475197l0.2940216,0.4871674
		c0.1127014,0.1958065,0.1888123,0.3636932,0.3284149,0.6024399c0.1395874,0.2387447,0.2626038,0.4834805,0.3925323,0.7370605
		c0.1299133,0.253582,0.2520142,0.5061493,0.3731842,0.7667332l0.2405853,0.5366478l0.2438965,0.5768242l0.221344,0.5663185
		c0.0734253,0.1913834,0.1477966,0.3748398,0.2133942,0.5653954l0.1940613,0.5949745
		c0.0665283,0.1826286,0.1182251,0.355587,0.1819916,0.5617104c0.0638428,0.2062187,0.1266937,0.4201775,0.1766357,0.6088905
		s0.0928802,0.368576,0.1488037,0.5738754c0.0559387,0.2052956,0.1040344,0.4096718,0.1521301,0.614048l0.1234741,0.5868683
		c0.0402679,0.2034531,0.077774,0.4304047,0.1189575,0.6260262c0.0411072,0.1956215,0.0674591,0.3816605,0.0989685,0.5920258
		c0.0315094,0.2104568,0.0699463,0.4295769,0.0945435,0.6312828c0.0245056,0.2016106,0.0421143,0.3945618,0.0657959,0.6040955
		c0.0235748,0.2095375,0.0454254,0.4347382,0.0621948,0.6355209c0.0166779,0.2006874,0.0255127,0.4005508,0.040451,0.6170883
		c0.0148315,0.2164459,0.0620117,0.4286537,0.0386047,0.6327553c-0.0062714,0.0202713-0.008667,0.0415573-0.0072784,0.0628395
		c-0.1206207,0.3501511-0.2850037,0.6772614-0.4195404,1.0203133c-0.0000916,0.0069122-0.0000916,0.0136375-0.0000916,0.0205498
		c0.141449-0.3596382,0.3128357-0.7031517,0.4389801-1.0705299c0.0377808,1.2819099-0.0165863,2.5648346-0.1627197,3.838913
		c-1.4595642,12.7007904-11.7468262,22.2305298-24.0320587,23.1921463
		c-0.8202667,0.0779572-1.6504822,0.1113129-2.4873352,0.1110382c-0.1238403-0.0024872-0.2498016-0.0194473-0.3739166-0.0237732
		c-0.6755066-0.0231323-1.3524017-0.053627-2.0353699-0.1297379c-0.0010223-0.0095901-0.0023956-0.0190735-0.003418-0.0287552
		c-0.0569458-0.0061722-0.1128693-0.0043259-0.1699066-0.0108719c-1.8431702-0.2152481-3.6554565-0.6313705-5.413208-1.2230301
		c0.0001831,0.0014725,0.000473,0.0031357,0.0005646,0.0046082c-0.137207-0.0467148-0.2766266-0.0861511-0.4130859-0.1350861
		c0.0025787-0.0006409,0.0050659-0.0012894,0.0076447-0.0019302c-0.0328064-0.0116119-0.0664368-0.0206451-0.0991516-0.0324402
		c2.8820953-0.6471252,5.765564-1.4451828,8.5379028-2.3833084c2.4069977-0.8051529,6.5802002-2.3060913,7.8613739-4.6642456
		c0.7928162-0.5225525,1.4694214-1.2029457,1.9874573-1.998703c0.1379395-0.2139587,0.2622528-0.4354744,0.3752136-0.6622391
		c0.0179749-0.0373192,0.0341034-0.0753746,0.0514221-0.11306c0.1610718-0.3384476,0.2880402-0.6906242,0.3918915-1.0504456
		c0.0994263-0.3656273,0.1977386-0.7325478,0.2353363-1.115406c0.0572205-0.467907,0.057312-0.9387665,0.0175934-1.4056587
		c-0.024231-0.2709045-0.0920563-0.5291862-0.1476135-0.7913361c-0.0385132-0.1867752-0.0623779-0.3757629-0.1165619-0.5592232
		c-0.1090088-0.3616676-0.252655-0.7089577-0.4180603-1.044178c-0.0231323-0.0475464-0.0400848-0.0990562-0.0642242-0.1458664
		c-1.0098114-1.9310646-2.9234619-3.3471375-5.2511139-3.6197014c-0.1479797-0.0173225-0.2961578,0.0032272-0.4445038-0.0043297
		c-0.3451691-0.0176926-0.6905212-0.0395317-1.0334015-0.0049782c-0.0668945,0.0015678-0.1338806-0.0054359-0.2007751-0.0019341
		c-0.4073792,0.0540886-0.8157501,0.1337013-1.2206421,0.2654686c5.2414398-2.9768105,9.3225098-9.2124901,6.1773529-13.6781654
		c-0.1053162-0.147892-0.2358856-0.295784-0.3532867-0.443676c-0.1327667-0.1683464-0.2542114-0.3367882-0.4020233-0.5047646
		c-4.2965851-4.8617153-14.7054749-9.5374813-23.005188-10.2451496c-0.0409088-0.0046997-0.1097412-0.0053444-0.1692657-0.0072784
		c-0.098587-0.0028572-0.2177429-0.0033188-0.3606567-0.0008297c-0.0424805,0.0008297-0.0784149,0.0007362-0.1236572,0.0020275
		c-0.0029449,0.0000916-0.0051575,0.0000916-0.0081024,0.0001831c-0.000824-0.0000916-0.0016632-0.0000916-0.0024872-0.0000916
		c-0.3193817,0.007925-0.7015839,0.0240498-1.0898895,0.0430317l0.1943359-0.1686249l0.4334412-0.3796329l0.3635101-0.3957596
		l0.4385223-0.355217l0.5049438-0.3794498l0.4427643-0.3229656l0.5607758-0.3809242l0.4138336-0.2785511
		c0.2579956-0.169178,0.5230103-0.3296013,0.7870941-0.4821911l0.4268036-0.253212
		c0.3033447-0.148077,0.5744324-0.291914,0.8454285-0.435751l0.4144592-0.21488l0.6486969-0.315134l0.4692993-0.2086143
		c0.2019806-0.0961056,0.4108582-0.1834583,0.627594-0.2698898l0.4842072-0.1988468l0.6483307-0.2436295l0.472702-0.1684399
		l0.7015839-0.2216072l0.4446869-0.1318588c0.2568054-0.0897484,0.5432892-0.1602383,0.8219299-0.2316494l0.3275757-0.0816402
		c0.3529053-0.0946331,0.7763977-0.1811562,1.1667328-0.2556076l0.3239746-0.050312
		c0.2924652-0.0539036,0.585022-0.1077156,0.8835754-0.1450348l0.45224-0.0593414l0.8048706-0.0825596l0.4896545-0.0391617
		l0.7532806-0.0486526l0.494812-0.0146503L181.1159515,16.1804962z M181.1404572,16.1753349l0.4842224,0.007925
		L181.1404572,16.1753349z M179.8723755,16.2046375l0.494812-0.0147438L179.8723755,16.2046375z M178.6322021,16.2688618
		l0.4896545-0.0391617L178.6322021,16.2688618z M157.8160858,33.4431648
		c0.7270966-1.6902027,2.0643921-2.7375126,2.9416962-2.3423996c0.5231018,0.2356129,0.7658997,0.9366455,0.7212219,1.8181
		c0.011322-0.0025826,0.0223846-0.004055,0.0338135-0.0066376c-0.0297699,0.5990334-0.1889954,1.2796097-0.4970245,1.9644241
		c-0.4930725,1.096241-1.2262573,1.9106102-1.9312592,2.2428818c-0.2426147,0.1180382-0.4812622,0.1815262-0.704071,0.1676102
		c-0.1279907-0.0058022-0.2515564-0.032341-0.3682098-0.0832062c-0.8769379-0.3823967-0.9686127-1.9432297-0.2844543-3.5446014
		c0.0026855-0.0004616,0.0055389-0.0011978,0.0083008-0.0016594
		C157.7641144,33.5859871,157.7852173,33.5150375,157.8160858,33.4431648z M181.1741791,44.5971298
		c-0.1087341-0.0041466-0.2146912,0.00811-0.3246155-0.0045128c-0.0056305-0.0005531-0.0106049-0.0027657-0.0162201-0.0034103
		c-0.0051575-0.0005531-0.0100403,0.00037-0.015213-0.0001831c-0.1046753-0.0120697-0.2001343-0.0465317-0.3020477-0.0658836
		c-0.1789398-0.0336342-0.3602753-0.0607224-0.5297394-0.1156425c-0.0555573-0.0179672-0.1042023-0.0480042-0.1585693-0.0681839
		c-0.2100067-0.0777702-0.4172363-0.1606102-0.6091766-0.2686958c-0.02211-0.0124359-0.0402527-0.0300369-0.0621948-0.0428467
		c-0.2161713-0.1268806-0.4225616-0.2673073-0.6111908-0.4286537c-0.0084686-0.0071869-0.0146484-0.0163078-0.0230408-0.0235901
		c-0.1973724-0.1715698-0.379715-0.3586235-0.5419922-0.5628166c-0.0054321-0.0069084-0.0091095-0.0150185-0.0145569-0.0219307
		c-0.1617126-0.2060318-0.3059082-0.4255219-0.4273529-0.6587372c-0.0124512-0.0238647-0.0188904-0.0505867-0.0308685-0.0747299
		c-0.1087341-0.21875-0.2045593-0.4443207-0.2744141-0.681221c-0.0170441-0.0574074-0.0205536-0.119236-0.035202-0.1775627
		c-0.0517731-0.2080612-0.1002502-0.4170456-0.1197815-0.6346893c-0.0100403-0.1095581,0.0028534-0.2232666,0.0014801-0.3346672
		c-0.0018463-0.1639252-0.0153046-0.3257294,0.0023041-0.4927864c0.0016479-0.0157585,0.0034027-0.0316086,0.005249-0.0473633
		c0.2675781-2.3281174,2.3717957-3.9986,4.6999969-3.7310143c2.3281097,0.267498,3.9985962,2.3717003,3.7311096,4.6999092
		c-0.2512817,2.1863976-2.1261444,3.7709122-4.2814026,3.7369118c-0.0053406,0.0004578-0.0102234,0.0024872-0.015564,0.0029488
		C181.2054138,44.5974083,181.1899414,44.597683,181.1741791,44.5971298z M135.0753479,67.5047379
		c-0.9138947-0.0406342-1.7263184-0.1023712-2.4453278-0.1838226c-7.1128922-0.8019333-5.0322723-3.5350227-0.3560486-6.8793068
		c2.3913269-1.7113953,5.4613037-3.5830269,8.3344421-5.4406548c5.5806274-3.6431999,10.1724548-6.8867683,12.5659943-9.3563271
		c0.5484467-0.5694504,0.9804993-1.0975304,1.2815399-1.579628c0.6932983-1.1336517,1.5026855-2.1922035,2.4150085-3.1585197
		c-0.0043335,0.0076485-0.0082855,0.0140076-0.012619,0.0216522c0.0105896-0.0113335,0.0194397-0.0241394,0.0301208-0.0354729
		l0.0054474-0.0471802c0.0048828-0.0085678,0.013443-0.0140953,0.0184174-0.0226669l0.0008392-0.0069084
		c0.1147156-0.1858559,0.254776-0.3449898,0.4048767-0.4912224c0.247406-0.2520142,0.526886-0.4696579,0.8584137-0.6043739
		c0.0136414-0.0102272,0.0270996-0.0170479,0.0407257-0.0271835c-0.0182343,0.0073738-0.0372162,0.0096741-0.0554657,0.0175095
		c2.0488281-1.5143929,3.9798889-1.6145515,5.5158386-0.3565979c0.0328064,0.0262604,0.0679169,0.0439529,0.1004486,0.0714111
		c2.5548859,2.1882401,3.9319763,4.5006905,5.5866089,6.4262314c0.000824,0.0041466,0.0017548,0.0081062,0.0026703,0.0121613
		c2.0370331,2.3681984,4.5023499,4.1470451,10.1199188,4.3546448c-1.1947327,1.5591736-1.6618195,3.5565834-1.2823639,5.4838715
		c-0.6253815,0.389492-1.178894,0.7076683-1.4807587,0.9115829c-0.958847,0.6652794-2.7309723,1.537796-5.0385437,2.4978447
		c0.0005646,0.0037804,0.0011139,0.0075569,0.0016632,0.0113335c-1.4030762,0.5828133-3.0044556,1.1974144-4.7515106,1.8199425
		c-0.8781281,0.3129196-1.7909088,0.6269493-2.7340088,0.9399643c-0.0003662-0.0028572-0.0007324-0.0056229-0.0012054-0.0083847
		c-0.8814392,0.292923-1.7861176,0.5837326-2.7118835,0.8711281c0.0003662,0.0025826,0.0006409,0.0051613,0.0010071,0.0076485
		C152.6911163,65.4820862,142.1686096,67.841156,135.0753479,67.5047379z M185.4981384,49.1990929
		c2.8570251,0.3283997,4.9070587,2.9106483,4.5787354,5.767765c-0.3058167,2.6606674-2.5711823,4.595417-5.1888123,4.5868492
		c-0.0013885,0.0001831-0.0026855,0.0005531-0.0041504,0.0007362c-0.0030365-0.0000916-0.0059967-0.0000916-0.0089417-0.0000916
		c-0.1859436-0.0013809-0.3690338,0.0139122-0.5579376-0.0078316c-0.0026703-0.00037-0.005249-0.0006447-0.0079193-0.0009232
		c-2.8570251-0.3283081-4.9070435-2.9106522-4.5787354-5.7676735
		C180.0586853,50.9208069,182.6410217,48.8707809,185.4981384,49.1990929z M26.3191662,145.3005524
		c-0.1876049-0.8376007-0.3752117-1.66008-0.5485344-2.4967499c0-0.1734161,0-0.3610077-0.1154575-0.5343323l-0.2597542-1.3132477
		c-0.1154556-0.562912-0.2453804-1.1257172-0.3463688-1.6885376l-0.173233-0.9522247
		c-0.1299229-0.6499786-0.2452869-1.2990417-0.3607445-1.9347534c-0.1154556-0.6348724-0.1588554-0.8509521-0.2453785-1.2839355
		c-0.1154575-0.6499786-0.2165394-1.2990417-0.3319969-1.9489441c-0.3463707-2.048645-0.6494312-4.1132202-0.9380283-6.1768875
		c-0.0866146-0.6490631-0.1588554-1.2990494-0.2453804-1.9481125c-0.1828136-1.4246445-0.3561363-2.8677139-0.5195999-4.3301315
		c-0.0866165-0.7504272-0.1587658-1.4430695-0.2452888-2.2512665c-0.1299229-1.371109-0.2598457-2.7421265-0.3753948-4.1131363
		l-0.1731396-2.2228851c-0.0762959-0.9531403-0.1386776-1.9573288-0.1980171-2.9657593
		c-0.0305004-0.5184021-0.0611839-1.0376358-0.0905781-1.5518875c0-0.4615555,0-0.9087296-0.0866165-1.4430771v0.0719681
		c0-1.372673-0.1020031-2.7454376-0.1494579-4.1190338c-0.0005531-0.0150146-0.0014744-0.0292969-0.0020275-0.0443192
		c-0.0018425-0.0552902-0.005619-0.1105728-0.0072784-0.165863c0-0.2076874,0-0.4192505,0-0.6231689
		c0-0.0569458,0-0.1149979,0-0.1708374c0-1.9053574-0.0721493-3.8249969-0.0866165-5.773201v-0.7094193v-0.1708374
		c0-2.2085114,0-4.4305725,0.1009903-6.6391754c0-0.5485306,0-1.0820465,0-1.6306763
		c0-1.674263,0.1443901-3.3484268,0.2310066-5.0226898l0.1299229-2.049469
		c0.1154575-1.674263,0.2452888-3.3627167,0.4040527-5.036972l0.1298313-1.6022034
		c0.2165394-2.1935883,0.4474525-4.3293076,0.721674-6.5521011c0-0.4045181,0.1009903-0.7940063,0.1588554-1.1976929
		c0.2308216-1.7898102,0.476202-3.5654297,0.7504234-5.3259354c0.1009903-0.6926498,0.2164459-1.4430733,0.331995-2.0636635
		c0.2452888-1.558712,0.5195103-3.1173325,0.808197-4.6768723l0.3462791-1.9481125
		c0.4128056-2.1206093,0.8406315-4.2681198,1.309-6.3342705c17.6856098,2.8685417,35.8231888-0.3024178,51.4856873-9.0077438
		c0.0182419-0.0100441,0.0356598-0.0218391,0.0538101-0.0318832c0.0251541-0.0133591,0.0509567-0.0259857,0.0760193-0.0401764
		c5.0776062-2.854351,9.8717804-6.1852722,14.3229904-9.9424534c0.0347366,0.0293941,0.0714111,0.0563011,0.1061478,0.0856953
		c0.0011978-0.0010147,0.0023956-0.0018444,0.0035019-0.0028572c1.1023254,0.934803,2.2271271,1.8417797,3.371376,2.7226772
		c3.4661865,2.6589146,7.1184158,5.0692234,10.9315262,7.2089977c12.992981,7.2202377,27.6884232,10.6222954,42.4163895,9.940979
		c-1.0730133,0.8914032-2.1889801,1.7446594-3.3161774,2.552948c-2.2109985,1.5911484-4.4837341,3.0957718-6.7597961,4.5601273
		l-1.7948761,1.1538277c-2.6600189,1.6907578-5.3731079,3.3594894-7.8663483,5.2602386
		c-1.7441101,1.3347092-3.8023376,3.1184387-4.2592773,5.3645439c-0.1196976,0.5886154-0.1162872,1.1955719,0.0098572,1.7828064
		c0.8599777,4.0757217,6.5741272,4.4618988,9.8963776,4.6209412c1.3419952,0.0600815,2.6860962,0.0526123,4.0272675-0.0223923
		l0.4384155,0.1299286c6.9414978,1.8873901,13.6878357,0.9048538,20.6391144-0.2688828
		c0.7861633-0.131485,1.5692139-0.2787323,2.3535461-0.419899c0.0387878-0.0069122,0.0778656-0.0137253,0.1166534-0.0207291
		c0.4644928,4.333725,0.8217468,8.6764832,1.0436249,13.0261536c-0.0390778,0.0513229-0.0781403,0.1026459-0.1171112,0.1539688
		c0.0708466,1.419487,0.1192322,2.8397064,0.1642914,4.2601089l0.1196899-0.1631927
		c0.0119781,0.3665543,0.0322571,0.7329178,0.0424805,1.0994644c0.0000916,0.0010147,0,0.0020294,0.0000916,0.0030441
		c-0.0422974-0.0067291-0.0843964-0.0145569-0.1267853-0.021286c0.0550079,1.9802704,0.0865173,3.9611893,0.091217,5.9423828
		c0.0037842,1.1951065-0.0163116,2.3904037-0.0308685,3.5855179c0.0418396,0.0128021,0.0853271,0.0254288,0.1273499,0.0382385
		c-0.0070953,0.5325012-0.0036011,1.0650024-0.0143738,1.5974121c-0.0424805-0.0127182-0.0850525-0.0254288-0.1274414-0.0382385
		c-0.0558472,2.9385681-0.1785736,5.8761292-0.3450775,8.8123016l0.1171112-0.0189819
		c-0.4774933,8.2791595-1.3786621,16.5426559-2.7375183,24.7542801c0,0.3609161-0.115448,0.7361298-0.1875916,1.0971527
		c-1.874588,11.3327332-4.7728882,22.4720459-8.6595306,33.2812958c-0.5196075,1.4440002-1.0681458,2.7136536-1.6309662,4.0126953
		l-0.1735992,0.355957l-0.1149902,0.2353363c-0.1443939,0.3610229-0.3030701,0.7077637-0.4619141,1.0393829
		c-0.1586761,0.3317261-0.4185181,0.8660736-0.6205902,1.299057l-0.4907684,0.9816132l-0.6782684,1.2839355l-0.4906769,0.8953705
		l-0.7649689,1.3132324c-0.1587677,0.2596588-0.3031616,0.5343475-0.4763031,0.7940063
		c-0.3030548,0.5050507-0.6205902,1.0099945-0.9525909,1.4430695l-0.3174286,0.5050507
		c-0.4329834,0.654129-0.8804474,1.2897339-1.3422699,1.9053497c-0.1299133,0.201889-0.2741241,0.3752136-0.4185181,0.5628204
		c-0.3175201,0.4472656-0.6494293,0.880249-0.9669647,1.299057l-0.5628967,0.6926422
		c-0.3030701,0.3610229-0.5917511,0.7362366-0.8948212,1.0821381l-0.6205902,0.7219543l-0.8804321,0.9958038
		c-0.2164459,0.2453766-0.4473724,0.4765625-0.6638184,0.7069244c-0.2165375,0.2311096-0.5918427,0.6356201-0.8948059,0.9380341
		l-0.6928406,0.6934814l-0.923645,0.9087219l-0.692749,0.6498871l-0.9815063,0.8945465l-0.692749,0.6063995l-1.0824127,0.9237366
		l-0.6350555,0.5335236l-1.4432678,1.0971527l-0.3751984,0.2889709l-1.7896271,1.3559875l-0.562912,0.3903351
		c-0.4328995,0.3031464-0.8515091,0.6205902-1.2989578,0.9087219l-0.7216721,0.5050354l-1.1689453,0.7797241l-0.8082886,0.5050507
		l-1.1401901,0.7362366l-0.82267,0.5192261l-1.1689377,0.6934814l-0.8371277,0.5050354l-1.1979675,0.6926575l-0.8370438,0.4757385
		l-1.2556458,0.7076721l-0.808197,0.4472656l-1.4432526,0.7362213l-0.736145,0.3894043l-1.83284,0.9674225l-0.2887802,0.1440277
		c-0.721489,0.3752136-1.443161,0.750412-2.1792145,1.1114349l-0.6350555,0.3174438l-1.5875549,0.7940063l-0.7938232,0.4036865
		l-1.4432526,0.7076569l-0.8804398,0.4330902l-1.4432526,0.6925507l-0.8803482,0.433075l-1.5732651,0.7504272l-0.7359619,0.3459015
		l-2.4246826,1.16922l-0.4619141,0.2169189l-4.0410767,1.9481049l-2.1072464-0.8375854l-0.4473648-0.2160797l-0.5340652-0.3173523
		l-2.1071548-1.0100861l-1.2556534-0.6063995l-6.0617065-2.8869629l-0.2020721-0.1005402l-0.3030624-0.144928
		c-1.3134232-0.6347961-2.5978241-1.2839508-3.8678436-1.9188232h-0.1011734l-3.7524872-1.9489441l-0.2597504-0.1298218h-0.1009903
		c-1.1402893-0.606308-2.2660141-1.2118835-3.3772736-1.8324738l-0.3319016-0.1876068l-0.6062164-0.3467407l-0.4762039-0.2596588
		l-0.3609238-0.201889l-0.6782761-0.4045105l-1.2701149-0.7504272l-0.3463707-0.201889l-0.4762955-0.2888641l-1.6597023-1.0394897
		l-0.7793541-0.4899292l-1.8329353-1.2127075l-0.4906654-0.3317261c-0.7649841-0.52005-1.5155907-1.0535736-2.251545-1.5879211
		l-0.5485344-0.4187927l-1.6019287-1.371109l-0.3175278-0.2453766l-0.2310066-0.1876068l-0.1876068-0.1582947
		c-1.1689415-0.9380341-2.3236008-1.9196472-3.4349518-2.8869781l-0.2165375-0.1876068l-0.2019806-0.1876068l-0.1298332-0.1147156
		c-0.9382095-0.8810883-1.861866-1.8040924-2.7566757-2.7429504l-0.389679-0.4179688
		c-0.8659706-0.9238281-1.7030106-1.8760529-2.5256729-2.8869629l-0.2310066-0.2596741l-0.2453804-0.3174286
		c-0.5628166-0.6926422-1.111351-1.4430695-1.6597023-2.1357269l-0.187603-0.2604828
		c-0.5918427-0.808197-1.1546631-1.6449585-1.7175713-2.5109253l-0.4618263-0.7069397
		c-0.4329872-0.67836-0.8515053-1.4438934-1.2700233-2.0929565l-0.4185181-0.7069397
		c-0.5051346-0.9237366-1.0247383-1.8617706-1.4433479-2.8869629c-0.0026741-0.0335388-0.0026741-0.0669861,0-0.1005402
		l-0.1586723-0.3467255c-0.4329872-0.8802643-0.866066-1.7898102-1.2701149-2.7136536l-0.3752136-0.8659668
		c-0.4619179-1.096344-0.9092789-2.1934967-1.3278885-3.347702c-0.5771942-1.5594482-1.1257267-3.1466217-1.6597958-4.7345581
		c-0.1586723-0.5050354-0.3175297-1.0100708-0.4906673-1.5151215c-0.3462791-1.1114349-0.6927414-2.2086029-1.0247364-3.3192139
		l-0.5195084-1.7470551l-0.9091873-3.2756348l-0.4329872-1.6457977c-0.3464622-1.3132324-0.66399-2.6264801-0.9814281-3.9539948
		c0-0.2596588-0.1299229-0.5201569-0.1876965-0.7940063v-0.0167694v-0.1708374
		C26.4778385,146.0073853,26.4056892,145.6472931,26.3191662,145.3005524z M164.8027344,66.3924637L164.8027344,66.3924637
		c-0.6919098,0.1349945-1.3810577,0.267128-2.0611725,0.3926315c-1.1107178,0.2050171-2.2009583,0.3968658-3.2552795,0.573967
		c-3.933548,0.7771454-7.9273529,1.2097626-11.9360809,1.2928772c0.0103149-0.0019379,0.0200806-0.0042419,0.0304108-0.0061798
		c-0.0206451,0.0004654-0.0411987,0.0022125-0.0618286,0.0025864c1.8468475-0.3438873,3.6326904-0.7407532,5.3504333-1.1460037
		c0.4447937-0.1078033,0.9073486-0.2059402,1.3401489-0.3201981c5.8408356-1.4353333,11.5796814-3.2576675,17.1786346-5.4546623
		c1.9141998-0.7233315,3.7785645-1.571888,5.5811768-2.5402336c0.7314453-0.3846092,1.4036407-0.8726044,1.9959412-1.4488754
		c1.0146942,1.7915611,2.7838593,3.0294266,4.814621,3.3689766c-2.6457367,1.2758293-6.7861481,2.520977-11.3299561,3.6232033
		c0,0.0002747,0.0000916,0.0006485,0.0000916,0.0009232c-1.5870972,0.384613-3.2203522,0.7520828-4.8604279,1.0968857
		C166.658432,66.0241699,165.7274933,66.2120514,164.8027344,66.3924637z M187.1840973,16.8778439l-0.4960938-0.1126938
		L187.1840973,16.8778439z M185.4349365,16.5256672l0.4239502,0.0487442L185.4349365,16.5256672z M182.4727631,16.2091522
		l0.4082031,0.0469017L182.4727631,16.2091522z M179.3874054,82.3132401
		c-0.0012817-0.0261688-0.0030365-0.0525208-0.0043182-0.0786896c-0.029953-0.5993042-0.0658875-1.1981506-0.1001587-1.7972717
		c1.7165527,0.8718643,3.3491516,1.904068,4.853775,3.1134567c-0.0108643,0.019722-0.0209961,0.0395279-0.0318756,0.0592499
		c0.0003662,0.0002747,0.0007324,0.0005493,0.0011139,0.0008316c-0.2512817,0.4562988-0.4947357,0.9135132-0.7381744,1.3706436
		C182.124649,83.9686127,180.7869873,83.0855942,179.3874054,82.3132401z M182.6269226,74.0553665
		c-1.2697449-0.4767532-2.5709076-0.858696-3.8902283-1.1643372c-0.0462646-0.52771-0.0886536-1.0557861-0.1383057-1.5832214
		c1.544693,0.3288651,3.0726318,0.7323608,4.5550537,1.280899c1.9883728,0.7063751,3.8725433,1.6773911,5.6017151,2.8866959
		c-0.006073,0.0100403-0.0119781,0.0203629-0.0180511,0.0304031c0.004425,0.0031357,0.0091248,0.0057144,0.0135498,0.0088501
		c-0.2651062,0.4387894-0.5233917,0.8864288-0.7885742,1.3252182
		C186.3193359,75.6722183,184.5242767,74.7352982,182.6269226,74.0553665z"/>
	<path class="st2" d="M158.0122528,37.2039375c0.1166534,0.0508652,0.2402191,0.077404,0.3682098,0.0832062
		c0.2228088,0.013916,0.4614563-0.049572,0.704071-0.1676102c0.7050018-0.3322716,1.4381866-1.1466408,1.9312592-2.2428818
		c0.3080292-0.6848145,0.4672546-1.3653908,0.4970245-1.9644241c-0.0114288,0.0025826-0.0224915,0.004055-0.0338135,0.0066376
		c0.0446777-0.8814545-0.1981201-1.5824871-0.7212219-1.8181c-0.8773041-0.395113-2.2145996,0.6521969-2.9416962,2.3423996
		c-0.0308685,0.0718727-0.0519714,0.1428223-0.0799866,0.2145119c-0.0027618,0.0004616-0.0056152,0.0011978-0.0083008,0.0016594
		C157.0436401,35.2607079,157.1353149,36.8215408,158.0122528,37.2039375z M161.0423279,34.0922279
		c-0.3299713,0.7256355-0.9067078,1.1764069-1.2847748,1.005661c-0.3858948-0.1715698-0.4243164-0.8759232-0.1021881-1.602478
		c0.0408325-0.0920525,0.0951843-0.1632805,0.1433868-0.2449188c-0.0063629,0.0011978-0.0127258,0.0024872-0.0189819,0.0037766
		c0.3387146-0.6119308,0.8466187-0.9463196,1.1639557-0.7959404c0.0909576,0.0430298,0.161438,0.1249466,0.2128601,0.2321091
		C161.321991,32.9886169,161.2923126,33.5424042,161.0423279,34.0922279z"/>
	<path class="st2" d="M92.0886765,229.7028198c43.471077-20.0473633,63.1139145-29.8901062,75.0064163-76.1182251
		c6.7791443-27.1808014,8.7766418-55.2276611,6.0316772-82.9102783c-0.6170044-0.1739655-1.2349243-0.3451691-1.838562-0.5595016
		c-0.1768188-0.0630264-0.3499603-0.1330566-0.5251312-0.1992111c-0.8421021-0.3173447-1.6756439-0.658371-2.485672-1.0531158
		c-0.1148224,0.0243225-0.2302704,0.0451508-0.3450928,0.0692902c2.350235,21.6361084,1.765213,43.531517-1.804184,65.0820312
		c-1.933548,12.0605621-4.9922791,23.9134521-9.13591,35.403656
		c-11.3007507,30.6690979-35.1146011,40.3971252-62.4067078,53.6168823
		c-0.7570572,0.3584442-1.5739136,0.5318451-2.3906784,0.5343475c-0.0210114,0-0.0416565,0.0067139-0.0627518,0.0067139
		c-0.0211029,0-0.0419312-0.0058899-0.0629349-0.0067139c-0.8166733-0.0025024-1.6336288-0.1759033-2.390686-0.5343475
		c-27.306572-13.2197571-51.1059532-22.9477844-62.4211731-53.6168823
		c-4.1436329-11.4902039-7.2023602-23.3430939-9.1359158-35.403656c-4.9920979-30.1858139-4.169158-61.0483246,2.4246845-90.9250793
		c0.4096718-1.8107262,1.6527901-3.2295609,3.2440281-3.9263573c0.6365337-0.2789192,1.3286285-0.4422913,2.0455112-0.4681854
		c0.3583488-0.0134506,0.7228699,0.0066338,1.0896969,0.0644112c9.2730274,1.5059128,18.679388,1.2337189,27.7354145-0.7328262
		c2.0125198-0.4372215,4.0075378-0.9581146,5.9801598-1.5611992c2.9587517-0.9053154,5.8667336-1.9966736,8.7059746-3.270565
		c1.8927307-0.8492966,3.7550583-1.7805958,5.5813599-2.7915115c1.2040482-0.6683216,2.3908615-1.3652077,3.5593414-2.0913048
		c3.5053558-2.1784744,6.8456726-4.6148586,9.993042-7.2899914c0.5236588-0.4514141,1.1101532-0.7889385,1.72789-1.0142307
		c0.6178284-0.2261219,1.2670746-0.3383541,1.9163284-0.3383541c0.3246231,0,0.6492462,0.0276432,0.9699097,0.084589
		c0.9619827,0.1691761,1.8888626,0.5912895,2.6743011,1.2679958c1.0491562,0.8919563,2.1196823,1.7571907,3.2106705,2.5946903
		c3.2728729,2.5143394,6.7293854,4.7823772,10.3416214,6.7866058c13.0290146,7.213974,27.8834991,10.3224564,42.6369781,9.015667
		c0.1842957-1.7390366,0.5232849-3.444809,1.0059357-5.1030388c-38.5089111,4.11203-60.8323212-24.0177612-60.8323212-24.0177612
		S64.7098618,44.9363136,18.1935196,31.7735119C7.7832484,70.6781845,7.1683702,111.5559464,16.4038944,150.7562256
		C28.0798588,198.8888702,46.9578171,208.8765717,92.0886765,229.7028198z"/>
	<path class="st2" d="M169.3672791,45.8638382c-0.0009155-0.004055-0.0018463-0.0080147-0.0026703-0.0121613
		c-1.6546326-1.9255409-3.031723-4.2379913-5.5866089-6.4262314c-0.0325317-0.0274582-0.0676422-0.0451508-0.1004486-0.0714111
		c0.0279236,0.02285,0.0579681,0.0379601,0.0856018,0.0617332C166.3273468,41.6081581,167.7052765,43.931572,169.3672791,45.8638382
		z"/>
	<path class="st2" d="M167.589447,65.8281784c0,0.0000916,0,0.0000916,0,0.0001831
		c1.6400757-0.3448029,3.2733307-0.7122726,4.8604279-1.0968857c0-0.0002747-0.0000916-0.0006485-0.0000916-0.0009232
		C170.8627777,65.1155319,169.2294312,65.4831848,167.589447,65.8281784z"/>
	<path class="st2" d="M166.934494,60.9337502c0.0004578,0.0030403,0.0007324,0.006176,0.0011902,0.0093079
		c1.7470551-0.6225281,3.3484344-1.2371292,4.7515106-1.8199425c-0.0005493-0.0037766-0.0010986-0.0075531-0.0016632-0.0113335
		C170.2829132,59.6953316,168.6817322,60.3104858,166.934494,60.9337502z"/>
	<path class="st2" d="M172.3525696,67.1724701c-0.0025787,0.0006409-0.0050659,0.0012894-0.0076447,0.0019302
		c0.1364594,0.0489349,0.2758789,0.0883713,0.4130859,0.1350861c-0.0000916-0.0014725-0.0003815-0.0031357-0.0005646-0.0046082
		C172.6228333,67.2595444,172.4865417,67.2199249,172.3525696,67.1724701z"/>
	<path class="st1" d="M109.3213043,30.4024963c-3.612236-2.0042286-7.0687485-4.2722664-10.3416214-6.7866058
		c-1.0909882-0.8374996-2.1615143-1.702734-3.2106705-2.5946903c-0.7854385-0.6767063-1.7123184-1.0988197-2.6743011-1.2679958
		c-0.3206635-0.0569458-0.6452866-0.084589-0.9699097-0.084589c-0.6492538,0-1.2985001,0.1122322-1.9163284,0.3383541
		c-0.6177368,0.2252922-1.2042313,0.5628166-1.72789,1.0142307c-3.1473694,2.6751328-6.4876862,5.111517-9.993042,7.2899914
		c-1.1684799,0.7260971-2.3551102,1.4229832-3.5592499,2.0913048c-1.8263016,1.0109158-3.6886292,1.942215-5.5814514,2.7915115
		c-2.839241,1.2738914-5.7472229,2.3652496-8.7059746,3.270565c-1.9726219,0.6030846-3.9676399,1.1239777-5.9801598,1.5611992
		c-9.0560265,1.9665451-18.4623871,2.238739-27.7354145,0.7328262c-0.366827-0.0577774-0.731348-0.0778618-1.0896969-0.0644112
		c-0.7168827,0.0258942-1.4089775,0.1892662-2.0455112,0.4681854c-1.591238,0.6967964-2.8343563,2.1156311-3.2440281,3.9263573
		c-6.5938425,29.8767548-7.4167824,60.7392654-2.4246845,90.9250793c1.9362278,12.0463715,4.9947701,23.88414,9.1359158,35.3601532
		c11.3152199,30.6698456,35.1145096,40.4113312,62.4210815,53.61763c0.7536469,0.3727264,1.5708771,0.5619812,2.3907776,0.5771027
		c0.0210037,0.000824,0.041832,0.0067139,0.0629349,0.0067139c0.0210953,0,0.0417404-0.0067139,0.0627518-0.0067139
		c0.8167648-0.0025024,1.6336212-0.1759033,2.3906784-0.5343475c27.2921066-13.2197571,51.105957-22.9477844,62.4067078-53.6168823
		c4.143631-11.4902039,7.2023621-23.3430939,9.13591-35.403656c3.569397-21.5505142,4.1544189-43.4459229,1.804184-65.0820312
		c-0.9272461,0.1950684-1.8567047,0.3785324-2.7866211,0.5598679c2.3056335,21.3213501,1.7253113,42.8959961-1.7886963,64.1326675
		c-1.9125519,11.8822632-4.9275055,23.5609131-9.0059052,34.8835907
		c-10.9400024,29.7319031-34.4506989,39.1416626-60.9923859,51.98703c-0.7601929,0.4112396-1.6704865,0.437973-2.4535294,0.0719757
		c-26.5560532-12.8453674-50.0235329-22.2693329-60.992382-52.0590057
		c-4.0916653-11.3185425-7.1069927-22.9980011-9.0059013-34.8835907
		c-4.9314671-29.8172302-4.1182022-60.3020477,2.3958416-89.8144608c0.1307526-0.5376625,0.4060802-1.0067673,0.7764072-1.3719368
		c0.3703289-0.3651657,0.8355637-0.6273193,1.3461361-0.7512512c0.3404732-0.0829315,0.7010326-0.1046753,1.06703-0.056118
		c17.1037216,2.7940903,34.649826-0.2570801,49.8070869-8.6593437c4.9778214-2.7638664,9.6675949-6.017664,13.9995651-9.712925
		c1.0625153-0.8677216,2.5889816-0.8677216,3.6514969,0c4.3372269,3.695261,9.0317001,6.9490585,14.014122,9.712925
		c13.393898,7.4257164,28.6535416,10.6638527,43.8250809,9.3899574c0.0050659-0.9891701,0.0655212-1.9703217,0.1686249-2.942997
		C137.2048035,40.7249527,122.3503189,37.6164703,109.3213043,30.4024963z"/>
	<path class="st1" d="M167.589447,65.8281784c-0.9311218,0.1958008-1.8619537,0.383873-2.7867126,0.5642853l0,0
		c0.9247589-0.1804123,1.8556976-0.3682938,2.7867126-0.5641022C167.589447,65.82827,167.589447,65.82827,167.589447,65.8281784z"/>
	<path class="st1" d="M164.20047,61.8746376c0.000473,0.0027618,0.0008392,0.0055275,0.0012054,0.0083847
		c0.9431-0.313015,1.8558807-0.6270447,2.7340088-0.9399643c-0.0004578-0.0031319-0.0007324-0.0062675-0.0011902-0.0093079
		C166.0564423,61.2469482,165.1434784,61.5613441,164.20047,61.8746376z"/>
	<path class="st1" d="M160.3352966,39.8722534c1.2776794,0.6644516,1.774704,2.2389183,1.1101532,3.5165901
		c0.4049835-0.7087708,0.453537-1.5665436,0.1312256-2.3164139c-0.5591431-1.3008003-2.0531616-1.9065552-3.3594971-1.3793068
		c-0.0136261,0.0101357-0.0270844,0.0169563-0.0407257,0.0271835c-0.3315277,0.134716-0.6110077,0.3523598-0.8584137,0.6043739
		C158.1065216,39.5561981,159.3172913,39.3427925,160.3352966,39.8722534z"/>
	<path class="st1" d="M156.34021,41.8336334c0.1858521-0.3106194,0.3733673-0.627964,0.5675049-0.9706459l0.0046082-0.0401764
		c-0.0049744,0.0085716-0.0135345,0.0140991-0.0184174,0.0226669l-0.0054474,0.0471802
		c-0.0106812,0.0113335-0.0195312,0.0241394-0.0301208,0.0354729c-0.1810608,0.3195572-0.3561401,0.6158028-0.5301056,0.9072533
		C156.3321838,41.8348312,156.3362427,41.8341866,156.34021,41.8336334z"/>
	<path class="st6" d="M26.564455,146.5417328c0.0577736,0.2738495,0.1876965,0.5343475,0.1876965,0.7940063
		c0.3174381,1.3275146,0.6349659,2.6407623,0.9814281,3.9539948l0.4329872,1.6457977l0.9091873,3.2756348l0.5195084,1.7470551
		c0.331995,1.110611,0.6784573,2.2077789,1.0247364,3.3192139c0.1731377,0.5050507,0.331995,1.0100861,0.4906673,1.5151215
		c0.5340691,1.5879364,1.0826015,3.1751099,1.6597958,4.7345581c0.4186096,1.1542053,0.8659706,2.251358,1.3278885,3.347702
		l0.3752136,0.8659668c0.4040489,0.9238434,0.8371277,1.8333893,1.2701149,2.7136536l0.1586723,0.3467255
		c-0.0026741,0.0335541-0.0026741,0.0670013,0,0.1005402c0.4186096,1.0251923,0.9382133,1.9632263,1.4433479,2.8869629
		l0.4185181,0.7069397c0.4185181,0.6490631,0.8370361,1.4145966,1.2700233,2.0929565l0.4618263,0.7069397
		c0.5629082,0.8659668,1.1257286,1.7027283,1.7175713,2.5109253l0.187603,0.2604828
		c0.5483513,0.6926575,1.0968857,1.4430847,1.6597023,2.1357269l0.2453804,0.3174286l0.2310066,0.2596741
		c0.8226624,1.01091,1.6597023,1.9631348,2.5256729,2.8869629l0.389679,0.4179688
		c0.8948097,0.938858,1.8184662,1.8618622,2.7566757,2.7429504l0.1298332,0.1147156l0.2019806,0.1876068l0.2165375,0.1876068
		c1.111351,0.9673309,2.2660103,1.9489441,3.4349518,2.8869781l0.1876068,0.1582947l0.2310066,0.1876068l0.3175278,0.2453766
		l1.6019287,1.371109l0.5485344,0.4187927c0.7359543,0.5343475,1.4865608,1.0678711,2.251545,1.5879211l0.4906654,0.3317261
		l1.8329353,1.2127075l0.7793541,0.4899292l1.6597023,1.0394897l0.4762955,0.2888641l0.3463707,0.201889l1.2701149,0.7504272
		l0.6782761,0.4045105l0.3609238,0.201889l0.4762039,0.2596588l0.6062164,0.3467407l0.3319016,0.1876068
		c1.1112595,0.6205902,2.2369843,1.2261658,3.3772736,1.8324738h0.1009903l0.2597504,0.1298218l3.7524872,1.9489441h0.1011734
		c1.2700195,0.6348724,2.5544205,1.2840271,3.8678436,1.9188232l0.3030624,0.144928l0.2020721,0.1005402l6.0617065,2.8869629
		l1.2556534,0.6063995l2.1071548,1.0100861l0.5340652,0.3173523l0.4473648,0.2160797l2.1072464,0.8375854l4.0410767-1.9481049
		l0.4619141-0.2169189l2.4246826-1.16922l0.7359619-0.3459015l1.5732651-0.7504272l0.8803482-0.433075l1.4432526-0.6925507
		l0.8804398-0.4330902l1.4432526-0.7076569l0.7938232-0.4036865l1.5875549-0.7940063l0.6350555-0.3174438
		c0.7360535-0.3610229,1.4577255-0.7362213,2.1792145-1.1114349l0.2887802-0.1440277l1.83284-0.9674225l0.736145-0.3894043
		l1.4432526-0.7362213l0.808197-0.4472656l1.2556458-0.7076721l0.8370438-0.4757385l1.1979675-0.6926575l0.8371277-0.5050354
		l1.1689377-0.6934814l0.82267-0.5192261l1.1401901-0.7362366l0.8082886-0.5050507l1.1689453-0.7797241l0.7216721-0.5050354
		c0.4474487-0.2881317,0.8660583-0.6055756,1.2989578-0.9087219l0.562912-0.3903351l1.7896271-1.3559875l0.3751984-0.2889709
		l1.4432678-1.0971527l0.6350555-0.5335236l1.0824127-0.9237366l0.692749-0.6063995l0.9815063-0.8945465l0.692749-0.6498871
		l0.923645-0.9087219l0.6928406-0.6934814c0.3029633-0.3024139,0.6782684-0.7069244,0.8948059-0.9380341
		c0.2164459-0.2303619,0.4473724-0.4615479,0.6638184-0.7069244l0.8804321-0.9958038l0.6205902-0.7219543
		c0.3030701-0.3459015,0.5917511-0.7211151,0.8948212-1.0821381l0.5628967-0.6926422
		c0.3175354-0.418808,0.6494446-0.8517914,0.9669647-1.299057c0.1443939-0.1876068,0.2886047-0.3609314,0.4185181-0.5628204
		c0.4618225-0.6156158,0.9092865-1.2512207,1.3422699-1.9053497l0.3174286-0.5050507
		c0.3320007-0.433075,0.6495361-0.9380188,0.9525909-1.4430695c0.1731415-0.2596588,0.3175354-0.5343475,0.4763031-0.7940063
		l0.7649689-1.3132324l0.4906769-0.8953705l0.6782684-1.2839355l0.4907684-0.9816132
		c0.2020721-0.4329834,0.4619141-0.9673309,0.6205902-1.299057c0.158844-0.3316193,0.3175201-0.67836,0.4619141-1.0393829
		l0.1149902-0.2353363c-11.894989,13.0714874-28.5500565,19.7090149-45.8376923,20.3547516
		c-1.4529343,0.057785-2.9250259,0.057785-4.4163818,0c-2.5826187-0.0588837-5.155014-0.2607574-7.7121964-0.5731354
		c-5.7286072-0.699646-11.3724442-2.0154724-16.8233261-3.958786h-0.2020721
		c-1.6020203-0.5771027-3.1895752-1.2118835-4.7627487-1.8903503l-0.2020721-0.0870667l-0.5339813-0.2453766
		c-4.4630966-1.9724426-8.6997032-4.3770447-12.6591415-7.1626587c-6.5930099-4.6182709-12.4171715-10.2967377-17.21632-16.8388062
		c-1.197876-1.6306763-2.3380661-3.3334045-3.4060173-5.0947418c-1.9852486-3.2865143-3.712677-6.7221069-5.1668968-10.2757416
		c-0.3368797-0.8082886-0.6544094-1.6164856-0.9526806-2.4246826c-0.1442966-0.433075-0.3030624-0.8517761-0.4474506-1.2697449
		c-0.41852-1.1407471-0.7504234-2.0787811-1.197876-3.4498749c-0.447361-1.3710175-0.8948116-2.6700745-1.3133316-4.1131439
		c-2.5260429-8.374527-4.5123024-16.9023819-5.9462509-25.5315933l-0.0104122-0.0645065
		c0.0593395,1.0084305,0.1217213,2.012619,0.1980171,2.9657593l0.1731396,2.2228851
		c0.1155491,1.3710098,0.245472,2.7420273,0.3753948,4.1131363c0.0865231,0.808197,0.1586723,1.5008392,0.2452888,2.2512665
		c0.1634636,1.4624176,0.3367863,2.9054871,0.5195999,4.3301315c0.086525,0.6490631,0.1587658,1.2990494,0.2453804,1.9481125
		c0.2885971,2.0636673,0.5916576,4.1282425,0.9380283,6.1768875c0.1154575,0.6499023,0.2165394,1.2989655,0.3319969,1.9489441
		c0.0865231,0.4329834,0.1299229,0.6490631,0.2453785,1.2839355c0.1154575,0.6357117,0.2308216,1.2847748,0.3607445,1.9347534
		l0.173233,0.9522247c0.1009884,0.5628204,0.2309132,1.1256256,0.3463688,1.6885376l0.2597542,1.3132477
		c0.1154575,0.1733246,0.1154575,0.3609161,0.1154575,0.5343323c0.1733227,0.8366699,0.3609295,1.6591492,0.5485344,2.4967499
		c0.0865231,0.3467407,0.1586723,0.7068329,0.2452888,1.0535736v0.1708374V146.5417328z"/>
	<path class="st7" d="M27.1995125,134.7357483c0.41852,1.4430695,0.8659706,2.7421265,1.3133316,4.1131439
		c0.4474525,1.3710938,0.779356,2.3091278,1.197876,3.4498749c0.1443882,0.4179688,0.303154,0.8366699,0.4474506,1.2697449
		c0.2982712,0.808197,0.6158009,1.616394,0.9526806,2.4246826c1.4542198,3.5536346,3.1816483,6.9892273,5.1668968,10.2757416
		c1.0679512,1.7613373,2.2081413,3.4640656,3.4060173,5.0947418c4.7991486,6.5420685,10.6233101,12.2205353,17.21632,16.8388062
		c3.9594383,2.785614,8.1960449,5.1902161,12.6591415,7.1626587l0.5339813,0.2453766l0.2020721,0.0870667
		c1.5731735,0.6784668,3.1607285,1.3132477,4.7627487,1.8903503h0.2020721
		c5.450882,1.9433136,11.0947189,3.25914,16.8233261,3.958786l0.064682-0.0844879
		c2.4742584,0.2940216,4.9623337,0.4850464,7.4599991,0.5420837c1.4817734,0,2.9537735,0,4.4163818,0
		c17.3191528-0.6491547,34.1187897-7.3461151,46.0256805-20.5515747c0.5628052-1.299057,1.1113434-2.6274109,1.6308594-4.0126953
		c3.8830414-10.7992096,6.7795105-21.9284821,8.6539917-33.2503357c-2.1381073,0.1289978-4.2935486,0.2101746-6.4508362,0.2872925
		c-1.1440582,0.0410156-2.291626,0.0770416-3.4416656,0.1038513c-2.2427063,0.0527039-4.4883575,0.0971222-6.7571259,0.0971222
		c-0.5882568,0-1.1732788-0.0075531-1.7601471-0.0108795c-3.2793121-0.0200806-6.5287781-0.107254-9.7577972-0.2361603
		c-0.6446381-0.0259857-1.2942505-0.0419312-1.9368591-0.071228c1.6407166,2.8049622,2.5266876,6.1815033,2.6062927,10.1694031
		c-0.0996094,5.5645905-2.2211304,9.9567413-6.3635712,13.1761627c-4.0428314,3.2195282-8.7221909,5.1911316-14.0380859,5.9147491
		v4.455719h11.342865c1.7965393,0.0502167,3.331749-0.1624451,4.6048126-0.6365356
		c1.1725464-0.4489288,1.7839203-1.6968384,1.8342285-3.7438202h1.8719025v14.1880035h-22.3120728v-16.9585876
		c1.7722092-0.6984558,3.219429-1.7085419,4.3425751-3.0319214c1.0729218-1.296463,1.8962326-2.7571411,2.4707489-4.380249
		c0.6240005-1.6969299,1.0352478-3.4306335,1.2353821-5.2028351c0.0997009-1.7973633,0.1499176-3.4942017,0.1499176-5.0922699
		c0-3.5762939-0.733284-6.8711853-2.1128693-9.9206085c-2.8475342-0.2793884-5.6797714-0.5829926-8.4714584-0.9473419
		c-3.598053-0.4690094-7.131134-1.0285034-10.6286545-1.6315002c-0.1368332-0.0238647-0.2736664-0.0477295-0.4108734-0.0707703
		c-0.2419739,0.3425903-0.4755554,0.6964264-0.6873932,1.0791931c-2.0468979,3.4690552-3.0452805,7.2982941-2.9950562,11.4910278
		c-0.0502243,3.3954315,0.4615479,6.8276215,1.5352097,10.295105c0.6231766,1.6231079,1.4347839,3.083786,2.433075,4.380249
		c1.0980759,1.3233795,2.5084381,2.3334656,4.2304306,3.0319214v16.9585876H78.5559158v-14.1880035h1.8350525
		c0,2.0469818,0.6482315,3.2948914,1.9464569,3.7438202c0.5988464,0.3249969,1.2847672,0.5109406,2.0586853,0.5611572
		c0.772995,0.0502319,1.5846024,0.0753784,2.4330673,0.0753784h11.3427734v-4.455719
		c-5.19104-0.7236176-9.8075562-2.6952209-13.8503876-5.9147491c-4.2429657-3.2194214-6.414711-7.6115723-6.5144119-13.1761627
		c0.1457748-7.2522125,2.9177475-12.5304108,8.2728043-15.8700867c-2.6356964-0.5737915-5.2308502-1.1914291-7.795311-1.8388367
		c-2.0766602-0.5251236-4.1387558-1.064537-6.1650009-1.6373978c-1.9395447-0.5486298-3.8443527-1.1282196-5.7358932-1.7195053
		c-6.7429276-2.1072464-13.1795692-4.4749832-19.2480049-7.091423c-0.1071625-0.0460663-0.2201309-0.0888214-0.3271103-0.1348953
		c0.0007362-0.0041504,0.0012894-0.0092163,0.0020256-0.0133591c-1.7849274-0.772171-3.5390739-1.5653458-5.2608833-2.3786163
		l-0.0041466,0.0067291l-9.1731415,15.0195999l-1.3338795,2.1842804l-0.0187054-0.0694733l-3.1012993-11.4676285
		c0.0032253,0.0493851,0.0018425,0.1013565,0.0051594,0.1507492l-0.796402-2.9456711
		c-0.230545-0.9107513-0.4372234-1.8268509-0.6267643-2.7462616c-0.6016102-2.9181213-0.9965401-5.8761292-1.18046-8.8517456
		c-0.0027637-0.0451508-0.0085697-0.0899353-0.0112419-0.1350861c-0.6491566-0.4094849-1.2630215-0.8366699-1.9007511-1.2520523
		c-0.2599392-0.166687-0.5093727-0.3350372-0.7650738-0.5033875c-0.5743351-0.3802795-1.1662693-0.7504196-1.7268753-1.1374283
		c0.0474548,1.3735962,0.1494579,2.7463608,0.1494579,4.1190338v-0.0719681
		c0.0866165,0.5343475,0.0866165,0.9815216,0.0866165,1.4430771c0.0293941,0.5142517,0.0600777,1.0334854,0.0905781,1.5518875
		l0.0104122,0.0645065C22.6872101,117.8333664,24.6734695,126.3612213,27.1995125,134.7357483z"/>
	<path class="st8" d="M115.1304474,131.7265015c-1.9966736-3.5193481-5.2664108-5.3284225-9.8083801-5.4289474
		c-4.0029297,0.089653-6.9886856,1.5452576-8.9703369,4.3497543c0.137207,0.0230408,0.2740402,0.0469055,0.4108734,0.0707703
		c3.4975204,0.6029968,7.0306015,1.1624908,10.6286545,1.6315002c2.791687,0.3643494,5.6239243,0.6679535,8.4714584,0.9473419
		C115.6248016,132.770874,115.4093704,132.2365265,115.1304474,131.7265015z"/>
	<path class="st8" d="M23.4081459,103.7384338c0.6399422,0.4122543,1.2863331,0.8219223,1.9302368,1.2274551
		c0.0036869,0.0022964,0.0072803,0.0046997,0.0109653,0.0069962c-1.0899734-14.7021637,0.698822-34.786377,3.8996372-55.5917168
		c1.9281178,0.2093506,3.8148613,0.3576126,5.660141,0.4480972c1.8453751,0.0904846,3.6490974,0.1239319,5.4108047,0.1063347
		c1.1743774-0.0117035,2.3303261-0.0469017,3.4673843-0.1030159c3.4111824-0.1675186,6.653553-0.5276184,9.7239838-1.0359802
		c3.0705223-0.5084496,5.969101-1.1659012,8.6928864-1.9280243c0.9078979-0.2546883,1.7965317-0.5209846,2.6654587-0.7964973
		c1.7380219-0.5527725,3.3978119-1.145813,4.9786377-1.7664032c7.9041367-3.1039696,13.8327866-6.9038124,17.6759415-9.8067245
		c0.7684784-0.5813408,1.4538498-1.1257286,2.0546265-1.6223869c2.1031952-1.737009,3.1737289-2.8785839,3.1737289-2.8785839
		L69.9853058,67.2806473c0.3844223,0.7299652,0.7180786,1.5009384,0.9866791,2.3237839
		c0.6214218,1.7906418,1.0779037,3.7639084,1.3701859,5.9197159h0.2194824l3.2337112-13.5396767h15.8412552L80.1807861,96.9015121
		c0.7671967,1.9364166,1.8266678,3.6919479,3.1792526,5.2614365c1.16922,1.7186737,2.666748,2.5762634,4.4942398,2.5762634
		c1.4615021,0,2.7588959-0.6029968,3.8920822-1.8090668c1.0594788-1.0586472,1.7353516-2.2831497,2.0276337-3.6717682h3.2346344
		c-0.2194901,3.6549988-0.9690857,7.2347107-2.2479553,10.7440186c-0.6574478,1.6432114-1.5888367,2.9967194-2.7949142,4.0553589
		c-1.1700516,1.0603027-2.6684036,1.626442-4.4950714,1.7001572c-2.3752975-0.0737152-4.3484726-1.4623337-5.9197159-4.1659317
		c-1.5712433-2.7052689-2.7404633-6.1575394-3.5076523-10.3603287h-0.2193985
		c-1.8635254,3.9113388-4.3301315,7.2898941-7.3996429,10.1409302c-3.1433182,2.8492813-6.8887939,4.311615-11.2373581,4.3853302
		c-6.3917656-0.1163788-11.5501862-1.9313431-15.514782-5.3886871l-2.1223602,3.475769
		c1.7218094,0.8132706,3.475956,1.6064453,5.2608833,2.3786163c-0.0007362,0.0041428-0.0012894,0.0092087-0.0020256,0.0133591
		c0.1069794,0.0460739,0.2199478,0.088829,0.3271103,0.1348953c6.0684357,2.6164398,12.5050774,4.9841766,19.2480049,7.091423
		c1.8915405,0.5912857,3.7963486,1.1708755,5.7358932,1.7195053c2.0262451,0.5728607,4.0883408,1.1122742,6.1650009,1.6373978
		c2.5644608,0.6474075,5.1596146,1.2650452,7.795311,1.8388367c0.1553497-0.096756,0.2904358-0.2089844,0.4502106-0.3027954
		c5.5152054-3.1692963,11.7791672-4.7538986,18.7919006-4.7538986c7.0629425,0,13.352066,1.5846024,18.8680954,4.7538986
		c2.6144104,1.545639,4.6108932,3.5599976,6.0404282,6.003479c0.6426086,0.0292969,1.2922211,0.0452423,1.9368591,0.071228
		c3.2290192,0.1289062,6.4784851,0.2160797,9.7577972,0.2361603c0.5868683,0.0033264,1.1718903,0.0108795,1.7601471,0.0108795
		c2.2687683,0,4.5144196-0.0444183,6.7571259-0.0971222c1.1500397-0.0268097,2.2976074-0.0628357,3.4416656-0.1038513
		c2.1572876-0.0771179,4.3127289-0.1582947,6.4508362-0.2872925c0.0162201-0.0008392,0.0327148-0.0016632,0.0489349-0.0025024
		c0.0721436-0.3610077,0.1299286-0.7362213,0.1876068-1.0963287c1.3617096-8.2289352,2.2637939-16.5100327,2.7404633-24.8066025
		c0.2678528-4.6628723,0.4114227-9.3300705,0.400177-13.9968033c-0.0046997-1.9811935-0.0362091-3.9621124-0.091217-5.9423828
		c0-0.0008316-0.0000916-0.0016556-0.0000916-0.0024872c-0.0084839-0.3053665-0.0257111-0.6102676-0.0353851-0.9155426
		c-0.0450592-1.4204025-0.0934448-2.8406219-0.1642914-4.2601089c-0.2194061-4.3940811-0.5762787-8.7815247-1.0431671-13.1593933
		c-0.7843323,0.1411667-1.5673828,0.288414-2.3535461,0.419899c-6.9512787,1.1737366-13.6976166,2.1562729-20.6391144,0.2688828
		l-0.4384155-0.1299286c-1.3411713,0.0750046-2.6852722,0.0824738-4.0272675,0.0223923
		c-3.3222504-0.1590424-9.0363998-0.5452194-9.8963776-4.6209412c-0.1261444-0.5872345-0.1295547-1.194191-0.0098572-1.7828064
		c0.4569397-2.2461052,2.5151672-4.0298347,4.2592773-5.3645439c2.4932404-1.9007492,5.2063293-3.5694809,7.8663483-5.2602386
		l1.7948761-1.1538277c2.276062-1.4643555,4.5487976-2.9689789,6.7597961-4.5601273
		c1.1271973-0.8082886,2.2431641-1.6615448,3.3161774-2.552948c-14.7279663,0.6813164-29.4234085-2.7207413-42.4163895-9.940979
		c-3.8131104-2.1397743-7.4653397-4.5500832-10.9315262-7.2089977c-1.1460953-0.8791466-2.2707138-1.786768-3.3748779-2.71982
		c-0.0347366-0.0293941-0.0714111-0.0563011-0.1061478-0.0856953c-4.45121,3.7571812-9.2453842,7.0881023-14.3229904,9.9424534
		c-0.0250626,0.0141907-0.0508652,0.0268173-0.0760193,0.0401764c-0.0181503,0.0100441-0.0355682,0.0218391-0.0538101,0.0318832
		c-15.6624947,8.7053261-33.8000755,11.8762856-51.4856873,9.0077438c-0.4683685,2.0661507-0.8961945,4.2136612-1.309,6.3342705
		l-0.3462791,1.9481125c-0.2886868,1.5595398-0.5629082,3.1181602-0.808197,4.6768723
		c-0.1155491,0.6205902-0.2310047,1.3710136-0.331995,2.0636635c-0.2742214,1.7605057-0.5196018,3.5361252-0.7504234,5.3259354
		c-0.0578651,0.4036865-0.1588554,0.7931747-0.1588554,1.1976929c-0.2742214,2.2227936-0.5051346,4.3585129-0.721674,6.5521011
		l-0.1298313,1.6022034c-0.1587639,1.6742554-0.2885952,3.362709-0.4040527,5.036972l-0.1299229,2.049469
		c-0.0866165,1.674263-0.2310066,3.3484268-0.2310066,5.0226898c0,0.5486298,0,1.0821457,0,1.6306763
		c-0.1009903,2.2086029-0.1009903,4.4306641-0.1009903,6.6391754v0.1708374v0.7094193
		c0.0144672,1.948204,0.0866165,3.8678436,0.0866165,5.773201c0,0.0558395,0,0.1138916,0,0.1708374
		c0,0.2039185,0,0.4154816,0,0.6231689c0.0016594,0.0552902,0.0054359,0.1105728,0.0072784,0.165863
		c0.5509319,0.397789,1.1355858,0.790596,1.7289028,1.1817474
		C22.8987732,103.4033966,23.1482067,103.5717468,23.4081459,103.7384338z"/>
	<path class="st8" d="M161.4895935,62.7534142c-0.0003662-0.0024872-0.0006409-0.0050659-0.0010071-0.0076485
		c-8.8014374,2.7318954-19.3317719,5.0937347-26.4290009,4.7571335c-0.9072571-0.0402679-1.7147064-0.1013565-2.4295654-0.1819839
		c0.7190094,0.0814514,1.5314331,0.1431885,2.4453278,0.1838226
		C142.1686096,67.841156,152.6911163,65.4820862,161.4895935,62.7534142z"/>
	<path class="st8" d="M152.8692169,67.5023422c-1.7177429,0.4052505-3.5035858,0.8021164-5.3504333,1.1460037
		c0.0206299-0.0003738,0.0411835-0.002121,0.0618286-0.0025864
		C149.4034882,68.2961655,151.1658478,67.915062,152.8692169,67.5023422z"/>
	<path class="st8" d="M145.5668793,56.0101166c0.4972229-0.2768936,0.9939728-0.5537872,1.4867554-0.8252449
		c0.9200592-0.5072517,1.7600403-0.9604187,2.5350647-1.3792152c-0.77005,0.4149284-1.6039429,0.8633919-2.5175629,1.365303
		C146.5723572,55.4472084,146.0699005,55.7286148,145.5668793,56.0101166z"/>
	<path class="st8" d="M136.223465,58.4290848c-1.7049561,1.3718452-3.3148041,2.8480873-4.7435913,4.5106468
		c0.6705322-0.2376404,1.339035-0.4941711,2.005249-0.7665482c-0.6600342,0.2675858-1.3226471,0.5197868-1.9877319,0.7526321
		C132.9212952,61.2689705,134.5249634,59.7969666,136.223465,58.4290848z"/>
	<path class="st8" d="M151.9107361,47.3125305c0.0136414-0.0115204,0.026535-0.0239563,0.0401764-0.0355682
		C151.9373627,47.2885742,151.9242859,47.3010101,151.9107361,47.3125305z"/>
	<path class="st8" d="M154.2675171,44.8777122c-0.0013885,0.0000916-0.0029449,0.0001831-0.0043335,0.0003662
		c-0.5707397,0.7171593-1.1367798,1.3289032-1.7295532,1.8814926
		C153.1277771,46.2068901,153.6953888,45.5946846,154.2675171,44.8777122z"/>
	<path class="st8" d="M140.5909119,55.0148659c5.6231995-3.6465149,10.2023926-6.8979149,12.5834961-9.3702393
		c-2.3935394,2.4695587-6.9853668,5.7131271-12.5659943,9.3563271c-2.8731384,1.8576279-5.9431152,3.7292595-8.3344421,5.4406548
		C134.662262,58.733532,137.7257843,56.8665047,140.5909119,55.0148659z"/>
	<path class="st8" d="M53.2672081,105.178093c0.8032227,4.4222794,3.0511703,6.6317139,6.7421913,6.6317139
		c2.2286949,0,4.0193329-0.9665909,5.3720093-2.9046631c1.3509293-1.8626938,2.3200073-4.1106491,2.9045715-6.7421951
		c0.9866791-5.7003174,1.4430695-10.2313232,1.3702774-13.5932999c0-1.6448669-0.0368576-3.7822418-0.1089172-6.413887
		c-0.0737152-2.5209732-0.4212799-5.097229-1.0418701-7.7271194c-0.2249298-1.1565933-0.5371094-2.2257462-0.910202-3.234169
		l-9.6419754,15.7889099l-2.2545815,3.6918564l-0.6352425,1.0402145l-2.8190613,4.6166077
		C52.4524689,99.9543457,52.7913742,102.9133759,53.2672081,105.178093z"/>
	<path class="st5" d="M55.0634689,91.7154541l0.6352425-1.0402145l2.2545815-3.6918564l9.6419754-15.7889099
		c-0.4758377-1.2855988-1.0590134-2.4640274-1.7758026-3.5080261c-1.3518524-1.7169189-3.179348-2.6131134-5.4809265-2.6868286
		c-1.8635254,0.0737152-3.362709,0.8224792-4.4950714,2.2479477c-0.5116768,0.6582794-1.0050163,1.4790955-1.4799271,2.4657822
		c-0.4380531,0.9865875-0.8040504,2.0284576-1.0963326,3.125618c-0.9137039,4.7874527-1.334156,8.7154694-1.2605324,11.7842407
		c-0.035202,4.4833679,0.0460701,8.375351,0.2377319,11.7088547L55.0634689,91.7154541z"/>
	<path class="st5" d="M40.770237,107.315567c-4.1659317-5.3720093-6.2488518-11.9115829-6.2488518-19.6235886
		c0.0728874-7.0520782,2.3568649-13.3001938,6.8519363-18.7458267c4.2378998-5.4809227,9.9206161-8.2950058,17.0464058-8.4407806
		c4.4951668,0.0737152,7.8193626,1.5343857,9.9759941,4.3853302c0.6120224,0.7307968,1.1372452,1.5310669,1.5895844,2.389946
		l22.7672729-37.2826614c0,0-1.0705338,1.1415749-3.1737289,2.8785839
		c-0.6007767,0.4966583-1.2861481,1.0410461-2.0546265,1.6223869c-3.8431549,2.9029121-9.7718048,6.702755-17.6759415,9.8067245
		c-1.5808258,0.6205902-3.2406158,1.2136307-4.9786377,1.7664032c-0.868927,0.2755127-1.7575607,0.5418091-2.6654587,0.7964973
		c-2.7237854,0.7621231-5.622364,1.4195747-8.6928864,1.9280243c-3.0704308,0.5083618-6.3128014,0.8684616-9.7239838,1.0359802
		c-1.1370583,0.0561142-2.2930069,0.0913124-3.4673843,0.1030159c-1.7617073,0.0175972-3.5654297-0.0158501-5.4108047-0.1063347
		c-1.8452797-0.0904846-3.7320232-0.2387466-5.660141-0.4480972c-3.2008152,20.8053398-4.9896107,40.8895531-3.8996372,55.5917168
		c-0.003685-0.0022964-0.0072784-0.0046997-0.0109653-0.0069962c0.00424,0.0583267,0.0066357,0.1200638,0.0109653,0.178299
		c0.0011063,0.0149231,0.0016594,0.0308685,0.0027637,0.0457916c0.1761799,2.9536819,0.5608826,5.8898621,1.1484871,8.7873383
		c0.1895409,0.9194107,0.3962193,1.8355103,0.6267643,2.7462616l0.796402,2.9456711
		c-0.0033169-0.0493927-0.0019341-0.1013641-0.0051594-0.1507492l3.1012993,11.4676285l0.0187054,0.0694733l1.3338795-2.1842804
		l9.1731415-15.0195999l0.0041466-0.0067291l2.1223602-3.475769C42.6272202,109.458374,41.6465302,108.4587936,40.770237,107.315567
		z"/>
	<path class="st4" d="M93.4916687,130.1560974c-0.1332397-0.0251617-0.2621536-0.0544586-0.3953018-0.0795288
		c-2.2964172-0.4304962-4.5732117-0.884491-6.8204269-1.371109c-0.0663376-0.0146484-0.1297379-0.0317841-0.1959839-0.0464325
		c-5.3550568,3.3396759-8.1270294,8.6178741-8.2728043,15.8700867c0.0997009,5.5645905,2.2714462,9.9567413,6.5144119,13.1761627
		c4.0428314,3.2195282,8.6593475,5.1911316,13.8503876,5.9147491v4.455719H86.8291779
		c-0.848465,0-1.6600723-0.0251465-2.4330673-0.0753784c-0.7739182-0.0502167-1.4598389-0.2361603-2.0586853-0.5611572
		c-1.2982254-0.4489288-1.9464569-1.6968384-1.9464569-3.7438202h-1.8350525v14.1880035h22.3120804v-16.9585876
		c-1.7219925-0.6984558-3.1323547-1.7085419-4.2304306-3.0319214c-0.998291-1.296463-1.8098984-2.7571411-2.433075-4.380249
		c-1.0736618-3.4674835-1.585434-6.8996735-1.5352097-10.295105c-0.0502243-4.1927338,0.9481583-8.0219727,2.9950562-11.4910278
		c0.2118378-0.3827667,0.4454193-0.7366028,0.6873932-1.0791931
		C95.3966522,130.4856873,94.4356842,130.3311615,93.4916687,130.1560974z"/>
	<path class="st4" d="M129.2301788,134.3035889c-3.3118515-0.166687-6.5950394-0.3885651-9.8447876-0.6666565
		c-0.997551-0.0854187-1.9872742-0.1834564-2.9784698-0.2789154c-0.1831818-0.0179749-0.3612976-0.0431366-0.5442047-0.0610962
		c1.3795853,3.0494232,2.1128693,6.3443146,2.1128693,9.9206085c0,1.5980682-0.0502167,3.2949066-0.1499176,5.0922699
		c-0.2001343,1.7722015-0.6113815,3.5059052-1.2353821,5.2028351c-0.5745163,1.6231079-1.3978271,3.083786-2.4707489,4.380249
		c-1.1231461,1.3233795-2.5703659,2.3334656-4.3425751,3.0319214v16.9585876h22.3120728v-14.1880035h-1.8719025
		c-0.0503082,2.0469818-0.6616821,3.2948914-1.8342285,3.7438202c-1.2730637,0.4740906-2.8082733,0.6867523-4.6048126,0.6365356
		h-11.342865v-4.455719c5.3158951-0.7236176,9.9952545-2.6952209,14.0380859-5.9147491
		c4.1424408-3.2194214,6.2639618-7.6115723,6.3635712-13.1761627c-0.0796051-3.9878998-0.9655762-7.3644409-2.6062927-10.1694031
		c-0.0104218-0.0004578-0.0210114-0.0004578-0.0315247-0.000824
		C129.8744507,134.3437653,129.554245,134.3195343,129.2301788,134.3035889z"/>
	<path class="st9" d="M124.1901627,128.3562317c-5.5160294-3.1692963-11.8051529-4.7538986-18.8680954-4.7538986
		c-7.0127335,0-13.2766953,1.5846024-18.7919006,4.7538986c-0.1597748,0.093811-0.2948608,0.2060394-0.4502106,0.3027954
		c0.066246,0.0146484,0.1296463,0.0317841,0.1959839,0.0464325c2.2472153,0.486618,4.5240097,0.9406128,6.8204269,1.371109
		c0.1331482,0.0250702,0.2620621,0.0543671,0.3953018,0.0795288c0.9440155,0.1750641,1.9049835,0.3295898,2.8600616,0.4912109
		c1.9816513-2.8044968,4.9674072-4.2601013,8.9703369-4.3497543c4.5419693,0.1005249,7.8117065,1.9095993,9.8083801,5.4289474
		c0.278923,0.510025,0.4943542,1.0443726,0.7322693,1.5704193c0.1829071,0.0179596,0.3610229,0.0431213,0.5442047,0.0610962
		c0.9911957,0.095459,1.9809189,0.1934967,2.9784698,0.2789154c3.2497482,0.2780914,6.5329361,0.4999695,9.8447876,0.6666565
		c0.3240662,0.0159454,0.6442719,0.0401764,0.9688873,0.0552979c0.0105133,0.0003662,0.0211029,0.0003662,0.0315247,0.000824
		C128.8010559,131.9162292,126.8045731,129.9018707,124.1901627,128.3562317z"/>
	<path class="st9" d="M67.5952682,71.1944733c0.3730927,1.0084229,0.6852722,2.0775757,0.910202,3.234169
		c0.6205902,2.6298904,0.9681549,5.2061462,1.0418701,7.7271194c0.0720596,2.6316452,0.1089172,4.7690201,0.1089172,6.413887
		c0.0727921,3.3619766-0.3835983,7.8929825-1.3702774,13.5932999c-0.5845642,2.631546-1.5536423,4.8795013-2.9045715,6.7421951
		c-1.3526764,1.9380722-3.1433144,2.9046631-5.3720093,2.9046631c-3.691021,0-5.9389687-2.2094345-6.7421913-6.6317139
		c-0.4758339-2.2647171-0.8147392-5.2237473-1.0228004-8.8460312l-4.2438889,6.9498901l-4.3283806,7.0872726
		c3.9645958,3.4573441,9.1230164,5.2723083,15.514782,5.3886871c4.3485641-0.0737152,8.0940399-1.5360489,11.2373581-4.3853302
		c3.0695114-2.8510361,5.5361176-6.2295914,7.3996429-10.1409302h0.2193985
		c0.767189,4.2027893,1.936409,7.6550598,3.5076523,10.3603287c1.5712433,2.703598,3.5444183,4.0922165,5.9197159,4.1659317
		c1.8266678-0.0737152,3.3250198-0.6398544,4.4950714-1.7001572c1.2060776-1.0586395,2.1374664-2.4121475,2.7949142-4.0553589
		c1.2788696-3.5093079,2.0284653-7.0890198,2.2479553-10.7440186h-3.2346344
		c-0.2922821,1.3886185-0.9681549,2.613121-2.0276337,3.6717682c-1.1331863,1.2060699-2.4305801,1.8090668-3.8920822,1.8090668
		c-1.8274918,0-3.3250198-0.8575897-4.4942398-2.5762634c-1.3525848-1.5694885-2.412056-3.3250198-3.1792526-5.2614365
		l11.4558334-34.9170418H75.7953644L72.5616531,75.524147h-0.2194824c-0.2922821-2.1558075-0.748764-4.1290741-1.3701859-5.9197159
		c-0.2686005-0.8228455-0.6022568-1.5938187-0.9866791-2.3237839L67.5952682,71.1944733z"/>
	<path class="st10" d="M68.3957214,64.8907013c-2.1566315-2.8509445-5.4808273-4.311615-9.9759941-4.3853302
		c-7.1257896,0.1457748-12.808506,2.9598579-17.0464058,8.4407806c-4.4950714,5.4456329-6.7790489,11.6937485-6.8519363,18.7458267
		c0,7.7120056,2.0829201,14.2515793,6.2488518,19.6235886c0.8762932,1.1432266,1.8569832,2.142807,2.9019012,3.0536575
		l4.3283806-7.0872726l4.2438889-6.9498901c-0.1916618-3.3335037-0.272934-7.2254868-0.2377319-11.7088547
		c-0.0736237-3.0687714,0.3468285-6.996788,1.2605324-11.7842407c0.2922821-1.0971603,0.6582794-2.1390305,1.0963326-3.125618
		c0.4749107-0.9866867,0.9682503-1.8075027,1.4799271-2.4657822c1.1323624-1.4254684,2.631546-2.1742325,4.4950714-2.2479477
		c2.3015785,0.0737152,4.1290741,0.9699097,5.4809265,2.6868286c0.7167892,1.0439987,1.2999649,2.2224274,1.7758026,3.5080261
		l2.3900375-3.913826C69.5329666,66.4217682,69.0077438,65.6214981,68.3957214,64.8907013z"/>
	<path class="st4" d="M190.6923065,58.07341c-0.017868,0.005806-0.0342712,0.0145569-0.0521545,0.0203629
		C190.6580353,58.0879669,190.6744385,58.079216,190.6923065,58.07341
		C190.6923065,58.0733185,190.6923065,58.07341,190.6923065,58.07341z"/>
	<path class="st1" d="M194.9164734,20.0671387c0.0834045,0.0484676,0.1646729,0.0976734,0.2444611,0.1488132
		C195.0884247,20.1655502,195.005127,20.1161594,194.9164734,20.0671387z"/>
	<path class="st2" d="M180.3191681,16.1923828l-0.494812,0.0146503l-0.7532806,0.0486526l-0.4896545,0.0391617l-0.8048706,0.0825596
		l-0.45224,0.0593414c-0.2985535,0.0373192-0.5911102,0.0911312-0.8835754,0.1450348l-0.3239746,0.050312
		c-0.3903351,0.0744514-0.8138275,0.1609745-1.1667328,0.2556076l-0.3275757,0.0816402
		c-0.2786407,0.0714111-0.5651245,0.141901-0.8219299,0.2316494l-0.4446869,0.1318588l-0.7015839,0.2216072l-0.472702,0.1684399
		l-0.6483307,0.2436295l-0.4842072,0.1988468c-0.2167358,0.0864315-0.4256134,0.1737843-0.627594,0.2698898l-0.4692993,0.2086143
		l-0.6486969,0.315134l-0.4144592,0.21488c-0.2709961,0.143837-0.5420837,0.287674-0.8454285,0.435751l-0.4268036,0.253212
		c-0.2640839,0.1525898-0.5290985,0.3130131-0.7870941,0.4821911l-0.4138336,0.2785511l-0.5607758,0.3809242l-0.4427643,0.3229656
		l-0.5049438,0.3794498l-0.4385223,0.355217l-0.3635101,0.3957596l-0.4334412,0.3796329l-0.1943359,0.1686249
		c0.3883057-0.0189819,0.7705078-0.0351067,1.0898895-0.0430317c0.0027618-0.0000916,0.0047913-0.0000916,0.0075531-0.000185
		c0.0009155,0.0000935,0.002121,0.0000935,0.0030365,0.0000935c0.0452423-0.0012913,0.0811768-0.0011978,0.1236572-0.0020275
		c0.1429138-0.0024891,0.2620697-0.0020275,0.3606567,0.0008297c0.0595245,0.0019341,0.1283569,0.0025787,0.1692657,0.0072784
		c8.2997131,0.7076683,18.7086029,5.3834343,23.005188,10.2451496c0.1478119,0.1679764,0.2692566,0.3364182,0.4020233,0.5047646
		c0.1174011,0.147892,0.2479706,0.295784,0.3532867,0.443676c3.1451569,4.4656754-0.9359131,10.701355-6.1773529,13.6781654
		c0.404892-0.1317673,0.8132629-0.21138,1.2206421-0.2654686c0.3296967-0.043766,0.6552277-0.0443192,0.9815216-0.0398064
		c0.085968,0.0078316,0.1672363,0.0355682,0.252655,0.0467186c0.1483459,0.0075569,0.296524-0.0129929,0.4445038,0.0043297
		c2.327652,0.2725639,4.2413025,1.6886368,5.2511139,3.6197014c0.0241394,0.0468102,0.0410919,0.09832,0.0642242,0.1458664
		c0.1654053,0.3352203,0.3090515,0.6825104,0.4180603,1.044178c0.054184,0.1834602,0.0780487,0.372448,0.1165619,0.5592232
		c0.0555573,0.2621498,0.1233826,0.5204315,0.1476135,0.7913361c0.0397186,0.4668922,0.0396271,0.9377518-0.0175934,1.4056587
		c-0.0375977,0.3828583-0.13591,0.7497787-0.2353363,1.115406c-0.1038513,0.3598213-0.2308197,0.711998-0.3918915,1.0504456
		c-0.0173187,0.0376854-0.0334473,0.0757408-0.0514221,0.11306c-0.1129608,0.2267647-0.2372742,0.4482803-0.3752136,0.6622391
		c0.0178833-0.005806,0.0342865-0.0145569,0.0521545-0.0203629c7.4139252-2.4270782,13.3123627-8.0227203,16.2110291-15.2178955
		c0.0305939-0.0758362,0.0633087-0.1503792,0.0931549-0.2265854c0.1345367-0.3430519,0.2989197-0.6701622,0.4195404-1.0203133
		c-0.0013885-0.0212822,0.0010071-0.0425682,0.0072784-0.0628395c0.023407-0.2041016-0.0237732-0.4163094-0.0386047-0.6327553
		c-0.0149384-0.2165375-0.0237732-0.4164009-0.040451-0.6170883c-0.0167694-0.2007828-0.03862-0.4259834-0.0621948-0.6355209
		c-0.0236816-0.2095337-0.0412903-0.4024849-0.0657959-0.6040955c-0.0245972-0.2017059-0.0630341-0.420826-0.0945435-0.6312828
		c-0.0315094-0.2103653-0.0578613-0.3964043-0.0989685-0.5920258c-0.0411835-0.1956215-0.0786896-0.4225731-0.1189575-0.6260262
		l-0.1234741-0.5868683c-0.0480957-0.2043762-0.0961914-0.4087524-0.1521301-0.614048
		c-0.0559235-0.2052994-0.0988617-0.3851624-0.1488037-0.5738754s-0.112793-0.4026718-0.1766357-0.6088905
		c-0.0637665-0.2061234-0.1154633-0.3790817-0.1819916-0.5617104l-0.1940613-0.5949745
		c-0.0655975-0.1905556-0.1399689-0.374012-0.2133942-0.5653954l-0.221344-0.5663185l-0.2438965-0.5768242l-0.2405853-0.5366478
		c-0.12117-0.2605839-0.2432709-0.5131512-0.3731842-0.7667332c-0.1299286-0.2535801-0.2529449-0.4983158-0.3925323-0.7370605
		c-0.1396027-0.2387466-0.2157135-0.4066334-0.3284149-0.6024399l-0.2940216-0.4871674l-0.3347626-0.5475197
		c-0.1006317-0.1627274-0.2100067-0.3184509-0.3184509-0.4820061l-0.3541107-0.5179443l-0.3437958-0.4690132l-0.3802795-0.4970264
		l-0.3612976-0.4551926l-0.4057007-0.4840336l-0.3797302-0.4333534c-0.1407928-0.1593189-0.2815094-0.3187275-0.4310455-0.4711342
		l-0.3902435-0.4106865l-0.4642181-0.458971l-0.4008331-0.3881111l-0.5123138-0.4565754l-0.3895874-0.3470154
		c-0.1878815-0.164753-0.3923492-0.3234253-0.5889893-0.4812679l-0.3496857-0.2787361
		c-0.3141174-0.2428932-0.6360626-0.4867058-0.9676971-0.7156849l-0.1923981-0.1254997l-0.8199005-0.5476131
		c-0.0237732-0.0163097-0.0493927-0.0293026-0.073349-0.0446911c-0.0797882-0.0511398-0.1610565-0.1003456-0.2444611-0.1488132
		c-0.0233917-0.0136375-0.0448608-0.0277348-0.0687256-0.041832l-0.6616974-0.4021187l-0.4414673-0.2416019
		c-0.2098999-0.1116791-0.426712-0.2320194-0.6453705-0.3366947l-0.4659729-0.2364426l-0.6489716-0.3052731l-0.4930725-0.2077866
		l-0.6525574-0.2738514l-0.5027466-0.1929512l-0.6728363-0.2363491l-0.5133362-0.1703739l-0.7068329-0.2164478l-0.5090942-0.138031
		l-0.7732697-0.1923065l-0.496109-0.1126919c-0.2747803-0.0315132-0.5519409-0.1111259-0.8327026-0.159317l-0.4239655-0.0486526
		c-0.4316864-0.0496655-0.8556519-0.0983181-1.2874298-0.1479836c-0.4317017-0.0495739-0.8478241-0.0973969-1.263855-0.1452198
		l-0.4082031-0.0468998c-0.282608-0.0325279-0.5697327-0.0257092-0.8480988-0.0258942l-0.4842072-0.0079231L180.3191681,16.1923828z
		 M189.1393127,18.3433056c11.2952271,4.1454754,17.0478821,13.8181324,16.574173,25.6228237
		c-0.1603394,1.2918625-1.2415619,2.235508-2.5031891,2.2758675c-0.1145477,0.0280151-0.2309265,0.0505905-0.3501587,0.0628433
		c-0.0215607-0.0021172-0.0422974,0.0011978-0.063858-0.0014725c-0.0995941-0.0123482-0.1918335-0.0424805-0.2872009-0.0654221
		c-1.2724304-0.3064728-2.1444855-1.5141144-1.9793549-2.8436661c0.0344543-0.2998352,0.0438538-0.5880623,0.0682831-0.8832932
		c0.0339966-0.4148331,0.0772095-0.8339043,0.0918579-1.2397079c0.0051575-0.1394157-0.0032196-0.2725639-0.0003662-0.4108734
		c0.010788-0.5342522,0.016861-1.0662918-0.0055237-1.5846024c-0.0055389-0.1267891-0.023407-0.247406-0.0308685-0.3731842
		c-0.0306854-0.5168381-0.066803-1.0310936-0.1301117-1.5318069c-0.0493011-0.3874664-0.1244812-0.76194-0.193222-1.1397324
		c-0.0405426-0.224556-0.0684662-0.4556503-0.1157379-0.6767998c-1.5531769-7.2128639-6.6801758-12.5933495-14.1774902-16.0961208
		c-1.1028748-0.5193253-1.7315826-0.8069992-2.0747223-0.9568253c0.0417328,0.0222988,0.0473633,0.0251541-0.0059052-0.0025806
		c-1.4364319-0.6264896,2.3036194,1.2457905-2.5281525-1.2245979c0.0480042-0.0031319,0.083847-0.0047913,0.1308441-0.00774
		c-0.045517-0.0233116-0.0756531-0.0387001-0.1227417-0.0628414
		C184.974762,17.0693188,185.6894379,17.079916,189.1393127,18.3433056z"/>
	<path class="st2" d="M181.2367401,44.5948296c2.1552582,0.0340004,4.0301208-1.5505142,4.2814026-3.7369118
		c0.2674866-2.3282089-1.4029999-4.4324112-3.7311096-4.6999092c-2.3282013-0.2675858-4.4324188,1.4028969-4.6999969,3.7310143
		c-0.0018463,0.0157547-0.0036011,0.0316048-0.005249,0.0473633c-0.0176086,0.167057-0.0041504,0.3288612-0.0023041,0.4927864
		c0.0013733,0.1114006-0.0115204,0.2251091-0.0014801,0.3346672c0.0195312,0.2176437,0.0680084,0.4266281,0.1197815,0.6346893
		c0.0146484,0.0583267,0.018158,0.1201553,0.035202,0.1775627c0.0698547,0.2369003,0.1656799,0.462471,0.2744141,0.681221
		c0.0119781,0.0241432,0.0184174,0.0508652,0.0308685,0.0747299c0.1214447,0.2332153,0.2656403,0.4527054,0.4273529,0.6587372
		c0.0054474,0.0069122,0.0091248,0.0150223,0.0145569,0.0219307c0.1622772,0.2041931,0.3446198,0.3912468,0.5419922,0.5628166
		c0.0083923,0.0072823,0.0145721,0.0164032,0.0230408,0.0235901c0.1886292,0.1613464,0.3950195,0.3017731,0.6111908,0.4286537
		c0.0219421,0.0128098,0.0400848,0.0304108,0.0621948,0.0428467c0.1919403,0.1080856,0.3991699,0.1909256,0.6091766,0.2686958
		c0.0543671,0.0201797,0.1030121,0.0502167,0.1585693,0.0681839c0.1694641,0.0549202,0.3507996,0.0820084,0.5297394,0.1156425
		c0.1019135,0.019352,0.1973724,0.0538139,0.3020477,0.0658836c0.0051727,0.0005531,0.0100555-0.00037,0.015213,0.0001831
		c0.0056152,0.0006447,0.0105896,0.0028572,0.0162201,0.0034103c0.1099243,0.0126228,0.2158813,0.0003662,0.3246155,0.0045128
		c0.005249-0.0005493,0.0103302-0.0023956,0.0155792-0.0029449
		C181.2054138,44.5946426,181.2210846,44.5945511,181.2367401,44.5948296z M184.9825897,39.841938
		c-0.0001831,0.0012894-0.0010071,0.0023956-0.0011902,0.003685c-0.0001831,0.0014725,0.0005493,0.0026703,0.0003662,0.0041466
		c-0.0002747,0.0025787-0.0020294,0.0045128-0.0023041,0.0070953c-0.0000916-0.0011978-0.0004578-0.0022125-0.0006409-0.0033188
		c-0.1221008,1.0035439-1.0295258,1.7229118-2.0354767,1.6072731c-0.0025787-0.0002785-0.005249-0.0005531-0.0078278-0.0009232
		c-0.0312347-0.0035934-0.0552826-0.02285-0.085968-0.0279198c-0.005249,0.0006447-0.0105896,0.0007362-0.0158539,0.0013847
		c-0.0067291-0.0011978-0.0122528-0.0048866-0.0189819-0.006176c-0.6930084-0.132412-1.240448-0.6248283-1.4295197-1.272419
		c-0.0671692-0.2285194-0.0905762-0.473896-0.0616455-0.7253609c0.0003662-0.0025787,0.0006409-0.005249,0.0009155-0.0078316
		c0.1161041-1.0101776,1.029068-1.7349815,2.0392456-1.6188812
		C184.3738861,37.9187012,185.0986938,38.8317604,184.9825897,39.841938z"/>
	<path class="st6" d="M167.589447,65.8281784c1.6399841-0.3449936,3.2733307-0.7126465,4.8603363-1.0976257
		c4.543808-1.1022263,8.6842194-2.347374,11.3299561-3.6232033c-2.0307617-0.33955-3.7999268-1.5774155-4.814621-3.3689766
		c-0.5923004,0.5762711-1.2644958,1.0642662-1.9959412,1.4488754c-1.8026123,0.9683456-3.6669769,1.8169022-5.5811768,2.5402336
		c-5.5989532,2.1969948-11.3377991,4.0193291-17.1786346,5.4546623c-0.4328003,0.1142578-0.8953552,0.2123947-1.3401489,0.3201981
		c-1.7033691,0.4127197-3.4657288,0.7938232-5.2886047,1.1434174c-0.0103302,0.0019379-0.0200958,0.0042419-0.0304108,0.0061798
		c4.008728-0.0831146,8.002533-0.5157318,11.9360809-1.2928772c1.0543213-0.1771011,2.1445618-0.3689499,3.2552795-0.573967
		c0.6801147-0.1255035,1.3692627-0.257637,2.0611725-0.3926315
		C165.7274933,66.2120514,166.6583252,66.0239792,167.589447,65.8281784z"/>
	<path class="st7" d="M161.4885864,62.7457657c0.925766-0.2873955,1.8304443-0.5782051,2.7118835-0.8711281
		c0.9430084-0.3132935,1.8559723-0.6276894,2.734024-0.9408875c1.7472382-0.6232643,3.3484192-1.2384186,4.7510376-1.8219681
		c2.3075714-0.9600487,4.0796967-1.8325653,5.0385437-2.4978447c0.3018646-0.2039146,0.8553772-0.5220909,1.4807587-0.9115829
		c-0.3794556-1.9272881,0.0876312-3.9246979,1.2823639-5.4838715c-5.617569-0.2075996-8.0828857-1.9864464-10.1199188-4.3546448
		c-1.6620026-1.9322662-3.0399323-4.2556801-5.604126-6.4480705c-0.0276337-0.0237732-0.0576782-0.0388832-0.0856018-0.0617332
		c-1.5359497-1.2579536-3.4670105-1.157795-5.5158386,0.3565979c0.0182495-0.0078354,0.0372314-0.0101357,0.0554657-0.0175095
		c1.3063354-0.5272484,2.800354,0.0785065,3.3594971,1.3793068c0.3223114,0.7498703,0.2737579,1.6076431-0.1312256,2.3164139
		c-4.2012177,6.2527237-6.4300995,7.4928017-11.8567505,10.4168129c-0.7750244,0.4187965-1.6150055,0.8719635-2.5350647,1.3792152
		c-0.4927826,0.2714577-0.9895325,0.5483513-1.4867554,0.8252449c-3.910141,2.1885185-7.9446716,4.4859505-12.0817566,6.1630669
		c-0.666214,0.272377-1.3347168,0.5289078-2.005249,0.7665482c1.4287872-1.6625595,3.0386353-3.1388016,4.7435913-4.5106468
		c2.8354645-2.2835159,5.9352875-4.2765045,8.9047241-6.3527908c3.0268402-2.1175652,5.0535583-3.3003311,6.782547-4.7637634
		c0.0135498-0.0115204,0.0266266-0.0239563,0.0401764-0.0355682c0.1975555-0.1681633,0.3917999-0.3397369,0.5827179-0.5173912
		c0.5927734-0.5525894,1.1588135-1.1643333,1.7295532-1.8814926c0.6642609-0.8347321,1.3375702-1.8236237,2.0650482-3.0426941
		c0.1739655-0.2914505,0.3490448-0.5876961,0.5301056-0.9072533c0.0043335-0.0076447,0.0082855-0.0140038,0.012619-0.0216522
		c-0.912323,0.9663162-1.7217102,2.024868-2.4150085,3.1585197c-0.3010406,0.4820976-0.7330933,1.0101776-1.2815399,1.579628
		c-2.3811035,2.4723244-6.9602966,5.7237244-12.5834961,9.3702393c-2.8651276,1.8516388-5.9286499,3.7186661-8.3169403,5.4267426
		c-4.6762238,3.3442841-6.7568436,6.0773735,0.3560486,6.8793068c0.714859,0.0806274,1.5223083,0.141716,2.4295654,0.1819839
		C142.1568146,67.8395004,152.687149,65.4776611,161.4885864,62.7457657z"/>
	<path class="st2" d="M179.7303772,53.7779236c-0.3283081,2.8570213,1.7217102,5.4393654,4.5787354,5.7676735
		c0.0026703,0.0002785,0.005249,0.0005531,0.0079193,0.0009232c0.1889038,0.0217438,0.371994,0.0064507,0.5579376,0.0078316
		c0.0013885-0.0001831,0.0026703-0.0006447,0.0040588-0.0008278c0.0030365,0,0.006073,0.0001831,0.0090332,0.0001831
		c2.61763,0.0085678,4.8829956-1.9261818,5.1888123-4.5868492c0.3283234-2.8571167-1.7217102-5.4393654-4.5787354-5.767765
		C182.6410217,48.8707809,180.0586853,50.9208069,179.7303772,53.7779236z M187.453537,57.5844002
		c-1.7723999,1.4032631-4.3461761,1.1074829-5.7541351-0.6612282c-0.1754456-0.2212372-0.3243408-0.4550972-0.4470825-0.6976242
		c-0.0584259-0.1153641-0.0915833-0.2378235-0.1382141-0.3566895c-0.0514221-0.1311188-0.1149902-0.2591095-0.1522217-0.393364
		c-0.036026-0.1301079-0.0464478-0.2634392-0.0692902-0.3954811c-0.0221252-0.1279907-0.0572205-0.2544098-0.0670929-0.3832283
		c-0.0098572-0.1284485,0.0049896-0.2563477,0.0072937-0.3847961c0.0023041-0.1336098-0.0074768-0.2676773,0.0078278-0.4002724
		c0.0135498-0.1169319,0.0501251-0.2297173,0.0735321-0.3451729c0.0287476-0.1413498,0.0467987-0.2847252,0.0903931-0.4226646
		c0.0376892-0.1193275,0.0988617-0.2308235,0.147522-0.3467407c0.0534363-0.1272507,0.0955505-0.2584648,0.1621704-0.3804626
		c0.0644073-0.1178513,0.1524048-0.2236328,0.2288818-0.3355904c0.0749207-0.1097412,0.138031-0.2255669,0.2245636-0.3286781
		c0.0869751-0.1036606,0.1970978-0.1915665,0.2955933-0.287674c0.098877-0.0963821,0.186142-0.2009659,0.2966156-0.2887802
		c0.0006409-0.0004616,0.001297-0.0007362,0.0019379-0.0011978c0.0007324-0.0005531,0.0010986-0.0012894,0.0018463-0.0018425
		c0.114624-0.0909462,0.2406769-0.1549873,0.3614807-0.2316513c0.1118622-0.0709496,0.2181854-0.1554451,0.3344727-0.214325
		c0.1326904-0.0671768,0.2728424-0.1077194,0.4100494-0.1593208c0.1136169-0.0427551,0.2236328-0.0993309,0.3396454-0.1315804
		c0.1366425-0.0379639,0.2769775-0.0498505,0.4158478-0.0732536c1.4217834-0.2394829,2.9252014,0.2619667,3.8858032,1.4705276
		C189.5175629,53.6029396,189.2232513,56.1778183,187.453537,57.5844002z"/>
	<path class="st4" d="M188.1109772,51.8333092c-0.9606018-1.2085609-2.4640198-1.7100105-3.8858032-1.4705276
		c-0.1388702,0.0234032-0.2792053,0.0352898-0.4158478,0.0732536c-0.1160126,0.0322495-0.2260284,0.0888252-0.3396454,0.1315804
		c-0.137207,0.0516014-0.277359,0.092144-0.4100494,0.1593208c-0.1162872,0.0588799-0.2226105,0.1433754-0.3344727,0.214325
		c-0.1208038,0.076664-0.2468567,0.1407051-0.3614807,0.2316513c-0.0007477,0.0005531-0.0011139,0.0012894-0.0018463,0.0018425
		c-0.0006409,0.0004616-0.001297,0.0007362-0.0019379,0.0011978c-0.1104736,0.0878143-0.1977386,0.1923981-0.2966156,0.2887802
		c-0.0984955,0.0961075-0.2086182,0.1840134-0.2955933,0.287674c-0.0865326,0.1031113-0.1496429,0.2189369-0.2245636,0.3286781
		c-0.0764771,0.1119576-0.1644745,0.2177391-0.2288818,0.3355904c-0.0666199,0.1219978-0.1087341,0.253212-0.1621704,0.3804626
		c-0.0486603,0.1159172-0.1098328,0.2274132-0.147522,0.3467407c-0.0435944,0.1379395-0.0616455,0.2813148-0.0903931,0.4226646
		c-0.023407,0.1154556-0.0599823,0.228241-0.0735321,0.3451729c-0.0153046,0.1325951-0.0055237,0.2666626-0.0078278,0.4002724
		c-0.0023041,0.1284485-0.0171509,0.2563477-0.0072937,0.3847961c0.0098724,0.1288185,0.0449677,0.2552376,0.0670929,0.3832283
		c0.0228424,0.1320419,0.0332642,0.2653732,0.0692902,0.3954811c0.0372314,0.1342545,0.1007996,0.2622452,0.1522217,0.393364
		c0.0466309,0.118866,0.0797882,0.2413254,0.1382141,0.3566895c0.1227417,0.242527,0.271637,0.476387,0.4470825,0.6976242
		c1.407959,1.7687111,3.9817352,2.0644913,5.7541351,0.6612282
		C189.2232513,56.1778183,189.5175629,53.6029396,188.1109772,51.8333092z M184.6306,57.62817
		c-0.0371246,0.0028534-0.0739899,0.0058022-0.1111145,0.0074615c-0.03862-0.0047913-0.0741882-0.0240479-0.1126099-0.0302238
		c-0.24823-0.0372238-0.4918671-0.1007118-0.7279358-0.1948853c-0.0482788-0.0198097-0.0932465-0.0442276-0.1406097-0.066433
		c-0.2703552-0.122921-0.5314026-0.2731171-0.7671967-0.472702l5.032547-3.9951897
		c0.7131042,1.3910103,0.3480377,3.0917168-0.8730621,4.067524C186.2591553,57.4732742,185.4353027,57.693222,184.6306,57.62817z
		 M181.866745,55.5606384c-0.0662537-0.1707458-0.1174927-0.3433304-0.1538849-0.518959
		c-0.0100403-0.0480995-0.0229492-0.0943565-0.030777-0.1427307c-0.0442352-0.2743149-0.051239-0.5491791-0.0260773-0.8222046
		c0.0048828-0.0521507,0.0124359-0.1022797,0.0197144-0.1541557c0.0391693-0.2793808,0.1066132-0.5534172,0.2157135-0.8144608
		c0.0093994-0.0223923,0.0225677-0.0426636,0.0325317-0.0649643c0.119873-0.2697983,0.2753143-0.5245781,0.4674377-0.7570572
		c0.0064545-0.0078316,0.0090332-0.0175056,0.0155792-0.0252457c0.0032196-0.0038719,0.00737-0.0064507,0.0105896-0.0102272
		c0.1348114-0.1586723,0.282608-0.3086853,0.4503174-0.4426613c0.1712952-0.1361923,0.3542023-0.2478676,0.5428162-0.3449898
		c0.0311432-0.0160332,0.0639496-0.0265388,0.095459-0.0414658c0.152771-0.0725174,0.308136-0.1349907,0.4679108-0.1825371
		c0.0495758-0.0147438,0.099884-0.0239563,0.1500092-0.036396c0.1451263-0.0358429,0.2904358-0.0637627,0.4382477-0.0794296
		c0.8596954-0.0922356,1.7533112,0.1472473,2.4658661,0.7493172l-5.0333862,4.0029297
		c-0.0539856-0.1051369-0.0691986-0.2196693-0.1110229-0.3283081L181.866745,55.5606384z"/>
	<path class="st2" d="M187.0281982,51.8724709c-0.7125549-0.6020699-1.6061707-0.8415527-2.4658661-0.7493172
		c-0.1478119,0.015667-0.2931213,0.0435867-0.4382477,0.0794296c-0.0501251,0.0124397-0.1004333,0.0216522-0.1500092,0.036396
		c-0.1597748,0.0475464-0.3151398,0.1100197-0.4679108,0.1825371c-0.0315094,0.0149269-0.0643158,0.0254326-0.095459,0.0414658
		c-0.1886139,0.0971222-0.371521,0.2087975-0.5428162,0.3449898c-0.1677094,0.133976-0.315506,0.283989-0.4503174,0.4426613
		c-0.0032196,0.0037766-0.00737,0.0063553-0.0105896,0.0102272c-0.006546,0.00774-0.0091248,0.0174141-0.0155792,0.0252457
		c-0.1921234,0.2324791-0.3475647,0.4872589-0.4674377,0.7570572c-0.009964,0.0223007-0.0231323,0.042572-0.0325317,0.0649643
		c-0.1091003,0.2610435-0.1765442,0.53508-0.2157135,0.8144608c-0.0072784,0.0518761-0.0148315,0.102005-0.0197144,0.1541557
		c-0.0251617,0.2730255-0.018158,0.5478897,0.0260773,0.8222046c0.0078278,0.0483742,0.0207367,0.0946312,0.030777,0.1427307
		c0.0363922,0.1756287,0.0876312,0.3482132,0.1538849,0.518959l0.0170441-0.013546
		c0.0418243,0.1086388,0.0570374,0.2231712,0.1110229,0.3283081L187.0281982,51.8724709z"/>
	<path class="st2" d="M186.9306183,56.9437218c1.2210999-0.9758072,1.5861664-2.6765137,0.8730621-4.067524l-5.032547,3.9951897
		c0.2357941,0.199585,0.4968414,0.349781,0.7671967,0.472702c0.0473633,0.0222054,0.0923309,0.0466232,0.1406097,0.066433
		c0.2360687,0.0941734,0.4797058,0.1576614,0.7279358,0.1948853c0.0384216,0.006176,0.0739899,0.0254326,0.1126099,0.0302238
		c0.0371246-0.0016594,0.0739899-0.0046082,0.1111145-0.0074615
		C185.4353027,57.693222,186.2591553,57.4732742,186.9306183,56.9437218z"/>
	<path class="st4" d="M183.3637085,37.8026924c-1.0101776-0.1161003-1.9231415,0.6087036-2.0392456,1.6188812
		c-0.0002747,0.0025826-0.0005493,0.0052528-0.0009155,0.0078316c-0.0289307,0.2514648-0.0055237,0.4968414,0.0616455,0.7253609
		c0.1890717,0.6475906,0.7365112,1.140007,1.4295197,1.272419c0.0053558-0.0005531,0.0106049-0.0006447,0.0158539-0.0012894
		c0.0067291,0.0011978,0.0122528,0.0049744,0.0189819,0.0060806c0.0306854,0.0050697,0.0547333,0.0243263,0.085968,0.0279198
		c0.0025787,0.00037,0.005249,0.0006447,0.0078278,0.0009232c1.0059509,0.1156387,1.9133759-0.6037292,2.0354767-1.6072731
		c0.0003662-0.0029488,0.0023041-0.0049744,0.0025787-0.0079231c0.0001831-0.0012894,0.0010071-0.0023956,0.0011902-0.003685
		C185.0986938,38.8317604,184.3738861,37.9187012,183.3637085,37.8026924z"/>
	<path class="st11" d="M181.4358673,17.2035732c0.0470886,0.0241413,0.0772247,0.0395298,0.1227417,0.0628414
		c-0.0469971,0.0029488-0.08284,0.0046082-0.1308441,0.00774c4.8317719,2.4703884,1.0917206,0.5981083,2.5281525,1.2245979
		c0.0532684,0.0277348,0.0476379,0.0248795,0.0059052,0.0025806c0.3431396,0.149826,0.9718475,0.4375,2.0747223,0.9568253
		c7.4973145,3.5027714,12.6243134,8.8832569,14.1774902,16.0961208c0.0472717,0.2211494,0.0751953,0.4522438,0.1157379,0.6767998
		c0.0687408,0.3777924,0.1439209,0.7522659,0.193222,1.1397324c0.0633087,0.5007133,0.0994263,1.0149689,0.1301117,1.5318069
		c0.0074615,0.1257782,0.0253296,0.2463951,0.0308685,0.3731842c0.0223846,0.5183105,0.0163116,1.0503502,0.0055237,1.5846024
		c-0.0028534,0.1383095,0.0055237,0.2714577,0.0003662,0.4108734c-0.0146484,0.4058037-0.0578613,0.8248749-0.0918579,1.2397079
		c-0.0244293,0.2952309-0.0338287,0.5834579-0.0682831,0.8832932c-0.1651306,1.3295517,0.7069244,2.5371933,1.9793549,2.8436661
		c0.1210785,0.0043297,0.2414093,0.0081978,0.3591766-0.0037804c0.1153564,0.0115204,0.2290649,0.011425,0.342041,0.0078316
		c1.2616272-0.0403595,2.3428497-0.984005,2.5031891-2.2758675c0.4737091-11.8046913-5.2789459-21.4773483-16.574173-25.6228237
		C185.6894379,17.079916,184.974762,17.0693188,181.4358673,17.2035732z"/>
	<path class="st5" d="M156.34021,41.8336334c-0.7305298,1.220726-1.4059448,2.2085152-2.0726929,3.0440788
		c-0.5721283,0.7169724-1.13974,1.3291779-1.7338867,1.8818588c-0.190918,0.1776543-0.3851624,0.3492279-0.5827179,0.5173912
		c-0.0136414,0.0116119-0.026535,0.0240479-0.0401764,0.0355682c-1.7289886,1.4634323-3.7557068,2.6461983-6.782547,4.7637634
		c-2.9694366,2.0762863-6.0692596,4.0692749-8.9047241,6.3527908c-1.6985016,1.3678818-3.3021698,2.8398857-4.7260742,4.4967308
		c0.6650848-0.2328453,1.3276978-0.4850464,1.9877319-0.7526321c4.137085-1.6771164,8.1716156-3.9745483,12.0817566-6.1630669
		c0.5030212-0.2815018,1.0054779-0.5629082,1.5042572-0.8391571c0.91362-0.5019112,1.7475128-0.9503746,2.5175629-1.365303
		c5.426651-2.9240112,7.6555328-4.1640892,11.8567505-10.4168129c0.6645508-1.2776718,0.1675262-2.8521385-1.1101532-3.5165901
		c-1.0180054-0.5294609-2.228775-0.3160553-3.0172577,0.4524269c-0.1501007,0.1462326-0.2901611,0.3053665-0.4048767,0.4912224
		l-0.0008392,0.0069084l-0.0046082,0.0401764C156.7135773,41.2056694,156.526062,41.5230141,156.34021,41.8336334z"/>
</g>
</svg>
