<svg xmlns="http://www.w3.org/2000/svg" viewBox="0 0 675 1000"><defs><style>.cls-1{fill:none;}.cls-2{fill:#6897b8;}.cls-3{fill:#f9c37a;}.cls-4{fill:#a2c9d2;}.cls-5{fill:#fde6ad;}.cls-6{fill:#0c3455;}.cls-7{fill:#fde8ad;}.cls-8{fill:#d2e5ea;}.cls-9{fill:#fff;}.cls-10{fill:#fff4d0;}.cls-11{opacity:0.18;}</style></defs><g id="Layer_9" data-name="Layer 9"><rect class="cls-1" x="231.9" y="807.56" width="23.6" height="26.57"/><path class="cls-1" d="M419.52,657.36c-.68-3.62-1.57-7.19-2.33-10.78-1.09-5.16-1.85-10.76,1.78-15.16a11,11,0,0,1,2.44-2.19c-2.17-8.3-4.44-16.58-6.74-24.85q-3.1-11.16-6.31-22.28a267.23,267.23,0,0,1-26.75-14.9l-.77-.49-1.15-.77a122.61,122.61,0,0,1-23.86-20.24h-.49a113.7,113.7,0,0,1-25.84-3.09c-.87,4.92-4.16,9-8.27,11.83l11.83,48.9a32.46,32.46,0,0,1,2.88,2.09c8.45,6.83,12.48,17.74,14.43,28.11a113.69,113.69,0,0,1,1.8,18,121.89,121.89,0,0,1-.72,17.3.19.19,0,0,0,0,.07h59.63a18.11,18.11,0,0,1,6.34-8.9C418.07,659.12,418.78,658.22,419.52,657.36Z"/><path class="cls-1" d="M200.3,972.56a4.47,4.47,0,0,0-3.61-1.41h-5.22v10.58h5a4.85,4.85,0,0,0,3.79-1.36,5.58,5.58,0,0,0,1.22-3.85A6,6,0,0,0,200.3,972.56Z"/><path class="cls-1" d="M368.57,972.56a4.47,4.47,0,0,0-3.61-1.41h-5.22v10.58h5a4.85,4.85,0,0,0,3.79-1.36,5.58,5.58,0,0,0,1.22-3.85A6,6,0,0,0,368.57,972.56Z"/><path class="cls-1" d="M141.22,879.14h15.59q8,0,8-8.34V810.09l-23.6.43Z"/><path class="cls-1" d="M474.1,970.82a5.18,5.18,0,0,0-4.39,2,9.59,9.59,0,0,0-1.52,5.88v8.22a9.7,9.7,0,0,0,1.53,5.93,5.16,5.16,0,0,0,4.38,2,5.41,5.41,0,0,0,4.5-2q1.57-2,1.57-5.94v-8.22a9.32,9.32,0,0,0-1.59-5.88A5.37,5.37,0,0,0,474.1,970.82Z"/><path class="cls-1" d="M20.69,970.82a5.18,5.18,0,0,0-4.39,2,9.66,9.66,0,0,0-1.52,5.88v8.22a9.7,9.7,0,0,0,1.53,5.93,5.18,5.18,0,0,0,4.38,2,5.38,5.38,0,0,0,4.5-2q1.57-2,1.57-5.94v-8.22a9.32,9.32,0,0,0-1.58-5.88A5.4,5.4,0,0,0,20.69,970.82Z"/><rect class="cls-1" x="35.82" y="750.25" width="35.24" height="127.69"/><path class="cls-1" d="M45.83,971.13H40.09v11.66h5.74a4.24,4.24,0,0,0,3.63-1.65A6.74,6.74,0,0,0,50.69,977a6.93,6.93,0,0,0-1.22-4.21A4.22,4.22,0,0,0,45.83,971.13Z"/><path class="cls-1" d="M147.85,970.82a5.18,5.18,0,0,0-4.39,2,9.66,9.66,0,0,0-1.52,5.88v8.22a9.7,9.7,0,0,0,1.53,5.93,5.17,5.17,0,0,0,4.38,2,5.38,5.38,0,0,0,4.5-2q1.58-2,1.57-5.94v-8.22a9.39,9.39,0,0,0-1.58-5.88A5.4,5.4,0,0,0,147.85,970.82Z"/><polygon class="cls-1" points="572.11 973.92 568.28 986.89 576.03 986.89 572.23 973.92 572.11 973.92"/><path class="cls-1" d="M547.72,971.13h-4v23.4h4a5.81,5.81,0,0,0,5-2.67,12,12,0,0,0,1.85-6.93v-4.27a11.83,11.83,0,0,0-1.85-6.87A5.82,5.82,0,0,0,547.72,971.13Z"/><path class="cls-1" d="M625.24,970.82a5.18,5.18,0,0,0-4.38,2,9.59,9.59,0,0,0-1.53,5.88v8.22a9.69,9.69,0,0,0,1.54,5.93,5.15,5.15,0,0,0,4.37,2,5.38,5.38,0,0,0,4.5-2,9.5,9.5,0,0,0,1.58-5.94v-8.22a9.32,9.32,0,0,0-1.59-5.88A5.39,5.39,0,0,0,625.24,970.82Z"/><path class="cls-2" d="M188,437.7a21.41,21.41,0,0,0-2.46-.35c-4.33-.33-4.74,1.89-2.74,5.56a58.32,58.32,0,0,1,12.67,5.22C192.93,444.69,190.42,441.21,188,437.7Z"/><path class="cls-2" d="M206.78,462.92,204,460.81c-8.87-6.76-20.28-13.1-29.58-13.1-13.56,0,13.49,21.32,31.76,34.75a7.18,7.18,0,0,1,.58-.89c-1.44-5.56-.21-11.22,3.24-14.62C208.89,465.61,207.84,464.27,206.78,462.92Z"/><path class="cls-3" d="M295.59,557.89Z"/><path class="cls-3" d="M306.23,593.89q-.86-2.92-1.83-6.21Q305.38,591,306.23,593.89Z"/><path class="cls-3" d="M314.49,601.8l-.11,0a19.5,19.5,0,0,1,10.07-.12l-11-45.54A36.79,36.79,0,0,1,301,558.27h.58Z"/><path class="cls-3" d="M309.27,604.14l.05,0-.06,0Z"/><path class="cls-4" d="M320.44,544.28l-1.28.65a39,39,0,0,1-17,3.84,41,41,0,0,1-5.2-.33,45.43,45.43,0,0,1-15.9-5.2c2.39,5.21,10.41,9,20,9C309.94,552.28,317.51,549,320.44,544.28Z"/><path class="cls-2" d="M254,495a.13.13,0,0,0,0,.06c.16.18.34.35.5.53Z"/><path class="cls-2" d="M278.91,522.58c1,1.57,2.15,3.08,3.3,4.52s2.56,3,3.93,4.42c.75.78,1.53,1.53,2.32,2.25a48.28,48.28,0,0,0,13.9,9,32.88,32.88,0,0,0,17.35-5,147.18,147.18,0,0,1-28-12.46,149.06,149.06,0,0,1-19.91-13.49c.66.53,1.31,1.09,2,1.61A69.13,69.13,0,0,0,278.91,522.58Z"/><path class="cls-4" d="M173.87,402.72c-.58-1.21-1.15-2.41-1.68-3.59C172.72,400.31,173.29,401.51,173.87,402.72Z"/><path class="cls-4" d="M219.24,451.56a8.78,8.78,0,0,0,2.68.14,16.25,16.25,0,0,0,4.53-1.18c-.44-.83-.86-1.66-1.28-2.48q-1.42-2.84-2.87-5.66s0,0,0,0l-.72-1.42c-.81-1.61-2.16-3.93-2.27-5.72a11.73,11.73,0,0,1,2.26-7.16c1.8-2.63,4.59-4.69,7.58-5a167.13,167.13,0,0,1-2.3-20.16c-.18-3.23-.26-6.43-.27-9.61a50.57,50.57,0,0,0-4.11-9.88,5.9,5.9,0,0,1-1.56-2.55c-3.6-5.31-8.61-9.37-16.24-12.82-8.19-3.7-14.61-3.94-23.33-4.78l8.23-2.22a27.36,27.36,0,0,1,2.9-.18h-.09l4.48-7.35c4.85-8,28.25-31.93,49.56-51-.23.33-.44.67-.66,1,1.9-2.86,3.89-5.65,6-8.34,4.7-6,13.64-11.35,23.64-15.25-25.2,19.62-42.7,52-47.91,90.2,13.19,5.41,21.91,6.51,24.83,6.66l23.56-25.61,41.17,3.6a351.25,351.25,0,0,1,9.48-49.65,7.76,7.76,0,0,1,3.76-4.87,7.92,7.92,0,0,1,.85-.38,87.89,87.89,0,0,1-30.31-5.71c-9.12-3.63-18.64-9.92-21.6-19.84-.21-.7-.37-1.41-.51-2.13-30.73,8.07-74.65,44.89-93,68.59-9.08,11.74-15.45,18.56-18.5,25.24,6.36,23.52,25.73,56,39.45,73.43C212.17,446.48,216.77,451,219.24,451.56Zm45.37-133.38c.82-1.61,1.63-3.23,2.41-4.86-1.72-.74-3.42-1.52-5.09-2.32-.83,1.6-1.69,3.19-2.56,4.77l-1.69-.83c-7.26,15.79-13,31.06-14.47,52a6.25,6.25,0,0,1-12.46-1c3.32-23,17.05-55.86,32.89-72.71l7.14-6.24c-2.55,5.73-5.09,11.06-7.55,16.2.7.35,1.4.7,2.11,1-.81,1.67-1.64,3.34-2.49,5,1.66.8,3.34,1.56,5,2.3.8-1.69,1.57-3.38,2.33-5.08l2.44,1q-2.55,6-5.44,11.83Zm38.73-1.95q-.58,2.61-1.25,5.2l1.24.22q2.54-2.29,4.92-4.65c1.14.16,2.3.31,3.45.44-1.95,1.82-4,3.59-6.05,5.33,1.22,2.54,2.47,5.07,3.77,7.59-1.24-.15-2.46-.32-3.69-.49q-1.34-3-2.61-5.95l-1.6-.28q-.69,2.66-1.44,5.3c-1-.18-2-.37-3-.57q1.9-6.3,3.46-12.64C301.49,315.91,302.41,316.07,303.34,316.23Zm-16.12-3.71,2.64.74q1.35,5,2.85,9.9h.07q1.35-4.28,2.53-8.55l2.7.59q-1.63,6.32-3.63,12.59c-1-.21-1.93-.43-2.89-.66q-1.49-5-2.83-9.94h-.05q-1.39,4.23-2.95,8.44c-1-.26-1.89-.53-2.83-.81Q285.2,318.71,287.22,312.52ZM279.86,310a5.6,5.6,0,0,1,3.35,2.76,5.09,5.09,0,0,1,.2,4.21c-.27.74-.54,1.47-.82,2.21a5.38,5.38,0,0,1-3,3.2,6.33,6.33,0,0,1-4.75.05,5.45,5.45,0,0,1-3.39-2.93,4.92,4.92,0,0,1,.14-4.2l.95-2.15a5.69,5.69,0,0,1,7.35-3.15ZM179.5,359.1a3.76,3.76,0,0,1-2-4.94c13.44-21.79,41.38-46.71,63.23-60.35,5-3.14,3.86-2.41,9.09-4.5C226.74,310,200,329.73,184.43,357.14A3.75,3.75,0,0,1,179.5,359.1Z"/><path class="cls-4" d="M246.69,486.12l.63.84,0,0c-.22-.28-.45-.55-.67-.84Z"/><path class="cls-4" d="M221.09,371l.34.27c.12-.93.24-1.86.37-2.79-.13.92-.27,1.84-.39,2.76Z"/><path class="cls-4" d="M228.4,454.4c.54,1.1,1.07,2.19,1.55,3.28C229.47,456.59,228.94,455.5,228.4,454.4Z"/><path class="cls-4" d="M242.29,480c-.79-1.16-1.56-2.34-2.31-3.52.42.65.82,1.32,1.25,2S241.94,479.43,242.29,480Z"/><path class="cls-4" d="M231.48,461c-.52-1.09-1-2.19-1.53-3.3.23.52.46,1.05.7,1.57S231.21,460.4,231.48,461Z"/><path class="cls-4" d="M232.31,479.09c0,.19.05.38.07.57,0-.09,0-.19,0-.29A2.74,2.74,0,0,0,232.31,479.09Z"/><path class="cls-4" d="M233.74,465.54c-.28-.54-.58-1.08-.86-1.63.42.85.87,1.68,1.31,2.51Z"/><path class="cls-4" d="M235,467.88c-.07-.14-.15-.27-.23-.41.33.61.65,1.24,1,1.85C235.47,468.85,235.23,468.36,235,467.88Z"/><path class="cls-4" d="M237.25,471.91c-.08-.12-.15-.25-.23-.38-.17-.3-.36-.61-.54-.92q1.14,2,2.35,4C238.28,473.71,237.77,472.81,237.25,471.91Z"/><path class="cls-4" d="M223.89,494.15h0l0,0Z"/><path class="cls-4" d="M226.24,493.22l.18-.1a8.52,8.52,0,0,1-1,.47l.14,0C225.81,493.44,226,493.34,226.24,493.22Z"/><path class="cls-4" d="M217.78,463.91h.38C218,463.9,217.9,463.91,217.78,463.91Z"/><path class="cls-4" d="M215.38,464.09l.19,0a1.2,1.2,0,0,0-.2,0Z"/><path class="cls-4" d="M225.51,433.38c2.42,4.29,8.2,9.33,16.11,13.82a157.58,157.58,0,0,0,20.4,9.45c17.56,6.28,38.24,8.84,59.26,8.85q-.54-2.64-1-5.28c-33-.41-65.44-7.29-86.74-25.5-.87-.73-1.94-4.78-2.9-5.39C228.82,428.18,226.29,431.05,225.51,433.38Z"/><path class="cls-4" d="M242.65,469.29q-1.52-2.57-2.93-5.22Q241.13,466.73,242.65,469.29Z"/><path class="cls-4" d="M247,470.8c1.82,1.61,3.68,3.16,5.56,4.66L254,476.6c2,1.56,4,3,6.1,4.5,22.5,15.72,48.31,24.5,71.56,24.5h.72A237.86,237.86,0,0,1,324,477.76c-.56-2.31-1.08-4.63-1.59-7-32.87,0-65.48-6-87.8-22.73-5.55-4.15-5.47-5.54-1.76,1.88,1.19,2.37,2.17,4.35,2.59,5.32,1.27,2.89,2.65,5.7,4.12,8.47q2.82,2.86,5.79,5.56Z"/><path class="cls-4" d="M228.16,374.69c-.39-.14-.79-.3-1.19-.46h0l.54.22Z"/><polygon class="cls-4" points="262.59 376.5 254.39 385.82 276.7 360.47 272.95 364.73 262.59 376.5"/><path class="cls-4" d="M316.68,357.67c0-.1,0-.21,0-.32l-16.05-1.3,16,1.3Z"/><path class="cls-4" d="M316.05,363.91l-39.35-3.44,39.38,3.45c.17-1.76.31-3.53.5-5.29C316.39,360.39,316.21,362.15,316.05,363.91Z"/><path class="cls-4" d="M275.62,320.56a3,3,0,0,0,2.55-.16,3.93,3.93,0,0,0,1.72-2.1c.29-.73.58-1.47.86-2.21a3.71,3.71,0,0,0,.12-2.59,2.62,2.62,0,0,0-1.73-1.62,2.7,2.7,0,0,0-2.39.18,4.11,4.11,0,0,0-1.67,2l-.93,2.18a3.75,3.75,0,0,0-.26,2.61A2.58,2.58,0,0,0,275.62,320.56Z"/><path class="cls-4" d="M252.5,379.18l.28,0Z"/><path class="cls-4" d="M252.85,379.15l.13,0Z"/><path class="cls-4" d="M372.49,282.92c14.85-11.27,8.34-30.93-6.15-29.88-.51,0,.11,5.35-1.45,8.79-3.83,8.42-19.58,10.63-31.3,10.21-14.56-.52-27.47-5.5-32.79-10.16,10.75,12.1,48.8,14.55,61.81,5.34l1.45-1c-7.23,16.07-74.38,16.11-72.51-13.43a3.26,3.26,0,0,1,3.75-2.67,3.19,3.19,0,0,1,2.25,1.56,9.79,9.79,0,0,1,1.3-4.52c-11.52,1.9-13.63,9.29-14.48,19.86C282.27,293.31,345.18,303.65,372.49,282.92Zm-1.7-14.23a3.86,3.86,0,1,1-4,3.74A3.86,3.86,0,0,1,370.79,268.69Zm-13.68,7.87a3.86,3.86,0,1,1-4,3.74A3.86,3.86,0,0,1,357.11,276.56Zm-16.75,3.54a3.86,3.86,0,1,1-4,3.74A3.85,3.85,0,0,1,340.36,280.1Zm-18.05-1.36a3.86,3.86,0,1,1-4,3.74A3.86,3.86,0,0,1,322.31,278.74Zm-16.19-5.13a3.86,3.86,0,1,1-4,3.75A3.86,3.86,0,0,1,306.12,273.61Zm-12.9-8.13a3.86,3.86,0,1,1-4,3.74A3.86,3.86,0,0,1,293.22,265.48Z"/><path class="cls-2" d="M427.61,77.91a67.64,67.64,0,0,0-.73-9.92,68.17,68.17,0,0,1-38.27,47.34,17.83,17.83,0,0,1-4.52,5.74s0,0,0,.06c-2.6,6.45-12.91,11.53-18.86,14.34-6.84,3.22-14,6-21.24,8.64a68,68,0,0,0,83.64-66.2Z"/><path class="cls-4" d="M426.88,68v0l0-.14c-.08-.56-.18-1.12-.28-1.68s-.17-1-.27-1.52-.24-1.11-.36-1.66-.22-1-.35-1.49-.28-1.09-.43-1.63-.27-1-.42-1.46-.32-1.07-.5-1.6l-.48-1.44-.57-1.56c-.18-.47-.37-.94-.56-1.41s-.41-1-.63-1.53l-.63-1.38c-.23-.49-.45-1-.69-1.48s-.47-.91-.7-1.36-.49-1-.75-1.43-.52-.91-.79-1.37-.51-.9-.78-1.34c-.36-.59-.73-1.16-1.11-1.73s-.87-1.31-1.32-1.95c-.34-.47-.66-1-1-1.41s-.6-.79-.91-1.18-.67-.87-1-1.29-.65-.77-1-1.15l-1.07-1.23c-.33-.37-.68-.74-1-1.1s-.74-.79-1.12-1.18l-1.06-1.06c-.39-.38-.79-.75-1.19-1.12s-.73-.68-1.1-1-.83-.73-1.25-1.09l-1.12-.94c-.44-.36-.89-.7-1.34-1l-1.13-.86c-.48-.36-1-.69-1.45-1l-1.11-.77c-.55-.37-1.11-.72-1.67-1.07-.32-.21-.64-.42-1-.62-.89-.54-1.79-1.06-2.7-1.55l-.5-.26c-.76-.41-1.53-.8-2.31-1.18l-1.05-.49-1.83-.83-1.21-.49c-.58-.23-1.16-.47-1.75-.69-.42-.16-.85-.3-1.28-.45-.58-.21-1.16-.41-1.75-.59s-.88-.28-1.33-.41-1.17-.34-1.76-.5l-1.36-.35-1.8-.42-1.37-.29c-.62-.12-1.24-.22-1.87-.33l-1.35-.22-2-.25-1.29-.15c-.73-.07-1.47-.12-2.21-.17-.37,0-.73-.06-1.1-.07-1.11-.06-2.23-.09-3.35-.09s-2.2,0-3.29.08l-1.07.08c-.73,0-1.46.09-2.19.16l-1.24.14c-.66.07-1.32.15-2,.25l-1.27.2c-.65.1-1.29.22-1.93.34l-1.24.25c-.66.14-1.31.29-2,.45l-1.14.28q-1.12.3-2.22.63c-.27.08-.54.15-.81.24-1,.31-2,.64-2.95,1l-.81.32c-.7.26-1.4.53-2.09.82l-1.11.49c-.58.25-1.15.51-1.72.78-.4.18-.79.38-1.18.57l-1.6.82-1.18.64c-.52.28-1,.58-1.54.88l-1.13.68c-.53.33-1.05.66-1.56,1l-1,.67c-.66.45-1.3.91-1.93,1.38-.35.25-.69.51-1,.77-.63.48-1.26,1-1.87,1.47l-1,.85-1.31,1.13-1.05,1L312,29.33l-1.05,1.05c-.36.38-.73.76-1.08,1.14l-1,1.11-.45.5c1.86-.31,3.74-.61,4.44-.63,23-.67,53.5,9.52,64.5,21.84,9.39,10.54.74,27.79-11.85,37h0a17.67,17.67,0,0,1,23.09,24A68.17,68.17,0,0,0,426.88,68ZM365.36,17.14c-15.69-5.3,3.79,1.85-12.49-4.25,9.06-1.44,10.89-1.57,20.14.66,30.3,7.31,47.93,30.5,50.19,61.09a6.75,6.75,0,1,1-13.49-.14C409.62,45.2,392.47,26.29,365.36,17.14Z"/><path class="cls-4" d="M274.61,627.21h-.05l.46.25C274.88,627.37,274.75,627.28,274.61,627.21Z"/><path class="cls-4" d="M327.25,613.31c-5.15-2.63-10.38-1.92-14.42,2.88a24.13,24.13,0,0,0-4.06,7.39c-.39,1.06-.75,2.19-1.07,3.41l-1.95,7.28s-10.28-.23-17.44-1c-1.78-.19-3.71-.38-5.75-.57l0,0a39.67,39.67,0,0,1,7.31,8.42c.18.11.38.2.56.31l-.17.32c4.4,7,6.68,15.2,7.93,23.79a13.52,13.52,0,0,1,.12,2.38h44.86c2.3-19.5-1.25-35.72-7.07-46.54-.34-.46-.68-.91-1-1.34A24.59,24.59,0,0,0,327.25,613.31Zm9.85,27.84a16.69,16.69,0,1,1-18.46-14.7A16.69,16.69,0,0,1,337.1,641.15Z"/><path class="cls-5" d="M278.6,637.72l0,0c-.53-.06-1.08-.1-1.63-.15Z"/><path class="cls-5" d="M231.31,667.89c.07-.35.13-.69.21-1-.08.35-.17.68-.24,1Z"/><path class="cls-5" d="M205.36,667.89h8.36c2-8.19,7.73-15.81,16.64-21.5,10.39-6.62,25-10.61,43.06-9.92,1.29,0,2.62.13,4,.23a39.33,39.33,0,0,0-3.55-2.54c-2.86-.32-5.62-.55-8.24-.65-18-.69-32.67,3.3-43.05,9.93C212.57,649.8,206.57,658.59,205.36,667.89Z"/><path class="cls-5" d="M265.94,651.62A46.14,46.14,0,0,1,287.43,650a40.4,40.4,0,0,0-2.18-4.26,24.66,24.66,0,0,0-4.27-1.26,45.88,45.88,0,0,0-22.43,1.4c-7.66,2.48-14.8,7.21-18.87,15.07a30.7,30.7,0,0,0-2.55,6.91h9.36c.18-.41.38-.81.58-1.2C251.14,658.83,258.28,654.09,265.94,651.62Z"/><path class="cls-5" d="M199,667.38c1.36-11.27,8.41-21.82,20.14-29.3,9.87-6.3,23.11-10.43,39.07-10.94l-3.3-1.11c-10.51-.32-20.59,0-27,1.71-18.64,5-31.89,12.94-35.54,26.54l-3.64,13.61H199C199,667.72,199,667.54,199,667.38Z"/><path class="cls-3" d="M291.44,664c0-.26-.09-.51-.14-.77q-.15-.81-.3-1.59c-.07-.31-.14-.61-.2-.92s-.19-.89-.3-1.32l-.24-1-.3-1.16c-.09-.34-.19-.66-.29-1s-.2-.7-.3-1l-.33-1c-.1-.31-.21-.63-.32-.94s-.23-.64-.35-1-.22-.58-.34-.86-.25-.62-.39-.93c-.06-.16-.13-.33-.2-.49h0a46.14,46.14,0,0,0-21.49,1.59c-7.66,2.47-14.8,7.21-18.87,15.07-.2.39-.4.79-.58,1.2H291.9a7.2,7.2,0,0,0-.06-1.46C291.72,665.58,291.58,664.76,291.44,664Z"/><path class="cls-3" d="M418.08,586.82l-.11-.06.18.62-.18-.61Z"/><path class="cls-3" d="M437.94,637.49a65.64,65.64,0,0,1,2.36,7.21c.58,2,1.13,4.13,1.63,6.23l3-.79-3.21-16a5.68,5.68,0,0,1,.29-3.36,8.82,8.82,0,0,1,1.77-2.79l-6.51-32.4a8.56,8.56,0,0,1-1.59-.55c-3.57-1.64-7-3.24-10.38-4.82,6.06,21.49,10.07,36.67,12.7,47.39Z"/><path class="cls-3" d="M429.21,627.94c.12.43.23.86.34,1.29.24,0,.48,0,.71.06-.24,0-.47-.07-.72-.09Z"/><path class="cls-4" d="M429,635.17c-8.73,0-3.15,9.38-1,24.53,4.32,1,7.87,4.56,9.8,9.24h29.88L456.1,658.89l-2.05-1.78-4.56-25.63c-1.31-.07-1.91,1.47-1.91,1.47l4.32,21.55-14.48,3.8S432.82,635.17,429,635.17Z"/><path class="cls-4" d="M469.61,665q2,1.58,4.07,3.28Q471.58,666.61,469.61,665Z"/><path class="cls-4" d="M474.44,668.94l-.18-.14.18.14Z"/><path class="cls-4" d="M376.11,287.69c-10.71,8.13-25.29,11.54-38.64,12.13,24,6.52,47.93,4.43,69.91-7.69a97.85,97.85,0,0,0,10.78-6.94c-9.32-4-17.55-5.24-24.18-3.52a21.47,21.47,0,0,0-2.46.81c-.15-1.09,1.11-2.15,3.3-3q-4.35-3-8.9-5.6A27.07,27.07,0,0,1,376.11,287.69Z"/><path class="cls-4" d="M360.64,255.76c.13-1.38.29-2.76.45-4.13-7.66,1.82-19.62,2-30.86.58-9.5-1.16-18.37-3.38-23.51-6.52-.44,1.25-.87,2.51-1.28,3.77,5.89,3.3,14.86,5.56,24.3,6.71C340.68,257.51,352.38,257.41,360.64,255.76Z"/><path class="cls-4" d="M359.29,177.6a69.2,69.2,0,0,1,20,8.72c.5-1.25,1-2.5,1.51-3.75a72.2,72.2,0,0,0-20.51-8.83,55.33,55.33,0,0,0-15-1.72q-1.35,2.07-2.69,4.15A49.9,49.9,0,0,1,359.29,177.6Z"/><path class="cls-4" d="M358.92,152.34q-1.43,1.93-2.83,3.9a80.21,80.21,0,0,1,18,2.29,57.52,57.52,0,0,1,14.55,5.56l1.63-3.66A62.11,62.11,0,0,0,375,154.67,86.43,86.43,0,0,0,358.92,152.34Z"/><path class="cls-4" d="M364.12,234.1q.44-1.95.9-3.9c-8.07-.85-21.69-2.71-33.22-4.85-6-1.12-11.44-2.29-15-3.38-.36.75-.72,1.5-1.07,2.25-.21.43-.42.87-.62,1.31a140.22,140.22,0,0,0,16,3.73C342.45,231.37,355.86,233.22,364.12,234.1Z"/><path class="cls-4" d="M370.57,210.47c.4-1.27.82-2.54,1.24-3.81a102.31,102.31,0,0,0-20.63-7A119.64,119.64,0,0,0,330,197q-1.12,2-2.22,3.91a116.85,116.85,0,0,1,22.56,2.7A98.48,98.48,0,0,1,370.57,210.47Z"/><path class="cls-4" d="M370.35,72.51a11,11,0,1,0-11,11A11,11,0,0,0,370.35,72.51Zm-11.2-2.43a4.76,4.76,0,1,1,4.75,4.76A4.75,4.75,0,0,1,359.15,70.08Z"/><path class="cls-3" d="M358.48,117.87a22.34,22.34,0,0,1-4.71,4.32,120.81,120.81,0,0,1-13.59,8.21,350.5,350.5,0,0,1-42.57,19.09c-5.22,1.95-10.85,3.94-16.65,5.74,10.24-1.1,20.28-3.92,30.35-6.84,21.2-6.13,48.11-15.41,60.56-23.28A17.66,17.66,0,0,1,358.48,117.87Z"/><path class="cls-5" d="M355.93,112.87a17.57,17.57,0,0,1,1.68-14.48c-26.35,2-27.52-12.25-43.63-23.13-4.38-3-9.41-2.16-14.25,2.42a6.73,6.73,0,0,1,9.51,8.47c-10.27,19.77-15.82,22-33.55,34.59-12,8.55-24.5,18.09-37.75,24.5,8.47-12.49,20.62-22,31.86-31.93,14.31-12.68,19.44-14.57,26.93-32.25a49.94,49.94,0,0,0-5.28,8.85C288.08,97,275.5,108.59,259,122.16c-21.55,17.75-48.17,36.34-10.56,33.8,33.21-2.23,92.79-30.51,103.92-40.29C353.1,115,354.37,114.06,355.93,112.87Z"/><path class="cls-4" d="M372.78,120.94a13.48,13.48,0,1,0-13.48-13.47A13.47,13.47,0,0,0,372.78,120.94Zm-7.5-21a10.6,10.6,0,1,1,0,15A10.6,10.6,0,0,1,365.28,100Z"/><path class="cls-6" d="M365.28,115a10.6,10.6,0,1,0,0-15A10.6,10.6,0,0,0,365.28,115Zm13.5-1.49a8.5,8.5,0,0,1-10.72,1l11.77-11.77A8.5,8.5,0,0,1,378.78,113.47Zm-12-12a8.5,8.5,0,0,1,10.72-1l-11.77,11.77A8.5,8.5,0,0,1,366.77,101.46Z"/><path class="cls-4" d="M365.72,112.18l11.77-11.77a8.48,8.48,0,0,0-11.77,11.77Z"/><path class="cls-4" d="M378.78,113.47a8.5,8.5,0,0,0,1.05-10.72l-11.77,11.77A8.5,8.5,0,0,0,378.78,113.47Z"/><path class="cls-6" d="M368.66,70.08a4.76,4.76,0,1,0-4.76,4.76A4.76,4.76,0,0,0,368.66,70.08Z"/><path class="cls-4" d="M298.53,71.26c2.39.76,5.5-2.32,7-6.88s.69-8.87-1.7-9.63-5.5,2.32-6.95,6.88S296.14,70.5,298.53,71.26Zm3.12-10.11c.63-2,2-3.3,3-3s1.36,2.2.74,4.17-2,3.31-3,3S301,63.13,301.65,61.15Z"/><path class="cls-6" d="M302.39,65.32c1,.33,2.38-1,3-3s.29-3.84-.74-4.17-2.38,1-3,3S301.35,65,302.39,65.32Z"/><path class="cls-5" d="M297.62,374.77s-10.06,10.26-26.3,4.63a71.23,71.23,0,0,0-2,38.13c3.57,15.81,10.11,19.59,25.78,27.65,10.21-3.35,16.74-5.63,21.36-10.89-.25-2.32-.46-4.64-.66-7,0,.07-.07.15-.11.22a19,19,0,0,1-4.15,5.35,27.62,27.62,0,0,1-7.21,4.25c-2.59,1.12-5.37,2.06-7.87,2.87l-1,.32-.93-.47c-2.53-1.3-5.34-2.77-7.92-4.4a32.18,32.18,0,0,1-7.06-5.72,22.71,22.71,0,0,1-3.84-6.41,43.77,43.77,0,0,1-2-6.79,65.81,65.81,0,0,1-1.6-14.64,66.53,66.53,0,0,1,1.66-14.7l.5-2.24,2.26.32a31.45,31.45,0,0,0,8.05.09,30.05,30.05,0,0,0,7.62-2c.57-.23,1.16-.5,1.77-.8s1.24-.62,1.78-.93l1.45-.82,1.31,1c.57.45,1.15.88,1.75,1.29s1.19.79,1.76,1.13a31.8,31.8,0,0,0,7.63,3.33,33.75,33.75,0,0,0,5,1c0-1.51.1-3,.16-4.51A27.88,27.88,0,0,1,297.62,374.77Z"/><path class="cls-7" d="M308.3,392.4a36.87,36.87,0,0,1-8.82-3.85c-.66-.4-1.35-.84-2-1.31l-.66-.47-.61.31c-.69.33-1.39.65-2.08.93a35.05,35.05,0,0,1-8.91,2.31,35.58,35.58,0,0,1-7,.14,61.75,61.75,0,0,0,.39,25,39.88,39.88,0,0,0,1.8,6,17.61,17.61,0,0,0,3,5,27.19,27.19,0,0,0,5.95,4.77c2.16,1.36,4.46,2.6,6.61,3.71,2.09-.69,4.34-1.48,6.46-2.4a23.28,23.28,0,0,0,5.91-3.41,14.14,14.14,0,0,0,3-4,30,30,0,0,0,2.08-5.07,53.46,53.46,0,0,0,1.54-5.88q-.49-10.32-.4-20.63A35.63,35.63,0,0,1,308.3,392.4Z"/><path class="cls-6" d="M293,273.19a3.86,3.86,0,1,0-3.74-4A3.87,3.87,0,0,0,293,273.19Z"/><path class="cls-6" d="M370.56,276.4a3.86,3.86,0,1,0-3.74-4A3.86,3.86,0,0,0,370.56,276.4Z"/><path class="cls-6" d="M305.89,281.32a3.86,3.86,0,1,0-3.74-4A3.85,3.85,0,0,0,305.89,281.32Z"/><path class="cls-6" d="M356.89,284.27a3.86,3.86,0,1,0-3.74-4A3.87,3.87,0,0,0,356.89,284.27Z"/><path class="cls-6" d="M322.08,286.45a3.86,3.86,0,1,0-3.74-4A3.86,3.86,0,0,0,322.08,286.45Z"/><path class="cls-6" d="M340.14,287.81a3.86,3.86,0,1,0-3.75-4A3.86,3.86,0,0,0,340.14,287.81Z"/><path class="cls-4" d="M227.74,474.36c-3-5.85-9.2-8.44-13.86-5.78s-6,9.58-3,15.44,9.2,8.44,13.86,5.77S230.73,480.22,227.74,474.36Zm-10.12,13.42c-4.25-1.78-7-7.06-6-11.8s5.13-7.15,9.39-5.38,7,7.06,6,11.8S221.88,489.55,217.62,487.78Z"/><path class="cls-6" d="M227,482.4c.93-4.74-1.77-10-6-11.8s-8.46.63-9.39,5.38,1.78,10,6,11.8S226.08,487.15,227,482.4Zm-6.37-10.09a8.75,8.75,0,0,1,5,8.07l-12.11-5.05A5.24,5.24,0,0,1,220.64,472.31ZM218,486.07a8.73,8.73,0,0,1-5-8.07l12.1,5.05A5.25,5.25,0,0,1,218,486.07Z"/><path class="cls-4" d="M220.64,472.31a5.24,5.24,0,0,0-7.13,3l12.11,5.05A8.75,8.75,0,0,0,220.64,472.31Z"/><path class="cls-4" d="M213,478a8.73,8.73,0,0,0,5,8.07,5.25,5.25,0,0,0,7.13-3Z"/><path class="cls-6" d="M318.64,626.45a16.69,16.69,0,1,0,18.46,14.7A16.68,16.68,0,0,0,318.64,626.45ZM322,655.66a12.71,12.71,0,1,1,11.2-14.06A12.71,12.71,0,0,1,322,655.66Z"/><path class="cls-4" d="M319.08,630.4a12.71,12.71,0,1,0,14.07,11.2A12.71,12.71,0,0,0,319.08,630.4Zm9.26,18.86a10,10,0,1,1-1.59-14A10,10,0,0,1,328.34,649.26Z"/><path class="cls-6" d="M326.75,635.21a10,10,0,1,0,1.59,14A10,10,0,0,0,326.75,635.21ZM315.53,649.3a8,8,0,0,1-2.13-9.94l12.29,9.78A8,8,0,0,1,315.53,649.3Zm12.1-2.6-12.28-9.78a8,8,0,0,1,12.28,9.78Z"/><path class="cls-4" d="M325.51,636.77a8,8,0,0,0-10.16.15l12.28,9.78A8,8,0,0,0,325.51,636.77Z"/><path class="cls-4" d="M315.53,649.3a8,8,0,0,0,10.16-.16l-12.29-9.78A8,8,0,0,0,315.53,649.3Z"/><path class="cls-4" d="M426.35,663.57c-3.81-.43-7.28,1.76-9.33,5.37H418c.06-.06.1-.13.15-.19,3.13-3.34,7.72-3.16,10.76.19H434A10.42,10.42,0,0,0,426.35,663.57Z"/><path class="cls-8" d="M416.39,81.32a6.75,6.75,0,0,0,6.81-6.68C420.94,44.05,403.31,20.86,373,13.55c-9.25-2.23-11.08-2.1-20.14-.66,16.28,6.1-3.2-1.05,12.49,4.25,27.11,9.15,44.26,28.06,44.35,57.36A6.75,6.75,0,0,0,416.39,81.32Z"/><path class="cls-9" d="M269.8,113.31c-11.24,10-23.39,19.44-31.86,31.93,13.25-6.41,25.74-16,37.75-24.5,17.73-12.61,23.28-14.82,33.55-34.59a6.73,6.73,0,0,0-9.51-8.47,6.63,6.63,0,0,0-3,3.28s0,.07,0,.1C289.24,98.74,284.11,100.63,269.8,113.31Z"/><path class="cls-4" d="M334.23,307.23c-17.53,65.44-12.86,125.83-2.48,168.65C348.3,544.1,375.06,558.27,439,587.78c61.55-28.41,89.4-42.37,106.26-107.9,11.06-43,16.61-105.15-1.48-172.65C477.89,325.82,439,276.81,439,276.81S400.14,325.82,334.23,307.23Zm80.42-1.92A116.85,116.85,0,0,0,433.84,292a8,8,0,0,1,10.35,0,116.93,116.93,0,0,0,19.2,13.3,105.67,105.67,0,0,0,68,11.85,8,8,0,0,1,9,6.17,339.88,339.88,0,0,1,3.45,128.82,277.32,277.32,0,0,1-13,50.18c-16,43.48-49.76,57.26-88.46,76a7.86,7.86,0,0,1-6.95,0c-38.69-18.73-72.44-32.51-88.46-76a277.29,277.29,0,0,1-12.95-50.18,339.87,339.87,0,0,1,3.44-128.82,8,8,0,0,1,9-6.17A105.7,105.7,0,0,0,414.65,305.31Z"/><path class="cls-2" d="M337.57,323.33a339.87,339.87,0,0,0-3.44,128.82,277.29,277.29,0,0,0,12.95,50.18c16,43.48,49.77,57.26,88.46,76a7.86,7.86,0,0,0,6.95,0c38.7-18.73,72.44-32.51,88.46-76a277.32,277.32,0,0,0,13-50.18,339.88,339.88,0,0,0-3.45-128.82,8,8,0,0,0-9-6.17,105.67,105.67,0,0,1-68-11.85,116.93,116.93,0,0,1-19.2-13.3,8,8,0,0,0-10.35,0,116.85,116.85,0,0,1-19.19,13.3,105.7,105.7,0,0,1-68,11.85A8,8,0,0,0,337.57,323.33Zm79-14.52a121.67,121.67,0,0,0,19.86-13.76,4,4,0,0,1,5.17,0,122.1,122.1,0,0,0,19.86,13.76,109.28,109.28,0,0,0,70.59,12.3,4,4,0,0,1,4.52,3.08A336,336,0,0,1,540,451.5,273.82,273.82,0,0,1,527.2,501c-15.55,42.22-48.81,55.56-86.44,73.77a3.88,3.88,0,0,1-3.48,0c-37.64-18.21-70.89-31.55-86.45-73.77a273.82,273.82,0,0,1-12.77-49.45,336.25,336.25,0,0,1,3.41-127.31,4,4,0,0,1,4.51-3.08A109.28,109.28,0,0,0,416.57,308.81Z"/><path class="cls-6" d="M341.47,324.19a336.25,336.25,0,0,0-3.41,127.31A273.82,273.82,0,0,0,350.83,501c15.56,42.22,48.81,55.56,86.45,73.77a3.88,3.88,0,0,0,3.48,0c37.63-18.21,70.89-31.55,86.44-73.77A273.82,273.82,0,0,0,540,451.5a336,336,0,0,0-3.4-127.31,4,4,0,0,0-4.52-3.08,109.28,109.28,0,0,1-70.59-12.3,122.1,122.1,0,0,1-19.86-13.76,4,4,0,0,0-5.17,0,121.67,121.67,0,0,1-19.86,13.76A109.28,109.28,0,0,1,346,321.11,4,4,0,0,0,341.47,324.19Zm77-11.89A128.86,128.86,0,0,0,439,298.1a128.35,128.35,0,0,0,20.51,14.2,112.86,112.86,0,0,0,73.14,12.75A332.18,332.18,0,0,1,536,450.84c-.09.52-.18,1-.26,1.56h0a268.74,268.74,0,0,1-12.29,47.16c-.73,2-1.5,3.85-2.31,5.69l0,0-.4.87c-.22.48-.43,1-.65,1.43-.3.64-.6,1.26-.9,1.88-.23.45-.45.91-.69,1.36-.31.62-.64,1.23-1,1.84-.23.42-.45.84-.69,1.26-.35.64-.72,1.26-1.09,1.88l-.65,1.09c-.45.74-.92,1.47-1.39,2.18l-.42.67c-.62.92-1.25,1.83-1.9,2.72-.18.26-.38.51-.57.76-.46.63-.93,1.25-1.41,1.87l-.78,1c-.42.52-.84,1-1.27,1.55l-.88,1L505.28,530l-.94,1c-.42.45-.85.9-1.28,1.34l-1,1c-.44.44-.88.86-1.33,1.29l-1,.93c-.46.43-.93.85-1.4,1.27l-1,.85c-.51.45-1,.88-1.55,1.32l-.88.73c-.65.53-1.31,1-2,1.57l-.53.41c-.84.65-1.69,1.29-2.55,1.91-.25.19-.52.37-.77.55-.62.44-1.23.88-1.86,1.31l-1,.7-1.65,1.11-1.15.73c-.53.35-1.06.69-1.6,1l-1.19.74-1.63,1-1.21.72-1.67,1-1.21.69-1.76,1-1.17.65-1.91,1-1.06.57-2.38,1.24-.65.34L463,559.49l-1,.5-2.14,1.07-1.28.63-1.9.93-1.37.67-1.91.93-1.37.65-2,1-1.62.78-2.52,1.21-1.32.63q-2.78,1.32-5.59,2.69l-2.89-1.39-.71-.34-1-.49-2.77-1.33-1.71-.82-.81-.39-2-1-1.71-.83-4.15-2-.28-.13-.4-.2q-2.79-1.37-5.51-2.74l-.13-.06q-2.7-1.37-5.32-2.75l-.38-.2-.14-.07q-2.41-1.29-4.78-2.6l-.48-.27-.85-.48-.67-.38-.52-.29-.94-.56L399,550.77l-.5-.29c-.22-.14-.43-.28-.66-.41-.79-.48-1.58-1-2.36-1.47-.37-.23-.74-.46-1.1-.7-.87-.56-1.73-1.13-2.59-1.71l-.72-.48c-1.07-.73-2.12-1.48-3.17-2.24l-.79-.59c-.78-.58-1.55-1.17-2.31-1.76l-.48-.36-.32-.26-.51-.42L382,538.82l-1.16-1c-.5-.43-1-.87-1.48-1.31l-.77-.68-.28-.26-.18-.16-.14-.14-.85-.81-1.46-1.43c-.31-.3-.61-.62-.91-.93-.45-.46-.89-.92-1.33-1.39l-.92-1-1.26-1.42c-.3-.35-.6-.7-.89-1.06s-.47-.54-.69-.81-.23-.31-.35-.45c-.8-1-1.58-2-2.35-3-.08-.12-.18-.23-.26-.35-.84-1.16-1.65-2.35-2.45-3.57-.22-.33-.43-.67-.64-1-.62-1-1.22-2-1.8-3-.2-.33-.4-.66-.59-1-.74-1.31-1.45-2.65-2.15-4l-.07-.15c-.46-.91-.91-1.85-1.34-2.8l-.35-.78q-.56-1.23-1.08-2.49c-.13-.3-.25-.61-.38-.92-.44-1.09-.88-2.19-1.3-3.32q-1.21-3.33-2.34-6.71l-.69-2.15q-.75-2.35-1.47-4.71l-.72-2.46c-.44-1.54-.87-3.1-1.29-4.65-.21-.78-.42-1.55-.62-2.33q-.72-2.78-1.38-5.57c-.09-.39-.2-.77-.29-1.16l-.06-.27c-.11-.48-.21-1-.32-1.45-.27-1.19-.54-2.39-.8-3.58l-.15-.77c-.13-.62-.26-1.24-.38-1.86-.16-.79-.33-1.59-.49-2.39-.09-.44-.16-.89-.25-1.33l-.51-2.79c-.11-.59-.23-1.19-.33-1.78-.17-.93-.32-1.85-.48-2.77-.48-2.91-.92-5.82-1.32-8.75-.13-.92-.24-1.84-.36-2.77q-.39-3-.74-6.06c-.12-1.07-.23-2.14-.34-3.22q-.28-2.9-.53-5.79c-.09-1.06-.18-2.12-.25-3.18-.16-2.11-.29-4.24-.4-6.36,0-.66-.09-1.32-.13-2a.5.5,0,0,1,0,.12c-.1-2.06-.17-4.12-.23-6.18h0c0-.38,0-.76,0-1.14-.07-2.69-.11-5.39-.11-8.08,0-.43,0-.86,0-1.29,0-3.13.06-6.25.15-9.38l.09-2.36q.13-3.54.34-7.08l.18-2.92q.24-3.56.56-7.1c.07-.77.12-1.55.2-2.32q.44-4.64,1-9.26c.07-.58.16-1.16.24-1.74q.48-3.76,1.05-7.52c.15-1,.31-2,.47-2.93q.54-3.32,1.14-6.62c.17-.92.33-1.85.51-2.77.58-3,1.2-6.08,1.86-9.1A112.86,112.86,0,0,0,418.5,312.3Z"/><path class="cls-5" d="M444.61,568.44l1.32-.63-1,.48Z"/><path class="cls-5" d="M367.32,423.58,352.43,448l-5.49-20.28A90.35,90.35,0,0,1,344.36,411c-2.27-1.43-4.49-2.88-6.64-4.37.06,2.06.13,4.12.23,6.18.22,1.39.44,2.79.67,4.19A285.14,285.14,0,0,0,347,453.26q.88,2.92,1.85,5.82.82,2.46,1.69,4.9l.65,1.79c.43,1.16.88,2.3,1.34,3.43a102.82,102.82,0,0,0,7.33,14.57q2.28,3.75,4.82,7.23a105.06,105.06,0,0,0,42.09,33.78l.75.33.29.13c2.23,1,4.48,1.86,6.75,2.67l.28.1a111,111,0,0,0,34.83,6.44q3.13.06,6.26-.06c24.62-.92,48.35-10.42,65.22-29.13.81-1.84,1.58-3.72,2.31-5.69a268.74,268.74,0,0,0,12.29-47.16q-11.65.68-23.66.69C456.84,453.1,406.28,442,367.32,423.58Z"/><path class="cls-5" d="M343.5,334.15c.58-3,1.2-6.08,1.86-9.1C344.7,328.07,344.08,331.11,343.5,334.15Z"/><path class="cls-5" d="M434.4,568.91l1,.49-.09,0Z"/><path class="cls-5" d="M436.13,569.74l2.89,1.39-.63-.3Z"/><path class="cls-5" d="M427.11,565.41l-1.71-.83Z"/><path class="cls-5" d="M361.24,514.05c-.74-1.31-1.45-2.65-2.15-4C359.79,511.4,360.5,512.74,361.24,514.05Z"/><path class="cls-10" d="M343.5,334.15c-.18.92-.34,1.85-.51,2.77q-.6,3.3-1.14,6.62c-.16,1-.32,1.95-.47,2.93q-.57,3.75-1.05,7.52c-.08.58-.17,1.16-.24,1.74q-.57,4.62-1,9.26c-.08.77-.13,1.55-.2,2.32q-.31,3.54-.56,7.1l-.18,2.92q-.21,3.54-.34,7.08l-.09,2.36c-.09,3.13-.15,6.25-.15,9.38,0,.43,0,.86,0,1.29,0,2.69,0,5.39.11,8.08,0,.38,0,.76,0,1.14h0c2.15,1.49,4.37,2.94,6.64,4.37-1.55-20.83,1-49.34,5.54-78.85,58.31,6.34,90-27.47,90-27.47L367.32,423.58c39,18.4,89.52,29.52,144.77,29.52q12,0,23.66-.69h0c.08-.52.17-1,.26-1.56a332.18,332.18,0,0,0-3.36-125.79,112.86,112.86,0,0,1-73.14-12.75A128.35,128.35,0,0,1,439,298.1a128.86,128.86,0,0,1-20.52,14.2,112.86,112.86,0,0,1-73.14,12.75C344.7,328.07,344.08,331.11,343.5,334.15Z"/><path class="cls-2" d="M196.85,353.54l-4.48,7.35h.09c.82,0,1.65,0,2.49.07.15,0,.3,0,.44,0,.83.06,1.67.14,2.51.26l.44.06c.86.13,1.72.27,2.58.45l.27.06c.87.18,1.73.39,2.59.62l.16,0c.87.23,1.72.5,2.56.77l.39.13c.81.27,1.61.56,2.38.87l.42.17c.78.31,1.54.64,2.27,1l.31.15c.76.37,1.51.74,2.21,1.13s1.46.83,2.14,1.25l.64.4,1.35.87.68.47c.4.28.79.56,1.16.84l.64.48.32.24c.12-.92.26-1.84.39-2.76.07-.46.13-.93.2-1.4.26-1.71.54-3.43.85-5.14L223,361c.26-1.4.54-2.79.84-4.19.12-.57.25-1.15.38-1.72.26-1.14.52-2.29.8-3.43.15-.61.31-1.22.47-1.83.29-1.15.6-2.29.92-3.43.16-.56.31-1.11.47-1.66.43-1.49.89-3,1.36-4.46.06-.18.11-.36.17-.54q.81-2.48,1.7-4.92l.55-1.47c.43-1.15.86-2.29,1.32-3.42.23-.58.46-1.16.7-1.73.44-1.07.9-2.13,1.36-3.18l.74-1.68q.81-1.75,1.65-3.48c.19-.41.38-.82.59-1.23q1.14-2.31,2.37-4.57l.57-1c.65-1.17,1.3-2.33,2-3.48.31-.52.62-1,.94-1.54.59-1,1.19-1.94,1.81-2.9.34-.53.68-1.06,1-1.58.22-.34.43-.68.66-1C225.1,321.61,201.7,345.56,196.85,353.54Z"/><path class="cls-2" d="M246.67,486.1l-.06-.08c-1.16-1.54-2.28-3.1-3.38-4.68-.32-.46-.63-.93-.94-1.39s-.72-1-1.06-1.55-.83-1.32-1.25-2-.78-1.22-1.15-1.84q-1.22-2-2.35-4l-.75-1.29c-.34-.61-.66-1.24-1-1.85l-.55-1.05c-.44-.83-.89-1.66-1.31-2.51s-.94-2-1.4-2.93c-.27-.58-.57-1.15-.83-1.73s-.47-1.05-.7-1.57c-.48-1.09-1-2.18-1.55-3.28-.14-.29-.28-.59-.43-.88-.49-1-1-1.94-1.48-2.9a1,1,0,0,1,0-.1h0a16.25,16.25,0,0,1-4.53,1.18,8.78,8.78,0,0,1-2.68-.14c-2.47-.53-7.07-5.08-12.58-12.07-13.72-17.4-33.09-49.91-39.45-73.43h0l-.17.41c-.13.28-.24.56-.36.84l-.24.65c-.1.28-.19.56-.28.85s-.14.43-.2.65-.15.57-.22.86-.11.44-.15.65-.11.6-.16.91-.07.42-.1.64-.06.66-.09,1,0,.4-.05.6c0,.41,0,.82,0,1.24,0,.14,0,.27,0,.4q0,.84.09,1.71c0,.16,0,.32.06.48,0,.44.09.87.15,1.32l.12.7c.07.39.14.78.22,1.18s.12.54.18.81.17.78.28,1.19.15.58.23.88.22.81.35,1.23.19.62.29.94.27.86.42,1.3l.33,1c.16.46.34.93.51,1.41s.25.67.38,1c.19.51.4,1,.61,1.57l.4,1c.24.6.5,1.22.76,1.85.13.29.25.58.38.88.4,1,.82,1.91,1.26,2.92.53,1.18,1.1,2.38,1.68,3.59.17.35.34.7.52,1,.47,1,1,1.91,1.46,2.87l.46.89c.65,1.22,1.32,2.45,2,3.68.15.28.31.56.47.84.57,1,1.14,2,1.73,3,.22.37.44.73.65,1.1.67,1.13,1.35,2.25,2.05,3.38l.24.4q1.17,1.88,2.37,3.75l.69,1.06c.62,1,1.24,1.92,1.87,2.88.22.32.44.65.65,1,.82,1.22,1.63,2.43,2.46,3.63l.09.14.29.42q1.26,1.83,2.52,3.62l.57.82c.92,1.3,1.84,2.59,2.75,3.85l.15.2.89,1.23.78,1.06,1.2,1.63.93,1.26,1.49,2,.86,1.13.91,1.2.91,1.19.81,1.06.88,1.14.8,1c.27.36.55.7.81,1.05l.8,1,.74.93.3.39.54.68.59.74.67.85,1.15,1.42.59.74.54.67.31.38h0a1.2,1.2,0,0,1,.2,0l.8-.1.53-.05c.29,0,.58,0,.88,0,.12,0,.25,0,.38,0h.06a11.88,11.88,0,0,1,1.57.23,2.6,2.6,0,0,1,.4.1c.41.1.82.22,1.22.36l.43.15a12.85,12.85,0,0,1,1.51.7l.13.07a15.74,15.74,0,0,1,1.34.84l.41.3c.37.28.74.58,1.1.9l.3.26q.65.62,1.26,1.32c.09.11.18.23.28.34q.47.57.9,1.2l.31.45c.35.55.69,1.11,1,1.71s.49,1,.7,1.54c.07.17.13.35.19.53.13.34.26.68.36,1s.12.43.18.64.17.62.23.93.09.46.13.68.11.6.14.9a2.74,2.74,0,0,1,.05.28c0,.1,0,.2,0,.29.05.54.08,1.07.08,1.59,0,.12,0,.23,0,.34a18.32,18.32,0,0,1-.13,1.83c0,.15,0,.29-.07.44a14.27,14.27,0,0,1-.28,1.45c0,.13-.06.26-.1.39a13.34,13.34,0,0,1-.56,1.65c0,.11-.1.21-.14.32a13.6,13.6,0,0,1-.65,1.26c-.07.13-.14.25-.22.37a12.16,12.16,0,0,1-1,1.37l-.15.16a10.11,10.11,0,0,1-1,1l-.34.29a11.48,11.48,0,0,1-1.39,1l-.18.1c-.21.12-.43.22-.64.32l-.14,0a10.46,10.46,0,0,1-1.51.54l0,0h0l.22.09.83.34.38.15.19.07.5.18.7.23.51.15.66.18.52.12.63.12.49.08.62.06.46,0c.21,0,.41,0,.61,0a3,3,0,0,0,.42,0c.21,0,.42-.06.63-.1s.22,0,.32-.06a4.35,4.35,0,0,0,.88-.3c.31-.14.67-.32,1.07-.53l.1-.06c.38-.2.79-.43,1.23-.68l.18-.1,1.37-.81.21-.13,1.51-.92.22-.13,1.67-1.05a.57.57,0,0,1,.13-.08l1.83-1.18.1-.06,1.8-1.17.12-.08,1.74-1.14,0,0,.53-.35h0l-.63-.84Z"/><path class="cls-8" d="M184.43,357.14C200,329.73,226.74,310,249.86,289.31c-5.23,2.09-4,1.36-9.09,4.5-21.85,13.64-49.79,38.56-63.23,60.35a3.75,3.75,0,1,0,6.89,3Z"/><path class="cls-2" d="M316.58,358.63c0-.32.07-.64.1-1l0-.32-16-1.3-24.15-2h0l-10,11.09-12.59,14H253l-.13,0h-.07l-.28,0h-.19l-.4,0h-.29l-.51,0h-1.53l-.7,0-.62,0-.81,0-.71-.05-.91-.08L245,379l-1-.12-.9-.13-1.08-.17-1-.18-1.17-.22-1.08-.23-1.26-.29-1.16-.3L235,377l-1.25-.36-1.4-.44-1.34-.43-1.47-.52c-.47-.16-.93-.34-1.41-.52l-.65-.23-.54-.22h0c-.08.72-.16,1.44-.23,2.16-.09.89-.17,1.78-.24,2.68l.59.25c.8.32,1.58.62,2.35.91l.06,0h0c1,.36,1.88.69,2.79,1l.91.3c.6.2,1.19.4,1.77.58l1,.31,1.52.45,1,.28,1.37.36,1,.25,1.25.3.95.2,1.15.24.87.17,1.06.2.79.13,1,.15.71.11.85.11.62.08.75.08.52.06.65.05.41,0,.53,0,.31,0,.41,0h.7l8.2-9.32L273,364.73l3.75-4.26,39.35,3.44C316.21,362.15,316.39,360.39,316.58,358.63Z"/><path class="cls-2" d="M256.21,488.22c.16.18.33.36.48.54q1.67,1.94,3.38,3.79l.56.61c1.33,1.43,2.7,2.82,4.09,4.18.39.39.8.78,1.2,1.16,1,1,2.06,2,3.11,2.91l1.44,1.29q1.62,1.43,3.27,2.81c.29.24.58.51.88.75l.38.3c.52.43,1.06.85,1.59,1.27.72.57,1.45,1.15,2.18,1.71l1.69,1.25L282,512l.67.47,1.3.91,2.46,1.68,1.36.9,2.61,1.66,1.2.74c1.23.75,2.47,1.48,3.71,2.19l.14.08c.8.46,1.59.9,2.4,1.34.3.16.61.31.91.48l2,1c.72.38,1.45.75,2.18,1.11l2,1,1.16.56,1.23.54,1.38.62c.95.42,1.91.82,2.87,1.22l1.07.44.33.13c1.16.47,2.33.91,3.49,1.33.3.12.61.22.91.33,1,.36,2,.71,3,1l1.14.37c1.22.39,2.44.77,3.66,1.12l.21.07h0l.4.11c1.19.34,2.39.65,3.58,1l.93.22c.59.15,1.18.3,1.78.43l.95.2,2.12.43c.73.15,1.45.28,2.17.41l2.12.36c.72.11,1.44.22,2.15.31s1.41.19,2.12.27l2.12.23,2.1.18,1.12.09c-.8-1.08-1.58-2.19-2.35-3.32l-.1-.15c-.76-1.14-1.51-2.29-2.25-3.47v0A127,127,0,0,1,338.13,519s-.05-.11-.08-.17c-.65-1.34-1.29-2.72-1.92-4.12a.36.36,0,0,0,0-.09q-1.92-4.32-3.69-9h-.72c-23.25,0-49.06-8.78-71.56-24.5-2.06-1.45-4.1-2.94-6.1-4.5l-1.44-1.14c-1.88-1.5-3.74-3-5.56-4.66l-1.68-1.5q-3-2.7-5.79-5.56l0,0,.21.37q1.41,2.65,2.93,5.22l.13.22c.48.81,1,1.61,1.49,2.41.34.53.66,1.08,1,1.61a1.74,1.74,0,0,0,.11.18c.39.6.79,1.21,1.19,1.8.24.37.5.72.75,1.08q.67,1,1.38,2c.51.72,1,1.42,1.54,2.12s.95,1.28,1.43,1.91c.25.32.48.64.72,1l.13.15c.23.3.47.58.7.87.7.88,1.41,1.74,2.13,2.6C255.65,487.52,255.92,487.88,256.21,488.22Z"/><path class="cls-4" d="M281.92,536.83c.38.23.76.46,1.14.67l.31.19.93.48.64.34c.56.28,1.12.55,1.69.8l.26.13c.65.28,1.31.55,2,.81l.64.23,1.05.38.23.06c.85.28,1.72.54,2.58.76l.29.06c.77.19,1.55.35,2.33.48l.8.13c.65.1,1.29.18,1.94.25l.79.07c.89.07,1.78.11,2.67.11h.18a48.28,48.28,0,0,1-13.9-9c-.79-.72-1.57-1.47-2.32-2.25-1.37-1.39-2.68-2.87-3.93-4.42s-2.26-3-3.3-4.52a69.13,69.13,0,0,1-5.14-9.13c-.67-.52-1.32-1.08-2-1.61-1-.78-1.94-1.54-2.89-2.34-.77-.65-1.51-1.33-2.27-2s-1.83-1.6-2.72-2.43-1.48-1.41-2.21-2.12-1.74-1.66-2.58-2.51-1.43-1.49-2.13-2.24-1.64-1.72-2.44-2.61c-.16-.18-.34-.35-.5-.53l0,0c0,.13.07.26.1.4.11.53.24,1.05.37,1.58l.3,1.24.45,1.6c.11.4.22.79.34,1.18.17.56.36,1.12.54,1.68.12.34.22.69.34,1,.23.65.48,1.3.72,2l.27.71c.34.87.7,1.74,1.07,2.59.11.25.23.49.35.74.27.6.54,1.2.83,1.79l.49,1c.26.5.51,1,.77,1.48s.38.69.57,1l.77,1.36c.21.34.42.69.64,1s.52.86.79,1.28l.68,1,.83,1.21c.23.33.48.66.72,1s.57.77.86,1.15.5.65.76,1,.59.73.89,1.09l.79.92c.31.36.62.71.94,1l.81.87c.32.34.65.68,1,1s.55.55.83.81.68.65,1,1l.84.76c.36.32.72.62,1.09.93l.62.52.19.14c.72.58,1.44,1.13,2.18,1.66l.08.05c.72.51,1.44,1,2.17,1.45l.21.15C281.46,536.57,281.69,536.69,281.92,536.83Z"/><path class="cls-8" d="M263,303.08l.24.11c2.46-5.14,5-10.47,7.55-16.2l-7.14,6.24c-15.84,16.85-29.57,49.74-32.89,72.71a6.25,6.25,0,0,0,12.46,1c1.48-20.91,7.21-36.18,14.47-52l-.84-.41Q260.08,308.86,263,303.08Z"/><path class="cls-3" d="M230.36,646.39c-8.91,5.69-14.65,13.31-16.64,21.5h17.56c.07-.35.16-.68.24-1s.18-.8.28-1.2c.15-.59.32-1.16.49-1.72.11-.36.21-.72.33-1.07.2-.6.43-1.19.66-1.77.11-.28.21-.57.33-.85.34-.8.7-1.57,1.08-2.32,0,0,0-.09.07-.13a35,35,0,0,1,14.09-14.45,43.53,43.53,0,0,1,8.12-3.54c1-.33,2-.61,3.07-.87l1-.23c.7-.16,1.4-.31,2.1-.44l1.16-.2c.65-.1,1.3-.2,2-.28l1.16-.13c.67-.07,1.32-.12,2-.16.35,0,.71-.06,1.06-.07.78,0,1.54,0,2.3,0h.65c1,0,1.91,0,2.84.12l.69.06c.55.05,1.1.09,1.63.15h0l-.32-.27-.56-.47a3.88,3.88,0,0,0-.31-.26h0c-1.35-.1-2.68-.18-4-.23C255.39,635.78,240.75,639.77,230.36,646.39Z"/><path class="cls-5" d="M418.08,586.82l-.11-.05.18.61c.14.51.28,1,.43,1.52q.3,1.08.6,2.13.24.87.48,1.71c.18.64.35,1.26.53,1.88s.32,1.15.48,1.7.38,1.36.56,2c.26.92.51,1.84.76,2.74.16.54.31,1.09.46,1.63l.48,1.77.39,1.38.48,1.75c.12.44.23.87.35,1.3s.31,1.12.46,1.67.23.87.35,1.3c.27,1,.52,1.93.78,2.87l.33,1.25.39,1.45c.11.42.23.84.34,1.25l.36,1.37c.11.43.23.86.34,1.29s.22.82.32,1.22.28,1,.41,1.55c.08.29.15.59.23.87.2.79.4,1.56.6,2.32l.15.6.33,1.26c.25,0,.48,0,.72.09h0a7,7,0,0,1,1,.29l.21.08a9,9,0,0,1,.94.45l.16.1a9.49,9.49,0,0,1,.83.58l.08.07a8,8,0,0,1,.8.74l.16.17a9.9,9.9,0,0,1,.73.85l.1.14c.22.29.43.58.63.89l.08.13c.21.33.41.67.61,1l.12.23c.19.35.37.71.54,1.07l.06.13c.17.35.32.7.47,1l.08.2.05.11c-2.63-10.72-6.64-25.9-12.7-47.39h0Q421.6,588.5,418.08,586.82Z"/><path class="cls-5" d="M303.41,584.34l.33,1.1c.22.76.44,1.51.66,2.24q1,3.29,1.83,6.21c1.14,3.85,2.15,7.25,3,10.25h0l.06,0,1-.57.25-.14c.41-.22.83-.43,1.25-.62l.34-.14.94-.38.49-.16.83-.26.11,0-12.87-43.53H301c-.93,0-1.85,0-2.75-.1-.29,0-.57-.06-.86-.09-.61-.05-1.22-.1-1.81-.19h0c2.58,8.71,4.82,16.3,6.79,23C302.73,582,303.08,583.21,303.41,584.34Z"/><path class="cls-8" d="M295.3,250.09a3.26,3.26,0,0,0-3.75,2.67c-1.87,29.54,65.28,29.5,72.51,13.43l-1.45,1c-13,9.21-51.06,6.76-61.81-5.34a10.13,10.13,0,0,1-2.82-8,3.31,3.31,0,0,0-2.68-3.75Z"/><path class="cls-8" d="M277.15,628.74c.34.22.69.42,1,.65,1,.68,2,1.4,3,2.17.46.36.9.73,1.34,1.11l0,0c2,.19,4,.38,5.75.57,7.16.76,17.44,1,17.44,1L307.7,627c.32-1.22.68-2.35,1.07-3.41a24.13,24.13,0,0,1,4.06-7.39c4-4.8,9.27-5.51,14.42-2.88A24.59,24.59,0,0,1,335,620c.35.43.69.88,1,1.34h0l0,0c-.35-.65-.71-1.27-1.07-1.87l-.13-.23-.12-.19-.69-1.09-.2-.31c-.31-.46-.61-.89-.92-1.32a3.55,3.55,0,0,1-.23-.31l-.72-.94-.32-.39-.67-.8-.33-.36c-.26-.3-.53-.58-.79-.86l-.19-.2c-.33-.33-.67-.65-1-1l-.28-.24c-.24-.22-.49-.44-.74-.64l-.36-.29c-.23-.18-.46-.36-.7-.53l-.22-.17-.14-.09-.57-.38-.39-.24-.64-.38-.32-.17c-.32-.17-.64-.33-1-.47l-.1,0c-.29-.12-.57-.24-.86-.34l-.32-.11-.64-.2-.38-.1-.58-.14-.4-.07-.56-.07-.4,0a5.07,5.07,0,0,0-.55,0h-.4l-.55,0-.39,0-.57.08-.35.06c-.21,0-.43.09-.64.15l-.27.07a9.37,9.37,0,0,0-.89.31l-.15.07c-.25.1-.49.22-.73.34l-.3.17-.56.32-.33.23-.51.36-.33.27c-.17.14-.33.27-.48.41l-.17.14a1.31,1.31,0,0,1-.11.12c-.36.34-.71.71-1.06,1.11l-.1.12c-.32.38-.63.8-.94,1.23l-.17.24c-.32.47-.62,1-.92,1.48l-.18.33c-.3.55-.6,1.11-.87,1.72v0h0c-.09.2-.18.41-.26.61s-.21.46-.31.7-.1.29-.16.43l-.36,1c0,.07-.05.16-.08.23-.31.9-.6,1.84-.87,2.84l-1.95,7.27s-10.27-.22-17.44-1l-2.25-.23-.31,0c-1.6-.16-3.28-.33-5-.48l-.17,0-2.75-.24h0c.14.07.27.16.41.24C275.74,627.86,276.45,628.3,277.15,628.74Z"/><path class="cls-3" d="M455.93,534.39q-3.12.12-6.26.06A111,111,0,0,1,414.84,528l-.28-.1c-2.27-.81-4.52-1.71-6.75-2.67l-.29-.13-.75-.33A105.06,105.06,0,0,1,364.68,491q-2.55-3.48-4.82-7.23a102.82,102.82,0,0,1-7.33-14.57c-.46-1.13-.91-2.27-1.34-3.43l-.65-1.79q-.87-2.44-1.69-4.9-1-2.9-1.85-5.82A285.14,285.14,0,0,1,338.62,417c-.23-1.4-.45-2.8-.67-4.19a.5.5,0,0,0,0-.12c0,.66.09,1.32.13,2,.11,2.12.24,4.25.4,6.36.07,1.06.16,2.12.25,3.18q.24,2.89.53,5.79c.11,1.08.22,2.15.34,3.22q.35,3,.74,6.06c.12.93.23,1.85.36,2.77.4,2.93.84,5.84,1.32,8.75.16.92.31,1.84.48,2.77.1.59.22,1.19.33,1.78l.51,2.79c.09.44.16.89.25,1.33.16.8.33,1.6.49,2.39.12.62.25,1.24.38,1.86l.15.77c.26,1.19.53,2.39.8,3.58.11.48.21,1,.32,1.45l.06.27c.09.39.2.77.29,1.16q.66,2.79,1.38,5.57c.2.78.41,1.55.62,2.33.42,1.55.85,3.11,1.29,4.65l.72,2.46q.72,2.36,1.47,4.71l.69,2.15q1.13,3.38,2.34,6.71c.42,1.13.86,2.23,1.3,3.32.13.31.25.62.38.92q.53,1.26,1.08,2.49l.35.78c.43.95.88,1.89,1.34,2.8l.07.15c.7,1.37,1.41,2.71,2.15,4,.19.34.39.67.59,1,.58,1,1.18,2,1.8,3,.21.34.42.68.64,1,.8,1.22,1.61,2.41,2.45,3.57.08.12.18.23.26.35.77,1,1.55,2,2.35,3,.12.14.23.3.35.45s.46.54.69.81.59.71.89,1.06l1.26,1.42.92,1c.44.47.88.93,1.33,1.39.3.31.6.63.91.93l1.46,1.43.85.81.14.14.18.16.28.26.77.68c.49.44,1,.88,1.48,1.31l1.16,1,1.52,1.26.51.42.32.26.48.36c.76.59,1.53,1.18,2.31,1.76l.79.59c1.05.76,2.1,1.51,3.17,2.24l.72.48c.86.58,1.72,1.15,2.59,1.71.36.24.73.47,1.1.7.78.5,1.57,1,2.36,1.47.23.13.44.27.66.41l.5.29,1.82,1.07.94.56.52.29.67.38.85.48.48.27q2.37,1.3,4.78,2.6l.14.07.38.2q2.63,1.38,5.32,2.75l.13.06q2.71,1.38,5.51,2.74l.4.2.28.13,4.15,2,1.71.83,2,1,.81.39,1.71.82,2.77,1.33.93.44.09,0,.71.34,2.26,1.09.63.3q2.82-1.36,5.59-2.69l.3-.15,1-.48,2.52-1.21,1.62-.78,2-1,1.37-.65,1.91-.93,1.37-.67,1.9-.93,1.28-.63L462,560l1-.5,3.06-1.56.65-.34,2.38-1.24,1.06-.57,1.91-1,1.17-.65,1.76-1,1.21-.69,1.67-1,1.21-.72,1.63-1,1.19-.74c.54-.33,1.07-.67,1.6-1l1.15-.73,1.65-1.11,1-.7c.63-.43,1.24-.87,1.86-1.31.25-.18.52-.36.77-.55.86-.62,1.71-1.26,2.55-1.91l.53-.41c.66-.52,1.32-1,2-1.57l.88-.73c.52-.44,1-.87,1.55-1.32l1-.85c.47-.42.94-.84,1.4-1.27l1-.93c.45-.43.89-.85,1.33-1.29l1-1c.43-.44.86-.89,1.28-1.34l.94-1,1.25-1.42.88-1c.43-.51.85-1,1.27-1.55l.78-1c.48-.62,1-1.24,1.41-1.87.19-.25.39-.5.57-.76.65-.89,1.28-1.8,1.9-2.72l.42-.67c.47-.71.94-1.44,1.39-2.18l.65-1.09c.37-.62.74-1.24,1.09-1.88.24-.42.46-.84.69-1.26.33-.61.66-1.22,1-1.84.24-.45.46-.91.69-1.36.3-.62.6-1.24.9-1.88.22-.47.43-.95.65-1.43l.4-.87,0,0C504.28,524,480.55,533.47,455.93,534.39Z"/><path class="cls-8" d="M456.1,658.89l11.57,10.05h6.77l-.18-.14-.58-.48q-2.1-1.71-4.07-3.28l-.5-.4-1.45-1.15-.57-.45L465.73,662l-.47-.36L461.87,659l-.4-.3-1.15-.88-.46-.35-1-.74-.43-.33-1.24-.93s-.73-15.63-4.38-21.13c-.22-.32-.43-.61-.63-.88l-.19-.22c-.14-.17-.27-.33-.4-.47s-.14-.14-.21-.21-.23-.22-.34-.31l-.21-.17-.18-.14-.08,0a2.91,2.91,0,0,0-.46-.24l-.11,0a1.62,1.62,0,0,0-.5-.11h0l4.56,25.63Z"/><path class="cls-6" d="M382.08,676.55H660.74a3.81,3.81,0,0,0,0-7.61H486.91c-7.15-6.11-14.5-12-22-17.66-.55-6.56-1.95-16.12-5.45-21.38-2-3-4.87-5.68-8.44-6.32l-6-29.79,1.56-.72,7-3.26,3.34-1.57,7.5-3.57,1.24-.6c6.53-3.17,13-6.45,19.36-10,2.19-1.22,4.34-2.49,6.48-3.78l.1-.06c1.26-.76,2.5-1.54,3.74-2.32l.53-.34c1.08-.69,2.14-1.4,3.2-2.11l.94-.64c.92-.63,1.83-1.27,2.74-1.92l1.26-.92c.8-.59,1.59-1.18,2.38-1.79.49-.37,1-.75,1.45-1.13.72-.57,1.44-1.15,2.14-1.73.52-.43,1-.86,1.52-1.29.67-.57,1.34-1.14,2-1.73s1.05-.95,1.57-1.44.93-.84,1.39-1.28l.45-.45c.45-.44.9-.9,1.34-1.35.59-.59,1.17-1.17,1.74-1.77s1.1-1.19,1.65-1.79.86-1,1.28-1.43c.63-.72,1.25-1.46,1.86-2.2l1-1.17c.63-.78,1.24-1.59,1.85-2.4.3-.38.59-.77.88-1.16.58-.77,1.14-1.57,1.7-2.38.32-.46.64-.91,1-1.38.49-.73,1-1.48,1.46-2.23.37-.58.75-1.16,1.11-1.75s.81-1.34,1.21-2,.85-1.46,1.27-2.19.67-1.2,1-1.81c.18-.33.37-.65.54-1s.43-.87.66-1.3c.42-.82.84-1.66,1.26-2.5s.79-1.63,1.17-2.45.7-1.5,1-2.27c.43-1,.85-1.93,1.26-2.9l.8-1.92c.46-1.15.92-2.29,1.36-3.45l.6-1.58c.49-1.32,1-2.64,1.43-4l.45-1.33c.51-1.47,1-2.95,1.46-4.44l.36-1.16c.52-1.66,1-3.32,1.49-5l.24-.86c.58-2,1.14-4.09,1.66-6.14a330,330,0,0,0,8.2-44.44A351.85,351.85,0,0,0,563.48,392a355.71,355.71,0,0,0-12-86.83,7.77,7.77,0,0,0-3.77-4.87,8.29,8.29,0,0,0-1.46-.66,7.87,7.87,0,0,0-4.66-.09c-21.85,6.17-43.63,5.18-64-3.94-2.35-1.06-4.69-2.19-7-3.47a97.38,97.38,0,0,1-19-13.67,59.61,59.61,0,0,1-6.39-6.62,7.88,7.88,0,0,0-3.59-2.58l-.38-.11c-.15,0-.31-.1-.47-.13a8.3,8.3,0,0,0-1.81-.2,7.83,7.83,0,0,0-6.26,3,60.44,60.44,0,0,1-6.38,6.62c-.42.38-.87.74-1.3,1.12a45,45,0,0,0-21.66-3.75,126.14,126.14,0,0,0-14.54-9.46A22.74,22.74,0,0,0,382,250.75a20.9,20.9,0,0,0-12.88-5.67,249.35,249.35,0,0,1,11.15-41.51c5.33-15.1,11.64-29.87,18.24-44.45,3.65-8,7.39-16,11.15-24A76,76,0,1,0,283.58,77.91a77.49,77.49,0,0,0,.51,8.88,34.74,34.74,0,0,1-5.16,6.73c-2.82,3.06-5.86,6-8.93,8.75C264.79,107,259.39,111.52,254,116q-2.13,1.75-4.27,3.48c-6.34,5.14-12.82,10.17-18.68,15.86-4.07,3.95-8.86,9.15-9.36,15.06a11.11,11.11,0,0,0,.54,4.58c3.42,10.2,18.23,9.53,26.82,9a100.33,100.33,0,0,0,10.36-1.27l1.17.2c18.42,2.8,35.45-1.72,53-6.79q10.44-3,20.76-6.47a75.29,75.29,0,0,0,15.37,3.67c-8.85,12.45-17.15,25.42-24.8,38.63-4.68,8.08-9.14,16.31-13.25,24.7-3.59,7.31-6.95,14.78-9.85,22.39a17.8,17.8,0,0,0-4.21.26c-14.72,2.43-19.57,11.85-21,25.29A111.79,111.79,0,0,0,252,274.88a224.82,224.82,0,0,0-26.74,17.52,296.58,296.58,0,0,0-26.38,22.42,195.25,195.25,0,0,0-19.45,21.11c-4.42,5.72-9.11,11.22-13.42,17-3.47,4.69-6.57,9.59-8,15.32-2.81,11.47,2.3,23.77,6.89,34.1a199.73,199.73,0,0,0,15.27,27.28l.24.36a9.83,9.83,0,0,0-6.75,9.73c-4.08.17-7.9,1.75-9.86,5.59-2.44,4.77-.34,9.64,2.63,13.59a51.74,51.74,0,0,0,5,5.51,197.46,197.46,0,0,0,17.82,15.23c5.42,4.24,10.95,8.33,16.53,12.37a23.16,23.16,0,0,0,5.11,4.08c1.24.77,2.48,1.53,3.74,2.26l.6.42a8,8,0,0,0,2.24,1.13c5.72,3,13.1,5.65,19.34,2.81a74.07,74.07,0,0,0,9.55-5.58,77.94,77.94,0,0,0,15.57,32.58,65.17,65.17,0,0,0,10.46,10.21V540c0,8.71,7.34,14.84,14.89,17.77q7.42,25.13,14.86,50.25a32.51,32.51,0,0,0-5.65,11.7l-.06.22c-5.77-.64-11.64-1-17.42-1.28-6.42-.34-12.84-.57-19.26-.87-5.43-.24-10.88-.41-16.31-.27a85.06,85.06,0,0,0-15,1.49h0l-.32.06-.18,0-.26.06-.21,0-.24,0-.24.06-.21,0-.44.11-.47.12-.8.22-.8.22-.8.23-.81.23-.81.25-.8.24-.81.26-.81.26-.81.27-.81.27-.81.28-.8.29-.81.3-.8.3-.8.32-.8.32c-.27.1-.53.21-.8.33l-.79.33-.79.35-.79.35-.78.37-.78.37-.77.38-.77.39-.77.4-.75.41-.75.42-.75.44-.74.44-.73.45-.72.46-.72.47-.7.49-.7.49-.69.51c-.23.17-.46.34-.68.52s-.45.35-.67.53l-.66.54-.65.55-.64.57-.63.58-.61.59-.61.6c-.19.21-.39.41-.59.62l-.57.63c-.2.21-.38.43-.57.64l-.55.66-.54.67-.52.69-.51.69-.49.72-.48.72-.46.74c-.15.25-.3.5-.44.76s-.29.51-.42.76-.28.52-.41.79-.27.53-.39.8-.26.53-.38.81-.24.55-.35.82-.23.56-.33.84-.22.57-.32.86-.2.58-.29.87-.19.59-.28.89-.17.59-.25.9c-1.22,4.53-2.42,9.06-3.64,13.59a8.28,8.28,0,0,0-.23,3.23H12a3.81,3.81,0,1,0,0,7.61Zm-90.18-8.66H237.13a30.7,30.7,0,0,1,2.55-6.91c4.07-7.86,11.21-12.59,18.87-15.07a45.88,45.88,0,0,1,22.43-1.4,24.66,24.66,0,0,1,4.27,1.26,40.4,40.4,0,0,1,2.18,4.26h0c.07.16.14.33.2.49.14.31.26.61.39.93s.23.57.34.86.24.64.35,1,.22.63.32.94l.33,1c.1.33.2.68.3,1s.2.65.29,1l.3,1.16.24,1c.11.43.2.87.3,1.32s.13.61.2.92q.15.78.3,1.59c.05.26.1.51.14.77.14.81.28,1.63.4,2.48A7.2,7.2,0,0,1,291.9,667.89Zm119.16,1.05H351.43a.19.19,0,0,1,0-.07,121.89,121.89,0,0,0,.72-17.3,113.69,113.69,0,0,0-1.8-18c-1.95-10.37-6-21.28-14.43-28.11a32.46,32.46,0,0,0-2.88-2.09l-11.83-48.9c4.11-2.86,7.4-6.91,8.27-11.83a113.7,113.7,0,0,0,25.84,3.09h.49a122.61,122.61,0,0,0,23.86,20.24l1.15.77.77.49a267.23,267.23,0,0,0,26.75,14.9q3.19,11.13,6.31,22.28c2.3,8.27,4.57,16.55,6.74,24.85a11,11,0,0,0-2.44,2.19c-3.63,4.4-2.87,10-1.78,15.16.76,3.59,1.65,7.16,2.33,10.78-.74.86-1.45,1.76-2.12,2.68A18.11,18.11,0,0,0,411.06,668.94ZM435.67,595a8.56,8.56,0,0,0,1.59.55l6.51,32.4a8.82,8.82,0,0,0-1.77,2.79,5.68,5.68,0,0,0-.29,3.36l3.21,16-3,.79c-.5-2.1-1.05-4.19-1.63-6.23a65.64,65.64,0,0,0-2.36-7.21l-.08-.2c-.15-.35-.3-.7-.47-1l-.06-.13c-.17-.36-.35-.72-.54-1.07l-.12-.23c-.2-.35-.4-.69-.61-1l-.08-.13c-.2-.31-.41-.6-.63-.89l-.1-.14a9.9,9.9,0,0,0-.73-.85l-.16-.17a8,8,0,0,0-.8-.74l-.08-.07a9.49,9.49,0,0,0-.83-.58l-.16-.1a9,9,0,0,0-.94-.45l-.21-.08a7,7,0,0,0-1-.29h0c-.23,0-.47,0-.71-.06-.11-.43-.22-.86-.34-1.29l-.15-.6c-.2-.76-.4-1.53-.6-2.32-.08-.28-.15-.58-.23-.87-.13-.51-.27-1-.41-1.55s-.21-.81-.32-1.22-.23-.86-.34-1.29l-.36-1.37c-.11-.41-.23-.83-.34-1.25l-.39-1.45-.33-1.25c-.26-.94-.51-1.89-.78-2.87-.12-.43-.23-.86-.35-1.3s-.31-1.11-.46-1.67-.23-.86-.35-1.3l-.48-1.75-.39-1.38-.48-1.77c-.15-.54-.3-1.09-.46-1.63-.25-.9-.5-1.82-.76-2.74-.18-.68-.37-1.35-.56-2s-.32-1.13-.48-1.7-.35-1.24-.53-1.88-.32-1.13-.48-1.71-.4-1.41-.6-2.13c-.15-.51-.29-1-.43-1.52l-.18-.62.11.06q3.53,1.68,7.21,3.39h0C428.65,591.79,432.1,593.39,435.67,595Zm-6.81,73.91c-3-3.35-7.63-3.53-10.76-.19-.05.06-.09.13-.15.19H417c2.05-3.61,5.52-5.8,9.33-5.37a10.42,10.42,0,0,1,7.61,5.37Zm18.72-36s.6-1.54,1.91-1.47h0a1.62,1.62,0,0,1,.5.11l.11,0a2.91,2.91,0,0,1,.46.24l.08,0,.18.14.21.17c.11.09.22.2.34.31s.14.13.21.21.26.3.4.47l.19.22c.2.27.41.56.63.88,3.65,5.5,4.38,21.13,4.38,21.13l1.24.93.43.33,1,.74.46.35,1.15.88.4.3,3.39,2.63.47.36,1.36,1.07.57.45,1.45,1.15.5.4q2,1.58,4.07,3.28l.58.48.18.14H437.79c-1.93-4.68-5.48-8.2-9.8-9.24-2.13-15.15-7.71-24.53,1-24.53,3.81,0,8.41,23.13,8.41,23.13l14.48-3.8ZM439,276.81s38.87,49,104.78,30.42c18.09,67.5,12.54,129.63,1.48,172.65-16.86,65.53-44.71,79.49-106.26,107.9-64-29.51-90.72-43.68-107.27-111.9-10.38-42.82-15.05-103.21,2.48-168.65C400.14,325.82,439,276.81,439,276.81Zm-53.1-2.93q4.54,2.6,8.9,5.6c-2.19.85-3.45,1.91-3.3,3a21.47,21.47,0,0,1,2.46-.81c6.63-1.72,14.86-.52,24.18,3.52a97.85,97.85,0,0,1-10.78,6.94c-22,12.12-45.89,14.21-69.91,7.69,13.35-.59,27.93-4,38.64-12.13A27.07,27.07,0,0,0,385.92,273.88Zm2.7-109.79a57.52,57.52,0,0,0-14.55-5.56,80.21,80.21,0,0,0-18-2.29q1.41-2,2.83-3.9A86.43,86.43,0,0,1,375,154.67a62.11,62.11,0,0,1,15.25,5.76ZM296.83,61.63c1.45-4.56,4.56-7.64,6.95-6.88s3.15,5.07,1.7,9.63-4.56,7.64-7,6.88S295.38,66.19,296.83,61.63ZM248.46,156c-37.61,2.54-11-16.05,10.56-33.8C275.5,108.59,288.08,97,291.45,89.91a49.94,49.94,0,0,1,5.28-8.85s0-.07,0-.1a6.63,6.63,0,0,1,3-3.28c4.84-4.58,9.87-5.38,14.25-2.42,16.11,10.88,17.28,25.15,43.63,23.13a17.57,17.57,0,0,0-1.68,14.48c-1.56,1.19-2.83,2.17-3.55,2.8C341.25,125.45,281.67,153.73,248.46,156ZM359.36,83.5a11,11,0,1,1,11-11A11,11,0,0,1,359.36,83.5ZM372.78,94a13.48,13.48,0,1,1-13.48,13.48A13.48,13.48,0,0,1,372.78,94Zm-61.47,54.4c-10.07,2.92-20.11,5.74-30.35,6.84,5.8-1.8,11.43-3.79,16.65-5.74a350.5,350.5,0,0,0,42.57-19.09,120.81,120.81,0,0,0,13.59-8.21,22.34,22.34,0,0,0,4.71-4.32,17.66,17.66,0,0,0,13.39,7.24C359.42,133,332.51,142.26,311.31,148.39ZM344,144.11c7.21-2.6,14.4-5.42,21.24-8.64,6-2.81,16.26-7.89,18.86-14.34,0,0,0,0,0-.06a17.83,17.83,0,0,0,4.52-5.74,17.67,17.67,0,0,0-23.09-24h0c12.59-9.22,21.24-26.47,11.85-37-11-12.32-41.51-22.51-64.5-21.84-.7,0-2.58.32-4.44.63l.45-.5,1-1.11c.35-.38.72-.76,1.08-1.14L312,29.33l1.17-1.11,1.05-1,1.31-1.13,1-.85c.61-.51,1.24-1,1.87-1.47.34-.26.68-.52,1-.77.63-.47,1.27-.93,1.93-1.38l1-.67c.51-.34,1-.67,1.56-1l1.13-.68c.51-.3,1-.6,1.54-.88l1.18-.64,1.6-.82c.39-.19.78-.39,1.18-.57.57-.27,1.14-.53,1.72-.78l1.11-.49c.69-.29,1.39-.56,2.09-.82l.81-.32c1-.35,2-.68,2.95-1,.27-.09.54-.16.81-.24q1.1-.33,2.22-.63l1.14-.28c.65-.16,1.3-.31,2-.45l1.24-.25c.64-.12,1.28-.24,1.93-.34l1.27-.2c.66-.1,1.32-.18,2-.25L353,10.2c.73-.07,1.46-.12,2.19-.16L356.3,10c1.09-.05,2.18-.08,3.29-.08s2.24,0,3.35.09c.37,0,.73,0,1.1.07.74.05,1.48.1,2.21.17l1.29.15,2,.25,1.35.22c.63.11,1.25.21,1.87.33l1.37.29,1.8.42,1.36.35c.59.16,1.18.32,1.76.5s.89.26,1.33.41,1.17.38,1.75.59c.43.15.86.29,1.28.45.59.22,1.17.46,1.75.69l1.21.49,1.83.83,1.05.49c.78.38,1.55.77,2.31,1.18l.5.26c.91.49,1.81,1,2.7,1.55.33.2.65.41,1,.62.56.35,1.12.7,1.67,1.07l1.11.77c.48.34,1,.67,1.45,1l1.13.86c.45.35.9.69,1.34,1l1.12.94c.42.36.84.72,1.25,1.09s.74.66,1.1,1,.8.74,1.19,1.12l1.06,1.06c.38.39.75.78,1.12,1.18s.69.73,1,1.1l1.07,1.23c.32.38.65.76,1,1.15s.67.86,1,1.29.62.78.91,1.18.67.94,1,1.41q.67,1,1.32,1.95c.38.57.75,1.14,1.11,1.73.27.44.52.9.78,1.34s.54.91.79,1.37.5.95.75,1.43.47.9.7,1.36.46,1,.69,1.48l.63,1.38c.22.51.42,1,.63,1.53s.38.94.56,1.41l.57,1.56.48,1.44c.18.53.34,1.06.5,1.6s.28,1,.42,1.46.3,1.08.43,1.63.23,1,.35,1.49.25,1.1.36,1.66.18,1,.27,1.52.2,1.12.28,1.68l0,.14v0A68,68,0,0,1,344,144.11ZM345.28,172a55.33,55.33,0,0,1,15,1.72,72.2,72.2,0,0,1,20.51,8.83c-.51,1.25-1,2.5-1.51,3.75a69.2,69.2,0,0,0-20-8.72,49.9,49.9,0,0,0-16.7-1.43Q343.93,174.09,345.28,172ZM330,197a119.64,119.64,0,0,1,21.19,2.72,102.31,102.31,0,0,1,20.63,7c-.42,1.27-.84,2.54-1.24,3.81a98.48,98.48,0,0,0-20.24-6.88,116.85,116.85,0,0,0-22.56-2.7Q328.87,198.93,330,197Zm-14.3,27.24c.35-.75.71-1.5,1.07-2.25,3.6,1.09,9,2.26,15,3.38,11.53,2.14,25.15,4,33.22,4.85q-.47,2-.9,3.9c-8.26-.88-21.67-2.73-33-4.84a140.22,140.22,0,0,1-16-3.73C315.27,225.09,315.48,224.65,315.69,224.22Zm-9,21.47c5.14,3.14,14,5.36,23.51,6.52,11.24,1.38,23.2,1.24,30.86-.58-.16,1.37-.32,2.75-.45,4.13-8.26,1.65-20,1.75-30.9.41-9.44-1.15-18.41-3.41-24.3-6.71C305.85,248.2,306.28,246.94,306.72,245.69ZM284.37,267c.85-10.57,3-18,14.48-19.86a9.79,9.79,0,0,0-1.3,4.52,3.22,3.22,0,0,1,.43,2.19,10.13,10.13,0,0,0,2.82,8c5.32,4.66,18.23,9.64,32.79,10.16,11.72.42,27.47-1.79,31.3-10.21,1.56-3.44.94-8.75,1.45-8.79,14.49-1,21,18.61,6.15,29.88C345.18,303.65,282.27,293.31,284.37,267ZM206.73,481.57a7.18,7.18,0,0,0-.58.89c-18.27-13.43-45.32-34.75-31.76-34.75,9.3,0,20.71,6.34,29.58,13.1l2.81,2.11c1.06,1.35,2.11,2.69,3.19,4C206.52,470.35,205.29,476,206.73,481.57Zm-21.2-44.22a21.41,21.41,0,0,1,2.46.35c2.43,3.51,4.94,7,7.47,10.43a58.32,58.32,0,0,0-12.67-5.22C180.79,439.24,181.2,437,185.53,437.35ZM210.86,484c-3-5.86-1.64-12.77,3-15.44s10.86-.07,13.86,5.78,1.64,12.77-3,15.43S213.86,489.87,210.86,484ZM247.32,487h0l-.53.35,0,0L245,488.48l-.12.08-1.8,1.17-.1.06L241.15,491a.57.57,0,0,0-.13.08l-1.67,1.05-.22.13-1.51.92-.21.13-1.37.81-.18.1c-.44.25-.85.48-1.23.68l-.1.06c-.4.21-.76.39-1.07.53a4.35,4.35,0,0,1-.88.3c-.1,0-.22,0-.32.06s-.42.08-.63.1a3,3,0,0,1-.42,0c-.2,0-.4,0-.61,0l-.46,0-.62-.06-.49-.08-.63-.12-.52-.12-.66-.18-.51-.15L226,495l-.5-.18-.19-.07-.38-.15-.83-.34-.22-.09h0l.06,0a10.46,10.46,0,0,0,1.51-.54,8.52,8.52,0,0,0,1-.47,11.48,11.48,0,0,0,1.39-1l.34-.29a10.11,10.11,0,0,0,1-1l.15-.16a12.16,12.16,0,0,0,1-1.37c.08-.12.15-.24.22-.37a13.6,13.6,0,0,0,.65-1.26c0-.11.1-.21.14-.32a13.34,13.34,0,0,0,.56-1.65c0-.13.07-.26.1-.39a14.27,14.27,0,0,0,.28-1.45c0-.15,0-.29.07-.44a18.32,18.32,0,0,0,.13-1.83c0-.11,0-.22,0-.34,0-.52,0-1.05-.08-1.59,0-.19,0-.38-.07-.57s-.08-.6-.14-.9-.08-.45-.13-.68-.15-.62-.23-.93-.11-.42-.18-.64-.23-.68-.36-1c-.06-.18-.12-.36-.19-.53-.21-.52-.44-1-.7-1.54s-.65-1.16-1-1.71l-.31-.45q-.44-.63-.9-1.2c-.1-.11-.19-.23-.28-.34q-.62-.7-1.26-1.32l-.3-.26c-.36-.32-.73-.62-1.1-.9l-.41-.3a15.74,15.74,0,0,0-1.34-.84l-.13-.07a12.85,12.85,0,0,0-1.51-.7l-.43-.15c-.4-.14-.81-.26-1.22-.36a2.6,2.6,0,0,0-.4-.1,11.88,11.88,0,0,0-1.57-.23h-.44c-.3,0-.59,0-.88,0l-.53.05-.8.1-.19,0h0l-.31-.38-.54-.67-.59-.74-1.15-1.42-.67-.85-.59-.74-.54-.68-.3-.39-.74-.93-.8-1c-.26-.35-.54-.69-.81-1.05l-.8-1-.88-1.14-.81-1.06-.91-1.19-.91-1.2-.86-1.13-1.49-2-.93-1.26-1.2-1.63-.78-1.06-.89-1.23-.15-.2c-.91-1.26-1.83-2.55-2.75-3.85l-.57-.82q-1.26-1.79-2.52-3.62l-.29-.42-.09-.14c-.83-1.2-1.64-2.41-2.46-3.63-.21-.33-.43-.66-.65-1-.63-1-1.25-1.91-1.87-2.88l-.69-1.06q-1.2-1.87-2.37-3.75l-.24-.4c-.7-1.13-1.38-2.25-2.05-3.38-.21-.37-.43-.73-.65-1.1-.59-1-1.16-2-1.73-3-.16-.28-.32-.56-.47-.84-.69-1.23-1.36-2.46-2-3.68l-.46-.89c-.5-1-1-1.92-1.46-2.87-.18-.35-.35-.7-.52-1-.58-1.21-1.15-2.41-1.68-3.59-.44-1-.86-2-1.26-2.92-.13-.3-.25-.59-.38-.88-.26-.63-.52-1.25-.76-1.85l-.4-1c-.21-.53-.42-1.06-.61-1.57-.13-.35-.26-.68-.38-1s-.35-.95-.51-1.41l-.33-1c-.15-.44-.29-.88-.42-1.3s-.2-.63-.29-.94-.24-.83-.35-1.23-.16-.6-.23-.88-.19-.8-.28-1.19-.13-.54-.18-.81-.15-.79-.22-1.18l-.12-.7c-.06-.45-.11-.88-.15-1.32,0-.16,0-.32-.06-.48q-.07-.87-.09-1.71c0-.13,0-.26,0-.4,0-.42,0-.83,0-1.24,0-.2,0-.4.05-.6s0-.66.09-1,.07-.43.1-.64.1-.61.16-.91.1-.43.15-.65.14-.57.22-.86.13-.44.2-.65.18-.57.28-.85l.24-.65c.12-.28.23-.56.36-.84l.17-.41h0c3-6.68,9.42-13.5,18.5-25.24,18.35-23.7,62.27-60.52,93-68.59.14.72.3,1.43.51,2.13,3,9.92,12.48,16.21,21.6,19.84a87.89,87.89,0,0,0,30.31,5.71,7.92,7.92,0,0,0-.85.38,7.76,7.76,0,0,0-3.76,4.87A351.25,351.25,0,0,0,317,354.81l-41.17-3.6-23.56,25.61c-2.92-.15-11.64-1.25-24.83-6.66,5.21-38.24,22.71-70.58,47.91-90.2-10,3.9-18.94,9.26-23.64,15.25-2.11,2.69-4.1,5.48-6,8.34-.35.52-.69,1.05-1,1.58-.62,1-1.22,1.92-1.81,2.9-.32.51-.63,1-.94,1.54-.68,1.15-1.33,2.31-2,3.48l-.57,1q-1.23,2.26-2.37,4.57c-.21.41-.4.82-.59,1.23q-.84,1.72-1.65,3.48l-.74,1.68c-.46,1.05-.92,2.11-1.36,3.18-.24.57-.47,1.15-.7,1.73-.46,1.13-.89,2.27-1.32,3.42l-.55,1.47q-.88,2.44-1.7,4.92c-.06.18-.11.36-.17.54-.47,1.48-.93,3-1.36,4.46-.16.55-.31,1.1-.47,1.66-.32,1.14-.63,2.28-.92,3.43-.16.61-.32,1.22-.47,1.83-.28,1.14-.54,2.29-.8,3.43-.13.57-.26,1.15-.38,1.72-.3,1.4-.58,2.79-.84,4.19l-.18.93c-.31,1.71-.59,3.43-.85,5.14-.07.47-.13.94-.2,1.4-.13.93-.25,1.86-.37,2.79l-.34-.27-.64-.48c-.37-.28-.76-.56-1.16-.84l-.68-.47-1.35-.87-.64-.4c-.68-.42-1.39-.83-2.14-1.25s-1.45-.76-2.21-1.13l-.31-.15c-.73-.34-1.49-.67-2.27-1l-.42-.17c-.77-.31-1.57-.6-2.38-.87l-.39-.13c-.84-.27-1.69-.54-2.56-.77l-.16,0c-.86-.23-1.72-.44-2.59-.62l-.27-.06c-.86-.18-1.72-.32-2.58-.45l-.44-.06c-.84-.12-1.68-.2-2.51-.26-.14,0-.29,0-.44,0-.84,0-1.67-.08-2.49-.07a27.36,27.36,0,0,0-2.9.18l-8.23,2.22c8.72.84,15.14,1.08,23.33,4.78,7.63,3.45,12.64,7.51,16.24,12.82a5.9,5.9,0,0,0,1.56,2.55,50.57,50.57,0,0,1,4.11,9.88c0,3.18.09,6.38.27,9.61a167.13,167.13,0,0,0,2.3,20.16c-3,.26-5.78,2.32-7.58,5a11.73,11.73,0,0,0-2.26,7.16c.11,1.79,1.46,4.11,2.27,5.72l.72,1.42s0,0,0,0q1.44,2.82,2.87,5.66c.42.82.84,1.65,1.28,2.48h0a1,1,0,0,0,0,.1c.5,1,1,1.93,1.48,2.9.15.29.29.59.43.88.54,1.1,1.07,2.19,1.55,3.28s1,2.21,1.53,3.3.92,2,1.4,2.93c.28.55.58,1.09.86,1.63l.45.88.55,1.05c.08.14.16.27.23.41.26.48.5,1,.76,1.44l.75,1.29c.18.31.37.62.54.92.08.13.15.26.23.38.52.9,1,1.8,1.58,2.68.37.62.77,1.23,1.15,1.84.75,1.18,1.52,2.36,2.31,3.52.31.46.62.93.94,1.39,1.1,1.58,2.22,3.14,3.38,4.68l.06.08c.22.29.45.56.67.84Zm67.62-72.73a53.46,53.46,0,0,1-1.54,5.88,30,30,0,0,1-2.08,5.07,14.14,14.14,0,0,1-3,4,23.28,23.28,0,0,1-5.91,3.41c-2.12.92-4.37,1.71-6.46,2.4-2.15-1.11-4.45-2.35-6.61-3.71a27.19,27.19,0,0,1-5.95-4.77,17.61,17.61,0,0,1-3-5,39.88,39.88,0,0,1-1.8-6,61.75,61.75,0,0,1-.39-25,35.58,35.58,0,0,0,7-.14A35.05,35.05,0,0,0,294.1,388c.69-.28,1.39-.6,2.08-.93l.61-.31.66.47c.68.47,1.37.91,2,1.31a36.87,36.87,0,0,0,8.82,3.85,35.63,35.63,0,0,0,6.24,1.2Q314.45,403.91,314.94,414.23Zm-.31-25.63a33.75,33.75,0,0,1-5-1,31.8,31.8,0,0,1-7.63-3.33c-.57-.34-1.17-.72-1.76-1.13s-1.18-.84-1.75-1.29l-1.31-1-1.45.82c-.54.31-1.14.62-1.78.93s-1.2.57-1.77.8a30.05,30.05,0,0,1-7.62,2,31.45,31.45,0,0,1-8.05-.09l-2.26-.32-.5,2.24a66.53,66.53,0,0,0-1.66,14.7,65.81,65.81,0,0,0,1.6,14.64,43.77,43.77,0,0,0,2,6.79,22.71,22.71,0,0,0,3.84,6.41,32.18,32.18,0,0,0,7.06,5.72c2.58,1.63,5.39,3.1,7.92,4.4l.93.47,1-.32c2.5-.81,5.28-1.75,7.87-2.87a27.62,27.62,0,0,0,7.21-4.25,19,19,0,0,0,4.15-5.35c0-.07.07-.15.11-.22.2,2.33.41,4.65.66,7-4.62,5.26-11.15,7.54-21.36,10.89-15.67-8.06-22.21-11.84-25.78-27.65a71.23,71.23,0,0,1,2-38.13c16.24,5.63,26.3-4.63,26.3-4.63a27.88,27.88,0,0,0,17.17,9.32C314.73,385.59,314.67,387.09,314.63,388.6Zm1.45-24.68-39.38-3.45-22.31,25.35h-.7l-.41,0-.31,0-.53,0-.41,0-.65-.05-.52-.06-.75-.08-.62-.08-.85-.11-.71-.11-1-.15-.79-.13-1.06-.2-.87-.17-1.15-.24-.95-.2-1.25-.3-1-.25-1.37-.36-1-.28-1.52-.45-1-.31c-.58-.18-1.17-.38-1.77-.58l-.91-.3c-.91-.31-1.84-.64-2.79-1h0l-.06,0c-.77-.29-1.55-.59-2.35-.91l-.59-.25c.07-.9.15-1.79.24-2.68.07-.72.15-1.44.23-2.16h0c.4.16.8.32,1.19.46s.94.36,1.41.52l1.47.52,1.34.43,1.4.44L235,377l1.34.35,1.16.3,1.26.29,1.08.23,1.17.22,1,.18,1.08.17.9.13,1,.12.8.09.91.08.71.05.81,0,.62,0,.7,0h1.53l.51,0h.29l.4,0h.19l.28,0h.07l.13,0h.91l12.59-14,10-11.09h0l24.15,2,16.05,1.3c0,.11,0,.22,0,.32,0,.32-.06.64-.1,1C316.39,360.39,316.25,362.16,316.08,363.92Zm-85.46,65.41c1,.61,2,4.66,2.9,5.39,21.3,18.21,53.71,25.09,86.74,25.5q.48,2.64,1,5.28c-21,0-41.7-2.57-59.26-8.85a157.58,157.58,0,0,1-20.4-9.45c-7.91-4.49-13.69-9.53-16.11-13.82C226.29,431.05,228.82,428.18,230.62,429.33Zm21.91,54.38-.13-.15c-.24-.32-.47-.64-.72-1-.48-.63-1-1.27-1.43-1.91s-1-1.4-1.54-2.12-.93-1.31-1.38-2c-.25-.36-.51-.71-.75-1.08-.4-.59-.8-1.2-1.19-1.8a1.74,1.74,0,0,1-.11-.18c-.35-.53-.67-1.08-1-1.61-.5-.8-1-1.6-1.49-2.41l-.13-.22q-1.52-2.57-2.93-5.22l-.21-.37,0,0c-1.47-2.77-2.85-5.58-4.12-8.47-.42-1-1.4-2.95-2.59-5.32-3.71-7.42-3.79-6,1.76-1.88,22.32,16.71,54.93,22.75,87.8,22.73.51,2.33,1,4.65,1.59,7a237.86,237.86,0,0,0,8.41,27.84q1.77,4.71,3.69,9a.36.36,0,0,1,0,.09c.63,1.4,1.27,2.78,1.92,4.12,0,.06.05.12.08.17a127,127,0,0,0,6.35,11.55v0c.74,1.18,1.49,2.33,2.25,3.47l.1.15c.77,1.13,1.55,2.24,2.35,3.32l-1.12-.09-2.1-.18-2.12-.23c-.71-.08-1.41-.17-2.12-.27s-1.43-.2-2.15-.31l-2.12-.36c-.72-.13-1.44-.26-2.17-.41l-2.12-.43-.95-.2c-.6-.13-1.19-.28-1.78-.43l-.93-.22c-1.19-.3-2.39-.61-3.58-1l-.4-.11h0l-.21-.07c-1.22-.35-2.44-.73-3.66-1.12l-1.14-.37c-1-.34-2-.69-3-1-.3-.11-.61-.21-.91-.33-1.16-.42-2.33-.86-3.49-1.33l-.33-.13-1.07-.44c-1-.4-1.92-.8-2.87-1.22l-1.38-.62-1.23-.54-1.16-.56-2-1c-.73-.36-1.46-.73-2.18-1.11l-2-1c-.3-.17-.61-.32-.91-.48-.81-.44-1.6-.88-2.4-1.34l-.14-.08c-1.24-.71-2.48-1.44-3.71-2.19l-1.2-.74-2.61-1.66-1.36-.9L284,513.33l-1.3-.91L282,512l-1.55-1.16-1.69-1.25c-.73-.56-1.46-1.14-2.18-1.71-.53-.42-1.07-.84-1.59-1.27l-.38-.3c-.3-.24-.59-.51-.88-.75q-1.65-1.38-3.27-2.81L269,501.41c-1-1-2.08-1.92-3.11-2.91-.4-.38-.81-.77-1.2-1.16-1.39-1.36-2.76-2.75-4.09-4.18l-.56-.61q-1.71-1.86-3.38-3.79c-.15-.18-.32-.36-.48-.54-.29-.34-.56-.7-.85-1-.72-.86-1.43-1.72-2.13-2.6C253,484.29,252.76,484,252.53,483.71Zm26.33,51.12-.08-.05c-.74-.53-1.46-1.08-2.18-1.66l-.19-.14-.62-.52c-.37-.31-.73-.61-1.09-.93l-.84-.76c-.35-.31-.69-.63-1-1s-.55-.54-.83-.81-.66-.67-1-1l-.81-.87c-.32-.34-.63-.69-.94-1l-.79-.92c-.3-.36-.6-.72-.89-1.09s-.51-.64-.76-1-.58-.76-.86-1.15-.49-.66-.72-1l-.83-1.21-.68-1c-.27-.42-.53-.85-.79-1.28s-.43-.69-.64-1l-.77-1.36c-.19-.35-.39-.69-.57-1s-.51-1-.77-1.48l-.49-1c-.29-.59-.56-1.19-.83-1.79-.12-.25-.24-.49-.35-.74-.37-.85-.73-1.72-1.07-2.59l-.27-.71c-.24-.65-.49-1.3-.72-2-.12-.35-.22-.7-.34-1-.18-.56-.37-1.12-.54-1.68-.12-.39-.23-.78-.34-1.18l-.45-1.6-.3-1.24c-.13-.53-.26-1-.37-1.58,0-.14-.07-.27-.1-.4l0,0a.13.13,0,0,1,0-.06l.51.59c.8.89,1.62,1.74,2.44,2.61s1.41,1.5,2.13,2.24,1.71,1.68,2.58,2.51,1.46,1.43,2.21,2.12,1.81,1.62,2.72,2.43,1.5,1.34,2.27,2c1,.8,1.92,1.56,2.89,2.34a149.06,149.06,0,0,0,19.91,13.49,147.18,147.18,0,0,0,28,12.46,32.88,32.88,0,0,1-17.35,5h-.18c-.89,0-1.78,0-2.67-.11l-.79-.07c-.65-.07-1.29-.15-1.94-.25l-.8-.13c-.78-.13-1.56-.29-2.33-.48l-.29-.06c-.86-.22-1.73-.48-2.58-.76l-.23-.06-1.05-.38-.64-.23c-.66-.26-1.32-.53-2-.81l-.26-.13c-.57-.25-1.13-.52-1.69-.8l-.64-.34-.93-.48-.31-.19c-.38-.21-.76-.44-1.14-.67s-.46-.26-.68-.4l-.21-.15C280.3,535.82,279.58,535.34,278.86,534.83Zm2.22,8.41a45.43,45.43,0,0,0,15.9,5.2,41,41,0,0,0,5.2.33,39,39,0,0,0,17-3.84l1.28-.65c-2.93,4.67-10.5,8-19.4,8C291.49,552.28,283.47,548.45,281.08,543.24Zm14.51,14.65h0c.59.09,1.2.14,1.81.19.29,0,.57.07.86.09.9.07,1.82.1,2.75.1a36.79,36.79,0,0,0,12.39-2.09l11,45.54a19.5,19.5,0,0,0-10.07.12l-.83.26-.49.16-.94.38-.34.14c-.42.19-.84.4-1.25.62l-.25.14-1,.57-.05,0h0c-.88-3-1.89-6.4-3-10.25q-.86-2.92-1.83-6.21c-.22-.73-.44-1.48-.66-2.24l-.33-1.1c-.33-1.13-.68-2.3-1-3.5C300.41,574.19,298.17,566.6,295.59,557.89Zm-21,69.32h0l2.75.24.17,0c1.76.15,3.44.32,5,.48l.31,0,2.25.23c7.17.76,17.44,1,17.44,1l1.95-7.27c.27-1,.56-1.94.87-2.84,0-.07.05-.16.08-.23l.36-1c.06-.14.11-.29.16-.43s.2-.47.31-.7.17-.41.26-.61h0v0c.27-.61.57-1.17.87-1.72l.18-.33c.3-.52.6-1,.92-1.48l.17-.24c.31-.43.62-.85.94-1.23l.1-.12c.35-.4.7-.77,1.06-1.11a1.31,1.31,0,0,0,.11-.12l.17-.14c.15-.14.31-.27.48-.41l.33-.27.51-.36.33-.23.56-.32.3-.17c.24-.12.48-.24.73-.34l.15-.07a9.37,9.37,0,0,1,.89-.31l.27-.07c.21-.06.43-.11.64-.15l.35-.06.57-.08.39,0,.55,0h.4a5.07,5.07,0,0,1,.55,0l.4,0,.56.07.4.07.58.14.38.1.64.2.32.11c.29.1.57.22.86.34l.1,0c.32.14.64.3,1,.47l.32.17.64.38.39.24.57.38.14.09.22.17c.24.17.47.35.7.53l.36.29c.25.2.5.42.74.64l.28.24c.33.31.67.63,1,1l.19.2c.26.28.53.56.79.86l.33.36.67.8.32.39.72.94a3.55,3.55,0,0,0,.23.31c.31.43.61.86.92,1.32l.2.31.69,1.09.12.19.13.23c.36.6.72,1.22,1.07,1.87l0,0h0c5.82,10.82,9.37,27,7.07,46.54H298.27a13.52,13.52,0,0,0-.12-2.38c-1.25-8.59-3.53-16.77-7.93-23.79l.17-.32c-.18-.11-.38-.2-.56-.31a39.67,39.67,0,0,0-7.31-8.42c-.44-.38-.88-.75-1.34-1.11-1-.77-2-1.49-3-2.17-.34-.23-.69-.43-1-.65-.7-.44-1.41-.88-2.13-1.29l-.46-.25Zm-9,6.3c2.62.1,5.38.33,8.24.65a39.33,39.33,0,0,1,3.55,2.54h0a3.88,3.88,0,0,1,.31.26l.56.47.32.27h0l0,0-1.65-.17-.69-.06c-.93-.07-1.88-.1-2.84-.12h-.65c-.76,0-1.52,0-2.3,0-.35,0-.71,0-1.06.07-.66,0-1.31.09-2,.16l-1.16.13c-.66.08-1.31.18-2,.28l-1.16.2c-.7.13-1.4.28-2.1.44l-1,.23c-1,.26-2.05.54-3.07.87a43.53,43.53,0,0,0-8.12,3.54,35,35,0,0,0-14.09,14.45s0,.08-.07.13c-.38.75-.74,1.52-1.08,2.32-.12.28-.22.57-.33.85-.23.58-.46,1.17-.66,1.77-.12.35-.22.71-.33,1.07-.17.56-.34,1.13-.49,1.72-.1.4-.19.8-.28,1.2s-.14.68-.21,1H205.36c1.21-9.3,7.21-18.09,17.19-24.45C232.93,636.81,247.57,632.82,265.6,633.51Zm-73.19,20.77c3.65-13.6,16.9-21.55,35.54-26.54,6.37-1.71,16.45-2,27-1.71l3.3,1.11c-16,.51-29.2,4.64-39.07,10.94-11.73,7.48-18.78,18-20.14,29.3,0,.16,0,.34-.05.51H188.77Z"/><path class="cls-9" d="M352.43,448l14.89-24.38L439.9,304.72s-31.69,33.81-90,27.47c-4.54,29.51-7.09,58-5.54,78.85a90.35,90.35,0,0,0,2.58,16.64Z"/><path class="cls-6" d="M270.22,306.43c-.76,1.7-1.53,3.39-2.33,5.08-1.7-.74-3.38-1.5-5-2.3.85-1.65,1.68-3.32,2.49-5-.71-.33-1.41-.68-2.11-1l-.24-.11q-2.91,5.78-6.15,11.45l.84.41,1.69.83c.87-1.58,1.73-3.17,2.56-4.77,1.67.8,3.37,1.58,5.09,2.32-.78,1.63-1.59,3.25-2.41,4.86l2.61,1.11q2.89-5.87,5.44-11.83Z"/><path class="cls-6" d="M272.51,313.13l-.95,2.15a4.92,4.92,0,0,0-.14,4.2,5.45,5.45,0,0,0,3.39,2.93,6.33,6.33,0,0,0,4.75-.05,5.38,5.38,0,0,0,3-3.2c.28-.74.55-1.47.82-2.21a5.09,5.09,0,0,0-.2-4.21,5.6,5.6,0,0,0-3.35-2.76,5.69,5.69,0,0,0-7.35,3.15Zm1.64,3.15.93-2.18a4.11,4.11,0,0,1,1.67-2,2.7,2.7,0,0,1,2.39-.18,2.62,2.62,0,0,1,1.73,1.62,3.71,3.71,0,0,1-.12,2.59c-.28.74-.57,1.48-.86,2.21a3.93,3.93,0,0,1-1.72,2.1,3,3,0,0,1-2.55.16,2.58,2.58,0,0,1-1.73-1.67A3.75,3.75,0,0,1,274.15,316.28Z"/><path class="cls-6" d="M285.66,325.64q1.56-4.22,2.95-8.44h.05q1.33,5,2.83,9.94c1,.23,1.93.45,2.89.66q2-6.27,3.63-12.59l-2.7-.59q-1.19,4.28-2.53,8.55h-.07q-1.5-4.94-2.85-9.9l-2.64-.74q-2,6.18-4.39,12.31C283.77,325.11,284.71,325.38,285.66,325.64Z"/><path class="cls-6" d="M300.08,328.94q.75-2.64,1.44-5.3l1.6.28q1.28,3,2.61,5.95c1.23.17,2.45.34,3.69.49-1.3-2.52-2.55-5.05-3.77-7.59,2.08-1.74,4.1-3.51,6.05-5.33-1.15-.13-2.31-.28-3.45-.44q-2.38,2.36-4.92,4.65l-1.24-.22q.66-2.6,1.25-5.2c-.93-.16-1.85-.32-2.76-.5q-1.56,6.33-3.46,12.64C298.1,328.57,299.09,328.76,300.08,328.94Z"/><path class="cls-6" d="M25.39,900H81.16q15.59,0,15.59-15.7V744q0-15.81-15.59-15.81H25.39q-15.27,0-15.26,15.81V884.3Q10.13,900,25.39,900ZM35.82,750.25H71.06V877.94H35.82Z"/><path class="cls-6" d="M190.07,802.18q0-13.5-13.72-13.5a118.82,118.82,0,0,0-17.57,1.75q-8.79,1.44-17.56,2.75v-4.06H116.07v151.4h25.15V900q2.63,0,8.61.22t9.28.22q14.26,0,21.3-3.84,9.66-5.39,9.66-18.88ZM164.82,870.8q0,8.34-8,8.34H141.22V810.52l23.6-.43Z"/><path class="cls-6" d="M222,900h43.37q14.16,0,14.16-13.72V863.11H255.5v18.45H231.9V850.49h40.73l6.92-6.92V802.84q0-13.73-14.16-13.72H222q-14.16,0-14.16,13.72v83.44Q207.86,900,222,900Zm9.88-92.44h23.6v26.57H231.9Z"/><path class="cls-6" d="M371.77,900V802.18q0-13.5-13.72-13.5a114.07,114.07,0,0,0-17.68,1.75q-8.67,1.32-17.45,2.75v-4.06H297.77V900h25.15V810.52l23.6-.43V900Z"/><path class="cls-6" d="M473.44,782.2V743.77q0-15.59-15.59-15.59H406.14q-15.48,0-15.48,15.81V782.2a19,19,0,0,0,2.53,9.85,18.35,18.35,0,0,0,3.06,3.87l51.5,48.75v33.7h-31.4v-35H390.66V884.3q0,15.71,15.48,15.7h51.71q15.58,0,15.59-15.7V843.35q0-8.67-5.6-13.94l-39.65-37.36-11.84-11.17V749.81h31.4V782.2Z"/><path class="cls-6" d="M576.2,884.3V843.35q0-8.67-5.6-13.94L531,792.05l-11.84-11.17V749.81h31.4V782.2H576.2V743.77q0-15.59-15.59-15.59H508.9q-15.48,0-15.48,15.81V782.2a19,19,0,0,0,2.54,9.85,18,18,0,0,0,3.06,3.87l51.49,48.75v33.7h-31.4v-35H493.42V884.3q0,15.71,15.48,15.7h51.71Q576.19,900,576.2,884.3Z"/><polygon class="cls-6" points="625.29 728.18 596.62 728.18 596.62 760.72 596.62 900 622.31 900 622.31 824.03 660.3 824.03 660.3 801.74 622.31 801.74 622.31 750.91 666.77 750.91 666.77 728.18 625.29 728.18"/><path class="cls-4" d="M20.69,967.56a9.53,9.53,0,0,0-7.36,3q-2.74,3-2.75,8.24v8.16q0,5.28,2.74,8.23a9.57,9.57,0,0,0,7.37,2.94,9.84,9.84,0,0,0,7.49-2.94q2.81-3,2.8-8.23v-8.16c0-3.5-.93-6.25-2.81-8.24A9.8,9.8,0,0,0,20.69,967.56Zm6.07,19.37q0,3.93-1.57,5.94a5.38,5.38,0,0,1-4.5,2,5.18,5.18,0,0,1-4.38-2,9.7,9.7,0,0,1-1.53-5.93v-8.22a9.66,9.66,0,0,1,1.52-5.88,5.18,5.18,0,0,1,4.39-2,5.4,5.4,0,0,1,4.49,2,9.32,9.32,0,0,1,1.58,5.88Z"/><path class="cls-4" d="M45.83,968h-10v29.68h4.24V985.93h5.74a9,9,0,1,0,0-17.94Zm3.63,13.15a4.24,4.24,0,0,1-3.63,1.65H40.09V971.13h5.74a4.22,4.22,0,0,1,3.64,1.66A6.93,6.93,0,0,1,50.69,977,6.74,6.74,0,0,1,49.46,981.14Z"/><polygon class="cls-4" points="63.72 983.87 75 983.87 75 980.73 63.72 980.73 63.72 971.13 76.67 971.13 76.67 967.99 59.48 967.99 59.48 997.67 76.79 997.67 76.79 994.53 63.72 994.53 63.72 983.87"/><polygon class="cls-4" points="96.63 989.97 96.5 990.01 84.98 967.99 80.74 967.99 80.74 997.67 84.98 997.67 84.98 975.63 85.1 975.59 96.63 997.67 100.85 997.67 100.85 967.99 96.63 967.99 96.63 989.97"/><path class="cls-4" d="M125.74,981.06a12.69,12.69,0,0,1-4.56-2.36,4.19,4.19,0,0,1-1.37-3.19,4.53,4.53,0,0,1,4.92-4.81,4.76,4.76,0,0,1,3.86,1.63,6.33,6.33,0,0,1,1.36,4.22H134l0-.12a8.31,8.31,0,0,0-2.5-6.27,9.11,9.11,0,0,0-6.79-2.6,9.69,9.69,0,0,0-6.63,2.25,7.29,7.29,0,0,0-2.58,5.75,7,7,0,0,0,2.31,5.47,17.38,17.38,0,0,0,6.67,3.35,10,10,0,0,1,4.23,2.36,5,5,0,0,1,1.22,3.45,4.62,4.62,0,0,1-1.35,3.48,5.17,5.17,0,0,1-3.73,1.29,6.21,6.21,0,0,1-4.29-1.46A5.76,5.76,0,0,1,119,989h-4.07l0,.12a7.68,7.68,0,0,0,2.93,6.64,11.29,11.29,0,0,0,7.11,2.35,10.21,10.21,0,0,0,6.75-2.14,7.16,7.16,0,0,0,2.56-5.8,7.65,7.65,0,0,0-2.17-5.65A14.79,14.79,0,0,0,125.74,981.06Z"/><path class="cls-4" d="M147.85,967.56a9.53,9.53,0,0,0-7.36,3q-2.75,3-2.75,8.24v8.16q0,5.28,2.74,8.23a9.57,9.57,0,0,0,7.37,2.94,9.84,9.84,0,0,0,7.49-2.94q2.81-3,2.8-8.23v-8.16c0-3.5-.93-6.25-2.81-8.24A9.8,9.8,0,0,0,147.85,967.56Zm6.07,19.37q0,3.93-1.57,5.94a5.38,5.38,0,0,1-4.5,2,5.17,5.17,0,0,1-4.38-2,9.7,9.7,0,0,1-1.53-5.93v-8.22a9.66,9.66,0,0,1,1.52-5.88,5.18,5.18,0,0,1,4.39-2,5.4,5.4,0,0,1,4.49,2,9.39,9.39,0,0,1,1.58,5.88Z"/><path class="cls-4" d="M177.66,988.56q0,3.3-1.48,4.85a5.34,5.34,0,0,1-4.07,1.55,5.09,5.09,0,0,1-4-1.61,6.93,6.93,0,0,1-1.46-4.79V968h-4.2v20.57q0,4.61,2.66,7.07a9.75,9.75,0,0,0,7,2.47,10.07,10.07,0,0,0,7.07-2.47q2.7-2.46,2.7-7.07V968h-4.22Z"/><path class="cls-4" d="M205.77,992.82v-2.59a9.05,9.05,0,0,0-1-4.46,5.64,5.64,0,0,0-3.29-2.56,7.34,7.34,0,0,0,3.16-2.71,7.46,7.46,0,0,0,1.1-4.06,8.1,8.1,0,0,0-2.36-6.25,9.46,9.46,0,0,0-6.68-2.18h-9.46v29.66h4.24v-12.8h5.74a3.83,3.83,0,0,1,3.18,1.45,6.16,6.16,0,0,1,1.16,3.94v2.51a20.1,20.1,0,0,0,.2,2.87,3.32,3.32,0,0,0,.91,2H207v-.47a3.69,3.69,0,0,1-1-1.84A10.74,10.74,0,0,1,205.77,992.82Zm-5.5-12.45a4.85,4.85,0,0,1-3.79,1.36h-5V971.15h5.22a4.47,4.47,0,0,1,3.61,1.41,6,6,0,0,1,1.19,4A5.58,5.58,0,0,1,200.27,980.37Z"/><path class="cls-4" d="M216.15,972.76a4.66,4.66,0,0,1,4-2.06,4.77,4.77,0,0,1,3.94,1.54,7.72,7.72,0,0,1,1.32,4.8h4l.06-.12q-.06-4.59-2.46-7t-6.87-2.38a9,9,0,0,0-7,3q-2.64,3-2.64,8.22V987q0,5.26,2.67,8.2a10.42,10.42,0,0,0,13.93.5,9.46,9.46,0,0,0,2.42-6.89l-.06-.12h-4a7.72,7.72,0,0,1-1.27,4.8,4.66,4.66,0,0,1-3.85,1.5,4.8,4.8,0,0,1-4.14-2.06A10.17,10.17,0,0,1,214.7,987v-8.32A10.14,10.14,0,0,1,216.15,972.76Z"/><polygon class="cls-4" points="238.36 983.87 249.64 983.87 249.64 980.73 238.36 980.73 238.36 971.13 251.31 971.13 251.31 967.99 234.12 967.99 234.12 997.67 251.43 997.67 251.43 994.53 238.36 994.53 238.36 983.87"/><path class="cls-4" d="M274.34,981.06a12.55,12.55,0,0,1-4.55-2.36,4.2,4.2,0,0,1-1.38-3.19,4.87,4.87,0,0,1,1.28-3.46,4.8,4.8,0,0,1,3.65-1.35,4.74,4.74,0,0,1,3.85,1.63,6.34,6.34,0,0,1,1.37,4.22h4.07l0-.12a8.31,8.31,0,0,0-2.5-6.27,9.11,9.11,0,0,0-6.79-2.6,9.72,9.72,0,0,0-6.63,2.25,7.29,7.29,0,0,0-2.58,5.75,7,7,0,0,0,2.32,5.47,17.26,17.26,0,0,0,6.66,3.35,10.1,10.1,0,0,1,4.24,2.36,5,5,0,0,1,1.21,3.45,4.62,4.62,0,0,1-1.35,3.48,5.17,5.17,0,0,1-3.73,1.29,6.23,6.23,0,0,1-4.29-1.46,5.76,5.76,0,0,1-1.64-4.51h-4.07l0,.12a7.68,7.68,0,0,0,2.93,6.64,11.29,11.29,0,0,0,7.11,2.35,10.17,10.17,0,0,0,6.75-2.14,7.17,7.17,0,0,0,2.57-5.8,7.66,7.66,0,0,0-2.18-5.65A14.73,14.73,0,0,0,274.34,981.06Z"/><polygon class="cls-4" points="291.63 983.87 302.9 983.87 302.9 980.73 291.63 980.73 291.63 971.13 304.57 971.13 304.57 967.99 287.39 967.99 287.39 997.67 304.7 997.67 304.7 994.53 291.63 994.53 291.63 983.87"/><path class="cls-4" d="M313.3,972.76a4.66,4.66,0,0,1,4.05-2.06,4.79,4.79,0,0,1,3.95,1.54,7.79,7.79,0,0,1,1.31,4.8h4l.06-.12q-.06-4.59-2.46-7t-6.87-2.38a9,9,0,0,0-7.05,3q-2.64,3-2.64,8.22V987q0,5.26,2.67,8.2a9.23,9.23,0,0,0,7.14,2.93,9.11,9.11,0,0,0,6.79-2.43,9.46,9.46,0,0,0,2.42-6.89l-.06-.12h-4a7.79,7.79,0,0,1-1.26,4.8,4.7,4.7,0,0,1-3.86,1.5,4.8,4.8,0,0,1-4.14-2.06,10.18,10.18,0,0,1-1.47-5.94v-8.32A10.22,10.22,0,0,1,313.3,972.76Z"/><path class="cls-4" d="M345.93,988.56q0,3.3-1.48,4.85a5.34,5.34,0,0,1-4.07,1.55,5.09,5.09,0,0,1-3.95-1.61,6.93,6.93,0,0,1-1.46-4.79V968h-4.19v20.57q0,4.61,2.65,7.07a9.75,9.75,0,0,0,6.95,2.47,10.06,10.06,0,0,0,7.07-2.47q2.7-2.46,2.7-7.07V968h-4.22Z"/><path class="cls-4" d="M374,992.82v-2.59a9.05,9.05,0,0,0-1-4.46,5.64,5.64,0,0,0-3.29-2.56,7.34,7.34,0,0,0,3.16-2.71,7.46,7.46,0,0,0,1.1-4.06,8.1,8.1,0,0,0-2.36-6.25A9.46,9.46,0,0,0,365,968H355.5v29.66h4.24v-12.8h5.74a3.83,3.83,0,0,1,3.18,1.45,6.16,6.16,0,0,1,1.16,3.94v2.51a20.1,20.1,0,0,0,.2,2.87,3.32,3.32,0,0,0,.91,2h4.36v-.47a3.69,3.69,0,0,1-1-1.84A10.74,10.74,0,0,1,374,992.82Zm-5.5-12.45a4.85,4.85,0,0,1-3.79,1.36h-5V971.15H365a4.47,4.47,0,0,1,3.61,1.41,6,6,0,0,1,1.19,4A5.58,5.58,0,0,1,368.54,980.37Z"/><rect class="cls-4" x="380.05" y="967.99" width="4.22" height="29.69"/><polygon class="cls-4" points="387.65 971.13 395.42 971.13 395.42 997.67 399.66 997.67 399.66 971.13 407.47 971.13 407.47 967.99 387.65 967.99 387.65 971.13"/><polygon class="cls-4" points="420.06 982.4 419.93 982.4 413.73 967.99 408.99 967.99 417.82 986.73 417.82 997.67 422.04 997.67 422.04 986.99 430.98 967.99 426.28 967.99 420.06 982.4"/><polygon class="cls-4" points="443.74 997.67 447.97 997.67 447.97 984.46 459.27 984.46 459.27 981.32 447.97 981.32 447.97 971.13 461.09 971.13 461.09 967.99 443.74 967.99 443.74 997.67"/><path class="cls-4" d="M474.1,967.56a9.53,9.53,0,0,0-7.36,3c-1.84,2-2.75,4.74-2.75,8.24v8.16q0,5.28,2.73,8.23a9.61,9.61,0,0,0,7.38,2.94,9.84,9.84,0,0,0,7.49-2.94q2.81-3,2.8-8.23v-8.16q0-5.25-2.81-8.24A9.81,9.81,0,0,0,474.1,967.56Zm6.07,19.37q0,3.93-1.57,5.94a5.41,5.41,0,0,1-4.5,2,5.16,5.16,0,0,1-4.38-2,9.7,9.7,0,0,1-1.53-5.93v-8.22a9.59,9.59,0,0,1,1.52-5.88,5.18,5.18,0,0,1,4.39-2,5.37,5.37,0,0,1,4.48,2,9.32,9.32,0,0,1,1.59,5.88Z"/><path class="cls-4" d="M503.91,988.56q0,3.3-1.48,4.85a5.35,5.35,0,0,1-4.07,1.55,5.09,5.09,0,0,1-3.95-1.61,6.93,6.93,0,0,1-1.46-4.79V968h-4.2v20.57c0,3.07.89,5.43,2.65,7.07a9.79,9.79,0,0,0,7,2.47,10,10,0,0,0,7.06-2.47q2.71-2.46,2.71-7.07V968h-4.22Z"/><polygon class="cls-4" points="529.36 989.97 529.24 990.01 517.71 967.99 513.47 967.99 513.47 997.67 517.71 997.67 517.71 975.63 517.84 975.59 529.36 997.67 533.58 997.67 533.58 967.99 529.36 967.99 529.36 989.97"/><path class="cls-4" d="M547.86,968h-8.35v29.68h8.35a10,10,0,0,0,7.91-3.54,13.57,13.57,0,0,0,3.06-9.18v-4.22a13.61,13.61,0,0,0-3.06-9.18A10,10,0,0,0,547.86,968Zm6.75,16.94a12,12,0,0,1-1.85,6.93,5.81,5.81,0,0,1-5,2.67h-4v-23.4h4a5.82,5.82,0,0,1,5,2.66,11.83,11.83,0,0,1,1.85,6.87Z"/><path class="cls-4" d="M570.14,968l-9.35,29.68h4.3l2.21-7.5H577l2.21,7.5h4.31L574.23,968Zm-1.86,18.9,3.83-13h.12l3.8,13Z"/><polygon class="cls-4" points="582 971.13 589.77 971.13 589.77 997.67 594.01 997.67 594.01 971.13 601.82 971.13 601.82 967.99 582 967.99 582 971.13"/><rect class="cls-4" x="605.76" y="967.99" width="4.22" height="29.69"/><path class="cls-4" d="M625.24,967.56a9.55,9.55,0,0,0-7.36,3q-2.75,3-2.74,8.24v8.16q0,5.28,2.73,8.23a9.59,9.59,0,0,0,7.37,2.94,9.87,9.87,0,0,0,7.5-2.94c1.86-2,2.8-4.71,2.8-8.23v-8.16q0-5.25-2.81-8.24A9.82,9.82,0,0,0,625.24,967.56Zm6.08,19.37a9.5,9.5,0,0,1-1.58,5.94,5.38,5.38,0,0,1-4.5,2,5.15,5.15,0,0,1-4.37-2,9.69,9.69,0,0,1-1.54-5.93v-8.22a9.59,9.59,0,0,1,1.53-5.88,5.18,5.18,0,0,1,4.38-2,5.39,5.39,0,0,1,4.49,2,9.32,9.32,0,0,1,1.59,5.88Z"/><polygon class="cls-4" points="656.29 989.97 656.17 990.01 644.64 967.99 640.4 967.99 640.4 997.67 644.64 997.67 644.64 975.63 644.77 975.59 656.29 997.67 660.51 997.67 660.51 967.99 656.29 967.99 656.29 989.97"/></g></svg>