<?xml version="1.0" encoding="UTF-8"?>
<svg id="Layer_1" xmlns="http://www.w3.org/2000/svg" version="1.1" viewBox="0 0 950.56 1344.69">
  <!-- Generator: Adobe Illustrator 29.5.1, SVG Export Plug-In . SVG Version: 2.1.0 Build 141)  -->
  <defs>
    <style>
      .st0, .st1 {
        fill: #20344f;
      }

      .st2 {
        fill: #fff;
      }

      .st2, .st3, .st4, .st5, .st6, .st7, .st8, .st9, .st1, .st10 {
        fill-rule: evenodd;
      }

      .st3 {
        fill: #adc6d0;
      }

      .st4 {
        fill: #b7b6b6;
      }

      .st5 {
        fill: #f8e8b1;
      }

      .st6 {
        fill: #f7e6b1;
      }

      .st7 {
        fill: #eac17e;
      }

      .st11, .st8 {
        fill: #7896b5;
      }

      .st9 {
        fill: #d8e5e9;
      }

      .st10 {
        fill: #878787;
      }
    </style>
  </defs>
  <path class="st1" d="M811.2,675.38c0-16.71-1.49-39.36,8.08-53.81,11.85-17.89,37.33-20.27,56.83-20.71,19.71-.45,42.65,2.21,59.04,14.2,6.99,5.11,18.65,13.96,14.58,24.11-3.86,9.62-19.12,9.65-27.86,10.58-2.48.26-4.98.55-7.43,1-11.91,2.18-23.8,4.66-35.54,7.62-12.45,3.14-44.45,11.92-52.48,22.24-2.27,2.92-5.97,4.02-9.47,2.82-3.5-1.2-5.74-4.35-5.74-8.04Z"/>
  <path class="st3" d="M819.7,675.38c12.34-15.87,61.01-27.12,93.2-33.01,17.76-3.25,45.04-.11,17.22-20.46-9.36-6.85-25.66-13.2-53.83-12.56-59.29,1.35-56.59,24.25-56.59,66.03Z"/>
  <path class="st8" d="M865.86,640.3c-24.08,5.04-33.94.04-31.78-15.3l-12.68,13.95c-.69,3.33-1.1,6.93-1.35,10.8,1.01,5.57,2.17,11.11,3.49,16.6.34,1.41.69,2.84,1.05,4.28,17.27-13.38,59.42-22.98,88.31-28.27,13.01-2.38,31.13-1.33,28.95-8.6-21.43-4.42-52.64,1.64-75.99,6.53Z"/>
  <path class="st1" d="M125.48,750.84c20.08,1.55,41.44,16.42,56.21,29.59,13.63,12.16,27.67,24.03,41.65,35.8l8.25,6.95-34.32,38.69-7.84-6.54c-14.43-12.05-28.69-24.79-42.29-37.76-9.69-9.24-19.67-19.08-28.13-29.45-6.32-7.74-16.06-20.42-9.55-30.68,3.55-5.59,9.82-7.08,16.02-6.6Z"/>
  <path class="st8" d="M124.67,761.33c16.28,1.26,35.4,13.91,50.02,26.95,14.62,13.04,41.87,35.99,41.87,35.99l-20.39,22.98c-14.49-12.1-103.35-88.39-71.5-85.93Z"/>
  <path class="st1" d="M105.11,769c20.14,0,42.58,13.17,58.32,25.16,10.67,8.13,21.55,16.03,32.41,23.9,4.95,3.58,8.38,8.51,9.32,14.61,1.83,11.84-5.71,20.96-11.16,30.41-1.54,2.66-3.87,4.37-6.87,5.02-3,.65-5.83.07-8.34-1.71-15.37-10.94-30.63-21.89-45.51-33.51-10.57-8.25-21.47-17.03-30.98-26.48-7.05-7-18.2-18.63-12.67-29.46,3.04-5.95,9.24-7.93,15.49-7.93Z"/>
  <path class="st8" d="M105.11,779.52c16.33,0,36.36,11.13,51.95,23.01,9.12,6.95,22.82,16.95,32.61,24.05,11.93,8.65.47,22.15-4.78,31.24-15.38-10.95-111.72-78.29-79.78-78.29Z"/>
  <path class="st1" d="M294.99,873.84l40.18,13.7c3.51,1.2,5.96,3.88,6.83,7.48l47.48,196.32c.78,3.24.1,6.36-1.96,8.98-2.06,2.62-4.93,4.01-8.27,4.01h-25.57c-4.73,0-8.75-3-10.09-7.54-20.69-70.01-41.39-140.01-62.09-210.02-1.14-3.87-.11-7.78,2.8-10.57,2.91-2.79,6.86-3.67,10.68-2.37Z"/>
  <path class="st7" d="M291.59,883.8l62.09,210.02h25.57l-47.48-196.32-40.18-13.7Z"/>
  <path class="st1" d="M327.55,909.63c25.89,0,46.88,14.34,46.88,32.04s-20.99,32.04-46.88,32.04-46.88-14.34-46.88-32.04,20.99-32.04,46.88-32.04Z"/>
  <path class="st3" d="M327.55,920.15c20.08,0,36.36,9.64,36.36,21.52s-16.28,21.52-36.36,21.52-36.37-9.64-36.37-21.52,16.28-21.52,36.37-21.52Z"/>
  <path class="st1" d="M309.04,741.56c3.05,0,6.11.19,9.14.58,23.58,2.98,44.09,17.02,58.92,35.09,16.42,20.01,26.39,45.28,29.1,70.96,2.21,20.95-.36,42.72-9.16,61.97-7.82,17.12-20.51,31.88-37.65,40.12-9.35,4.5-19.46,6.75-29.83,6.75-3.05,0-6.11-.2-9.14-.58-23.58-2.98-44.09-17.02-58.92-35.09-16.42-20.01-26.39-45.28-29.1-70.96-2.21-20.95.36-42.72,9.16-61.97,7.82-17.12,20.51-31.88,37.65-40.12,9.35-4.5,19.46-6.75,29.83-6.75Z"/>
  <path class="st8" d="M309.04,752.08c-42.21,0-71.84,43.53-66.18,97.22,5.67,53.69,44.48,97.22,86.7,97.22s71.84-43.53,66.18-97.22c-5.67-53.69-44.48-97.22-86.7-97.22Z"/>
  <path class="st1" d="M179.22,830.96c0-1.51-1.31-4.48-2.16-6.2-6.52-7.68-12.86-15.62-19.05-23.55-13.97-17.87-27.46-36.31-39.82-55.33-9.77-15.05-19.25-31.01-26.55-47.42-7.67-17.25-16.6-38.46-11.91-57.64,2.35-9.58,7.61-17.82,13.42-25.65,7.51-10.13,15.8-19.84,23.53-29.84,35.29-45.58,128.35-123.98,187.33-127.26l7.92-.44,2.6,7.5c4.88,14.08.74,37.42-2.17,51.75-4.76,23.4-11.6,46.84-18.69,69.64-7.5,24.11-15.64,48.01-23.88,71.88-3,8.68-6.02,17.36-8.93,26.07-1.43,4.29-3.3,9.37-4.24,13.78-.61,2.87-.82,6.32-1.03,9.25-.37,5.4-.56,10.83-.71,16.24-.38,14.3-.4,28.65-.33,42.96.12,24.45.51,48.96,1.17,73.41l.16,5.73-4.73,3.24c-6.28,4.29-12.63,8.52-19.01,12.65-5.76,3.73-12.73,8.43-18.94,11.25-13.23,6.02-31-4.41-42.21-11.42-6.4-4-13.76-9.67-11.18-18.41,2.58-8.74,10.96-8.62,17.77-11.37.38-.15,1.17-.49,1.63-.81Z"/>
  <path class="st3" d="M304.59,468.59c-53.43,2.97-143.97,77.18-179.59,123.19-35.62,46.01-47.5,48.98-23.75,102.41,23.75,53.43,84.6,124.68,84.6,124.68,17.97,33.31-33.77,18.46-9.28,33.77,8.91,5.57,24.12,14.47,32.28,10.76,8.16-3.71,36.36-23.01,36.36-23.01,0,0-3.34-123.56,1.11-144.34,4.45-20.78,71.24-189.98,58.26-227.46Z"/>
  <path class="st1" d="M198.27,689.1c-6.69-24.22-15.95-38.59-40-49.45-14.39-6.5-25.67-6.92-40.98-8.4l14.46-3.89c13.95-1.65,31.6,3.1,43.78,9.85,22.66,12.56,29.36,26,37.41,48.99.8,4.05-1.83,7.98-5.88,8.78-4.05.8-7.98-1.83-8.78-5.88Z"/>
  <path class="st1" d="M385.29,449.29c-113.84,0-195.58,112.64-188.06,251.58,15.67,289.78,426.15,339.55,407.79,0-7.51-138.94-105.89-251.58-219.73-251.58Z"/>
  <path class="st1" d="M216.9,749.66c72.53,60.48,226.82,44.82,309.36,15.15,16.97-6.1,47.44-16.12,64.24-4.79,5.46,3.68,8.75,8.93,10.52,15.19.34,1.22.62,2.44.86,3.67,1.3.37,2.55,1.01,3.68,1.91,3.19,2.52,4.6,6.37,3.79,10.35-13.25,65.05-49.02,120.65-112.85,144.9-53.73,20.42-114.62,13.3-166.08-10.32-56.48-25.93-102.67-71.66-127.73-128.68-2.48-5.64-5.6-11.42-8.39-16.94-2.11-4.17-4.23-8.32-6.32-12.5-1.42-2.83-3.79-6.91-4-10.04-.29-4.43,1.5-8.97,3.97-12.58,4.79-7.02,13.57-11.73,21.58-6.6,4.75,3.04,5.27,7.08,7.37,11.28Z"/>
  <path class="st3" d="M212.32,792.8c76.03,173.01,342.52,213.28,386.72-3.76-17.63,8.19,14.3-44.36-69.22-14.33-80.9,29.08-243.05,48.51-320.87-18-1.51-1.29-3.4-8.39-5.09-9.47-3.87-2.48-9.65,5.62-9.39,9.64.05.76,15.17,29.84,17.84,35.93Z"/>
  <path class="st1" d="M259.01,795.22c80.72,28.87,198.8,13.16,267.38-11.17,17.11-6.07,47.92-16.78,64.86-5.54,5.51,3.66,8.86,8.9,10.66,15.18.57,1.98.95,3.98,1.32,6.01.12.66.24,1.54.42,2.26,1.54,2.48,1.94,5.33,1.15,8.24-24.13,88.07-91.09,137.92-181.88,137.92-44.11,0-88.95-16.66-125.48-40.72-41.05-27.03-74.92-65.24-94.75-110.38-2.48-5.64-5.6-11.42-8.39-16.94-1.68-3.31-3.36-6.63-5.04-9.94-1.89-3.75-1.46-7.98,1.14-11.27,2.61-3.29-1.53-10.06,2.55-9.07.28.95.62,1.88,1.03,2.78,3.56,7.88,14.21,17.52,29.2,26.03,12.25,6.95,28.7,14.05,35.83,16.6Z"/>
  <path class="st3" d="M212.32,792.8c39.17,89.12,133.06,144.8,210.6,144.8,83.74,0,148.27-44.51,171.74-130.18-5.07-6.41,6.3-39.36-64.75-14.16-79.92,28.35-238.06,47.52-319.05-13.1-9.75-7.3-9.61-9.73-3.08,3.3,2.08,4.16,3.8,7.65,4.54,9.34Z"/>
  <path class="st8" d="M212.32,792.8c39.17,89.12,133.06,144.8,210.6,144.8,52.17,0,96.87-17.28,128.85-51.01-18.71-.84-1.55,4.05-107.4,21.46-105.85,17.42-207-54.75-232.5-126-1.92-.54-3.74-1-5.54-1.45.44.85.92,1.8,1.45,2.85,2.08,4.16,3.8,7.65,4.54,9.34Z"/>
  <path class="st1" d="M604.18,654.46c-.19.18-.38.36-.58.54-18.39,16.36-52.56,26.91-75.95,33.05-18.13,4.75-36.65,8.57-55.14,11.55-7.07,1.14-14.17,2.16-21.28,2.96-4.57.51-9.43,1.04-14.03,1.04-14.84,0-29.27-17.78-37.54-28.81-6.89-9.19-13.61-19.42-19.48-29.58l-91.15-7.99-35.76,40.64c-2.02,2.3-4.62,3.48-7.64,3.48-5,0-10.65-.79-15.55-1.62-12.74-2.18-25.36-6.03-37.33-10.97-4.26-1.76-6.79-5.98-6.39-10.65,4.4-52.42,22.46-105.43,54.63-146.41,17.89-22.79,70.58-40.38,101.73-37.97,24.06-11.87,15.16-34.93,41.87-34.93,22.54,0,44.76,4,65.99,11.75,81.91,29.94,136.84,109.54,156.69,193.69.9,3.83-.23,7.59-3.07,10.24Z"/>
  <path class="st3" d="M384.58,449.29c-101.18,0-178,90.69-187.99,209.69,28.62,11.83,49.03,11.83,49.03,11.83l39.19-44.53,101.6,8.91s31.93,57.88,50.8,57.88,126.27-16.33,159.65-46.01c.13-.12.26-.25.4-.38-26.63-112.9-111.49-197.4-212.67-197.4Z"/>
  <path class="st8" d="M492.18,685.69c29.4-5.24,55.16-12.25,81.58-24.46-15.48-31.1-29.29-76.19-96.02-106.43,8.69,13.52-10.8,23.44-3.05,43.65,10.73,27.96,18.57,60.75,17.49,87.23Z"/>
  <path class="st8" d="M338.8,631.02l47.6,4.17s31.93,57.88,50.8,57.88c10.12,0,45.69-4.7,81.65-13.62-1.61-4.74-2.86-8.02-2.86-8.02,0,0-65.62,13.5-79.12,10.87-13.5-2.62-46.88-60.75-46.88-60.75,0,0-18,1.12-40.88-3.75-4.02,4.62-7.43,9.02-10.32,13.21Z"/>
  <path class="st1" d="M539.47,176.75c-43.83,96.67-104.23,205.45-99.44,301.3,1.92,38.45-75.46,40.17-103.9,28.2-57.37-24.16,37.39-189.45,98.88-267.61,17.53-22.28,35.08-36.12,42.29-39.27,27.52-12.02,62.18-17.53,62.18-22.62Z"/>
  <path class="st1" d="M522.07,193.62c-10.62,3.1-21.23,6.11-31.62,9.93-3.25,1.2-6.47,2.47-9.65,3.86-4.58,2-11.24,7.68-14.96,10.98-8.71,7.73-16.75,16.53-23.94,25.67-22.67,28.82-43.54,60.59-61.9,92.3-9.55,16.5-18.58,33.37-26.71,50.61-7.2,15.27-13.88,31.12-18.93,47.24-4.54,14.49-13,46.44-1.23,59.5,1.79,1.99,3.96,3.43,6.41,4.46,12.25,5.16,31.04,6.33,44.18,5.71,14.2-.67,48.58-5.09,47.56-25.4-1.77-35.34,5.01-71.06,15.04-104.82,10.79-36.3,25.62-71.61,41.24-106.07,11.23-24.79,23.03-49.31,34.51-73.98Z"/>
  <path class="st1" d="M332.59,432.83c-1.37,2.76-.57,8.15.19,11.14,2.38,3.39,12.57,7.95,16.1,9.3,11.34,4.36,24.09,6.75,36.21,7.19,5.52.2,11.11.04,16.61-.53,7.17-.73,24.96-3.67,28.4-11.25.28-.61.45-1.39.58-2.04.37-1.95.47-4,.56-5.98.05-1.07.09-2.16.2-3.22.6-5.41,4.24-9.91,10.04-10.33,9.61-.7,18.82,2.33,25.84,9,8.23,7.83,11.92,19.24,10.85,30.45-1.25,12.99-8.5,24.1-18.77,31.9-19.76,15-47.03,20.86-71.41,21.44-20.14.48-42.04-2.51-60.82-10-16.03-6.39-32.75-17.44-37.94-34.86-1.34-4.49-1.8-9.13-1.43-13.79,1.87-23.32,8.65-40.2,34.19-44.42,4.26-.7,10.52-1.12,12.83,2.53,2.23,3.52,0,9.99-2.22,13.46Z"/>
  <path class="st3" d="M323.7,427.22c-20.22,3.34-23.93,16.33-25.42,34.88-3.7,46.24,106.8,64.4,154.76,27.99,26.08-19.8,14.64-54.33-10.79-52.48-.9.07.18,9.4-2.56,15.43-6.71,14.79-34.38,18.68-54.97,17.94-31.95-1.15-59.39-14.51-61.95-23.72-3.71-13.36.93-20.04.93-20.04Z"/>
  <circle class="st0" cx="430.38" cy="130" r="130" transform="translate(233.12 534) rotate(-80.78)"/>
  <circle class="st11" cx="430.38" cy="130" r="119.48" transform="translate(34.13 342.4) rotate(-45)"/>
  <path class="st3" d="M430.38,10.52c-57.2,0-105.01,40.2-116.72,93.89,8.45,57.71,58.15,102.03,118.21,102.03s105.01-40.2,116.72-93.89c-8.45-57.71-58.15-102.03-118.21-102.03Z"/>
  <path class="st11" d="M430.38,10.52v-.11c-57.25,0-105.1,40.24-116.83,93.97v.02s0,.02,0,.02c8.45,57.77,58.2,102.12,118.31,102.12s105.1-40.24,116.83-93.97v-.02s0-.02,0-.02c-8.45-57.77-58.2-102.12-118.32-102.12v.22c60,0,109.66,44.28,118.1,101.94l.11-.02-.11-.02c-11.71,53.64-59.47,93.8-116.62,93.8-60,0-109.66-44.28-118.1-101.94l-.11.02.11.02c11.71-53.64,59.47-93.8,116.62-93.8v-.11Z"/>
  <path class="st1" d="M332.87,52.54c-18.74,21.1-25.68,60.89-25.68,77.46s3.81,5.36,3.98,8.01c26.17-25.89,34.22-18,46.45-10.81,12.62,7.42,14.84,31.91,48.98,37.11,34.14,5.19,79.41-48.24,54.92-75.7-19.31-21.65-72.89-39.55-113.28-38.36-2.46.07-13.03,2.07-15.38,2.29Z"/>
  <path class="st1" d="M321.98,1085.92c.3-1.11.59-2.21.89-3.32,8.74-32.6,38.46-43.81,63.78-23.34,14.14,11.43,20.85,29.97,24.11,47.31,3.5,18.61,4.09,42.01,1.85,60.99-.67,5.67-5.42,9.89-11.12,9.89H130.36c-3.6,0-6.7-1.53-8.89-4.39-2.19-2.86-2.86-6.25-1.92-9.73,2.14-7.96,4.27-15.92,6.4-23.88,8.61-32.15,40.88-46.64,70.34-54.54,16.95-4.54,40.95-3.89,58.51-3.09,19,.86,48.14,1.77,67.18,4.11Z"/>
  <path class="st3" d="M333.68,1085.5l-3.43,12.78s-18.05-.4-30.63-1.73c-28.3-2.99-77.78-6.9-100.45-.83-32.74,8.77-56.02,22.73-62.42,46.62l-6.4,23.9h271.12c10.76-91.31-51.47-141.65-67.79-80.74Z"/>
  <path class="st1" d="M250.06,1082.09c14.91,4.94,30.18,10.46,42.62,20.34,18.87,15,26.44,36.47,29.8,59.64.23,1.59.3,3.19.21,4.79-.33,5.94-5.23,10.58-11.18,10.58h-181.15c-3.6,0-6.7-1.53-8.89-4.39-2.19-2.86-2.86-6.25-1.92-9.73,2.14-7.96,4.27-15.92,6.4-23.88,8.61-32.15,40.88-46.64,70.34-54.54,14.98-4.01,35.09-3.85,50.58-3.38,1.14.03,2.11.21,3.19.56Z"/>
  <path class="st6" d="M246.54,1092.72c-18.47-.56-36.17,0-47.35,3-32.74,8.77-56.02,22.73-62.42,46.62l-6.4,23.9h181.15c.05-.83.01-1.68-.11-2.56-7.07-48.77-30.57-59.61-64.86-70.96Z"/>
  <path class="st7" d="M231.73,1166.24h79.77c.05-.83.01-1.68-.11-2.56-1.68-11.56-4.28-20.99-7.73-28.8-10.76-1.91-24.65-1.44-37.76,2.79-13.46,4.34-26,12.66-33.15,26.47-.36.69-.7,1.39-1.03,2.11Z"/>
  <path class="st1" d="M565.53,1168.9c-.41,0-.83,0-1.24-.04-5.61-.48-9.85-5.3-9.61-10.93.05-1.12.27-2.19.64-3.19-.2-2.56-.9-5.99-1.28-8.02-1.95-10.47-4.52-20.99-7.1-31.32-5.14-20.63-10.74-41.17-16.45-61.64-9.46-33.97-19.32-67.85-29.32-101.66-1.14-3.87-.11-7.78,2.8-10.57,2.91-2.79,6.86-3.67,10.68-2.37l40.18,13.7c3.64,1.24,6.16,4.11,6.92,7.88l39.32,195.58c.64,3.2-.11,6.21-2.17,8.74-2.07,2.52-4.88,3.85-8.14,3.85h-25.23Z"/>
  <path class="st7" d="M511.26,949.1c62.09,210.02,53.93,209.28,53.93,209.28h25.57l-39.32-195.58-40.18-13.7Z"/>
  <path class="st1" d="M539.39,1148.78c-1.23-6.97-2.93-13.72-4.41-20.7-1.66-7.83-3.16-16.93,2.4-23.66,3.76-4.55,9.23-6.17,14.94-6.16,12.4,0,17.11,17.76,19.82,27.26,1.02,3.59,1.98,7.25,2.87,10.94l5.24-1.38-5.64-28.13c-.41-2.06-.25-3.94.51-5.89,1.45-3.71,4.43-6.92,8.16-8.39,8.32-3.28,15.25,2.23,19.62,8.8,5.68,8.55,8.21,25.39,9.13,37.44,24.56,18.57,48.7,38.6,70.64,60.1,23.22,22.76,66.46,68.5,55.59,104.48-5.13,16.99-20.32,26.48-36.28,31.84-24.06,8.08-48.23,9.48-71.66-1.39-30.33-14.07-53.51-46.46-75.83-70.65-.51-.55-.89-1.06-1.28-1.7-5.55-9.2-12.23-18-18.03-27.12-7.85-12.34-18.4-30.49-15.25-45.64,3.03-14.56,9.47-28.9,19.46-40.05Z"/>
  <path class="st3" d="M550.6,1152.33c-12.76,12.06-18.21,28.29-20.37,38.64-3.71,17.82,22.01,48.62,31.99,65.19,40.95,44.38,68.62,91.97,136.41,69.2,95.51-32.09-57.59-151.61-96.79-180.96,0,0-1.27-27.46-7.68-37.11-6.42-9.65-9.23-2.41-9.23-2.41l7.59,37.85-25.42,6.68s-8.08-40.63-14.77-40.63c-15.43,0-5.41,16.66-1.73,43.55Z"/>
  <path class="st1" d="M537.57,946c25.89,0,46.88,14.34,46.88,32.04s-20.99,32.04-46.88,32.04-46.88-14.34-46.88-32.04,20.99-32.04,46.88-32.04Z"/>
  <path class="st3" d="M537.57,956.51c20.08,0,36.36,9.63,36.36,21.52s-16.28,21.52-36.36,21.52-36.37-9.63-36.37-21.52,16.28-21.52,36.37-21.52Z"/>
  <path class="st1" d="M680.85,1197.54c23.09,15.97,46.24,37.94,56.61,64.63,7.48,19.26,7.82,41.01-4.66,58.32-7.45,10.33-18.26,17.18-30.44,20.58-23.15,6.48-47.06,4.04-69.05-5.42-35.49-15.26-63.4-47.07-84.14-78.72-2.59-3.95-2.29-8.92.74-12.53,31.74-37.77,77.91-61.77,127.7-48.37,1.22.33,2.21.79,3.25,1.51Z"/>
  <path class="st7" d="M557.96,1251.16c55.21,84.22,109.61,88.72,141.57,79.78,43.67-12.22,51.04-72.38-24.66-124.75-45.46-12.24-87.59,10.08-116.91,44.97Z"/>
  <path class="st1" d="M503.82,776.96c25.52,0,48.54,13.43,65.36,31.91,18.58,20.41,30.2,47.22,33.59,74.53,2.56,20.62.52,42.16-7.73,61.36-7.31,17.02-19.44,31.81-36.12,40.31-9.64,4.91-20.14,7.36-30.95,7.36-14.93,0-28.99-4.59-41.47-12.1-27.52-16.57-39.46-38.52-41.93-70.79-1.47-19.25,2.63-37.03.95-50.55-2.56-20.62-17.02-15.16-8.77-34.36,7.31-17.02,19.44-31.81,36.12-40.31,9.64-4.91,20.14-7.36,30.96-7.36Z"/>
  <path class="st3" d="M503.82,787.48c-42.21,0-71.03,43.53-64.37,97.22,6.67,53.69,46.3,97.22,88.51,97.22s71.03-43.53,64.37-97.22c-6.67-53.69-46.29-97.22-88.51-97.22Z"/>
  <path class="st8" d="M548.5,978.19c30.56-11.61,49.35-49.07,43.83-93.5-1.68-13.53-5.46-26.41-10.84-38.12-9.45,5.92-20.67,14.03-34,24.73,3.29,38.84,16.98,84.61,1.01,106.88Z"/>
  <path class="st1" d="M543.13,672.65c-5.42-4.04-10.71-8.27-15.7-12.43-18.69-15.55-76.06-68.17-57.72-118.56,5.88-16.14,52.64,26.59,53.3,9.26.01-.32.03-9.49.07-9.81,2.24-17.91-46.43-37.26-30.37-47.04-23.07-8.4,22.36-21.33,52.62-6,20.03,10.15,38.88,25.15,54.74,39.98,38.42,35.92,127.44,124.01,129.49,179.47.96,25.84-27.7,43.37-48,52.87-30.02,14.04-66.15,22.53-98.9,26.99-17.72,2.41-35.71,3.78-53.6,3.78-10.42,0-21.66.21-31.97,1.82-.87.13-2.39.4-4.03.75.89.56,1.69,1.03,2.24,1.31,4.65,2.4,6.81,7.74,5.14,12.7-1.67,4.96-6.62,7.9-11.77,7.01-7.09-1.23-15.35-4.75-21.41-8.46-14.38-8.82-23.5-22.24-25.8-39.07-1.82-13.36,7.82-26.01,16.53-35.05,10.73-11.14,24-21.07,36.74-29.82,13.91-9.55,28.42-18.4,43.1-26.72,1.76-1,3.52-1.99,5.3-2.98Z"/>
  <path class="st3" d="M460.8,529.81c2.96-23.72,13.75-37.73,29.99-41.93,24.4-6.3,61.11,9.54,102.11,47.86,68.27,63.82,124.68,132.1,126.16,172.17,1.48,40.07-105.38,72.73-189.98,72.73s-38.59,23.75-38.59,23.75c0,0-34.14-5.94-38.59-38.59-4.45-32.65,111.32-92.02,111.32-92.02,0,0-105.38-66.79-102.41-143.97Z"/>
  <path class="st8" d="M555.97,668.86c-18.88-13.32-69.47-52.38-88.16-100.41.19-.67.36-1.34.56-2.02.75,26.25,105,92.25,105,92.25l-17.41,10.18Z"/>
  <path class="st9" d="M490.2,488.04c.2-.05.39-.11.59-.16,24.4-6.3,61.11,9.54,102.11,47.86,23.14,21.63,44.92,43.78,63.66,65.17-10.23,23.53-21.96,40.4-29.18,18.03-15-46.5-65.25-105-132.75-129-1.74-.62-3.2-1.26-4.42-1.9Z"/>
  <path class="st3" d="M429.21,260.73c7.86.37,17.9,1.55,28.24,4.09,9.07,2.22,18.41,5.48,26.79,10.13-.96,2.14-1.91,4.28-2.86,6.43-7.92-4.49-16.86-7.63-25.57-9.76-12.22-2.99-23.87-4.01-31.58-4.04,1.65-2.29,3.31-4.58,4.98-6.84ZM405.26,295.29c-1.59,2.43-3.16,4.86-4.72,7.3,9.12-.87,19.06-.05,29.32,2.51,11.53,2.88,23.45,7.96,35.08,15.32.87-2.2,1.75-4.4,2.64-6.6-11.94-7.4-24.17-12.55-36.02-15.51-9.07-2.27-17.93-3.26-26.3-3.02ZM378.4,339.13c-1.31,2.29-2.61,4.58-3.9,6.88,13.57.36,26.76,1.84,39.62,4.73,12.09,2.71,23.93,6.66,35.55,12.09.71-2.23,1.44-4.46,2.19-6.69-11.85-5.47-23.91-9.47-36.23-12.23-12.18-2.73-24.58-4.25-37.23-4.79ZM355.15,383.03c-.63,1.31-1.26,2.63-1.88,3.94-.36.77-.72,1.54-1.08,2.31,7.03,2.26,17.07,4.5,28.13,6.55,19.96,3.71,43.52,6.95,58.03,8.51.5-2.29,1.03-4.58,1.57-6.86-14.17-1.49-38.08-4.76-58.34-8.52-10.6-1.97-20.09-4.02-26.43-5.93ZM337.53,424.69c-.78,2.2-1.53,4.41-2.25,6.63,10.35,5.79,26.11,9.75,42.69,11.79,19.21,2.35,39.77,2.18,54.27-.73.24-2.42.5-4.84.8-7.25-13.47,3.2-34.46,3.45-54.22,1.03-16.67-2.04-32.26-5.93-41.29-11.46Z"/>
  <path class="st3" d="M429.99,101.23c-10.66,0-19.29,8.64-19.29,19.3s8.64,19.29,19.29,19.29,19.3-8.64,19.3-19.29-8.64-19.3-19.3-19.3Z"/>
  <path class="st1" d="M428.7,183.76c3.43.98,11.91,1.14,15.51,1.38,9.71.63,26.44.94,29.67,12.51.77,2.75.56,5.64-.51,8.28-4.56,11.31-22.67,20.24-33.12,25.17-17.52,8.26-36.31,15.08-54.67,21.24-12.27,4.12-24.65,7.97-37.08,11.57-30.3,8.77-59.77,16.68-91.6,11.83-9.18-1.4-19.57-4.82-22.91-14.52-3-8.71,1.6-17.15,6.92-23.79,6.28-7.84,14.73-15.12,22.46-21.49,14.43-11.88,36.29-30.55,44.5-47.84,4.76-10.03,10.89-20.8,18.61-28.86,6.59-6.88,15.23-12.5,25.18-11.39,16.19,1.81,23.99,19.52,27.94,33.18,5.26,18.17,34.51,15.05,49.08,22.74Z"/>
  <path class="st7" d="M369.52,163.94c7.49,25.88,41.51,22,54.55,29.26,6.4,3.57,42.81.7,39.55,8.78-6.11,15.13-70.3,38-118.04,51.81-28.59,8.27-57,16.12-87.09,11.53-25.09-3.83-16.7-18,11.58-41.28,28.95-23.84,41.4-39,47.31-51.45,18.54-39.03,40.53-48.73,52.13-8.66Z"/>
  <path class="st1" d="M431.22,194.55c-1.26,5.51-6.53,9.96-11.05,13.23-7.39,5.36-15.84,10.1-23.88,14.41-23.82,12.79-49.45,24.06-74.76,33.53-26.03,9.74-57.83,19.99-85.63,21.87-12.97.87-38.25,2.43-43.55-13.34-3.96-11.81,6.88-23.36,14.61-30.86,10.11-9.81,21.63-18.77,32.58-27.64,2.51-2.04,5.02-4.08,7.52-6.14,12.51-10.3,47.39-38.81,54.15-53.04,4.39-9.25,10.25-18.81,17.97-25.67,6.7-5.95,14.98-9.91,24.12-9.02,4.66.45,9,2.13,12.87,4.75,7.14,4.82,13.24,10.36,19.24,16.5,4.38,4.47,8.71,9.31,13.54,13.29,5.47,4.5,10.92,7.12,17.9,8.43,11.32,2.13,24.69.48,35.9-1.59,7.48-1.38,17.19-2.17,20.63,6.69,2.96,7.62-2.56,13.38-7.96,17.62-3.95,3.1-8.22,5.93-12.39,8.74-3.02,2.04-6.07,4.06-9.02,6.19-.75.54-1.82,1.29-2.79,2.05Z"/>
  <path class="st6" d="M417.73,196.33c-19.56,17.17-124.2,66.84-182.54,70.77-66.05,4.45-19.29-28.2,18.55-59.37,28.95-23.84,51.05-44.19,56.96-56.65,12.11-25.49,27.28-34.04,39.57-25.74,31.54,21.3,30.43,50.04,94.38,38.25,26.21-4.83-19.1,25.86-26.93,32.73Z"/>
  <path class="st1" d="M453.55,150.84c17.16,0,31.08,13.91,31.08,31.08s-13.91,31.08-31.08,31.08-31.08-13.91-31.08-31.08,13.91-31.08,31.08-31.08Z"/>
  <path class="st3" d="M453.55,158.25c-13.07,0-23.66,10.59-23.66,23.66s10.59,23.66,23.66,23.66,23.66-10.59,23.66-23.66-10.59-23.66-23.66-23.66Z"/>
  <path class="st1" d="M466.71,168.75c7.27,7.27,7.27,19.06,0,26.33s-19.06,7.27-26.33,0c-7.27-7.27-7.27-19.06,0-26.33s19.06-7.27,26.33,0Z"/>
  <path class="st3" d="M464.09,171.37c-5.82-5.82-15.26-5.82-21.09,0-5.82,5.82-5.82,15.26,0,21.09,5.82,5.82,15.26,5.82,21.09,0,5.82-5.82,5.82-15.26,0-21.09Z"/>
  <path class="st1" d="M464.09,171.37c-.7-.7-1.46-1.32-2.25-1.85l-20.69,20.68c.53.79,1.15,1.55,1.85,2.25.7.7,1.46,1.32,2.25,1.85l20.68-20.68c-.53-.79-1.15-1.55-1.85-2.25Z"/>
  <path class="st1" d="M437.96,107.91c-4.61,0-8.35,3.74-8.35,8.35s3.74,8.35,8.35,8.35,8.35-3.74,8.35-8.35-3.74-8.35-8.35-8.35Z"/>
  <path class="st3" d="M332.36,89.33c-4.2-1.33-9.66,4.08-12.21,12.09-2.54,8.01-1.2,15.58,2.99,16.91,4.2,1.33,9.66-4.08,12.21-12.09,2.54-8.01,1.21-15.58-2.99-16.91Z"/>
  <path class="st1" d="M333.91,95.34c-1.82-.58-4.18,1.76-5.29,5.23-1.1,3.47-.52,6.75,1.29,7.32,1.82.58,4.18-1.76,5.29-5.23s.52-6.75-1.29-7.32Z"/>
  <path class="st1" d="M204.6,1168.59c1.25-7.56,3.5-14.23,6.53-20.08,8.6-16.63,23.33-26.52,39.02-31.59,15.36-4.96,31.71-5.27,43.98-2.74,5.92,1.22,11.01,3.13,14.72,5.53l-5.01,9.67c-2.74-1.77-6.72-3.23-11.51-4.22-10.96-2.26-25.61-1.98-39.4,2.47-13.46,4.34-26,12.66-33.15,26.47-2.48,4.79-4.33,10.27-5.36,16.49l-9.82-2.01Z"/>
  <path class="st1" d="M147.95,1170.19c.07-1.74.19-3.36.37-4.84,2.4-19.8,14.77-38.32,35.37-51.47,20.03-12.78,47.95-20.49,82.01-19.18,5.71.22,11.48.67,17.28,1.38l-1.31,11.11c-5.74-.7-11.19-1.13-16.36-1.33-31.68-1.22-57.38,5.79-75.62,17.43-17.68,11.28-28.25,26.88-30.25,43.37-.17,1.42-.28,2.73-.33,3.92l-11.16-.39Z"/>
  <path class="st1" d="M651.6,1332.66c5.72-16.77,1.01-35.97-7.86-53.82-14.38-28.91-39.28-53.81-49.7-60.24l5.51-8.92c11.35,7,38.31,33.77,53.6,64.51,9.98,20.07,15.16,42,8.39,61.83l-9.94-3.37Z"/>
  <path class="st1" d="M702.73,1330.51c6.69-20.69,1.49-42.98-8.49-62.97-15.49-31.02-45.37-60.23-57.7-66.09l7.86-5.41c13.64,6.49,42.69,33.67,59.25,66.82,11.07,22.16,16.74,47.14,9.07,70.86l-9.98-3.21Z"/>
  <path class="st6" d="M275.34,659.54c-8.59,25.36-7.4,49.56-3.47,66.98,6.26,27.76,17.75,34.41,45.27,48.57,27.29-8.97,39.65-13.47,47.94-38.89,5.44-16.69,8.74-41.19,1.8-68.72-29.05,4.9-45.34-16.07-45.34-16.07,0,0-17.67,18.02-46.2,8.13Z"/>
  <path class="st5" d="M357.05,680.48c-10.51-.19-20.7-3.05-29.99-8.62-2.14-1.28-4.4-2.83-6.6-4.55-2.27,1.29-4.58,2.41-6.75,3.29-9.64,3.93-19.77,4.98-29.77,3.59-3.69,16.24-3.75,33.45-.1,49.62,1.71,7.57,4.16,15.31,9.34,21.27,5.82,6.69,16.32,12.3,25.01,16.75,8.51-2.77,19-6.42,24.95-11.64,5.27-4.62,8.14-11.28,10.27-17.81,5.39-16.52,6.4-34.67,3.63-51.91Z"/>
  <path class="st1" d="M353.25,684.68c-4.41-.33-8.74-1.09-12.94-2.3-5.34-1.53-10.53-3.79-15.49-6.76-1.17-.7-2.37-1.47-3.57-2.3-.39-.27-.78-.54-1.17-.82-.37.19-.72.37-1.07.54-1.22.59-2.45,1.14-3.66,1.64-5.11,2.08-10.35,3.42-15.64,4.05-4.08.49-8.19.57-12.3.25-1.26,6.62-1.89,13.37-1.91,20.1-.02,8.01.85,16.03,2.6,23.8.8,3.56,1.78,7.15,3.16,10.56,1.31,3.23,2.99,6.25,5.22,8.82,2.58,2.97,6.33,5.78,10.45,8.38,3.79,2.39,7.83,4.56,11.61,6.51,3.67-1.21,7.62-2.6,11.35-4.2,4.08-1.76,7.8-3.75,10.37-6,2.19-1.92,3.92-4.33,5.34-6.97,1.5-2.78,2.65-5.85,3.65-8.9,2.54-7.79,4.06-15.96,4.64-24.22.52-7.39.28-14.84-.66-22.15ZM342.71,673.95c4.72,1.36,9.55,2.08,14.41,2.16l3.66.07.58,3.62c1.46,9.09,1.91,18.41,1.27,27.61-.63,8.98-2.29,17.86-5.05,26.34-1.13,3.47-2.47,7.01-4.26,10.34-1.87,3.47-4.21,6.71-7.29,9.41-3.38,2.96-7.88,5.41-12.67,7.47-4.55,1.96-9.44,3.61-13.81,5.04l-1.71.56-1.62-.83c-4.46-2.28-9.38-4.86-13.92-7.72-4.76-3-9.17-6.34-12.4-10.06-2.94-3.39-5.09-7.22-6.73-11.25-1.56-3.85-2.67-7.91-3.57-11.93-1.89-8.38-2.82-17.04-2.81-25.71.02-8.7.99-17.4,2.91-25.83l.89-3.93,3.97.55c4.7.65,9.44.72,14.14.16,4.52-.54,9-1.69,13.38-3.47.99-.4,2.03-.87,3.11-1.4,1.12-.55,2.17-1.1,3.13-1.64l2.54-1.44,2.31,1.8c.99.77,2.02,1.53,3.07,2.25,1.05.72,2.09,1.39,3.09,1.99,4.27,2.56,8.76,4.51,13.4,5.84Z"/>
  <path class="st1" d="M313.82,459.45c3.74.11,6.68,3.23,6.57,6.97-.11,3.74-3.23,6.68-6.97,6.57-3.74-.11-6.68-3.23-6.57-6.97.11-3.74,3.23-6.68,6.97-6.57ZM450.06,465.09c3.74.11,6.68,3.23,6.57,6.97-.11,3.74-3.23,6.68-6.97,6.57-3.74-.11-6.68-3.23-6.57-6.97.11-3.74,3.23-6.68,6.97-6.57ZM426.04,478.91c3.74.11,6.68,3.23,6.57,6.97-.11,3.74-3.23,6.68-6.97,6.57-3.74-.11-6.68-3.23-6.57-6.97.11-3.74,3.23-6.68,6.97-6.57ZM396.62,485.13c3.74.11,6.68,3.23,6.57,6.97-.11,3.74-3.23,6.68-6.97,6.57-3.74-.11-6.68-3.23-6.57-6.97.11-3.74,3.23-6.68,6.97-6.57ZM364.9,482.75c3.74.11,6.68,3.23,6.57,6.97-.11,3.74-3.23,6.68-6.97,6.57-3.74-.11-6.68-3.23-6.57-6.97.11-3.74,3.23-6.68,6.97-6.57ZM336.47,473.74c3.74.11,6.68,3.23,6.57,6.97-.11,3.74-3.23,6.68-6.97,6.57-3.74-.11-6.68-3.23-6.57-6.97.11-3.74,3.23-6.68,6.97-6.57Z"/>
  <path class="st1" d="M203.45,823.68c6.91,13.51,3.79,29.45-6.96,35.6-10.75,6.15-25.06.18-31.97-13.33-6.91-13.51-3.79-29.45,6.96-35.6,10.75-6.15,25.06-.18,31.97,13.33Z"/>
  <path class="st3" d="M198.8,826.34c-5.26-10.29-16.16-14.83-24.34-10.15-8.18,4.68-10.55,16.82-5.3,27.1,5.26,10.29,16.16,14.83,24.34,10.15,8.18-4.68,10.56-16.82,5.3-27.1Z"/>
  <path class="st1" d="M197.53,840.46c-1.63,8.33-9.01,12.55-16.49,9.43-7.48-3.12-12.22-12.4-10.59-20.73,1.63-8.33,9.01-12.55,16.49-9.43,7.48,3.12,12.22,12.4,10.6,20.73Z"/>
  <path class="st3" d="M194.83,839.34c1.3-6.67-2.5-14.1-8.49-16.6-5.99-2.5-11.9.88-13.21,7.55-1.3,6.67,2.5,14.1,8.49,16.6,5.99,2.5,11.9-.88,13.2-7.55Z"/>
  <path class="st1" d="M194.83,839.34c.16-.8.24-1.62.25-2.44l-21.28-8.87c-.28.7-.51,1.46-.67,2.27-.16.8-.24,1.62-.25,2.44l21.28,8.87c.28-.7.51-1.46.67-2.27Z"/>
  <path class="st1" d="M390.89,1119.28c1.82,16.09-9.74,30.61-25.83,32.44-16.09,1.83-30.61-9.74-32.44-25.83-1.83-16.09,9.74-30.61,25.83-32.44,16.09-1.83,30.61,9.74,32.44,25.83Z"/>
  <path class="st3" d="M383.94,1120.07c-1.39-12.25-12.45-21.05-24.7-19.67-12.25,1.39-21.05,12.45-19.66,24.7,1.39,12.25,12.45,21.05,24.7,19.66,12.25-1.39,21.05-12.45,19.67-24.7Z"/>
  <path class="st1" d="M375.5,1133.53c-6.04,7.59-17.09,8.84-24.68,2.8s-8.84-17.09-2.8-24.68c6.04-7.59,17.09-8.84,24.68-2.8,7.59,6.04,8.84,17.09,2.8,24.68Z"/>
  <path class="st3" d="M372.77,1131.35c4.84-6.08,3.84-14.93-2.24-19.77-6.08-4.84-14.93-3.84-19.77,2.24-4.84,6.08-3.83,14.93,2.24,19.77,6.08,4.84,14.93,3.83,19.77-2.24Z"/>
  <path class="st1" d="M372.77,1131.35c.58-.73,1.08-1.51,1.5-2.31l-21.59-17.19c-.69.58-1.33,1.24-1.92,1.98-.58.73-1.08,1.51-1.5,2.31l21.59,17.19c.69-.58,1.33-1.24,1.91-1.98Z"/>
  <path class="st1" d="M570.46,1184.44c-.97,16.74-12.58,29.11-25.92,27.62s-23.36-16.27-22.39-33.02c.97-16.74,12.58-29.11,25.92-27.62,13.34,1.49,23.36,16.27,22.39,33.02Z"/>
  <path class="st3" d="M564.69,1183.8c.74-12.75-6.89-24-17.04-25.14-10.16-1.13-18.99,8.28-19.73,21.03-.74,12.75,6.89,24,17.04,25.14,10.16,1.13,18.99-8.28,19.73-21.03Z"/>
  <path class="st1" d="M552.12,1195.73c-6.06,6.46-15.22,5.44-20.46-2.29-5.24-7.72-4.57-19.22,1.5-25.69,6.06-6.46,15.22-5.44,20.46,2.29,5.24,7.72,4.57,19.22-1.5,25.69Z"/>
  <path class="st3" d="M550.23,1192.94c4.86-5.17,5.39-14.38,1.2-20.57-4.19-6.19-11.53-7.01-16.39-1.83-4.86,5.17-5.39,14.38-1.2,20.57,4.2,6.19,11.53,7.01,16.39,1.83Z"/>
  <path class="st1" d="M550.23,1192.94c.59-.62,1.11-1.31,1.57-2.04l-14.9-21.98c-.65.45-1.27.99-1.86,1.61-.59.62-1.11,1.31-1.57,2.04l14.9,21.97c.65-.45,1.27-.99,1.86-1.61Z"/>
  <path class="st1" d="M197.92,643.13c23.4,9.67,38.88,11.61,44.05,11.87l41.38-44.98,107.83,8.85.91,1.63s7.59,13.76,17.49,27.74c9.47,13.37,15.5,22.19,28.34,32.19.34.26,2.97.26,5.35.06,15.63-1.31,68.59-11.14,69.04-10.58l-16.9,7.79-57.53,8.62c-1.29-.68-2.66-1.57-4.1-2.65-10.65-7.97-28.22-28.16-36.48-43.43-4.23-7.82-7.35-14.53-8.93-17.3l-103.97-7.84-39.68,43.99h-1.6c-.06,0-18.63,2.6-47.87-9.48l2.66-6.46Z"/>
  <path class="st9" d="M518.41,124.02c-.16-51.47-30.27-84.68-77.89-100.76-27.56-9.3,6.66,3.26-21.94-7.47,15.92-2.52,19.14-2.75,35.38,1.17,53.22,12.84,84.18,53.58,88.16,107.29-.06,6.55-5.42,11.8-11.97,11.74-6.55-.06-11.8-5.42-11.74-11.97Z"/>
  <path class="st2" d="M341.95,144.47c-18.03,34.74-27.79,38.61-58.92,60.76-21.11,15.02-43.03,31.76-66.31,43.03,14.88-21.94,36.22-38.61,55.96-56.09,25.19-22.3,34.18-25.59,47.39-56.82,2.52-6.04,9.46-8.9,15.5-6.38,6.04,2.52,8.9,9.46,6.38,15.5Z"/>
  <path class="st8" d="M231.6,524.54c-37.44,33.5-78.52,75.56-87.05,89.58-3.9,6.41-6.34,10.41-7.86,12.91,12.99-.21,28.06,4.2,38.84,10.17,4.69,2.6,8.7,5.24,12.18,7.99,5.42-42.8,19.97-85.31,43.9-120.66Z"/>
  <path class="st8" d="M183.88,786.29c-4.34-.94-12.41-8.93-22.1-21.21-24.09-30.55-58.13-87.68-69.29-128.99-6.61,14.47-4.36,28.59,8.75,58.1,8.25,18.56,20.97,39.27,34.07,58.39,3.68,5.37,7.38,10.61,11.03,15.65,8.37,11.57,16.41,22.04,23.03,30.42,2.86,3.62,5.46,6.86,7.7,9.62,1.61-.31,3.25-.41,4.9-.29,8.28.56,16.67,6.31,21.47,15.71,1.9,3.72,3.04,7.62,3.48,11.45,1.14,10.09-2.64,19.69-10.43,24.14-.11.06-.21.12-.32.18-.37.2-.75.39-1.12.57-.98.45-1.98.81-2.99,1.07.84.36,1.67.71,2.51,1.02,5.39,2.04,10.57,2.97,14.29,1.28,4.45-2.02,14.87-8.68,23.41-14.32.32-.21.63-.42.94-.62-.38-.49-.75-.98-1.12-1.47-3.34-4.41-6.54-8.93-9.59-13.56-7.03-10.67-13.25-21.91-18.58-33.64-.41-.91-.83-1.83-1.23-2.75-1.83-4.17-4.01-8.41-6.15-12.57-2.74,1.09-5.43,1.83-7.95,2.06-1.65.15-3.22.09-4.71-.24Z"/>
  <path class="st9" d="M110.64,615.21c23.6-38.27,72.69-82.05,111.06-105.99,8.86-5.53,6.77-4.24,15.96-7.9-40.6,36.29-87.53,70.98-114.91,119.13-1.45,3.34-5.33,4.88-8.67,3.44-3.34-1.45-4.88-5.33-3.44-8.67Z"/>
  <path class="st8" d="M355.08,620.82l-70.6-5.73h-.07s-17.56,19.47-17.56,19.47l-22.11,24.52h-1.6c-.06,0-17.3,2.42-44.73-8.22-.33-.13-.65-.25-.98-.39-.14,1.26-.28,2.53-.4,3.8-.16,1.56-.3,3.13-.43,4.71.35.15.7.29,1.05.43,1.43.58,2.84,1.13,4.23,1.66,25.82,9.74,43.75,9.74,43.75,9.74l14.4-16.36,18.2-20.68,6.59-7.48,69.1,6.06c.36-3.84.75-7.68,1.17-11.52Z"/>
  <path class="st3" d="M279.66,894.98c-12.53-9.69-24.15-20.51-34.67-32.32,5.89,27.59,20.5,51.48,39.3,66.62,2.74,2.21,5.58,4.23,8.49,6.05,1.23.77,2.48,1.51,3.74,2.21,4.08,2.27,8.3,4.14,12.61,5.57,6.63,2.21,13.48,3.38,20.42,3.38.11,0,.22,0,.34,0-8.71-3.62-16.96-9.02-24.44-15.84-1.39-1.27-2.75-2.58-4.08-3.94-2.39-2.45-4.69-5.04-6.89-7.78-2.03-2.53-3.97-5.17-5.81-7.93-3.35-5.01-6.37-10.38-9.01-16.04Z"/>
  <path class="st9" d="M204.09,635.89c5.83-40.33,29.95-98.1,57.76-127.7l12.55-10.97c-22.24,49.99-44.37,83.18-48.42,140.37-.47,6.04-5.75,10.56-11.8,10.09-6.05-.47-10.56-5.75-10.09-11.8Z"/>
  <path class="st7" d="M174.19,1166.24h30.84c1.3-6.6,3.39-12.49,6.1-17.72,8.6-16.63,23.33-26.52,39.02-31.59,12.97-4.19,26.65-5.06,37.98-3.71-.68-.6-1.38-1.19-2.09-1.76-2.39-.18-4.72-.32-7-.4-31.67-1.22-57.38,5.79-75.62,17.43-15.65,9.99-25.74,23.37-29.23,37.75Z"/>
  <path class="st6" d="M644.72,1315.78c-3.89-26.9-28.37-59.87-60.57-89.58-9.29,6.95-17.87,15.15-25.58,24.23-.2.24-.41.48-.61.72,30.49,46.51,60.73,68.71,87.08,77.75.02-.2.04-.4.07-.6.36-3.63.3-7.79-.39-12.53Z"/>
  <path class="st6" d="M695.55,1304.28c-2.84-33.34-32.12-76.86-62.25-100.08-9.86,1.7-19.38,4.89-28.44,9.3,13.02,10.39,35.04,34.05,48.29,60.7,9.17,18.45,14.29,38.48,9.8,57-.16.67-.34,1.33-.52,1.99,12.02,1.79,22.9,1,32.19-1.03.34-1.76.64-3.69.87-5.78.66-5.91.82-13.19.06-22.09Z"/>
  <path class="st6" d="M723.38,1289.81c-2.16-34.56-26.68-57.25-57.96-85.69-3.48-.58-6.93-.97-10.35-1.17,14.9,11.55,35.59,33.89,48.58,59.9,8.46,16.93,13.77,35.51,12.38,53.92-.17,2.22-.43,4.43-.8,6.64,1.75-1.29,3.39-2.7,4.89-4.21.79-2.43,1.5-5.09,2.06-8.01,1.17-6.04,1.73-13.14,1.21-21.4Z"/>
  <path class="st6" d="M553.25,1098.29c7.32.54,11.84,7.41,14.84,14.75-4.62-18.83-11.66-45.5-22.31-83.23-4.38-2.05-8.66-4.06-12.85-6.06,9,31.74,15.56,56,20.32,74.53Z"/>
  <path class="st6" d="M351.17,1050.17c-5.18-17.52-12.44-42.07-22.61-76.47-.34,0-.68,0-1.02,0-3.28,0-6.48-.23-9.57-.67,11.1,37.53,18.74,63.4,24.02,81.23,2.89-1.84,5.97-3.21,9.18-4.1Z"/>
  <path class="st9" d="M322.17,439c-3.56,32.99,86.26,42.8,113.53,23.5l2.54-1.81c-12.7,28.24-130.64,28.3-127.35-23.58.52-3.12,3.46-5.22,6.58-4.7,3.12.52,5.22,3.46,4.7,6.58Z"/>
  <path class="st9" d="M341.12,1088.42c1.98-5.44,4.4-9.74,7.13-12.98,7.1-8.43,16.29-9.68,25.33-5.05,4.7,2.4,9.36,6.38,13.67,11.76.61.76,1.21,1.55,1.8,2.36-.7-1.29-1.41-2.54-2.14-3.74-4.49-7.41-9.61-13.12-14.9-16.85-9.37-6.62-19.25-7.04-27.1.26-2.87,2.67-5.46,6.37-7.66,11.17-1.35,2.96-2.56,6.34-3.58,10.15l-3.43,12.78s-18.05-.4-30.63-1.73c-5.49-.58-11.77-1.19-18.5-1.76,4.04,2.24,7.91,4.75,11.54,7.64.83.66,1.64,1.33,2.43,2.02,3.58.34,6.97.68,10.1,1.01,12.58,1.33,30.63,1.73,30.63,1.73l3.43-12.78c.57-2.13,1.2-4.12,1.88-5.98Z"/>
  <path class="st9" d="M660.87,1192.88c-23.42-21.35-46.78-39.32-59.03-48.48,0,0-1.27-27.46-7.68-37.11-1.44-2.17-2.7-3.48-3.79-4.22-.78-.53-1.48-.76-2.08-.79l8.01,45.03,3.6,3.12,48.2,41.85c4.22-.06,8.48.13,12.78.59Z"/>
  <path class="st1" d="M6.68,1168.09h485.35c3.67,0,6.68,3.01,6.68,6.68h0c0,3.67-3,6.68-6.68,6.68H6.68c-3.67,0-6.68-3.01-6.68-6.68h0c0-3.67,3.01-6.68,6.68-6.68Z"/>
  <path class="st1" d="M692.4,1168.09h84.6c3.67,0,6.68,3.01,6.68,6.68h0c0,3.67-3,6.68-6.68,6.68h-84.6c-3.67,0-6.68-3.01-6.68-6.68h0c0-3.67,3.01-6.68,6.68-6.68Z"/>
  <path class="st1" d="M780.17,460.22l158.08-3.47c4.66-.1,8.55,3.59,8.69,8.25l.92,31.31c.07,2.29-.67,4.28-2.21,5.97l-383.12,421.43c-2.64,2.91-6.78,3.63-10.25,1.81l-185.92-97.82c-2.59-1.36-4.19-3.73-4.5-6.64l-3.24-31.09c-.31-3.01.86-5.75,3.25-7.6l413.28-320.36c1.5-1.16,3.12-1.74,5.02-1.78Z"/>
  <polygon class="st10" points="780.36 468.72 367.08 789.09 370.32 820.18 556.23 918 939.36 496.56 938.44 465.25 780.36 468.72"/>
  <path class="st1" d="M787.67,420.19l153.75,37.59c3,.73,5.2,2.86,6.08,5.81.88,2.96.2,5.93-1.89,8.2l-385.37,419.06c-2.62,2.85-6.66,3.58-10.11,1.83l-188.64-95.67c-2.6-1.32-4.23-3.64-4.59-6.53-.36-2.89.63-5.56,2.84-7.46l420.27-360.98c2.18-1.87,4.88-2.55,7.67-1.85Z"/>
  <polygon class="st4" points="785.61 427.69 365.34 789.42 553.99 885.09 939.36 466.03 785.61 427.69"/>
  <path class="st10" d="M410.52,779.3c-12.38,9.75-14.63,9.38,10.5,22.12,25.13,12.75,128.63,71.25,136.13,69.75s69.75-83.25,69.75-83.25c0,0-58.5,60.75-67.5,62.25-9,1.5-148.88-70.88-148.88-70.88Z"/>
  <path class="st10" d="M499.85,699.08l109.88,42.56,31.31,13.13,255.38-275.62,1.5,9.75-253.87,277.12-11.81,7.47-148.69-62.13,16.31-12.28Z"/>
  <path class="st10" d="M412.1,776.33l143.25,70.5,66.75-69.75,4.5,7.5-69.75,75-146.25-73.13,1.5-10.12Z"/>
  <path class="st1" d="M476.36,714.09c1.17-1.03,2.96-.91,3.99.27,1.03,1.17.91,2.96-.27,3.99l-66.46,58.17.58,9,139.89,71.49-.34-8.95c-.03-.77.26-1.49.75-2.01h0s66.01-71.78,66.01-71.78c1.06-1.15,2.85-1.22,4-.17,1.15,1.06,1.22,2.85.17,4l-65.23,70.93.48,12.59c.01.46-.08.94-.31,1.38-.71,1.39-2.41,1.94-3.8,1.23l-145.44-74.32c-.95-.41-1.65-1.32-1.72-2.43l-.77-11.99h0c-.05-.84.27-1.7.96-2.3l67.52-59.09ZM643.53,757.57l256.34-278.75c1.06-1.15.98-2.94-.17-4-.36-.33-.79-.55-1.23-.66l-113.28-28.76c-1-.25-2,.07-2.69.74l-285.32,249.71c-.3.26-.53.58-.7.92l-3.91,8.28c-.67,1.41-.06,3.1,1.35,3.76,1.41.67,3.1.06,3.76-1.35l3.67-7.75,283.88-248.46,107.24,27.23-253.13,275.26c-1.06,1.15-.98,2.94.17,4,1.15,1.06,2.94.98,4-.17Z"/>
  <path class="st0" d="M526.64,844.77c.27-.28.37-.53.44-.74.11-.32.15-.59.18-.89.03-.29.04-.6.04-.93,0-1.21-.13-2.76-.26-4.29-.13-1.53-.25-3.05-.25-4.05,0-.36.02-.65.04-.8v-.08s.02-.01.02-.01l-.8-.25.59.58c.2-.21.21-.32.21-.33l-.8-.25.59.58h0c22.79-23.27,45.99-48.61,65.94-68.97.55-.56.54-1.46-.02-2-.56-.55-1.46-.54-2,.02-19.99,20.41-43.19,45.74-65.94,68.96h0c-.27.28-.37.53-.45.74-.11.32-.15.59-.17.89-.03.29-.04.6-.04.93,0,1.21.13,2.75.26,4.29.13,1.53.25,3.05.25,4.06,0,.36-.02.66-.04.81v.08s-.02.01-.02.01l.79.25-.58-.57c-.2.21-.2.32-.21.32l.79.25-.58-.57c-.55.56-.54,1.46.02,2,.56.55,1.46.54,2-.02ZM612.24,744.24c172.01-175.59,236.79-241.59,266.36-271.79.55-.56.54-1.46-.02-2-.56-.55-1.46-.54-2,.02-29.57,30.19-94.34,96.2-266.36,271.79-.55.56-.54,1.46.02,2,.56.55,1.46.54,2-.02Z"/>
  <path class="st0" d="M498.58,829.2l.7-10.97,65.36-64.92c.55-.55.56-1.45,0-2-.55-.56-1.45-.56-2,0l-65.75,65.3c-.25.24-.39.57-.41.92l-.74,11.5c-.05.78.54,1.46,1.32,1.51.78.05,1.46-.54,1.51-1.32h0ZM585.21,733.01l269.99-266.4c.56-.55.56-1.45.01-2-.55-.56-1.45-.56-2-.01l-269.99,266.4c-.56.55-.56,1.45-.01,2s1.45.56,2,.01Z"/>
  <path class="st0" d="M471.39,815.33l-.28-10.81,65.06-62.77c.56-.54.58-1.44.04-2-.54-.56-1.44-.58-2-.04l-65.51,63.21c-.28.27-.44.66-.43,1.06l.29,11.43c.02.78.67,1.4,1.45,1.38.78-.02,1.4-.67,1.38-1.45ZM556.93,721.92l273.71-261.44c.57-.54.59-1.44.05-2-.54-.57-1.44-.59-2-.05l-273.71,261.44c-.57.54-.59,1.44-.05,2,.54.57,1.44.59,2,.05Z"/>
  <path class="st0" d="M442.27,802.11l.07-11.74,64.76-60.4c.57-.53.6-1.43.07-2-.53-.57-1.43-.6-2-.07l-65.2,60.82c-.29.27-.45.64-.45,1.03l-.07,12.35c0,.78.63,1.42,1.41,1.43.78,0,1.42-.63,1.43-1.41h0ZM528.79,710.01l277.9-255.8c.58-.53.61-1.43.08-2-.53-.58-1.43-.61-2-.08l-277.9,255.8c-.58.53-.61,1.43-.08,2,.53.58,1.43.61,2,.08Z"/>
  <polygon class="st0" points="477.65 719.7 534.21 742.67 621.65 778.2 623.78 772.94 536.34 737.42 479.78 714.44 477.65 719.7 477.65 719.7"/>
  <polygon class="st0" points="497.15 700.2 554.67 723.56 641.15 758.7 643.28 753.44 556.81 718.31 499.28 694.94 497.15 700.2 497.15 700.2"/>
  <polyline class="st0" points="408.45 777.36 553.95 850.1 556.48 845.03 410.98 772.28"/>
  <path class="st1" d="M559.39,862.95c-1.04,1.16-2.82,1.26-3.99.22-1.16-1.04-1.26-2.83-.22-3.99l67.61-75.48-3.48-6.04c-.78-1.35-.31-3.08,1.04-3.85,1.35-.78,3.08-.31,3.85,1.04l4.45,7.73c.64,1.04.55,2.41-.3,3.36l-68.97,77ZM646.29,768.95c-1.05,1.16-2.84,1.24-4,.19-1.16-1.05-1.24-2.84-.19-4l253.18-278.99-.33-7.84c-.06-1.56,1.15-2.87,2.71-2.93,1.56-.06,2.87,1.15,2.93,2.71l.37,8.85c.07.76-.17,1.56-.72,2.17l-253.96,279.85Z"/>
  <path class="st0" d="M433.69,756.61c72,33.22,107.97,49.86,125.95,58.31,8.99,4.22,13.48,6.4,15.69,7.56,1.1.57,1.64.91,1.78,1.02l.03.02.09-.1-.1.1h0s.09-.1.09-.1l-.1.1.62-.62-.81.34c.07.16.16.27.18.29l.62-.62-.81.34.97-.41-1.04.2.06.2.97-.41-1.04.2.81-.16-.82.11v.05s.82-.16.82-.16l-.82.11.39-.05-.39.05h0s.39-.05.39-.05l-.39.05h0s1.5,12.39,1.5,12.39l2.81-.34-1.5-12.38s-.01-.12-.05-.26c-.03-.14-.1-.31-.19-.46-.17-.29-.37-.47-.57-.64-.38-.3-.86-.58-1.73-1.06-1.52-.82-4.22-2.15-9.18-4.51-14.86-7.08-49.95-23.33-133.1-61.69l-1.19,2.57Z"/>
  <polygon class="st0" points="485.54 749.56 599.47 799.79 600.88 811.37 603.69 811.03 602.09 797.85 486.69 746.96 485.54 749.56 485.54 749.56"/>
  <path class="st1" d="M493.51,708.92c-1.45-.59-2.15-2.24-1.56-3.69.59-1.45,2.24-2.15,3.69-1.56l143.17,58.36-1.13-5.27c-.32-1.53.65-3.03,2.18-3.35s3.03.65,3.35,2.18l2.23,10.4c.14.56.11,1.17-.12,1.75-.59,1.45-2.24,2.15-3.69,1.56l-148.12-60.38Z"/>
  <polygon class="st0" points="517.24 682.85 655.54 740.59 657.56 748.47 660.31 747.76 657.93 738.52 518.33 680.24 517.24 682.85"/>
  <path class="st0" d="M533.96,668.25c22.38,8.05,44.79,16.29,67.14,25,23.36,9.1,46.62,18.84,69.99,28.69l.55-1.31-1.41.17c.47,3.79.91,7.54,1.42,11.36l2.81-.38c-.51-3.79-.94-7.52-1.42-11.33l-.1-.81-.75-.32c-23.37-9.85-46.65-19.59-70.06-28.71-22.38-8.72-44.82-16.97-67.21-25.03l-.96,2.67h0Z"/>
  <path class="st0" d="M550.98,653.32c22.43,7.88,44.91,15.94,67.28,24.51,23.31,8.93,46.59,18.41,69.95,28.09l.54-1.31-1.41.17c.48,3.83.89,6.44,1.36,10.22l2.81-.35c-.48-3.83-.89-6.44-1.36-10.22l-.1-.82-.76-.32c-23.37-9.69-46.67-19.18-70.02-28.12-22.41-8.58-44.92-16.65-67.35-24.54l-.94,2.67h0Z"/>
  <path class="st0" d="M568.35,638.07c22.35,7.65,44.74,15.5,67.03,23.81,23.36,8.71,45.06,17.31,68.43,26.51l.52-1.32-1.41.17c.47,3.84.98,7.64,1.45,11.47l2.81-.35c-.47-3.84-.98-7.64-1.45-11.47l-.1-.84-.78-.31c-23.36-9.19-45.08-17.81-68.47-26.53-22.32-8.32-44.74-16.18-67.1-23.83l-.92,2.68Z"/>
  <path class="st0" d="M613.52,631.79c13.02,4.47,26.03,9.04,39.03,13.79,23.3,8.52,45.09,16.73,68.41,24.57l.45-1.34-1.41.17c.47,3.93.95,7.77,1.46,11.61l2.81-.37c-.51-3.83-.98-7.65-1.45-11.58l-.11-.89-.85-.28c-23.26-7.81-45.02-16.02-68.34-24.54-13.02-4.76-26.05-9.34-39.08-13.81l-.92,2.68h0Z"/>
  <path class="st0" d="M631.61,615.75c12.66,4.29,25.34,8.67,38.04,13.05l67.22,23.16,1.65,9.12,2.79-.5-1.94-10.75-68.79-23.7c-12.7-4.38-25.38-8.75-38.05-13.05l-.91,2.68Z"/>
  <path class="st0" d="M763.72,466.6c13.91,3.53,27.8,7.12,41.67,10.83,23.3,6.24,46.56,12.83,69.85,19.53l.39-1.36-1.41.17c.51,4.11,1.02,8.23,1.53,12.25l2.81-.36c-.51-4.02-1.02-8.13-1.53-12.24l-.12-.93-.9-.26c-23.3-6.7-46.57-13.3-69.9-19.55-13.88-3.71-27.79-7.31-41.7-10.84l-.7,2.75h0Z"/>
  <polyline class="st0" points="550.18 887.43 553.18 922.68 560.24 922.08 557.24 886.83"/>
  <path class="st0" d="M648.95,599c12.54,4.2,25.11,8.45,37.77,12.53l67.25,21.69,2.2,9.04,2.75-.67-2.58-10.58-68.76-22.18c-12.63-4.07-25.19-8.32-37.74-12.52l-.9,2.69Z"/>
  <path class="st0" d="M667.14,582c12.16,3.95,24.35,7.94,36.59,11.81,23.18,7.32,45.07,13.68,68.34,21.03l.43-1.35-1.41.18c.27,2.1.74,3.62,1.17,5.01.43,1.4.83,2.67,1.07,4.52l2.81-.36c-.27-2.08-.74-3.6-1.17-4.99-.43-1.4-.83-2.68-1.07-4.54l-.12-.9-.86-.27c-23.31-7.36-45.2-13.72-68.34-21.03-12.22-3.86-24.4-7.85-36.57-11.8l-.88,2.7Z"/>
  <path class="st0" d="M686.12,564.52c11.57,3.52,23.14,7.05,34.71,10.53l67.87,20.45,1.81,8.76,2.78-.57-2.15-10.42-69.49-20.93c-11.56-3.48-23.13-7-34.7-10.53l-.82,2.71h0Z"/>
  <path class="st0" d="M680.62,539.54c19.05,5.54,38.13,11.04,57.19,16.54,23.22,6.7,46.46,13.77,69.75,20.9l.41-1.36-1.41.17c.47,3.98.61,5.28,1.08,9.28l2.81-.33c-.47-3.98-.61-5.28-1.08-9.28l-.11-.92-.88-.27c-23.29-7.14-46.54-14.21-69.79-20.92-19.06-5.5-38.13-11-57.19-16.54l-.79,2.72Z"/>
  <path class="st0" d="M700.78,521.86c18.04,4.94,36.05,9.85,54.01,14.93,23.23,6.58,46.42,13.58,69.71,20.59l.41-1.36-1.41.18c.26,2.04.52,3.57.77,5.07.25,1.5.49,2.96.72,4.92l2.81-.33c-.24-2.03-.49-3.55-.74-5.05-.25-1.5-.5-2.98-.75-4.96l-.12-.91-.88-.27c-23.29-7.01-46.49-14.02-69.75-20.6-17.98-5.09-36-10-54.04-14.94l-.75,2.73h0Z"/>
  <path class="st0" d="M721.44,503.73c16.77,4.39,33.53,8.88,50.25,13.53,23.27,6.46,46.45,13.33,69.75,20.25l.4-1.36-1.41.18c.51,4.04.98,8.03,1.49,12.06l2.81-.36c-.51-4.01-.98-8-1.49-12.06l-.12-.92-.89-.26c-23.29-6.92-46.49-13.79-69.79-20.26-16.74-4.65-33.51-9.14-50.29-13.54l-.72,2.74h0Z"/>
  <path class="st0" d="M742.44,485.29c15.39,3.97,30.77,8.03,46.12,12.21,23.3,6.34,46.53,13.08,69.82,19.84l.4-1.36-1.41.15c.44,4.1.95,8.13,1.46,12.18l2.81-.35c-.51-4.05-1.02-8.06-1.45-12.13l-.1-.95-.91-.27c-23.29-6.76-46.54-13.5-69.86-19.86-15.36-4.18-30.76-8.25-46.16-12.22l-.71,2.75h0Z"/>
  <path class="st1" d="M763.41,686.22c-1.16-3.48-2.14-7.11-3-10.53-3.12-12.36-5-25.16-5.76-37.88-2.51-41.72,7.04-82.56,27.21-119.16,1.23-2.23,2.75-4.3,4.47-6.17,6.25-6.82,17.99-13.62,27.03-8.01,6.29,3.9,7.25,11.26,6.08,17.96-6.34,36.36-6.87,74.06-2,110.64,1.48,11.16,3.48,22.33,6.11,33.28.96,4,2,8.19,3.28,12.1.42,1.29.53,2.48.34,3.82-.78,5.56-2.87,12.01-5.34,16.99-5.45,10.96-14.79,18.82-27.64,18.1-11.08-.62-26.48-4.44-34.95-12.29-3.12-2.9-3.63-7.57-1.21-11.07l5.39-7.79Z"/>
  <path class="st3" d="M811.06,520.98c-15.52,89.03,7.68,160.13,7.68,160.13,0,0-4.03,28.91-24.08,27.78-20.04-1.13-29.64-10.03-29.64-10.03l7.88-11.4s-31.25-78.2,16.41-164.69c6.27-11.38,24.73-18.84,21.75-1.79Z"/>
  <path class="st1" d="M732.55,726.03c-1.4-2.88-2.72-5.83-3.98-8.72-4.52-10.37-8.46-21.05-11.81-31.85-9.93-31.95-15.17-66.42-11.87-99.85.62-6.28,4.02-14.98,6.62-20.72,3.77-8.35,11.13-22.75,22.19-21.43,8.48,1.01,11.62,9.75,12.99,16.96,3.25,17.17,7.62,34.29,12.4,51.09,5.34,18.8,11.32,37.51,17.91,55.91,2.65,7.39,5.4,14.76,8.36,22.03,2.03,5,4.17,10.11,6.62,14.92.44.87.7,1.67.84,2.63.71,4.82.26,10.77-.93,15.44-2.84,11.14-10.37,18.95-21.66,21.68-10.13,2.44-25.64,4.01-35.81.43-2.31-.81-4-2.38-4.97-4.63-.98-2.25-.97-4.55,0-6.8l3.11-7.1Z"/>
  <path class="st3" d="M784.4,708.24s3.37,22.91-16.17,27.62c-19.54,4.72-30.99.67-30.99.67l4.72-10.78s-35.73-67.23-28.6-139.31c1.04-10.56,19.39-53.96,24.98-24.45,9.9,52.26,34.79,124.12,46.06,146.24Z"/>
  <path class="st1" d="M704.89,751.33c-2.97-3.63-5.83-7.42-8.52-11.13-8.41-11.59-16.17-24.18-21.93-37.3-4.36-9.93-7.78-20.68-8.71-31.53-.82-9.6-2.26-28.63,9.19-32.82,10.63-3.88,19.51,8.72,24.43,16.17,16.12,24.44,32.58,48.83,49.47,72.75.21.3.38.57.56.9,2.34,4.38,3.82,10.29,3.92,15.2.27,12.34-6.96,21.1-18.22,25.46-8.63,3.34-27.49,9.52-34.74.1-2.2-2.86-2.39-6.6-.49-9.67l5.04-8.14Z"/>
  <path class="st3" d="M692.25,659.41c27.28,41.34,49.62,72.97,49.62,72.97,0,0,11.02,20.64-9.86,28.72-20.89,8.08-24.93,2.84-24.93,2.84l8.31-13.41s-37.99-42.54-41.19-79.89c-1.99-23.26,2.34-35.05,18.05-11.24Z"/>
  <path class="st8" d="M709.98,728.02c-1.69-2.4-3.31-4.83-4.87-7.27-2.67-4.18-5.15-8.41-7.44-12.63-.07-.14-.15-.27-.22-.41-1.5-2.79-2.92-5.57-4.26-8.34-.1-.2-.19-.4-.29-.6-3.17-6.64-5.84-13.16-7.98-19.35-1.03-2.97-1.93-5.86-2.7-8.66-1.74-6.26-2.84-12.02-3.28-17-.24-2.71-.27-5.19-.11-7.41-2.16.03-3.57,2.13-4.35,5.77-.92,4.31-.96,10.78-.3,18.52.14,1.59.34,3.2.59,4.8.13.82.28,1.64.44,2.46,1.61,8.25,4.65,16.61,8.37,24.56.65,1.4,1.33,2.79,2.02,4.16.11.21.21.42.32.62,1.42,2.79,2.91,5.52,4.44,8.17.08.15.17.3.26.44,2.53,4.36,5.15,8.48,7.69,12.26,1.68,2.49,3.33,4.84,4.89,7l.1.14c2.31,3.18,4.44,5.96,6.25,8.24.92,1.16,1.76,2.19,2.49,3.09,2.08,2.53,3.34,3.94,3.34,3.94l-8.31,13.41s.11.14.38.34c1.4,1.02,7.08,3.58,24.55-3.18,1.96-.76,3.64-1.63,5.08-2.59-4.53-3.94-8.82-8.19-12.88-12.66-1.92-2.12-3.79-4.28-5.6-6.48-.65-.79-1.29-1.58-1.92-2.37-2.22-2.8-4.36-5.66-6.4-8.55-.1-.15-.21-.29-.31-.44Z"/>
  <path class="st8" d="M732.38,648.91c-1.74-8.59-3.05-17.04-4-25.23l-.02-.2c-.96-8.35-1.54-16.42-1.83-24.09-.1-2.59-.16-5.13-.19-7.62-.07-5.78.03-11.29.27-16.45.32-7.01.89-13.39,1.61-18.97.12-.91.24-1.8.37-2.67-1.98,1.74-4.01,4.61-5.93,7.99-1.9,3.35-3.69,7.19-5.18,10.91-2.26,5.64-3.84,10.99-4.13,13.88-.29,2.9-.5,5.8-.66,8.68-.19,3.48-.28,6.94-.28,10.38,0,4.36.12,8.68.37,12.95.38,6.55,1.03,12.96,1.9,19.2.25,1.83.53,3.64.81,5.43,1.44,8.98,3.3,17.55,5.36,25.52h0c.05.19.09.36.14.54.28,1.08.56,2.14.85,3.2.62,2.28,1.25,4.5,1.89,6.67.03.1.06.19.08.29,1.66,5.59,3.39,10.81,5.08,15.57,1.08,3.04,2.15,5.9,3.18,8.55.07.11.15.21.22.32,2.68,3.91,5.38,7.8,8.08,11.69,1.66,2.39,3.33,4.77,5,7.15,1.15,1.63,2.29,3.26,3.44,4.89.21.3.38.57.56.9,1.51,2.83,2.66,6.29,3.31,9.71,4.27-.17,9.36-.77,15.17-2.15-5.11-7.47-9.65-15.19-13.65-23.08-1.39-2.74-2.72-5.49-3.98-8.26-2.12-4.63-4.06-9.3-5.85-13.99-1.14-3.01-2.22-6.02-3.24-9.04-1.8-5.34-3.41-10.69-4.83-16.02l-.05-.2c-.9-3.38-1.73-6.74-2.49-10.09-.04-.15-.07-.31-.11-.46-.45-1.98-.87-3.94-1.26-5.91Z"/>
  <path class="st8" d="M786.82,564.05c1.13-6.43,2.46-12.55,3.96-18.26,2.21-8.42,4.78-15.97,7.62-22.43.78-1.77,1.58-3.46,2.39-5.05,1.38-2.7,2.82-5.16,4.29-7.33-4.74.44-11.03,4.64-14.72,10.08-.38.56-.73,1.13-1.05,1.71-2.54,4.61-4.86,9.2-6.96,13.75-.93,2.01-1.82,4-2.67,6-3.19,7.48-5.84,14.86-8.01,22.08-2.05,6.81-3.68,13.48-4.95,19.98-.18.9-.34,1.79-.51,2.68-1.47,8.11-2.4,15.92-2.9,23.37-.29,4.36-.44,8.6-.47,12.69,0,.11,0,.23,0,.34,0,.23,0,.45,0,.68.9,2.99,1.81,5.98,2.74,8.97v.04c1.68,5.36,3.41,10.71,5.18,16.03,1.02,3.07,2.06,6.13,3.11,9.18,1.03,2.97,2.07,5.93,3.12,8.88.66,1.85,1.33,3.69,2,5.53,1.1,2.99,2.22,5.97,3.36,8.94.98,2.53,1.97,5.05,2.99,7.56,2.03,5,4.17,10.11,6.62,14.92.44.87.7,1.67.84,2.63.08.57.15,1.16.2,1.76.54.04,1.09.08,1.64.11.35.02.7.03,1.04.03-1.94-8.91-4.28-19.87-7.09-33.36-.03-.14-.06-.29-.09-.43-.72-3.49-1.37-6.99-1.96-10.49-.96-5.78-1.74-11.57-2.35-17.34-.4-3.84-.73-7.67-.99-11.49-.47-7.07-.7-14.08-.69-20.97v-.23c0-4.27.1-8.5.27-12.67v-.19c.14-3.15.32-6.26.54-9.34.59-8.15,1.49-16.01,2.66-23.49.26-1.64.53-3.27.81-4.87Z"/>
  <path class="st2" d="M872.01,458.2l29.09,7.87,30.6,8.27,6.78-7.37.86-.94-.9-.22-2.05-.51-31.35-7.82-119.45-29.79-153.2,131.86-7.99,6.88-16.09,13.85-17.02,14.65-8.19,7.05h0s-25.91,22.31-25.91,22.31c9.1-7.45,17.84-14.61,26.23-21.49h.01c2.8-2.31,5.57-4.57,8.3-6.81,6.01-4.92,11.83-9.69,17.48-14.32,5.75-4.71,11.32-9.27,16.71-13.69,2.77-2.27,5.49-4.5,8.17-6.69l153.66-125.86,84.24,22.78Z"/>
</svg>