<?xml version="1.0" encoding="utf-8"?>
<!-- Generator: Adobe Illustrator 27.0.0, SVG Export Plug-In . SVG Version: 6.00 Build 0)  -->
<svg version="1.1" id="Layer_2" xmlns="http://www.w3.org/2000/svg" xmlns:xlink="http://www.w3.org/1999/xlink" x="0px" y="0px"
	 viewBox="0 0 1258.58 722.83" style="enable-background:new 0 0 1258.58 722.83;" xml:space="preserve">
<style type="text/css">
	.st0{fill:#FFFFFF;}
	.st1{fill:#002A3E;}
	.st2{fill:#565AEF;}
	.st3{fill:#D488FF;}
	.st4{fill:#FFDCFF;}
	.st5{opacity:0.44;}
	.st6{fill:#5A21FF;}
</style>
<rect y="0" class="st0" width="1258.58" height="722.83"/>
<g>
	<g>
		<g>
			<g>
				<path class="st1" d="M341.21,500.7c19.3,0,38.43,0,57.66,0c0-16.59,0-33.01,0-49.45c-19.32,0-38.45,0-57.66,0
					C341.21,467.82,341.21,484.24,341.21,500.7z"/>
				<rect x="341.21" y="525.45" class="st1" width="57.66" height="184.83"/>
				<path class="st1" d="M175.28,544.92c-19.51-39.58-77.77-26.86-111.87,0l-2.23-19.47H5.67v184.83h57.66V576.51
					c31.22-32.93,61.04-11.22,61.04,11.87v121.9h57.66v-133.8c31.22-32.93,60.87-11.12,60.87,11.98v121.83h57.66V575.7l0,0
					C299.58,505.36,213.05,508.94,175.28,544.92z"/>
				<g>
					<path class="st1" d="M630.28,586.07c0.75-75.69-97.8-82.45-133.01-41.16l-2.43-19.47h-55.31v184.83h57.66l0-133.77
						c31.14-33.56,75.38-9.32,75.43,18.89l0,114.88h57.66v-133.8"/>
				</g>
				<path class="st1" d="M806.44,483.05v60.16c-15.21-15.03-35.86-23.44-59.85-23.44c-47.69,0-87.58,32.94-87.58,85.73v24.85
					c0,53.09,39.62,86.65,87.58,86.65c24.33,0,45.22-8.7,60.49-24.16l3.19,17.43l51.63,0.01V467.18L806.44,483.05z M788.98,665.9
					c-7.11,7.12-16.71,10.73-28.53,10.73c-11.83,0-21.44-3.61-28.55-10.74c-9.71-9.72-14.59-25.71-14.55-47.51
					c-0.05-21.79,4.84-37.77,14.55-47.5c7.11-7.13,16.72-10.74,28.55-10.74c11.82,0,21.42,3.62,28.53,10.74
					c9.71,9.72,14.59,25.71,14.55,47.51C803.58,640.19,798.69,656.18,788.98,665.9z"/>
				<path class="st1" d="M1020.6,665.9c-7.11,7.12-16.71,10.74-28.53,10.74s-21.44-3.62-28.55-10.74
					c-6.67-6.69-11.01-16.4-13.09-28.87h41.63h101.12l0.32-31.06c0.02-21.16-8.86-42.19-24.36-57.72
					c-12.97-12.99-36.88-28.48-77.07-28.48c-40.2,0-64.12,15.49-77.1,28.48c-15.49,15.52-24.37,36.56-24.35,57.71v24.85
					c-0.02,21.16,8.86,42.19,24.35,57.72c12.98,12.99,36.89,28.48,77.1,28.48c40.19,0,64.1-15.49,77.07-28.48
					c7.97-7.98,14.16-17.43,18.32-27.59h-62.77C1023.42,662.72,1022.09,664.41,1020.6,665.9z M992.06,560.15
					c11.82,0,21.42,3.62,28.53,10.74c6.67,6.69,11.01,16.41,13.09,28.87h-83.27c2.08-12.46,6.42-22.18,13.09-28.87
					C970.63,563.77,980.24,560.15,992.06,560.15z"/>
				<path class="st1" d="M1179.93,544.15l-0.05,0.08v-18.77h-57.66v184.83h57.66V586.84l0.05,0.06c19.1-13.2,49.3-27.2,72.98-27.2
					V520.9C1225.02,515.06,1201.91,526.51,1179.93,544.15z"/>
			</g>
		</g>
	</g>
	<g>
		<g>
			<polyline class="st2" points="736.75,35.85 877.28,35.85 877.28,319.79 788.52,408.67 381.3,408.75 381.3,128.46 471.48,35.85 
				612.81,35.85 			"/>
		</g>
		<g>
			<g>
				<polygon class="st3" points="451.45,408.72 499.64,191.61 433.03,172.32 422.51,81.16 500.3,17.9 706.5,11.04 722.42,32.23 
					747.99,27.4 771.37,50.78 769.03,62.47 796.61,96.51 820.72,294.48 825.25,371.92 788.52,408.67 				"/>
			</g>
			<g>
				<path class="st4" d="M422.73,78.05c16.41-12.31,77.44-4.1,85.23,1.42c21.04,43.83,55.02,147.01,55.02,147.01l-136.97-52.4
					C426.02,174.08,420.16,102.67,422.73,78.05z"/>
			</g>
			<g>
				<path class="st1" d="M550.01,49.44c0,0,44.24,0,46.93,0c12.49,0,26.51,10.68,24.76,27.78c-1.6,15.62-26.9,24.31-26.9,24.31
					L550.01,49.44z"/>
			</g>
			<g>
				<circle class="st0" cx="569.95" cy="70.4" r="11.31"/>
			</g>
			<g>
				<path class="st1" d="M424.52,84.77h48.55c3.07,0,5.88,1.74,7.25,4.48v0c1.73,3.45,0.78,7.64-2.26,10.02l-28.11,21.96
					l-26.04-15.62L424.52,84.77z"/>
			</g>
			<g>
				<rect x="446.39" y="114.98" class="st1" width="7.14" height="27.25"/>
			</g>
			<g>
				<path class="st1" d="M495.79,159.77c0.3-4.51-2.6-8.6-6.95-9.8c-4.72-1.31-39.4-11.55-39.4-11.55l-21.87,10.42l-0.22,7.94
					c0,0,16.79-8.12,22.92-10.75C454.43,147.59,495.79,159.77,495.79,159.77L495.79,159.77z"/>
			</g>
			<g class="st5">
				<polygon class="st6" points="459.32,373.34 613.59,237.19 492.63,198.62 				"/>
			</g>
			<g>
				<path class="st4" d="M480.34,72.4l50.46-40.37c1.38-1.1,3.09-1.7,4.86-1.7l190.86,0.53l-21.55-19.53l-201.3,1.64l-64.6,63.84
					L480.34,72.4z"/>
			</g>
			<g class="st5">
				<path class="st6" d="M425.55,154.98c0,0,144.34,47.56,186.98,63.07c25.71,9.35,19.87,32.14,19.87,32.14l-198.68-73.63
					l-11.5-16.45L425.55,154.98z"/>
			</g>
			<g class="st5">
				<path class="st6" d="M632.66,408.68l155.86-0.01l38.54-38.6L795.07,91.9l-25.64-30.24c8.8-16.26-10.34-20.81-10.34-20.81
					s3.14,7.09-2.05,12.27c-7.23,7.23-47.37,41.43-51.42,45.51c-1.42,1.43-0.57,3.86,1.42,4.1l44.16,5.31l14.9,153.68L632.66,408.68
					z"/>
			</g>
			<g>
				<path class="st4" d="M496.14,211.1l1.75,24.83c0,6.14-6.48,43.12-6.57,43.86l-16.28,128.93h-22.91L496.14,211.1z"/>
			</g>
			<g>
				<polygon class="st4" points="795.59,93.95 825.78,371.35 809.18,387.98 776.62,70.65 				"/>
			</g>
			<g>
				<g>
					<path class="st1" d="M820.78,376.35l-30.17-271.45c-0.37-3.44-1.88-6.7-4.23-9.19l-0.56-0.68l-21.67-30.68l9.52-6.7
						l21.43,30.34c4.03,4.41,6.59,10.08,7.23,16.02l29.6,261.25L820.78,376.35z"/>
				</g>
			</g>
			<g>
				<g>
					<polygon class="st1" points="457.26,408.72 445.64,408.72 488.99,198.11 499.79,200.6 					"/>
				</g>
			</g>
			<g>
				<path class="st4" d="M710.01,54.43c3.65,2.97,11.41,3.46,15.31,0.83c7.01-4.74,19.62-15.06,24.37-16.45
					c6.33-1.85,17.38,2.06,17.38,2.06l-22.6-15.99l-16.05,9.83l-22.9,16.06L710.01,54.43z"/>
			</g>
			<g>
				<g>
					<path class="st1" d="M748.67,87.74L748.67,87.74c-4.89-7.18-4.31-13.85,2.55-19.18c3.08-2.39,6.07-5.95,7.95-7.44
						c4.87-3.85,5.39-11.28,2.39-16.24c-2.08-3.44-5.98-8.38-11.63-12.22c-3.31-2.26-8.63-3.3-17.69,3.59
						c-6.41,4.87-10.92,8.41-15.39,12.05c-5.67,4.62-11.52,7.07-16.42,1.65L698.68,48c0.54-0.49,13.56-11.24,26.98-21.41
						c9.47-7.18,15.98-14.22,30.92-3.88c4.74,3.28,11.86,10.44,14.89,14.13c9.52,11.61,6.05,23.91-5.64,34.53
						C759.08,77.53,749.25,87.35,748.67,87.74z"/>
				</g>
			</g>
			<g>
				<path class="st0" d="M459.25,90.13h-18.21c-6.21,0-6.37,2.18-6.37,2.18h30.5C465.17,92.31,464.6,90.13,459.25,90.13z"/>
			</g>
			<g>
				<g>
					<path class="st1" d="M633.82,254.8l-192.43-67.65c-13.11-4.53-21.77-16.88-22.25-30.75l-1.79-63.22
						c-0.3-8.81,3.52-17.27,10.33-22.87l69.68-56.12c6.59-5.41,14.86-8.37,23.39-8.37l173.8,1.4c9.98,0,18.72,5.75,25.15,13.38
						l9.74,11.8l-9.09,6.76l-11.97-13.23c-3.65-4.32-8.62-6.63-13.9-6.63l-177.12-1.28c-4.84,0-9.54,1.68-13.28,4.76l-71.86,57.58
						c-2.99,2.45-4.53,7.49-4.4,11.36l0.3,64.29c0.25,7.33,9.23,19.66,16.16,22.05l172.33,59.49
						C624.9,240.42,636.69,246.48,633.82,254.8L633.82,254.8z"/>
				</g>
			</g>
			<g>
				<g>
					<path class="st1" d="M556.67,221.82L510,93.47c-3.35-9.28-11.87-15.59-21.72-16.09l-53.24-0.1l3.97-7.97l49.66,0.11
						c13.08,0.66,24.38,9.04,28.82,21.34l46.67,128.34L556.67,221.82z"/>
				</g>
			</g>
		</g>
	</g>
</g>
</svg>
