<?xml version="1.0" encoding="UTF-8"?>
<svg id="Layer_1" xmlns="http://www.w3.org/2000/svg" version="1.1" viewBox="0 0 1558.79 1596.96">
  <!-- Generator: Adobe Illustrator 29.4.0, SVG Export Plug-In . SVG Version: 2.1.0 Build 152)  -->
  <defs>
    <style>
      .st0 {
        fill: #8a2428;
      }

      .st0, .st1, .st2, .st3, .st4, .st5, .st6, .st7, .st8, .st9, .st10 {
        fill-rule: evenodd;
      }

      .st1 {
        fill: #c6bfbf;
      }

      .st11, .st3 {
        fill: #fff;
      }

      .st2 {
        fill: #796c67;
      }

      .st4 {
        fill: #bf211c;
      }

      .st5 {
        fill: #2e4463;
      }

      .st6 {
        fill: #ca5a51;
      }

      .st7 {
        fill: #cb5e56;
      }

      .st8 {
        fill: #fff150;
      }

      .st9 {
        fill: #20344f;
      }

      .st10 {
        fill: #897e78;
      }
    </style>
  </defs>
  <g>
    <path class="st9" d="M984.81,322.09c-35.83-62.87-141.91-180.8-195.97-242.68-51.74-59.23-39.27-57.76-136.06-76.22-12.49-2.38-6.91-.94-14.39-3.04l4.13-.15c35.13.7,94.19,10.13,117.54,33.88,62.73,63.79,204.08,216.59,243.7,283.11,1.89,3.89-.81,8.19-6.05,9.6-5.23,1.41-11.01-.61-12.9-4.5Z"/>
    <path class="st9" d="M534.28,605.46l-17.46-1.7,12-20.35c8.54-14.46,19.38-29.2,29.75-42.24,22.25-27.98,48.48-54.48,77.9-74.24l14.21-9.54,6.74,16.1c3.75,8.96,5.42,21.3,5.41,30.92-.03,24.18-9.19,46.02-24.49,64.06-13.28,15.65-29.7,28.04-48.75,34.56,1.31,2.56,2.51,5.1,3.57,7.55,9.15,21.22,11.71,44.42,2.63,66.24-8.25,19.83-22.91,34.07-42.94,40.19-8.14,2.49-18.76,3.89-27.34,2.81l-31.98-2.98,2.49-15.78c2.24-14.18,6.93-30,11.78-43.36,6.63-18.25,15.34-36.24,26.49-52.24Z"/>
    <path class="st9" d="M999.38,1310.08c-21.51-.2-44.76,4.87-56.65,25.58-12.13,21.13-5.88,45.95-3.96,67.95,3.87,44.27,14.88,90.35,17.11,132.04,1.15,21.4-7.34,44.07-3.23,43.02,24.51-6.22,52.11-47.43,61.13-68.12,16.35-37.5,32.31-88.65,32.51-128.25.17-33.11-6.45-71.86-46.92-72.23Z"/>
    <path class="st9" d="M898.24,1345.28c-21.51-.19-44.76,4.56-56.65,23.97-12.13,19.8-5.88,43.05-3.96,63.67,3.86,41.47,14.87,84.65,17.11,123.7,1.15,20.05-7.34,41.28-3.23,40.3,24.51-5.83,52.11-44.44,61.13-63.82,16.35-35.13,32.31-83.05,32.51-120.15.17-31.02-6.45-67.32-46.92-67.67Z"/>
    <path class="st4" d="M998.44,1324.95c23.61.22,33.17,18.8,32.97,58.09-.19,35.45-10.52,81.86-26.52,121.11-15,36.8-46.08,67.57-44.91,63.9,14.7-46.12-1.09-106.14-6.36-166.51-2.61-29.91-16.86-77.15,44.82-76.59Z"/>
    <path class="st4" d="M897.3,1359.21c23.61.21,33.17,17.61,32.97,54.42-.19,33.21-10.52,76.69-26.52,113.46-15,34.48-46.08,63.3-44.91,59.86,14.7-43.21-1.09-99.43-6.36-155.99-2.61-28.02-16.86-72.28,44.82-71.75Z"/>
    <path class="st9" d="M1002.36,1325.29c-.26-.99.34-2,1.33-2.26.99-.26,2,.34,2.26,1.33,9.04,34.78,8.23,75.11.81,115.42-8.36,45.43-25.12,90.88-45.59,128.33-.49.9-1.61,1.23-2.51.74-.9-.49-1.23-1.61-.74-2.51,20.3-37.12,36.91-82.18,45.2-127.23,7.33-39.82,8.15-79.6-.75-113.82Z"/>
    <path class="st9" d="M901.24,1359.59c-.27-.99.31-2.01,1.29-2.28.99-.27,2.01.31,2.28,1.29,9.05,32.62,8.24,70.44.81,108.24-8.37,42.59-25.14,85.19-45.62,120.29-.52.88-1.66,1.18-2.54.67-.89-.52-1.19-1.65-.67-2.54,20.29-34.76,36.89-76.96,45.18-119.13,7.33-37.28,8.15-74.51-.74-106.54Z"/>
    <path class="st9" d="M975.74,1350.96c26,0,47.2-21.21,47.2-47.2s-21.2-47.2-47.2-47.2-47.2,21.2-47.2,47.2,21.21,47.2,47.2,47.2Z"/>
    <path class="st4" d="M975.74,1336.09c17.81,0,32.33-14.52,32.33-32.33s-14.52-32.33-32.33-32.33-32.33,14.52-32.33,32.33,14.52,32.33,32.33,32.33Z"/>
    <path class="st9" d="M877.63,1388.22c25.42,0,46.15-20.73,46.15-46.15s-20.73-46.15-46.15-46.15-46.15,20.73-46.15,46.15,20.73,46.15,46.15,46.15Z"/>
    <path class="st4" d="M877.63,1373.34c17.23,0,31.28-14.05,31.28-31.28s-14.05-31.28-31.28-31.28-31.28,14.05-31.28,31.28,14.05,31.28,31.28,31.28Z"/>
    <path class="st9" d="M763.61,1238.82c9.32.3,18.63,1.38,27.8,3.11,24.51,4.63,50.2,14.37,70.69,28.75,17.5,12.28,34.8,30.81,34.81,53.55,0,2.47-.21,4.93-.63,7.37-.92,5.32-2.96,10.3-6.15,14.67-21.76,29.75-80.47,15.04-108.68,4.16-16.8-6.48-33.88-15.3-48.02-26.52-16.7-13.25-30.8-33.9-22.21-55.88,8.08-20.67,31.56-29.87,52.39-29.2Z"/>
    <path class="st4" d="M763.13,1253.68c59.81,1.93,124.68,39.47,118.5,75.38-6.34,36.77-95.79,17.44-138.96-16.82-38.05-30.19-13.06-59.65,20.46-58.57Z"/>
    <path class="st9" d="M860.15,1200.98c9.32.3,18.64,1.38,27.8,3.11,24.51,4.63,50.2,14.37,70.69,28.75,17.5,12.28,34.8,30.81,34.82,53.55,0,2.47-.21,4.93-.63,7.37-.92,5.32-2.96,10.3-6.15,14.67-21.76,29.75-80.47,15.04-108.68,4.16-16.8-6.48-33.88-15.3-48.02-26.52-16.7-13.25-30.8-33.9-22.21-55.88,8.08-20.67,31.56-29.87,52.39-29.2Z"/>
    <path class="st4" d="M859.67,1215.85c59.81,1.93,124.68,39.47,118.5,75.38-6.34,36.77-95.79,17.44-138.96-16.82-38.05-30.2-13.06-59.65,20.46-58.57Z"/>
    <path class="st9" d="M896.77,1251.59c-.99-.26-1.58-1.28-1.31-2.27.26-.99,1.28-1.58,2.27-1.31,26.91,7.24,45.17,15.96,57.24,24.74,16.54,12.04,21.58,24.35,21.26,33.26-.04,1.02-.9,1.82-1.92,1.79-1.02-.04-1.82-.89-1.79-1.92.28-7.91-4.4-18.98-19.74-30.14-11.72-8.53-29.57-17.03-56.02-24.14Z"/>
    <path class="st9" d="M833.04,1317.09c-.94-.4-1.38-1.49-.98-2.43.4-.94,1.49-1.38,2.43-.98,17.92,7.64,29.79,12.92,37.05,17.52,7.9,5,10.62,9.36,9.7,14.93-.17,1.01-1.12,1.69-2.13,1.53-1.01-.17-1.69-1.12-1.53-2.13.65-3.87-1.61-7.13-8.01-11.18-7.04-4.46-18.78-9.67-36.53-17.24Z"/>
    <path class="st9" d="M1076.69,1031.94c28.33-14.69,43.02-78.7,43.02-109.13s-36.73-60.86-36.73-60.86c0,0-60.86,5.25-6.3,170Z"/>
    <path class="st9" d="M254.53,1320.14c-4.8-14.39-8.45-30.21-11.68-45-5.02-23-9.06-46.41-11.66-69.81-3.78-33.95-7.4-92.29,14.99-120.66,10.74-13.61,27.59-27.4,46.1-21.06,13.49,4.62,21.02,18.04,24.15,31.19,3.86,16.22,1.97,34.11-3.1,49.86-3.67,11.38-6.65,23.16-9.45,34.78-3.46,14.35-6.6,28.79-9.6,43.24-7.04,33.91-13.49,68.18-19.24,102.35-.8,4.77-4.81,8.2-9.65,8.27-4.83.06-8.93-3.27-9.86-8.01l-1-5.14Z"/>
    <path class="st0" d="M264.14,1317.61c-10.74-31.89-45.91-181.5-10.17-226.79,35.73-45.28,66.66-1.15,49.93,50.8-16.74,51.95-38.62,181.76-38.62,181.76l-1.13-5.77Z"/>
    <path class="st9" d="M259.85,1252.24c-2.51-13.36-4.66-26.8-6.36-40.29-3.66-29.08-10.99-90.6,8.26-114.99,4.82-6.11,15.51-17.53,24.11-14.59,6.31,2.16,9.86,11,11.29,17.02,3,12.62,1.26,26.94-2.69,39.18-8.41,26.09-15.01,53.25-20.58,80.07-2.32,11.19-4.58,22.4-6.77,33.63-.46,2.36-1.49,4.02-3.89,4.01-2.4,0-2.92-1.68-3.37-4.04Z"/>
    <path class="st10" d="M263.24,1251.33c2.19-11.26,4.45-22.49,6.78-33.68,5.51-26.55,11.41-54.8,19.72-80.59,3.65-11.33,5.37-24.79,2.58-36.52-.92-3.86-3.75-11.99-8.07-13.47-5.74-1.97-15.81,9.42-18.61,12.97-19.36,24.53-12.88,95.56-2.4,151.29Z"/>
    <path class="st9" d="M943.1,365.25c4.07-10.24,9.22-20.27,15.58-29.29,5.62-7.98,12.85-15.81,21.27-20.88,8.6-5.17,19.2-7.56,28.41-2.33,14.66,8.33,13.26,27.1,9.31,40.96-2.8,9.82-6.16,19.52-9.41,29.2-4.82,14.34-21.5,18.23-34.92,17.14-12.34-1.01-26.58-6.46-30.83-19.27-1.7-5.11-1.39-10.54.59-15.52Z"/>
    <path class="st0" d="M956.92,370.74c4.18-10.51,9.04-19.3,13.91-26.22,18.81-26.68,41.93-27.86,32.53,5.1-2.52,8.83-5.94,18.82-9.21,28.54-4.18,12.43-43.34,7.93-37.24-7.42Z"/>
    <path class="st9" d="M1061.53,829.67c9.36.69,18.74,1.23,28.12,1.68,34.62,1.65,69.76,2.27,104.43,1.92,7.51-.08,13.83,5.35,14.88,12.8l17.05,120.91c.63,4.44-.59,8.51-3.54,11.88-2.96,3.37-6.83,5.11-11.31,5.07-12.4-.11-25.23-1.03-37.56-2.17-26.53-2.45-53.48-6.64-79.2-13.62-28.59-7.77-60.62-20.44-81.43-42.26-14.52-15.21-25.51-35.4-16.28-56.41,9.5-21.63,38.76-34.71,60.59-39.48,1.47-.32,2.77-.41,4.27-.3Z"/>
    <path class="st4" d="M1060.44,844.5c59.81,4.41,133.79,3.64,133.79,3.64l17.05,120.91s-137.73-1.22-187.57-53.44c-49.84-52.23,36.73-71.1,36.73-71.1Z"/>
    <path class="st9" d="M1190.63,776.81c9.35-3.26,19.03-6.14,28.55-8.84,20.55-5.82,41.62-10.8,62.73-14.09,30.86-4.82,81.5-9.43,103.8,17.74,23.27,28.35,1.81,71.34-14.17,97.59-32.17,52.82-81.69,100.46-144.65,111.5-41.99,7.37-47.62.28-69.95-39.37-7.61-13.5-25.46-6.28-36.82-21.98-17.66-24.41-1.43-67.22,15.4-93.38,16.54-25.7,33.36-34.85,51.59-47.38,1.15-.79,2.22-1.33,3.53-1.79Z"/>
    <path class="st4" d="M1195.53,790.86c-70.16,50.4-86.09,113.18-69.2,147.51,8.42,17.11,4.45,21.42,25.29,25.81,55.17,11.62,149.37-7.72,207.22-102.7,98.57-161.83-163.3-70.62-163.3-70.62Z"/>
    <path class="st9" d="M1289.17,886.1c68.52,0,124.4-41.45,124.4-92.26s-55.88-92.26-124.4-92.26-124.4,41.45-124.4,92.26,55.88,92.26,124.4,92.26Z"/>
    <path class="st4" d="M1289.17,871.23c60.33,0,109.53-34.77,109.53-77.39s-49.2-77.39-109.53-77.39-109.53,34.76-109.53,77.39,49.2,77.39,109.53,77.39Z"/>
    <path class="st9" d="M1284.35,429.34c13.31-3.71,32.86-7.43,41.96,6.37,10.62,16.1-6.28,36.35-16.57,47.85-23.79,26.59-36.51,56.1-34.51,91.97.66,11.81,2.86,22.93,5.19,34.46,1.94,9.62,4.62,21.43,0,30.63-12.71,25.35-53.55,16.56-75.16,10.97-18.25-4.72-37.58-11.28-55.01-18.62-6.06-2.55-9.62-8.47-9.04-15.01,7.76-87.95,54.49-163.93,143.13-188.61Z"/>
    <path class="st4" d="M1288.34,443.66c-90.05,25.07-125.99,104.03-132.3,175.59,0,0,97.82,41.17,111.1,14.69,7.91-15.77-36.4-84.38,31.53-160.31,24.99-27.93,20.5-38.55-10.33-29.97Z"/>
    <path class="st9" d="M1152.54,610.32c87.46,6.14,176.57-8.97,227.94-87.01,17.13-26.02,27.93-55.47,35.63-85.5,3.46-13.51,6.29-27.15,8.96-40.84,2.26-11.57,4.35-23.26,7.09-34.72,1.16-4.85,4.06-9.03,8.45-11.5,6.94-3.9,14.49-2.22,20.79,1.91,4.09,2.68,7.84,6.31,11.16,9.87,9.13,9.78,17.37,21.54,24.59,32.77,20.58,32.02,38.01,69.03,49.03,105.44,6,19.83,10.38,40.44,11.86,61.13,4.07,56.88-8.39,115.67-40.29,163.45-41.57,62.26-107.04,93.36-180.77,97.2-55.56,2.89-118.94-8.33-160.82-47.69-42.9-40.32-49.66-96.93-39.29-152.4,1.4-7.47,8.09-12.64,15.66-12.1Z"/>
    <path class="st4" d="M1151.5,625.16c-26.45,141.52,81.2,187.89,184.72,182.51,147.26-7.67,215.53-125.24,206.99-244.73-7.28-101.83-91.81-217.19-96.58-197.23-18.46,77.3-26.43,278.31-295.13,259.45Z"/>
    <path class="st0" d="M1331.4,807.88c1.61-.06,3.21-.13,4.82-.21,147.26-7.67,215.53-125.24,206.99-244.73-7.22-101.04-90.5-215.39-96.44-197.64,63.53,87.31,92.21,354.78-115.37,442.59Z"/>
    <path class="st9" d="M946.42,794.19c15.68,8.14,34.64,13.58,51.79,17.67,20.39,4.87,41.28,8.37,62.06,11.07,9.58,1.24,19.33,2.39,28.96,3.13,5.2.4,9.48,3.19,11.95,7.78,2.47,4.59,2.44,9.7-.09,14.26-32.42,58.45-28.49,104.21-17.05,167.29.89,4.94-.55,9.59-4.09,13.14-3.54,3.56-8.18,5.03-13.12,4.16-39.81-6.99-113.06-24.18-145.09-47.77-10.03-7.39-18.55-16.26-24.28-27.4-10.33-20.11-9.03-42.77-4.4-64.24,6.62-30.69,20.34-63.08,32.85-91.82,1.7-3.92,4.64-6.66,8.67-8.08,4.03-1.43,8.03-1.15,11.82.82Z"/>
    <path class="st5" d="M939.57,807.39c49.87,25.88,148.53,33.5,148.53,33.5-35.28,63.62-30.11,114.12-18.67,177.16,0,0-101.85-17.85-138.84-45.1-38.88-28.64-33.02-68.99,8.99-165.56Z"/>
    <path class="st9" d="M228.7,1332.57c-7.69-1.99-15.49-4.9-22.87-7.81-10.57-4.17-21-8.79-31.28-13.65-25.67-12.14-50.95-26.01-74.79-41.44-35.3-22.84-88.01-62.48-97.33-105.97-4.95-23.09-4-52.23,18.8-65.74,14.3-8.47,31.77-6.95,46.63-.83,18.18,7.49,33.41,21.81,44.3,37.96,8.27,12.26,17.56,24.13,26.84,35.65,11.41,14.17,23.18,28.06,35.08,41.81,28.09,32.44,57.13,64.52,86.6,95.73l10.47,11.09-39.53,13.95-2.93-.75Z"/>
    <path class="st4" d="M231.18,1322.97c-40.66-10.49-203.31-87.88-219.05-161.34-15.74-73.46,53.78-77.39,91.82-20.99,38.04,56.4,149.53,174.46,149.53,174.46l-22.3,7.87Z"/>
    <path class="st10" d="M205.48,1292.58c-18.25-19.96-10.01-18.67-27.65-39.04-21.89-25.28-71.64-74.1-90.33-101.81-27.24-40.38-64.22-32.69-55.99,5.74,7.13,33.29,58.57,70.89,85.45,88.28,22.73,14.71,71.53,38.7,96.01,50.27,5.6,2.65-13.9-6.25-7.49-3.45Z"/>
    <path class="st9" d="M204.01,1288.82c-6.58-7.25-12.72-18.31-18.94-25.3-35.75-40.17-67.79-63.22-99.62-110.4-9.81-14.54-20.81-22.59-30.29-25.03-4.24-1.08-8.14-1.03-11.45.08-3.2,1.08-5.87,3.17-7.75,6.2-3.13,5.04-4.15,12.67-2.02,22.6,2.78,12.96,12.5,26.57,24.84,39.33,18.42,19.04,42.59,36.06,58.48,46.34,11.14,7.21,22.62,14.06,34.31,20.54,12.04,6.67,24.34,12.95,36.75,18.82,2.32,1.1,13.16,5.65,15.69,6.83h0ZM188.76,1260.23c9.27,10.42,9.69,21,18.54,30.68l7.86,8.59-9.35-6.63c-27.4-11.97-66.21-29.91-91.24-46.1-16.1-10.42-40.6-27.68-59.33-47.04-12.92-13.36-23.14-27.76-26.14-41.75-2.41-11.26-1.11-20.14,2.66-26.22,2.51-4.05,6.09-6.85,10.38-8.29,4.19-1.41,9.05-1.5,14.23-.17,10.57,2.71,22.65,11.42,33.18,27.04,31.69,46.99,63.61,69.88,99.21,109.88Z"/>
    <path class="st9" d="M235.52,1326.68c-5.93-5.28-11.54-11.43-16.78-17.39-7.5-8.54-14.67-17.42-21.59-26.43-17.3-22.52-33.45-46.41-47.62-71.02-17.78-30.89-36.88-70.63-40.32-106.45-1.84-19.2.48-39.84,10.85-56.5,8.23-13.23,21.17-22.92,36.9-24.68,16.13-1.8,30.99,5.17,41.88,16.81,23.53,25.13,23.93,67.59,30.78,100.73,3.68,17.81,7.81,35.55,12.12,53.22,10.18,41.69,21.36,83.49,33.32,124.72l4.25,14.64-41.53-5.64-2.26-2.01Z"/>
    <path class="st4" d="M242.11,1319.27c-27.63-24.57-115.69-138.44-123.03-214.83-5.38-56.03,30.91-81.41,60.01-66.29,9.16,4.76,14.84,13.01,19.92,22.44,13.68,25.37,16.54,62.56,21.95,88.12,15.75,74.45,44.58,173.74,44.58,173.74l-23.43-3.18Z"/>
    <path class="st10" d="M233.13,1280.5c-2.84-10.39,4.72-6.38,1.78-17.25-8.28-30.57-41.31-213.21-74.65-209.48-6.51.73-11.62,5.47-14.95,10.83-6.74,10.84-7.68,25.58-6.5,37.95,2.33,24.23,17.21,65.98,36.43,101.97,17.02,31.87,37.78,58.43,51.25,75.97,3.78,4.92,2.2-5.4,6.63.02Z"/>
    <path class="st9" d="M231.34,1280.99v-.05s-.16.3-.16.3c-.34.7-.68,1.39-1.36,1.91-1.34,1.03-2.84.99-4.79-1.55l-1.79-2.34c-13.51-17.57-33.27-43.26-49.62-73.88-9.66-18.08-18.21-37.57-24.64-55.57-6.47-18.12-10.82-34.8-12-47.1-.66-6.91-.68-14.56.58-21.88,1.05-6.15,2.99-12.08,6.19-17.22,1.9-3.06,4.37-5.95,7.33-8.09,22.22-16.09,34.41,20.18,39.84,35.02,17.27,47.17,33.53,124.34,38.69,144.61,3.28,12.89,5.8,22.8,7.11,27.61,1.71,6.33.27,8.38-1.16,10.4-.9,1.28-1.79,2.53-.64,6.77.22.7,0,1.5-.6,1.99-.79.64-1.96.52-2.61-.27-.2-.24-.21-.51-.18-.73l-.17.05h0ZM230.63,1276.98c-.17-3.03.85-4.47,1.88-5.94.93-1.32,1.87-2.65.61-7.31-1.37-5.05-3.87-14.88-7.12-27.66-4.73-18.58-20.73-92.8-36.99-139.83-5.22-15.09-22.42-62.34-42.12-30.67-2.92,4.69-4.7,10.17-5.68,15.88-1.2,6.99-1.18,14.29-.55,20.91,1.15,11.96,5.43,28.33,11.81,46.2,6.39,17.89,14.87,37.21,24.41,55.08,16.2,30.33,35.85,55.89,49.29,73.36l1.8,2.34c.3-.6.64-1.2,1.23-1.69.44-.36.91-.61,1.42-.69Z"/>
    <path class="st9" d="M977.03,570.67c11.9,9.12,9.78,29.05,5.97,38.59-4.75,11.92-10.36,15.36-24.56,20.54-3.01,12.2-1.05,8.18-2.29,21,41.75,5.25,29.47,56.22,3.56,67.12.75,4.6,4.48,58.78,5.23,63.37,2.51,15.32,5,30.64,7.12,46.04,4.25,30.73,7.09,61.44,7.89,92.47,2.21,85.98-11.29,169.9-34.45,252.55-20.17,71.98-60.57,131.07-122.04,173.87-61.48,42.81-136.31,63.96-210.14,71.83-62.27,6.63-126.69,4.28-188.57-5.08-48.92-7.4-102.24-19.91-147.66-39.92-12.11-5.34-9.09-18.65-7.13-28.15,1.85-8.96,4.55-18.05,8.18-26.46,6.71-15.54,17.93-31.11,35.89-33.69,10.7-1.54,22.2-4.63,32.64-7.44,15.64-4.21,31.2-8.91,46.6-13.94,17.12-5.58,34.36-11.61,50.97-18.55,5.02-2.1,19.72-8.35,24.87-12.44.97-3.15,1.89-6.33,2.75-9.51,11.74-43.36,14.57-90.8,15.39-135.56.97-53.3-.98-106.71-1.05-160.04-.14-116.55,8.18-233.61,60.41-340,53.77-109.53,132.54-176.27,250.5-206.79,14.72-3.81,30.2-6.73,45.14-9.54,22.92-4.31,45.99-8.11,69.1-11.27,27.57-3.76,57.13-7.18,84.96-6.82,18.12.24,51.36,1.92,53.91,25.82,2.4,22.49-17.12,62.45-26.44,82.9-16.5,36.21-33.02,71.84-46.77,109.11Z"/>
    <path class="st4" d="M800.87,394.87c-93.81,24.27-180.34,75.62-240.88,198.94-103.62,211.09-28.82,467.09-73.74,632.93-1.14,4.2-2.35,8.34-3.65,12.42-4.91,15.48-131.28,55.25-166.42,60.3-26.24,3.77-34.29,59.42-33.06,59.96,151.6,66.78,564.59,106.85,648.08-191.1,56.78-202.61-3.61-367.43-18.4-461.91h11.7c9.96,0,18.1-8.15,18.1-18.1h0c0-9.96-8.15-18.1-18.1-18.1h-16.61c-3.81-35.47-26.2-27.29-16.08-63.14l44.23-9.18c9.75-2.02-16,1.04-16-8.92h0c0-9.52,47.64-9.51,38.29-10.18,32.55-93.77,80.27-169.13,77.13-198.56-3.37-31.58-198.52,5.3-234.59,14.63Z"/>
    <path class="st3" d="M990.44,498.96c24.79-55.61,47.19-98.27,45.01-118.73-1.31-12.28-31.6-14.2-70.26-11.43,13.91.69,43.06,3.42,52.25,10.6,6.46,5.05-4.1,12.24-5.73,22.77-2.94,18.98-12.55,60.56-21.28,96.79Z"/>
    <path class="st6" d="M964.74,909.54c-2.22-54.82-10.29-100.39-16.97-141.21-.84-5.14-1.66-55.33-2.44-60.33,29.82-29.39,7.98-44.3-4.91-36.2-1.92-17.86-3.04-28.11,3.32-51.38,1.46-5.33,5.06-5.64,10.76-6.15l6.9-.62c9.2-.83,19.98-33.19-3.08-34.84,32.55-93.77,80.27-169.13,77.13-198.56-.46-4.35-4.58-7.39-11.39-9.39-54.25,7.99-202.65,37.29-289.69,103.71-84.11,64.19-124.28,177.61-111.44,282.28,0,0,37.78,116.48,55.62,125.92,17.58,9.31,183.96,108.29,286.2,26.78Z"/>
    <path class="st4" d="M962.23,871.57c-.81-8.84-1.74-17.44-2.75-25.81-27.25-2.4-11.31-2.73-120.9-6.79-224.62-8.32-204.81-213.18-205.86-209.4-11.51,41.3-14.97,85-9.79,127.26,0,0,37.78,116.48,55.62,125.92,6.19,3.28,30.87,17.69,64.69,31.41,78.92-13.55,164.83-30.95,219-42.6Z"/>
    <path class="st6" d="M1011.24,453.26c15.09-33.2,25.75-58.62,24.21-73.02-.46-4.35-4.58-7.39-11.39-9.39-52.39,7.72-196.31,36.89-284.74,98.61-56.03,39.11-89.5,100.32-105.05,165.74,37.08-79.42,190.44-169.28,318.15-187.92,30.37-4.43,48.71-1.45,58.82,5.99Z"/>
    <path class="st3" d="M1011.24,453.26c15.09-33.2,25.75-58.62,24.21-73.02-.46-4.35-4.58-7.39-11.39-9.39-7.37,1.09-16.55,2.6-27.13,4.56,37.89-.03,32.83,19.25,14.31,77.86Z"/>
    <path class="st6" d="M535.3,1406.88c164.66,1.28,343.98-53.27,395.9-238.54,7.67-27.38,13.79-53.19,18.61-77.63-7.57-25.08-16.28-39.52-16.28-39.52l-228.76-172.09c-10.23,85.21-59.13,148.61-53.74,234.63,3.97,63.48,5.54,133.25-24.81,190.26-27.17,51.04-77.1,58.34-100.36,58.34-1.82,10.28,8.06,35.97,9.44,44.56Z"/>
    <path class="st4" d="M535.3,1406.88c92.82.72,190.3-16.31,266.99-64.49-78.15,33.73-168.73,22.85-209.44-.31-24.12,16.78-50.83,20.14-66.35,20.23l-.71.41c-1.5,10.54,8.14,35.68,9.5,44.16Z"/>
    <path class="st9" d="M514.32,759.86c8.28,4.4,18.01,8.17,26.73,11.62,15.81,6.24,31.86,11.99,47.96,17.44,43.07,14.58,87.35,27.24,131.8,36.84,50.4,10.89,196.66,38.8,222.97-26.43l13.34-33.07,5.65,35.21c7.47,46.57,12.52,91.82,12.47,139.1-.07,64.72-9.19,128.55-24.33,191.4l-.48,1.97-1.21,1.63c-18.41,24.74-48.9,38.9-78.01,46.53-37.31,9.78-78.36,10.78-116.58,6.92-93.89-9.48-188.21-49.51-258.86-112.26l-3.36-2.98.03-4.49c.3-48.98-1.29-97.96-1.25-146.95.05-51.77,1.8-103.66,8.64-155.02l1.88-14.14,12.6,6.7Z"/>
    <path class="st5" d="M509.66,768.61c-13.65,102.6-6.72,207.09-7.3,300.73,149.45,132.74,379.63,139.98,438.91,60.31,35.75-148.44,24.49-246.94,11.71-326.61-46.79,116.01-401.14-12.01-443.32-34.42Z"/>
    <path class="st9" d="M305.59,1344.59l3.83,17.57-13.49,3.79c-20.16,5.66-53.68-4.61-68.87-18.66-2.62-2.42-4.99-5.09-7.11-7.95-11.84-16.06-15.02-37.75-9.18-56.72,6.82-22.17,24.39-37.07,46.9-41.87,22.48-4.8,43.98,3.77,58.77,20.91,10.68,12.38,20.69,33.88,11.75,49.7l-.51.91-.64.83c-3.87,5.05-16.52,21.77-21.43,31.5Z"/>
    <path class="st4" d="M315.23,1304.03c7.93-14.03-16.6-56.83-54.46-48.75-42.6,9.09-47.69,58.82-23.61,81.09,11.49,10.62,39.87,19.44,54.76,15.26,0,0-15.01,2.35,23.32-47.6Z"/>
    <path class="st9" d="M357.66,1364.92l4.64,19.78-13.37,4.04c-23.98,7.25-63.86-6.28-81.31-23.63-24.16-24.02-26.55-69.96-11.03-99.19,19.46-36.64,65.04-41.17,98.6-22.47,23.48,13.08,42.69,41.44,33.75,69.07-.75,2.31-1.69,4.55-2.82,6.7l-.47.9-.59.82c-4.66,6.53-21.74,30.92-27.41,43.97Z"/>
    <path class="st4" d="M372.97,1312.31c9.18-17.46-1.54-42.79-25.01-55.87-24.38-13.59-62.04-14.03-78.22,16.45-13.05,24.58-10.25,63.14,8.38,81.66,13.96,13.88,48.44,25.4,66.52,19.94,0,0-18.23,3.07,28.33-62.19Z"/>
    <path class="st0" d="M566.72,1247.29c26.76-44.6,1.57-91.82,1.57-147.44s-82.9,141.14-82.9,141.14c0,0,7.87,14.69,12.59,13.12,4.72-1.57,38.3-23.08,68.73-6.82Z"/>
    <path class="st9" d="M441.41,1274.01c-23.18,36.57,4.29,73.98-10.97,102.35-1.23,2.3-2.72,4.44-4.43,6.4-16.68,19.04-48.67,19.15-71.33,13.61-20.94-5.12-43.97-17.23-53.26-37.75-9.93-21.96-11.95-47.25-6.02-70.58,5.57-21.94,18.36-42.52,38.09-54.3,36.31-21.68,76.15-4.21,105.15,21.11l9.61,8.39-6.83,10.77Z"/>
    <path class="st4" d="M428.84,1266.04c-84.77-74.02-144.18,19.43-113.88,86.44,14.11,31.19,80,43.14,99.85,20.48,17.22-19.66-13.65-63.25,14.03-106.92Z"/>
    <path class="st9" d="M457.49,1280.24l3.63,7.25-4.5,7.11c-9.15,14.43-12.63,28.11-13.48,44.98-.72,14.54.62,30.16-5.72,43.68-2.43,5.18-5.79,9.68-10.04,13.5-9.83,8.83-22.08,14.09-35.46,12.37-25.7-3.31-41.93-29.46-48.67-52.2-8.3-28.02-6.13-59.69,7.94-85.52,17.01-31.22,52.82-56.16,89.62-48.6,3.75.77,7.42,1.88,10.97,3.33,3.1,1.27,5.82,3.25,7.93,5.86,8.79,10.86,2.91,25.42-.33,37.16-.6,2.19-2.33,8.71-1.89,11.07Z"/>
    <path class="st4" d="M444.06,1286.64c-6.86-13.67,12.93-42.3,2.1-46.72-27.89-11.39-63.89,5.55-81.91,38.62-32.05,58.84,12.37,143.85,53.18,107.17,21.4-19.23-2-53.93,26.62-99.07Z"/>
    <g>
      <polygon class="st8" points="843.18 903.34 848.91 913.17 860.04 915.87 852.29 924.65 852.82 936.14 842.3 931.74 831.5 936.14 832.75 924.65 825.55 915.87 836.84 913.17 843.18 903.34"/>
      <polygon class="st8" points="837.51 1086.06 843.24 1095.88 854.36 1098.59 846.61 1107.36 847.15 1118.86 836.63 1114.46 825.83 1118.86 827.08 1107.36 819.87 1098.59 831.17 1095.88 837.51 1086.06"/>
      <g>
        <polygon class="st8" points="753.54 1023.91 759.27 1033.73 770.4 1036.44 762.65 1045.21 763.18 1056.71 752.66 1052.31 741.86 1056.71 743.11 1045.21 735.91 1036.44 747.2 1033.73 753.54 1023.91"/>
        <polygon class="st8" points="925.33 1023.91 931.06 1033.73 942.19 1036.44 934.44 1045.21 934.97 1056.71 924.45 1052.31 913.66 1056.71 914.91 1045.21 907.7 1036.44 918.99 1033.73 925.33 1023.91"/>
      </g>
      <g>
        <polygon class="st8" points="929.41 967.1 935.14 976.92 946.27 979.63 938.52 988.41 939.05 999.9 928.53 995.5 917.73 999.9 918.98 988.41 911.78 979.63 923.07 976.92 929.41 967.1"/>
        <polygon class="st8" points="752.99 967.1 758.72 976.93 769.85 979.63 762.1 988.41 762.63 999.9 752.11 995.5 741.32 999.9 742.57 988.41 735.36 979.63 746.65 976.93 752.99 967.1"/>
      </g>
      <g>
        <polygon class="st8" points="781.84 1069.67 787.57 1079.49 798.69 1082.2 790.94 1090.97 791.48 1102.47 780.96 1098.07 770.16 1102.47 771.41 1090.97 764.21 1082.2 775.5 1079.49 781.84 1069.67"/>
        <polygon class="st8" points="894.19 1069.67 899.92 1079.49 911.05 1082.2 903.3 1090.97 903.83 1102.47 893.31 1098.07 882.52 1102.47 883.77 1090.97 876.56 1082.2 887.85 1079.49 894.19 1069.67"/>
      </g>
      <g>
        <polygon class="st8" points="897.97 919.82 903.7 929.64 914.82 932.35 907.07 941.12 907.61 952.62 897.09 948.22 886.29 952.62 887.54 941.12 880.34 932.35 891.63 929.64 897.97 919.82"/>
        <polygon class="st8" points="787.37 919.82 793.1 929.64 804.23 932.35 796.48 941.12 797.01 952.62 786.49 948.22 775.7 952.62 776.94 941.12 769.74 932.35 781.03 929.64 787.37 919.82"/>
      </g>
    </g>
    <path class="st9" d="M642.1,1081.83c1.89-56.66-4.31-118.21-10.56-180.25-14.37-142.59-29-287.77,53.28-384.43,30.01-35.25,71.14-66.8,128.01-92.14,56.74-25.29,129.15-44.42,221.83-54.92l.54,4.92c-92.15,10.44-164.08,29.43-220.36,54.52-56.15,25.03-96.72,56.12-126.27,90.83-80.91,95.05-66.38,239.19-52.12,380.75,6.27,62.19,12.48,123.88,10.58,180.89l-4.94-.16Z"/>
    <path class="st9" d="M946.88,616.08c-42.46,33.67-143.61,34.59-205.11-18.06,12.61,61.26,38.7,87.17,80.07,96.79,38.63,8.99,93.04,9.38,119.21-23.38,12.62-15.79,3.14-30.24,5.83-55.35Z"/>
    <path class="st9" d="M468.63,1328.01c-.34.17-.7.4-.95.56-11.33,7.28-15.52,20.57-27.88,26.33-12.22,5.7-24.66.77-35.37-5.74-37.51-22.79-19.61-78.01,10.51-98.88,12.26-8.49,26.52-12.58,41.28-13.64,29.95-2.14,63.96,13.52,69.13,45.91,2.33,14.6-.84,28.95-12.45,38.81-7.14,6.07-16.81,9.57-26.14,10.05-4.83.25-9.28-.45-13.87-1.92-1.18-.38-2.95-1.13-4.27-1.49Z"/>
    <path class="st4" d="M412.16,1336.45c28.26,17.17,25.11-6.02,47.49-20.39,11.5-7.39,14.82,1.1,26.37.51,9.12-.46,28.7-6.39,24.66-31.66-3.55-22.2-28.17-35.23-53.39-33.43-13.06.93-24.48,4.52-33.87,11.03-22.79,15.79-37.55,57.97-11.26,73.94Z"/>
    <path class="st9" d="M425.71,1300.13c23.38,6.6,35.74,31.14,28.28,54.06-7.3,22.43-31.4,35.99-54.25,29.54-23.38-6.6-35.74-31.14-28.28-54.06,7.3-22.43,31.4-35.99,54.25-29.54Z"/>
    <path class="st4" d="M421.67,1314.44c14.98,4.23,23.12,19.96,18.18,35.14-4.94,15.18-21.09,24.05-36.07,19.82-14.98-4.23-23.12-19.96-18.18-35.14,4.94-15.18,21.09-24.05,36.07-19.82Z"/>
    <path class="st9" d="M552.39,1328.02c-.26.15-.52.31-.7.44-10.85,7.19-14.23,20.09-26.23,26.14-12.28,6.18-25.15,1.12-36.08-5.34-37.34-22.06-23.53-77.19,6.71-98.84,12.06-8.63,26.28-12.71,40.95-13.77,29.99-2.15,64.02,13.53,70.58,45.25,2.99,14.49,6.85,40.66-4.63,50.82-7.04,6.23-23.01-1.78-32.35-1.3-4.87.25-9.34-.46-13.96-1.93-1.16-.37-2.94-1.12-4.28-1.47Z"/>
    <path class="st4" d="M496.94,1336.45c29.07,17.17,24.82-6.02,46.53-20.39,16.71-11.07,51.04,23.98,56.96,20.14,6.69-4.35,23.98-27.19,20.95-41.84-1.93-9.35-35.86-26.52-43.57-32.2-10.59-7.79-25.17-11.72-39.71-10.67-13.02.93-24.27,4.52-33.36,11.03-22.05,15.79-34.84,57.97-7.8,73.94Z"/>
    <path class="st9" d="M509.42,1300.12c23.05,6.42,36.58,30.41,30.16,53.46-6.42,23.05-30.41,36.58-53.46,30.16-23.05-6.42-36.58-30.41-30.16-53.46,6.42-23.05,30.41-36.58,53.46-30.16Z"/>
    <path class="st4" d="M505.42,1314.44c15.18,4.23,24.05,19.96,19.83,35.14-4.23,15.18-19.96,24.05-35.14,19.82-15.18-4.23-24.05-19.96-19.82-35.14,4.23-15.18,19.96-24.05,35.14-19.82Z"/>
    <path class="st9" d="M487.29,1328.31c21.52-.2,44.49,4.87,55.26,25.58,10.98,21.13,3.39,45.95.27,67.96-6.26,44.27-19.77,90.35-24.27,132.04-2.31,21.4,4.95,44.06.9,43.02-24.17-6.22-49.54-47.44-57.44-68.12-14.31-37.5-27.5-88.64-25.56-128.25,1.62-33.11,10.35-71.86,50.83-72.23Z"/>
    <path class="st4" d="M487.43,1343.19c-23.62.22-34.19,18.8-36.12,58.08-1.74,35.45,6.08,81.86,19.95,121.11,13,36.8,42.42,67.57,41.45,63.89-12.2-46.12,6.85-106.13,15.39-166.51,4.23-29.91,21.04-77.16-40.67-76.58Z"/>
    <g>
      <path class="st9" d="M740.71,579.12c-18.13,0-32.82,14.7-32.82,32.82s14.69,32.82,32.82,32.82,32.82-14.7,32.82-32.82-14.7-32.82-32.82-32.82Z"/>
      <path class="st10" d="M738.35,584.86c13.8,0,24.99,11.19,24.99,24.99s-11.19,24.99-24.99,24.99-24.99-11.19-24.99-24.99,11.19-24.99,24.99-24.99Z"/>
      <path class="st9" d="M724.45,595.94c-7.68,7.68-7.68,20.13,0,27.81,7.68,7.68,20.13,7.68,27.81,0,7.68-7.68,7.68-20.13,0-27.81-7.68-7.68-20.13-7.68-27.81,0Z"/>
      <path class="st10" d="M727.22,598.71c6.15-6.15,16.12-6.15,22.27,0,6.15,6.15,6.15,16.12,0,22.27-6.15,6.15-16.12,6.15-22.27,0-6.15-6.15-6.15-16.12,0-22.27Z"/>
      <path class="st9" d="M727.22,598.71c.74-.74,1.54-1.39,2.38-1.96l21.85,21.85c-.56.84-1.21,1.64-1.96,2.38-.74.74-1.54,1.39-2.38,1.96l-21.85-21.85c.56-.84,1.21-1.64,1.96-2.38Z"/>
    </g>
    <path class="st9" d="M769.4,365.77c0,6.9,24.01,112.23,25.27,113.9l16.65-4.12-42.9,21.45,5.94-7.43c3.86-4.84-14.75-8.91-25.27-59.13-5.72-27.28-1.58-56.2.7-66.76l1.88-8.71,17.73,1.89v8.92Z"/>
    <path class="st6" d="M759.49,365.77c-14.43,66.89,13.64,128.55,13.64,128.55l23.09-22.3s-36.73-48.53-36.73-106.25Z"/>
    <path class="st9" d="M743.65,438c34.36,0,62.38-28.02,62.38-62.38s-28.02-62.38-62.38-62.38-62.38,28.02-62.38,62.38,28.02,62.38,62.38,62.38Z"/>
    <path class="st4" d="M743.65,428.09c28.9,0,52.47-23.57,52.47-52.47s-23.57-52.47-52.47-52.47-52.47,23.57-52.47,52.47,23.57,52.47,52.47,52.47Z"/>
    <path class="st9" d="M743.65,408.89c18.32,0,33.27-14.94,33.27-33.27s-14.95-33.27-33.27-33.27-33.27,14.95-33.27,33.27,14.95,33.27,33.27,33.27Z"/>
    <path class="st3" d="M716.96,366.76c6.72,0,12.21-5.48,12.21-12.21s-5.48-12.21-12.21-12.21-12.21,5.48-12.21,12.21,5.48,12.21,12.21,12.21Z"/>
    <path class="st9" d="M938.26,582.68c14.58-9.55,19.48-8.15,27.58-23.04,2.19-.75,8.9,14.03,8.34,16.71-1.31,6.24-30.78,6.11-35.92,6.32Z"/>
    <path class="st9" d="M871.6,341.73c4.73-7.97,11.08-15.81,18.93-20.88,8.02-5.17,18.35-7.56,28.15-2.33,15.6,8.33,16.31,27.1,13.91,40.96-1.7,9.82-15.41,6.4-17.58,16.08-2.15,9.64-17.28.87-32.71.91-7.5.02-29.71,21.16-29.69,21.09,5.07-21.37,8.86-38.71,19-55.83Z"/>
    <path class="st4" d="M872.15,380.97c.51-1.77,2.63-7.95,3.19-9.63,2.72-8.25,5.97-15.3,9.38-21.05,15.81-26.68,38.8-27.86,33.1,5.1-1.53,8.84-3.83,18.82-6,28.54-2.78,12.43-44.05,12.39-39.67-2.96Z"/>
    <path class="st9" d="M226.49,695.75c33.05,45.35,73.09,61.31,123.85,33.86,17.41-9.42,33.48-22.53,47.42-36.54,6.41-6.44,13.29-13.82,18.77-21.12l11.89-15.81,11.89,15.81c5.48,7.29,12.36,14.68,18.77,21.12,13.94,14,30.01,27.12,47.42,36.54,50.76,27.45,90.8,11.48,123.85-33.86l16.17-22.18,9.75,25.66c31.75,83.51,45.97,173.99,32.39,262.81-11.84,77.42-44.29,149.43-96.83,207.77-43.3,48.08-97.61,83.9-158.29,106.14l-4.65,1.7-4.74-1.42c-21.76-6.52-42.77-15.32-62.71-26.2-85.86-46.81-146.18-128.36-175.59-220.69-16.16-50.75-22.89-104.1-21.03-157.28,2.07-59.21,14.72-117.51,35.75-172.83l9.76-25.66,16.17,22.18Z"/>
    <path class="st10" d="M214.47,704.51c-97.88,257.44,20.43,499.48,213.94,557.47,204.01-74.78,311.82-300.04,213.94-557.47-96.55,132.48-213.94-23.61-213.94-23.61,0,0-117.39,156.09-213.94,23.61Z"/>
    <path class="st9" d="M229.03,752.62c14.58,11.84,31.14,20.76,49.52,25,31.18,7.2,61.8-.32,89.48-15.29,20.51-11.09,40.4-27.08,56.87-43.61l3.51-3.53,3.51,3.53c16.47,16.53,36.37,32.52,56.87,43.61,27.68,14.97,58.3,22.49,89.48,15.29,18.42-4.25,35.01-13.2,49.62-25.08l5.8-4.71,2.09,7.17c21.79,74.73,28.04,155.13,10.46,231.4-13.7,59.46-41.19,113.15-82.06,158.53-37.11,41.21-83.25,72.48-134.77,92.81l-1.68.66-1.71-.58c-16.16-5.42-31.83-12.27-46.8-20.43-77.41-42.21-131.47-116.18-157.96-199.33-27.18-85.35-24.6-177.32-.13-262.96l2.06-7.22,5.83,4.73Z"/>
    <path class="st4" d="M225.9,756.46c-24.19,84.67-26.81,175.61.09,260.09,26.09,81.94,79.33,154.9,155.6,196.49,14.72,8.02,30.11,14.76,46,20.08,50.77-20.03,96.26-50.82,132.91-91.52,96.72-107.4,109.28-252.27,70.52-385.22-40.92,33.28-90.77,39.41-144.58,10.3-19.59-10.6-40.46-26.85-58.03-44.47-17.57,17.63-38.44,33.88-58.03,44.47-53.77,29.08-103.58,22.99-144.48-10.22Z"/>
    <path class="st9" d="M543.26,1359.7c1.85-.3,3.61-.62,5.29-.96,49.88-10.13,77.04-45.54,90.13-88.37,10.2-33.38,11.9-71.26,9.13-105.31,1.69.59,3.39,1.18,5.09,1.75,2.56,34.03.68,71.66-9.5,104.99-13.58,44.44-41.86,81.21-93.89,91.77-1.85.38-3.67.71-5.46,1l-.79-4.88Z"/>
    <path class="st6" d="M800.54,460.6c-22.05.8-42.68,14.8-46.07,31.26-3.39,16.46,11.75,29.16,33.8,28.36,22.06-.8,42.68-14.79,46.07-31.26,3.39-16.46-11.75-29.16-33.81-28.36Z"/>
    <path class="st9" d="M504.07,1336.23c.3-.98,1.33-1.53,2.31-1.24.98.3,1.53,1.33,1.23,2.31-11.76,38.66-18.72,86.94-17.33,134.21,1.21,40.79,8.63,80.79,24.56,113.13.45.92.08,2.03-.84,2.48-.92.45-2.03.07-2.48-.84-16.18-32.85-23.72-73.39-24.94-114.67-1.41-47.67,5.61-96.37,17.49-135.38Z"/>
    <path class="st9" d="M513.72,1302.6c-.54.87-1.69,1.13-2.56.59-.87-.54-1.14-1.69-.6-2.56,1.8-2.88,3.38-5.47,4.93-7.99,18.64-30.48,32.17-52.62,76.08-33.66.94.4,1.38,1.5.97,2.44-.4.94-1.5,1.38-2.44.97-40.96-17.69-53.79,3.29-71.45,32.17-1.65,2.7-3.34,5.47-4.94,8.03Z"/>
    <path class="st9" d="M429.89,1305.51c-.41.94-1.51,1.36-2.45.95-.94-.41-1.36-1.51-.95-2.45,10.1-22.86,19.72-36.2,29.38-44.11,9.8-8.03,19.56-10.47,29.84-11.55,1.02-.1,1.93.64,2.03,1.65.1,1.02-.64,1.93-1.66,2.03-9.65,1.02-18.78,3.29-27.87,10.74-9.23,7.56-18.5,20.46-28.33,42.73Z"/>
    <path class="st9" d="M554.04,1360.68c-.46-.92-.09-2.03.83-2.48.91-.46,2.03-.09,2.48.83,38.43,44.34,136.89,37.64,174.61,25.81.98-.3,2.02.24,2.32,1.22.3.98-.24,2.02-1.22,2.33-39.6,12.41-137.46,19.75-179.02-27.7Z"/>
    <path class="st9" d="M615.56,1326.78c-.86-.55-1.12-1.69-.57-2.56.55-.86,1.69-1.12,2.56-.57,61.1,38.88,154.81,43.58,216.25,3.16.85-.56,2-.32,2.56.53.56.85.33,2-.53,2.56-62.67,41.23-157.95,36.53-220.28-3.13Z"/>
    <path class="st9" d="M644.96,1266.99c-.87-.54-1.14-1.68-.6-2.55.54-.87,1.68-1.14,2.55-.6,37.02,22.84,84.67,31.83,129.02,30.89,50.49-1.06,96.57-14.95,117.66-35.88.73-.72,1.9-.72,2.62,0,.72.73.72,1.9,0,2.62-21.74,21.56-68.82,35.87-120.21,36.96-44.98.95-93.36-8.2-131.04-31.44Z"/>
    <path class="st9" d="M387.6,1322.02c21.52-.2,44.49,4.87,55.26,25.58,10.98,21.13,3.39,45.95.27,67.95-6.26,44.27-19.77,90.35-24.27,132.04-2.31,21.4,4.95,44.07.9,43.02-24.17-6.22-49.54-47.43-57.44-68.12-14.31-37.5-27.5-88.64-25.56-128.25,1.62-33.11,10.35-71.86,50.83-72.23Z"/>
    <path class="st4" d="M387.74,1336.89c-23.62.22-34.19,18.8-36.12,58.09-1.74,35.45,6.08,81.86,19.95,121.11,13,36.8,42.42,67.57,41.44,63.89-12.2-46.12,6.85-106.13,15.39-166.51,4.23-29.91,21.04-77.15-40.67-76.58Z"/>
    <path class="st9" d="M404.38,1329.93c.3-.98,1.33-1.53,2.31-1.23.98.3,1.53,1.33,1.23,2.31-11.77,38.66-18.72,86.94-17.33,134.2,1.2,40.79,8.63,80.79,24.56,113.13.45.92.08,2.03-.84,2.48-.92.45-2.03.08-2.48-.84-16.18-32.85-23.72-73.39-24.94-114.67-1.41-47.67,5.61-96.37,17.49-135.38Z"/>
    <g>
      <path class="st4" d="M644.27,479.42c-61.72,41.45-103.21,111.75-103.21,111.75l16.19,1.57s36.93,5.25,70.32-34.1c33.39-39.35,16.7-79.23,16.7-79.23Z"/>
      <path class="st4" d="M565.06,591.71c-43.8,41.45-54.89,111.76-54.89,111.76l16.87,1.57s39.2,5.25,55.58-34.1c16.38-39.35-17.56-79.23-17.56-79.23Z"/>
    </g>
    <path class="st9" d="M551.3,596.7c-1.02.04-1.88-.76-1.92-1.79-.04-1.02.76-1.88,1.79-1.92,14.55-.52,29.82-1.36,47.99-7.64,18.23-6.29,39.47-18.06,66.04-40.46.78-.66,1.95-.57,2.61.22.66.78.56,1.95-.22,2.62-26.95,22.72-48.6,34.7-67.23,41.13-18.68,6.45-34.24,7.31-49.07,7.84Z"/>
    <path class="st9" d="M519.09,708.95c-1,.21-1.99-.43-2.2-1.43-.21-1,.43-1.99,1.43-2.2,25.32-5.39,50.64-15.8,71.19-29.5,19-12.67,33.88-28.12,40.81-44.95.39-.95,1.47-1.4,2.42-1.01.95.39,1.4,1.47,1.01,2.42-7.23,17.56-22.6,33.58-42.18,46.63-20.92,13.95-46.7,24.55-72.48,30.03Z"/>
    <path class="st9" d="M216.25,1293.3c-.2-1.01.46-1.98,1.47-2.18,1.01-.2,1.98.46,2.18,1.47,4.39,22.46,31.5,19.51,31.57,19.5,1.02-.1,1.93.64,2.03,1.66.1,1.02-.64,1.92-1.66,2.02-.09,0-30.53,3.34-35.58-22.47Z"/>
    <path class="st9" d="M254.24,1316.17c-.51-.89-.21-2.02.68-2.54.89-.51,2.02-.21,2.53.67,3.67,6.32,9.01,10.9,16.17,13.39,6.97,2.43,15.68,2.93,26.27,1.18,1.01-.16,1.96.52,2.13,1.53.16,1.01-.52,1.96-1.53,2.13-11.21,1.84-20.53,1.29-28.08-1.34-8.04-2.81-14.04-7.94-18.16-15.03Z"/>
    <path class="st9" d="M296.85,1326.85c-.76-.68-.83-1.85-.14-2.61.68-.76,1.85-.83,2.61-.14,8.03,7.17,14.53,11.05,21.35,12.37,6.84,1.33,14.18.15,23.84-2.8.98-.29,2.01.26,2.31,1.24.3.98-.26,2.01-1.23,2.31-10.24,3.12-18.09,4.36-25.61,2.9-7.53-1.47-14.56-5.61-23.12-13.26Z"/>
    <path class="st9" d="M891.23,330.36c-.11-1.02.62-1.94,1.64-2.05,1.02-.11,1.94.62,2.05,1.64.22,1.9,1.09,3.54,2.4,4.9,1.73,1.79,4.22,3.11,7.01,3.91,2.86.82,6.01,1.08,8.98.75,3.41-.39,6.54-1.56,8.64-3.59.74-.71,1.91-.7,2.62.04.71.73.7,1.91-.04,2.62-2.73,2.64-6.64,4.15-10.82,4.63-3.44.39-7.09.09-10.4-.86-3.38-.97-6.45-2.62-8.66-4.9-1.87-1.93-3.12-4.3-3.43-7.07Z"/>
    <path class="st9" d="M908.83,331.07c-146.38-82.68-302.68-173.04-453.19-247.65-93.64-46.42-102.45-41.73-207.11-44.22-31.8-.76-70.3,0-101.24-2.49,29.53-3.19,70.95-2.91,101.3-3.01,105.2-.36,117.01-4.1,211.75,41.03,151.51,72.18,309.98,161.51,457,242.67,3.99,2.23,5.31,7.09,2.96,10.86-2.35,3.77-7.49,5.03-11.47,2.8Z"/>
    <path class="st9" d="M1319.24,442.21c.99-.24,1.99.38,2.23,1.37.24.99-.38,1.99-1.37,2.23-28.18,6.75-54.29,31.16-71.84,62.73-17.31,31.13-26.27,69.17-20.7,104.12.16,1.01-.53,1.96-1.54,2.12-1.01.16-1.96-.53-2.12-1.54-5.7-35.8,3.44-74.71,21.12-106.51,18.03-32.43,44.99-57.53,74.22-64.53Z"/>
    <path class="st9" d="M591.08,1159.01c-.21-1,.44-1.99,1.44-2.19,1-.21,1.99.44,2.19,1.44,3.3,15.67,4.46,35.74,3.26,54.81-1.12,17.76-4.28,34.71-9.69,46.55-.42.93-1.52,1.34-2.45.91-.93-.42-1.34-1.52-.91-2.46,5.2-11.39,8.26-27.89,9.35-45.24,1.18-18.76.04-38.47-3.19-53.82Z"/>
    <path class="st9" d="M651.27,1202.99c-.88-.53-1.16-1.67-.63-2.55.53-.88,1.67-1.16,2.55-.63,23.7,14.27,100.01,30.02,168.5,25.13,46.01-3.28,88.36-15.88,108.42-44.54.59-.84,1.74-1.05,2.58-.46.84.59,1.04,1.74.46,2.58-20.82,29.73-64.19,42.77-111.19,46.12-69.19,4.94-146.54-11.12-170.68-25.65Z"/>
    <g>
      <path class="st9" d="M627.54,1171.91c-8.92-2.17-17.91,3.31-20.08,12.23-2.17,8.92,3.31,17.91,12.23,20.08,8.92,2.17,17.91-3.31,20.08-12.23,2.17-8.92-3.31-17.91-12.23-20.08Z"/>
      <path class="st0" d="M626.61,1175.76c6.79,1.65,10.96,8.49,9.31,15.28-1.65,6.79-8.49,10.96-15.29,9.32-6.79-1.65-10.96-8.49-9.31-15.29,1.65-6.79,8.49-10.96,15.28-9.31Z"/>
      <path class="st9" d="M618.44,1179.56c-4.7,2.86-6.18,8.99-3.32,13.68,2.86,4.7,8.99,6.19,13.68,3.33,4.7-2.86,6.18-8.99,3.32-13.68-2.86-4.7-8.99-6.19-13.69-3.33Z"/>
      <path class="st4" d="M619.47,1181.25c3.76-2.29,8.67-1.1,10.96,2.66,2.29,3.76,1.1,8.67-2.66,10.96-3.76,2.29-8.67,1.1-10.96-2.66-2.29-3.76-1.1-8.67,2.66-10.96Z"/>
      <path class="st9" d="M619.47,1181.25c.45-.28.92-.5,1.4-.68l8.14,13.36c-.38.34-.79.66-1.25.94-.45.28-.92.5-1.41.68l-8.14-13.36c.38-.35.79-.66,1.25-.94Z"/>
    </g>
    <path class="st9" d="M1251.01,874.4c-1.02-.05-1.81-.92-1.76-1.94.05-1.02.92-1.81,1.94-1.76,19.13.96,33.99-3.64,45.2-11.93,12.82-9.47,20.95-23.81,25.32-40.21.26-.99,1.28-1.58,2.27-1.32.99.26,1.58,1.27,1.32,2.26-4.58,17.17-13.15,32.23-26.71,42.24-11.88,8.78-27.53,13.66-47.58,12.65Z"/>
    <path class="st10" d="M1147.57,659.16c92.12,17.62,203.58,10.81,256.54-69.4,73.79-111.73,72.21,49.49,134.09,48.12,5.15-24.2,6.81-49.54,5-74.95-7.28-101.83-91.81-217.19-96.58-197.23-14.85,62.2-22.91,204.49-165.47,247.89-4.66,1.42-9.46,2.73-14.4,3.93-26.38,6.4-56.98,9.62-92.54,8.73-7.36-.19-14.92-.55-22.71-1.09-.49,2.62-.93,5.21-1.33,7.76-1.43,9.16-2.28,17.9-2.59,26.24Z"/>
    <path class="st2" d="M1489.42,596.21c12.34,21.42,26.42,42.17,48.79,41.67,5.15-24.2,6.81-49.54,5-74.95-7.22-101.04-90.5-215.39-96.44-197.64,32.93,45.27,56.5,138.94,42.65,230.92Z"/>
    <path class="st9" d="M1143.71,660.3c-1.01-.2-1.66-1.17-1.47-2.18.2-1.01,1.17-1.66,2.18-1.47,51.06,10.16,108.44,12.91,158.51-.33,40.33-10.66,75.93-31.69,99.64-67.58,26.38-39.95,43.76-45.81,57.95-36.44,9.9,6.54,17.85,20.61,26.26,35.52,13.93,24.67,29.2,51.71,55.77,47.83,1.01-.15,1.96.56,2.11,1.57.15,1.01-.55,1.96-1.57,2.11-29.08,4.25-45-23.95-59.53-49.69-8.19-14.5-15.92-28.19-25.09-34.24-12.32-8.14-28-2.18-52.81,35.4-24.27,36.74-60.62,58.25-101.79,69.12-50.68,13.39-108.64,10.64-160.17.38Z"/>
    <g>
      <path class="st9" d="M1252.56,579.74c-17.61-4.28-35.36,6.53-39.64,24.15-4.28,17.62,6.53,35.36,24.15,39.64,17.62,4.28,35.36-6.53,39.64-24.15,4.28-17.62-6.53-35.36-24.15-39.64Z"/>
      <path class="st10" d="M1250.72,587.35c13.41,3.26,21.64,16.77,18.39,30.18-3.25,13.41-16.77,21.65-30.18,18.39-13.41-3.26-21.64-16.77-18.39-30.18,3.26-13.41,16.77-21.64,30.18-18.39Z"/>
      <path class="st9" d="M1234.59,594.85c-9.27,5.65-12.21,17.75-6.56,27.02,5.65,9.27,17.75,12.21,27.02,6.56,9.27-5.65,12.21-17.75,6.56-27.02-5.65-9.27-17.75-12.21-27.02-6.56Z"/>
      <path class="st10" d="M1236.63,598.19c7.43-4.52,17.12-2.17,21.64,5.25,4.52,7.43,2.17,17.12-5.26,21.64-7.43,4.52-17.12,2.17-21.64-5.26-4.53-7.43-2.17-17.12,5.25-21.64Z"/>
      <path class="st9" d="M1236.63,598.19c.9-.54,1.83-.99,2.77-1.34l16.08,26.39c-.75.68-1.57,1.31-2.46,1.85-.9.54-1.83.99-2.77,1.34l-16.07-26.38c.75-.69,1.57-1.31,2.46-1.85Z"/>
    </g>
    <path class="st9" d="M1274.73,879.93c.56-.86,1.71-1.1,2.56-.55.86.56,1.1,1.7.54,2.56-2.98,4.6-5.94,9.38-8.96,14.27-27.45,44.33-60.17,97.18-137.97,72.11-.98-.31-1.51-1.36-1.2-2.33.31-.97,1.36-1.51,2.33-1.2,75.04,24.18,106.93-27.33,133.68-70.53,3.06-4.94,6.06-9.78,9.01-14.34Z"/>
    <path class="st6" d="M486.45,959.1c5.01-1.6,9.94-3.27,14.81-5,0,0,0,0,0,0,51.31-18.23,94.68-43.21,130.84-71.63,6.4-5.03,12.57-10.17,18.53-15.4-1.02-16.78-2.96-33.58-5.76-50.31-3.39-20.28-8.05-40.47-13.85-60.38-2.56,2.09-5.16,4.07-7.8,5.93-22.47,15.96-47.41,24.01-74.05,22.92-13.13-.54-26.68-3.3-40.56-8.44,0,0-.01,0-.02,0-4.7-1.74-9.43-3.75-14.2-6.04-2.64-1.27-5.29-2.62-7.96-4.06-19.59-10.6-40.46-26.85-58.03-44.47-17.57,17.63-38.44,33.88-58.03,44.47-53.77,29.08-103.58,22.99-144.48-10.22-20.71,72.49-25.61,149.59-9.71,223.28,107.04,12.87,196.46,3,270.26-20.65Z"/>
    <path class="st3" d="M632.49,761.51c-.48-1.71-.97-3.42-1.47-5.13-2.56,2.09-5.16,4.07-7.8,5.93-22.47,15.96-47.41,24.01-74.05,22.92-13.13-.54-26.68-3.3-40.56-8.44,0,0-.01,0-.02,0-4.7-1.74-9.43-3.75-14.2-6.04-2.64-1.27-5.29-2.62-7.96-4.06-19.59-10.6-40.46-26.85-58.03-44.47-17.57,17.63-38.44,33.88-58.03,44.47-53.77,29.08-103.58,22.99-144.48-10.22-18.9,66.15-24.63,136.12-13.41,203.85,6.82-101.91,30.17-171.99,30.17-171.99,55.88,19.43,147.32,2.52,182.59-52.99,0,0,54.57,55.09,116.48,57.19,28.74.97,67.58-14.34,90.76-31.02Z"/>
    <path class="st0" d="M311.28,1151.29c-2.36.44-4.72.87-7.08,1.28,1.7,1.83,3.42,3.64,5.16,5.42,21.06,21.63,45.2,40.31,72.24,55.05,7.91,4.31,16.01,8.25,24.28,11.8,7.12,3.06,14.36,5.82,21.71,8.28,6.74-2.66,13.38-5.5,19.92-8.54,9.38-4.35,18.55-9.09,27.49-14.2,5.9-3.38,11.7-6.92,17.4-10.63,5.44-3.54,10.78-7.23,16.01-11.08,18.82-13.8,36.27-29.52,52.09-47.08,3.41-3.79,6.72-7.62,9.92-11.5,2.16-2.62,4.28-5.26,6.36-7.93,32.67-41.99,53.72-88.86,64.89-137.99.34-1.52.68-3.04,1.01-4.56-.42.43-.84.87-1.26,1.3-67.77,96.54-180.65,156.75-330.13,170.36Z"/>
    <path class="st1" d="M1442.61,461.46c29.51-89.74,56.26-23.08,79.23,35.68,22.96,58.76,17.21,52.27,21.92,76.09-.12-3.43-.3-6.86-.55-10.29-7.28-101.83-91.81-217.19-96.58-197.23-14.85,62.2-22.91,204.49-165.47,247.89-1.21.37-2.42.73-3.64,1.08-.04.44-.09.89-.16,1.34,1.35-.33,2.71-.67,4.07-1.03,62.58-16.43,127.3-50.47,161.18-153.52Z"/>
    <path class="st0" d="M1260.9,583.01c-2.87-29.56,1.1-68.4,37.76-109.38,10.79-12.06,16.08-20.89,16.13-26.34-26.14,8.37-50.09,31.66-66.55,61.25-12.77,22.97-20.99,49.69-22.19,76.16,7.45-5.18,17-7.27,26.5-4.96,2.99.73,5.78,1.84,8.34,3.27Z"/>
    <path class="st5" d="M948.88,822.96c24.66,33.58,39.35,118.32,39.35,115.17s20.37-106.33,9.18-110.97c-11.19-4.64-33.41-6.12-44.6-21.78l-3.94,17.58Z"/>
    <path class="st0" d="M567.36,692.57c-10.65,5.07-21.93,9.33-33.39,12.65-4.56,1.32-9.15,2.48-13.74,3.48-.78,3.47-1.53,6.94-2.25,10.42-.76,3.7-1.5,7.4-2.2,11.1,39.63-8.85,83.73-18.9,106.75-45.5,1.19-13.65,2.93-27.04,5.31-40.12l.13-.73.05-.27.07-.38c-7.43,11.91-18.51,22.9-31.85,32.46-1.53,1.1-3.09,2.17-4.68,3.23-7.52,5.01-15.66,9.59-24.21,13.66h0ZM552.54,609.73c8.14.19,16.13.07,23.94-.48,5.18-.37,10.29-.92,15.31-1.7,18.53-2.89,35.9-8.88,51.65-19.8l.27-.7.03-.07c.69-1.79,1.4-3.57,2.12-5.33v-.03c.74-1.78,1.49-3.54,2.26-5.3h0s.01-.04.01-.04c1.54-3.52,3.15-7,4.84-10.44l.02-.03c1.69-3.44,3.46-6.84,5.32-10.2v-.03s.27-.47.27-.47c-8.05,6.35-15.61,11.72-22.75,16.25-13.1,8.32-24.78,13.83-35.46,17.51-11.79,4.07-22.33,5.92-32.23,6.86-2.6.25-6.74.43-9.26.58-1.24,1.3-7.98,11.08-9.68,13.34,1.12.04,2.23.07,3.35.1Z"/>
    <path class="st9" d="M979.37,324.06c-.11-1.02.62-1.94,1.64-2.05,1.02-.11,1.94.62,2.05,1.64.22,1.9,1.09,3.54,2.4,4.89,1.73,1.79,4.22,3.11,7.02,3.91,2.86.82,6.01,1.08,8.98.75,3.41-.39,6.54-1.56,8.64-3.59.73-.71,1.91-.7,2.62.04.71.73.7,1.91-.04,2.62-2.73,2.64-6.64,4.15-10.82,4.62-3.44.39-7.09.08-10.4-.86-3.38-.97-6.45-2.62-8.66-4.9-1.87-1.93-3.12-4.3-3.43-7.07Z"/>
    <path class="st7" d="M569.47,575.77c6.2-10.66,32.21-48.05,77.31-87.62-1.16-5.51-2.51-8.73-2.51-8.73-2.96,1.98-5.87,4.04-8.73,6.14-34.96,25.74-62.64,59.74-78.78,82.12-10.12,14.03-15.71,23.5-15.71,23.5l3.51.34,12.68,1.23c1.11-.05,2.23-.11,3.35-.18,6.01-.35,14.29-1.25,20.04-2.32,7.75-1.41,25.16-5.7,34.36-11.44-6.97,1.76-25.19,4.39-30.51,5.01-12.53,1.46-19.34-.61-15.02-8.05Z"/>
    <path class="st7" d="M646.78,488.15c3.92-3.44,7.99-6.9,12.21-10.37,18.26-15,39.23-30,62.86-43.7-3.62-1.35-7.07-3.02-10.34-4.99-19.6,10.56-38.52,23.24-56.54,38.55-6.6,5.61-13.08,11.57-19.43,17.91,2.86-2.11,5.77-4.16,8.73-6.14,0,0,1.35,3.22,2.51,8.73Z"/>
    <path class="st7" d="M526.82,682.23c-2.87-9.51,8.31-36.48,20.27-69.71-28.98,40.6-36.92,90.94-36.92,90.94l11.02,1.03.61.06c18.4-4.25,36.69-11.11,53.03-19.92,5.1-2.75,10.01-5.69,14.67-8.8,3.08-2.05,6.05-4.18,8.89-6.37,10.23-7.88,18.84-16.62,25.1-25.95-8.25,8.29-16.19,15.05-23.72,20.56-6.91,5.06-13.48,9.05-19.65,12.19-24.65,12.55-42.78,11.4-50.01,9.43-1.68-.46-2.75-1.64-3.3-3.46Z"/>
    <path class="st7" d="M314.26,1284.72c3.44-3.66,7.28-6.81,11.32-9.45,9.72-6.38,20.58-9.86,29.8-10.82.46-.69.92-1.38,1.39-2.07,2.5-3.62,5.26-7.11,8.23-10.42-1.2-.63-2.39-1.27-3.58-1.92-4.31-2.35-8.56-4.79-12.74-7.31-5.01,2.01-9.64,4.76-13.85,8.11-5.54,4.4-10.35,9.83-14.36,16.02-3.12,4.82-5.75,10.1-7.83,15.7-.32.86-.63,1.73-.93,2.61-.44,1.32-.86,2.66-1.24,4.01,1.07-1.4,2.2-2.74,3.37-4.01.14-.15.27-.29.41-.44Z"/>
    <path class="st7" d="M304.16,1265.29c1.84-3.43,3.89-6.75,6.14-9.91,1.93-2.71,4.02-5.29,6.25-7.75-4.99-.19-9.98.19-14.8,1.22-4.81,1.03-9.46,2.71-13.77,5.12-1.41.79-2.78,1.66-4.11,2.6-2.8,1.99-5.42,4.34-7.8,7.07-2.35,2.7-4.48,5.78-6.33,9.25-1.9,3.57-3.46,7.44-4.69,11.5-.06.18-.11.37-.17.56.08-.11.15-.22.23-.33,2.49-3.57,5.46-6.52,8.69-8.94,3.52-2.64,7.34-4.65,11.19-6.17,5.04-2,10.12-3.16,14.58-3.76,1.62-.22,3.17-.37,4.59-.46Z"/>
    <path class="st7" d="M256.6,1265.92c.73-1.38,1.51-2.72,2.31-4.01,1.24-1.99,2.57-3.87,3.97-5.64.42-.54.85-1.06,1.29-1.58-1.12.15-2.26.35-3.41.6-.13.03-.27.06-.4.09-1.02.22-2.02.47-3,.74-2.75.76-5.33,1.71-7.75,2.81-.51.23-1.01.47-1.5.71-2.74,1.36-5.25,2.94-7.54,4.69-1.84,1.41-3.52,2.93-5.07,4.54-2,2.09-3.75,4.34-5.27,6.7-1.17,1.82-2.2,3.72-3.08,5.67-.57,1.26-1.09,2.54-1.55,3.83-.24.67-.46,1.33-.66,2,.32-.56.66-1.11,1-1.63,1.64-2.52,3.49-4.65,5.49-6.45.36-.32.72-.63,1.09-.93.02-.02.05-.04.07-.06,2.99-2.44,6.27-4.21,9.68-5.54,2.82-1.1,5.73-1.89,8.62-2.5.32-.06.63-.13.95-.19,1.04-.2,2.08-.38,3.11-.54.52-1.12,1.07-2.22,1.65-3.31Z"/>
    <path class="st0" d="M247.1,1315.9c-2.67-.07-6.21-.39-9.96-1.35-4.85-1.23-10.04-3.53-14.11-7.73.31,3.14.91,6.24,1.79,9.25.57,1.94,1.26,3.84,2.06,5.69,1.71,3.93,3.95,7.61,6.7,10.88,1.11,1.32,2.29,2.56,3.56,3.74,4.17,3.86,10.58,7.48,17.76,10.33-2.43-5.18-4.29-10.72-5.62-16.45-.23-.97-.44-1.95-.63-2.94-.48-2.41-.86-4.85-1.15-7.31-.11-.9-.2-1.8-.28-2.7-.04-.47-.08-.94-.12-1.41Z"/>
    <path class="st0" d="M265.58,1333.29c1.24,3.76,2.78,7.33,4.61,10.63,1.67,3.01,3.58,5.8,5.74,8.3.7.81,1.43,1.6,2.18,2.34,1.43,1.42,3.06,2.81,4.88,4.16.77.58,1.57,1.14,2.4,1.7,3,2.02,6.38,3.93,9.99,5.68,4.66,2.25,9.7,4.23,14.82,5.8-.76-.85-1.5-1.71-2.21-2.6-1.43-1.79-2.74-3.67-3.93-5.63-.98-1.62-1.87-3.31-2.66-5.05-3.41-7.54-5.88-15.46-7.43-23.56-.1-.55-.21-1.1-.3-1.66-1.84.15-3.63.23-5.35.24-3.37.01-6.51-.24-9.45-.76-1.92-.34-3.76-.79-5.5-1.34-.33-.11-.66-.22-.99-.33-.23-.08-.47-.16-.7-.25-2.92-1.08-5.56-2.48-7.94-4.18.44,1.92.96,3.81,1.54,5.65.09.29.18.58.28.86Z"/>
    <path class="st0" d="M309.73,1337.44c1.28,5.11,3.02,10.15,5.23,15.05,4.19,9.26,12.95,16.83,23.71,22.29,1-6.34,2.41-12.58,4.41-18.42-1.65-5.69-2.87-11.53-3.65-17.43-7.37,1.81-13.52,2.34-19.46,1.19-3.28-.64-6.46-1.79-9.71-3.51-.28-.15-.56-.3-.84-.46.1.43.21.86.31,1.29Z"/>
    <path class="st0" d="M953.98,1345.66c-7.1,16.24-1.85,38.87-.37,55.88,4.86,55.63,18.65,110.96,9.28,155.39,18.02-35.2,32.62-76.5,40.22-117.8,6.28-34.12,7.79-68.21,2.49-98.79-8.13,6.65-18.53,10.64-29.86,10.64-7.85,0-15.25-1.92-21.76-5.31Z"/>
    <path class="st0" d="M906.63,1306.16c7.66,1.95,15.21,3.38,22.37,4.18,5.34.6,10.46.86,15.25.73,12.09-.31,22.07-3.04,28.08-8.78-.98-6.86-5.52-15.39-16.35-24.12-1.01-.81-2.07-1.63-3.19-2.44-2.83-2.06-6.02-4.12-9.6-6.16-8.69-4.95-19.69-9.77-33.5-14.19-7.65,12.48-16.17,24.35-25.57,35.59-1.4,1.68-2.83,3.34-4.27,4.99-.3.33-.59.67-.88,1,3.97,1.63,8,3.15,12.05,4.53,5.2,1.78,10.43,3.34,15.61,4.66Z"/>
    <path class="st0" d="M869.57,1334.33c-4.25-2.69-10.23-5.66-18.21-9.27-.16-.07-.31-.14-.47-.21-6.2,5.4-12.66,10.6-19.39,15.6-2.63,1.96-5.31,3.88-8.02,5.77-.25.18-.51.35-.76.53,3.1.56,6.16,1.01,9.15,1.36,5.33.62,10.44.91,15.24.81,12.58-.24,22.93-3.05,29-9.1-1.3-1.75-3.43-3.53-6.53-5.49Z"/>
    <path class="st0" d="M877.63,1388.22c-9.46,0-18.26-2.85-25.58-7.73-5.89,15.05-.99,35.18.43,50.48,4.85,52.07,18.62,103.85,9.31,145.46,18.01-32.96,32.6-71.63,40.19-110.29,5.89-29.98,7.58-59.93,3.39-87.17-7.72,5.82-17.33,9.26-27.74,9.26Z"/>
    <path class="st0" d="M896.63,1366.91c-2.36-1.52-4.94-3.86-7.23-7.5-1.38-2.21-2.66-4.88-3.72-8.14-7.91,7.42-18.85,11.02-30.92,12.14,1.79,1.92,3.82,3.61,6.04,5.03,4.86,3.1,10.63,4.9,16.82,4.9,7.15,0,13.74-2.4,19-6.43Z"/>
    <path class="st0" d="M998.37,1326.85c-1.55-.26-3.17-.83-4.77-1.84-3.38-2.14-6.68-6.29-9.19-13.79-7.91,8.82-19.56,13.02-32.57,14.31,3.18,3.49,7.11,6.28,11.54,8.12,3.81,1.58,7.98,2.45,12.36,2.45,8.81,0,16.8-3.52,22.63-9.24Z"/>
    <path class="st0" d="M466.91,1311.41c-1.09-19.34,7.56-40.4,21.34-54.29-2-.97-4.09-1.82-6.24-2.55-7.02,3.65-14.15,7.11-21.4,10.36-2.83,1.27-5.67,2.51-8.53,3.71-3.12,3.41-6.26,7.52-9.44,12.5-3.44,5.39-6.93,11.79-10.49,19.39-.25.54-.51,1.09-.76,1.64.19.09.38.17.57.26,1.1.51,2.17,1.06,3.21,1.65,4.77,2.72,8.83,6.29,12.08,10.46,1.83,2.35,3.41,4.9,4.7,7.58,2.2-2.1,4.72-4.16,7.69-6.07,1.99-1.28,3.73-2.08,5.31-2.54.63-.72,1.28-1.43,1.96-2.1Z"/>
    <path class="st0" d="M432.35,1361.72c-.38-1.52-.84-3-1.4-4.43-.8-2.02-1.8-3.94-3.03-5.74-2.04-2.98-4.73-5.62-8.21-7.81-3.7-2.32-8.29-4.14-13.95-5.32-.91,3.25-1.78,6.55-2.62,9.91-1.55,6.21-2.98,12.61-4.28,19.15-.98,4.94-1.88,9.96-2.71,15.04-.03.18-.06.35-.08.52-.51,3.17-.99,6.37-1.43,9.58-.08.6-.17,1.21-.25,1.82-.18,1.38-.36,2.76-.54,4.15-.37,2.94-.71,5.9-1.02,8.87-.06.58-.12,1.17-.18,1.76-1.85,18.38-2.61,37.26-2.05,55.99,1.08,36.7,7.21,72.77,20.03,103.19-6.77-44.35,9.93-99.48,17.77-154.91,0,0,0-.01,0-.03.64-4.55,1.58-9.51,2.49-14.64.41-2.3.81-4.64,1.17-6.99.65-4.16,1.18-8.38,1.45-12.51.23-3.58.25-7.1-.03-10.49-.2-2.45-.57-4.83-1.13-7.11Z"/>
    <path class="st0" d="M496.42,1385.31c-1.12,6.58-2.1,13.29-2.94,20.08-.6,4.91-1.13,9.85-1.58,14.83-1.52,16.89-2.11,34.16-1.61,51.29,1.08,36.7,7.21,72.77,20.03,103.19-6.69-43.84,9.55-98.21,17.5-153,.09-.65.19-1.29.28-1.94.57-4.05,1.37-8.41,2.18-12.93,2.28-12.77,4.6-26.79,1.86-38.42-1.21-5.13-3.4-9.79-7.01-13.67-.41-.44-.83-.86-1.27-1.28-4.24-3.99-10.2-7.04-18.41-8.75-.98,3.52-1.93,7.11-2.84,10.77-1.21,4.87-2.34,9.85-3.39,14.93-1.01,4.88-1.95,9.85-2.81,14.89Z"/>
    <path class="st0" d="M570.63,1331.42c-4.87.25-9.34-.46-13.96-1.93-1.16-.37-2.94-1.12-4.28-1.47-.26.15-.52.31-.7.44-4.41,2.92-7.58,6.78-10.6,10.74.23,3.61,0,7.3-.71,10.98.19.3.38.6.57.9,13.54-3.34,27.9-9.63,36.03-19.1-2.3-.41-4.46-.66-6.35-.56Z"/>
    <path class="st0" d="M543.47,1316.06c9.55-6.32,24.86,2.41,37.32,10.34,3.56-6.8,4.05-14.92-.38-24.42-10.97-23.57-37.69-27.62-54.79-17.52-.39.23-.77.47-1.15.71-1.91,3-3.84,6.15-5.82,9.4-1.48,2.41-2.98,4.87-4.43,7.2,3.27,1.34,6.31,3.05,9.08,5.07,5.47,3.99,9.88,9.19,12.95,15.09,2.06-2.03,4.42-4.03,7.21-5.87Z"/>
    <path class="st0" d="M1289.17,871.23c29.93,0,57.05-8.48,76.82-22.23,13.56-9.43,23.66-21.34,28.83-34.68.14-.38.29-.75.42-1.13-.08.02-.16.05-.25.07-5.26,1.46-10.59,2.76-15.98,3.88-13.62,2.84-27.67,4.63-42.03,5.38-4.18.22-8.4.35-12.66.41-4.78,15.74-13.08,29.47-25.73,38.82-5.3,3.92-11.34,7.05-18.19,9.24,2.89.16,5.82.25,8.77.25Z"/>
    <path class="st0" d="M1350.65,874.06c-18.13,7.66-39.12,12.04-61.48,12.04-4.61,0-9.16-.19-13.64-.55-2.2,3.48-4.41,7.04-6.65,10.66-12.53,20.24-26.17,42.26-44.69,57.82-4.28,3.6-8.81,6.85-13.66,9.65-1.03.6-2.07,1.17-3.13,1.73,1.1-.15,2.2-.32,3.3-.49,4.81-.76,9.69-1.72,14.61-2.89,43-10.21,89.76-36.59,125.34-87.97Z"/>
    <g>
      <path class="st9" d="M622.74,1226.39c-8.92-2.17-17.91,3.31-20.08,12.23-2.17,8.92,3.31,17.91,12.23,20.08,8.92,2.17,17.91-3.31,20.08-12.23,2.17-8.92-3.31-17.91-12.23-20.08Z"/>
      <path class="st0" d="M621.8,1230.24c6.79,1.65,10.96,8.49,9.31,15.29-1.65,6.79-8.49,10.96-15.29,9.31-6.79-1.65-10.96-8.49-9.31-15.29,1.65-6.79,8.49-10.96,15.29-9.31Z"/>
      <path class="st9" d="M613.63,1234.04c-4.7,2.86-6.18,8.99-3.32,13.68,2.86,4.7,8.99,6.19,13.68,3.32,4.7-2.86,6.18-8.99,3.32-13.68-2.86-4.7-8.99-6.18-13.69-3.32Z"/>
      <path class="st4" d="M614.67,1235.73c3.76-2.29,8.67-1.1,10.96,2.66,2.29,3.76,1.1,8.67-2.66,10.96-3.76,2.29-8.67,1.1-10.96-2.66-2.29-3.76-1.1-8.67,2.66-10.96Z"/>
      <path class="st9" d="M614.67,1235.73c.45-.28.92-.5,1.41-.68l8.14,13.36c-.38.34-.79.66-1.25.94-.45.28-.92.5-1.4.68l-8.14-13.36c.38-.34.79-.66,1.25-.94Z"/>
    </g>
    <path class="st9" d="M35.07,1131.42c-.4-.56-.27-1.33.29-1.73.56-.4,1.33-.27,1.73.29,59.69,83.25,166.74,154.79,167.05,155,.57.38.72,1.15.34,1.71-.38.57-1.15.72-1.71.34-.31-.21-107.75-72.01-167.69-155.61Z"/>
    <path class="st9" d="M157.12,1054.35c-.14-.67.28-1.33.95-1.47.67-.14,1.33.28,1.47.95,32.49,149.86,66.91,206.18,67.01,206.35.35.59.16,1.34-.43,1.7-.58.35-1.34.16-1.69-.43-.1-.17-34.74-56.84-67.31-207.09Z"/>
    <path class="st9" d="M263.45,1243.51c0,.68-.57,1.23-1.25,1.22-.68,0-1.23-.57-1.22-1.25.26-18.44,7.33-73.96,7.35-74.12.09-.68.7-1.16,1.38-1.07.68.08,1.15.7,1.07,1.38-.02.16-7.07,55.55-7.34,73.84Z"/>
    <path class="st9" d="M1057.61,958.7c-21.13-1.09-46.49-7.16-69.27-21.45-.07.46-.1.75-.1.88,0,.28-.12-.14-.35-1.16-2.61-1.65-5.18-3.41-7.71-5.28.18,19.81-3.79,48.6-2.94,64.62,41.07,13.31,92.19,21.74,92.19,21.74-1.49-8.23-2.88-16.25-4.08-24.11-1.83-11.99-3.25-23.62-3.96-35.09-1.24-.03-2.5-.08-3.77-.14Z"/>
    <path class="st9" d="M671.2,1108.92c17.49-43.73,30.43-136.57,30.72-211.35,0-.77,0-1.53,0-2.3,0-24.33-1.34-46.65-4.33-64.62-2.72-.65-5.44-1.31-8.14-1.97,2.73,20.68,4.21,41.5,4.32,62.36.08,15.88-.63,31.79-2.2,47.66-.77,7.79-1.74,15.57-2.93,23.34-6.4,41.87-18.83,82.15-37.21,119.54-10.28,20.92-22.42,40.94-36.4,59.82,12.56,5.59,25.24,10.57,37.95,14.95,13.4,4.62,26.83,8.57,40.17,11.88-18.87-18.72-29.97-39.28-21.96-59.31Z"/>
    <path class="st6" d="M1176.15,610.9c16.89-92.16,60.62-148.63,124.59-169.85-3.5.42-7.63,1.28-12.4,2.61-86.44,24.07-123.02,97.79-131.4,166.95,1.79.11,3.58.21,5.37.3,1.82.09,12.03-.08,13.84-.01Z"/>
    <path class="st6" d="M1179.65,793.84c0,2.98.24,5.91.7,8.8,1.12,7.03,3.58,13.77,7.19,20.1.63-8.04,2.44-20.37,7.6-31.61.15-.32.3-.64.45-.96-4.22-2.8-8.3-5.81-12.23-9.03-.63-.51-1.25-1.03-1.86-1.55-.29,1.1-.55,2.21-.77,3.32-.71,3.57-1.08,7.22-1.08,10.93Z"/>
    <path class="st6" d="M1176.73,833.36c-3.91-6.11-6.94-12.58-8.97-19.34-6.48,6.32-12.24,12.74-17.32,19.17-3.84,4.88-7.29,9.76-10.37,14.63-6.8,10.77-11.75,21.45-15.01,31.72,8.69-14.05,19.28-24.23,29.23-31.5,8.91-6.51,17.31-10.68,23.39-13.21-.33-.48-.64-.97-.96-1.46Z"/>
    <path class="st0" d="M207.96,1304.18c-141.95-57.17-196.82-126.68-197.41-171.93-1.26,8.12-.88,17.9,1.58,29.38,13.67,63.77,138.07,130.51,197.23,153.87-.79-3.72-1.26-7.51-1.4-11.32Z"/>
    <path class="st0" d="M215.22,1271.82c-25.5-27.73-44.55-54.49-58.42-79.49-33.79-60.91-36.79-111.37-27.23-139.89-8.1,11.98-12.65,29.52-10.49,52,1.97,20.51,9.76,43.73,20.65,67.2,6.61,14.25,14.36,28.6,22.64,42.49,15.52,26.04,32.88,50.46,48.06,69.64.11-.39.23-.77.34-1.16,1.04-3.37,2.32-6.57,3.84-9.6.2-.4.41-.8.62-1.2Z"/>
    <path class="st4" d="M800.98,715.16c8.28,58.04,94.97,89.92,122.31,5.48-26.5,21.69-93.39,22.86-122.31-5.48Z"/>
    <path class="st9" d="M968.35,699.16c-15.26,11.16-9.35,20.79-38.48,21.05,12.82-9.79,14.89-10.99,24.55-22.93,5.25-6.49,5.4-.2,13.92,1.87Z"/>
  </g>
  <g>
    <path class="st11" d="M317.23,1032.45c-7.33,0-14.03-1.22-20.09-3.67-6.06-2.44-11.21-6.08-15.46-10.92-4.25-4.84-7.55-10.84-9.88-18.01-2.34-7.17-3.51-15.49-3.51-24.95s1.17-17.78,3.51-24.95c2.34-7.17,5.63-13.18,9.88-18.01,4.25-4.83,9.41-8.47,15.46-10.92,6.06-2.44,12.75-3.67,20.09-3.67s14.03,1.22,20.09,3.67c6.06,2.45,11.21,6.09,15.46,10.92,4.25,4.84,7.54,10.84,9.88,18.01,2.34,7.17,3.51,15.49,3.51,24.95s-1.17,17.78-3.51,24.95c-2.34,7.17-5.63,13.18-9.88,18.01-4.25,4.84-9.41,8.48-15.46,10.92-6.06,2.44-12.75,3.67-20.09,3.67ZM317.23,1010.93c7.33,0,13.05-2.39,17.14-7.17,4.09-4.78,6.14-11.64,6.14-20.57v-16.58c0-8.93-2.05-15.78-6.14-20.56-4.09-4.78-9.8-7.17-17.14-7.17s-13.05,2.39-17.14,7.17c-4.09,4.78-6.14,11.64-6.14,20.56v16.58c0,8.93,2.04,15.78,6.14,20.57,4.09,4.78,9.8,7.17,17.14,7.17Z"/>
    <path class="st11" d="M421.81,1032.45c-9.78,0-18.07-1.68-24.87-5.03-6.8-3.35-12.59-7.69-17.38-13.01l15.94-16.12c7.54,8.43,16.84,12.64,27.9,12.64,5.95,0,10.36-1.21,13.23-3.63,2.87-2.42,4.3-5.63,4.3-9.64,0-3.05-.85-5.61-2.55-7.66-1.7-2.05-5.16-3.45-10.36-4.19l-11-1.42c-11.8-1.49-20.43-5.05-25.91-10.69-5.47-5.64-8.21-13.14-8.21-22.51,0-5,.96-9.58,2.87-13.73,1.91-4.15,4.65-7.72,8.21-10.69,3.56-2.98,7.92-5.3,13.07-6.94,5.15-1.65,11.02-2.47,17.62-2.47,8.39,0,15.78,1.33,22.16,3.99,6.38,2.66,11.85,6.55,16.42,11.66l-16.1,16.29c-2.66-3.05-5.87-5.55-9.64-7.5-3.77-1.95-8.53-2.92-14.27-2.92-5.42,0-9.46.95-12.12,2.84-2.66,1.89-3.99,4.52-3.99,7.89,0,3.79,1.04,6.52,3.11,8.21,2.07,1.68,5.44,2.89,10.12,3.63l11,1.76c11.48,1.81,19.98,5.35,25.51,10.61,5.53,5.27,8.29,12.74,8.29,22.42,0,5.32-.96,10.21-2.87,14.68-1.91,4.47-4.7,8.3-8.37,11.49-3.67,3.19-8.21,5.67-13.63,7.42-5.42,1.75-11.58,2.63-18.49,2.63Z"/>
    <path class="st11" d="M519.06,1032.45c-9.78,0-18.07-1.68-24.87-5.03-6.8-3.35-12.59-7.69-17.38-13.01l15.94-16.12c7.54,8.43,16.84,12.64,27.9,12.64,5.95,0,10.36-1.21,13.23-3.63,2.87-2.42,4.3-5.63,4.3-9.64,0-3.05-.85-5.61-2.55-7.66-1.7-2.05-5.16-3.45-10.36-4.19l-11-1.42c-11.8-1.49-20.43-5.05-25.91-10.69-5.47-5.64-8.21-13.14-8.21-22.51,0-5,.96-9.58,2.87-13.73,1.91-4.15,4.65-7.72,8.21-10.69,3.56-2.98,7.92-5.3,13.07-6.94,5.15-1.65,11.02-2.47,17.62-2.47,8.39,0,15.78,1.33,22.16,3.99,6.38,2.66,11.85,6.55,16.42,11.66l-16.1,16.29c-2.66-3.05-5.87-5.55-9.64-7.5-3.77-1.95-8.53-2.92-14.27-2.92-5.42,0-9.46.95-12.12,2.84-2.66,1.89-3.99,4.52-3.99,7.89,0,3.79,1.04,6.52,3.11,8.21,2.07,1.68,5.44,2.89,10.12,3.63l11,1.76c11.48,1.81,19.98,5.35,25.51,10.61,5.53,5.27,8.29,12.74,8.29,22.42,0,5.32-.96,10.21-2.87,14.68-1.91,4.47-4.7,8.3-8.37,11.49-3.67,3.19-8.21,5.67-13.63,7.42-5.42,1.75-11.58,2.63-18.49,2.63Z"/>
  </g>
</svg>